<svg xmlns="http://www.w3.org/2000/svg" xmlns:xlink="http://www.w3.org/1999/xlink" width="85" height="85" viewBox="0 0 85 85">
  <defs>
    <clipPath id="clip-path">
      <rect id="Rectángulo_34190" data-name="Rectángulo 34190" width="85" height="85" transform="translate(285 6205)" fill="#fff" stroke="#707070" stroke-width="1"/>
    </clipPath>
  </defs>
  <g id="Enmascarar_grupo_52" data-name="Enmascarar grupo 52" transform="translate(-285 -6205)" clip-path="url(#clip-path)">
    <g id="moneda" transform="translate(285 6205)">
      <g id="Grupo_80740" data-name="Grupo 80740">
        <circle id="Elipse_4774" data-name="Elipse 4774" cx="20.639" cy="20.639" r="20.639" transform="translate(37.17 1.245)" fill="#f2c42c"/>
        <circle id="Elipse_4775" data-name="Elipse 4775" cx="14.702" cy="14.702" r="14.702" transform="translate(43.107 7.182)" fill="#fadc60"/>
        <g id="Grupo_80738" data-name="Grupo 80738">
          <path id="Trazado_114771" data-name="Trazado 114771" d="M57.809,42.523q.539,0,1.07-.027a7.839,7.839,0,0,0-.962-2.511,7.878,7.878,0,0,0-10.8-2.733l-1.79,1.067A20.548,20.548,0,0,0,57.809,42.523Z" fill="#e0b629"/>
          <path id="Trazado_114772" data-name="Trazado 114772" d="M75.63,32.3H74.471a12.183,12.183,0,0,0-11.9,9.672A20.673,20.673,0,0,0,75.63,32.3Z" fill="#e0b629"/>
        </g>
        <path id="Trazado_114773" data-name="Trazado 114773" d="M25.43,70.085c4.738,2.823,14.617,7.867,24.725,7.867,9.341,0,17.018-7.916,21.109-13.212a15.416,15.416,0,0,0,3.207-9.426V35.62h0a8.842,8.842,0,0,0-8.842,8.842v8.611a5.631,5.631,0,0,1-2.2,4.464l-4.872,3.746a5.444,5.444,0,0,1-6.2.311C48.28,59.045,42.6,54.426,48.22,51.075l5.265-3.139A4.559,4.559,0,0,0,48.815,40.1l-11.46,6.832a16.088,16.088,0,0,1-8.239,2.269H27.746l-1.24,4.2Z" fill="#fbc4ac"/>
        <g id="Grupo_80739" data-name="Grupo 80739">
          <path id="Trazado_114774" data-name="Trazado 114774" d="M74.471,50.333a15.416,15.416,0,0,1-3.207,9.426c-4.091,5.3-11.768,13.212-21.109,13.212-9.9,0-19.567-4.832-24.415-7.684l-.309,4.8c4.738,2.823,14.617,7.867,24.725,7.867,9.341,0,17.018-7.916,21.109-13.212a15.416,15.416,0,0,0,3.207-9.426v-4.98Z" fill="#dfb297"/>
        </g>
        <path id="Trazado_114775" data-name="Trazado 114775" d="M20.091,49.205,13.322,66.48l6.77,11.141h4.288a3.367,3.367,0,0,0,3.367-3.367V49.205Z" fill="#efedee"/>
        <path id="Trazado_114776" data-name="Trazado 114776" d="M24.379,72.64H20.092l-5.583-9.188L13.322,66.48l6.77,11.141h4.288a3.367,3.367,0,0,0,3.367-3.367v-4.98A3.366,3.366,0,0,1,24.379,72.64Z" fill="#d2d2d2"/>
        <rect id="Rectángulo_34192" data-name="Rectángulo 34192" width="13.54" height="34.55" transform="translate(6.552 49.205)" fill="#506366"/>
        <rect id="Rectángulo_34193" data-name="Rectángulo 34193" width="13.54" height="4.98" transform="translate(6.552 78.774)" fill="#3a484a"/>
      </g>
      <g id="Grupo_80741" data-name="Grupo 80741">
        <path id="Trazado_114777" data-name="Trazado 114777" d="M57.809,5.937A15.947,15.947,0,1,0,73.756,21.884,15.965,15.965,0,0,0,57.809,5.937Zm0,29.4A13.457,13.457,0,1,1,71.266,21.884,13.472,13.472,0,0,1,57.809,35.341Z"/>
        <path id="Trazado_114778" data-name="Trazado 114778" d="M48.757,19.383a1.245,1.245,0,0,0-1.245,1.245v1.638a1.245,1.245,0,0,0,2.49,0V20.628A1.245,1.245,0,0,0,48.757,19.383Z"/>
        <path id="Trazado_114779" data-name="Trazado 114779" d="M65.616,20.628v1.638a1.245,1.245,0,0,0,2.49,0V20.628a1.245,1.245,0,0,0-2.49,0Z"/>
        <path id="Trazado_114780" data-name="Trazado 114780" d="M60.863,21.215a1.245,1.245,0,0,0-1.757.118,1.775,1.775,0,0,1-2.593,0,1.245,1.245,0,1,0-1.875,1.639,4.264,4.264,0,0,0,6.343,0A1.245,1.245,0,0,0,60.863,21.215Z"/>
        <path id="Trazado_114781" data-name="Trazado 114781" d="M74.2,7.387a1.245,1.245,0,0,0-1.865,1.65,19.391,19.391,0,0,1,.14,25.536l-.028.006a10.114,10.114,0,0,0-6.842,5.067,19.19,19.19,0,0,1-9.376,1.568A5.813,5.813,0,0,0,48.5,38.858l-.041.02A19.4,19.4,0,1,1,68.83,5.925a1.245,1.245,0,1,0,1.417-2.048,21.886,21.886,0,1,0-24.23,36.445l-9.3,5.544a14.85,14.85,0,0,1-7.6,2.094H6.552A1.245,1.245,0,0,0,5.307,49.2v34.55A1.245,1.245,0,0,0,6.552,85h13.54a1.245,1.245,0,0,0,1.245-1.245V78.866h3.043a4.617,4.617,0,0,0,4.612-4.612v-.8c5.572,2.81,13.274,5.74,21.164,5.74,4.4,0,8.865-1.636,13.26-4.861A46.242,46.242,0,0,0,72.25,65.5a16.745,16.745,0,0,0,3.466-10.188V35.62a1.239,1.239,0,0,0-.273-.777A21.88,21.88,0,0,0,74.2,7.387ZM57.809,43.769a21.752,21.752,0,0,0,6.73-1.056,10.1,10.1,0,0,0-.155,1.75v8.611a4.414,4.414,0,0,1-1.713,3.477L57.8,60.3a4.237,4.237,0,0,1-4.782.242c-3.716-2.323-5.924-4.645-5.907-6.212.008-.761.6-1.5,1.748-2.182l5.265-3.139a5.809,5.809,0,0,0,2.824-5.257C57.235,43.761,57.523,43.769,57.809,43.769ZM26.5,74.254a2.124,2.124,0,0,1-2.122,2.121H21.336V71.549a1.245,1.245,0,0,0-2.49,0V82.51H7.8V50.45h11.05V66.568a1.245,1.245,0,0,0,2.49,0V50.45H26.5v23.8ZM70.279,63.979C66.607,68.732,59.11,76.707,50.155,76.707c-4.466,0-11.728-1.062-21.164-6.052V50.45h.126a17.339,17.339,0,0,0,8.876-2.445l11.46-6.832A3.388,3.388,0,0,1,54,42.323a3.353,3.353,0,0,1-1.149,4.544l-5.265,3.139c-1.948,1.161-2.945,2.606-2.963,4.294-.027,2.587,2.354,5.4,7.077,8.35a6.748,6.748,0,0,0,7.62-.379l4.872-3.746a6.92,6.92,0,0,0,2.685-5.451V44.462a7.681,7.681,0,0,1,4.409-6.895,7.523,7.523,0,0,1,1.943-.6V55.314A14.245,14.245,0,0,1,70.279,63.979Z"/>
      </g>
    </g>
  </g>
</svg>
