<svg xmlns="http://www.w3.org/2000/svg" width="505" height="414" viewBox="0 0 505 414">
  <g id="Grupo_93985" data-name="Grupo 93985" transform="translate(8983 8957)">
    <path id="Trazado_128164" data-name="Trazado 128164" d="M10,0H495a10,10,0,0,1,10,10V404a10,10,0,0,1-10,10H10A10,10,0,0,1,0,404V10A10,10,0,0,1,10,0Z" transform="translate(-8983 -8957)" fill="#fc8116"/>
    <path id="Trazado_128165" data-name="Trazado 128165" d="M27.012,6.781v9.307a5.349,5.349,0,0,1-.674,2.739A4.365,4.365,0,0,1,24.4,20.59a6.812,6.812,0,0,1-2.979.605,5.885,5.885,0,0,1-4.092-1.348,4.806,4.806,0,0,1-1.523-3.691V6.781h3.447v9.443q.059,2.334,2.168,2.334a2.1,2.1,0,0,0,1.611-.586,2.739,2.739,0,0,0,.547-1.9V6.781Zm5.01,3.652.107,1.24a3.583,3.583,0,0,1,3.018-1.436,3.015,3.015,0,0,1,2.466.986,4.7,4.7,0,0,1,.845,2.969V21h-3.3V14.33a1.783,1.783,0,0,0-.322-1.177,1.491,1.491,0,0,0-1.172-.376,1.569,1.569,0,0,0-1.436.762V21H28.936V10.434ZM43.75,21h-3.3V10.434h3.3Zm-3.5-13.291a1.469,1.469,0,0,1,.508-1.152,2.159,2.159,0,0,1,2.637,0,1.469,1.469,0,0,1,.508,1.152A1.469,1.469,0,0,1,43.4,8.861a2.159,2.159,0,0,1-2.637,0A1.469,1.469,0,0,1,40.254,7.709Zm5.107,7.93a6.455,6.455,0,0,1,1.084-3.955,3.568,3.568,0,0,1,3.027-1.445,3.035,3.035,0,0,1,2.383,1.113V6h3.3V21H52.2l-.166-1.133A3.116,3.116,0,0,1,49.453,21.2a3.562,3.562,0,0,1-2.988-1.445A6.659,6.659,0,0,1,45.361,15.639Zm3.291.205q0,2.813,1.641,2.813a1.62,1.62,0,0,0,1.563-.918V13.715a1.576,1.576,0,0,0-1.543-.937q-1.523,0-1.65,2.461ZM62.979,21a3.716,3.716,0,0,1-.312-.947A3.06,3.06,0,0,1,60.127,21.2a3.749,3.749,0,0,1-2.539-.9,2.875,2.875,0,0,1-1.045-2.271,2.955,2.955,0,0,1,1.27-2.6,6.468,6.468,0,0,1,3.691-.879H62.52v-.559q0-1.462-1.26-1.462a1.03,1.03,0,0,0-1.172,1.158H56.8a2.95,2.95,0,0,1,1.3-2.487,5.479,5.479,0,0,1,3.325-.956,4.8,4.8,0,0,1,3.193.986,3.429,3.429,0,0,1,1.2,2.705v4.678a4.79,4.79,0,0,0,.449,2.227V21Zm-2.061-2.148a1.836,1.836,0,0,0,1.021-.264,1.653,1.653,0,0,0,.581-.6V16.3h-.957q-1.719,0-1.719,1.543a.942.942,0,0,0,.3.728A1.1,1.1,0,0,0,60.918,18.852Zm6.309-3.213a6.455,6.455,0,0,1,1.084-3.955,3.568,3.568,0,0,1,3.027-1.445,3.035,3.035,0,0,1,2.383,1.113V6h3.3V21H74.063L73.9,19.867A3.116,3.116,0,0,1,71.318,21.2,3.562,3.562,0,0,1,68.33,19.75,6.659,6.659,0,0,1,67.227,15.639Zm3.291.205q0,2.813,1.641,2.813a1.62,1.62,0,0,0,1.563-.918V13.715a1.576,1.576,0,0,0-1.543-.937q-1.523,0-1.65,2.461ZM84,21.2a5.432,5.432,0,0,1-3.936-1.45,5.008,5.008,0,0,1-1.5-3.774V15.7a6.489,6.489,0,0,1,.6-2.861,4.395,4.395,0,0,1,1.753-1.919,5.292,5.292,0,0,1,2.734-.679,4.574,4.574,0,0,1,3.516,1.382,5.43,5.43,0,0,1,1.289,3.853v1.279H81.914a2.372,2.372,0,0,0,.771,1.4,2.3,2.3,0,0,0,1.543.508,2.958,2.958,0,0,0,2.441-1.094l1.5,1.777a4.2,4.2,0,0,1-1.743,1.353A5.891,5.891,0,0,1,84,21.2Zm-.371-8.418q-1.445,0-1.719,1.914h3.32v-.254a1.63,1.63,0,0,0-.4-1.226A1.593,1.593,0,0,0,83.633,12.777Zm11.68,5.254a.76.76,0,0,0-.439-.674,6.684,6.684,0,0,0-1.67-.527,7.615,7.615,0,0,1-2.031-.718,3.4,3.4,0,0,1-1.221-1.079,2.577,2.577,0,0,1-.42-1.455,2.92,2.92,0,0,1,1.2-2.4,4.948,4.948,0,0,1,3.145-.942,5.482,5.482,0,0,1,3.359.947,2.962,2.962,0,0,1,1.27,2.49h-3.3q0-1.27-1.338-1.27a1.326,1.326,0,0,0-.869.288.892.892,0,0,0-.352.718.819.819,0,0,0,.43.713,4.06,4.06,0,0,0,1.372.449,11.857,11.857,0,0,1,1.655.42,3.007,3.007,0,0,1,2.383,2.939A2.767,2.767,0,0,1,97.2,20.287a5.631,5.631,0,0,1-3.325.908,5.747,5.747,0,0,1-2.422-.488,4.05,4.05,0,0,1-1.66-1.328,3.007,3.007,0,0,1-.6-1.768h3.076a1.272,1.272,0,0,0,.488,1.069,2.009,2.009,0,0,0,1.2.337,1.58,1.58,0,0,0,1.011-.273A.875.875,0,0,0,95.313,18.031Zm14.8,3.164a5.432,5.432,0,0,1-3.936-1.45,5.008,5.008,0,0,1-1.5-3.774V15.7a6.489,6.489,0,0,1,.6-2.861,4.395,4.395,0,0,1,1.753-1.919,5.292,5.292,0,0,1,2.734-.679,4.574,4.574,0,0,1,3.516,1.382,5.43,5.43,0,0,1,1.289,3.853v1.279h-6.543a2.372,2.372,0,0,0,.771,1.4,2.3,2.3,0,0,0,1.543.508,2.958,2.958,0,0,0,2.441-1.094l1.5,1.777a4.2,4.2,0,0,1-1.743,1.353A5.891,5.891,0,0,1,110.117,21.2Zm-.371-8.418q-1.445,0-1.719,1.914h3.32v-.254a1.63,1.63,0,0,0-.4-1.226A1.593,1.593,0,0,0,109.746,12.777Zm10.615,5.879a1.464,1.464,0,0,0,1.074-.376,1.379,1.379,0,0,0,.371-1.05h3.086a3.653,3.653,0,0,1-1.245,2.852,4.631,4.631,0,0,1-3.208,1.113,4.689,4.689,0,0,1-3.633-1.445,5.7,5.7,0,0,1-1.328-4v-.137a6.436,6.436,0,0,1,.591-2.827,4.3,4.3,0,0,1,1.7-1.885,5.081,5.081,0,0,1,2.637-.659,4.573,4.573,0,0,1,3.271,1.143,4.053,4.053,0,0,1,1.211,3.1h-3.086a1.806,1.806,0,0,0-.4-1.26,1.382,1.382,0,0,0-1.074-.439q-1.279,0-1.494,1.631a11.508,11.508,0,0,0-.068,1.426,4.52,4.52,0,0,0,.381,2.207A1.319,1.319,0,0,0,120.361,18.656Zm5.508-3.037a6.236,6.236,0,0,1,.615-2.817,4.4,4.4,0,0,1,1.768-1.9,5.323,5.323,0,0,1,2.705-.664,4.858,4.858,0,0,1,3.74,1.47,5.64,5.64,0,0,1,1.367,4v.117a5.472,5.472,0,0,1-1.372,3.921,4.871,4.871,0,0,1-3.716,1.45,4.927,4.927,0,0,1-3.623-1.353,5.29,5.29,0,0,1-1.475-3.667Zm3.291.205a3.932,3.932,0,0,0,.459,2.148,1.529,1.529,0,0,0,1.357.684q1.758,0,1.8-2.705v-.332q0-2.842-1.816-2.842-1.65,0-1.787,2.451Zm11.377-5.391.107,1.24a3.583,3.583,0,0,1,3.018-1.436,3.015,3.015,0,0,1,2.466.986,4.7,4.7,0,0,1,.845,2.969V21h-3.3V14.33a1.783,1.783,0,0,0-.322-1.177,1.491,1.491,0,0,0-1.172-.376,1.569,1.569,0,0,0-1.436.762V21h-3.291V10.434Zm7.842,5.186a6.236,6.236,0,0,1,.615-2.817,4.4,4.4,0,0,1,1.768-1.9,5.323,5.323,0,0,1,2.705-.664,4.858,4.858,0,0,1,3.74,1.47,5.64,5.64,0,0,1,1.367,4v.117a5.472,5.472,0,0,1-1.372,3.921,4.871,4.871,0,0,1-3.716,1.45,4.927,4.927,0,0,1-3.623-1.353,5.29,5.29,0,0,1-1.475-3.667Zm3.291.205a3.932,3.932,0,0,0,.459,2.148,1.529,1.529,0,0,0,1.357.684q1.758,0,1.8-2.705v-.332q0-2.842-1.816-2.842-1.65,0-1.787,2.451ZM153.916,6h3.477l-2.715,3.066-2.686,0Zm9.219,4.434.107,1.24a3.633,3.633,0,0,1,3.018-1.436,2.675,2.675,0,0,1,2.705,1.592,3.516,3.516,0,0,1,3.105-1.592q3.213,0,3.3,3.887V21h-3.3V14.33a2.014,2.014,0,0,0-.273-1.182,1.164,1.164,0,0,0-1-.371,1.559,1.559,0,0,0-1.455.869l.01.137V21h-3.3V14.35a2.117,2.117,0,0,0-.264-1.2,1.161,1.161,0,0,0-1.006-.371,1.578,1.578,0,0,0-1.445.869V21h-3.291V10.434ZM180.723,21h-3.3V10.434h3.3Zm-3.5-13.291a1.469,1.469,0,0,1,.508-1.152,2.159,2.159,0,0,1,2.637,0,1.469,1.469,0,0,1,.508,1.152,1.469,1.469,0,0,1-.508,1.152,2.159,2.159,0,0,1-2.637,0A1.469,1.469,0,0,1,177.227,7.709Zm9.99,10.947a1.464,1.464,0,0,0,1.074-.376,1.379,1.379,0,0,0,.371-1.05h3.086a3.653,3.653,0,0,1-1.245,2.852,4.631,4.631,0,0,1-3.208,1.113,4.689,4.689,0,0,1-3.633-1.445,5.7,5.7,0,0,1-1.328-4v-.137a6.436,6.436,0,0,1,.591-2.827,4.3,4.3,0,0,1,1.7-1.885,5.081,5.081,0,0,1,2.637-.659,4.573,4.573,0,0,1,3.271,1.143,4.053,4.053,0,0,1,1.211,3.1h-3.086a1.807,1.807,0,0,0-.4-1.26,1.382,1.382,0,0,0-1.074-.439q-1.279,0-1.494,1.631a11.507,11.507,0,0,0-.068,1.426,4.52,4.52,0,0,0,.381,2.207A1.319,1.319,0,0,0,187.217,18.656ZM199.092,21a3.716,3.716,0,0,1-.312-.947A3.06,3.06,0,0,1,196.24,21.2a3.749,3.749,0,0,1-2.539-.9,2.875,2.875,0,0,1-1.045-2.271,2.955,2.955,0,0,1,1.27-2.6,6.468,6.468,0,0,1,3.691-.879h1.016v-.559q0-1.462-1.26-1.462a1.03,1.03,0,0,0-1.172,1.158H192.91a2.95,2.95,0,0,1,1.3-2.487,5.479,5.479,0,0,1,3.325-.956,4.8,4.8,0,0,1,3.193.986,3.429,3.429,0,0,1,1.2,2.705v4.678a4.79,4.79,0,0,0,.449,2.227V21Zm-2.061-2.148a1.836,1.836,0,0,0,1.021-.264,1.653,1.653,0,0,0,.581-.6V16.3h-.957q-1.719,0-1.719,1.543a.942.942,0,0,0,.3.728A1.1,1.1,0,0,0,197.031,18.852Zm12.256-.82a.76.76,0,0,0-.439-.674,6.684,6.684,0,0,0-1.67-.527,7.615,7.615,0,0,1-2.031-.718,3.4,3.4,0,0,1-1.221-1.079,2.577,2.577,0,0,1-.42-1.455,2.92,2.92,0,0,1,1.2-2.4,4.948,4.948,0,0,1,3.145-.942,5.482,5.482,0,0,1,3.359.947,2.962,2.962,0,0,1,1.27,2.49h-3.3q0-1.27-1.338-1.27a1.326,1.326,0,0,0-.869.288.892.892,0,0,0-.352.718.819.819,0,0,0,.43.713,4.06,4.06,0,0,0,1.372.449,11.857,11.857,0,0,1,1.655.42,3.007,3.007,0,0,1,2.383,2.939,2.767,2.767,0,0,1-1.284,2.354,5.632,5.632,0,0,1-3.325.908,5.747,5.747,0,0,1-2.422-.488,4.05,4.05,0,0,1-1.66-1.328,3.007,3.007,0,0,1-.6-1.768h3.076a1.272,1.272,0,0,0,.488,1.069,2.009,2.009,0,0,0,1.2.337,1.58,1.58,0,0,0,1.011-.273A.875.875,0,0,0,209.287,18.031Zm9.277-2.393a6.455,6.455,0,0,1,1.084-3.955,3.568,3.568,0,0,1,3.027-1.445,3.035,3.035,0,0,1,2.383,1.113V6h3.3V21H225.4l-.166-1.133a3.116,3.116,0,0,1-2.578,1.328,3.562,3.562,0,0,1-2.988-1.445A6.659,6.659,0,0,1,218.564,15.639Zm3.291.205q0,2.813,1.641,2.813a1.62,1.62,0,0,0,1.563-.918V13.715a1.576,1.576,0,0,0-1.543-.937q-1.523,0-1.65,2.461ZM235.342,21.2a5.432,5.432,0,0,1-3.936-1.45,5.008,5.008,0,0,1-1.5-3.774V15.7a6.489,6.489,0,0,1,.6-2.861,4.395,4.395,0,0,1,1.753-1.919,5.292,5.292,0,0,1,2.734-.679,4.574,4.574,0,0,1,3.516,1.382,5.43,5.43,0,0,1,1.289,3.853v1.279h-6.543a2.372,2.372,0,0,0,.771,1.4,2.3,2.3,0,0,0,1.543.508,2.958,2.958,0,0,0,2.441-1.094l1.5,1.777a4.2,4.2,0,0,1-1.743,1.353A5.891,5.891,0,0,1,235.342,21.2Zm-.371-8.418q-1.445,0-1.719,1.914h3.32v-.254a1.63,1.63,0,0,0-.4-1.226A1.593,1.593,0,0,0,234.971,12.777ZM241.885,21V12.719h-1.533V10.434h1.533v-.352a4.034,4.034,0,0,1,1.387-3.232,5.541,5.541,0,0,1,3.6-1.055,12.787,12.787,0,0,1,3.438.566l-.449,2.6-.547-.146a8.7,8.7,0,0,0-2.246-.283q-1.885,0-1.885,1.719v.186h2.07v2.285h-2.07V21Zm9.941,0h-3.311V10.434h3.311Zm6.475-2.344a1.464,1.464,0,0,0,1.074-.376,1.379,1.379,0,0,0,.371-1.05h3.086a3.653,3.653,0,0,1-1.245,2.852,4.631,4.631,0,0,1-3.208,1.113,4.689,4.689,0,0,1-3.633-1.445,5.7,5.7,0,0,1-1.328-4v-.137a6.436,6.436,0,0,1,.591-2.827,4.3,4.3,0,0,1,1.7-1.885,5.081,5.081,0,0,1,2.637-.659,4.573,4.573,0,0,1,3.271,1.143,4.053,4.053,0,0,1,1.211,3.1h-3.086a1.806,1.806,0,0,0-.4-1.26,1.382,1.382,0,0,0-1.074-.439q-1.279,0-1.494,1.631a11.51,11.51,0,0,0-.068,1.426,4.52,4.52,0,0,0,.381,2.207A1.319,1.319,0,0,0,258.3,18.656ZM267.7,21h-3.3V10.434h3.3ZM264.2,7.709a1.469,1.469,0,0,1,.508-1.152,2.159,2.159,0,0,1,2.637,0,1.469,1.469,0,0,1,.508,1.152,1.469,1.469,0,0,1-.508,1.152,2.159,2.159,0,0,1-2.637,0A1.469,1.469,0,0,1,264.2,7.709Zm9.355.1v2.627h1.738v2.285h-1.738v4.834a1.234,1.234,0,0,0,.215.83,1.152,1.152,0,0,0,.85.234,4.828,4.828,0,0,0,.82-.059v2.354a6.074,6.074,0,0,1-1.855.283,3.448,3.448,0,0,1-2.51-.8,3.282,3.282,0,0,1-.811-2.432V12.719h-1.348V10.434h1.348V7.807ZM282.539,21a3.716,3.716,0,0,1-.312-.947,3.06,3.06,0,0,1-2.539,1.143,3.749,3.749,0,0,1-2.539-.9,2.875,2.875,0,0,1-1.045-2.271,2.955,2.955,0,0,1,1.27-2.6,6.468,6.468,0,0,1,3.691-.879h1.016v-.559q0-1.462-1.26-1.462a1.03,1.03,0,0,0-1.172,1.158h-3.291a2.95,2.95,0,0,1,1.3-2.487,5.479,5.479,0,0,1,3.325-.956,4.8,4.8,0,0,1,3.193.986,3.429,3.429,0,0,1,1.2,2.705v4.678a4.79,4.79,0,0,0,.449,2.227V21Zm-2.061-2.148a1.836,1.836,0,0,0,1.021-.264,1.653,1.653,0,0,0,.581-.6V16.3h-.957q-1.719,0-1.719,1.543a.942.942,0,0,0,.3.728A1.1,1.1,0,0,0,280.479,18.852Zm13.115-5.439-1.084-.078a1.947,1.947,0,0,0-1.992.977V21h-3.291V10.434h3.086l.107,1.357a2.548,2.548,0,0,1,2.314-1.553,3.209,3.209,0,0,1,.918.117ZM298.252,21h-3.3V10.434h3.3Zm-3.5-13.291a1.469,1.469,0,0,1,.508-1.152,2.159,2.159,0,0,1,2.637,0,1.469,1.469,0,0,1,.508,1.152,1.469,1.469,0,0,1-.508,1.152,2.159,2.159,0,0,1-2.637,0A1.469,1.469,0,0,1,294.756,7.709ZM306.23,21a3.716,3.716,0,0,1-.312-.947,3.06,3.06,0,0,1-2.539,1.143,3.749,3.749,0,0,1-2.539-.9,2.875,2.875,0,0,1-1.045-2.271,2.955,2.955,0,0,1,1.27-2.6,6.468,6.468,0,0,1,3.691-.879h1.016v-.559q0-1.462-1.26-1.462a1.03,1.03,0,0,0-1.172,1.158h-3.291a2.95,2.95,0,0,1,1.3-2.487,5.479,5.479,0,0,1,3.325-.956,4.8,4.8,0,0,1,3.193.986,3.429,3.429,0,0,1,1.2,2.705v4.678a4.79,4.79,0,0,0,.449,2.227V21Zm-2.061-2.148a1.836,1.836,0,0,0,1.021-.264,1.653,1.653,0,0,0,.581-.6V16.3h-.957q-1.719,0-1.719,1.543a.942.942,0,0,0,.3.728A1.1,1.1,0,0,0,304.17,18.852Zm12.256-.82a.76.76,0,0,0-.439-.674,6.684,6.684,0,0,0-1.67-.527,7.615,7.615,0,0,1-2.031-.718,3.4,3.4,0,0,1-1.221-1.079,2.577,2.577,0,0,1-.42-1.455,2.92,2.92,0,0,1,1.2-2.4,4.948,4.948,0,0,1,3.145-.942,5.482,5.482,0,0,1,3.359.947,2.962,2.962,0,0,1,1.27,2.49h-3.3q0-1.27-1.338-1.27a1.326,1.326,0,0,0-.869.288.892.892,0,0,0-.352.718.819.819,0,0,0,.43.713,4.06,4.06,0,0,0,1.372.449,11.856,11.856,0,0,1,1.655.42,3.007,3.007,0,0,1,2.383,2.939,2.767,2.767,0,0,1-1.284,2.354,5.631,5.631,0,0,1-3.325.908,5.747,5.747,0,0,1-2.422-.488,4.05,4.05,0,0,1-1.66-1.328,3.007,3.007,0,0,1-.6-1.768h3.076a1.272,1.272,0,0,0,.488,1.069,2.009,2.009,0,0,0,1.2.337,1.58,1.58,0,0,0,1.011-.273A.875.875,0,0,0,316.426,18.031Z" transform="translate(-8898 -8604)" fill="#12263f"/>
    <g id="Grupo_80573" data-name="Grupo 80573" transform="translate(-8966.716 -9005.819)">
      <g id="Grupo_80558" data-name="Grupo 80558" transform="translate(128.986 177.001)">
        <g id="Grupo_80544" data-name="Grupo 80544" transform="translate(16.014 134.336)" style="isolation: isolate">
          <ellipse id="Elipse_4744" data-name="Elipse 4744" cx="112.23" cy="22.192" rx="112.23" ry="22.192" fill="#c95e00"/>
        </g>
        <g id="Grupo_80557" data-name="Grupo 80557" transform="translate(0)">
          <path id="Trazado_114244" data-name="Trazado 114244" d="M281.728,325.214l5.439,3.213c52.211,5.842,70.259-19.014,79.071-49.514S355.5,218.1,327.1,200.994s-60.312-15.979-60.312-15.979l-15.328,5.979,6.952,2.674-12.835,9.091,6.418,4.813-10.7,8.556,12.3,12.3-11.229,12.29Z" transform="translate(-143.711 -185)" fill="#e3867b"/>
          <path id="Trazado_114245" data-name="Trazado 114245" d="M271.489,210.233c-1.967,0-5.408,6.392-7.375,4.425-.556-.556-6.195-6.116-14.1-13.8l-4.381,3.1,6.418,4.813-10.023,8.018c7.37,6.7,12.559,11.67,12.257,12.124-.983,1.475-4.425,5.408-2.95,5.9s29.5,7.374,28.517,4.424S273.455,210.233,271.489,210.233Z" transform="translate(-143.766 -186.202)" fill="#d35f5f"/>
          <path id="Trazado_114246" data-name="Trazado 114246" d="M272.619,292.285l11.642-21.807-18.752-2.342L263.3,247l-17.5-3.026.018-2.664-3.359,3.677,36.886,79.183c7.807-5.2,12.934-9.313,12.934-9.313l-7.795.605,9.018-28.091Z" transform="translate(-143.799 -189.268)" fill="#d35f5f"/>
          <path id="Trazado_114247" data-name="Trazado 114247" d="M282.194,323.312l5.328,3.148c51.152,5.723,68.834-18.628,77.467-48.51s-10.52-59.579-38.347-76.34-59.088-15.654-59.088-15.654l-15.018,5.858,6.811,2.62-12.574,8.906,6.287,4.715-10.479,8.383,12.051,12.05-11,12.042Z" transform="translate(-143.809 -185.072)" fill="#5b2325"/>
          <path id="Trazado_114248" data-name="Trazado 114248" d="M316.357,212.314c-17.64-8.105-35.951-13-47.342-15.98q-5.253.327-10.545.478,1.615.518,3.238,1.019-1.647.929-3.312,1.84l.981.519q-1.488.29-2.981.565-2.551,1.368-5.145,2.7,13.485,4.966,27.581,8.774-4.173,6.742-8.657,13.376,8.712,6.729,18.086,13-5.92,2.846-12.03,5.494,4.74,7.126,9.872,14.125-11.945,7.049-24.783,13.315,6.168,9.657,13,19.112a407.475,407.475,0,0,1-42.785,1.48q12.4,9.274,25.822,17.772-16.641,2.775-33.828,4.229.334,3.855.7,7.713,4,3.105,8.107,6.137,7.718,2.262,15.166,3.844c36.693,4.814,63.551-2.074,81.785-12.869,18.374-10.957,28.127-25.82,33.848-40.681C373.961,247.568,345.385,226.209,316.357,212.314Z" transform="translate(-142.365 -185.859)" fill="#330c10"/>
          <path id="Trazado_114249" data-name="Trazado 114249" d="M304.265,330.661s-3.967,14.108-3.4,23.031,5.335,3.067,5.335,3.067,1.811,8.617,6.284,5.686,18.633-23.209,19.447-28.6S304.265,330.661,304.265,330.661Z" transform="translate(-148.221 -196.006)" fill="#e3867b"/>
          <path id="Trazado_114250" data-name="Trazado 114250" d="M304.265,330.661s-3.967,14.108-3.4,23.031,5.335,3.067,5.335,3.067,1.811,8.617,6.284,5.686,18.633-23.209,19.447-28.6S304.265,330.661,304.265,330.661Z" transform="translate(-148.221 -196.006)" fill="#d35f5f" opacity="0.5"/>
          <path id="Trazado_114251" data-name="Trazado 114251" d="M289.828,328.339l-5.441-3.205,25.692-14.361L291.424,300.2l23.35-8-12.857-16.055,12.73-16.907-10.786-14.067,7.531-7.976-18.135-12.632,2.533-18.752-27.481-4.75,6.412-10.82-6.4-.884.956-3.784s31.9-1.085,60.313,15.976,47.994,47.254,39.222,77.6S342.03,334.214,289.828,328.339Z" transform="translate(-145.759 -185.043)" fill="#f59b87"/>
          <path id="Trazado_114252" data-name="Trazado 114252" d="M374.254,284.641c-.412-.429-.823-.855-1.238-1.29q-.66-.69-1.319-1.387c-2.856-3.017-5.684-6.073-8.11-8.7l-2.116-2.293q-.622-.675-1.183-1.28l-.607-.655c-1.531-1.65-2.606-2.785-2.993-3.116a.907.907,0,0,0-.26-.148c-1.878-.75-9.291,1.441-15.908,4.115q-.616.25-1.22.5t-1.193.51q-.722.315-1.413.632c-.289.132-.575.264-.853.4-.181.085-.36.171-.535.256-.265.128-.522.256-.775.383l-.487.248c-3.01,1.553-5.014,2.975-4.808,3.8a3.464,3.464,0,0,0,.307.712l.008.017c.08.151.176.316.283.494l0,.007c.1.166.215.348.338.537.011.017.019.031.031.049.131.2.276.416.432.64l.015.021c4.353,6.294,17.619,21.249,26.646,24.93l.006,0h0l.094.042a28.719,28.719,0,0,0,8.309,1.866,98.015,98.015,0,0,0,8.439-20.9C374.186,284.9,374.218,284.769,374.254,284.641Z" transform="translate(-150.375 -191.11)" fill="#d35f5f" opacity="0.5"/>
          <path id="Trazado_114253" data-name="Trazado 114253" d="M271.714,210.454c-1.967,0-5.408,6.392-7.375,4.425-.548-.549-6.032-5.956-13.759-13.466L246.924,204l6.418,4.813-10.695,8.556.024.024c7.145,6.506,12.132,11.295,11.835,11.74l-.039.056.478.479-3.373,3.692c-.432.831-.564,1.49-.016,1.672,1.475.492,29.5,7.375,28.516,4.425S273.681,210.454,271.714,210.454Z" transform="translate(-143.814 -186.244)" fill="#330c10"/>
          <path id="Trazado_114254" data-name="Trazado 114254" d="M272.794,293.433,284.569,271.7l-18.737-2.457-2.084-21.151-17.482-3.133.034-2.626-2.5,2.731L280.763,324.4c7.022-4.694,11.548-8.278,11.548-8.278l-7.8.558,9.189-28.037Z" transform="translate(-143.901 -189.346)" fill="#330c10"/>
          <g id="Grupo_80547" data-name="Grupo 80547" transform="translate(123.33 0)">
            <g id="Grupo_80545" data-name="Grupo 80545" transform="translate(0)">
              <path id="Trazado_114255" data-name="Trazado 114255" d="M299.023,220.127,297.4,217.69l-.465,3.428Z" transform="translate(-271.259 -187.478)" fill="#e3867b"/>
              <path id="Trazado_114256" data-name="Trazado 114256" d="M270.144,185.016l-.96,3.8,6.4.882-6.426,10.878,18.518,3.194-5.449-8.181,5.2-9.339A107.751,107.751,0,0,0,270.144,185.016Z" transform="translate(-269.153 -185)" fill="#e3867b"/>
              <path id="Trazado_114257" data-name="Trazado 114257" d="M370.188,281.855c6.335-21.914-2.119-43.746-18-60.613,8.528,24.533,7.455,50.676-8.283,71.195-14.445,18.834-31.943,33.645-56.588,35.008l-.919.516,5.3,3.129C343.507,336.752,361.443,312.1,370.188,281.855Z" transform="translate(-270.46 -187.747)" fill="#d35f5f" opacity="0.5"/>
            </g>
            <g id="Grupo_80546" data-name="Grupo 80546" transform="translate(0 0)">
              <path id="Trazado_114258" data-name="Trazado 114258" d="M275.277,198.878l-4.672.292-1.452,2.458,4.877.841Z" transform="translate(-269.153 -186.052)" fill="#e3867b"/>
              <path id="Trazado_114259" data-name="Trazado 114259" d="M273.342,193.489a127.059,127.059,0,0,1,43.094.509,124.638,124.638,0,0,0-46.29-8.982l-.96,3.8,6.4.882Z" transform="translate(-269.155 -185.001)" fill="#f59b87"/>
            </g>
            <path id="Trazado_114260" data-name="Trazado 114260" d="M295.551,194.791c8.2.475,19.355,3.67,20.549,4.864,1.242.889,1.6,2.036-.488,1.392-2.315-1.027-14.553-2.666-21.3-2.627C286.87,198.4,280.236,194.391,295.551,194.791Z" transform="translate(-270.451 -185.74)" fill="#d35f5f"/>
          </g>
          <g id="Grupo_80556" data-name="Grupo 80556" transform="translate(0 31.621)">
            <path id="Trazado_114261" data-name="Trazado 114261" d="M279.762,324.9s8.266,12.1,10.583,20.738-4.075,4.611-4.075,4.611,1.036,8.744-4.139,7.395S257.06,341.6,254.567,336.753,279.762,324.9,279.762,324.9Z" transform="translate(-144.705 -227.225)" fill="#e3867b"/>
            <path id="Trazado_114262" data-name="Trazado 114262" d="M279.762,324.9s8.266,12.1,10.583,20.738-4.075,4.611-4.075,4.611,1.036,8.744-4.139,7.395S257.06,341.6,254.567,336.753,279.762,324.9,279.762,324.9Z" transform="translate(-144.705 -227.225)" fill="#d35f5f" opacity="0.5"/>
            <path id="Trazado_114263" data-name="Trazado 114263" d="M232.774,338.211s11.4,9.6,15.475,16.834-3.846,4.428-3.846,4.428,2.641,7.463-3.45,6.847-31.108-11.223-34.748-15.157S232.774,338.211,232.774,338.211Z" transform="translate(-141.029 -228.233)" fill="#e3867b"/>
            <path id="Trazado_114264" data-name="Trazado 114264" d="M232.774,338.211s11.4,9.6,15.475,16.834-3.846,4.428-3.846,4.428,2.641,7.463-3.45,6.847-31.108-11.223-34.748-15.157S232.774,338.211,232.774,338.211Z" transform="translate(-141.029 -228.233)" fill="#d35f5f" opacity="0.5"/>
            <path id="Trazado_114265" data-name="Trazado 114265" d="M158.443,238.22s4.35-5.953,6.854-7.991l2.125,3.3,5.006-4.077L176,241.567,198.212,224.7l1.14,3.083s8.535-8.472,15.261-8.567,13.459,5.744,10.605,17.764l6.659-2.173L232.6,245.8l17.675,1.753,3.735,20.923,18.872.981-10.037,22.591,20.469-6.411-6.965,28.67,7.731-1.167s-32.9,30.548-59.073,34.7-67.572-1.182-78.258-46.043c-4.574-24.2-2.065-29.846-2.065-29.846S117.191,264.573,158.443,238.22Z" transform="translate(-135.709 -219.215)" fill="#f59b87"/>
            <path id="Trazado_114266" data-name="Trazado 114266" d="M152.36,257.586s-10.056,1.354-12.48,5.321,4.87,9.127,9.012,9.48S154.425,258.559,152.36,257.586Z" transform="translate(-135.988 -222.123)" fill="#d35f5f"/>
            <path id="Trazado_114267" data-name="Trazado 114267" d="M159.122,238.22s4.35-5.953,6.854-7.991l2.125,3.3,5.006-4.077,3.573,12.118L198.891,224.7l1.14,3.083s8.535-8.472,15.261-8.567,13.459,5.744,10.605,17.764l6.659-2.173.722,10.988,17.675,1.753,3.735,20.923,18.872.981-10.037,22.591,20.469-6.411-6.965,28.67,7.731-1.167s-32.9,30.548-59.073,34.7-67.572-1.182-78.258-46.043c-4.574-24.2-2.065-29.846-2.065-29.846S149.267,251.754,159.122,238.22Z" transform="translate(-136.388 -219.215)" fill="#e3867b"/>
            <path id="Trazado_114268" data-name="Trazado 114268" d="M171.512,289.261c-2.448-31.35,1.278-37.91,1.278-37.91s1.214-4.116,3.579-10l-3.261-11.064-5.007,4.077-2.125-3.3c-2.5,2.039-6.854,7.992-6.854,7.992-9.856,13.533-13.76,33.721-13.76,33.721s-2.509,5.648,2.065,29.846c8.574,35.992,36.917,46.536,61.3,47.157C190.495,338.735,175.274,319.9,171.512,289.261Z" transform="translate(-136.388 -220.054)" fill="#f59b87"/>
            <path id="Trazado_114269" data-name="Trazado 114269" d="M294.435,321.085l-.381,1.567c1.3-1.147,2.026-1.816,2.026-1.816Z" transform="translate(-147.71 -226.917)" fill="#e3867b"/>
            <g id="Grupo_80548" data-name="Grupo 80548" transform="translate(48.497 85.545)" opacity="0.5">
              <path id="Trazado_114270" data-name="Trazado 114270" d="M282.643,311.775c-11.936,12.854-29.749,29.432-46.757,35.288-13.337,4.593-30.715,7.558-47.7,4.745,13.871,4.849,28.908,4.922,40.8,3.038,26.17-4.149,59.073-34.7,59.073-34.7l-7.731,1.167Z" transform="translate(-188.183 -311.775)" fill="#d35f5f"/>
            </g>
            <path id="Trazado_114271" data-name="Trazado 114271" d="M185.819,293.407a22.942,22.942,0,0,1,3.894-1.4c9.444-2.421,19.109-2.241,23.635.2,10.543,5.69,15.985,15.377,3.994,32.586a30.559,30.559,0,0,1-7.743,7.744l-2.935,1.8c-12.493,9.622-29.841,7.318-36.122,2.188-7.471-6.1-14.093-21.171-3.256-32.22q.258-.263.518-.532a28.125,28.125,0,0,1,8.424-5.953Z" transform="translate(-137.67 -224.601)" fill="#d35f5f" opacity="0.5"/>
            <path id="Trazado_114272" data-name="Trazado 114272" d="M177.794,294.879a25.224,25.224,0,0,1,4.141-1.508c10.031-2.649,20.262-2.593,25.02-.112,11.086,5.784,16.715,15.8,3.786,33.883a33.344,33.344,0,0,1-8.3,8.17l-3.133,1.913c-13.358,10.19-31.693,8.027-38.273,2.77-7.827-6.253-14.634-21.857-3.009-33.511l.556-.561a30.853,30.853,0,0,1,9-6.314Z" transform="translate(-136.928 -224.685)" fill="#d35f5f"/>
            <path id="Trazado_114273" data-name="Trazado 114273" d="M204.963,293.052c11.724,6.116,18.526,16.045,10.357,32.733,11.693-17.23,6.079-26.889-4.725-32.526-2.425-1.265-6.274-1.9-10.793-1.865A19,19,0,0,1,204.963,293.052Z" transform="translate(-140.566 -224.685)" fill="#bf4b4b"/>
            <path id="Trazado_114274" data-name="Trazado 114274" d="M207.454,235.155s6.351-7.913,11-7.941,5.3,8.883,3.467,12.612S207.222,237.426,207.454,235.155Z" transform="translate(-141.146 -219.821)" fill="#d35f5f"/>
            <g id="Grupo_80551" data-name="Grupo 80551" transform="translate(43.876 44.406)">
              <g id="Grupo_80549" data-name="Grupo 80549" transform="translate(0 3.978)">
                <path id="Trazado_114275" data-name="Trazado 114275" d="M198.539,282.169a1.319,1.319,0,0,1-.531-.112c-3.579-1.555-13.751-7.749-14.183-8.011a1.337,1.337,0,0,1,1.392-2.284c.1.064,10.445,6.359,13.856,7.844a1.337,1.337,0,0,1-.533,2.563Z" transform="translate(-183.183 -271.566)" fill="#5b2325"/>
              </g>
              <g id="Grupo_80550" data-name="Grupo 80550" transform="translate(5.003)">
                <path id="Trazado_114276" data-name="Trazado 114276" d="M189.932,282.989a1.336,1.336,0,0,1-1.15-2.018c2.767-4.675,6.319-12.823,6.355-12.906a1.337,1.337,0,0,1,2.451,1.067c-.147.339-3.652,8.383-6.5,13.2A1.336,1.336,0,0,1,189.932,282.989Z" transform="translate(-188.596 -267.262)" fill="#5b2325"/>
              </g>
            </g>
            <g id="Grupo_80554" data-name="Grupo 80554" transform="translate(21.243 50.091)">
              <g id="Grupo_80552" data-name="Grupo 80552" transform="translate(0 3.978)">
                <path id="Trazado_114277" data-name="Trazado 114277" d="M174.05,288.321a1.327,1.327,0,0,1-.532-.112c-3.579-1.555-13.751-7.749-14.182-8.012a1.337,1.337,0,1,1,1.392-2.283c.1.064,10.444,6.361,13.856,7.844a1.337,1.337,0,0,1-.533,2.563Z" transform="translate(-158.693 -277.718)" fill="#5b2325"/>
              </g>
              <g id="Grupo_80553" data-name="Grupo 80553" transform="translate(5.003)">
                <path id="Trazado_114278" data-name="Trazado 114278" d="M165.443,289.142a1.337,1.337,0,0,1-1.15-2.018c2.768-4.677,6.319-12.825,6.355-12.908a1.337,1.337,0,1,1,2.451,1.067c-.147.339-3.653,8.383-6.5,13.2A1.336,1.336,0,0,1,165.443,289.142Z" transform="translate(-164.107 -273.414)" fill="#5b2325"/>
              </g>
            </g>
            <path id="Trazado_114279" data-name="Trazado 114279" d="M201.493,297.688c-6.779-3.537-24.938-2.027-37.257,5.373a31.6,31.6,0,0,0-6.116,4.7c-11.345,11.375-4.7,26.6,2.937,32.707,6.422,5.131,24.319,7.243,37.356-2.7a32.688,32.688,0,0,0,6.775-7.013C217.807,313.106,212.313,303.333,201.493,297.688Z" transform="translate(-136.947 -225.024)" fill="#e3867b"/>
            <path id="Trazado_114280" data-name="Trazado 114280" d="M165.735,341.895c-8.619-6.884-16.113-24.066-3.314-36.9.11-.11.225-.217.337-.325a30.271,30.271,0,0,0-4.639,3.762c-11.345,11.375-4.7,26.6,2.937,32.707,2.438,1.948,6.531,3.458,11.383,4.042A20.442,20.442,0,0,1,165.735,341.895Z" transform="translate(-136.947 -225.691)" fill="#f59b87"/>
            <path id="Trazado_114281" data-name="Trazado 114281" d="M188.184,313.261c1.5.321,5.173,3.25,7.455,6.44a14.5,14.5,0,0,1,1.1,1.778c1.952,3.8.094,5.705-1.669,5.744-1.483.033-5.217-2.175-7.562-5.949a13.948,13.948,0,0,1-1.159-2.311C184.339,313.8,185.783,312.751,188.184,313.261Z" transform="translate(-139.475 -226.334)" fill="#5b2325"/>
            <path id="Trazado_114282" data-name="Trazado 114282" d="M169.406,321.972c1.406.3,4.835,3.037,6.967,6.018a13.517,13.517,0,0,1,1.028,1.662c1.824,3.55.088,5.332-1.56,5.369-1.386.03-4.875-2.032-7.067-5.561a13.015,13.015,0,0,1-1.082-2.159C165.813,322.471,167.162,321.5,169.406,321.972Z" transform="translate(-138.065 -226.994)" fill="#5b2325"/>
            <g id="Grupo_80555" data-name="Grupo 80555" transform="translate(69.352 112.039)">
              <path id="Trazado_114283" data-name="Trazado 114283" d="M212.084,349.99a1.335,1.335,0,0,1-1.336-1.322c0-.2-.012-5.014,3.209-7.2,2-1.357,4.663-1.371,7.921-.039a1.336,1.336,0,1,1-1.011,2.474c-2.372-.968-4.19-1.046-5.4-.229-1.69,1.141-2.049,3.975-2.044,4.971a1.338,1.338,0,0,1-1.328,1.344Z" transform="translate(-210.748 -340.441)" fill="#5b2325"/>
            </g>
            <path id="Trazado_114284" data-name="Trazado 114284" d="M209.993,289.66c-3.144,2.027-4.849-6.205-5.216-8.09S213.137,287.632,209.993,289.66Z" transform="translate(-140.943 -223.919)" fill="#fad4bd"/>
            <path id="Trazado_114285" data-name="Trazado 114285" d="M160.074,298.674c-2.788-.515.546-5.944,1.323-7.175S162.863,299.188,160.074,298.674Z" transform="translate(-137.473 -224.684)" fill="#fad4bd"/>
          </g>
        </g>
      </g>
      <path id="Trazado_114286" data-name="Trazado 114286" d="M97.674,115.945c3.933,5.408,38.161,44.714,41.6,47.664S180.083,149.351,185,149.351s53.276,50.044,55.243,52.011,5.409-4.425,7.375-4.425,7.374,26.057,8.358,29.007-27.041-3.933-28.516-4.425,1.967-4.424,2.95-5.9-39.019-36.278-40.494-37.753-42.773,17.7-45.723,19.666-95.684-81.1-97.159-83.063S93.74,110.537,97.674,115.945Z" transform="translate(0 -2.5)" fill="#ba2727"/>
      <g id="Grupo_80562" data-name="Grupo 80562" transform="translate(296.069 79.457)">
        <g id="Grupo_80559" data-name="Grupo 80559" transform="translate(0 140.679)">
          <path id="Trazado_114287" data-name="Trazado 114287" d="M343.96,231.972c2.232,1.913,27.451,30.659,31.016,30.659s7.487-7.13,7.13-8.556,9.626-3.565,13.9-4.278,12.478-2.5,11.052,1.07-9.626,11.052-23.53,15.686-28.164,7.843-38.859,3.566-27.451-24.6-28.163-27.451S341.464,229.832,343.96,231.972Z" transform="translate(-316.494 -231.673)" fill="#abd6a7"/>
          <path id="Trazado_114288" data-name="Trazado 114288" d="M396.009,249.8c-4.278.713-14.261,2.852-13.9,4.278s-3.565,8.556-7.13,8.556-28.784-28.747-31.016-30.66c-2.5-2.139-28.164,7.844-27.451,10.7s17.371,23.052,28.07,27.409c-10.482-7.513-22.035-22.138-22.187-23.666.891-1.248-.178-4.457-.178-4.457s8.912-3.743,12.478-4.278c.713,1.783,6.6,2.14,9.091,1.961a60.71,60.71,0,0,0,9.091,12.3c4.635,4.635,13.9,13.547,21.391,13.725s11.229-2.5,11.229-2.5-2.139.178-5.347.713c1.07-.178,3.387-2.5,5.347-3.921,2.5-.357,4.813-4.278,5.348-4.457a61.526,61.526,0,0,1,8.021.178c-.211.211.267,1.266,1.142,2.608,3.949-2.889,6.346-5.642,7.057-7.421C408.487,247.3,400.288,249.083,396.009,249.8Z" transform="translate(-316.494 -231.673)" fill="#5e9659"/>
          <path id="Trazado_114289" data-name="Trazado 114289" d="M333.2,249.9c.537-.934,2.648-1.859,4.47-1.567a3.576,3.576,0,0,1,.968.293c1.957.923,2.152,3.533,1.676,4.891A3.671,3.671,0,0,1,336,255.473a4.061,4.061,0,0,1-1.183-.583C332.333,253.142,332.346,251.391,333.2,249.9Z" transform="translate(-317.721 -232.931)" fill="#5e9659"/>
          <path id="Trazado_114290" data-name="Trazado 114290" d="M375.05,272.473a7.885,7.885,0,0,0-2.412-3.761,11.136,11.136,0,0,0-2.175-1.49c-4.277-2.27-10.105-2.3-12.073-.868-2.456,1.789-3.752,4.379-1.864,8.232A61.753,61.753,0,0,0,375.05,272.473Z" transform="translate(-319.46 -234.227)" fill="#5e9659"/>
        </g>
        <g id="Grupo_80561" data-name="Grupo 80561" transform="translate(23.634)">
          <path id="Trazado_114291" data-name="Trazado 114291" d="M342.685,136.927c-.984-2.062-1.225-3.35,2.591-5.171s19.81-9.188,26.761-17.566c10.917-13.155,26.539-24.072,34.834-28.873s13.006-5.924,14.631-5.857,25.12,20.054,26.179,22.078-5.6.426-12.938,4.3-36.781,37.972-50.882,45.918-18.249,9.27-19.708,8.372S345.6,143.033,342.685,136.927Z" transform="translate(-342.066 -79.457)" fill="#5e9659"/>
          <path id="Trazado_114292" data-name="Trazado 114292" d="M366.005,156.873c-3.5-2.992-17.017-16.231-19.51-21.051.192-.107.433-.232.729-.374l.537-.254c5.022-2.384,20.306-9.638,27.493-18.3C385.206,104.9,399.7,94.3,409.083,88.87c6.911-4,10.627-5.015,11.994-5.271,3.19,2.14,13.962,11.149,19.929,16.535a28.964,28.964,0,0,0-7.674,2.708c-3.473,1.834-9.393,7.679-19.558,17.854-10.6,10.614-23.8,23.823-31.415,28.114C371.474,154.943,367.472,156.549,366.005,156.873Z" transform="translate(-342.402 -79.771)" fill="#abd6a7"/>
          <path id="Trazado_114293" data-name="Trazado 114293" d="M369.485,139.415c.418-.994,2.4-2.17,4.243-2.105a3.561,3.561,0,0,1,1,.171c2.056.676,2.569,3.241,2.264,4.648a3.672,3.672,0,0,1-4.044,2.475,4.059,4.059,0,0,1-1.245-.433C369.021,142.742,368.817,141,369.485,139.415Z" transform="translate(-344.119 -83.841)" fill="#5e9659"/>
          <path id="Trazado_114294" data-name="Trazado 114294" d="M344.99,139.415c.418-.994,2.4-2.17,4.244-2.105a3.56,3.56,0,0,1,1,.171c2.056.676,2.57,3.241,2.265,4.648a3.672,3.672,0,0,1-4.044,2.475,4.051,4.051,0,0,1-1.245-.433C344.526,142.742,344.322,141,344.99,139.415Z" transform="translate(-342.263 -83.841)" fill="#5e9659"/>
          <path id="Trazado_114295" data-name="Trazado 114295" d="M364.277,159.281c.418-.994,2.4-2.17,4.244-2.106a3.594,3.594,0,0,1,1,.172c2.056.676,2.57,3.241,2.265,4.648a3.673,3.673,0,0,1-4.044,2.475,4.075,4.075,0,0,1-1.245-.433C363.813,162.607,363.609,160.868,364.277,159.281Z" transform="translate(-343.725 -85.347)" fill="#5e9659"/>
          <path id="Trazado_114296" data-name="Trazado 114296" d="M422.717,83.29c.418-.994,2.4-2.17,4.243-2.106a3.594,3.594,0,0,1,1,.172c2.056.676,2.569,3.241,2.264,4.648a3.672,3.672,0,0,1-4.043,2.475,4.081,4.081,0,0,1-1.246-.433C422.253,86.617,422.049,84.877,422.717,83.29Z" transform="translate(-348.154 -79.588)" fill="#5e9659"/>
          <path id="Trazado_114297" data-name="Trazado 114297" d="M443.132,98.735c.418-.994,2.4-2.17,4.244-2.106a3.594,3.594,0,0,1,1,.172c2.056.676,2.57,3.241,2.265,4.648a3.673,3.673,0,0,1-4.044,2.475,4.075,4.075,0,0,1-1.245-.433C442.668,102.061,442.464,100.322,443.132,98.735Z" transform="translate(-349.701 -80.758)" fill="#5e9659"/>
          <path id="Trazado_114298" data-name="Trazado 114298" d="M419.036,99.428c.418-.994,2.4-2.17,4.244-2.106a3.627,3.627,0,0,1,1,.171c2.056.677,2.57,3.242,2.265,4.649a3.673,3.673,0,0,1-4.044,2.475,4.076,4.076,0,0,1-1.245-.433C418.572,102.754,418.368,101.015,419.036,99.428Z" transform="translate(-347.875 -80.811)" fill="#5e9659"/>
          <path id="Trazado_114299" data-name="Trazado 114299" d="M386.259,114.17c1.275-3.03,7.317-6.619,12.942-6.423a10.916,10.916,0,0,1,3.039.523c6.272,2.061,7.838,9.885,6.908,14.175-.782,3.606-5.875,8.628-12.334,7.548a12.426,12.426,0,0,1-3.8-1.322C384.844,124.315,384.225,119.008,386.259,114.17Z" transform="translate(-345.341 -81.6)" fill="#5e9659"/>
          <g id="Grupo_80560" data-name="Grupo 80560" transform="translate(46.311 30.181)">
            <path id="Trazado_114300" data-name="Trazado 114300" d="M401.83,114.764a.422.422,0,0,1-.1.551q-.484.38-1.08.857l-1.11.872a.437.437,0,0,1-.523,0,.736.736,0,0,0-.775-.052,2.5,2.5,0,0,0-1.229,1.224q-.279.617.1.9.245.189.992-.153.439-.2,1.251-.683t1.251-.683q2.174-.994,3.128-.2,1.1.916.136,3.088a.436.436,0,0,0,.057.451c.259.31.517.612.776.907l.658.7a.531.531,0,0,1-.016.741l-.687.676a.873.873,0,0,1-1.287-.067l-.657-.8a.42.42,0,0,0-.621-.036q-.143.146-.289.276a.432.432,0,0,0-.035.594l.335.406.021.025c.127.136.257.27.389.4a.425.425,0,0,1,0,.605l-.626.616a1.029,1.029,0,0,1-1.517-.079l-.677-.823a.423.423,0,0,0-.492-.117,8.738,8.738,0,0,1-1.6.486.419.419,0,0,1-.5-.418q.007-.774.069-1.968a.432.432,0,0,1,.375-.4,4.867,4.867,0,0,0,1.344-.392,4.4,4.4,0,0,0,.7-.4,7.232,7.232,0,0,0,1.056-.846q.671-.654.454-.918-.236-.286-1.136.126a15.675,15.675,0,0,0-1.659.94,15.688,15.688,0,0,1-1.681.95q-1.953.894-2.692.033-.861-.976.036-3.433a.428.428,0,0,0-.071-.422l-1.628-1.926a.424.424,0,0,1,.018-.567l1.216-1.274a.42.42,0,0,1,.646.04q.381.52.8,1.077a.425.425,0,0,0,.677,0c.049-.065.1-.129.151-.2a.427.427,0,0,0,0-.535l-.843-1.023a.425.425,0,0,1,.034-.576l1.016-.976a.847.847,0,0,1,1.286.135l.482.711a.418.418,0,0,0,.506.162,2.8,2.8,0,0,1,1.819-.16,2.569,2.569,0,0,1,1.292.922A5.868,5.868,0,0,1,401.83,114.764Z" transform="translate(-392.175 -112.113)" fill="#abd6a7"/>
          </g>
        </g>
      </g>
      <g id="Grupo_80572" data-name="Grupo 80572" transform="translate(201.907 349.984)">
        <g id="Grupo_80565" data-name="Grupo 80565" transform="translate(97.575 5.094)">
          <ellipse id="Elipse_4745" data-name="Elipse 4745" cx="8.895" cy="20.982" rx="8.895" ry="20.982" transform="translate(0 19.045) rotate(-83.689)" fill="#c95e00"/>
          <g id="Grupo_80564" data-name="Grupo 80564" transform="translate(1.161)">
            <g id="Grupo_80563" data-name="Grupo 80563">
              <path id="Trazado_114301" data-name="Trazado 114301" d="M302.6,416.332c1.969-1.748,10.181-3.2,17.456-2.32a27.61,27.61,0,0,1,3.887.742c7.919,2.152,9.133,7.32,7.48,9.91-.2.313-1.8,3.9-2.113,4.391-1.39,2.178-8.519,4.671-16.784,3.115a28.078,28.078,0,0,1-4.787-1.351c-7.434-2.831-9.549-5.436-8.912-7.724C299.04,422.333,301.606,417.215,302.6,416.332Z" transform="translate(-298.72 -413.746)" fill="#da8a2f"/>
              <path id="Trazado_114302" data-name="Trazado 114302" d="M302.773,416.332c1.969-1.748,10.181-3.2,17.456-2.32a27.61,27.61,0,0,1,3.887.742c7.919,2.152,9.133,7.32,7.48,9.91-1.39,2.178-8.52,4.671-16.784,3.115a28.083,28.083,0,0,1-4.788-1.35C299.88,422.566,299.63,419.121,302.773,416.332Z" transform="translate(-298.893 -413.746)" fill="#ffdead"/>
              <path id="Trazado_114303" data-name="Trazado 114303" d="M328.99,423.208c-.314-.894-1.562-3.115-6.349-4.417a25.578,25.578,0,0,0-3.616-.688,39.667,39.667,0,0,0-8.906,0c-3.8.422-6.105,1.225-6.872,1.718a.555.555,0,0,1-.02-.068c-.029-.164.15-.678,1.025-1.457.53-.469,2.915-1.386,7.06-1.847a39.723,39.723,0,0,1,8.906,0,25.58,25.58,0,0,1,3.616.688c4.787,1.3,6.035,3.523,6.349,4.417a2.27,2.27,0,0,1-.108,1.967,2.983,2.983,0,0,1-.922.709A2.8,2.8,0,0,0,328.99,423.208Z" transform="translate(-299.062 -413.932)" fill="#da8a2f"/>
              <path id="Trazado_114304" data-name="Trazado 114304" d="M305.391,422.227a43.219,43.219,0,0,0,5.457,2.2,31.286,31.286,0,0,0,11.417,1.715,25.927,25.927,0,0,0,5.79-.847,16.422,16.422,0,0,1-5.724,1.686,22.719,22.719,0,0,1-11.786-1.773A21.763,21.763,0,0,1,305.391,422.227Z" transform="translate(-299.226 -414.389)" fill="#fff"/>
            </g>
            <path id="Trazado_114305" data-name="Trazado 114305" d="M331.593,428a3.578,3.578,0,0,1-.384,1.442,3.532,3.532,0,0,1-.892,1.2,3.508,3.508,0,0,1,.383-1.442A3.573,3.573,0,0,1,331.593,428Z" transform="translate(-301.115 -414.827)" fill="#bc6917"/>
            <path id="Trazado_114306" data-name="Trazado 114306" d="M329.451,428.858a3.57,3.57,0,0,1-.384,1.441,3.517,3.517,0,0,1-.893,1.2,3.524,3.524,0,0,1,.384-1.442A3.563,3.563,0,0,1,329.451,428.858Z" transform="translate(-300.953 -414.891)" fill="#bc6917"/>
            <path id="Trazado_114307" data-name="Trazado 114307" d="M326.839,429.687a5.016,5.016,0,0,1-.4,1.732,4.961,4.961,0,0,1-.926,1.518,4.964,4.964,0,0,1,.4-1.732A5.019,5.019,0,0,1,326.839,429.687Z" transform="translate(-300.751 -414.954)" fill="#bc6917"/>
            <path id="Trazado_114308" data-name="Trazado 114308" d="M323.66,430.2a3.578,3.578,0,0,1-.383,1.442,3.539,3.539,0,0,1-.893,1.2,3.54,3.54,0,0,1,.383-1.442A3.581,3.581,0,0,1,323.66,430.2Z" transform="translate(-300.514 -414.993)" fill="#bc6917"/>
            <path id="Trazado_114309" data-name="Trazado 114309" d="M320.886,430.271a5.515,5.515,0,0,1-1.354,3.216,4.906,4.906,0,0,1,.416-1.718A4.957,4.957,0,0,1,320.886,430.271Z" transform="translate(-300.298 -414.998)" fill="#bc6917"/>
            <path id="Trazado_114310" data-name="Trazado 114310" d="M318.013,430.051a3.579,3.579,0,0,1-.383,1.442,3.539,3.539,0,0,1-.893,1.2,3.926,3.926,0,0,1,1.275-2.637Z" transform="translate(-300.086 -414.982)" fill="#bc6917"/>
            <path id="Trazado_114311" data-name="Trazado 114311" d="M315.575,429.628a3.577,3.577,0,0,1-.383,1.442,3.535,3.535,0,0,1-.893,1.194,3.523,3.523,0,0,1,.383-1.441A3.563,3.563,0,0,1,315.575,429.628Z" transform="translate(-299.901 -414.95)" fill="#bc6917"/>
            <path id="Trazado_114312" data-name="Trazado 114312" d="M312.954,429.069a3.535,3.535,0,0,1-.361,1.709,3.5,3.5,0,0,1-1.079,1.373,3.845,3.845,0,0,1,1.44-3.082Z" transform="translate(-299.69 -414.907)" fill="#bc6917"/>
            <path id="Trazado_114313" data-name="Trazado 114313" d="M310.261,428.442a3.534,3.534,0,0,1-.36,1.709,3.5,3.5,0,0,1-1.079,1.374,3.491,3.491,0,0,1,.36-1.71A3.549,3.549,0,0,1,310.261,428.442Z" transform="translate(-299.485 -414.86)" fill="#bc6917"/>
            <path id="Trazado_114314" data-name="Trazado 114314" d="M307.177,426.935a3.927,3.927,0,0,1-1.275,2.637,3.54,3.54,0,0,1,.383-1.442A3.581,3.581,0,0,1,307.177,426.935Z" transform="translate(-299.265 -414.746)" fill="#bc6917"/>
            <path id="Trazado_114315" data-name="Trazado 114315" d="M305.044,425.784a3.579,3.579,0,0,1-.384,1.442,3.523,3.523,0,0,1-.893,1.195,3.933,3.933,0,0,1,1.276-2.637Z" transform="translate(-299.103 -414.658)" fill="#bc6917"/>
            <path id="Trazado_114316" data-name="Trazado 114316" d="M302.826,424.565a3.57,3.57,0,0,1-.384,1.441,3.506,3.506,0,0,1-.893,1.2,3.933,3.933,0,0,1,1.276-2.636Z" transform="translate(-298.935 -414.566)" fill="#bc6917"/>
            <path id="Trazado_114317" data-name="Trazado 114317" d="M301.547,423.472a3.575,3.575,0,0,1-.383,1.442,3.518,3.518,0,0,1-.893,1.2,3.926,3.926,0,0,1,1.275-2.637Z" transform="translate(-298.838 -414.483)" fill="#bc6917"/>
            <path id="Trazado_114318" data-name="Trazado 114318" d="M300.692,422.025a3.926,3.926,0,0,1-1.275,2.637,3.926,3.926,0,0,1,1.275-2.637Z" transform="translate(-298.773 -414.373)" fill="#bc6917"/>
          </g>
        </g>
        <g id="Grupo_80568" data-name="Grupo 80568" transform="translate(40.508)">
          <ellipse id="Elipse_4746" data-name="Elipse 4746" cx="7.411" cy="15.48" rx="7.411" ry="15.48" transform="translate(0 15.489) rotate(-83.688)" fill="#c95e00"/>
          <g id="Grupo_80567" data-name="Grupo 80567" transform="translate(0.514)">
            <g id="Grupo_80566" data-name="Grupo 80566">
              <path id="Trazado_114319" data-name="Trazado 114319" d="M262.061,374.211c1.555-1.381,8.042-2.531,13.79-1.833a21.8,21.8,0,0,1,3.07.586c6.255,1.7,7.214,5.783,5.908,7.829-.157.248-1.422,3.083-1.668,3.469-1.1,1.721-6.731,3.689-13.26,2.46a22.126,22.126,0,0,1-3.782-1.067c-5.872-2.237-7.543-4.295-7.04-6.1A25.333,25.333,0,0,1,262.061,374.211Z" transform="translate(-258.995 -372.168)" fill="#da8a2f"/>
              <path id="Trazado_114320" data-name="Trazado 114320" d="M262.2,374.211c1.555-1.381,8.042-2.531,13.79-1.833a21.8,21.8,0,0,1,3.07.586c6.255,1.7,7.215,5.783,5.908,7.829-1.1,1.721-6.73,3.69-13.259,2.46a22.128,22.128,0,0,1-3.782-1.067C259.911,379.136,259.714,376.415,262.2,374.211Z" transform="translate(-259.132 -372.168)" fill="#ffdead"/>
              <path id="Trazado_114321" data-name="Trazado 114321" d="M282.908,379.643c-.249-.706-1.234-2.46-5.017-3.489a20.271,20.271,0,0,0-2.857-.543,31.4,31.4,0,0,0-7.035,0,14.948,14.948,0,0,0-5.428,1.358c-.009-.028-.015-.049-.017-.055-.022-.129.118-.536.811-1.15.418-.372,2.3-1.1,5.577-1.459a31.344,31.344,0,0,1,7.035,0,20.276,20.276,0,0,1,2.857.542c3.783,1.03,4.768,2.784,5.016,3.49a1.79,1.79,0,0,1-.085,1.554,2.348,2.348,0,0,1-.728.56A2.22,2.22,0,0,0,282.908,379.643Z" transform="translate(-259.265 -372.315)" fill="#da8a2f"/>
              <path id="Trazado_114322" data-name="Trazado 114322" d="M264.265,378.868a34.251,34.251,0,0,0,4.311,1.738,24.723,24.723,0,0,0,9.018,1.355,20.514,20.514,0,0,0,4.575-.669,12.949,12.949,0,0,1-4.522,1.332,17.941,17.941,0,0,1-9.311-1.4A17.2,17.2,0,0,1,264.265,378.868Z" transform="translate(-259.395 -372.676)" fill="#fff"/>
            </g>
            <path id="Trazado_114323" data-name="Trazado 114323" d="M284.964,383.431a3.006,3.006,0,0,1-.3,1.139,2.951,2.951,0,0,1-.705.944,2.957,2.957,0,0,1,.3-1.139A2.988,2.988,0,0,1,284.964,383.431Z" transform="translate(-260.887 -373.022)" fill="#bc6917"/>
            <path id="Trazado_114324" data-name="Trazado 114324" d="M283.271,384.106a2.99,2.99,0,0,1-.3,1.139,2.955,2.955,0,0,1-.705.945,2.948,2.948,0,0,1,.3-1.139A3,3,0,0,1,283.271,384.106Z" transform="translate(-260.759 -373.073)" fill="#bc6917"/>
            <path id="Trazado_114325" data-name="Trazado 114325" d="M281.209,384.761a4.277,4.277,0,0,1-.318,1.369,4.183,4.183,0,0,1-.732,1.2,4.409,4.409,0,0,1,1.05-2.567Z" transform="translate(-260.599 -373.123)" fill="#bc6917"/>
            <path id="Trazado_114326" data-name="Trazado 114326" d="M278.7,385.163a3.01,3.01,0,0,1-.3,1.139,2.965,2.965,0,0,1-.705.944,2.972,2.972,0,0,1,.3-1.139A3,3,0,0,1,278.7,385.163Z" transform="translate(-260.412 -373.153)" fill="#bc6917"/>
            <path id="Trazado_114327" data-name="Trazado 114327" d="M276.505,385.223a4.162,4.162,0,0,1-.329,1.357,4.1,4.1,0,0,1-.74,1.183,4.132,4.132,0,0,1,.328-1.357A4.2,4.2,0,0,1,276.505,385.223Z" transform="translate(-260.241 -373.158)" fill="#bc6917"/>
            <path id="Trazado_114328" data-name="Trazado 114328" d="M274.236,385.049a3.1,3.1,0,0,1-1.007,2.083,2.972,2.972,0,0,1,.3-1.14A3,3,0,0,1,274.236,385.049Z" transform="translate(-260.074 -373.144)" fill="#bc6917"/>
            <path id="Trazado_114329" data-name="Trazado 114329" d="M272.31,384.714a3.015,3.015,0,0,1-.3,1.14,2.975,2.975,0,0,1-.705.944,2.972,2.972,0,0,1,.3-1.139A3,3,0,0,1,272.31,384.714Z" transform="translate(-259.928 -373.119)" fill="#bc6917"/>
            <path id="Trazado_114330" data-name="Trazado 114330" d="M270.239,384.273a2.8,2.8,0,0,1-.285,1.35,2.767,2.767,0,0,1-.853,1.085,3.044,3.044,0,0,1,1.138-2.435Z" transform="translate(-259.761 -373.086)" fill="#bc6917"/>
            <path id="Trazado_114331" data-name="Trazado 114331" d="M268.112,383.778a3.039,3.039,0,0,1-1.137,2.435,2.76,2.76,0,0,1,.285-1.35A2.8,2.8,0,0,1,268.112,383.778Z" transform="translate(-259.6 -373.048)" fill="#bc6917"/>
            <path id="Trazado_114332" data-name="Trazado 114332" d="M265.676,382.587a3.013,3.013,0,0,1-.3,1.14,2.961,2.961,0,0,1-.705.944,3.111,3.111,0,0,1,1.008-2.083Z" transform="translate(-259.425 -372.958)" fill="#bc6917"/>
            <path id="Trazado_114333" data-name="Trazado 114333" d="M263.99,381.678a3.1,3.1,0,0,1-1.007,2.083,2.972,2.972,0,0,1,.3-1.14A3,3,0,0,1,263.99,381.678Z" transform="translate(-259.298 -372.889)" fill="#bc6917"/>
            <path id="Trazado_114334" data-name="Trazado 114334" d="M262.238,380.715a3.1,3.1,0,0,1-1.007,2.082,3.1,3.1,0,0,1,1.007-2.082Z" transform="translate(-259.165 -372.816)" fill="#bc6917"/>
            <path id="Trazado_114335" data-name="Trazado 114335" d="M261.228,379.852a3.1,3.1,0,0,1-1.007,2.083,2.972,2.972,0,0,1,.3-1.14A3.018,3.018,0,0,1,261.228,379.852Z" transform="translate(-259.088 -372.751)" fill="#bc6917"/>
            <path id="Trazado_114336" data-name="Trazado 114336" d="M260.553,378.708a3.015,3.015,0,0,1-.3,1.14,2.975,2.975,0,0,1-.705.944,2.968,2.968,0,0,1,.3-1.139A3,3,0,0,1,260.553,378.708Z" transform="translate(-259.037 -372.664)" fill="#bc6917"/>
          </g>
        </g>
        <g id="Grupo_80571" data-name="Grupo 80571" transform="translate(0 18.892)">
          <ellipse id="Elipse_4747" data-name="Elipse 4747" cx="7.411" cy="17.014" rx="7.411" ry="17.014" transform="translate(0 15.978) rotate(-83.689)" fill="#c95e00"/>
          <g id="Grupo_80570" data-name="Grupo 80570" transform="translate(0.977)">
            <g id="Grupo_80569" data-name="Grupo 80569">
              <path id="Trazado_114337" data-name="Trazado 114337" d="M218.732,400.876c1.555-1.38,8.042-2.53,13.789-1.832a21.8,21.8,0,0,1,3.071.586c6.255,1.7,7.214,5.783,5.908,7.829-.157.248-1.422,3.083-1.669,3.47-1.1,1.72-6.73,3.689-13.259,2.459a22.212,22.212,0,0,1-3.782-1.067c-5.872-2.237-7.543-4.295-7.04-6.1A25.279,25.279,0,0,1,218.732,400.876Z" transform="translate(-215.666 -398.833)" fill="#da8a2f"/>
              <path id="Trazado_114338" data-name="Trazado 114338" d="M218.868,400.876c1.555-1.381,8.042-2.531,13.789-1.833a21.8,21.8,0,0,1,3.071.586c6.255,1.7,7.214,5.783,5.908,7.829-1.1,1.721-6.731,3.69-13.259,2.46a22.115,22.115,0,0,1-3.783-1.067C216.582,405.8,216.385,403.08,218.868,400.876Z" transform="translate(-215.803 -398.833)" fill="#ffdead"/>
              <path id="Trazado_114339" data-name="Trazado 114339" d="M239.578,406.309c-.248-.707-1.233-2.461-5.016-3.49a20.276,20.276,0,0,0-2.857-.543,31.344,31.344,0,0,0-7.035,0,14.946,14.946,0,0,0-5.428,1.358.416.416,0,0,1-.017-.055c-.022-.129.118-.536.81-1.151.419-.371,2.3-1.094,5.578-1.458a31.342,31.342,0,0,1,7.035,0,20.142,20.142,0,0,1,2.857.543c3.783,1.029,4.768,2.783,5.016,3.489a1.8,1.8,0,0,1-.085,1.555,2.375,2.375,0,0,1-.728.559A2.194,2.194,0,0,0,239.578,406.309Z" transform="translate(-215.936 -398.98)" fill="#da8a2f"/>
              <path id="Trazado_114340" data-name="Trazado 114340" d="M220.935,405.533a34.179,34.179,0,0,0,4.312,1.738,24.723,24.723,0,0,0,9.018,1.355,20.443,20.443,0,0,0,4.574-.669,12.937,12.937,0,0,1-4.521,1.332,17.912,17.912,0,0,1-9.311-1.4A17.223,17.223,0,0,1,220.935,405.533Z" transform="translate(-216.066 -399.341)" fill="#fff"/>
            </g>
            <path id="Trazado_114341" data-name="Trazado 114341" d="M241.634,410.1a3.1,3.1,0,0,1-1.007,2.083,2.973,2.973,0,0,1,.3-1.14A3,3,0,0,1,241.634,410.1Z" transform="translate(-217.558 -399.687)" fill="#bc6917"/>
            <path id="Trazado_114342" data-name="Trazado 114342" d="M239.942,410.771a3.1,3.1,0,0,1-1.007,2.083,2.968,2.968,0,0,1,.3-1.139A3.017,3.017,0,0,1,239.942,410.771Z" transform="translate(-217.43 -399.738)" fill="#bc6917"/>
            <path id="Trazado_114343" data-name="Trazado 114343" d="M237.879,411.426a4.251,4.251,0,0,1-.317,1.369,4.2,4.2,0,0,1-.732,1.2,4.141,4.141,0,0,1,.318-1.368A4.239,4.239,0,0,1,237.879,411.426Z" transform="translate(-217.27 -399.788)" fill="#bc6917"/>
            <path id="Trazado_114344" data-name="Trazado 114344" d="M235.368,411.828a3.011,3.011,0,0,1-.3,1.139,2.961,2.961,0,0,1-.7.944,2.956,2.956,0,0,1,.3-1.139A2.989,2.989,0,0,1,235.368,411.828Z" transform="translate(-217.083 -399.818)" fill="#bc6917"/>
            <path id="Trazado_114345" data-name="Trazado 114345" d="M233.176,411.888a4.18,4.18,0,0,1-.329,1.357,4.119,4.119,0,0,1-.74,1.183,4.132,4.132,0,0,1,.328-1.357A4.176,4.176,0,0,1,233.176,411.888Z" transform="translate(-216.912 -399.823)" fill="#bc6917"/>
            <path id="Trazado_114346" data-name="Trazado 114346" d="M230.907,411.714a3.023,3.023,0,0,1-.3,1.139,2.978,2.978,0,0,1-.705.945,3.1,3.1,0,0,1,1.007-2.083Z" transform="translate(-216.745 -399.809)" fill="#bc6917"/>
            <path id="Trazado_114347" data-name="Trazado 114347" d="M228.981,411.379a3.011,3.011,0,0,1-.3,1.14,2.958,2.958,0,0,1-.7.944,2.956,2.956,0,0,1,.3-1.139A3,3,0,0,1,228.981,411.379Z" transform="translate(-216.599 -399.784)" fill="#bc6917"/>
            <path id="Trazado_114348" data-name="Trazado 114348" d="M226.91,410.938a2.807,2.807,0,0,1-.285,1.35,2.775,2.775,0,0,1-.853,1.085,2.77,2.77,0,0,1,.285-1.35A2.8,2.8,0,0,1,226.91,410.938Z" transform="translate(-216.432 -399.751)" fill="#bc6917"/>
            <path id="Trazado_114349" data-name="Trazado 114349" d="M224.783,410.443a3.039,3.039,0,0,1-1.137,2.435,2.76,2.76,0,0,1,.285-1.35A2.79,2.79,0,0,1,224.783,410.443Z" transform="translate(-216.271 -399.713)" fill="#bc6917"/>
            <path id="Trazado_114350" data-name="Trazado 114350" d="M222.346,409.252a3.1,3.1,0,0,1-1.007,2.083,2.972,2.972,0,0,1,.3-1.139A3.031,3.031,0,0,1,222.346,409.252Z" transform="translate(-216.096 -399.623)" fill="#bc6917"/>
            <path id="Trazado_114351" data-name="Trazado 114351" d="M220.661,408.343a3.1,3.1,0,0,1-1.007,2.082,2.972,2.972,0,0,1,.3-1.139A3,3,0,0,1,220.661,408.343Z" transform="translate(-215.969 -399.554)" fill="#bc6917"/>
            <path id="Trazado_114352" data-name="Trazado 114352" d="M218.909,407.38a3.011,3.011,0,0,1-.3,1.139,2.964,2.964,0,0,1-.705.944,3.1,3.1,0,0,1,1.007-2.082Z" transform="translate(-215.836 -399.481)" fill="#bc6917"/>
            <path id="Trazado_114353" data-name="Trazado 114353" d="M217.9,406.517a3.1,3.1,0,0,1-1.007,2.083,3.1,3.1,0,0,1,1.007-2.083Z" transform="translate(-215.759 -399.416)" fill="#bc6917"/>
            <path id="Trazado_114354" data-name="Trazado 114354" d="M217.224,405.373a3.007,3.007,0,0,1-.3,1.139,2.955,2.955,0,0,1-.705.945,3.111,3.111,0,0,1,1.008-2.083Z" transform="translate(-215.708 -399.329)" fill="#bc6917"/>
          </g>
        </g>
      </g>
    </g>
  </g>
</svg>
