<svg xmlns="http://www.w3.org/2000/svg" width="505" height="414" viewBox="0 0 505 414">
  <g id="Grupo_93984" data-name="Grupo 93984" transform="translate(-285 -2743)">
    <path id="Trazado_128164" data-name="Trazado 128164" d="M10,0H495a10,10,0,0,1,10,10V404a10,10,0,0,1-10,10H10A10,10,0,0,1,0,404V10A10,10,0,0,1,10,0Z" transform="translate(285 2743)" fill="#fcd03e"/>
    <path id="Trazado_128165" data-name="Trazado 128165" d="M25.6,6.781v9.307a5.349,5.349,0,0,1-.674,2.739,4.365,4.365,0,0,1-1.934,1.763,6.812,6.812,0,0,1-2.979.605,5.885,5.885,0,0,1-4.092-1.348A4.806,4.806,0,0,1,14.4,16.156V6.781h3.447v9.443q.059,2.334,2.168,2.334a2.1,2.1,0,0,0,1.611-.586,2.739,2.739,0,0,0,.547-1.9V6.781Zm5.01,3.652.107,1.24a3.583,3.583,0,0,1,3.018-1.436,3.015,3.015,0,0,1,2.466.986,4.7,4.7,0,0,1,.845,2.969V21h-3.3V14.33a1.783,1.783,0,0,0-.322-1.177,1.491,1.491,0,0,0-1.172-.376,1.569,1.569,0,0,0-1.436.762V21H27.524V10.434ZM42.339,21h-3.3V10.434h3.3Zm-3.5-13.291a1.469,1.469,0,0,1,.508-1.152,2.159,2.159,0,0,1,2.637,0A1.469,1.469,0,0,1,42.5,7.709a1.469,1.469,0,0,1-.508,1.152,2.159,2.159,0,0,1-2.637,0A1.469,1.469,0,0,1,38.843,7.709Zm5.107,7.93a6.455,6.455,0,0,1,1.084-3.955,3.568,3.568,0,0,1,3.027-1.445,3.035,3.035,0,0,1,2.383,1.113V6h3.3V21H50.786l-.166-1.133A3.116,3.116,0,0,1,48.042,21.2a3.562,3.562,0,0,1-2.988-1.445A6.659,6.659,0,0,1,43.95,15.639Zm3.291.205q0,2.813,1.641,2.813a1.62,1.62,0,0,0,1.563-.918V13.715a1.576,1.576,0,0,0-1.543-.937q-1.523,0-1.65,2.461ZM61.567,21a3.716,3.716,0,0,1-.312-.947A3.06,3.06,0,0,1,58.716,21.2a3.749,3.749,0,0,1-2.539-.9,2.875,2.875,0,0,1-1.045-2.271,2.955,2.955,0,0,1,1.27-2.6,6.468,6.468,0,0,1,3.691-.879h1.016v-.559q0-1.462-1.26-1.462a1.03,1.03,0,0,0-1.172,1.158H55.386a2.95,2.95,0,0,1,1.3-2.487,5.479,5.479,0,0,1,3.325-.956,4.8,4.8,0,0,1,3.193.986,3.429,3.429,0,0,1,1.2,2.705v4.678a4.79,4.79,0,0,0,.449,2.227V21Zm-2.061-2.148a1.836,1.836,0,0,0,1.021-.264,1.653,1.653,0,0,0,.581-.6V16.3h-.957q-1.719,0-1.719,1.543a.942.942,0,0,0,.3.728A1.1,1.1,0,0,0,59.507,18.852Zm6.309-3.213A6.455,6.455,0,0,1,66.9,11.684a3.568,3.568,0,0,1,3.027-1.445,3.035,3.035,0,0,1,2.383,1.113V6h3.3V21H72.651l-.166-1.133A3.116,3.116,0,0,1,69.907,21.2a3.562,3.562,0,0,1-2.988-1.445A6.659,6.659,0,0,1,65.815,15.639Zm3.291.205q0,2.813,1.641,2.813a1.62,1.62,0,0,0,1.563-.918V13.715a1.576,1.576,0,0,0-1.543-.937q-1.523,0-1.65,2.461ZM82.593,21.2a5.432,5.432,0,0,1-3.936-1.45,5.008,5.008,0,0,1-1.5-3.774V15.7a6.489,6.489,0,0,1,.6-2.861,4.395,4.395,0,0,1,1.753-1.919,5.292,5.292,0,0,1,2.734-.679,4.574,4.574,0,0,1,3.516,1.382,5.43,5.43,0,0,1,1.289,3.853v1.279H80.5a2.372,2.372,0,0,0,.771,1.4,2.3,2.3,0,0,0,1.543.508,2.958,2.958,0,0,0,2.441-1.094l1.5,1.777a4.2,4.2,0,0,1-1.743,1.353A5.891,5.891,0,0,1,82.593,21.2Zm-.371-8.418q-1.445,0-1.719,1.914h3.32v-.254a1.63,1.63,0,0,0-.4-1.226A1.593,1.593,0,0,0,82.222,12.777ZM93.9,18.031a.76.76,0,0,0-.439-.674,6.684,6.684,0,0,0-1.67-.527,7.615,7.615,0,0,1-2.031-.718,3.4,3.4,0,0,1-1.221-1.079,2.577,2.577,0,0,1-.42-1.455,2.92,2.92,0,0,1,1.2-2.4,4.948,4.948,0,0,1,3.145-.942,5.482,5.482,0,0,1,3.359.947,2.962,2.962,0,0,1,1.27,2.49h-3.3q0-1.27-1.338-1.27a1.326,1.326,0,0,0-.869.288.892.892,0,0,0-.352.718.819.819,0,0,0,.43.713,4.06,4.06,0,0,0,1.372.449,11.857,11.857,0,0,1,1.655.42,3.007,3.007,0,0,1,2.383,2.939,2.767,2.767,0,0,1-1.284,2.354,5.631,5.631,0,0,1-3.325.908,5.747,5.747,0,0,1-2.422-.488,4.05,4.05,0,0,1-1.66-1.328,3.007,3.007,0,0,1-.6-1.768h3.076a1.272,1.272,0,0,0,.488,1.069,2.009,2.009,0,0,0,1.2.337,1.58,1.58,0,0,0,1.011-.273A.875.875,0,0,0,93.9,18.031Zm14.8,3.164a5.432,5.432,0,0,1-3.936-1.45,5.008,5.008,0,0,1-1.5-3.774V15.7a6.489,6.489,0,0,1,.6-2.861,4.395,4.395,0,0,1,1.753-1.919,5.292,5.292,0,0,1,2.734-.679,4.574,4.574,0,0,1,3.516,1.382,5.43,5.43,0,0,1,1.289,3.853v1.279h-6.543a2.372,2.372,0,0,0,.771,1.4,2.3,2.3,0,0,0,1.543.508,2.958,2.958,0,0,0,2.441-1.094l1.5,1.777a4.2,4.2,0,0,1-1.743,1.353A5.891,5.891,0,0,1,108.706,21.2Zm-.371-8.418q-1.445,0-1.719,1.914h3.32v-.254a1.63,1.63,0,0,0-.4-1.226A1.593,1.593,0,0,0,108.335,12.777Zm10.615,5.879a1.464,1.464,0,0,0,1.074-.376,1.379,1.379,0,0,0,.371-1.05h3.086a3.653,3.653,0,0,1-1.245,2.852,4.631,4.631,0,0,1-3.208,1.113A4.689,4.689,0,0,1,115.4,19.75a5.7,5.7,0,0,1-1.328-4v-.137a6.436,6.436,0,0,1,.591-2.827,4.3,4.3,0,0,1,1.7-1.885A5.081,5.081,0,0,1,119,10.238a4.573,4.573,0,0,1,3.271,1.143,4.053,4.053,0,0,1,1.211,3.1H120.4a1.806,1.806,0,0,0-.4-1.26,1.382,1.382,0,0,0-1.074-.439q-1.279,0-1.494,1.631a11.508,11.508,0,0,0-.068,1.426,4.52,4.52,0,0,0,.381,2.207A1.319,1.319,0,0,0,118.95,18.656Zm5.508-3.037a6.236,6.236,0,0,1,.615-2.817,4.4,4.4,0,0,1,1.768-1.9,5.323,5.323,0,0,1,2.705-.664,4.858,4.858,0,0,1,3.74,1.47,5.64,5.64,0,0,1,1.367,4v.117a5.472,5.472,0,0,1-1.372,3.921,4.871,4.871,0,0,1-3.716,1.45,4.927,4.927,0,0,1-3.623-1.353,5.29,5.29,0,0,1-1.475-3.667Zm3.291.205a3.932,3.932,0,0,0,.459,2.148,1.529,1.529,0,0,0,1.357.684q1.758,0,1.8-2.705v-.332q0-2.842-1.816-2.842-1.65,0-1.787,2.451Zm11.377-5.391.107,1.24a3.583,3.583,0,0,1,3.018-1.436,3.015,3.015,0,0,1,2.466.986,4.7,4.7,0,0,1,.845,2.969V21h-3.3V14.33a1.783,1.783,0,0,0-.322-1.177,1.491,1.491,0,0,0-1.172-.376,1.569,1.569,0,0,0-1.436.762V21H136.04V10.434Zm7.842,5.186a6.236,6.236,0,0,1,.615-2.817,4.4,4.4,0,0,1,1.768-1.9,5.323,5.323,0,0,1,2.705-.664,4.858,4.858,0,0,1,3.74,1.47,5.64,5.64,0,0,1,1.367,4v.117a5.472,5.472,0,0,1-1.372,3.921,4.871,4.871,0,0,1-3.716,1.45,4.927,4.927,0,0,1-3.623-1.353,5.29,5.29,0,0,1-1.475-3.667Zm3.291.205a3.932,3.932,0,0,0,.459,2.148,1.529,1.529,0,0,0,1.357.684q1.758,0,1.8-2.705v-.332q0-2.842-1.816-2.842-1.65,0-1.787,2.451ZM152.5,6h3.477l-2.715,3.066-2.686,0Zm9.219,4.434.107,1.24a3.633,3.633,0,0,1,3.018-1.436,2.675,2.675,0,0,1,2.705,1.592,3.516,3.516,0,0,1,3.105-1.592q3.213,0,3.3,3.887V21h-3.3V14.33a2.014,2.014,0,0,0-.273-1.182,1.164,1.164,0,0,0-1-.371,1.559,1.559,0,0,0-1.455.869l.01.137V21h-3.3V14.35a2.117,2.117,0,0,0-.264-1.2,1.161,1.161,0,0,0-1.006-.371,1.578,1.578,0,0,0-1.445.869V21h-3.291V10.434ZM179.312,21h-3.3V10.434h3.3Zm-3.5-13.291a1.469,1.469,0,0,1,.508-1.152,2.159,2.159,0,0,1,2.637,0,1.469,1.469,0,0,1,.508,1.152,1.469,1.469,0,0,1-.508,1.152,2.159,2.159,0,0,1-2.637,0A1.469,1.469,0,0,1,175.815,7.709Zm9.99,10.947a1.464,1.464,0,0,0,1.074-.376,1.379,1.379,0,0,0,.371-1.05h3.086a3.653,3.653,0,0,1-1.245,2.852,4.631,4.631,0,0,1-3.208,1.113,4.689,4.689,0,0,1-3.633-1.445,5.7,5.7,0,0,1-1.328-4v-.137a6.436,6.436,0,0,1,.591-2.827,4.3,4.3,0,0,1,1.7-1.885,5.081,5.081,0,0,1,2.637-.659,4.573,4.573,0,0,1,3.271,1.143,4.053,4.053,0,0,1,1.211,3.1h-3.086a1.807,1.807,0,0,0-.4-1.26,1.382,1.382,0,0,0-1.074-.439q-1.279,0-1.494,1.631a11.507,11.507,0,0,0-.068,1.426,4.52,4.52,0,0,0,.381,2.207A1.319,1.319,0,0,0,185.806,18.656ZM197.681,21a3.716,3.716,0,0,1-.312-.947,3.06,3.06,0,0,1-2.539,1.143,3.749,3.749,0,0,1-2.539-.9,2.875,2.875,0,0,1-1.045-2.271,2.955,2.955,0,0,1,1.27-2.6,6.468,6.468,0,0,1,3.691-.879h1.016v-.559q0-1.462-1.26-1.462a1.03,1.03,0,0,0-1.172,1.158H191.5a2.95,2.95,0,0,1,1.3-2.487,5.479,5.479,0,0,1,3.325-.956,4.8,4.8,0,0,1,3.193.986,3.429,3.429,0,0,1,1.2,2.705v4.678a4.79,4.79,0,0,0,.449,2.227V21Zm-2.061-2.148a1.836,1.836,0,0,0,1.021-.264,1.653,1.653,0,0,0,.581-.6V16.3h-.957q-1.719,0-1.719,1.543a.942.942,0,0,0,.3.728A1.1,1.1,0,0,0,195.62,18.852Zm12.256-.82a.76.76,0,0,0-.439-.674,6.684,6.684,0,0,0-1.67-.527,7.615,7.615,0,0,1-2.031-.718,3.4,3.4,0,0,1-1.221-1.079,2.577,2.577,0,0,1-.42-1.455,2.92,2.92,0,0,1,1.2-2.4,4.948,4.948,0,0,1,3.145-.942,5.482,5.482,0,0,1,3.359.947,2.962,2.962,0,0,1,1.27,2.49h-3.3q0-1.27-1.338-1.27a1.326,1.326,0,0,0-.869.288.892.892,0,0,0-.352.718.819.819,0,0,0,.43.713,4.06,4.06,0,0,0,1.372.449,11.857,11.857,0,0,1,1.655.42,3.007,3.007,0,0,1,2.383,2.939,2.767,2.767,0,0,1-1.284,2.354,5.632,5.632,0,0,1-3.325.908,5.747,5.747,0,0,1-2.422-.488,4.05,4.05,0,0,1-1.66-1.328,3.007,3.007,0,0,1-.6-1.768h3.076a1.272,1.272,0,0,0,.488,1.069,2.009,2.009,0,0,0,1.2.337,1.58,1.58,0,0,0,1.011-.273A.875.875,0,0,0,207.876,18.031Zm15.225,0a.76.76,0,0,0-.439-.674,6.684,6.684,0,0,0-1.67-.527,7.615,7.615,0,0,1-2.031-.718,3.4,3.4,0,0,1-1.221-1.079,2.577,2.577,0,0,1-.42-1.455,2.92,2.92,0,0,1,1.2-2.4,4.948,4.948,0,0,1,3.145-.942,5.482,5.482,0,0,1,3.359.947,2.962,2.962,0,0,1,1.27,2.49h-3.3q0-1.27-1.338-1.27a1.326,1.326,0,0,0-.869.288.892.892,0,0,0-.352.718.819.819,0,0,0,.43.713,4.06,4.06,0,0,0,1.372.449,11.857,11.857,0,0,1,1.655.42,3.007,3.007,0,0,1,2.383,2.939,2.767,2.767,0,0,1-1.284,2.354,5.632,5.632,0,0,1-3.325.908,5.747,5.747,0,0,1-2.422-.488,4.05,4.05,0,0,1-1.66-1.328,3.007,3.007,0,0,1-.6-1.768h3.076a1.272,1.272,0,0,0,.488,1.069,2.009,2.009,0,0,0,1.2.337,1.58,1.58,0,0,0,1.011-.273A.875.875,0,0,0,223.1,18.031Zm11.006,1.826a3.393,3.393,0,0,1-2.822,1.338,3.328,3.328,0,0,1-2.632-1.011,4.251,4.251,0,0,1-.894-2.905V10.434h3.291V17.3a1.183,1.183,0,0,0,1.318,1.357,1.72,1.72,0,0,0,1.611-.811V10.434h3.311V21H234.2ZM248.9,15.795a6.372,6.372,0,0,1-1.108,3.931A3.554,3.554,0,0,1,244.8,21.2a3.046,3.046,0,0,1-2.393-1.064v4.932h-3.291V10.434h3.076l.1.977a3.046,3.046,0,0,1,2.49-1.172,3.582,3.582,0,0,1,3.037,1.44,6.45,6.45,0,0,1,1.084,3.96Zm-3.291-.205q0-2.812-1.641-2.812a1.549,1.549,0,0,0-1.562.84v4.16a1.6,1.6,0,0,0,1.582.879q1.572,0,1.621-2.715Zm9.854,5.605a5.432,5.432,0,0,1-3.936-1.45,5.008,5.008,0,0,1-1.5-3.774V15.7a6.489,6.489,0,0,1,.6-2.861,4.395,4.395,0,0,1,1.753-1.919,5.292,5.292,0,0,1,2.734-.679,4.574,4.574,0,0,1,3.516,1.382,5.43,5.43,0,0,1,1.289,3.853v1.279h-6.543a2.372,2.372,0,0,0,.771,1.4,2.3,2.3,0,0,0,1.543.508,2.958,2.958,0,0,0,2.441-1.094l1.5,1.777a4.2,4.2,0,0,1-1.743,1.353A5.891,5.891,0,0,1,255.464,21.2Zm-.371-8.418q-1.445,0-1.719,1.914h3.32v-.254a1.63,1.63,0,0,0-.4-1.226A1.593,1.593,0,0,0,255.093,12.777Zm12.539.635-1.084-.078a1.947,1.947,0,0,0-1.992.977V21h-3.291V10.434h3.086l.107,1.357a2.548,2.548,0,0,1,2.314-1.553,3.209,3.209,0,0,1,.918.117ZM274.478,21a3.716,3.716,0,0,1-.312-.947,3.06,3.06,0,0,1-2.539,1.143,3.749,3.749,0,0,1-2.539-.9,2.875,2.875,0,0,1-1.045-2.271,2.955,2.955,0,0,1,1.27-2.6A6.468,6.468,0,0,1,273,14.545h1.016v-.559q0-1.462-1.26-1.462a1.03,1.03,0,0,0-1.172,1.158H268.3a2.95,2.95,0,0,1,1.3-2.487,5.479,5.479,0,0,1,3.325-.956,4.8,4.8,0,0,1,3.193.986,3.429,3.429,0,0,1,1.2,2.705v4.678a4.79,4.79,0,0,0,.449,2.227V21Zm-2.061-2.148a1.836,1.836,0,0,0,1.021-.264,1.653,1.653,0,0,0,.581-.6V16.3h-.957q-1.719,0-1.719,1.543a.942.942,0,0,0,.3.728A1.1,1.1,0,0,0,272.417,18.852ZM282.974,7.807v2.627h1.738v2.285h-1.738v4.834a1.234,1.234,0,0,0,.215.83,1.152,1.152,0,0,0,.85.234,4.828,4.828,0,0,0,.82-.059v2.354A6.074,6.074,0,0,1,283,21.2a3.448,3.448,0,0,1-2.51-.8,3.282,3.282,0,0,1-.811-2.432V12.719h-1.348V10.434h1.348V7.807ZM289.478,21h-3.3V10.434h3.3Zm-3.5-13.291a1.469,1.469,0,0,1,.508-1.152,2.159,2.159,0,0,1,2.637,0,1.469,1.469,0,0,1,.508,1.152,1.469,1.469,0,0,1-.508,1.152,2.159,2.159,0,0,1-2.637,0A1.469,1.469,0,0,1,285.981,7.709Zm9.736,9.375,1.67-6.65h3.467L297.407,21h-3.359L290.6,10.434h3.477ZM307.642,21a3.716,3.716,0,0,1-.312-.947A3.06,3.06,0,0,1,304.79,21.2a3.749,3.749,0,0,1-2.539-.9,2.875,2.875,0,0,1-1.045-2.271,2.955,2.955,0,0,1,1.27-2.6,6.468,6.468,0,0,1,3.691-.879h1.016v-.559q0-1.462-1.26-1.462a1.03,1.03,0,0,0-1.172,1.158H301.46a2.95,2.95,0,0,1,1.3-2.487,5.479,5.479,0,0,1,3.325-.956,4.8,4.8,0,0,1,3.193.986,3.429,3.429,0,0,1,1.2,2.705v4.678a4.79,4.79,0,0,0,.449,2.227V21Zm-2.061-2.148a1.836,1.836,0,0,0,1.021-.264,1.653,1.653,0,0,0,.581-.6V16.3h-.957q-1.719,0-1.719,1.543a.942.942,0,0,0,.3.728A1.1,1.1,0,0,0,305.581,18.852Zm12.256-.82a.76.76,0,0,0-.439-.674,6.684,6.684,0,0,0-1.67-.527,7.615,7.615,0,0,1-2.031-.718,3.4,3.4,0,0,1-1.221-1.079,2.577,2.577,0,0,1-.42-1.455,2.92,2.92,0,0,1,1.2-2.4,4.948,4.948,0,0,1,3.145-.942,5.482,5.482,0,0,1,3.359.947,2.962,2.962,0,0,1,1.27,2.49h-3.3q0-1.27-1.338-1.27a1.326,1.326,0,0,0-.869.288.892.892,0,0,0-.352.718.819.819,0,0,0,.43.713,4.06,4.06,0,0,0,1.372.449,11.856,11.856,0,0,1,1.655.42,3.007,3.007,0,0,1,2.383,2.939,2.767,2.767,0,0,1-1.284,2.354,5.631,5.631,0,0,1-3.325.908,5.747,5.747,0,0,1-2.422-.488,4.05,4.05,0,0,1-1.66-1.328,3.007,3.007,0,0,1-.6-1.768H314.8a1.272,1.272,0,0,0,.488,1.069,2.009,2.009,0,0,0,1.2.337,1.58,1.58,0,0,0,1.011-.273A.875.875,0,0,0,317.837,18.031Z" transform="translate(370 3096)" fill="#12263f"/>
    <g id="Grupo_80543" data-name="Grupo 80543" transform="translate(296.816 2691.756)">
      <g id="Grupo_80525" data-name="Grupo 80525" transform="translate(188.521 172.514)">
        <path id="Trazado_114205" data-name="Trazado 114205" d="M234.828,256.08l-29.306-37.667s.672-6.829,19.59-6.171,46.315-4.456,64.028-4.859a223.871,223.871,0,0,1,40.8,3.377l-30.626,45.32Z" transform="translate(-205.522 -207.344)" fill="#bbbdbf"/>
      </g>
      <g id="Grupo_80528" data-name="Grupo 80528" transform="translate(216.528 106.087)">
        <path id="Trazado_114206" data-name="Trazado 114206" d="M342.845,131.375c-18.484,31.813-36.483,64-46.56,98.022-16.405-4.861-32.785-9.723-49.328-14.6,8.5-34.368,11.092-69.177,18.419-105.725A338.706,338.706,0,0,1,342.845,131.375Z" transform="translate(-246.957 -109.071)" fill="#8bc543" stroke="#006738" stroke-miterlimit="10" stroke-width="9.57"/>
        <path id="Trazado_114207" data-name="Trazado 114207" d="M300.863,169.88c14.675,4.2,22.133,16.73,17.1,27.148C312.9,207.5,300,213.29,288.347,209.923c-11.6-3.4-19.839-15.109-18.083-26.361C272.061,172.364,286.178,165.768,300.863,169.88Z" transform="translate(-254.433 -128.377)" fill="#006738"/>
        <path id="Trazado_114208" data-name="Trazado 114208" d="M246.957,259.164q6.6,1.949,13.161,3.89c2.07-7.233-2.435-14.878-10.107-17.066C249.1,250.4,248.091,254.79,246.957,259.164Z" transform="translate(-246.957 -153.44)" fill="#006738"/>
        <g id="Grupo_80527" data-name="Grupo 80527" transform="translate(21.167 50.131)">
          <g id="Grupo_80526" data-name="Grupo 80526" transform="translate(4.805)">
            <path id="Trazado_114209" data-name="Trazado 114209" d="M294.2,188.717c-1.883-.375-3.184.8-3.891,3.5-.72,2.716-.228,4.3,1.44,4.763a2.428,2.428,0,0,0,2.586-.687,27.337,27.337,0,0,0,3.135-4.8,10.97,10.97,0,0,1,4.841-4.934,8.945,8.945,0,0,1,6.286-.212,6.993,6.993,0,0,1,5.158,4.778,10.848,10.848,0,0,1-.433,7.269c-2.362,5.983-6.269,8.6-11.77,7.933q.594-2.586,1.2-5.166c2.939.449,4.976-.919,6.157-4.12,1.107-3,.426-4.878-2.069-5.606a3.063,3.063,0,0,0-2.829.393,17.885,17.885,0,0,0-3.431,4.69,13.022,13.022,0,0,1-4.634,5.094,6.741,6.741,0,0,1-5.17.508,7.079,7.079,0,0,1-4.483-3.76c-1.015-1.949-1.194-4.427-.478-7.434,1.4-5.968,4.652-8.5,9.618-7.465Q294.814,186.09,294.2,188.717Z" transform="translate(-285.381 -183.235)" fill="#8bc543"/>
          </g>
          <path id="Trazado_114210" data-name="Trazado 114210" d="M284.741,190.215c-.4,1.633-.794,3.265-1.183,4.892q-2.63-.7-5.286-1.387.526-2.454,1.046-4.913Q282.058,189.508,284.741,190.215Z" transform="translate(-278.272 -185.041)" fill="#8bc543"/>
          <path id="Trazado_114211" data-name="Trazado 114211" d="M330.942,203.439q-.989,2.344-1.958,4.687-2.571-.783-5.126-1.54.9-2.372,1.828-4.742Q328.306,202.634,330.942,203.439Z" transform="translate(-293.044 -189.265)" fill="#8bc543"/>
        </g>
        <path id="Trazado_114212" data-name="Trazado 114212" d="M312.517,280.251q2-6.514,4.283-12.948a13.875,13.875,0,0,0-17.361,9.07Q305.973,278.312,312.517,280.251Z" transform="translate(-263.964 -160.152)" fill="#006738"/>
        <path id="Trazado_114213" data-name="Trazado 114213" d="M376.995,137.689q-10.006-4.113-20.07-7.62c-3.249,7.376,2.585,15.977,13.15,19.9C372.383,145.869,374.707,141.777,376.995,137.689Z" transform="translate(-282.301 -115.875)" fill="#006738"/>
        <path id="Trazado_114214" data-name="Trazado 114214" d="M272.99,109.071q-1.333,7.019-2.535,13.937c11.166,2.024,21.471-2.049,23.777-9.826Q283.752,110.779,272.99,109.071Z" transform="translate(-254.572 -109.071)" fill="#006738"/>
        <path id="Trazado_114215" data-name="Trazado 114215" d="M290.459,242.365a4.7,4.7,0,0,1,3.318,5.826,4.829,4.829,0,0,1-9.262-2.715A4.7,4.7,0,0,1,290.459,242.365Z" transform="translate(-259.076 -152.199)" fill="#006738"/>
        <path id="Trazado_114216" data-name="Trazado 114216" d="M320.911,143.575c3.6,1.029,5.681,3.96,4.705,6.478s-4.517,3.716-7.927,2.759-5.557-3.781-4.776-6.364C313.715,143.874,317.307,142.547,320.911,143.575Z" transform="translate(-268.278 -120.139)" fill="#006738"/>
      </g>
      <g id="Grupo_80531" data-name="Grupo 80531" transform="translate(217.646 99.862)">
        <path id="Trazado_114217" data-name="Trazado 114217" d="M331.558,110.837c-13.73,34.135-26.936,68.572-32.036,103.687-16.932-2.464-33.843-4.933-50.911-7.388,3.488-35.231,1.068-70.055,3.087-107.274A338.718,338.718,0,0,1,331.558,110.837Z" transform="translate(-248.611 -99.862)" fill="#8bc543" stroke="#006738" stroke-miterlimit="10" stroke-width="9.57"/>
        <path id="Trazado_114218" data-name="Trazado 114218" d="M289.4,154.56c15.132,2.053,24.3,13.386,20.814,24.414-3.51,11.094-15.451,18.672-27.462,17-11.968-1.707-21.8-12.113-21.678-23.5C261.246,161.143,274.275,152.593,289.4,154.56Z" transform="translate(-252.649 -117.496)" fill="#006738"/>
        <path id="Trazado_114219" data-name="Trazado 114219" d="M248.611,252.1q6.806.98,13.58,1.962c1.011-7.449-4.543-14.371-12.447-15.44C249.471,243.115,249.106,247.607,248.611,252.1Z" transform="translate(-248.611 -144.828)" fill="#006738"/>
        <g id="Grupo_80530" data-name="Grupo 80530" transform="translate(14.232 47.29)">
          <g id="Grupo_80529" data-name="Grupo 80529" transform="translate(4.971)">
            <path id="Trazado_114220" data-name="Trazado 114220" d="M285.073,175.222c-1.915-.1-3.038,1.255-3.353,4.028-.32,2.793.393,4.283,2.113,4.505a2.434,2.434,0,0,0,2.459-1.054,26.826,26.826,0,0,0,2.407-5.2,11.008,11.008,0,0,1,4.091-5.573,8.937,8.937,0,0,1,6.186-1.11,6.994,6.994,0,0,1,5.795,3.988,10.841,10.841,0,0,1,.613,7.255c-1.482,6.263-4.974,9.411-10.514,9.538q.22-2.639.445-5.281c2.977.022,4.8-1.624,5.506-4.962.666-3.122-.274-4.888-2.845-5.252a3.065,3.065,0,0,0-2.748.794,17.95,17.95,0,0,0-2.725,5.131,12.985,12.985,0,0,1-3.859,5.708,6.72,6.72,0,0,1-5.041,1.24,7.064,7.064,0,0,1-4.974-3.076c-1.286-1.785-1.812-4.21-1.535-7.293.521-6.1,3.382-9.073,8.447-8.765C285.381,171.643,285.222,173.435,285.073,175.222Z" transform="translate(-277.021 -169.823)" fill="#8bc543"/>
          </g>
          <path id="Trazado_114221" data-name="Trazado 114221" d="M275.561,178.59q-.238,2.513-.474,5.009-2.692-.318-5.421-.616.161-2.5.334-5.009Q272.794,178.274,275.561,178.59Z" transform="translate(-269.666 -172.464)" fill="#8bc543"/>
          <path id="Trazado_114222" data-name="Trazado 114222" d="M323.165,185q-.644,2.462-1.265,4.92-2.651-.4-5.3-.794.556-2.474,1.134-4.95C319.541,184.451,321.348,184.722,323.165,185Z" transform="translate(-284.876 -174.476)" fill="#8bc543"/>
        </g>
        <path id="Trazado_114223" data-name="Trazado 114223" d="M316.27,262.81q1.056-6.733,2.387-13.428a13.87,13.87,0,0,0-15.883,11.461Q309.521,261.825,316.27,262.81Z" transform="translate(-266.163 -148.265)" fill="#006738"/>
        <path id="Trazado_114224" data-name="Trazado 114224" d="M359.242,113.4q-10.492-2.636-20.954-4.666c-2.162,7.771,4.846,15.442,15.864,17.806C355.851,122.152,357.561,117.77,359.242,113.4Z" transform="translate(-277.544 -102.737)" fill="#006738"/>
        <path id="Trazado_114225" data-name="Trazado 114225" d="M252.93,99.862q-.328,7.139-.518,14.156c11.343.4,20.954-5.1,22.127-13.127Q263.823,100.013,252.93,99.862Z" transform="translate(-249.843 -99.862)" fill="#006738"/>
        <path id="Trazado_114226" data-name="Trazado 114226" d="M288.639,229.107a4.69,4.69,0,0,1,4.117,5.291,4.829,4.829,0,0,1-9.554-1.359A4.709,4.709,0,0,1,288.639,229.107Z" transform="translate(-259.809 -141.728)" fill="#006738"/>
        <path id="Trazado_114227" data-name="Trazado 114227" d="M304.612,126.885c3.718.5,6.194,3.106,5.585,5.735s-3.937,4.328-7.451,3.864-6.04-2.947-5.635-5.611C297.536,128.212,300.9,126.385,304.612,126.885Z" transform="translate(-264.314 -108.592)" fill="#006738"/>
      </g>
      <g id="Grupo_80534" data-name="Grupo 80534" transform="translate(169.429 172.557)">
        <path id="Trazado_114228" data-name="Trazado 114228" d="M234.828,256.1l-29.306-37.667s.672-11.658,19.59-11,39.087,8.8,56.785,9.627c25.357,1.184,48.043-6.28,48.043-6.28L299.314,256.1Z" transform="translate(-186.431 -207.407)" fill="#e6e6e7"/>
        <path id="Trazado_114229" data-name="Trazado 114229" d="M327.4,348.7c-9.416-23.149-23.895-47.341-37.243-69.25H225.676a711.907,711.907,0,0,0-36.947,69.25c-22.247,48.742-9.569,64.806,16.538,76.321,19.367,8.541,86.23,8.541,105.6,0C336.974,413.5,343.557,388.408,327.4,348.7Z" transform="translate(-177.278 -230.751)" fill="#e6e6e7"/>
        <g id="Grupo_80533" data-name="Grupo 80533" transform="translate(48.613 82.304)">
          <g id="Grupo_80532" data-name="Grupo 80532" transform="translate(0 11.995)">
            <path id="Trazado_114230" data-name="Trazado 114230" d="M293,365.395q-.584-6.957-12.856-7-12.318-.047-12.347,6.526a6.051,6.051,0,0,0,3.948,5.844q3.964,1.838,15.953,4.168,11.994,2.346,17.591,7.754c3.733,3.6,5.608,8.286,5.579,14.045q-.033,10.075-9.067,15.535a38.867,38.867,0,0,1-20.655,5.417q-28.087-.1-31.945-21.636l15.51-1.2q1.676,11.3,16.576,11.348,13.962.05,13.991-9.413a6.791,6.791,0,0,0-3.37-6.25q-3.374-2.067-15.879-4.55-12.487-2.493-18.036-7.52a16.191,16.191,0,0,1-5.509-12.512q.031-8.023,7.185-13.559t20.785-5.483q26.992.093,28.233,17.976Z" transform="translate(-249.197 -346.913)" fill="#e2a540"/>
          </g>
          <path id="Trazado_114231" data-name="Trazado 114231" d="M300.248,342.655l-14.761-.056.038-13.43,14.773.048Z" transform="translate(-260.957 -329.168)" fill="#e2a540"/>
          <path id="Trazado_114232" data-name="Trazado 114232" d="M299.851,461.256l-14.773-.056.038-13.433,14.768.053Z" transform="translate(-260.824 -367.601)" fill="#e2a540"/>
        </g>
        <path id="Trazado_114233" data-name="Trazado 114233" d="M316.026,279.474a2.65,2.65,0,0,1-2.879,2.331H241.556a2.65,2.65,0,0,1-2.882-2.331v-1.916a2.65,2.65,0,0,1,2.882-2.331h71.591a2.65,2.65,0,0,1,2.879,2.331Z" transform="translate(-197.174 -229.385)" fill="#744c29"/>
        <path id="Trazado_114234" data-name="Trazado 114234" d="M321.263,456.378c11.916,8.58,33.185,1.285,41.062-4.3,10.95-7.767,15.964-23.246,14.7-34.32s-3-18.583-7.469-28.895c-1.588-3.665,5.432,11.179-3.1,31.183-6.365,14.93-24.781,18.737-36.989,20.114C320.931,441.131,309.406,447.842,321.263,456.378Z" transform="translate(-222.294 -266.029)" fill="#d0d2d3"/>
        <path id="Trazado_114235" data-name="Trazado 114235" d="M312.973,261.41s22.55-8.194,33.687-19.653c12.577-12.94-12.371,19.653-12.371,19.653Z" transform="translate(-221.251 -217.554)" fill="#d0d2d3"/>
        <path id="Trazado_114236" data-name="Trazado 114236" d="M218.309,227.774s.426.329,1.117.945,1.658,1.513,2.765,2.628a92.848,92.848,0,0,1,7.458,8.687,91.824,91.824,0,0,1,6.378,9.508c.778,1.365,1.387,2.534,1.791,3.369s.609,1.331.609,1.331-.427-.328-1.119-.943-1.66-1.512-2.767-2.628a86.637,86.637,0,0,1-7.454-8.689,92.49,92.49,0,0,1-6.374-9.51c-.78-1.365-1.388-2.533-1.793-3.367S218.309,227.774,218.309,227.774Z" transform="translate(-190.574 -214.007)" fill="#f7f7f7"/>
        <path id="Trazado_114237" data-name="Trazado 114237" d="M235.827,291.932s-.36,1.1-1.063,2.979-1.732,4.559-3.066,7.719c-2.618,6.349-6.456,14.638-10.575,22.783s-8.534,16.143-12.106,22.007c-1.757,2.947-3.308,5.36-4.412,7.039s-1.774,2.619-1.774,2.619.358-1.1,1.061-2.98,1.728-4.56,3.063-7.721c2.615-6.35,6.457-14.636,10.579-22.781s8.541-16.139,12.11-22c1.759-2.946,3.307-5.36,4.409-7.04S235.827,291.932,235.827,291.932Z" transform="translate(-185.559 -234.798)" fill="#f7f7f7"/>
      </g>
      <g id="Grupo_80542" data-name="Grupo 80542" transform="translate(153.057 311.758)">
        <g id="Grupo_80537" data-name="Grupo 80537" transform="translate(2.909)">
          <path id="Trazado_114238" data-name="Trazado 114238" d="M217.931,453.045a30.917,30.917,0,1,1-20.868-38.422A30.92,30.92,0,0,1,217.931,453.045Z" transform="translate(-157.36 -413.343)" fill="#e8af2e"/>
          <path id="Trazado_114239" data-name="Trazado 114239" d="M215.252,454.136a25.329,25.329,0,1,1-17.1-31.479A25.329,25.329,0,0,1,215.252,454.136Z" transform="translate(-160.039 -416.021)" fill="#f9ca35"/>
          <g id="Grupo_80536" data-name="Grupo 80536" transform="translate(16.524 11.06)">
            <g id="Grupo_80535" data-name="Grupo 80535" transform="translate(0 4.795)">
              <path id="Trazado_114240" data-name="Trazado 114240" d="M203.463,446.761c.4-1.941-1.06-3.408-4.4-4.407s-5.293-.612-5.827,1.171a2.575,2.575,0,0,0,.905,2.861,35.306,35.306,0,0,0,6.005,3.629q4.613,2.4,6.242,5.287a7.881,7.881,0,0,1,.578,6.4,7.347,7.347,0,0,1-5.574,5.245,16.537,16.537,0,0,1-9.081-.285q-11.448-3.436-10.42-12.687l6.471,1.383q-.68,4.813,5.393,6.634,5.689,1.705,6.845-2.151a2.9,2.9,0,0,0-.621-2.958q-1.125-1.252-5.929-3.773t-6.45-5.247a6.886,6.886,0,0,1-.737-5.769,7.113,7.113,0,0,1,4.57-4.666q3.592-1.392,9.144.274,11,3.3,9.348,10.745Z" transform="translate(-181.806 -436.798)" fill="#c38728"/>
            </g>
            <rect id="Rect치ngulo_33791" data-name="Rect치ngulo 33791" width="5.717" height="6.284" transform="matrix(0.287, -0.958, 0.958, 0.287, 15.853, 5.475)" fill="#c38728"/>
            <rect id="Rect치ngulo_33792" data-name="Rect치ngulo 33792" width="5.717" height="6.285" transform="translate(6.056 38.15) rotate(-73.286)" fill="#c38728"/>
          </g>
        </g>
        <g id="Grupo_80541" data-name="Grupo 80541" transform="translate(0 6.712)">
          <g id="Grupo_80538" data-name="Grupo 80538" transform="translate(1.139)">
            <path id="Trazado_114241" data-name="Trazado 114241" d="M163.537,440.866c0-2.428,1.074-6.123,1.874-6.924.785-.784,4.494-1.873,6.92-1.874-2.426,0-6-.95-6.92-1.872-.967-.968-1.874-4.494-1.874-6.924,0,2.49-.939,5.985-1.994,7.041-1.092,1.091-4.435,1.755-6.8,1.755,2.428,0,6.01.963,6.92,1.874S163.537,438.438,163.537,440.866Z" transform="translate(-154.742 -423.272)" fill="#fff"/>
          </g>
          <g id="Grupo_80539" data-name="Grupo 80539" transform="translate(12.675 12.694)">
            <path id="Trazado_114242" data-name="Trazado 114242" d="M174.94,448.314a5.072,5.072,0,0,1,.667-2.464,5.1,5.1,0,0,1,2.463-.667,4.76,4.76,0,0,1-2.463-.667,4.666,4.666,0,0,1-.667-2.464,4.577,4.577,0,0,1-.71,2.507,4.313,4.313,0,0,1-2.421.624,2.565,2.565,0,0,1,3.131,3.132Z" transform="translate(-171.809 -442.051)" fill="#fff"/>
          </g>
          <g id="Grupo_80540" data-name="Grupo 80540" transform="translate(0 16.888)">
            <path id="Trazado_114243" data-name="Trazado 114243" d="M157.4,456.948a7.032,7.032,0,0,1,.926-3.42,7.094,7.094,0,0,1,3.418-.927,6.614,6.614,0,0,1-3.418-.925,6.469,6.469,0,0,1-.926-3.42,6.326,6.326,0,0,1-.985,3.479,5.977,5.977,0,0,1-3.361.866,6.634,6.634,0,0,1,3.42.927A6.609,6.609,0,0,1,157.4,456.948Z" transform="translate(-153.057 -448.257)" fill="#fff"/>
          </g>
        </g>
      </g>
    </g>
  </g>
</svg>
