<svg xmlns="http://www.w3.org/2000/svg" width="123.95" height="137.949" viewBox="0 0 123.95 137.949">
  <g id="colombia" transform="translate(-25.983 0)">
    <g id="Grupo_81952" data-name="Grupo 81952" transform="translate(28.674 2.679)">
      <path id="Trazado_121008" data-name="Trazado 121008" d="M275.97,112.456h53.892V98.736a5.4,5.4,0,0,0-5.389-5.389H281.359a5.405,5.405,0,0,0-5.389,5.389Z" transform="translate(-211.3 -70.873)" fill="#ffc144" fill-rule="evenodd"/>
      <path id="Trazado_121009" data-name="Trazado 121009" d="M275.97,164.264h53.892v12H275.97Z" transform="translate(-211.3 -122.681)" fill="#60a4ff" fill-rule="evenodd"/>
      <path id="Trazado_121010" data-name="Trazado 121010" d="M329.863,208.806H275.971v24.178l13.26-12.176h35.243a5.405,5.405,0,0,0,5.389-5.389v-6.613Z" transform="translate(-211.301 -155.221)" fill="#ff5a58" fill-rule="evenodd"/>
      <path id="Trazado_121011" data-name="Trazado 121011" d="M100.639,87.707V51.526C85.024,48.518,94.659,41.18,88.3,37.907c-8.441-4.347,4.286-19.254,13.461-19.643,6.012-.254-1.162-16.506-15.969-2.891-2.508,2.307-10.526,4.533-14.91,5.82-5.054,1.484-2.408,3.439-6.6,9.72-4.041,6.056-3.51.624-5.409,4.37-2.386,4.705-4.585,5.27-6.348,5.406-4.947.383-9.522,9.1-6.143,13.9,3.706,5.263,1.2,18.624,1.7,19.856,2.173,5.3-1.011,14.643-6.024,14.94-8.55.508-2.572,4.273-5.389,5.981-2.655,1.61,2.974,6.626,3.939,6.587,6.032-.239,11.938,11.707,15.372,5.808.968-1.664,17.016,5.014,17.318,7.48.644,5.264,3.988,2.16,3.919,4.489-.165,5.532,3.971,3.521,4.19,5.109,1.034,7.5,10.607,3.731,12.955,3.457,11.073-1.294,5.947,15.288,12.591,14.161s3.093-9.19,4.087-15.923c.688-4.659,2.781-5.1,1.349-10.333-.916-3.346-2.658-4.282-1.65-6.738,1.309-3.19,4.552-1.79,5.758-4.116,2.075-4-2.593-7.446.34-9.2,5.812-3.482,9.206,5.977,14.674,2.735,4.7-2.789-3.71-11.308-1.083-14.238,2.034-2.269-1.5-5.846-1.729-9.115H113.9Z" transform="translate(-35.969 -9.943)" fill="#cbe558" fill-rule="evenodd"/>
    </g>
    <path id="Trazado_121012" data-name="Trazado 121012" d="M74.054,230.332a2.7,2.7,0,0,0,2.695-2.695v0a2.695,2.695,0,1,0-2.695,2.7Z" transform="translate(-33.149 -164.33)"/>
    <path id="Trazado_121013" data-name="Trazado 121013" d="M141.847,22.458H98.733a8.093,8.093,0,0,0-8.084,8.084V40.819A7.709,7.709,0,0,1,87,38.81c-.613-.742-.668-1.612-.713-3.088-.066-2.181-.165-5.477-4.045-7.475-.991-.51-1.572-1.205-1.191-2.938,1.013-4.6,8.183-11.39,13.532-11.617a4.7,4.7,0,0,0,4.538-3.6c.763-3.018-1.1-6.748-4.34-8.677C92.413,0,85.909-2.365,76.675,6.125c-1.877,1.726-9.335,3.9-12.919,4.947l-.927.271c-4.049,1.189-4.916,3.1-5.7,5.68a17.238,17.238,0,0,1-2.382,5.13,13.409,13.409,0,0,1-1.344,1.764c-2.571-.382-3.759,1.96-4.226,2.882-1.909,3.765-3.259,3.869-4.153,3.938-3.333.258-6.565,2.888-8.436,6.862-1.918,4.074-1.807,8.29.3,11.28a7.93,7.93,0,0,1,1.095,2.864,2.695,2.695,0,0,0,5.271-1.125,12.972,12.972,0,0,0-1.958-4.842c-1.148-1.63-.664-4.107.171-5.881.984-2.091,2.657-3.682,3.977-3.784,2.425-.188,5.57-1.123,8.452-6.694,2.067-.063,3.666-1.766,5.339-4.273a22.534,22.534,0,0,0,3.055-6.553c.491-1.616.491-1.616,2.061-2.076l.918-.268c6.456-1.884,12.466-3.772,15.057-6.154C84.9,5.881,89.143,4.39,91.956,6a3.98,3.98,0,0,1,1.9,2.338c-3.519.3-7.542,2.243-11.126,5.377-3.654,3.2-6.184,7-6.94,10.433-.859,3.9.594,7.141,3.987,8.888.948.488,1.063.78,1.126,2.846.124,4.119,1.026,8.3,9.75,10.534V80.442a2.695,2.695,0,0,0,4.517,1.985l12.486-11.466h11.613c.275.8.612,1.562.926,2.265a10.524,10.524,0,0,1,.881,2.424c-2.238,2.582-.768,6.028.53,9.072.49,1.15,1.639,3.843,1.362,4.494a.515.515,0,0,1-.119.087c-1.027.609-1.7.4-4.214-1.3-2.407-1.626-6.044-4.083-10.47-1.431-3.347,2-2.2,5.362-1.646,6.975.491,1.435.77,2.365.307,3.282a5.887,5.887,0,0,1-.92.318,6.755,6.755,0,0,0-4.947,4.032c-1.1,2.684-.177,4.555.566,6.059a12.743,12.743,0,0,1,.978,2.414,6.048,6.048,0,0,1-.209,4.851,19.3,19.3,0,0,0-1.206,4.377,34.228,34.228,0,0,0-.073,7.027c.34,5.648-.063,6.338-1.8,6.633-.04.007-.074.011-.1.013a14.417,14.417,0,0,1-1.126-3.667,19.483,19.483,0,0,0-2.591-7.045c-1.331-1.893-3.911-4.034-8.636-3.482a18.028,18.028,0,0,0-1.94.4c-1.817.433-5.6,1.334-7.15.273a2.339,2.339,0,0,1-.883-1.819c-.331-2.4-2.62-2.911-3.372-3.078a4.734,4.734,0,0,1-.637-.169,3.43,3.43,0,0,1-.157-1.413c.03-1.026-.255-3.454-3.562-3.828l-.149-.017a4.593,4.593,0,0,1-.227-1.05c-.182-1.487-1.208-3.275-7.432-6.268a48.572,48.572,0,0,0-9.842-3.616c-1.038-.213-3.793-.78-5.047,1.375a2.626,2.626,0,0,1-.163.25,18.447,18.447,0,0,1-3.463-2.567c-2.568-2.193-5.457-4.662-8.871-4.825a10.681,10.681,0,0,1-2.215-2.26,4.832,4.832,0,0,0,1.068-4.64,12.25,12.25,0,0,1,2.211-.289c3.739-.222,7-3.525,8.5-8.619a2.695,2.695,0,0,0-5.168-1.526c-.792,2.682-2.327,4.686-3.651,4.765-3.426.2-5.37.915-6.5,2.38a5.018,5.018,0,0,0-.685,4.3l.015.077A4.158,4.158,0,0,0,26.2,90.744c.747,2.484,4.52,6.644,7.131,6.644l.095,0c1.583-.059,3.93,1.935,5.81,3.54,2.607,2.227,5.071,4.332,7.96,3.839a5.082,5.082,0,0,0,3-1.747,37.3,37.3,0,0,1,6.669,2.289,29.044,29.044,0,0,1,6.557,3.577c.569,3.361,2.267,4.533,3.865,4.974a5.672,5.672,0,0,0,4.437,5.41,7.33,7.33,0,0,0,2.908,4.209c3.519,2.408,8.478,1.227,11.441.522.514-.123,1.1-.261,1.318-.287,3.311-.388,4.158,1.086,5.343,6.356a18.158,18.158,0,0,0,1.634,5.039,5.23,5.23,0,0,0,4.671,2.84,6.461,6.461,0,0,0,1.081-.094,7,7,0,0,0,5.977-5.2,21.826,21.826,0,0,0,.3-7.066,29.759,29.759,0,0,1,.025-5.916,14.042,14.042,0,0,1,.913-3.249,11.205,11.205,0,0,0,.369-8.189,17.98,17.98,0,0,0-1.344-3.378c-.59-1.193-.58-1.218-.412-1.626.193-.47.3-.56,1.48-.907a6.105,6.105,0,0,0,4.177-2.991c1.561-3.01.631-5.727.016-7.525-.087-.255-.193-.563-.269-.822,1.094-.469,2.027-.026,4.27,1.489,2.318,1.566,5.822,3.932,9.979,1.466a5.684,5.684,0,0,0,2.7-6.066,21.376,21.376,0,0,0-1.735-5.265,16,16,0,0,1-1.252-3.618c2.176-2.651.753-5.836-.2-7.961l-.03-.067h16.764a8.093,8.093,0,0,0,8.084-8.084V30.542a8.1,8.1,0,0,0-8.086-8.084Zm-45.808,24.5h48.5V53.57h-48.5Zm2.695-19.109h43.114a2.7,2.7,0,0,1,2.695,2.695V41.568h-48.5V30.542a2.7,2.7,0,0,1,2.695-2.695Zm43.114,37.724H106.6a2.7,2.7,0,0,0-1.823.71L96.039,74.31V58.959h48.5v3.918a2.7,2.7,0,0,1-2.695,2.695Z" transform="translate(0 0)"/>
  </g>
</svg>
