<svg xmlns="http://www.w3.org/2000/svg" width="349.881" height="239.698" viewBox="0 0 349.881 239.698">
  <g id="Grupo_80616" data-name="Grupo 80616" transform="translate(-287.617 -156.163)">
    <path id="Trazado_114355" data-name="Trazado 114355" d="M605.26,395.162c-7.653,0-42.154.009-85.929,0-12.087,0-24.883-.007-38.013-.011-9.963,0-20.122-.009-30.313-.015l-17.265-.011c-77.045-.061-89.324.8-101.551.037-22.747,0-81.009-88.4-11.651-146.444,26.932-22.539-7.633-52.482,37.1-74.971,29.417-14.789,50.784,11.192,86.3,1.832,26.235-6.915,31.572-23.136,83.441-18.641,49.88,4.322,50.883,45.277,35.06,79.1-9.991,21.351,38.994,14.759,61.645,46.624C662.741,337.046,605.6,394.354,605.26,395.162Z" transform="translate(0)" fill="#e1f3d7"/>
    <g id="Grupo_80576" data-name="Grupo 80576" transform="translate(356 192.78)">
      <path id="Trazado_114356" data-name="Trazado 114356" d="M2191.959,1391.261a25.881,25.881,0,0,0,5.151-.735c2.246-.647,3.945-2.936,5.732-2.8,3.746.278,10.868-.885,10.162.434s-5,.98-5.511,1.763,6.124,2.781,8.042,3.135,9.081,1.158,8.835,2.11-9.8,5.4-15.434,4.214-15.77-3.219-15.77-3.219Z" transform="translate(-1984.8 -1245.964)" fill="#ffb27d"/>
      <path id="Trazado_114357" data-name="Trazado 114357" d="M1257.952,411.668c-8.292-4.3-14.937-1.6-14.937-1.6-25.375-2.98-32.777,26.614-32.433,36.8s2.866,18.3-9.128,28.85c-14.294,12.569-10.969,29.179-3.556,35.064a38.264,38.264,0,0,0,11.867,5.924A92.386,92.386,0,0,0,1226,520.2c2.673.35,5.029.568,6.835.7h0c.294.022.568.041.832.058h0c1.824.123,2.9.149,2.9.149.208-10.933,5.033-16.521,11.071-19.048a.008.008,0,0,0,.007,0,21.89,21.89,0,0,1,4.354-1.295h0a32.321,32.321,0,0,1,11.981.158c5.087.992,8.683,2.877,8.156,3.892a29.181,29.181,0,0,0,7.827.914,13.49,13.49,0,0,0,7.97-2.593C1306.536,488.8,1273.892,419.937,1257.952,411.668Z" transform="translate(-1129.13 -409.231)" fill="#163560"/>
      <path id="Trazado_114358" data-name="Trazado 114358" d="M1662.859,894.251s19.14,2.732,25.768,11.689c8.373,11.316,16.609,43.221,22.6,48.931s31.046,14.231,31.046,14.231.925,5.5-1.948,7.173c-4.866,2.842-29.436,1.606-43.69-6.051-13.679-7.348-23.368-23.415-23.368-23.415Z" transform="translate(-1532.256 -824.073)" fill="#8c9df4"/>
      <path id="Trazado_114359" data-name="Trazado 114359" d="M787.913,1149.767s-4-7.48-7.724-7.956-10.472-3.041-10.043-1.606,4.708,1.961,5.048,2.829-6.556,1.5-8.507,1.464-6.507-.589-6.456.393,7.783,5.728,13.546,5.691S786.4,1153.4,786.4,1153.4Z" transform="translate(-760.23 -1034.07)" fill="#ffb27d"/>
      <path id="Trazado_114360" data-name="Trazado 114360" d="M998.773,948.122a69.806,69.806,0,0,1-8.064,10.086c-6.135,6.4-15.354,13.61-26.166,14.219a26.592,26.592,0,0,1-14.445-3.706.069.069,0,0,0-.016-.006c-12.438-6.924-20.985-21.033-20.985-21.033-1.721-6.436,1.425-10.186,1.425-10.186s26.539,7.921,29.211,7.095c10.759-3.326,18.28-31.485,24.643-40.482,5.336-7.546,23.958-9.855,23.958-9.855Z" transform="translate(-904.224 -824.075)" fill="#8c9df4"/>
      <path id="Trazado_114361" data-name="Trazado 114361" d="M1117.893,1251.471c-6.135,6.4-15.354,13.609-26.166,14.219a26.591,26.591,0,0,1-14.445-3.706c.5.112,13.3,2.882,19.29-5.88,6.114-8.939,13.156-23.376,20.521-17.685C1120.271,1240.875,1119.638,1246.206,1117.893,1251.471Z" transform="translate(-1031.407 -1117.338)" fill="#6f84dd"/>
      <path id="Trazado_114362" data-name="Trazado 114362" d="M1386.771,980.931a125.58,125.58,0,0,1-2.362,13c-1.7,7.231-4.627,10.075-5.9,11.009a4.06,4.06,0,0,1-.625.393l-22.663,5.554-7.968,1.951-25.127-7.505s-11.445-31.945-6.848-49.927,7.873-26.542,7.873-26.542,16.34-6.652,51.537-.754C1374.686,928.11,1391.454,943.769,1386.771,980.931Z" transform="translate(-1234.034 -850.946)" fill="#8c9df4"/>
      <path id="Trazado_114363" data-name="Trazado 114363" d="M1345.083,1551.654c-9.963,0-20.122-.009-30.313-.015l-17.265-.011c2.574-12.694,8.193-31.288,10.7-39.349.771-2.485,1.249-3.97,1.249-3.97h33.669s0,.13,0,.38v.117c.006.873.028,2.876.093,5.828C1343.386,1521.991,1343.842,1535.249,1345.083,1551.654Z" transform="translate(-1219.765 -1349.282)" fill="#2b478b"/>
      <path id="Trazado_114364" data-name="Trazado 114364" d="M1477.953,1544.843c-12.087,0-24.883-.006-38.013-.011-9.963,0-20.122-.009-30.313-.015-3.062-7.062.385-26.376,2.306-35.617.108-.519.21-1.007.307-1.459.032-.149.065-.3.1-.438.428-1.978.713-3.16.713-3.16l4.968-.43,1.787-.156,4.167-.361,13.282-1.15h.006l.724-.062,19.05-1.651s1.055,1.413,2.689,3.8c5.3,7.743,16.709,25.724,18.062,38.882Q1477.87,1543.862,1477.953,1544.843Z" transform="translate(-1314.622 -1342.46)" fill="#2b478b"/>
      <path id="Trazado_114365" data-name="Trazado 114365" d="M1639.071,1248.744a27.469,27.469,0,0,0,6.7,8.241c-.886,12.3-6.055,16.971-7.33,17.9l-.627.184-19.72,1.908s8.746-3.062,10.475-8.659-1.067-12.728,1.225-21.445C1631.813,1239.2,1633.722,1239.064,1639.071,1248.744Z" transform="translate(-1493.971 -1120.896)" fill="#6f84dd"/>
      <path id="Trazado_114366" data-name="Trazado 114366" d="M1362.18,1466.99s5,3.952,14.919,4.151c11.854.239,41.226-3.022,41.226-3.022a24.29,24.29,0,0,1,1.252,7.5s-35.874,9.049-56.659,1.321C1362.918,1476.938,1360.237,1471.894,1362.18,1466.99Z" transform="translate(-1274.479 -1313.942)" fill="#233862"/>
      <g id="Grupo_80574" data-name="Grupo 80574" transform="translate(94.366 155.172)">
        <path id="Trazado_114367" data-name="Trazado 114367" d="M1423.234,1487.589a6.691,6.691,0,0,0-.257-1.681v0c-.037-.132-.078-.259-.125-.387a6.178,6.178,0,0,0-.994-1.813,5.141,5.141,0,0,0-4.028-2.042,5,5,0,0,0-3.386,1.355c-.093.082-.181.168-.268.259a6.175,6.175,0,0,0-1.368,2.241,6.738,6.738,0,0,0-.387,2.267,6.628,6.628,0,0,0,1.044,3.609,5.666,5.666,0,0,0,1.9,1.837,4.858,4.858,0,0,0,2.466.674,5.032,5.032,0,0,0,3.555-1.511,6.467,6.467,0,0,0,1.854-4.609C1423.239,1487.72,1423.239,1487.653,1423.234,1487.589Zm-1.787.2c0,2.262-1.461,4.128-3.313,4.311h-.009a2.271,2.271,0,0,1-.3.017,3.041,3.041,0,0,1-1.037-.182h0a3.331,3.331,0,0,1-1.022-.6,4.613,4.613,0,0,1-1.552-3.548,4.929,4.929,0,0,1,.538-2.267,3.953,3.953,0,0,1,1.491-1.623,3.118,3.118,0,0,1,1.176-.413,2.842,2.842,0,0,1,.411-.028,3.017,3.017,0,0,1,.936.149s0,0,0,0h0a3.686,3.686,0,0,1,1.982,1.636v0c.054.089.106.179.153.274a4.933,4.933,0,0,1,.538,2.226Z" transform="translate(-1412.42 -1481.663)" fill="#6f84dd"/>
      </g>
      <g id="Grupo_80575" data-name="Grupo 80575" transform="translate(90.577 13.034)">
        <path id="Trazado_114368" data-name="Trazado 114368" d="M1506.625,775.939c-1.338-2.514-5.171-15.3-5.143-21.933l-1.138.19-19.13,3.209s.435,5.1.448,9.905c0,.04,0,.08,0,.12a58.447,58.447,0,0,0,.782,11.4c.377,2.333-.42,19.078,7.59,17.875C1492.891,796.275,1507.508,777.6,1506.625,775.939Z" transform="translate(-1467.471 -717.154)" fill="#ffb27d"/>
        <path id="Trazado_114369" data-name="Trazado 114369" d="M1481.214,758.527s.435,5.1.448,9.905c10.7-.256,16.363-8.529,18.682-13.114Z" transform="translate(-1467.471 -718.277)" fill="#e8945b"/>
        <path id="Trazado_114370" data-name="Trazado 114370" d="M1406.641,566.218s25.328.418,25.345-15.359,3.3-26.348-12.872-27.282-19.319,5.083-20.606,10.347S1400.054,565.7,1406.641,566.218Z" transform="translate(-1396.473 -519.984)" fill="#ffb27d"/>
        <path id="Trazado_114371" data-name="Trazado 114371" d="M1462.985,502.522s6.935,18.509,17.577,21.246,15.259-.115,15.259-.115a30.138,30.138,0,0,1-9.857-17.805S1468.216,493.712,1462.985,502.522Z" transform="translate(-1451.88 -499.315)" fill="#163560"/>
        <path id="Trazado_114372" data-name="Trazado 114372" d="M1399.057,514.021s-5.142,1.922-7.259,5.673a25.5,25.5,0,0,0-3.424,14.484s-5.225-12.581.647-19.7C1395.247,506.934,1399.057,514.021,1399.057,514.021Z" transform="translate(-1386.233 -509.312)" fill="#163560"/>
      </g>
      <path id="Trazado_114373" data-name="Trazado 114373" d="M1526.992,901.089s16.5-18.117,17.164-25.414c0,0,3.43.065,9.717,3.33a1.031,1.031,0,0,1,.483,1.3c-1.232,2.913-5.465,12.385-9.522,15.161a30.488,30.488,0,0,1-6.234-1.655,53.246,53.246,0,0,0,3.106,4.641S1534.1,902.714,1526.992,901.089Z" transform="translate(-1416.048 -808.185)" fill="#6f84dd"/>
      <path id="Trazado_114374" data-name="Trazado 114374" d="M1437.393,873.439a82.22,82.22,0,0,0,6.143,25.716s-7.809-1.536-11.8-7.069c0,0,1.261-2.952,2.323-3.632,0,0-2.343-.947-3.824.416,0,0-1.568-10.275-.37-12.075C1430.366,876.05,1436.175,873.115,1437.393,873.439Z" transform="translate(-1332.592 -806.251)" fill="#6f84dd"/>
      <path id="Trazado_114375" data-name="Trazado 114375" d="M1520.874,1043.961a1.246,1.246,0,1,0-1.252,1.239A1.246,1.246,0,0,0,1520.874,1043.961Z" transform="translate(-1408.685 -951.05)" fill="#233862"/>
      <path id="Trazado_114376" data-name="Trazado 114376" d="M1474.323,1165.765a1.246,1.246,0,1,0-1.252,1.239A1.246,1.246,0,0,0,1474.323,1165.765Z" transform="translate(-1368.868 -1055.23)" fill="#233862"/>
      <path id="Trazado_114377" data-name="Trazado 114377" d="M1464.967,1308.846a1.246,1.246,0,1,0-1.252,1.239A1.246,1.246,0,0,0,1464.967,1308.846Z" transform="translate(-1360.867 -1177.609)" fill="#233862"/>
    </g>
    <g id="Grupo_80578" data-name="Grupo 80578" transform="translate(552.648 286.398)">
      <rect id="Rectángulo_33799" data-name="Rectángulo 33799" width="7.948" height="9.542" rx="3.974" transform="translate(0 24.416)" fill="#ed7d2b"/>
      <rect id="Rectángulo_33800" data-name="Rectángulo 33800" width="7.948" height="7.051" rx="3.525" transform="translate(0 24.416)" fill="#f99746"/>
      <path id="Trazado_114378" data-name="Trazado 114378" d="M2200.053,1134.219a20.74,20.74,0,0,1-1.652,8.129,21.01,21.01,0,0,1-19.283,12.807h-5.985a20.98,20.98,0,0,1-18.016-10.3,20.82,20.82,0,0,1-1.267-18.76,21.01,21.01,0,0,1,19.283-12.807h5.985a20.986,20.986,0,0,1,18.313,10.822A20.751,20.751,0,0,1,2200.053,1134.219Z" transform="translate(-2147.44 -1105.031)" fill="#ed7d2b"/>
      <path id="Trazado_114379" data-name="Trazado 114379" d="M2350.886,1324.225l-1.953,12.68a1.549,1.549,0,0,0,1.5,1.944h5.132a2.938,2.938,0,0,0,2.612-1.593l7.976-15.91Z" transform="translate(-2315.665 -1282.99)" fill="#ed7d2b"/>
      <path id="Trazado_114380" data-name="Trazado 114380" d="M2188.233,1333.082l1.567,12.463a1.549,1.549,0,0,1-1.5,1.944h-5.132a2.938,2.938,0,0,1-2.612-1.592l-8.184-14.448Z" transform="translate(-2164.697 -1291.63)" fill="#ed7d2b"/>
      <g id="Grupo_80577" data-name="Grupo 80577" transform="translate(49.652 23.497)">
        <path id="Trazado_114381" data-name="Trazado 114381" d="M2470.423,1230.026a1.384,1.384,0,0,1-.353-.046c-.91-.24-1.431-1.326-1.359-2.835a7.558,7.558,0,0,1,1.7-4.287,7.731,7.731,0,0,1,1.539-1.44,4.4,4.4,0,0,0-1.132-1.248,2.914,2.914,0,0,0-2.649-.554c-2.537.689-4.687,4.315-4.862,4.723a.429.429,0,0,1-.811-.282,12.448,12.448,0,0,1,1.58-2.381,8.144,8.144,0,0,1,3.707-2.841,3.771,3.771,0,0,1,3.549.649,5.274,5.274,0,0,1,1.344,1.476,8.946,8.946,0,0,1,2.918-1,.429.429,0,0,1,.139.847,8.076,8.076,0,0,0-2.668.916,6.479,6.479,0,0,1,.458,1.932,8.487,8.487,0,0,1-.791,4.3C2472.093,1229.283,2471.251,1230.026,2470.423,1230.026Zm1.906-7.824a6.853,6.853,0,0,0-1.253,1.2,6.682,6.682,0,0,0-1.509,3.787c-.049,1.032.247,1.84.72,1.965s1.166-.517,1.672-1.563a7.714,7.714,0,0,0,.709-3.855A5.756,5.756,0,0,0,2472.329,1222.2Zm-9.019,2.126,0,.008Z" transform="translate(-2462.474 -1218.645)" fill="#ed7d2b"/>
      </g>
      <path id="Trazado_114382" data-name="Trazado 114382" d="M2197.431,1124.105a17.129,17.129,0,0,1-.529,7.693c-4.225,12.152-14.156,14.346-24.308,15.27-7.219.657-17.478-2.219-17.478-2.219a20.82,20.82,0,0,1-1.267-18.76,21.01,21.01,0,0,1,19.283-12.807h5.985A20.986,20.986,0,0,1,2197.431,1124.105Z" transform="translate(-2147.44 -1105.031)" fill="#f99746"/>
      <path id="Trazado_114383" data-name="Trazado 114383" d="M2222.266,1069.749h-8.234c-.83,0-1.5-.5-1.5-1.126V1057.38a.905.905,0,0,1,.165-.518,1.8,1.8,0,0,1,2.249-.379c3.127,1.772,8.249,5.624,8.825,12.063C2223.824,1069.2,2223.136,1069.749,2222.266,1069.749Z" transform="translate(-2199.041 -1056.252)" fill="#f99746"/>
      <path id="Trazado_114384" data-name="Trazado 114384" d="M2214.366,1073.354h-.335c-.83,0-1.5-.5-1.5-1.126v-11.243a.905.905,0,0,1,.165-.518,1.129,1.129,0,0,1,.1.1,14.1,14.1,0,0,1,3.64,11.383A1.946,1.946,0,0,1,2214.366,1073.354Z" transform="translate(-2199.041 -1059.857)" fill="#ed7d2b"/>
      <path id="Trazado_114385" data-name="Trazado 114385" d="M2195.238,1194.224a1.227,1.227,0,1,1,1.227,1.227A1.227,1.227,0,0,1,2195.238,1194.224Z" transform="translate(-2184.253 -1173.211)" fill="#2b478b"/>
    </g>
    <g id="Grupo_80579" data-name="Grupo 80579" transform="translate(528.708 360.813)">
      <path id="Trazado_114386" data-name="Trazado 114386" d="M2013.118,1575.9s2.8,3.947,5.373,4,6.48-1.829,6.48-1.829,2.36-5.259.759-7.317a3.437,3.437,0,0,0-3.283.539,5.043,5.043,0,0,0-.869.832,2.757,2.757,0,0,1-1.349.915c-1.834.558-4.01-.755-4.825.512a8.613,8.613,0,0,1-1.418,1.678A6.469,6.469,0,0,1,2013.118,1575.9Z" transform="translate(-2004.544 -1570.553)" fill="#aec3ff" opacity="0.5"/>
      <path id="Trazado_114387" data-name="Trazado 114387" d="M1998.979,1659.6s-9.908-24.008-27.743-24.465c0,0-16.463,1.829-17.377,24.465Z" transform="translate(-1953.859 -1625.791)" fill="#aec3ff" opacity="0.5"/>
      <path id="Trazado_114388" data-name="Trazado 114388" d="M2052.365,1621.835s-7.149,1.59-9.354.656c0,0-.333-2.989,2.677-2.57a6.317,6.317,0,0,0,4.192-1.105C2051,1618.246,2052.661,1620.584,2052.365,1621.835Z" transform="translate(-2030.102 -1611.757)" fill="#8c9df4"/>
      <path id="Trazado_114389" data-name="Trazado 114389" d="M2062.568,1580.488c.458.343,1.861-4.834,1.861-4.834a5.029,5.029,0,0,0-.869.832,2.757,2.757,0,0,1-1.349.915C2062.207,1577.552,2062.125,1580.154,2062.568,1580.488Z" transform="translate(-2046.526 -1574.916)" fill="#aec3ff" opacity="0.5"/>
      <path id="Trazado_114390" data-name="Trazado 114390" d="M2019.123,1592.946a29.469,29.469,0,0,0,3.855,2.04c.457,0-2.437-3.718-2.437-3.718A8.609,8.609,0,0,1,2019.123,1592.946Z" transform="translate(-2009.68 -1588.271)" fill="#aec3ff" opacity="0.5"/>
      <path id="Trazado_114391" data-name="Trazado 114391" d="M2038.054,1694.783c.183-.156-7.012-10.594-8.994-10.67s-6.434,2.287-9.657,2.591-6.348-.61-6.958,1.3-2.286,8.661-1.258,9.742S2034.1,1698.163,2038.054,1694.783Z" transform="translate(-2002.614 -1667.68)" fill="#aec3ff" opacity="0.5"/>
    </g>
    <g id="Grupo_80580" data-name="Grupo 80580" transform="translate(374.48 323.921)">
      <path id="Trazado_114392" data-name="Trazado 114392" d="M1032.19,1319.989s-2.314,3.258-4.436,3.3-5.349-1.51-5.349-1.51-1.948-4.341-.627-6.04a2.837,2.837,0,0,1,2.71.446,4.155,4.155,0,0,1,.717.687,2.276,2.276,0,0,0,1.114.755c1.514.461,3.311-.623,3.983.423a7.1,7.1,0,0,0,1.17,1.385A5.339,5.339,0,0,0,1032.19,1319.989Z" transform="translate(-1002.021 -1315.578)" fill="#ffeddc"/>
      <path id="Trazado_114393" data-name="Trazado 114393" d="M887.948,1389.088s8.179-19.819,22.9-20.2c0,0,13.59,1.51,14.345,20.2Z" transform="translate(-887.948 -1361.178)" fill="#ffeddc"/>
      <path id="Trazado_114394" data-name="Trazado 114394" d="M1018.183,1357.912s5.9,1.312,7.722.541a1.823,1.823,0,0,0-2.21-2.122,5.214,5.214,0,0,1-3.46-.912C1019.312,1354.95,1017.938,1356.88,1018.183,1357.912Z" transform="translate(-999.314 -1349.593)" fill="#db6a1d"/>
      <path id="Trazado_114395" data-name="Trazado 114395" d="M1044.764,1323.78c-.377.283-1.536-3.99-1.536-3.99a4.16,4.16,0,0,1,.717.687,2.274,2.274,0,0,0,1.114.755C1045.062,1321.357,1045.13,1323.5,1044.764,1323.78Z" transform="translate(-1020.76 -1319.181)" fill="#e5c1a1"/>
      <path id="Trazado_114396" data-name="Trazado 114396" d="M1072.443,1334.064a24.344,24.344,0,0,1-3.182,1.684c-.378,0,2.012-3.069,2.012-3.069A7.1,7.1,0,0,0,1072.443,1334.064Z" transform="translate(-1042.992 -1330.205)" fill="#e5c1a1"/>
      <path id="Trazado_114397" data-name="Trazado 114397" d="M943.155,1418.131c-.151-.129,5.788-8.745,7.424-8.808s5.311,1.888,7.972,2.139,5.24-.5,5.744,1.07,1.887,7.149,1.038,8.042S946.421,1420.921,943.155,1418.131Z" transform="translate(-935.165 -1395.757)" fill="#f9ddbf"/>
    </g>
    <g id="Grupo_80607" data-name="Grupo 80607" transform="translate(339.269 350.817)">
      <g id="Grupo_80603" data-name="Grupo 80603" transform="translate(28.056 0.956)">
        <g id="Grupo_80582" data-name="Grupo 80582" transform="translate(4.477 38.772)">
          <path id="Trazado_114398" data-name="Trazado 114398" d="M913.355,1776.9v2.208a.754.754,0,0,1-.174.475,1.084,1.084,0,0,1-.661.362,1.173,1.173,0,0,1-.179.013H870.457a.98.98,0,0,1-1-.724c0-.027-.008-.055-.009-.084s0-.029,0-.043V1776.9c0-.015,0-.029,0-.043s.005-.056.009-.084a.98.98,0,0,1,1-.723h41.884a1.143,1.143,0,0,1,.179.013,1.121,1.121,0,0,1,.186.044,1.008,1.008,0,0,1,.475.318A.753.753,0,0,1,913.355,1776.9Z" transform="translate(-869.443 -1776.045)" fill="#ffb93e"/>
          <path id="Trazado_114399" data-name="Trazado 114399" d="M892.788,1779.955h-22.44a.9.9,0,0,1-.87-.63.7.7,0,0,1-.024-.094c0-.027-.008-.055-.009-.084s0-.029,0-.043V1776.9c0-.015,0-.029,0-.043s.005-.056.009-.084a.715.715,0,0,1,.024-.094.9.9,0,0,1,.87-.63h19.684A6.853,6.853,0,0,0,892.788,1779.955Z" transform="translate(-869.443 -1776.045)" fill="#ffa412"/>
          <g id="Grupo_80581" data-name="Grupo 80581" transform="translate(15.39)">
            <rect id="Rectángulo_33801" data-name="Rectángulo 33801" width="0.476" height="3.91" transform="translate(22.95 0)" fill="#ffa412"/>
            <rect id="Rectángulo_33802" data-name="Rectángulo 33802" width="0.476" height="3.91" transform="translate(21.338 0)" fill="#ffa412"/>
            <rect id="Rectángulo_33803" data-name="Rectángulo 33803" width="0.476" height="3.91" transform="translate(19.406 0)" fill="#ffa412"/>
            <rect id="Rectángulo_33804" data-name="Rectángulo 33804" width="0.476" height="3.91" transform="translate(16.444 0)" fill="#ffa412"/>
            <rect id="Rectángulo_33805" data-name="Rectángulo 33805" width="0.476" height="3.91" transform="translate(13.312 0)" fill="#ffa412"/>
            <rect id="Rectángulo_33806" data-name="Rectángulo 33806" width="0.476" height="3.91" transform="translate(8.51 0)" fill="#ffa412"/>
            <rect id="Rectángulo_33807" data-name="Rectángulo 33807" width="0.476" height="3.91" transform="translate(4.014 0)" fill="#ffa412"/>
            <rect id="Rectángulo_33808" data-name="Rectángulo 33808" width="0.476" height="3.91" transform="translate(0 0)" fill="#ffa412"/>
            <rect id="Rectángulo_33809" data-name="Rectángulo 33809" width="0.476" height="3.91" transform="translate(24.483 0)" fill="#ffa412"/>
            <rect id="Rectángulo_33810" data-name="Rectángulo 33810" width="0.476" height="3.91" transform="translate(25.497 0)" fill="#ffa412"/>
            <rect id="Rectángulo_33811" data-name="Rectángulo 33811" width="0.476" height="3.91" transform="translate(26.475 0)" fill="#ffa412"/>
            <path id="Trazado_114400" data-name="Trazado 114400" d="M1164.346,1776.057v3.883a1.194,1.194,0,0,1-.179.014h-.3v-3.91h.3A1.163,1.163,0,0,1,1164.346,1776.057Z" transform="translate(-1136.659 -1776.043)" fill="#ffa412"/>
            <path id="Trazado_114401" data-name="Trazado 114401" d="M1168.918,1776.758v3.158a1.009,1.009,0,0,1-.476.318v-3.8A1.007,1.007,0,0,1,1168.918,1776.758Z" transform="translate(-1140.569 -1776.383)" fill="#ffa412"/>
          </g>
        </g>
        <g id="Grupo_80584" data-name="Grupo 80584" transform="translate(0 34.862)">
          <path id="Trazado_114402" data-name="Trazado 114402" d="M882.41,1749.868v2.207a.76.76,0,0,1-.173.476,1,1,0,0,1-.1.1,1.053,1.053,0,0,1-.381.217,1.077,1.077,0,0,1-.186.043,1.154,1.154,0,0,1-.178.014H839.512a.981.981,0,0,1-1-.725c0-.028-.008-.055-.009-.083s0-.029,0-.045v-2.207c0-.014,0-.03,0-.044s.005-.055.009-.082a.981.981,0,0,1,1-.725H881.4c.026,0,.054,0,.08,0l.029,0a0,0,0,0,1,.005,0,.183.183,0,0,1,.038,0l.026,0a1.055,1.055,0,0,1,.186.043q.053.018.1.039h0l.065.031.037.021a.355.355,0,0,1,.034.021.786.786,0,0,1,.123.091c.013.01.023.022.035.033l.021.02a.08.08,0,0,1,.01.012l.009.009a.4.4,0,0,1,.038.043A.756.756,0,0,1,882.41,1749.868Z" transform="translate(-838.499 -1749.016)" fill="#ffb93e"/>
          <path id="Trazado_114403" data-name="Trazado 114403" d="M861.843,1752.927H839.4a.9.9,0,0,1-.87-.632.742.742,0,0,1-.024-.093c0-.028-.008-.055-.009-.083s0-.029,0-.045v-2.207c0-.014,0-.03,0-.044s.005-.055.009-.082a.744.744,0,0,1,.024-.093.9.9,0,0,1,.87-.631h19.684c.008.033.017.064.027.1A6.841,6.841,0,0,0,861.843,1752.927Z" transform="translate(-838.499 -1749.016)" fill="#ffa412"/>
          <g id="Grupo_80583" data-name="Grupo 80583" transform="translate(15.389 0)">
            <rect id="Rectángulo_33812" data-name="Rectángulo 33812" width="0.476" height="3.91" transform="translate(22.95 0)" fill="#ffa412"/>
            <rect id="Rectángulo_33813" data-name="Rectángulo 33813" width="0.476" height="3.91" transform="translate(21.338 0)" fill="#ffa412"/>
            <rect id="Rectángulo_33814" data-name="Rectángulo 33814" width="0.476" height="3.91" transform="translate(19.406 0)" fill="#ffa412"/>
            <rect id="Rectángulo_33815" data-name="Rectángulo 33815" width="0.476" height="3.91" transform="translate(16.444 0)" fill="#ffa412"/>
            <rect id="Rectángulo_33816" data-name="Rectángulo 33816" width="0.476" height="3.91" transform="translate(13.312 0)" fill="#ffa412"/>
            <rect id="Rectángulo_33817" data-name="Rectángulo 33817" width="0.476" height="3.91" transform="translate(8.51 0)" fill="#ffa412"/>
            <rect id="Rectángulo_33818" data-name="Rectángulo 33818" width="0.476" height="3.91" transform="translate(4.014 0)" fill="#ffa412"/>
            <rect id="Rectángulo_33819" data-name="Rectángulo 33819" width="0.476" height="3.91" transform="translate(0 0)" fill="#ffa412"/>
            <rect id="Rectángulo_33820" data-name="Rectángulo 33820" width="0.476" height="3.91" transform="translate(24.483 0)" fill="#ffa412"/>
            <rect id="Rectángulo_33821" data-name="Rectángulo 33821" width="0.476" height="3.91" transform="translate(25.497 0)" fill="#ffa412"/>
            <rect id="Rectángulo_33822" data-name="Rectángulo 33822" width="0.476" height="3.91" transform="translate(26.475 0)" fill="#ffa412"/>
            <path id="Trazado_114404" data-name="Trazado 114404" d="M1133.4,1749.031v3.883a1.164,1.164,0,0,1-.179.014h-.3v-3.91h.3A1.2,1.2,0,0,1,1133.4,1749.031Z" transform="translate(-1105.709 -1749.018)" fill="#ffa412"/>
            <path id="Trazado_114405" data-name="Trazado 114405" d="M1137.968,1749.732v3.158a1.007,1.007,0,0,1-.476.319v-3.8A1.006,1.006,0,0,1,1137.968,1749.732Z" transform="translate(-1109.619 -1749.357)" fill="#ffa412"/>
          </g>
        </g>
        <g id="Grupo_80586" data-name="Grupo 80586" transform="translate(2.164 31.048)">
          <path id="Trazado_114406" data-name="Trazado 114406" d="M897.367,1723.515v2.209a.752.752,0,0,1-.174.475,1,1,0,0,1-.475.318,1.208,1.208,0,0,1-.186.045,1.332,1.332,0,0,1-.178.013H854.469a1.165,1.165,0,0,1-.467-.1.884.884,0,0,1-.534-.618c0-.018-.005-.036-.008-.055a.352.352,0,0,1,0-.038c0-.014,0-.029,0-.043v-2.209c0-.015,0-.029,0-.043a.575.575,0,0,1,.009-.083.98.98,0,0,1,1-.725h41.885a1.127,1.127,0,0,1,.178.013,1.079,1.079,0,0,1,.186.043,1.015,1.015,0,0,1,.475.319A.752.752,0,0,1,897.367,1723.515Z" transform="translate(-853.456 -1722.663)" fill="#ffb93e"/>
          <path id="Trazado_114407" data-name="Trazado 114407" d="M876.8,1726.574H854.36a.938.938,0,0,1-.416-.1.858.858,0,0,1-.476-.618c0-.018-.005-.036-.008-.055a.352.352,0,0,1,0-.038c0-.014,0-.029,0-.043v-2.209c0-.015,0-.029,0-.043a.575.575,0,0,1,.009-.083.717.717,0,0,1,.023-.091.9.9,0,0,1,.87-.634h19.684a6.862,6.862,0,0,0,2.618,3.813C876.707,1726.509,876.753,1726.542,876.8,1726.574Z" transform="translate(-853.456 -1722.663)" fill="#ffa412"/>
          <g id="Grupo_80585" data-name="Grupo 80585" transform="translate(15.389)">
            <rect id="Rectángulo_33823" data-name="Rectángulo 33823" width="0.476" height="3.91" transform="translate(22.95 0)" fill="#ffa412"/>
            <rect id="Rectángulo_33824" data-name="Rectángulo 33824" width="0.476" height="3.91" transform="translate(21.338 0)" fill="#ffa412"/>
            <rect id="Rectángulo_33825" data-name="Rectángulo 33825" width="0.476" height="3.91" transform="translate(19.406 0)" fill="#ffa412"/>
            <rect id="Rectángulo_33826" data-name="Rectángulo 33826" width="0.476" height="3.91" transform="translate(16.444 0)" fill="#ffa412"/>
            <rect id="Rectángulo_33827" data-name="Rectángulo 33827" width="0.476" height="3.91" transform="translate(13.312 0)" fill="#ffa412"/>
            <rect id="Rectángulo_33828" data-name="Rectángulo 33828" width="0.476" height="3.91" transform="translate(8.51 0)" fill="#ffa412"/>
            <rect id="Rectángulo_33829" data-name="Rectángulo 33829" width="0.476" height="3.91" transform="translate(4.014 0)" fill="#ffa412"/>
            <rect id="Rectángulo_33830" data-name="Rectángulo 33830" width="0.476" height="3.91" transform="translate(0 0)" fill="#ffa412"/>
            <rect id="Rectángulo_33831" data-name="Rectángulo 33831" width="0.476" height="3.91" transform="translate(24.483 0)" fill="#ffa412"/>
            <rect id="Rectángulo_33832" data-name="Rectángulo 33832" width="0.476" height="3.91" transform="translate(25.497 0)" fill="#ffa412"/>
            <rect id="Rectángulo_33833" data-name="Rectángulo 33833" width="0.476" height="3.91" transform="translate(26.475 0)" fill="#ffa412"/>
            <path id="Trazado_114408" data-name="Trazado 114408" d="M1148.353,1722.674v3.883a1.178,1.178,0,0,1-.179.014h-.3v-3.91h.3A1.163,1.163,0,0,1,1148.353,1722.674Z" transform="translate(-1120.666 -1722.66)" fill="#ffa412"/>
            <path id="Trazado_114409" data-name="Trazado 114409" d="M1152.925,1723.375v3.159a1.008,1.008,0,0,1-.476.318v-3.8A1.008,1.008,0,0,1,1152.925,1723.375Z" transform="translate(-1124.576 -1723)" fill="#ffa412"/>
          </g>
        </g>
        <g id="Grupo_80588" data-name="Grupo 80588" transform="translate(3.168 27.138)">
          <path id="Trazado_114410" data-name="Trazado 114410" d="M904.3,1696.487v2.207a.75.75,0,0,1-.174.475c-.014.018-.03.036-.046.052a.982.982,0,0,1-.289.211,1.271,1.271,0,0,1-.14.056,1.107,1.107,0,0,1-.186.043l-.088.01c-.03,0-.062,0-.092,0H861.4a.981.981,0,0,1-1-.725c0-.027-.008-.055-.009-.082v-2.3a.934.934,0,0,1,.892-.8,1.143,1.143,0,0,1,.12-.007h41.884c.03,0,.062,0,.092,0s.059.005.088.01a1.1,1.1,0,0,1,.186.043,1.008,1.008,0,0,1,.475.318A.753.753,0,0,1,904.3,1696.487Z" transform="translate(-860.392 -1695.635)" fill="#ffb93e"/>
          <path id="Trazado_114411" data-name="Trazado 114411" d="M883.736,1699.546H861.3a.9.9,0,0,1-.87-.631.706.706,0,0,1-.025-.094c0-.027-.008-.055-.009-.082v-2.3a.88.88,0,0,1,.8-.8.91.91,0,0,1,.107-.007H880.98s0,0,0,.007A6.858,6.858,0,0,0,883.736,1699.546Z" transform="translate(-860.392 -1695.635)" fill="#ffa412"/>
          <g id="Grupo_80587" data-name="Grupo 80587" transform="translate(15.388 0)">
            <rect id="Rectángulo_33834" data-name="Rectángulo 33834" width="0.476" height="3.91" transform="translate(22.95 0)" fill="#ffa412"/>
            <rect id="Rectángulo_33835" data-name="Rectángulo 33835" width="0.476" height="3.91" transform="translate(21.338 0)" fill="#ffa412"/>
            <rect id="Rectángulo_33836" data-name="Rectángulo 33836" width="0.476" height="3.91" transform="translate(19.406 0)" fill="#ffa412"/>
            <rect id="Rectángulo_33837" data-name="Rectángulo 33837" width="0.476" height="3.91" transform="translate(16.444 0)" fill="#ffa412"/>
            <rect id="Rectángulo_33838" data-name="Rectángulo 33838" width="0.476" height="3.91" transform="translate(13.312 0)" fill="#ffa412"/>
            <rect id="Rectángulo_33839" data-name="Rectángulo 33839" width="0.476" height="3.91" transform="translate(8.51 0)" fill="#ffa412"/>
            <rect id="Rectángulo_33840" data-name="Rectángulo 33840" width="0.476" height="3.91" transform="translate(4.014 0)" fill="#ffa412"/>
            <rect id="Rectángulo_33841" data-name="Rectángulo 33841" width="0.476" height="3.91" transform="translate(0 0)" fill="#ffa412"/>
            <rect id="Rectángulo_33842" data-name="Rectángulo 33842" width="0.476" height="3.91" transform="translate(24.483 0)" fill="#ffa412"/>
            <rect id="Rectángulo_33843" data-name="Rectángulo 33843" width="0.476" height="3.91" transform="translate(25.497 0)" fill="#ffa412"/>
            <rect id="Rectángulo_33844" data-name="Rectángulo 33844" width="0.476" height="3.91" transform="translate(26.475 0)" fill="#ffa412"/>
            <path id="Trazado_114412" data-name="Trazado 114412" d="M1155.286,1695.65v3.883a1.164,1.164,0,0,1-.179.014h-.3v-3.91h.3A1.2,1.2,0,0,1,1155.286,1695.65Z" transform="translate(-1127.599 -1695.636)" fill="#ffa412"/>
            <path id="Trazado_114413" data-name="Trazado 114413" d="M1159.859,1696.35v3.158a1.008,1.008,0,0,1-.476.319v-3.8A1.009,1.009,0,0,1,1159.859,1696.35Z" transform="translate(-1131.51 -1695.975)" fill="#ffa412"/>
          </g>
        </g>
        <g id="Grupo_80590" data-name="Grupo 80590" transform="translate(0.088 23.234)">
          <path id="Trazado_114414" data-name="Trazado 114414" d="M883.016,1669.5v2.207a.749.749,0,0,1-.173.475,1,1,0,0,1-.476.319,1.085,1.085,0,0,1-.185.043.462.462,0,0,1-.059.008h-.008l-.031,0-.028,0H840.119a.958.958,0,0,1-1.013-.807c0-.015,0-.029,0-.045V1669.5c0-.014,0-.03,0-.045a.316.316,0,0,1,0-.035.917.917,0,0,1,.76-.745.2.2,0,0,1,.03-.006,1.184,1.184,0,0,1,.22-.021H882c.031,0,.06,0,.09,0l.038,0h0l.047.007a1.133,1.133,0,0,1,.185.043,1,1,0,0,1,.476.319A.749.749,0,0,1,883.016,1669.5Z" transform="translate(-839.105 -1668.651)" fill="#ffb93e"/>
          <path id="Trazado_114415" data-name="Trazado 114415" d="M862.449,1672.562H840.01a.886.886,0,0,1-.9-.807c0-.015,0-.029,0-.045V1669.5c0-.014,0-.03,0-.045a.316.316,0,0,1,0-.035.872.872,0,0,1,.7-.75.19.19,0,0,1,.038-.008.945.945,0,0,1,.161-.014h19.683c0,.011.005.018.008.029a6.852,6.852,0,0,0,2.739,3.875Z" transform="translate(-839.105 -1668.651)" fill="#ffa412"/>
          <g id="Grupo_80589" data-name="Grupo 80589" transform="translate(15.389 0)">
            <rect id="Rectángulo_33845" data-name="Rectángulo 33845" width="0.476" height="3.91" transform="translate(22.95 0)" fill="#ffa412"/>
            <rect id="Rectángulo_33846" data-name="Rectángulo 33846" width="0.476" height="3.91" transform="translate(21.338 0)" fill="#ffa412"/>
            <rect id="Rectángulo_33847" data-name="Rectángulo 33847" width="0.476" height="3.91" transform="translate(19.406 0)" fill="#ffa412"/>
            <rect id="Rectángulo_33848" data-name="Rectángulo 33848" width="0.476" height="3.91" transform="translate(16.444 0)" fill="#ffa412"/>
            <rect id="Rectángulo_33849" data-name="Rectángulo 33849" width="0.476" height="3.91" transform="translate(13.312 0)" fill="#ffa412"/>
            <rect id="Rectángulo_33850" data-name="Rectángulo 33850" width="0.476" height="3.91" transform="translate(8.51 0)" fill="#ffa412"/>
            <rect id="Rectángulo_33851" data-name="Rectángulo 33851" width="0.476" height="3.91" transform="translate(4.014 0)" fill="#ffa412"/>
            <rect id="Rectángulo_33852" data-name="Rectángulo 33852" width="0.476" height="3.91" transform="translate(0 0)" fill="#ffa412"/>
            <rect id="Rectángulo_33853" data-name="Rectángulo 33853" width="0.476" height="3.91" transform="translate(24.483 0)" fill="#ffa412"/>
            <rect id="Rectángulo_33854" data-name="Rectángulo 33854" width="0.476" height="3.91" transform="translate(25.497 0)" fill="#ffa412"/>
            <rect id="Rectángulo_33855" data-name="Rectángulo 33855" width="0.476" height="3.91" transform="translate(26.475 0)" fill="#ffa412"/>
            <path id="Trazado_114416" data-name="Trazado 114416" d="M1134,1668.667v3.883a1.178,1.178,0,0,1-.179.014h-.3v-3.91h.3A1.178,1.178,0,0,1,1134,1668.667Z" transform="translate(-1106.317 -1668.653)" fill="#ffa412"/>
            <path id="Trazado_114417" data-name="Trazado 114417" d="M1138.577,1669.369v3.158a1.01,1.01,0,0,1-.476.318v-3.8A1.011,1.011,0,0,1,1138.577,1669.369Z" transform="translate(-1110.228 -1668.993)" fill="#ffa412"/>
          </g>
        </g>
        <g id="Grupo_80592" data-name="Grupo 80592" transform="translate(0 19.352)">
          <path id="Trazado_114418" data-name="Trazado 114418" d="M882.41,1642.673v2.207a.756.756,0,0,1-.173.475,1.176,1.176,0,0,1-.1.1,1.048,1.048,0,0,1-.381.217,1.1,1.1,0,0,1-.144.037h0l-.038.007a1.139,1.139,0,0,1-.178.014H839.512a1.07,1.07,0,0,1-.131-.008l-.05-.006a.943.943,0,0,1-.823-.72.711.711,0,0,1-.008-.073c0-.016,0-.03,0-.045v-2.207c0-.016,0-.03,0-.045s.005-.055.009-.082a.981.981,0,0,1,1-.725H881.4l.08,0h.034l.038.005a.088.088,0,0,1,.026,0,1.066,1.066,0,0,1,.186.043q.053.018.1.039h0a1.018,1.018,0,0,1,.335.236c.013.014.026.029.038.043A.76.76,0,0,1,882.41,1642.673Z" transform="translate(-838.499 -1641.821)" fill="#ffb93e"/>
          <path id="Trazado_114419" data-name="Trazado 114419" d="M861.843,1645.732H839.351l-.058-.005a.885.885,0,0,1-.785-.728.711.711,0,0,1-.008-.073c0-.016,0-.03,0-.045v-2.207c0-.016,0-.03,0-.045s.005-.055.009-.082a.733.733,0,0,1,.024-.093.9.9,0,0,1,.87-.631h19.684c.008.033.017.064.027.1a6.841,6.841,0,0,0,2.688,3.785C861.815,1645.714,861.829,1645.721,861.843,1645.732Z" transform="translate(-838.499 -1641.821)" fill="#ffa412"/>
          <g id="Grupo_80591" data-name="Grupo 80591" transform="translate(15.389 0)">
            <rect id="Rectángulo_33856" data-name="Rectángulo 33856" width="0.476" height="3.91" transform="translate(22.95 0)" fill="#ffa412"/>
            <rect id="Rectángulo_33857" data-name="Rectángulo 33857" width="0.476" height="3.91" transform="translate(21.338 0)" fill="#ffa412"/>
            <rect id="Rectángulo_33858" data-name="Rectángulo 33858" width="0.476" height="3.91" transform="translate(19.406 0)" fill="#ffa412"/>
            <rect id="Rectángulo_33859" data-name="Rectángulo 33859" width="0.476" height="3.91" transform="translate(16.444 0)" fill="#ffa412"/>
            <rect id="Rectángulo_33860" data-name="Rectángulo 33860" width="0.476" height="3.91" transform="translate(13.312 0)" fill="#ffa412"/>
            <rect id="Rectángulo_33861" data-name="Rectángulo 33861" width="0.476" height="3.91" transform="translate(8.51 0)" fill="#ffa412"/>
            <rect id="Rectángulo_33862" data-name="Rectángulo 33862" width="0.476" height="3.91" transform="translate(4.014 0)" fill="#ffa412"/>
            <rect id="Rectángulo_33863" data-name="Rectángulo 33863" width="0.476" height="3.91" transform="translate(0 0)" fill="#ffa412"/>
            <rect id="Rectángulo_33864" data-name="Rectángulo 33864" width="0.476" height="3.91" transform="translate(24.483 0)" fill="#ffa412"/>
            <rect id="Rectángulo_33865" data-name="Rectángulo 33865" width="0.476" height="3.91" transform="translate(25.497 0)" fill="#ffa412"/>
            <rect id="Rectángulo_33866" data-name="Rectángulo 33866" width="0.476" height="3.91" transform="translate(26.475 0)" fill="#ffa412"/>
            <path id="Trazado_114420" data-name="Trazado 114420" d="M1133.4,1641.836v3.883a1.164,1.164,0,0,1-.179.014h-.3v-3.91h.3A1.164,1.164,0,0,1,1133.4,1641.836Z" transform="translate(-1105.709 -1641.822)" fill="#ffa412"/>
            <path id="Trazado_114421" data-name="Trazado 114421" d="M1137.968,1642.538v3.158a1.008,1.008,0,0,1-.476.318v-3.8A1.007,1.007,0,0,1,1137.968,1642.538Z" transform="translate(-1109.619 -1642.162)" fill="#ffa412"/>
          </g>
        </g>
        <g id="Grupo_80594" data-name="Grupo 80594" transform="translate(2.164 15.538)">
          <path id="Trazado_114422" data-name="Trazado 114422" d="M897.367,1616.313v2.207a.753.753,0,0,1-.174.476,1,1,0,0,1-.475.318,1.068,1.068,0,0,1-.186.043,1.141,1.141,0,0,1-.178.014H854.469a1.163,1.163,0,0,1-.467-.1.884.884,0,0,1-.534-.618c0-.018-.005-.036-.008-.055a.375.375,0,0,1,0-.038c0-.014,0-.029,0-.044v-2.207c0-.014,0-.03,0-.044a.587.587,0,0,1,.009-.082.981.981,0,0,1,1-.725h41.885a1.141,1.141,0,0,1,.178.014,1.079,1.079,0,0,1,.186.043,1,1,0,0,1,.475.319A.75.75,0,0,1,897.367,1616.313Z" transform="translate(-853.456 -1615.461)" fill="#ffb93e"/>
          <path id="Trazado_114423" data-name="Trazado 114423" d="M876.8,1619.372H854.36a.936.936,0,0,1-.416-.1.858.858,0,0,1-.476-.618c0-.018-.005-.036-.008-.055a.375.375,0,0,1,0-.038c0-.014,0-.029,0-.044v-2.207c0-.014,0-.03,0-.044a.587.587,0,0,1,.009-.082.71.71,0,0,1,.023-.091.9.9,0,0,1,.87-.634h19.684a6.861,6.861,0,0,0,2.618,3.814C876.707,1619.308,876.753,1619.339,876.8,1619.372Z" transform="translate(-853.456 -1615.461)" fill="#ffa412"/>
          <g id="Grupo_80593" data-name="Grupo 80593" transform="translate(15.389 0.001)">
            <rect id="Rectángulo_33867" data-name="Rectángulo 33867" width="0.476" height="3.91" transform="translate(22.95 0)" fill="#ffa412"/>
            <rect id="Rectángulo_33868" data-name="Rectángulo 33868" width="0.476" height="3.91" transform="translate(21.338 0)" fill="#ffa412"/>
            <rect id="Rectángulo_33869" data-name="Rectángulo 33869" width="0.476" height="3.91" transform="translate(19.406 0)" fill="#ffa412"/>
            <rect id="Rectángulo_33870" data-name="Rectángulo 33870" width="0.476" height="3.91" transform="translate(16.444 0)" fill="#ffa412"/>
            <rect id="Rectángulo_33871" data-name="Rectángulo 33871" width="0.476" height="3.91" transform="translate(13.312 0)" fill="#ffa412"/>
            <rect id="Rectángulo_33872" data-name="Rectángulo 33872" width="0.476" height="3.91" transform="translate(8.51 0)" fill="#ffa412"/>
            <rect id="Rectángulo_33873" data-name="Rectángulo 33873" width="0.476" height="3.91" transform="translate(4.014 0)" fill="#ffa412"/>
            <rect id="Rectángulo_33874" data-name="Rectángulo 33874" width="0.476" height="3.91" transform="translate(0 0)" fill="#ffa412"/>
            <rect id="Rectángulo_33875" data-name="Rectángulo 33875" width="0.476" height="3.91" transform="translate(24.483 0)" fill="#ffa412"/>
            <rect id="Rectángulo_33876" data-name="Rectángulo 33876" width="0.476" height="3.91" transform="translate(25.497 0)" fill="#ffa412"/>
            <rect id="Rectángulo_33877" data-name="Rectángulo 33877" width="0.476" height="3.91" transform="translate(26.475 0)" fill="#ffa412"/>
            <path id="Trazado_114424" data-name="Trazado 114424" d="M1148.353,1615.479v3.883a1.178,1.178,0,0,1-.179.014h-.3v-3.91h.3A1.178,1.178,0,0,1,1148.353,1615.479Z" transform="translate(-1120.666 -1615.465)" fill="#ffa412"/>
            <path id="Trazado_114425" data-name="Trazado 114425" d="M1152.925,1616.18v3.158a1.008,1.008,0,0,1-.476.318v-3.8A1.008,1.008,0,0,1,1152.925,1616.18Z" transform="translate(-1124.576 -1615.804)" fill="#ffa412"/>
          </g>
        </g>
        <g id="Grupo_80596" data-name="Grupo 80596" transform="translate(5.587 11.628)">
          <path id="Trazado_114426" data-name="Trazado 114426" d="M921.023,1589.291v2.209a.755.755,0,0,1-.173.474h0c-.014.018-.03.035-.046.052a.963.963,0,0,1-.224.175,1.036,1.036,0,0,1-.133.064,0,0,0,0,0,0,0c-.022.009-.046.018-.071.026a1.047,1.047,0,0,1-.186.043,1.138,1.138,0,0,1-.178.013H878.125a.98.98,0,0,1-1-.724.588.588,0,0,1-.009-.084c0-.014,0-.029,0-.043v-2.209c0-.014,0-.029,0-.043a.933.933,0,0,1,.892-.8.9.9,0,0,1,.119-.007H920.01a1.328,1.328,0,0,1,.178.013,1.18,1.18,0,0,1,.186.045,1.029,1.029,0,0,1,.429.266c.016.017.031.034.046.052h0A.756.756,0,0,1,921.023,1589.291Z" transform="translate(-877.112 -1588.441)" fill="#ffb93e"/>
          <path id="Trazado_114427" data-name="Trazado 114427" d="M900.456,1592.351h-22.44a.9.9,0,0,1-.87-.633.708.708,0,0,1-.023-.091.588.588,0,0,1-.009-.084c0-.014,0-.029,0-.043v-2.209c0-.014,0-.029,0-.043a.878.878,0,0,1,.8-.8.725.725,0,0,1,.107-.007H897.7a.059.059,0,0,1,0,.007A6.851,6.851,0,0,0,900.456,1592.351Z" transform="translate(-877.112 -1588.441)" fill="#ffa412"/>
          <g id="Grupo_80595" data-name="Grupo 80595" transform="translate(15.389)">
            <rect id="Rectángulo_33878" data-name="Rectángulo 33878" width="0.476" height="3.91" transform="translate(22.95 0)" fill="#ffa412"/>
            <rect id="Rectángulo_33879" data-name="Rectángulo 33879" width="0.476" height="3.91" transform="translate(21.338 0)" fill="#ffa412"/>
            <rect id="Rectángulo_33880" data-name="Rectángulo 33880" width="0.476" height="3.91" transform="translate(19.406 0)" fill="#ffa412"/>
            <rect id="Rectángulo_33881" data-name="Rectángulo 33881" width="0.476" height="3.91" transform="translate(16.444 0)" fill="#ffa412"/>
            <rect id="Rectángulo_33882" data-name="Rectángulo 33882" width="0.476" height="3.91" transform="translate(13.312 0)" fill="#ffa412"/>
            <rect id="Rectángulo_33883" data-name="Rectángulo 33883" width="0.476" height="3.91" transform="translate(8.51 0)" fill="#ffa412"/>
            <rect id="Rectángulo_33884" data-name="Rectángulo 33884" width="0.476" height="3.91" transform="translate(4.014 0)" fill="#ffa412"/>
            <rect id="Rectángulo_33885" data-name="Rectángulo 33885" width="0.476" height="3.91" transform="translate(0 0)" fill="#ffa412"/>
            <rect id="Rectángulo_33886" data-name="Rectángulo 33886" width="0.476" height="3.91" transform="translate(24.483 0)" fill="#ffa412"/>
            <rect id="Rectángulo_33887" data-name="Rectángulo 33887" width="0.476" height="3.91" transform="translate(25.497 0)" fill="#ffa412"/>
            <rect id="Rectángulo_33888" data-name="Rectángulo 33888" width="0.476" height="3.91" transform="translate(26.475 0)" fill="#ffa412"/>
            <path id="Trazado_114428" data-name="Trazado 114428" d="M1172.01,1588.454v3.883a1.18,1.18,0,0,1-.179.014h-.3v-3.91h.3A1.2,1.2,0,0,1,1172.01,1588.454Z" transform="translate(-1144.323 -1588.44)" fill="#ffa412"/>
            <path id="Trazado_114429" data-name="Trazado 114429" d="M1176.582,1589.155v3.158a1.007,1.007,0,0,1-.476.319v-3.8A1.008,1.008,0,0,1,1176.582,1589.155Z" transform="translate(-1148.233 -1588.78)" fill="#ffa412"/>
          </g>
        </g>
        <g id="Grupo_80598" data-name="Grupo 80598" transform="translate(0.088 7.724)">
          <path id="Trazado_114430" data-name="Trazado 114430" d="M883.016,1562.309v2.207a.749.749,0,0,1-.173.475,1,1,0,0,1-.476.319,1.073,1.073,0,0,1-.185.043l-.059.008h-.008c-.013,0-.026,0-.039,0H840.119a1.065,1.065,0,0,1-.862-.406.749.749,0,0,1-.15-.4c0-.016,0-.03,0-.044v-2.207c0-.016,0-.03,0-.045a.9.9,0,0,1,.718-.769,1.14,1.14,0,0,1,.294-.038h41.938l.026,0a.826.826,0,0,1,.1.011,1.108,1.108,0,0,1,.185.043.619.619,0,0,1,.086.033h0a.987.987,0,0,1,.293.184.017.017,0,0,1,0,.005l.012.01a.816.816,0,0,1,.08.085A.753.753,0,0,1,883.016,1562.309Z" transform="translate(-839.105 -1561.457)" fill="#ffb93e"/>
          <path id="Trazado_114431" data-name="Trazado 114431" d="M862.449,1565.368H840.01a.92.92,0,0,1-.756-.386.8.8,0,0,1-.148-.421c0-.016,0-.03,0-.044v-2.207c0-.016,0-.03,0-.045a.872.872,0,0,1,.721-.789.927.927,0,0,1,.183-.018h19.683c.008.03.017.06.026.09a6.839,6.839,0,0,0,2.72,3.814Z" transform="translate(-839.105 -1561.457)" fill="#ffa412"/>
          <g id="Grupo_80597" data-name="Grupo 80597" transform="translate(15.389 0)">
            <rect id="Rectángulo_33889" data-name="Rectángulo 33889" width="0.476" height="3.91" transform="translate(22.95 0)" fill="#ffa412"/>
            <rect id="Rectángulo_33890" data-name="Rectángulo 33890" width="0.476" height="3.91" transform="translate(21.338 0)" fill="#ffa412"/>
            <rect id="Rectángulo_33891" data-name="Rectángulo 33891" width="0.476" height="3.91" transform="translate(19.406 0)" fill="#ffa412"/>
            <rect id="Rectángulo_33892" data-name="Rectángulo 33892" width="0.476" height="3.91" transform="translate(16.444 0)" fill="#ffa412"/>
            <rect id="Rectángulo_33893" data-name="Rectángulo 33893" width="0.476" height="3.91" transform="translate(13.312 0)" fill="#ffa412"/>
            <rect id="Rectángulo_33894" data-name="Rectángulo 33894" width="0.476" height="3.91" transform="translate(8.51 0)" fill="#ffa412"/>
            <rect id="Rectángulo_33895" data-name="Rectángulo 33895" width="0.476" height="3.91" transform="translate(4.014 0)" fill="#ffa412"/>
            <rect id="Rectángulo_33896" data-name="Rectángulo 33896" width="0.476" height="3.91" transform="translate(0 0)" fill="#ffa412"/>
            <rect id="Rectángulo_33897" data-name="Rectángulo 33897" width="0.476" height="3.91" transform="translate(24.483 0)" fill="#ffa412"/>
            <rect id="Rectángulo_33898" data-name="Rectángulo 33898" width="0.476" height="3.91" transform="translate(25.497 0)" fill="#ffa412"/>
            <rect id="Rectángulo_33899" data-name="Rectángulo 33899" width="0.476" height="3.91" transform="translate(26.475 0)" fill="#ffa412"/>
            <path id="Trazado_114432" data-name="Trazado 114432" d="M1134,1561.472v3.883a1.211,1.211,0,0,1-.179.013h-.3v-3.91h.3A1.178,1.178,0,0,1,1134,1561.472Z" transform="translate(-1106.317 -1561.458)" fill="#ffa412"/>
            <path id="Trazado_114433" data-name="Trazado 114433" d="M1138.577,1562.174v3.158a1.012,1.012,0,0,1-.476.319v-3.8A1.011,1.011,0,0,1,1138.577,1562.174Z" transform="translate(-1110.228 -1561.798)" fill="#ffa412"/>
          </g>
        </g>
        <g id="Grupo_80600" data-name="Grupo 80600" transform="translate(3.167 3.904)">
          <path id="Trazado_114434" data-name="Trazado 114434" d="M904.3,1535.91v2.208a.752.752,0,0,1-.174.475,1.007,1.007,0,0,1-.476.318,1.076,1.076,0,0,1-.185.044,1.164,1.164,0,0,1-.179.014H861.4a1.154,1.154,0,0,1-.453-.09.871.871,0,0,1-.557-.682c0-.011,0-.023,0-.035s0-.029,0-.044v-2.208c0-.015,0-.029,0-.044a.934.934,0,0,1,.892-.8,1.076,1.076,0,0,1,.12-.006h41.884a1.164,1.164,0,0,1,.179.013,1.1,1.1,0,0,1,.185.044,1.009,1.009,0,0,1,.476.319A.752.752,0,0,1,904.3,1535.91Z" transform="translate(-860.388 -1535.059)" fill="#ffb93e"/>
          <path id="Trazado_114435" data-name="Trazado 114435" d="M883.732,1538.969H861.293a.935.935,0,0,1-.4-.09.856.856,0,0,1-.5-.682c0-.011,0-.023,0-.035s0-.029,0-.044v-2.208c0-.015,0-.029,0-.044a.878.878,0,0,1,.8-.8.856.856,0,0,1,.107-.006h19.683l0,.006a6.858,6.858,0,0,0,2.625,3.813C883.645,1538.909,883.688,1538.939,883.732,1538.969Z" transform="translate(-860.388 -1535.059)" fill="#ffa412"/>
          <g id="Grupo_80599" data-name="Grupo 80599" transform="translate(15.389)">
            <rect id="Rectángulo_33900" data-name="Rectángulo 33900" width="0.476" height="3.91" transform="translate(22.95 0)" fill="#ffa412"/>
            <rect id="Rectángulo_33901" data-name="Rectángulo 33901" width="0.476" height="3.91" transform="translate(21.338 0)" fill="#ffa412"/>
            <rect id="Rectángulo_33902" data-name="Rectángulo 33902" width="0.476" height="3.91" transform="translate(19.406 0)" fill="#ffa412"/>
            <rect id="Rectángulo_33903" data-name="Rectángulo 33903" width="0.476" height="3.91" transform="translate(16.444 0)" fill="#ffa412"/>
            <rect id="Rectángulo_33904" data-name="Rectángulo 33904" width="0.476" height="3.91" transform="translate(13.312 0)" fill="#ffa412"/>
            <rect id="Rectángulo_33905" data-name="Rectángulo 33905" width="0.476" height="3.91" transform="translate(8.51 0)" fill="#ffa412"/>
            <rect id="Rectángulo_33906" data-name="Rectángulo 33906" width="0.476" height="3.91" transform="translate(4.014 0)" fill="#ffa412"/>
            <rect id="Rectángulo_33907" data-name="Rectángulo 33907" width="0.476" height="3.91" transform="translate(0 0)" fill="#ffa412"/>
            <rect id="Rectángulo_33908" data-name="Rectángulo 33908" width="0.476" height="3.91" transform="translate(24.483 0)" fill="#ffa412"/>
            <rect id="Rectángulo_33909" data-name="Rectángulo 33909" width="0.476" height="3.91" transform="translate(25.497 0)" fill="#ffa412"/>
            <rect id="Rectángulo_33910" data-name="Rectángulo 33910" width="0.476" height="3.91" transform="translate(26.475 0)" fill="#ffa412"/>
            <path id="Trazado_114436" data-name="Trazado 114436" d="M1155.286,1535.072v3.883a1.164,1.164,0,0,1-.179.014h-.3v-3.91h.3A1.164,1.164,0,0,1,1155.286,1535.072Z" transform="translate(-1127.599 -1535.058)" fill="#ffa412"/>
            <path id="Trazado_114437" data-name="Trazado 114437" d="M1159.859,1535.772v3.159a1.008,1.008,0,0,1-.476.318v-3.8A1.009,1.009,0,0,1,1159.859,1535.772Z" transform="translate(-1131.51 -1535.397)" fill="#ffa412"/>
          </g>
        </g>
        <g id="Grupo_80602" data-name="Grupo 80602" transform="translate(4.478)">
          <path id="Trazado_114438" data-name="Trazado 114438" d="M913.358,1508.927v2.208a.753.753,0,0,1-.174.475,1.009,1.009,0,0,1-.476.318,1.082,1.082,0,0,1-.185.044l-.059.008-.033,0-.033,0H870.46a.957.957,0,0,1-1.012-.807c0-.015,0-.029,0-.044v-2.208c0-.015,0-.029,0-.044a.957.957,0,0,1,1.012-.807h41.885a1.162,1.162,0,0,1,.179.014,1.071,1.071,0,0,1,.185.044,1.009,1.009,0,0,1,.476.318A.752.752,0,0,1,913.358,1508.927Z" transform="translate(-869.447 -1508.076)" fill="#ffb93e"/>
          <path id="Trazado_114439" data-name="Trazado 114439" d="M892.791,1511.986H870.352a.886.886,0,0,1-.9-.807c0-.015,0-.029,0-.044v-2.208c0-.015,0-.029,0-.044a.886.886,0,0,1,.9-.807h19.683a6.854,6.854,0,0,0,2.747,3.9Z" transform="translate(-869.447 -1508.076)" fill="#ffa412"/>
          <g id="Grupo_80601" data-name="Grupo 80601" transform="translate(15.389)">
            <rect id="Rectángulo_33911" data-name="Rectángulo 33911" width="0.476" height="3.91" transform="translate(22.95 0)" fill="#ffa412"/>
            <rect id="Rectángulo_33912" data-name="Rectángulo 33912" width="0.476" height="3.91" transform="translate(21.338 0)" fill="#ffa412"/>
            <rect id="Rectángulo_33913" data-name="Rectángulo 33913" width="0.476" height="3.91" transform="translate(19.406 0)" fill="#ffa412"/>
            <rect id="Rectángulo_33914" data-name="Rectángulo 33914" width="0.476" height="3.91" transform="translate(16.444 0)" fill="#ffa412"/>
            <rect id="Rectángulo_33915" data-name="Rectángulo 33915" width="0.476" height="3.91" transform="translate(13.312 0)" fill="#ffa412"/>
            <rect id="Rectángulo_33916" data-name="Rectángulo 33916" width="0.476" height="3.91" transform="translate(8.51 0)" fill="#ffa412"/>
            <rect id="Rectángulo_33917" data-name="Rectángulo 33917" width="0.476" height="3.91" transform="translate(4.014 0)" fill="#ffa412"/>
            <rect id="Rectángulo_33918" data-name="Rectángulo 33918" width="0.476" height="3.91" transform="translate(0 0)" fill="#ffa412"/>
            <rect id="Rectángulo_33919" data-name="Rectángulo 33919" width="0.476" height="3.91" transform="translate(24.483 0)" fill="#ffa412"/>
            <rect id="Rectángulo_33920" data-name="Rectángulo 33920" width="0.476" height="3.91" transform="translate(25.497 0)" fill="#ffa412"/>
            <rect id="Rectángulo_33921" data-name="Rectángulo 33921" width="0.476" height="3.91" transform="translate(26.475 0)" fill="#ffa412"/>
            <path id="Trazado_114440" data-name="Trazado 114440" d="M1164.347,1508.09v3.883a1.176,1.176,0,0,1-.179.014h-.3v-3.91h.3A1.161,1.161,0,0,1,1164.347,1508.09Z" transform="translate(-1136.66 -1508.076)" fill="#ffa412"/>
            <path id="Trazado_114441" data-name="Trazado 114441" d="M1168.919,1508.792v3.158a1.009,1.009,0,0,1-.476.318v-3.8A1.008,1.008,0,0,1,1168.919,1508.792Z" transform="translate(-1140.57 -1508.416)" fill="#ffa412"/>
          </g>
        </g>
      </g>
      <g id="Grupo_80606" data-name="Grupo 80606" transform="translate(0 0)">
        <path id="Trazado_114442" data-name="Trazado 114442" d="M857.845,1547.832c0,.01,0,.02,0,.029a18.74,18.74,0,0,1-.628,3.875.063.063,0,0,0,0,.007c-.05.183-.1.366-.158.548a19.162,19.162,0,0,1-1.38,3.356,19.454,19.454,0,0,1-2.631,3.813c-.027.032-.056.065-.085.1a20.179,20.179,0,0,1-4.6,3.814q-.557.339-1.143.648c-.264.138-.53.27-.8.4-.255.148-.525.275-.778.43a10.885,10.885,0,0,1-2.661,1.1v-1.719c0-.014,0-.029,0-.043s.005-.056.009-.084a.715.715,0,0,1,.024-.094.9.9,0,0,1,.871-.63H839.4a.9.9,0,0,1-.87-.631.741.741,0,0,1-.024-.094c0-.027-.008-.055-.009-.083s0-.029,0-.044v-2.207c0-.014,0-.03,0-.044s.005-.055.009-.083a.748.748,0,0,1,.024-.093.9.9,0,0,1,.87-.631h1.748a.858.858,0,0,1-.476-.618c0-.018-.005-.037-.008-.055a.348.348,0,0,1,0-.038c0-.014,0-.029,0-.043V1556.5c0-.015,0-.029,0-.043a.569.569,0,0,1,.009-.083.712.712,0,0,1,.023-.091.9.9,0,0,1,.87-.634h1a.9.9,0,0,1-.87-.631.705.705,0,0,1-.024-.094c0-.027-.008-.055-.009-.082v-2.3a.88.88,0,0,1,.8-.8h-2.971a.886.886,0,0,1-.9-.807c0-.014,0-.029,0-.045v-2.207c0-.014,0-.03,0-.045a.338.338,0,0,1,0-.035.872.872,0,0,1,.7-.75.885.885,0,0,1-.785-.728.71.71,0,0,1-.008-.073c0-.016,0-.03,0-.044V1544.8c0-.016,0-.03,0-.045s.005-.055.009-.082a.737.737,0,0,1,.024-.093.9.9,0,0,1,.87-.632h1.748a.858.858,0,0,1-.476-.617c0-.019-.005-.037-.008-.055a.375.375,0,0,1,0-.038c0-.014,0-.029,0-.044v-2.207c0-.015,0-.03,0-.044a.588.588,0,0,1,.009-.083.708.708,0,0,1,.023-.091.9.9,0,0,1,.87-.634h3.423a.9.9,0,0,1-.87-.633.708.708,0,0,1-.023-.091.59.59,0,0,1-.009-.084c0-.014,0-.029,0-.043v-2.209c0-.014,0-.029,0-.043a.878.878,0,0,1,.8-.8h-5.391a.92.92,0,0,1-.756-.386l0-.02.568-3.467,0-.02.809-4.947a21.582,21.582,0,0,1,2.775.559l.16.043.01,0q.8.222,1.569.5l.014.005a20.736,20.736,0,0,1,6.5,3.814c.034.029.068.059.1.09a19.594,19.594,0,0,1,2.727,2.937q.245.322.475.656c.051.073.1.147.151.221a.007.007,0,0,1,0,.007q.371.547.7,1.124a19.252,19.252,0,0,1,1.325,2.779,18.571,18.571,0,0,1,1.015,3.814c.007.033.011.064.016.1A18.67,18.67,0,0,1,857.845,1547.832Z" transform="translate(-810.443 -1523.642)" fill="#e2810e" opacity="0.5"/>
        <circle id="Elipse_4748" data-name="Elipse 4748" cx="20.602" cy="20.602" r="20.602" transform="translate(0.008 3.271) rotate(-4.553)" fill="#e2810e"/>
        <path id="Trazado_114443" data-name="Trazado 114443" d="M675.92,1556.488q-.381.232-.774.449-.133.074-.266.144c-.2.109-.406.212-.611.314a20.6,20.6,0,0,1-19.014-36.542q.4-.218.8-.417t.785-.37a20.564,20.564,0,0,1,6.184-1.662,20.605,20.605,0,0,1,12.9,38.085Z" transform="translate(-644.594 -1515.855)" fill="#ffb93e"/>
        <g id="Grupo_80604" data-name="Grupo 80604" transform="translate(2.255 4.796)">
          <path id="Trazado_114444" data-name="Trazado 114444" d="M678.676,1571.54a18.536,18.536,0,0,1-5.156-.736,18.345,18.345,0,1,1,5.156.736Zm-.057-36.427a17.96,17.96,0,1,0,15.76,9.288A17.851,17.851,0,0,0,678.62,1535.113Z" transform="translate(-660.182 -1534.615)" fill="#ffa412"/>
        </g>
        <g id="Grupo_80605" data-name="Grupo 80605" transform="translate(12.073 9.706)">
          <path id="Trazado_114445" data-name="Trazado 114445" d="M745.762,1583.885c-.041-.1-.084-.2-.128-.3a5.4,5.4,0,0,0-1.25-1.785,5.577,5.577,0,0,0-1.967-1.157,9.406,9.406,0,0,0-2.5-.469q-1.38-.085-3-.039a14.562,14.562,0,0,1-1.714-.034,4.305,4.305,0,0,1-1.206-.264,2.112,2.112,0,0,1-.805-.546,2.867,2.867,0,0,1-.512-.844,3.127,3.127,0,0,1-.233-.99,2.123,2.123,0,0,1,.146-.931,2.274,2.274,0,0,1,.575-.814,3.354,3.354,0,0,1,1.051-.64,2.652,2.652,0,0,1,2.25.021,3.819,3.819,0,0,1,1.7,2.13l4.2-1.7a7.844,7.844,0,0,0-1.374-2.279,5.885,5.885,0,0,0-4.114-2.03,7.775,7.775,0,0,0-2.533.259l-1.189-2.927-2.323.943,1.172,2.887a8.705,8.705,0,0,0-2.133,1.518,6.512,6.512,0,0,0-1.344,1.874,5.222,5.222,0,0,0-.494,2.118,6.2,6.2,0,0,0,1.826,4.35,5.5,5.5,0,0,0,1.964,1.151,9.3,9.3,0,0,0,2.5.453,29.6,29.6,0,0,0,3.009,0,11.159,11.159,0,0,1,1.637.011,4.265,4.265,0,0,1,1.2.266,2.268,2.268,0,0,1,.84.57,3.091,3.091,0,0,1,.565.933,2.587,2.587,0,0,1,.2,1,2.121,2.121,0,0,1-.224.948,2.679,2.679,0,0,1-.667.837,4.036,4.036,0,0,1-1.127.662,4.864,4.864,0,0,1-1.232.32,2.814,2.814,0,0,1-1.243-.124,2.891,2.891,0,0,1-1.135-.733,4.458,4.458,0,0,1-.918-1.489l-4.2,1.7a7.246,7.246,0,0,0,1.651,2.566,5.953,5.953,0,0,0,2.174,1.356,6.651,6.651,0,0,0,2.47.356,10.484,10.484,0,0,0,2.545-.42l1.084,2.671,2.309-.937-1.09-2.684a9.372,9.372,0,0,0,2.155-1.5,6.353,6.353,0,0,0,1.3-1.7c.025-.049.05-.1.073-.148a5.161,5.161,0,0,0,.506-2.107A5.669,5.669,0,0,0,745.762,1583.885Z" transform="translate(-728.033 -1568.545)" fill="#ffa412"/>
        </g>
      </g>
    </g>
    <g id="Grupo_80615" data-name="Grupo 80615" transform="translate(328.123 242.288)">
      <rect id="Rectángulo_33922" data-name="Rectángulo 33922" width="72.021" height="1.041" transform="translate(2.315 58.625)" fill="#ccd8ff"/>
      <rect id="Rectángulo_33923" data-name="Rectángulo 33923" width="73.498" height="1.041" transform="translate(1.577 59.666)" fill="#a9baff"/>
      <rect id="Rectángulo_33924" data-name="Rectángulo 33924" width="75.524" height="1.041" transform="translate(0.564 60.707)" fill="#8c9df4"/>
      <g id="Grupo_80614" data-name="Grupo 80614" transform="translate(0)">
        <rect id="Rectángulo_33925" data-name="Rectángulo 33925" width="67.356" height="39.793" transform="translate(3.995 18.833)" fill="#8c9df4"/>
        <path id="Trazado_114446" data-name="Trazado 114446" d="M643.489,770.988H567.565L606.218,751.4Z" transform="translate(-567.565 -751.397)" fill="#ccd8ff"/>
        <path id="Trazado_114447" data-name="Trazado 114447" d="M647.213,788.843l52.875-.111-25.773-13.4Z" transform="translate(-635.689 -771.867)" fill="#6f84dd"/>
        <rect id="Rectángulo_33926" data-name="Rectángulo 33926" width="72.33" height="1.677" transform="translate(1.981 19.592)" fill="#8c9df4"/>
        <g id="Grupo_80608" data-name="Grupo 80608" transform="translate(7.352 18.833)">
          <rect id="Rectángulo_33927" data-name="Rectángulo 33927" width="7.125" height="2.571" fill="#ccd8ff"/>
          <rect id="Rectángulo_33928" data-name="Rectángulo 33928" width="3.927" height="37.222" transform="translate(1.599 2.571)" fill="#ccd8ff"/>
        </g>
        <g id="Grupo_80609" data-name="Grupo 80609" transform="translate(22.747 18.833)">
          <rect id="Rectángulo_33929" data-name="Rectángulo 33929" width="7.125" height="2.571" fill="#ccd8ff"/>
          <rect id="Rectángulo_33930" data-name="Rectángulo 33930" width="3.927" height="37.222" transform="translate(1.599 2.571)" fill="#ccd8ff"/>
        </g>
        <g id="Grupo_80610" data-name="Grupo 80610" transform="translate(46.947 18.833)">
          <rect id="Rectángulo_33931" data-name="Rectángulo 33931" width="7.125" height="2.571" fill="#ccd8ff"/>
          <rect id="Rectángulo_33932" data-name="Rectángulo 33932" width="3.927" height="37.222" transform="translate(1.599 2.571)" fill="#ccd8ff"/>
        </g>
        <g id="Grupo_80611" data-name="Grupo 80611" transform="translate(61.444 18.833)">
          <rect id="Rectángulo_33933" data-name="Rectángulo 33933" width="7.125" height="2.571" fill="#ccd8ff"/>
          <rect id="Rectángulo_33934" data-name="Rectángulo 33934" width="3.927" height="37.222" transform="translate(1.599 2.571)" fill="#ccd8ff"/>
        </g>
        <g id="Grupo_80612" data-name="Grupo 80612" transform="translate(36.279 6.372)">
          <path id="Trazado_114448" data-name="Trazado 114448" d="M821.506,801.025a.909.909,0,0,0-.046-.317.665.665,0,0,0-.162-.25,1.254,1.254,0,0,0-.294-.21,3.309,3.309,0,0,0-.442-.19,8.681,8.681,0,0,1-.814-.343,2.748,2.748,0,0,1-.625-.409,1.613,1.613,0,0,1-.4-.536,1.821,1.821,0,0,1,0-1.385,1.532,1.532,0,0,1,.376-.516,1.914,1.914,0,0,1,.578-.353,2.551,2.551,0,0,1,.75-.167l.013-.915.736.011-.013.928a2.286,2.286,0,0,1,.715.22,1.729,1.729,0,0,1,.881,1.02,2.3,2.3,0,0,1,.111.773l-1.33-.019a1.121,1.121,0,0,0-.217-.771.779.779,0,0,0-.606-.263.989.989,0,0,0-.357.053.67.67,0,0,0-.249.155.626.626,0,0,0-.146.235.922.922,0,0,0-.05.294.84.84,0,0,0,.042.287.623.623,0,0,0,.155.24,1.255,1.255,0,0,0,.3.209,4.235,4.235,0,0,0,.46.206q.444.173.807.354a2.772,2.772,0,0,1,.622.413,1.559,1.559,0,0,1,.534,1.258,1.665,1.665,0,0,1-.141.674,1.515,1.515,0,0,1-.378.512,1.847,1.847,0,0,1-.583.342,2.758,2.758,0,0,1-.755.16l-.012.851-.732-.011.012-.846a3.089,3.089,0,0,1-.736-.177,1.955,1.955,0,0,1-.627-.379,1.755,1.755,0,0,1-.433-.616,2.136,2.136,0,0,1-.153-.883l1.33.019a1.315,1.315,0,0,0,.078.508.851.851,0,0,0,.223.328.827.827,0,0,0,.322.176,1.408,1.408,0,0,0,.37.054,1.179,1.179,0,0,0,.38-.05.79.79,0,0,0,.276-.15.63.63,0,0,0,.169-.231A.763.763,0,0,0,821.506,801.025Z" transform="translate(-818.298 -795.434)" fill="#ccd8ff"/>
        </g>
        <g id="Grupo_80613" data-name="Grupo 80613" transform="translate(16.305 28.317)">
          <path id="Rectángulo_33935" data-name="Rectángulo 33935" d="M5.033,0h0A4.742,4.742,0,0,1,9.775,4.742V15.265a0,0,0,0,1,0,0H0a0,0,0,0,1,0,0V5.033A5.033,5.033,0,0,1,5.033,0Z" transform="translate(16.463 15.043)" fill="#6f84dd"/>
          <path id="Rectángulo_33936" data-name="Rectángulo 33936" d="M2.376,0h0A2.239,2.239,0,0,1,4.615,2.239V7.206a0,0,0,0,1,0,0H0a0,0,0,0,1,0,0V2.376A2.376,2.376,0,0,1,2.376,0Z" transform="translate(13.514)" fill="#6f84dd"/>
          <path id="Rectángulo_33937" data-name="Rectángulo 33937" d="M2.376,0h0A2.239,2.239,0,0,1,4.614,2.239V7.206a0,0,0,0,1,0,0H0a0,0,0,0,1,0,0V2.376A2.376,2.376,0,0,1,2.376,0Z" fill="#6f84dd"/>
          <path id="Rectángulo_33938" data-name="Rectángulo 33938" d="M2.376,0h0A2.239,2.239,0,0,1,4.614,2.239V7.206a0,0,0,0,1,0,0H0a0,0,0,0,1,0,0V2.376A2.376,2.376,0,0,1,2.376,0Z" transform="translate(0 15.47)" fill="#6f84dd"/>
          <path id="Rectángulo_33939" data-name="Rectángulo 33939" d="M2.376,0h0A2.239,2.239,0,0,1,4.615,2.239V7.206a0,0,0,0,1,0,0H0a0,0,0,0,1,0,0V2.376A2.376,2.376,0,0,1,2.376,0Z" transform="translate(39.146)" fill="#6f84dd"/>
          <path id="Rectángulo_33940" data-name="Rectángulo 33940" d="M2.376,0h0A2.239,2.239,0,0,1,4.615,2.239V7.206a0,0,0,0,1,0,0H0a0,0,0,0,1,0,0V2.376A2.376,2.376,0,0,1,2.376,0Z" transform="translate(39.146 15.47)" fill="#6f84dd"/>
          <path id="Rectángulo_33941" data-name="Rectángulo 33941" d="M2.376,0h0A2.239,2.239,0,0,1,4.615,2.239V7.206a0,0,0,0,1,0,0H0a0,0,0,0,1,0,0V2.376A2.376,2.376,0,0,1,2.376,0Z" transform="translate(25.182)" fill="#6f84dd"/>
        </g>
      </g>
    </g>
    <rect id="Rectángulo_33942" data-name="Rectángulo 33942" width="323.424" height="1.399" rx="0.699" transform="translate(308.115 394.463)" fill="#233862"/>
  </g>
</svg>
