<svg xmlns="http://www.w3.org/2000/svg" xmlns:xlink="http://www.w3.org/1999/xlink" width="1240" height="577" viewBox="0 0 1240 577">
  <defs>
    <clipPath id="clip-path">
      <rect id="Rectángulo_34412" data-name="Rectángulo 34412" width="55" height="55" transform="translate(285 2044.334)" fill="#fff" stroke="#707070" stroke-width="1"/>
    </clipPath>
    <clipPath id="clip-path-2">
      <rect id="Rectángulo_34413" data-name="Rectángulo 34413" width="55" height="55" transform="translate(810 2044.333)" fill="#fff" stroke="#707070" stroke-width="1"/>
    </clipPath>
  </defs>
  <g id="Grupo_93985" data-name="Grupo 93985" transform="translate(-180 -2259)">
    <g id="Grupo_81363" data-name="Grupo 81363">
      <rect id="Rectángulo_34419" data-name="Rectángulo 34419" width="1240" height="577" transform="translate(180 2259)" fill="#f3f9ff"/>
      <g id="Grupo_81361" data-name="Grupo 81361" transform="translate(0 60)">
        <rect id="Rectángulo_34409" data-name="Rectángulo 34409" width="210" height="64" rx="20" transform="translate(285 2455)" fill="#fdab64"/>
        <rect id="Rectángulo_34410" data-name="Rectángulo 34410" width="335" height="64" rx="30" transform="translate(560 2311)" fill="#85d161"/>
        <rect id="Rectángulo_34415" data-name="Rectángulo 34415" width="355" height="105" rx="30" transform="translate(960 2361)" fill="#c2e8b0"/>
        <rect id="Rectángulo_34418" data-name="Rectángulo 34418" width="355" height="105" rx="30" transform="translate(960 2649)" fill="#feefbf"/>
        <rect id="Rectángulo_34416" data-name="Rectángulo 34416" width="355" height="105" rx="30" transform="translate(960 2221)" fill="#c2e8b0"/>
        <rect id="Rectángulo_34417" data-name="Rectángulo 34417" width="355" height="105" rx="30" transform="translate(960 2509)" fill="#feefbf"/>
        <rect id="Rectángulo_34411" data-name="Rectángulo 34411" width="335" height="64" rx="30" transform="translate(560 2599)" fill="#fde07e"/>
        <text id="Tipo_de_consumidor" data-name="Tipo de consumidor" transform="translate(315 2493)" fill="#12263f" font-size="18" font-family="Roboto-Black, Roboto" font-weight="800"><tspan x="0" y="0">Tipo de consumidor</tspan></text>
        <text id="Consumidor_actual" data-name="Consumidor actual" transform="translate(685 2350)" fill="#12263f" font-size="18" font-family="Roboto-Black, Roboto" font-weight="800"><tspan x="0" y="0">Consumidor actual</tspan></text>
        <text id="Consumidor_potencial" data-name="Consumidor potencial" transform="translate(685 2638)" fill="#12263f" font-size="18" font-family="Roboto-Black, Roboto" font-weight="800"><tspan x="0" y="0">Consumidor potencial</tspan></text>
        <path id="Trazado_117084" data-name="Trazado 117084" d="M-88-9338h-25.333v288H-88" transform="translate(648 11681)" fill="none" stroke="#fc8116" stroke-width="3"/>
        <path id="Trazado_117117" data-name="Trazado 117117" d="M-88-9338h-25.333v140H-88" transform="translate(1048 11611)" fill="none" stroke="#fc8116" stroke-width="3"/>
        <path id="Trazado_117118" data-name="Trazado 117118" d="M-88-9338h-25.333v140H-88" transform="translate(1048 11899)" fill="none" stroke="#fc8116" stroke-width="3"/>
        <line id="Línea_158" data-name="Línea 158" x2="40" transform="translate(495 2487)" fill="none" stroke="#fc8116" stroke-width="3"/>
        <line id="Línea_159" data-name="Línea 159" x2="40" transform="translate(895 2343)" fill="none" stroke="#fc8116" stroke-width="3"/>
        <line id="Línea_160" data-name="Línea 160" x2="40" transform="translate(895 2631)" fill="none" stroke="#fc8116" stroke-width="3"/>
        <g id="Enmascarar_grupo_99" data-name="Enmascarar grupo 99" transform="translate(315 271.666)" clip-path="url(#clip-path)">
          <g id="la-satisfaccion-del-cliente" transform="translate(285 2044)">
            <g id="Grupo_81358" data-name="Grupo 81358" transform="translate(0.892 8.032)">
              <g id="Grupo_81347" data-name="Grupo 81347" transform="translate(0 18.34)">
                <g id="Grupo_81345" data-name="Grupo 81345" transform="translate(33.271 0)">
                  <path id="Trazado_117085" data-name="Trazado 117085" d="M72.085,56.136A26.832,26.832,0,0,0,58.171,41.883L54.7,45.167l-.848.794a21.435,21.435,0,0,1,7.657,4.346,4.922,4.922,0,0,1,2.8-.884,4.14,4.14,0,0,1-.991,2.686,21.437,21.437,0,0,1,5.453,14.271h5.355a26.5,26.5,0,0,0-2.044-10.246Z" transform="translate(-53.852 -41.883)" fill="#fcd770"/>
                </g>
                <g id="Grupo_81346" data-name="Grupo 81346" transform="translate(0 0)">
                  <path id="Trazado_117086" data-name="Trazado 117086" d="M18.7,41.883A26.832,26.832,0,0,0,4.786,56.136,26.5,26.5,0,0,0,2.742,66.381H8.1a21.4,21.4,0,0,1,1.624-8.193H9.73a21.118,21.118,0,0,1,4.641-6.952,21.358,21.358,0,0,1,8.648-5.275l-.848-.794Z" transform="translate(-2.742 -41.883)" fill="#fcd770"/>
                </g>
              </g>
              <g id="Grupo_81348" data-name="Grupo 81348" transform="translate(31.727 28.568)">
                <path id="Trazado_117087" data-name="Trazado 117087" d="M67.946,71.865H51.578a5.4,5.4,0,0,0-.1-3.829L62.19,57.916a3.411,3.411,0,0,0,.3-.321,21.437,21.437,0,0,1,5.453,14.271Z" transform="translate(-51.48 -57.594)" fill="#ffeaa7"/>
              </g>
              <g id="Grupo_81349" data-name="Grupo 81349" transform="translate(5.355 22.419)">
                <path id="Trazado_117088" data-name="Trazado 117088" d="M46.542,52.495q-.174.12-.348.268l-11.138,9.38a5.3,5.3,0,0,0-2.668-.714,5.362,5.362,0,0,0-5.051,7.14H10.968a21.4,21.4,0,0,1,1.624-8.193H12.6a21.118,21.118,0,0,1,4.641-6.952,21.358,21.358,0,0,1,8.648-5.275l6.5,6.14,6.5-6.14A21.435,21.435,0,0,1,46.542,52.495Z" transform="translate(-10.968 -48.148)" fill="#ffeaa7"/>
              </g>
              <g id="Grupo_81350" data-name="Grupo 81350" transform="translate(21.419 35.699)">
                <path id="Trazado_117089" data-name="Trazado 117089" d="M45.953,71.859A5.357,5.357,0,1,1,41,68.548a5.3,5.3,0,0,1,2.668.714,5.4,5.4,0,0,1,2.285,2.6ZM42.785,73.9A1.785,1.785,0,1,0,41,75.688,1.79,1.79,0,0,0,42.785,73.9Z" transform="translate(-35.645 -68.548)" fill="#ff826e"/>
              </g>
              <g id="Grupo_81351" data-name="Grupo 81351" transform="translate(29.443 25.882)">
                <path id="Trazado_117090" data-name="Trazado 117090" d="M62.259,53.468a4.14,4.14,0,0,1-.991,2.686,3.411,3.411,0,0,1-.3.321L50.255,66.6A5.4,5.4,0,0,0,47.97,64l11.138-9.38q.174-.147.348-.268a4.921,4.921,0,0,1,2.8-.884Z" transform="translate(-47.97 -53.468)" fill="#e6e9ed"/>
              </g>
              <g id="Grupo_81352" data-name="Grupo 81352" transform="translate(26.837 0)">
                <path id="Trazado_117091" data-name="Trazado 117091" d="M59.969,23.027a9.459,9.459,0,0,1-2.954,6.863l-2.294,2.16L51.25,35.334l-.027-.027a5.487,5.487,0,0,0-2.544-1.437l-2.1-.527-.509-2.017v-.009a3.566,3.566,0,0,0,2.178-2.445l.027.009.634-.607A6.817,6.817,0,0,0,51.044,23.3v-.669a5.348,5.348,0,0,0-1.071-3.213,5.211,5.211,0,0,0-1.892-1.58,5.357,5.357,0,0,0-2.392-.562H43.967V17.19a8.764,8.764,0,0,1,3.079-2.561,8.679,8.679,0,0,1,8.943.705l.027.018a9.4,9.4,0,0,1,3.954,7.675Z" transform="translate(-43.967 -13.71)" fill="#ff826e"/>
              </g>
              <g id="Grupo_81353" data-name="Grupo 81353" transform="translate(19.429 19.634)">
                <path id="Trazado_117092" data-name="Trazado 117092" d="M47.278,45.861l-.848.794-6.5,6.14-6.5-6.14-.848-.794.027-.027A5.487,5.487,0,0,1,35.158,44.4l2.1-.527,2.677,2.677,2.677-2.677,2.1.527a5.487,5.487,0,0,1,2.544,1.437Z" transform="translate(-32.588 -43.871)" fill="#b4dd7f"/>
              </g>
              <g id="Grupo_81354" data-name="Grupo 81354" transform="translate(19.634 3.57)">
                <path id="Trazado_117093" data-name="Trazado 117093" d="M47.183,24.548v.669a6.817,6.817,0,0,1-2.133,4.971l-.634.607-.027-.009a3.245,3.245,0,0,0,.116-.884V26.976a.9.9,0,0,0-.607-.848l-.178-.054a27.52,27.52,0,0,1-3.677-1.526,27.519,27.519,0,0,1-3.677,1.526l-.178.054a.9.9,0,0,0-.607.848V29.9a3.245,3.245,0,0,0,.116.884l-.027.009-.634-.607A6.817,6.817,0,0,1,32.9,25.218v-.669a5.355,5.355,0,0,1,5.355-5.355h3.57a5.357,5.357,0,0,1,2.392.562,5.211,5.211,0,0,1,1.892,1.58A5.348,5.348,0,0,1,47.183,24.548Z" transform="translate(-32.903 -19.194)" fill="#656d78"/>
              </g>
              <g id="Grupo_81355" data-name="Grupo 81355" transform="translate(22.312 8.925)">
                <path id="Trazado_117094" data-name="Trazado 117094" d="M45.941,29.847v2.927a3.245,3.245,0,0,1-.116.884A3.566,3.566,0,0,1,43.647,36.1a3.382,3.382,0,0,1-1.276.241H40.586A3.382,3.382,0,0,1,39.31,36.1a3.566,3.566,0,0,1-2.178-2.445,3.245,3.245,0,0,1-.116-.884V29.847A.9.9,0,0,1,37.623,29l.178-.054a27.52,27.52,0,0,0,3.677-1.526,27.519,27.519,0,0,0,3.677,1.526l.178.054A.9.9,0,0,1,45.941,29.847Z" transform="translate(-37.016 -27.419)" fill="#f0d0b4"/>
              </g>
              <g id="Grupo_81356" data-name="Grupo 81356" transform="translate(24.097 17.608)">
                <path id="Trazado_117095" data-name="Trazado 117095" d="M44.6,40.768l.509,2.017-2.677,2.677-2.677-2.677.509-2.017v-.009A3.382,3.382,0,0,0,41.543,41h1.785a3.382,3.382,0,0,0,1.276-.241Z" transform="translate(-39.758 -40.759)" fill="#f0d0b4"/>
              </g>
              <g id="Grupo_81357" data-name="Grupo 81357" transform="translate(10.71)">
                <path id="Trazado_117096" data-name="Trazado 117096" d="M35.2,17.19v.089H33.473a5.355,5.355,0,0,0-5.355,5.355V23.3a6.817,6.817,0,0,0,2.133,4.971l.634.607.027-.009a3.566,3.566,0,0,0,2.178,2.445v.009l-.509,2.017-2.1.527a5.487,5.487,0,0,0-2.544,1.437l-.027.027L24.441,32.05l-2.294-2.16a9.6,9.6,0,0,1-2.187-3.124,9.446,9.446,0,0,1,3.186-11.415l.027-.018a8.627,8.627,0,0,1,5.051-1.624A8.716,8.716,0,0,1,35.2,17.19Z" transform="translate(-19.194 -13.71)" fill="#ff826e"/>
              </g>
            </g>
            <g id="Grupo_81359" data-name="Grupo 81359" transform="translate(0 0)">
              <path id="Trazado_117097" data-name="Trazado 117097" d="M42.435,72.661a2.677,2.677,0,1,0,2.677,2.677A2.681,2.681,0,0,0,42.435,72.661Zm0,3.57a.892.892,0,1,1,.892-.892A.893.893,0,0,1,42.435,76.231Z" transform="translate(-14.769 -26.253)"/>
              <path id="Trazado_117098" data-name="Trazado 117098" d="M56.7,56.07a27.686,27.686,0,0,0-15.3-24.734l1.35-1.275a10.33,10.33,0,0,0-1.115-15.934,9.536,9.536,0,0,0-5.577-1.788A9.646,9.646,0,0,0,29.038,15.4a9.591,9.591,0,0,0-12.63-1.26,10.329,10.329,0,0,0-1.09,15.915l1.35,1.275A27.688,27.688,0,0,0,1.371,56.07v.892H23.4a6.234,6.234,0,0,0,11.272,0H56.7ZM46.127,41.757a5.059,5.059,0,0,0,.74-2.254l1.083-1.083a25.945,25.945,0,0,1,4.627,6.935l-3.3,1.366a22.211,22.211,0,0,0-3.152-4.963ZM33.149,49.593l10.27-8.648a4,4,0,0,1,1.513-.8,3.264,3.264,0,0,1-.847,1.324l-9.868,9.32a6.334,6.334,0,0,0-1.067-1.2ZM46.69,37.156l-1.1,1.1a5.767,5.767,0,0,0-2.3.653,22.112,22.112,0,0,0-6.084-3.6l2.819-2.662A25.834,25.834,0,0,1,46.69,37.156ZM25.077,22.833l-.172.057a1.783,1.783,0,0,0-1.222,1.694v1.374a5.891,5.891,0,0,1-.892-3.131v-.671a4.462,4.462,0,0,1,4.462-4.462h3.57a4.464,4.464,0,0,1,4.462,4.462v.671a5.891,5.891,0,0,1-.892,3.131V24.584a1.781,1.781,0,0,0-1.219-1.692L33,22.834a27.421,27.421,0,0,1-3.561-1.475l-.4-.2-.4.2a27.381,27.381,0,0,1-3.562,1.475Zm.392,1.751.173-.058a29.1,29.1,0,0,0,3.4-1.376,29.085,29.085,0,0,0,3.395,1.376l.175.058v2.926a2.681,2.681,0,0,1-2.677,2.677H28.145a2.681,2.681,0,0,1-2.677-2.677Zm2.677,7.389H29.93a4.408,4.408,0,0,0,.627-.063l.17.682-1.689,1.689-1.689-1.689.17-.682A4.409,4.409,0,0,0,28.145,31.973Zm-2.059,1.88L29.038,36.8l2.951-2.951,1.607.4a4.578,4.578,0,0,1,1.434.647l-5.993,5.66L23.045,34.9a4.549,4.549,0,0,1,1.434-.647ZM40.631,15.6a8.546,8.546,0,0,1,.9,13.167l-5.174,4.886a6.366,6.366,0,0,0-2.329-1.125L32.45,32.13l-.206-.823a4.457,4.457,0,0,0,1.889-2.36l.528-.5a7.764,7.764,0,0,0,2.408-5.616v-.671a6.232,6.232,0,0,0-5.986-6.231,7.8,7.8,0,0,1,9.547-.328ZM13.866,22.549a8.579,8.579,0,0,1,3.6-6.972,7.769,7.769,0,0,1,4.54-1.454,7.85,7.85,0,0,1,4.983,1.8,6.232,6.232,0,0,0-5.987,6.232v.671a7.757,7.757,0,0,0,2.406,5.615l.529.5a4.453,4.453,0,0,0,1.889,2.36l-.206.823-1.579.394a6.366,6.366,0,0,0-2.329,1.125l-5.173-4.885a8.584,8.584,0,0,1-2.677-6.213Zm7.009,12.759A22.256,22.256,0,0,0,13.9,39.671l-2.516-2.516a25.834,25.834,0,0,1,6.668-4.512ZM8.781,46.713,5.5,45.353a25.945,25.945,0,0,1,4.627-6.935l2.513,2.513a22.206,22.206,0,0,0-3.856,5.781ZM4.813,47,8.1,48.363a22.358,22.358,0,0,0-1.339,6.814H3.172A25.807,25.807,0,0,1,4.813,47Zm3.733,8.175a20.425,20.425,0,0,1,13.781-18.5l6.711,6.337,6.706-6.333A20.32,20.32,0,0,1,41.769,40L31.578,48.584a6.182,6.182,0,0,0-2.54-.546,6.2,6.2,0,0,0-6.176,7.14Zm20.491,3.57A4.462,4.462,0,1,1,33.5,54.285,4.467,4.467,0,0,1,29.038,58.747Zm5.981-6.257,9.92-9.367a20.456,20.456,0,0,1,4.585,12.056H35.214a5.991,5.991,0,0,0-.195-2.688Zm16.289,2.687a22.3,22.3,0,0,0-1.34-6.811L53.262,47A25.808,25.808,0,0,1,54.9,55.177Z" transform="translate(-1.371 -5.199)"/>
              <path id="Trazado_117099" data-name="Trazado 117099" d="M42.5,1.371h1.785v3.57H42.5Z" transform="translate(-15.726 -1.371)"/>
              <path id="Trazado_117100" data-name="Trazado 117100" d="M0,0H1.784V5.426H0Z" transform="translate(2.524 16.049) rotate(-80.557)"/>
              <path id="Trazado_117101" data-name="Trazado 117101" d="M0,0H1.785V5.048H0Z" transform="translate(7.4 5.986) rotate(-45)"/>
              <path id="Trazado_117102" data-name="Trazado 117102" d="M0,0H1.784V3.989H0Z" transform="translate(16.151 1.295) rotate(-26.565)"/>
              <path id="Trazado_117103" data-name="Trazado 117103" d="M0,0H5.426V1.784H0Z" transform="translate(47.129 15.198) rotate(-9.443)"/>
              <path id="Trazado_117104" data-name="Trazado 117104" d="M0,0H5.048V1.785H0Z" transform="translate(43.095 8.298) rotate(-45)"/>
              <path id="Trazado_117105" data-name="Trazado 117105" d="M0,0H3.989V1.784H0Z" transform="translate(35.784 4.079) rotate(-63.435)"/>
            </g>
          </g>
        </g>
        <g id="Enmascarar_grupo_100" data-name="Enmascarar grupo 100" transform="translate(-210 559.667)" clip-path="url(#clip-path-2)">
          <g id="cliente_1_" data-name="cliente (1)" transform="translate(810.925 2043.994)">
            <path id="Trazado_117106" data-name="Trazado 117106" d="M26.582,46.582a3.666,3.666,0,0,0-3.666-3.666h-2.75l-.917-1.833H15.583l1,2.992a3.666,3.666,0,0,0,3.478,2.507h1.024l5.5,14.664h5.5Z" transform="translate(-8.251 -16.337)" fill="#f7cca9"/>
            <path id="Trazado_117107" data-name="Trazado 117107" d="M65.329,24.413V15.248a11,11,0,1,0-22,0v9.165a3.666,3.666,0,0,0-3.666,3.666v1.833a3.666,3.666,0,0,0,3.666,3.666h22A3.666,3.666,0,0,0,69,29.913V28.08A3.666,3.666,0,0,0,65.329,24.413Z" transform="translate(-16.754 -3.333)" fill="#ad6643"/>
            <path id="Trazado_117108" data-name="Trazado 117108" d="M62.912,46.75H44.167a3.666,3.666,0,0,0-3.322,2.116L35.417,59.581,40,63.247l4.583-5.5V72.413h22v-22A3.666,3.666,0,0,0,62.912,46.75Z" transform="translate(-15.253 -18.338)" fill="#f7b030"/>
            <path id="Trazado_117109" data-name="Trazado 117109" d="M75.083,69.417h5.5v11h-5.5Z" transform="translate(-29.257 -26.34)" fill="#f7cca9"/>
            <g id="Grupo_81360" data-name="Grupo 81360" transform="translate(26.579 11.915)">
              <path id="Trazado_117110" data-name="Trazado 117110" d="M49,28.582a3.666,3.666,0,0,1,0-7.332h.917v7.332Z" transform="translate(-45.333 -21.25)" fill="#edc4a2"/>
              <path id="Trazado_117111" data-name="Trazado 117111" d="M73.167,21.25a3.666,3.666,0,0,1,0,7.332H72.25V21.25Z" transform="translate(-54.836 -21.25)" fill="#edc4a2"/>
              <path id="Trazado_117112" data-name="Trazado 117112" d="M58.083,38.25h5.5v5.5a1.833,1.833,0,0,1-1.833,1.833H59.916a1.833,1.833,0,0,1-1.833-1.833Z" transform="translate(-49.835 -27.252)" fill="#edc4a2"/>
            </g>
            <path id="Trazado_117113" data-name="Trazado 117113" d="M62,15.583,51,19.249v5.5a7.332,7.332,0,0,0,14.664,0v-5.5Z" transform="translate(-20.755 -7.335)" fill="#f7cca9"/>
            <path id="Trazado_117114" data-name="Trazado 117114" d="M31.08,58.083h-16.5L12.75,76.414H32.913Z" transform="translate(-7.251 -22.339)" fill="#c7312e"/>
            <path id="Trazado_117115" data-name="Trazado 117115" d="M24,58.083H7.5L5.667,76.414H25.83Z" transform="translate(-4.75 -22.339)" fill="#eb423f"/>
            <path id="Trazado_117116" data-name="Trazado 117116" d="M53.742,23.088v-8.34a11.915,11.915,0,0,0-23.83,0v8.34a4.591,4.591,0,0,0-3.666,4.491v1.833a4.616,4.616,0,0,0,2.5,4.081l-2.111,4.168H25.278L23.494,32.9A4.588,4.588,0,0,0,18.914,28.5H16.731l-.663-1.326a.917.917,0,0,0-.82-.507H11.582a.917.917,0,0,0-.869,1.206l.59,1.771c-.073.064-.143.129-.212.2a4.553,4.553,0,0,0-1.342,3.241v4.583H7a.917.917,0,0,0-.912.825L4.255,56.816a.917.917,0,0,0,.912,1.008H29.913a.917.917,0,0,0,.912-1.008l-.878-8.783,2.716-3.258V56.908a.917.917,0,0,0,.917.917h22a.917.917,0,0,0,.917-.917v-22a4.553,4.553,0,0,0-.538-2.154,4.611,4.611,0,0,0,1.455-3.345V27.579a4.591,4.591,0,0,0-3.666-4.491Zm1.833,4.491v1.833a2.727,2.727,0,0,1-.793,1.933,4.56,4.56,0,0,0-2.873-1.016H45.493v-2.7a8.291,8.291,0,0,0,4.117-4.66,4.558,4.558,0,0,0,2.3-.9v1.836a.917.917,0,0,0,.917.917,2.753,2.753,0,0,1,2.75,2.75Zm-13.748-.917a6.423,6.423,0,0,1-6.416-6.416V15.409l9.834-3.278,3,3v5.12a6.423,6.423,0,0,1-6.416,6.416Zm-1.833,1.625a8.188,8.188,0,0,0,3.666,0v2.957a.918.918,0,0,1-.917.917H40.911a.918.918,0,0,1-.917-.917Zm10.082-8.041V15.822a2.749,2.749,0,0,1-.037,5.2C50.062,20.765,50.076,20.508,50.076,20.247ZM41.827,4.666A10.093,10.093,0,0,1,51.909,14.748v0a4.558,4.558,0,0,0-2.352-.9l-3.416-3.416a.917.917,0,0,0-.938-.221L34.335,13.836a4.557,4.557,0,0,0-2.589.915v0A10.093,10.093,0,0,1,41.827,4.666ZM33.616,21.019a2.749,2.749,0,0,1-.037-5.2v4.425C33.579,20.508,33.592,20.765,33.616,21.019ZM28.08,27.579a2.753,2.753,0,0,1,2.75-2.75.917.917,0,0,0,.917-.917V22.078a4.558,4.558,0,0,0,2.3.9,8.291,8.291,0,0,0,4.117,4.659v2.7h-5A4.6,4.6,0,0,0,29.7,31.917a2.768,2.768,0,0,1-1.62-2.5Zm-6.416,5.5a.917.917,0,0,0,.058.322l1.6,4.261H20.747V33.079a4.551,4.551,0,0,0-.761-2.532,2.754,2.754,0,0,1,1.678,2.532ZM14.682,28.5l.663,1.326a.917.917,0,0,0,.82.507,2.749,2.749,0,0,1,2.75,2.75v2.278l-.975-2.6a.917.917,0,0,0-.858-.595H16.058a2.746,2.746,0,0,1-2.608-1.88l-.6-1.786Zm-3.1,4.583a2.731,2.731,0,0,1,.441-1.494A4.576,4.576,0,0,0,16.058,34h.389l1.375,3.666H11.582Zm-5.4,22.913,1.65-16.5H22.667l1.65,16.5Zm19.98,0-1.65-16.5h2.74l1.65,16.5ZM34.5,38.578a.917.917,0,0,0-1.833,0v3.334l-2.971,3.566-.7-6.991a.914.914,0,0,0-.385-.658l2.053-4.053.013-.027a2.76,2.76,0,0,1,2.491-1.586h5.155A2.754,2.754,0,0,0,40.911,34h1.833a2.754,2.754,0,0,0,2.592-1.833h6.573a2.753,2.753,0,0,1,2.75,2.75V44.993H50.993V38.578a.917.917,0,1,0-1.833,0V55.992H34.5Zm16.5,17.414V46.826h3.666v9.165Z" transform="translate(-4.25 -2.833)"/>
            <circle id="Elipse_4826" data-name="Elipse 4826" cx="0.917" cy="0.917" r="0.917" transform="translate(32.995 14.664)"/>
            <circle id="Elipse_4827" data-name="Elipse 4827" cx="0.917" cy="0.917" r="0.917" transform="translate(40.327 14.664)"/>
          </g>
        </g>
        <text id="Consumidor_activo:_es_la_persona_que_en_la_actualidad_adquiere_los_productos_o_servicios." data-name="Consumidor activo: es la persona que en la actualidad adquiere los productos o servicios." transform="translate(988 2244)" fill="#12263f" font-size="16" font-family="Roboto-Black, Roboto" font-weight="800"><tspan x="0" y="17">Consumidor activo: </tspan><tspan y="17" font-family="Roboto-Regular, Roboto" font-weight="400">es la persona que en </tspan><tspan x="0" y="37" font-family="Roboto-Regular, Roboto" font-weight="400">la actualidad adquiere los productos o </tspan><tspan x="0" y="57" font-family="Roboto-Regular, Roboto" font-weight="400">servicios.</tspan></text>
        <text id="Consumidor_en_la_competencia:_quien_en_la_actualidad_adquiere_sus_productos_y_servicios_en_la_competencia." data-name="Consumidor en la competencia: quien en la actualidad adquiere sus productos y servicios en la competencia." transform="translate(988 2532)" fill="#12263f" font-size="16" font-family="Roboto-Black, Roboto" font-weight="800"><tspan x="0" y="17">Consumidor en la competencia: </tspan><tspan y="17" font-family="Roboto-Regular, Roboto" font-weight="400">quien en </tspan><tspan x="0" y="37" font-family="Roboto-Regular, Roboto" font-weight="400">la actualidad adquiere sus productos y </tspan><tspan x="0" y="57" font-family="Roboto-Regular, Roboto" font-weight="400">servicios en la competencia.</tspan></text>
        <text id="Consumidor_inactivo:_es_la_persona_que_compro_el_producto_o_servicio_en_un_período_de_tiempo_y_en_la_actualidad_no_se_beneficia_de_ellos." data-name="Consumidor inactivo: es la persona que compro el producto o servicio, en un período de tiempo y en la actualidad no se beneficia de ellos." transform="translate(988 2374)" fill="#12263f" font-size="16" font-family="Roboto-Black, Roboto" font-weight="800"><tspan x="0" y="17">Consumidor inactivo:</tspan><tspan y="17" xml:space="preserve" font-family="Roboto-Regular, Roboto" font-weight="400"> es la persona que </tspan><tspan x="0" y="37" font-family="Roboto-Regular, Roboto" font-weight="400">compro el producto o servicio, en un </tspan><tspan x="0" y="57" font-family="Roboto-Regular, Roboto" font-weight="400">período de tiempo y en la actualidad no </tspan><tspan x="0" y="77" font-family="Roboto-Regular, Roboto" font-weight="400">se beneficia de ellos.</tspan></text>
        <text id="Competidor_con_decisión_de_compra:_quien_tiene_la_necesidad_del_producto_o_servicio_y_tiene_los_recursos_para_adquirirlo." data-name="Competidor con decisión de compra: quien tiene la necesidad del producto o servicio y tiene los recursos para adquirirlo." transform="translate(988 2662)" fill="#12263f" font-size="16" font-family="Roboto-Black, Roboto" font-weight="800"><tspan x="0" y="17">Competidor con decisión de compra: </tspan><tspan x="0" y="37" font-family="Roboto-Regular, Roboto" font-weight="400">quien tiene la necesidad del producto o </tspan><tspan x="0" y="57" font-family="Roboto-Regular, Roboto" font-weight="400">servicio y tiene los recursos para </tspan><tspan x="0" y="77" font-family="Roboto-Regular, Roboto" font-weight="400">adquirirlo.</tspan></text>
      </g>
    </g>
  </g>
</svg>
