<svg xmlns="http://www.w3.org/2000/svg" width="515.27" height="370.042" viewBox="0 0 515.27 370.042">
  <g id="Grupo_93971" data-name="Grupo 93971" transform="translate(-325.365 -153.744)">
    <path id="Trazado_128050" data-name="Trazado 128050" d="M818.4,571.011c-32.5,0-471.929-.948-471.929-1-.181-.426-55.784-68.574,14.231-139.824,34.692-35.3-31.858-81.041,0-120.311,54.571-67.269,108.566-29.384,153.548-48.3,7.948-3.34,15.923-8.715,23.907-16.963a88.887,88.887,0,0,1,14.691-12.2q1.213-.808,2.45-1.577a97.852,97.852,0,0,1,9.8-5.32q3.4-1.6,6.923-2.963h0a113.245,113.245,0,0,1,11.473-3.736,129.8,129.8,0,0,1,17.112-3.357q3.817-.5,7.7-.785c50.261-3.778,106.824,17.475,136.014,48.538,5.877,6.255,32.6,38.621,11.535,83.107-13.3,28.087,42.418,54.913,62.217,86.986C868.413,514.85,818.859,569.948,818.4,571.011Z" transform="translate(0 -47.226)" fill="#fed5b1"/>
    <g id="Grupo_93955" data-name="Grupo 93955" transform="translate(580.723 248.455)" opacity="0.8">
      <path id="Trazado_128051" data-name="Trazado 128051" d="M1613.575,671.3a64.33,64.33,0,0,1-4.9,10.463,63.909,63.909,0,0,1-118.9-27.945,62.825,62.825,0,0,1,.081-9.747,64.352,64.352,0,0,1,9.636-28.709c.026-.045.055-.085.081-.13a64.064,64.064,0,0,1,36.423-27.2c1.56-.447,3.142-.835,4.736-1.161a63.544,63.544,0,0,1,34.63,2.554q2.291.833,4.476,1.82a63.465,63.465,0,0,1,25.9,21.381h0a64.133,64.133,0,0,1,10.219,23.186q.587,2.68.948,5.414a63.6,63.6,0,0,1-3.326,30.073Z" transform="translate(-1489.621 -585.559)" fill="#d7e5ff"/>
      <g id="Grupo_93954" data-name="Grupo 93954" transform="translate(9.867 1.307)">
        <path id="Trazado_128052" data-name="Trazado 128052" d="M1578.021,619.826c-3.776,2.924-2.774,10.748-9.31,6.338s-10.639-6.807-12.489-2.96,3.939,5.956,2.415,10.149-4.625,4.636-7.894,1.193-3.366-6.758-8.662-6.648-7.556-2.069-7.3-6.044a5.591,5.591,0,0,0-.174-1.844c.026-.045.055-.085.081-.13a64.064,64.064,0,0,1,36.423-27.2c1.56-.447,3.142-.835,4.736-1.161a8.4,8.4,0,0,1,4.876,5.326c2.305,6.718,6.044,5.137,2.869,10.765s-1.869,7.008,1.6,8.041,7.462,2.485,6.917,5.227S1581.8,616.9,1578.021,619.826Z" transform="translate(-1534.61 -591.518)" fill="#aec3ff"/>
        <path id="Trazado_128053" data-name="Trazado 128053" d="M1894.467,851.128a64.33,64.33,0,0,1-4.9,10.463,63.537,63.537,0,0,1-17.851,19.591,7.292,7.292,0,0,1-4.754-1.874c-6.4-5.717,2.081-11.79,6.547-14.745s-3.826-3.934-8.006-9.693,5.608-13.56-.682-13.982-13.941-.829-15.221-7.568,5.336-5.351,4.178-11.028,4.315-6.739,10.169-5.12,6.575-2.7,13.832-.737,3.841,10.891,11.846,13.123,7,3.9,7,3.9a3.858,3.858,0,0,1,1.5.933A64,64,0,0,1,1894.467,851.128Z" transform="translate(-1780.381 -766.698)" fill="#aec3ff"/>
        <path id="Trazado_128054" data-name="Trazado 128054" d="M1953.383,731.9c-7.621.8-7.106-8.717-13.578-8.154-6.524.568-3.732-4.07-6.962-8.862s-14.123-2.194-11.909-7.042,8.294-1.054,11.145-4.538,8.876-.164,8.876-.164a4.6,4.6,0,0,1,1.258.159s0,0,0,0a64.139,64.139,0,0,1,10.219,23.186Q1953.022,729.164,1953.383,731.9Z" transform="translate(-1835.971 -677.541)" fill="#aec3ff"/>
        <path id="Trazado_128055" data-name="Trazado 128055" d="M1797.187,630.638s5.175-3.664.309-7.069-5.454-1.477-9.485-3.448-6.858.675-5,5.363,1.93,12.415,6.093,9.823S1793.715,629.772,1797.187,630.638Z" transform="translate(-1728.073 -613.334)" fill="#aec3ff"/>
      </g>
    </g>
    <path id="Trazado_128056" data-name="Trazado 128056" d="M483.829,1749.106h22.283c1.194-1.013-.826-3.313-2.937-3.468a13.013,13.013,0,0,0-3.4.4c-.307-4.073-2.058-22.382-8.658-21.646-7.42.824,0,8.063,2.1,12.349a101.917,101.917,0,0,1,3.942,9.876c-.6.13-1.226.258-1.863.376-.983-3.02-4.643-13.178-9.3-12.586-5.464.693-3.268,4.766.605,7.183,2.841,1.778,6.331,4.3,7.989,5.525a23.666,23.666,0,0,1-4.358.349C486.415,1747.376,484.552,1748.5,483.829,1749.106Z" transform="translate(-122.843 -1226.139)" fill="#a8d29f"/>
    <path id="Trazado_128057" data-name="Trazado 128057" d="M2029.828,1755.369h-20.7c-1.109-.941.768-3.078,2.729-3.221a12.094,12.094,0,0,1,3.159.374c.285-3.783,1.911-20.789,8.042-20.106,6.893.765,0,7.49-1.948,11.471a94.667,94.667,0,0,0-3.662,9.173c.56.121,1.139.24,1.731.349.914-2.805,4.313-12.24,8.636-11.691,5.075.644,3.035,4.427-.562,6.672-2.639,1.651-5.88,4-7.42,5.133a21.972,21.972,0,0,0,4.048.324C2027.427,1753.762,2029.157,1754.807,2029.828,1755.369Z" transform="translate(-1314.203 -1232.403)" fill="#a8d29f"/>
    <g id="Grupo_93956" data-name="Grupo 93956" transform="translate(710.285 354.52)">
      <path id="Trazado_128058" data-name="Trazado 128058" d="M2153.97,1201.7s.493-4.9-2.069-4.732-3.241,1.343-2.954,2.285a26.731,26.731,0,0,0,2.778,4.057Z" transform="translate(-2133.85 -1168.929)" fill="#ffb27d"/>
      <path id="Trazado_128059" data-name="Trazado 128059" d="M2200.907,1225.615a41.822,41.822,0,0,1-8.936,7.179c-.578.365-1.182.733-1.819,1.1a67.612,67.612,0,0,1-8.356,4.111c-.353.146-.769.306-1.234.473-3.655,1.32-10.381,3.192-14.549,3.359-.363.014-.707.014-1.027,0-6.343-.255-7.117-24.878-7.117-24.878s.707-2.464,3.966-1.843c0,0,4.949,13.9,6.723,15.039,1.575,1.008,10.631-12.719,18.426-13.68C2192.23,1215.834,2200.907,1225.615,2200.907,1225.615Z" transform="translate(-2140.862 -1183.026)" fill="#739af0"/>
      <path id="Trazado_128060" data-name="Trazado 128060" d="M2221.795,1803.274s.468,5.42-.677,5.984l-14.663-.03s0-1.692,2.355-2.068,6.492-1.755,7.192-4.826S2221.795,1803.274,2221.795,1803.274Z" transform="translate(-2178.792 -1640.618)" fill="#1c3154"/>
      <path id="Trazado_128061" data-name="Trazado 128061" d="M2227.155,1451.228c.073,3.544.243,7.2.576,10.485,1.583,15.59,2.14,34.426,2.368,38.058.394,6.3,1.64,16.376,1.64,16.376s2.47,2.345,7.285,1.226a163.948,163.948,0,0,0,4.881-29.779c.013-.25.027-.5.04-.754.1-2.019.211-4.328.322-6.818.734-16.677,1.531-41.45,1.531-41.45l-18.4-4.32S2226.975,1442.393,2227.155,1451.228Z" transform="translate(-2194.917 -1354.17)" fill="#2a4e96"/>
      <path id="Trazado_128062" data-name="Trazado 128062" d="M2227.155,1451.228c4.663,8.045,13.551,22.867,17.112,28.793.734-16.677,1.531-41.45,1.531-41.45l-18.4-4.32S2226.975,1442.393,2227.155,1451.228Z" transform="translate(-2194.917 -1354.17)" fill="#233862"/>
      <path id="Trazado_128063" data-name="Trazado 128063" d="M2209.547,1300.119c-3.655,1.32-10.381,3.192-14.549,3.359.637-.119,5.279-1.039,7-3.111,1.843-2.228,4.947-8.277,7.416-5.809C2210.572,1295.721,2210.23,1298.018,2209.547,1300.119Z" transform="translate(-2169.848 -1244.663)" fill="#6385db"/>
      <path id="Trazado_128064" data-name="Trazado 128064" d="M2387.649,1498.731s1.142,4.479.955,5.474a19.583,19.583,0,0,1-2,5.2c-.7.836-.724-3.635-1.186-4.338s-.212,1.67-.582,1.864-.988-1.8-1.264-2.5.988-3.162,1.1-4.923S2387.649,1498.731,2387.649,1498.731Z" transform="translate(-2317.033 -1404.294)" fill="#ffb27d"/>
      <path id="Trazado_128065" data-name="Trazado 128065" d="M2409.273,1778.641s2.61,2.382,2.1,4.074-2.864,2.82-3.183,4.889-1.591,3.2-2.737,3.2h-5.462s-.843-1.455,1.193-1.894,2.8-2.869,2.678-5.125a39.765,39.765,0,0,1,.191-5.265l4.328-1Z" transform="translate(-2329.745 -1622.145)" fill="#1c3154"/>
      <path id="Trazado_128066" data-name="Trazado 128066" d="M2241.641,1435.738s17.224,36.852,26.389,53.022,12.03,20.682,12.03,20.682,5.251-2.068,5.729-3.478c0,0-3.505-31.217-9.643-38.826-3.468-4.3-7.543-17.2-7.733-21.716s-4.215-15.283-4.215-15.283Z" transform="translate(-2206.261 -1350.96)" fill="#2a4e96"/>
      <path id="Trazado_128067" data-name="Trazado 128067" d="M2226.916,1267.47a29.849,29.849,0,0,0,15.139,7.859c4.183.8,12.672,1.574,14.778-1.4.495-.7.5-1.734.389-3.35-.284-4.2-1.34-12.322,3.43-28.642a27.85,27.85,0,0,0,.917-4.362c1.042-8.349.928-14.652-6.315-18.019-10.854-5.045-15.309-.894-15.309-.894s-5.772,2.7-8.41,10.559C2226.26,1244.941,2226.916,1267.47,2226.916,1267.47Z" transform="translate(-2194.745 -1184.61)" fill="#739af0"/>
      <path id="Trazado_128068" data-name="Trazado 128068" d="M2296.97,1183.514a8.057,8.057,0,0,1-8.108.531c-.236-.118-.206-1.74-.147-3.332.059-1.563.206-3.1.206-3.1l3.862-2.535,3.685-2.418C2296.027,1180.979,2297.8,1182.925,2296.97,1183.514Z" transform="translate(-2242.978 -1149.959)" fill="#ffb27d"/>
      <path id="Trazado_128069" data-name="Trazado 128069" d="M2295.968,1184.7a11.867,11.867,0,0,1-7.105,4.616c.059-1.563.226-3.284.226-3.284l3.843-2.347Z" transform="translate(-2243.126 -1158.565)" fill="#ed985f"/>
      <path id="Trazado_128070" data-name="Trazado 128070" d="M2270.457,1136.91s9.344,3.487,11.423-2.27,4.685-9.184-1.193-11.654-7.836-.688-9.006,1.064S2268.08,1135.855,2270.457,1136.91Z" transform="translate(-2227.972 -1110.229)" fill="#ffb27d"/>
      <path id="Trazado_128071" data-name="Trazado 128071" d="M2283.554,1110.131c.108-.083.326-.124.781-.06a1.865,1.865,0,0,0-.794-.4,2.307,2.307,0,0,0-1.108-2.3,1.376,1.376,0,0,1,.462,1.1c-.994-1.527-3.482-2.987-11-3.865-9.9-1.156-7.924,5.722-6.808,6.716s4.7-.419,7.012.232,2.092,4.139,2.8,4.763.555-.262,1.731-.537.926,1.535.384,2.636.639,2.929.639,2.929l1.818-1.319c1.818-1.318,4.582-7.878,4.188-9.471C2283.624,1110.417,2283.59,1110.275,2283.554,1110.131Z" transform="translate(-2223.826 -1096.727)" fill="#2c3a64"/>
      <path id="Trazado_128072" data-name="Trazado 128072" d="M2344.573,1342.532c-.284-4.2-1.34-12.322,3.43-28.642a27.817,27.817,0,0,0,.917-4.362h0c-3.544-1.169-10,1.431-10,1.431S2337.4,1332.532,2344.573,1342.532Z" transform="translate(-2282.096 -1256.568)" fill="#6385db"/>
      <path id="Trazado_128073" data-name="Trazado 128073" d="M2309.736,1233.426s4.361,1.586,7.143,13.133c1.838,7.629,5.222,18.843,5.6,22.367s-3.868,24.155-3.868,24.155a2.767,2.767,0,0,1-2.068.143,3.417,3.417,0,0,1-2.06-1.232s-1.016-13.75-.753-20.243c.109-2.7-12.488-19.755-19.286-21.953C2291.777,1248.933,2309.736,1233.426,2309.736,1233.426Z" transform="translate(-2247.273 -1197.393)" fill="#739af0"/>
      <path id="Trazado_128074" data-name="Trazado 128074" d="M2086.991,1091.429a145.068,145.068,0,0,1,27.152,2.32l1.52-3.829,1.667-4.2s-14.6-6.287-23.382-15.042Z" transform="translate(-2085.531 -1070.344)" fill="#aec3ff"/>
      <path id="Trazado_128075" data-name="Trazado 128075" d="M2088.949,1069.276l-7.237,21.364h0a1.925,1.925,0,0,1-1.268-2.49l6.369-17.95a1.589,1.589,0,0,1,2.135-.923Z" transform="translate(-2080.333 -1069.142)" fill="#f99746"/>
      <path id="Trazado_128076" data-name="Trazado 128076" d="M2143.65,1175h0a2.616,2.616,0,0,0,3.07-2.047l2.492-12.468a2.617,2.617,0,0,0-2.047-3.07h0a2.616,2.616,0,0,0-3.07,2.047l-2.492,12.468A2.617,2.617,0,0,0,2143.65,1175Z" transform="translate(-2128.125 -1138.017)" fill="#f99746"/>
      <path id="Trazado_128077" data-name="Trazado 128077" d="M2086.991,1156.549a145.061,145.061,0,0,1,27.152,2.32l1.52-3.83C2101.995,1152.248,2086.991,1156.549,2086.991,1156.549Z" transform="translate(-2085.531 -1135.464)" fill="#739af0"/>
      <path id="Trazado_128078" data-name="Trazado 128078" d="M2192.449,1138.771l3.938.693c-.06,0,3.659.724,4.878-2.572a2.674,2.674,0,0,0,.234-.712c.947-4.109-1.308-4.865-1.308-4.865l-5.069-1.975-1.611,5.7v.02Z" transform="translate(-2167.858 -1116.137)" fill="#f99746"/>
      <path id="Trazado_128079" data-name="Trazado 128079" d="M2192.449,1159.058l3.938.693c-.06,0,3.659.724,4.878-2.572-2.228-1.621-7.754-1.852-7.754-1.852v.02Z" transform="translate(-2167.858 -1136.423)" fill="#ed7d2b"/>
      <path id="Trazado_128080" data-name="Trazado 128080" d="M2146.544,1182.338s1.927.768,1.574,1.616-2.8,2.015-3.19,1.346S2145.332,1181.622,2146.544,1182.338Z" transform="translate(-2130.683 -1157.425)" fill="#ffb27d"/>
      <path id="Trazado_128081" data-name="Trazado 128081" d="M2170.2,1198.842a26.973,26.973,0,0,0,.386-2.877c.023-.906.129-1.645-.084-1.671s-.367.141-.455.432-.421,2.1-.421,2.1l.168,1.743Z" transform="translate(-2150.039 -1166.843)" fill="#ffb27d"/>
    </g>
    <g id="Grupo_93958" data-name="Grupo 93958" transform="translate(421.319 314.6)">
      <path id="Trazado_128082" data-name="Trazado 128082" d="M1264.135,1204.8l-10.917,129.8s-1.144,7.868,4.709,7.882c9.623.023,47.9,0,47.9,0s-7.243-1.638-7.155-5.323c.1-4.344,12.759-133.589,12.759-133.589Z" transform="translate(-1145.594 -1134.166)" fill="#7599ea"/>
      <path id="Trazado_128083" data-name="Trazado 128083" d="M1320.625,1331.8c-1.893.006-38.947.068-48.318-.052-4.084-.051-4.8-3.631-4.834-5.948a11.609,11.609,0,0,1,.124-1.932l.284-3.374.724-8.6.639-7.6.821-9.762.692-8.24,7.757-92.233,47.294-1.227s-5.33,54.089-9.1,93.46c-.421,4.387-.821,8.593-1.191,12.519q-.181,1.88-.348,3.673c-.35,3.725-.669,7.146-.947,10.166-.146,1.592-.282,3.071-.4,4.426-.481,5.31-.763,8.7-.767,9.345a5.457,5.457,0,0,0,.092,1.051C1313.917,1331.61,1319.914,1331.8,1320.625,1331.8Z" transform="translate(-1156.792 -1125.783)" fill="#90aff4"/>
      <path id="Trazado_128084" data-name="Trazado 128084" d="M779.653,887.135l26.591,106.81,3.641,14.628,12.385,49.749h230.09L1006.71,887.135Z" transform="translate(-775.967 -887.135)" fill="#aec3ff"/>
      <path id="Trazado_128085" data-name="Trazado 128085" d="M766.534,887.134l-3.685,1.228,41.4,173.676,4.9-3.715Z" transform="translate(-762.849 -887.134)" fill="#90aff4"/>
      <path id="Trazado_128086" data-name="Trazado 128086" d="M951.617,1671.349H1180.29l6.315-3.715H956.517Z" transform="translate(-910.214 -1496.445)" fill="#7599ea"/>
      <rect id="Rectángulo_36086" data-name="Rectángulo 36086" width="49.511" height="2.353" transform="translate(171.217 208.366) rotate(180)" fill="#aec3ff"/>
      <path id="Trazado_128087" data-name="Trazado 128087" d="M1319.455,1684.568l-.256,1.8-46.563,9.407.639-7.6.3-3.609Z" transform="translate(-1160.824 -1509.665)" fill="#5888dd"/>
      <path id="Trazado_128088" data-name="Trazado 128088" d="M1320.63,1774.021c-1.893.006-38.947.068-48.318-.052-4.084-.051-4.8-3.631-4.834-5.949l46.343-8.719c-.481,5.31-.763,8.7-.767,9.345a5.459,5.459,0,0,0,.092,1.051C1313.922,1773.833,1319.919,1774.021,1320.63,1774.021Z" transform="translate(-1156.797 -1568.007)" fill="#5888dd" opacity="0.4"/>
      <path id="Trazado_128089" data-name="Trazado 128089" d="M779.651,887.134h227.058l36.841,137.581H813.9Z" transform="translate(-775.966 -887.134)" fill="#aec3ff"/>
      <path id="Trazado_128090" data-name="Trazado 128090" d="M1066.314,1044.985h-212.6l-7.6-30.264-2.939-11.71-1.2-4.775-7.808-31.1-.4-1.619-4.127-16.44L827.8,941.72l-1.575-6.275-3.693-14.709h209.531l4.056,14.709,1.729,6.275,2.028,7.356,13.359,48.46v0l1.133,4.105.526,1.906,9.224,33.456Z" transform="translate(-809.44 -913.366)" fill="#739af0"/>
      <path id="Trazado_128091" data-name="Trazado 128091" d="M1036.119,935.444H826.226l-3.692-14.71h209.531Z" transform="translate(-809.443 -913.364)" fill="#607cf4"/>
      <g id="Grupo_93957" data-name="Grupo 93957" transform="translate(21.702 12.179)">
        <path id="Trazado_128092" data-name="Trazado 128092" d="M861.852,944.5a1.389,1.389,0,0,1,1.38-1.839,2.512,2.512,0,0,1,2.3,1.839,1.389,1.389,0,0,1-1.38,1.839A2.512,2.512,0,0,1,861.852,944.5Z" transform="translate(-861.795 -942.66)" fill="#e9f3fe"/>
        <path id="Trazado_128093" data-name="Trazado 128093" d="M889.71,944.5a1.389,1.389,0,0,1,1.38-1.839,2.512,2.512,0,0,1,2.3,1.839,1.389,1.389,0,0,1-1.38,1.839A2.512,2.512,0,0,1,889.71,944.5Z" transform="translate(-883.543 -942.66)" fill="#e9f3fe"/>
        <path id="Trazado_128094" data-name="Trazado 128094" d="M919.707,944.5a1.389,1.389,0,0,1,1.38-1.839,2.512,2.512,0,0,1,2.3,1.839,1.389,1.389,0,0,1-1.38,1.839A2.512,2.512,0,0,1,919.707,944.5Z" transform="translate(-906.961 -942.66)" fill="#e9f3fe"/>
      </g>
    </g>
    <path id="Trazado_128095" data-name="Trazado 128095" d="M1543.575,236.45c8.593-10.089,21.843-30.355,30.764-40.733a3.291,3.291,0,0,0-2.507-5.433H1555.6l15.312-34.623a1.357,1.357,0,0,0-2.328-1.361l-37.023,49.552a2.049,2.049,0,0,0,1.892,3.26l18.378-2.263L1540.9,234.884A1.577,1.577,0,0,0,1543.575,236.45Z" transform="translate(-941.315)" fill="#fc8116"/>
    <path id="Trazado_128096" data-name="Trazado 128096" d="M1167.5,580.287c1.933-9.915,3.154-28.332,5.2-38.561a2.508,2.508,0,0,0-3.7-2.671l-10.782,6.072-2.781-28.724a1.034,1.034,0,0,0-2.056-.033l-6.055,46.76a1.562,1.562,0,0,0,2.476,1.457l11.36-8.377,3.972,24.038A1.2,1.2,0,0,0,1167.5,580.287Z" transform="translate(-641.67 -282.387)" fill="#aec3ff"/>
    <g id="Grupo_93962" data-name="Grupo 93962" transform="translate(475.664 245.625)">
      <path id="Trazado_128097" data-name="Trazado 128097" d="M1247.418,801.147l-184.728,15.564a18.491,18.491,0,0,1-18.435-25.969l78.263-175.152a18.491,18.491,0,0,1,32.265-2.718l106.465,159.589A18.491,18.491,0,0,1,1247.418,801.147Z" transform="translate(-1035.601 -597.625)" fill="#e6efff"/>
      <g id="Grupo_93959" data-name="Grupo 93959" transform="translate(0)">
        <path id="Trazado_128098" data-name="Trazado 128098" d="M1223.027,783.165,1038.3,798.728a25.5,25.5,0,0,1-25.426-35.817l78.263-175.153a25.5,25.5,0,0,1,44.5-3.749L1242.1,743.6a25.5,25.5,0,0,1-19.074,39.566Zm-109.57-196.441a11.333,11.333,0,0,0-9.517,6.756l-78.263,175.153a11.479,11.479,0,0,0,11.444,16.121L1221.85,769.19a11.479,11.479,0,0,0,8.585-17.809L1123.97,591.792A11.333,11.333,0,0,0,1113.457,586.724Z" transform="translate(-1010.622 -572.655)" fill="#fc8116"/>
      </g>
      <g id="Grupo_93961" data-name="Grupo 93961" transform="translate(89.028 52.072)">
        <g id="Grupo_93960" data-name="Grupo 93960">
          <path id="Trazado_128099" data-name="Trazado 128099" d="M1426.006,934.719a16.9,16.9,0,0,1,.719-6.708,15.486,15.486,0,0,1,3.161-5.552,16.6,16.6,0,0,1,5.307-3.935,20.7,20.7,0,0,1,7.268-1.866,21.173,21.173,0,0,1,7.533.619,16.511,16.511,0,0,1,5.947,2.987,15.5,15.5,0,0,1,4.045,4.945,16.926,16.926,0,0,1,1.831,6.494,16.527,16.527,0,0,1-.724,6.654,15.6,15.6,0,0,1-3.165,5.5,16.454,16.454,0,0,1-5.363,3.939,21.167,21.167,0,0,1-7.323,1.87,20.7,20.7,0,0,1-7.477-.624,16.55,16.55,0,0,1-5.891-2.991,15.586,15.586,0,0,1-4.041-4.891A16.5,16.5,0,0,1,1426.006,934.719Zm28.56-33.419-26.608,2.242-11.43-90.6,34.148-2.877Z" transform="translate(-1416.528 -810.065)" fill="#fc8116"/>
        </g>
      </g>
    </g>
    <g id="Grupo_93966" data-name="Grupo 93966" transform="translate(401.054 355.077)">
      <path id="Trazado_128100" data-name="Trazado 128100" d="M936.749,1237.148s.579-1.3.955-1.92,1.978-2.424,2.25-2.015,1.364,3.163.784,3.934.037,2.113-2.845,2.925Z" transform="translate(-878.342 -1197.738)" fill="#ffb27d"/>
      <path id="Trazado_128101" data-name="Trazado 128101" d="M790.676,1213.861s14.758,12.319,20.513,11.179c4.5-.891,11.614-3.148,11.614-3.148s1.878,1.786,1.346,3.927c0,0-9.063,8.528-15.521,8.583-10.093.086-14.853-5-14.853-5Z" transform="translate(-764.307 -1182.677)" fill="#ed7d2b"/>
      <path id="Trazado_128102" data-name="Trazado 128102" d="M672.668,1798.393s.429,6.911,1.766,7.01c.178.013,6.782.013,6.782.013l8.43-.049a2.735,2.735,0,0,0-2.519-2.46c-2.464-.429-6.589-2.161-8.081-5.418C677.474,1794.063,672.668,1798.393,672.668,1798.393Z" transform="translate(-672.182 -1637.266)" fill="#113c68"/>
      <path id="Trazado_128103" data-name="Trazado 128103" d="M670.453,1504.8a17.579,17.579,0,0,0,4.563.857,16.759,16.759,0,0,0,4.26-.608,116.647,116.647,0,0,1,3.138-14.946c1.392-5.388,3.38-12.317,6.208-20.926,7.819-23.793,10.2-37.712,10.414-39.03.012-.069.016-.1.016-.1l-.025-.012-24.04-10.555s2.971,32.792-.819,45.379a52.992,52.992,0,0,0-1.376,6.03C670.4,1484.562,670.453,1504.8,670.453,1504.8Z" transform="translate(-670.452 -1343.198)" fill="#2a4e96"/>
      <path id="Trazado_128104" data-name="Trazado 128104" d="M695.554,1490.107c1.392-5.388,3.38-12.317,6.208-20.926,7.819-23.793,10.2-37.712,10.414-39.03,0-.039,0-.076-.009-.116l-24.04-10.555s2.971,32.792-.819,45.379C686.776,1466.619,695.554,1490.107,695.554,1490.107Z" transform="translate(-683.593 -1343.198)" fill="#233862"/>
      <path id="Trazado_128105" data-name="Trazado 128105" d="M758.276,1798.393s.428,6.911,1.766,7.01c.178.013,6.782.013,6.782.013l8.43-.049a2.735,2.735,0,0,0-2.519-2.46c-2.464-.429-6.589-2.161-8.081-5.418C763.082,1794.063,758.276,1798.393,758.276,1798.393Z" transform="translate(-739.013 -1637.266)" fill="#15447c"/>
      <path id="Trazado_128106" data-name="Trazado 128106" d="M729.443,1423.005a342.226,342.226,0,0,1-3.364,47.34c-3.677,26.091-2.43,37.166-2.43,37.166a25.019,25.019,0,0,1-3.545.9,16.087,16.087,0,0,1-5.26-.609s-5.262-26.1-3.754-39.159-7.206-44.811-7.206-44.811Z" transform="translate(-696.551 -1345.949)" fill="#2a4e96"/>
      <path id="Trazado_128107" data-name="Trazado 128107" d="M742.7,1158.9l4.693,3.077,4.274-1.209c.781-1.114.988-3.263,1-5.125a31.891,31.891,0,0,0-.168-3.413l-6.331-2.794-2.362-1.041c.007.037.184,1.939.209,2.218A16.16,16.16,0,0,1,742.7,1158.9Z" transform="translate(-726.853 -1131.568)" fill="#ffb27d"/>
      <path id="Trazado_128108" data-name="Trazado 128108" d="M715.459,1245.574c-5.841,5.639-27.946,4.691-29.308-1.523s1.486-52.893,11.463-55.825c2.07-.609,13.139,2.969,13.139,2.969a70.173,70.173,0,0,1,2.876,10.328c.221,1.126.866,13.054,1.349,24.214.225,5.219.416,10.272.513,13.971A40.3,40.3,0,0,1,715.459,1245.574Z" transform="translate(-682.459 -1162.611)" fill="#f99746"/>
      <path id="Trazado_128109" data-name="Trazado 128109" d="M750.209,1154.4c1.284,2.172,5.791,4.072,8.179,4.943a31.9,31.9,0,0,0-.168-3.413l-6.331-2.794C750.49,1153.118,749.637,1153.43,750.209,1154.4Z" transform="translate(-732.576 -1135.27)" fill="#fca56b"/>
      <path id="Trazado_128110" data-name="Trazado 128110" d="M747.629,1104.362s-10.2,3.182-12.085-3.2-4.469-10.271,1.964-12.573,8.423-.241,9.571,1.736S750.234,1103.37,747.629,1104.362Z" transform="translate(-719.596 -1084.088)" fill="#ffb27d"/>
      <path id="Trazado_128111" data-name="Trazado 128111" d="M730.881,1077.3s-.651,7.428-2.187,7.106-3.227-1.012-3,1.227-1.494,6.078-3.709,6.068c-4.75-.02-9.912-12.21-8.612-14.521C717.124,1070.514,736.3,1069.168,730.881,1077.3Z" transform="translate(-703.799 -1071.683)" fill="#163560"/>
      <path id="Trazado_128112" data-name="Trazado 128112" d="M749.972,1178.06c-.132-.055-7.594-3.4-8.467-3.115s-1.961,2.954-1.961,2.954l13.14,2.971A6.528,6.528,0,0,0,749.972,1178.06Z" transform="translate(-724.391 -1152.283)" fill="#ed7d2b"/>
      <g id="Grupo_93964" data-name="Grupo 93964" transform="translate(26.296 4.704)">
        <path id="Trazado_128113" data-name="Trazado 128113" d="M836.086,1339.795l-41.831,39.385c-.82.772-1.854,1.018-2.3.547l-1.412-1.5c-.444-.472-.136-1.489.684-2.261l41.831-39.385c.82-.772,1.854-1.018,2.3-.547l1.412,1.5C837.214,1338.005,836.906,1339.023,836.086,1339.795Z" transform="translate(-790.342 -1282.571)" fill="#1f4d84"/>
        <path id="Trazado_128114" data-name="Trazado 128114" d="M812.611,1443.362l-18.356,17.283c-.82.772-1.854,1.018-2.3.547l-1.412-1.5c-.444-.472-.136-1.489.684-2.261l18.357-17.283Z" transform="translate(-790.342 -1364.036)" fill="#739af0"/>
        <path id="Trazado_128115" data-name="Trazado 128115" d="M950.006,1135.484a32.788,32.788,0,1,0,54.344-32.949c-.168-.168-.34-.333-.515-.5a32.789,32.789,0,0,0-53.829,33.446Zm9.371-30.261a30.2,30.2,0,1,1,1.3,42.689A30.164,30.164,0,0,1,959.377,1105.224Z" transform="translate(-913.877 -1093.131)" fill="#1f4d84"/>
        <g id="Grupo_93963" data-name="Grupo 93963" transform="translate(37.295 2.589)" opacity="0.5">
          <path id="Trazado_128116" data-name="Trazado 128116" d="M1012.575,1155.823a30.2,30.2,0,1,1-1.3-42.687A30.077,30.077,0,0,1,1012.575,1155.823Z" transform="translate(-960.382 -1104.933)" fill="#b3cff9"/>
        </g>
      </g>
      <path id="Trazado_128117" data-name="Trazado 128117" d="M745.7,1286.732c-23.049-16.425-21.133-38.341-21.133-38.341,8.425,4.751,16.784,15.257,20.62,24.37C745.412,1277.981,745.6,1283.033,745.7,1286.732Z" transform="translate(-712.668 -1209.633)" fill="#ed7d2b"/>
      <g id="Grupo_93965" data-name="Grupo 93965" transform="translate(11.419 28.587)">
        <path id="Trazado_128118" data-name="Trazado 128118" d="M914.953,1382.625a6.292,6.292,0,0,0,2.944-1.818s.693.047-.114,1.526c-.068.124-.218.441-.331.666a.143.143,0,0,0,.121.206,15.335,15.335,0,0,1,3.688.077c.249.052.322.649.312.9a2.307,2.307,0,0,1-.486,1.574c-.291.384-1.1.8-2.913,1.525-.689.277-2.66.068-4.507-.566l-1.476-.683.458-2.742.371.078C913.61,1383.495,914.339,1382.776,914.953,1382.625Z" transform="translate(-870.591 -1341.593)" fill="#ffb27d"/>
        <path id="Trazado_128119" data-name="Trazado 128119" d="M730.15,1202.019s-20.71,3.943,6.093,33.934c4.287,4.8,27.447,11.042,27.447,11.042s2.349-2,1.165-3.617c0,0-15.947-11.58-19.455-13.421-1.578-.828-6.126-18.482-8.7-22.734A11.6,11.6,0,0,0,730.15,1202.019Z" transform="translate(-722.516 -1202.019)" fill="#f99746"/>
      </g>
      <path id="Trazado_128120" data-name="Trazado 128120" d="M939.31,1235.056a10.554,10.554,0,0,0,.81-1.977,10.936,10.936,0,0,1,1.337-3.025c.141-.141.6.041.659.645a3.512,3.512,0,0,1-.333,1.31,14.749,14.749,0,0,0-.438,2.6C941.024,1235.655,939.31,1235.056,939.31,1235.056Z" transform="translate(-880.341 -1195.283)" fill="#ffb27d"/>
    </g>
    <g id="Grupo_93968" data-name="Grupo 93968" transform="translate(435.932 245.285)">
      <g id="Grupo_93967" data-name="Grupo 93967" transform="translate(0 0)">
        <path id="Trazado_128121" data-name="Trazado 128121" d="M975.742,978.86a1.249,1.249,0,0,0-.223,1.336.01.01,0,0,0,0,.007,8.3,8.3,0,0,0,2.623,2.879c.158.128.3.244.421.351.032.028.064.057.094.085l.073.066c1.153,1.064.719,1.307,2.79,3.465,2.362,2.459,3.988,2.5,4.451,2.28.392-.191-.4-1.495-1.284-2.96-.042-.071-.084-.142-.128-.214-.118-.195-.234-.393-.35-.588-1.032-1.764-.767-2.591-.521-5.216.2-2.133,3.322-11.914,3.322-11.914l-4.527-.781s-1.366,7.789-2.869,8.988c-.8.639-1.7.647-2.475,1.121q-.082.05-.161.1A5.944,5.944,0,0,0,975.742,978.86Z" transform="translate(-943.409 -880.679)" fill="#ffb27d"/>
        <path id="Trazado_128122" data-name="Trazado 128122" d="M975.742,1015.2a1.249,1.249,0,0,0-.223,1.336.01.01,0,0,0,0,.007,9.617,9.617,0,0,0,2.627,2.87c.156.13.294.249.417.36.032.028.064.057.094.085l.073.066c1.153,1.064.719,1.307,2.79,3.465,2.362,2.459,3.988,2.5,4.451,2.28.392-.191-.4-1.495-1.284-2.96a10.068,10.068,0,0,1-4.21-3.1c-1.37-1.75-2.3-3.98-3.232-5.349l-.266-.05A5.946,5.946,0,0,0,975.742,1015.2Z" transform="translate(-943.409 -917.02)" fill="#233862"/>
        <path id="Trazado_128123" data-name="Trazado 128123" d="M1130.464,971.178c.279,1.4,2.271,1.165,4.5.622s1.7.1,4.865-.246,4.127-1.53,4.224-2c.087-.418-1.479-.566-3.157-.76-.211-.024-.423-.05-.635-.076-1.9-.238-3.283-1.462-5-2.467-1.63-.952-4.063-4.83-4.063-4.83l-4.344.343s2.278,3.463,3.16,4.969a5.248,5.248,0,0,1,.425,2.961A5.592,5.592,0,0,0,1130.464,971.178Z" transform="translate(-1061.623 -875.812)" fill="#ffb27d"/>
        <path id="Trazado_128124" data-name="Trazado 128124" d="M1147.6,998.041c2.226-.543,1.7.1,4.865-.246s4.127-1.53,4.224-2c.087-.418-1.479-.566-3.157-.76l-.016.032a8.93,8.93,0,0,1-4.537,1.409c-2.149.052-4.425-.565-5.909-.542a5.592,5.592,0,0,0,.033,1.486C1143.384,998.817,1145.376,998.585,1147.6,998.041Z" transform="translate(-1074.264 -902.054)" fill="#233862"/>
        <path id="Trazado_128125" data-name="Trazado 128125" d="M1014.41,854.448l-4.065,10.926-5.307,14.266a8.59,8.59,0,0,1-2.816-.258,12.2,12.2,0,0,1-2.723-1.327s1.477-15.319,4.227-24.112a15.656,15.656,0,0,1,2.365-5.11C1010.349,843.8,1014.41,854.448,1014.41,854.448Z" transform="translate(-962.207 -786.865)" fill="#233862"/>
        <path id="Trazado_128126" data-name="Trazado 128126" d="M908.865,792.3c-2.311-.746-8.343-.014-14.885,1.167A4.437,4.437,0,0,1,889.4,791.4h0L872.936,790.1s-5.437,12.046-2.465,19.724a2.888,2.888,0,0,0,2.877,1.857h0s9.949.017,13.131.018c8.188,0,17.33-5.622,18.513-5.858,1.935-.386,2.708,3.484,4.642,7.549S927.819,831.4,927.819,831.4a14.3,14.3,0,0,0,3.531-.361,3.476,3.476,0,0,0,1.516-.956S914.864,794.237,908.865,792.3Z" transform="translate(-860.785 -742.072)" fill="#2a4e96"/>
        <path id="Trazado_128127" data-name="Trazado 128127" d="M856.591,572.085a5.84,5.84,0,0,0-3.145-.819,8.753,8.753,0,0,1-1.518-.093c-6.283-.924-10.07,8.2-10.293,10.96-.409,5.063-3.088,5.834-6.859,9-7.561,6.355-5.347,13.744-1.215,16.491,2.48,1.648,6.852,0,6.852,0,.062.043,11.958-6.645,17.821-9.871C867.024,596.513,860.121,574.189,856.591,572.085Z" transform="translate(-829.71 -571.108)" fill="#233862"/>
        <path id="Trazado_128128" data-name="Trazado 128128" d="M908.581,647.265c.026.017-2.885,1.009-4.831.147-1.831-.81-3.216-3.822-3.189-3.824.833-.038,1.747-.766,2.453-5.543l.355.127,5.962,2.147s-.433,1.913-.713,3.735C908.383,645.584,908.256,647.049,908.581,647.265Z" transform="translate(-884.969 -623.364)" fill="#ffb27d"/>
        <path id="Trazado_128129" data-name="Trazado 128129" d="M919.327,640.773s-.238,1.032-.586,2.961a6.733,6.733,0,0,1-5.376-5.108Z" transform="translate(-894.965 -623.817)" fill="#ed975d"/>
        <path id="Trazado_128130" data-name="Trazado 128130" d="M918.09,606s-8.158-1.1-7.4-6.168.222-8.626,5.463-8.139,5.96,2.573,6.117,4.327S920.232,606.152,918.09,606Z" transform="translate(-892.841 -587.141)" fill="#ffb27d"/>
        <path id="Trazado_128131" data-name="Trazado 128131" d="M913.65,591.644s-5.224,4.5-8.776,4.86-4.9-.779-4.9-.779a13.87,13.87,0,0,0,3.355-4.543,2.5,2.5,0,0,1,2.06-1.472C907.928,589.492,912.737,589.394,913.65,591.644Z" transform="translate(-884.513 -585.547)" fill="#233862"/>
        <path id="Trazado_128132" data-name="Trazado 128132" d="M947.434,593.59a12.864,12.864,0,0,1,2.3,2.943,9.876,9.876,0,0,1,.266,5.25s2.724-5.292,1.183-7.864C949.546,591.191,947.434,593.59,947.434,593.59Z" transform="translate(-921.561 -587.898)" fill="#233862"/>
        <path id="Trazado_128133" data-name="Trazado 128133" d="M890.51,678.332c-.252,16.514-.072,13.063-1.879,14.629a6.933,6.933,0,0,1-3.27.707c-5.064.335-13.965-.5-14.3-1.439-1.167-3.239-.342-4.244-1.315-9.2-.1-.527-.227-1.1-.374-1.72-.811-3.405-1.6-4.564,1.283-10.033,2.616-4.954,5.333-8.975,5.577-8.829,6.9,4.1,7.453.656,7.453.656S890.634,670.277,890.51,678.332Z" transform="translate(-860.033 -642.41)" fill="#f99746"/>
        <path id="Trazado_128134" data-name="Trazado 128134" d="M1010.345,888.367l-5.307,14.266a8.587,8.587,0,0,1-2.816-.258,12.2,12.2,0,0,1-2.723-1.327s1.477-15.319,4.227-24.112Z" transform="translate(-962.207 -809.857)" fill="#2a4e96"/>
        <path id="Trazado_128135" data-name="Trazado 128135" d="M937.3,665.444s7.1,1.206,7.928,4.261,3.569,21.6,3.569,21.6-2,1.954-3.668.286-5.239-17.354-5.239-17.354Z" transform="translate(-913.649 -644.753)" fill="#f99746"/>
        <path id="Trazado_128136" data-name="Trazado 128136" d="M889.366,742.462c-5.064.334-13.965-.5-14.3-1.439-1.167-3.239-.342-4.244-1.315-9.2l2.445-6.877s-.406,7.658,1.851,9.674,9.246,3.892,10.343,5.575A6.162,6.162,0,0,1,889.366,742.462Z" transform="translate(-864.037 -691.204)" fill="#ed7d2b"/>
        <path id="Trazado_128137" data-name="Trazado 128137" d="M918.508,787.37s5-1.111,5.8-.667a11.736,11.736,0,0,1,3.022,2.621c.246.562-1.795-.427-2.458-.605a5.906,5.906,0,0,0-2.122.464,7.054,7.054,0,0,1-3.8.38Z" transform="translate(-898.98 -739.335)" fill="#ffb27d"/>
        <path id="Trazado_128138" data-name="Trazado 128138" d="M845.665,662.444s-6.708.411-9.031,3.649c-3.27,4.558-9.762,23.986-6.046,26.578,4.184,2.92,19.047.77,19.047.77s.5-2.312-.192-3.43-11.87-2.929-12.386-3.445,6.455-10.062,6.455-11.611S845.665,662.444,845.665,662.444Z" transform="translate(-829.473 -642.411)" fill="#f99746"/>
        <path id="Trazado_128139" data-name="Trazado 128139" d="M946.061,793.416a9.67,9.67,0,0,0,1.389,1.512,1.024,1.024,0,0,0,.565.121l-.7-1.27Z" transform="translate(-920.49 -744.657)" fill="#ffb27d"/>
        <path id="Trazado_128140" data-name="Trazado 128140" d="M944.961,787.076,948,788.555a.542.542,0,0,1-.5.195,7.265,7.265,0,0,1-1.32-.363Z" transform="translate(-919.631 -739.707)" fill="#ffb27d"/>
      </g>
      <path id="Trazado_128141" data-name="Trazado 128141" d="M950.292,802.918l-31.789-.011v.7l31.507.011Z" transform="translate(-898.975 -752.066)" fill="#233862"/>
      <path id="Trazado_128142" data-name="Trazado 128142" d="M952.394,742.03l24.074.008,7.248-18.006-24.036-.008Z" transform="translate(-925.434 -690.485)" fill="#233862"/>
      <path id="Trazado_128143" data-name="Trazado 128143" d="M1026.135,761.012a.834.834,0,0,0-.817-1.146,1.642,1.642,0,0,0-1.475,1.146.834.834,0,0,0,.817,1.146A1.643,1.643,0,0,0,1026.135,761.012Z" transform="translate(-981.174 -718.465)" fill="#fff"/>
    </g>
    <g id="Grupo_93970" data-name="Grupo 93970" transform="translate(615.554 364.325)">
      <path id="Trazado_128144" data-name="Trazado 128144" d="M1724.358,1114.26a6.911,6.911,0,0,0-5.488.282c-9.337.384-9.684,9.955-8.588,13.516,1.539,5-3.908,8.947,2.133,10.972,7.01,2.349,12.892-.438,12.491.772C1747.074,1141.549,1731.734,1116.709,1724.358,1114.26Z" transform="translate(-1696.098 -1113.845)" fill="#163560"/>
      <path id="Trazado_128145" data-name="Trazado 128145" d="M1684.024,1257.352a24.481,24.481,0,0,1-2.5,3.775c-1.939,2.429-12.12-3.337-11.243-3.775s5.993-15.177,7.211-17.029,5.37-2.814,5.37-2.814Z" transform="translate(-1665.449 -1210.385)" fill="#f99746"/>
      <path id="Trazado_128146" data-name="Trazado 128146" d="M1853.525,1776.861s2.81,2.564,2.261,4.386-3.084,3.037-3.427,5.264-1.713,3.442-2.947,3.442h-5.882s-.908-1.567,1.285-2.04,3.02-3.089,2.883-5.519a42.811,42.811,0,0,1,.206-5.669l4.66-1.08Z" transform="translate(-1800.593 -1630.492)" fill="#1f447f"/>
      <path id="Trazado_128147" data-name="Trazado 128147" d="M1724.338,1786.147s1.011,10.864-.222,11.471l-15.788-.032s0-1.822,2.536-2.227,6.99-1.89,7.744-5.2S1724.338,1786.147,1724.338,1786.147Z" transform="translate(-1695.19 -1638.69)" fill="#1c3154"/>
      <path id="Trazado_128148" data-name="Trazado 128148" d="M1735.169,1246.965a62.794,62.794,0,0,1,0,7.3c-.156,2.638-2.825,6.172-3.2,7.046-.95,2.193-2.022,2.549-2.022,2.549l-8.289,2.032-2.915.713-9.191-2.745s-4.186-11.685-2.505-18.262a50.551,50.551,0,0,1,4.249-11.145s6.246-1.4,17.266-.623Z" transform="translate(-1693.876 -1207.327)" fill="#f99746"/>
      <path id="Trazado_128149" data-name="Trazado 128149" d="M1784.054,1302.824c-.156,2.638-3.615,6.08-3.993,6.954-.95,2.193-2.022,2.549-2.022,2.549l-8.289,2.032-1.5-4.29s12.112-3.182,10.164-14.391Z" transform="translate(-1741.971 -1255.796)" fill="#ed7d2b"/>
      <path id="Trazado_128150" data-name="Trazado 128150" d="M1705.282,1379.674s-4.552,14.168-4.844,18.991,8.7,68.523,9.063,70.746c.341,2.095,2.943,3.43,2.943,3.43a3.937,3.937,0,0,0,2.9.224,7.18,7.18,0,0,0,3.118-1.47s3.543-45.43,1.351-61.659a257.016,257.016,0,0,1-2.219-30.263Z" transform="translate(-1689.025 -1321.369)" fill="#233862"/>
      <path id="Trazado_128151" data-name="Trazado 128151" d="M1747.166,1377.748s6.943,9.316,7.59,15.613,1.016,28.418,2.394,34.557,6.446,17.954,6.446,37.1a3.82,3.82,0,0,1-2.153,1.682,17.718,17.718,0,0,1-1.893.523,2.976,2.976,0,0,1-3.329-1.58c-3.425-6.9-14.336-29.14-14.9-33.758-.4-3.268-3.841-24.894-11.356-37.584-1.8-3.047,1.107-15.162,1.107-15.162Z" transform="translate(-1711.624 -1319.866)" fill="#2a4e96"/>
      <path id="Trazado_128152" data-name="Trazado 128152" d="M1718.314,1369.7a9.54,9.54,0,0,0,5.457,1.519c4.336.087,15.08-1.105,15.08-1.105a8.882,8.882,0,0,1,.458,2.742s-13.122,3.31-20.725.483A4.8,4.8,0,0,1,1718.314,1369.7Z" transform="translate(-1702.783 -1313.584)" fill="#233862"/>
      <g id="Grupo_93969" data-name="Grupo 93969" transform="translate(17.969 56.894)">
        <path id="Trazado_128153" data-name="Trazado 128153" d="M1732.33,1377.721a2.256,2.256,0,1,1,1.979-2.239A2.123,2.123,0,0,1,1732.33,1377.721Zm0-3.823a1.609,1.609,0,1,0,1.323,1.584A1.473,1.473,0,0,0,1732.33,1373.9Z" transform="translate(-1730.352 -1373.242)" fill="#fff"/>
      </g>
      <path id="Trazado_128154" data-name="Trazado 128154" d="M1677.853,1331.055l-19.722.185-9.7-22.807,19.722-.184Z" transform="translate(-1648.426 -1265.609)" fill="#b5453c"/>
      <path id="Trazado_128155" data-name="Trazado 128155" d="M1734.822,1352.394l-1.446-1.776a5.085,5.085,0,0,0-1.688-1.021c-.71-.148-2.209-1.013-2.354-.769s1.152,1.982,1.152,1.982l.066.009c-1.489,1.12-5.248.131-5.712.588-.562.554.774,1.751,1.491,2.423s2.768,1.793,4.366,1.3c1.169-.364,3.008-.734,3.008-.734Z" transform="translate(-1707.974 -1297.254)" fill="#ffb27d"/>
      <path id="Trazado_128156" data-name="Trazado 128156" d="M1654.739,1324.12s1.239-1.409,2.028-.733-.207,4-.958,3.662S1654.307,1324.533,1654.739,1324.12Z" transform="translate(-1653.256 -1277.285)" fill="#ffb27d"/>
      <path id="Trazado_128157" data-name="Trazado 128157" d="M1770.912,1234.67s5.646.623,9.7,7.984c3.195,5.805,8.657,16.507,6.6,19.53-.9,1.327-9.578,6.05-26.307,3.351a5.062,5.062,0,0,1,1.613-3.092s14.078-4.52,14.054-5.419c-.046-1.7-1.9-3.17-9.766-11.037C1764.662,1243.848,1770.912,1234.67,1770.912,1234.67Z" transform="translate(-1736.23 -1208.169)" fill="#f99746"/>
      <path id="Trazado_128158" data-name="Trazado 128158" d="M1756.393,1205.3c.194-.26-.056-1.09-.366-2.634a28.864,28.864,0,0,1-.747-6l-.416.07-7,1.177s.159,1.871.164,3.634c0,.015,0,.029,0,.044.009,1.531-.413,3.844.1,4.146C1750.786,1207.3,1755.647,1206.306,1756.393,1205.3Z" transform="translate(-1726.056 -1178.505)" fill="#ffb27d"/>
      <path id="Trazado_128159" data-name="Trazado 128159" d="M1747.867,1198.167s.139,2.638.144,4.4c3.916-.094,6.006-3.9,6.854-5.578Z" transform="translate(-1726.056 -1178.754)" fill="#e8945b"/>
      <path id="Trazado_128160" data-name="Trazado 128160" d="M1728.844,1159.117s9.173-1.307,8.271-7.007-.324-9.708-6.219-9.114-6.686,2.948-6.848,4.923S1726.435,1159.31,1728.844,1159.117Z" transform="translate(-1707.456 -1136.557)" fill="#ffb27d"/>
      <path id="Trazado_128161" data-name="Trazado 128161" d="M1736.2,1139.969s3.57,6.287,7.572,6.663,5.505-.92,5.505-.92a11.024,11.024,0,0,1-4.585-5.864S1737.579,1136.486,1736.2,1139.969Z" transform="translate(-1716.945 -1133.006)" fill="#163560"/>
      <path id="Trazado_128162" data-name="Trazado 128162" d="M1724.543,1144.588a5.748,5.748,0,0,0-2.3,2.467,9.328,9.328,0,0,0-.4,5.429s-2.611-4.244-.9-7.152C1722.759,1142.247,1724.543,1144.588,1724.543,1144.588Z" transform="translate(-1704.584 -1137.181)" fill="#163560"/>
    </g>
  </g>
</svg>
