<svg xmlns="http://www.w3.org/2000/svg" width="610" height="285.145" viewBox="0 0 610 285.145">
  <g id="Grupo_93986" data-name="Grupo 93986" transform="translate(-705 -1092)">
    <g id="Grupo_93985" data-name="Grupo 93985">
      <rect id="Imagen_1" data-name="Imagen 1" width="610" height="285" rx="19" transform="translate(705 1092)" fill="#85d161"/>
      <g id="Grupo_93299" data-name="Grupo 93299" transform="translate(629.585 943.982)">
        <g id="Grupo_93043" data-name="Grupo 93043" transform="translate(160.505 177.935)">
          <g id="Grupo_93042" data-name="Grupo 93042">
            <g id="Grupo_93041" data-name="Grupo 93041">
              <path id="Trazado_127506" data-name="Trazado 127506" d="M472.95,209.9c-78.729-2.246-62.334-31.891-133.891-31.961C141.863,177.742,203.571,431.7,203.571,431.7l403.958.529C678.289,362.673,619.783,214.083,472.95,209.9Z" transform="translate(-194.427 -177.935)" fill="#e1f3d7"/>
            </g>
          </g>
        </g>
        <g id="Grupo_93067" data-name="Grupo 93067" transform="translate(459.197 360.577)">
          <g id="Grupo_93053" data-name="Grupo 93053">
            <g id="Grupo_93046" data-name="Grupo 93046">
              <g id="Grupo_93045" data-name="Grupo 93045">
                <g id="Grupo_93044" data-name="Grupo 93044">
                  <path id="Trazado_127507" data-name="Trazado 127507" d="M2118.548,1427.067c1.037-.829,18.039-33.719,29.236-18.167,0,0,16.8-57.021,39.811-54.325s3.525,44.995,3.525,44.995,19.7-8.087,15.136,13.27c0,0,25.089-4.562,23.223,13.478Z" transform="translate(-2118.548 -1354.482)" fill="#3f9896"/>
                </g>
              </g>
            </g>
            <g id="Grupo_93049" data-name="Grupo 93049" transform="translate(88.695 11.451)">
              <g id="Grupo_93048" data-name="Grupo 93048" transform="translate(0 0)">
                <g id="Grupo_93047" data-name="Grupo 93047">
                  <ellipse id="Elipse_5142" data-name="Elipse 5142" cx="8.709" cy="4.665" rx="8.709" ry="4.665" transform="translate(0 13.41) rotate(-50.345)" fill="#3f9896"/>
                </g>
              </g>
            </g>
            <g id="Grupo_93052" data-name="Grupo 93052" transform="translate(97.144 30.146)">
              <g id="Grupo_93051" data-name="Grupo 93051">
                <g id="Grupo_93050" data-name="Grupo 93050">
                  <path id="Trazado_127508" data-name="Trazado 127508" d="M2746.121,1551.257c-1.817,2.192-2.338,4.758-1.164,5.731s3.6-.014,5.416-2.206,2.338-4.758,1.164-5.732S2747.938,1549.065,2746.121,1551.257Z" transform="translate(-2744.33 -1548.676)" fill="#3f9896"/>
                </g>
              </g>
            </g>
          </g>
          <g id="Grupo_93060" data-name="Grupo 93060" transform="translate(71.471 46.283)">
            <g id="Grupo_93056" data-name="Grupo 93056">
              <g id="Grupo_93055" data-name="Grupo 93055">
                <g id="Grupo_93054" data-name="Grupo 93054">
                  <path id="Trazado_127509" data-name="Trazado 127509" d="M2579.14,1655.6a.241.241,0,0,1-.083-.436c.2-.135,4.976-3.283,9.166-2.374h0a.241.241,0,0,1-.1.471h0c-3.989-.865-8.748,2.272-8.8,2.3A.241.241,0,0,1,2579.14,1655.6Z" transform="translate(-2578.95 -1652.631)"/>
                </g>
              </g>
            </g>
            <g id="Grupo_93059" data-name="Grupo 93059" transform="translate(3.209 1.625)">
              <g id="Grupo_93058" data-name="Grupo 93058">
                <g id="Grupo_93057" data-name="Grupo 93057">
                  <path id="Trazado_127510" data-name="Trazado 127510" d="M2599.81,1664.807a.241.241,0,0,1-.082-.436,10.6,10.6,0,0,1,6.212-1.245.241.241,0,0,1-.03.481,10.293,10.293,0,0,0-5.917,1.166A.239.239,0,0,1,2599.81,1664.807Z" transform="translate(-2599.62 -1663.098)"/>
                </g>
              </g>
            </g>
          </g>
          <g id="Grupo_93063" data-name="Grupo 93063" transform="translate(14.836 54.259)">
            <g id="Grupo_93062" data-name="Grupo 93062">
              <g id="Grupo_93061" data-name="Grupo 93061">
                <path id="Trazado_127511" data-name="Trazado 127511" d="M2214.36,1708.68a.241.241,0,0,1-.173-.408c.168-.174,4.166-4.263,8.454-4.263a.241.241,0,1,1,0,.481h0c-4.086,0-8.068,4.075-8.108,4.116A.24.24,0,0,1,2214.36,1708.68Z" transform="translate(-2214.12 -1704.009)"/>
              </g>
            </g>
          </g>
          <g id="Grupo_93066" data-name="Grupo 93066" transform="translate(18.048 55.656)">
            <g id="Grupo_93065" data-name="Grupo 93065">
              <g id="Grupo_93064" data-name="Grupo 93064">
                <path id="Trazado_127512" data-name="Trazado 127512" d="M2235.052,1715.954a.24.24,0,0,1-.172-.408,10.6,10.6,0,0,1,5.807-2.534.241.241,0,0,1,.073.476,10.342,10.342,0,0,0-5.535,2.394A.24.24,0,0,1,2235.052,1715.954Z" transform="translate(-2234.812 -1713.01)"/>
              </g>
            </g>
          </g>
        </g>
        <g id="Grupo_93085" data-name="Grupo 93085" transform="translate(160.415 375.005)">
          <g id="Grupo_93071" data-name="Grupo 93071" transform="translate(0)">
            <g id="Grupo_93070" data-name="Grupo 93070">
              <g id="Grupo_93069" data-name="Grupo 93069">
                <g id="Grupo_93068" data-name="Grupo 93068">
                  <path id="Trazado_127513" data-name="Trazado 127513" d="M282.807,1505.582c-.831-.665-14.454-27.017-23.425-14.557,0,0-13.457-45.687-31.9-43.527s-2.824,36.051-2.824,36.051-15.783-6.479-12.128,10.632c0,0-20.1-3.655-18.607,10.8Z" transform="translate(-193.846 -1447.424)" fill="#3f9896"/>
                </g>
              </g>
            </g>
          </g>
          <g id="Grupo_93078" data-name="Grupo 93078" transform="translate(23.881 37.084)">
            <g id="Grupo_93074" data-name="Grupo 93074" transform="translate(0.232)">
              <g id="Grupo_93073" data-name="Grupo 93073">
                <g id="Grupo_93072" data-name="Grupo 93072">
                  <path id="Trazado_127514" data-name="Trazado 127514" d="M356.61,1688.692a.193.193,0,0,0,.066-.349c-.161-.108-3.986-2.63-7.344-1.9h0a.193.193,0,0,0,.082.377h0c3.2-.693,7.009,1.82,7.048,1.846A.193.193,0,0,0,356.61,1688.692Z" transform="translate(-349.178 -1686.31)"/>
                </g>
              </g>
            </g>
            <g id="Grupo_93077" data-name="Grupo 93077" transform="translate(0 1.302)">
              <g id="Grupo_93076" data-name="Grupo 93076">
                <g id="Grupo_93075" data-name="Grupo 93075">
                  <path id="Trazado_127515" data-name="Trazado 127515" d="M352.774,1696.065a.193.193,0,0,0,.065-.349,8.5,8.5,0,0,0-4.977-1,.193.193,0,0,0,.024.385,8.247,8.247,0,0,1,4.74.934A.192.192,0,0,0,352.774,1696.065Z" transform="translate(-347.681 -1694.696)"/>
                </g>
              </g>
            </g>
          </g>
          <g id="Grupo_93081" data-name="Grupo 93081" transform="translate(70.051 43.474)">
            <g id="Grupo_93080" data-name="Grupo 93080">
              <g id="Grupo_93079" data-name="Grupo 93079">
                <path id="Trazado_127516" data-name="Trazado 127516" d="M651.933,1731.218a.193.193,0,0,0,.139-.327c-.135-.139-3.338-3.415-6.774-3.415a.193.193,0,1,0,0,.386h0c3.273,0,6.464,3.265,6.5,3.3A.192.192,0,0,0,651.933,1731.218Z" transform="translate(-645.103 -1727.475)"/>
              </g>
            </g>
          </g>
          <g id="Grupo_93084" data-name="Grupo 93084" transform="translate(69.571 44.593)">
            <g id="Grupo_93083" data-name="Grupo 93083">
              <g id="Grupo_93082" data-name="Grupo 93082">
                <path id="Trazado_127517" data-name="Trazado 127517" d="M646.744,1737.047a.193.193,0,0,0,.138-.328,8.5,8.5,0,0,0-4.653-2.03.193.193,0,1,0-.058.381,8.287,8.287,0,0,1,4.435,1.918A.193.193,0,0,0,646.744,1737.047Z" transform="translate(-642.008 -1734.687)"/>
              </g>
            </g>
          </g>
        </g>
        <path id="Trazado_127518" data-name="Trazado 127518" d="M1628.895,1121.349,1521.18,1229.064v.1h153.647A153.18,153.18,0,0,0,1628.895,1121.349Z" transform="translate(-1154.716 -796.962)" fill="#90ddb8"/>
        <path id="Trazado_127519" data-name="Trazado 127519" d="M532.082,1229.437H685.628v-.1L577.963,1121.672A153.182,153.182,0,0,0,532.082,1229.437Z" transform="translate(-319.161 -797.235)" fill="#fde07e"/>
        <path id="Trazado_127520" data-name="Trazado 127520" d="M935.3,989.2V837.412a153.156,153.156,0,0,0-107.665,44.127Z" transform="translate(-568.836 -557.102)" fill="#fd963d"/>
        <path id="Trazado_127521" data-name="Trazado 127521" d="M1521.178,989.2l107.715-107.715a153.154,153.154,0,0,0-107.715-44.077Z" transform="translate(-1154.714 -557.102)" fill="#6eafea"/>
        <path id="Trazado_127522" data-name="Trazado 127522" d="M2141.366,1121.349l-13.423,13.423q3.1,2.912,6.04,6.013c22.006,23.2,34.219,53.972,38.648,88.38H2187.3A153.179,153.179,0,0,0,2141.366,1121.349Z" transform="translate(-1667.288 -796.962)" fill="#90ddb8" opacity="0.3" style="mix-blend-mode: multiply;isolation: isolate"/>
        <path id="Trazado_127523" data-name="Trazado 127523" d="M531.432,1229.437h16.589c4.424-34.382,14.495-65.133,36.476-88.33q2.984-3.15,6.138-6.113l-13.322-13.322A153.181,153.181,0,0,0,531.432,1229.437Z" transform="translate(-318.612 -797.235)" fill="#fcd03e" opacity="0.3" style="mix-blend-mode: multiply;isolation: isolate"/>
        <path id="Trazado_127524" data-name="Trazado 127524" d="M840.311,894.862c25.179-23.649,58.152-37.989,94.248-38.014h.095V837.412a153.156,153.156,0,0,0-107.665,44.127Z" transform="translate(-568.288 -557.102)" fill="#fecc86" opacity="0.3" style="mix-blend-mode: multiply;isolation: isolate"/>
        <path id="Trazado_127525" data-name="Trazado 127525" d="M1520.529,856.847c36.117.027,69.107,14.386,94.292,38.064l13.423-13.423a153.153,153.153,0,0,0-107.715-44.077Z" transform="translate(-1154.166 -557.102)" fill="#6eafea" opacity="0.3" style="mix-blend-mode: multiply;isolation: isolate"/>
        <g id="Grupo_93086" data-name="Grupo 93086" transform="translate(242.422 362.878)">
          <path id="Trazado_127526" data-name="Trazado 127526" d="M734.043,1640.366a7.777,7.777,0,0,0-.1-5.283,6.3,6.3,0,0,0-8.3-2.129,7.753,7.753,0,0,0-2.641,4.579l-.875,3.412,20.374,5.225.536-2.091-9.327-2.392Zm-1.6-.895-.455,1.774-7.429-1.9.455-1.775a4.673,4.673,0,0,1,1.724-2.864,3.7,3.7,0,0,1,3.08-.317,3.611,3.611,0,0,1,2.49,1.753A4.68,4.68,0,0,1,732.44,1639.471Z" transform="translate(-722.121 -1591.333)" fill="#fff"/>
          <path id="Trazado_127527" data-name="Trazado 127527" d="M763.787,1549.456q-5.117-1.671-8.2-1.124a4.78,4.78,0,0,0-2.7,8.234q2.165,2.246,7.3,3.921t8.21,1.141a4.767,4.767,0,0,0,2.688-8.236Q768.9,1551.127,763.787,1549.456Zm6.7,8.3q-.577,1.769-2.941,1.871a22.5,22.5,0,0,1-7.13-1.453,17.842,17.842,0,0,1-5.838-2.8,2.744,2.744,0,0,1,1.756-5.037,27.895,27.895,0,0,1,12.954,4.229A2.83,2.83,0,0,1,770.49,1557.755Z" transform="translate(-746.818 -1520.426)" fill="#fff"/>
          <path id="Trazado_127528" data-name="Trazado 127528" d="M796.893,1460.651q-4.981-2.038-8.1-1.717a4.78,4.78,0,0,0-3.287,8.016q2,2.4,6.991,4.441t8.106,1.736a4.767,4.767,0,0,0,3.281-8.018Q801.875,1462.69,796.893,1460.651Zm6.081,8.764q-.7,1.722-3.07,1.652a22.5,22.5,0,0,1-7.005-1.969,17.84,17.84,0,0,1-5.619-3.219,2.744,2.744,0,0,1,2.118-4.9,27.892,27.892,0,0,1,12.612,5.16A2.83,2.83,0,0,1,802.975,1469.416Z" transform="translate(-774.576 -1444.983)" fill="#fff"/>
          <path id="Trazado_127529" data-name="Trazado 127529" d="M827.3,1372.257a5.736,5.736,0,0,0-2.491-2.217,5.043,5.043,0,0,0-4.466-.376,7.981,7.981,0,0,0-3.53,3.936l-1.732,3.421,18.764,9.5.975-1.926-8.869-4.492.379-.748q.186-.367.391-.8t.572-1.223l10.351,1.692,1.052-2.078-10.891-1.663A4.52,4.52,0,0,0,827.3,1372.257Zm-2.219,5.356-.828,1.635-6.538-3.311.828-1.635a4.952,4.952,0,0,1,2.284-2.5,4.047,4.047,0,0,1,4.9,2.5A4.933,4.933,0,0,1,825.078,1377.613Z" transform="translate(-800.647 -1369.301)" fill="#fff"/>
        </g>
        <g id="Grupo_93087" data-name="Grupo 93087" transform="translate(451.76 363.373)">
          <path id="Trazado_127530" data-name="Trazado 127530" d="M2086.858,1372.518q-3.094-.258-8.368,2.036-4.885,2.123-6.729,4.559a4.849,4.849,0,0,0-.65,5.184,5.02,5.02,0,0,0,1.189,1.737,4.514,4.514,0,0,0,1.77.972l-1.03.7.606,1.394,9.039-3.93-2.033-4.676-1.732.753,1.217,2.8-2.266.985a4.644,4.644,0,0,1-3.014.4,2.734,2.734,0,0,1-1.886-1.666,3.159,3.159,0,0,1,.715-3.609,17.3,17.3,0,0,1,5.761-3.543,20.824,20.824,0,0,1,6.9-2.057,2.958,2.958,0,0,1,3.086,1.772,2.534,2.534,0,0,1-.214,2.517,6.952,6.952,0,0,1-2.845,2.236l.832,1.914a7.582,7.582,0,0,0,3.88-3.2,4.6,4.6,0,0,0,.091-4.19A4.839,4.839,0,0,0,2086.858,1372.518Z" transform="translate(-2070.642 -1372.492)" fill="#fff"/>
          <path id="Trazado_127531" data-name="Trazado 127531" d="M2120.19,1460.487q-3.087-.451-8.169,1.364t-7.192,4.121a4.767,4.767,0,0,0,2.913,8.159q3.112.457,8.181-1.353t7.174-4.13a4.78,4.78,0,0,0-2.906-8.161Zm1.088,7.038a27.894,27.894,0,0,1-12.833,4.582,2.829,2.829,0,0,1-2.9-1.792q-.626-1.752,1.182-3.279a22.491,22.491,0,0,1,6.528-3.213,17.839,17.839,0,0,1,6.332-1.356,2.744,2.744,0,0,1,1.693,5.058Z" transform="translate(-2098.288 -1446.751)" fill="#fff"/>
          <path id="Trazado_127532" data-name="Trazado 127532" d="M2147.964,1551.232q-3.046-.676-8.247.761t-7.475,3.583a4.767,4.767,0,0,0,2.307,8.351q3.07.684,8.258-.749t7.458-3.592a4.78,4.78,0,0,0-2.3-8.352Zm.569,7.1a27.887,27.887,0,0,1-13.135,3.629,2.83,2.83,0,0,1-2.763-2q-.5-1.794,1.419-3.184a22.5,22.5,0,0,1,6.747-2.726,17.841,17.841,0,0,1,6.415-.888,2.744,2.744,0,0,1,1.317,5.169Z" transform="translate(-2121.231 -1523.303)" fill="#fff"/>
          <path id="Trazado_127533" data-name="Trazado 127533" d="M2168.888,1639.747l-20.667,3.907.726,3.838a5.916,5.916,0,0,0,3.438,4.764q2.756,1.162,8.227.129,5.414-1.023,7.549-3.111a5.923,5.923,0,0,0,1.454-5.688Zm-2.22,8.094q-1.627,1.522-6.386,2.422-4.829.913-6.915.086t-2.64-3.758q-.035-.182-.065-.421t-.081-.736l16.871-3.19q.134.48.194.722t.1.437Q2168.3,1646.32,2166.668,1647.842Z" transform="translate(-2136.178 -1598.26)" fill="#fff"/>
        </g>
        <path id="Trazado_127534" data-name="Trazado 127534" d="M1416.621,1696.011h0q-.3-.01-.606-.01a18.607,18.607,0,0,0-18.609,18.609h37.217a18.607,18.607,0,0,0-18-18.6Z" transform="translate(-1050.154 -1282.408)" fill="#49263e"/>
        <path id="Trazado_127535" data-name="Trazado 127535" d="M1457.475,1033.2l8.591-4.295L1488.9,890.241l-37.278,133.6Z" transform="translate(-1095.955 -601.73)" fill="#49263e"/>
        <g id="Grupo_93297" data-name="Grupo 93297" transform="translate(276.689 288.963)">
          <g id="Grupo_93088" data-name="Grupo 93088" transform="translate(3.854 127.755)">
            <path id="Trazado_127536" data-name="Trazado 127536" d="M973.151,1716.134c-.193.048-4.364,1.441-4.364,1.441a8.972,8.972,0,0,0-1.095,2.858c.048.821.483,2.753,1.353,3.285s1.014.918,1.787.628a18.372,18.372,0,0,0,2.035-1.02l5.356-5.795S973.345,1716.085,973.151,1716.134Z" transform="translate(-967.691 -1716.133)" fill="#ffb294"/>
          </g>
          <g id="Grupo_93101" data-name="Grupo 93101" transform="translate(46.469 131.757)">
            <g id="Grupo_93100" data-name="Grupo 93100">
              <g id="Grupo_93099" data-name="Grupo 93099">
                <g id="Grupo_93098" data-name="Grupo 93098">
                  <g id="Grupo_93097" data-name="Grupo 93097">
                    <g id="Grupo_93096" data-name="Grupo 93096">
                      <g id="Grupo_93095" data-name="Grupo 93095">
                        <g id="Grupo_93094" data-name="Grupo 93094">
                          <g id="Grupo_93093" data-name="Grupo 93093">
                            <g id="Grupo_93092" data-name="Grupo 93092">
                              <g id="Grupo_93091" data-name="Grupo 93091">
                                <g id="Grupo_93090" data-name="Grupo 93090">
                                  <g id="Grupo_93089" data-name="Grupo 93089">
                                    <path id="Trazado_127537" data-name="Trazado 127537" d="M1242.21,1749.15l.023,1.952,7-.024,3.86-8.253-8.131-.915Z" transform="translate(-1242.21 -1741.911)" fill="#ffb294"/>
                                  </g>
                                </g>
                              </g>
                            </g>
                          </g>
                        </g>
                      </g>
                    </g>
                  </g>
                </g>
              </g>
            </g>
          </g>
          <g id="Grupo_93152" data-name="Grupo 93152" transform="translate(45.996 137.026)">
            <g id="Grupo_93105" data-name="Grupo 93105" transform="translate(0.065 1.101)">
              <g id="Grupo_93104" data-name="Grupo 93104">
                <g id="Grupo_93103" data-name="Grupo 93103">
                  <g id="Grupo_93102" data-name="Grupo 93102">
                    <path id="Trazado_127538" data-name="Trazado 127538" d="M1257.543,1786.319h-1.22l-5.664-3.373-3.1,3.373h-7.638a.345.345,0,0,0-.345.345v1.157a.236.236,0,0,0,.236.236h17.759a.87.87,0,0,0,.853-1.041A.891.891,0,0,0,1257.543,1786.319Z" transform="translate(-1239.579 -1782.946)" fill="#fec786"/>
                  </g>
                </g>
              </g>
            </g>
            <g id="Grupo_93109" data-name="Grupo 93109" transform="translate(0.478 0.059)">
              <g id="Grupo_93108" data-name="Grupo 93108">
                <g id="Grupo_93107" data-name="Grupo 93107">
                  <g id="Grupo_93106" data-name="Grupo 93106">
                    <path id="Trazado_127539" data-name="Trazado 127539" d="M1257.541,1779.113l-6.485-2.876a4.405,4.405,0,0,1-5.574.442,2.715,2.715,0,0,0-3.245.848v3.135H1259.8C1259.319,1779.707,1257.541,1779.113,1257.541,1779.113Z" transform="translate(-1242.238 -1776.236)" fill="#3aa1c9"/>
                  </g>
                </g>
              </g>
            </g>
            <g id="Grupo_93115" data-name="Grupo 93115" transform="translate(0.413 1.349)">
              <g id="Grupo_93114" data-name="Grupo 93114">
                <g id="Grupo_93113" data-name="Grupo 93113">
                  <g id="Grupo_93112" data-name="Grupo 93112">
                    <g id="Grupo_93111" data-name="Grupo 93111">
                      <g id="Grupo_93110" data-name="Grupo 93110">
                        <rect id="Rectángulo_36075" data-name="Rectángulo 36075" width="0.13" height="3.12"/>
                      </g>
                    </g>
                  </g>
                </g>
              </g>
            </g>
            <g id="Grupo_93121" data-name="Grupo 93121" transform="translate(3.686 0.448)">
              <g id="Grupo_93120" data-name="Grupo 93120">
                <g id="Grupo_93119" data-name="Grupo 93119">
                  <g id="Grupo_93118" data-name="Grupo 93118">
                    <g id="Grupo_93117" data-name="Grupo 93117">
                      <g id="Grupo_93116" data-name="Grupo 93116">
                        <path id="Trazado_127540" data-name="Trazado 127540" d="M1262.977,1778.736l-.074.107a4.8,4.8,0,0,0,2.692.828,3.085,3.085,0,0,0,.4-.022l-.019-.128A4.607,4.607,0,0,1,1262.977,1778.736Z" transform="translate(-1262.903 -1778.736)"/>
                      </g>
                    </g>
                  </g>
                </g>
              </g>
            </g>
            <g id="Grupo_93127" data-name="Grupo 93127" transform="translate(1.228 3.232)">
              <g id="Grupo_93126" data-name="Grupo 93126" transform="translate(0 0)">
                <g id="Grupo_93125" data-name="Grupo 93125">
                  <g id="Grupo_93124" data-name="Grupo 93124">
                    <g id="Grupo_93123" data-name="Grupo 93123">
                      <g id="Grupo_93122" data-name="Grupo 93122">
                        <rect id="Rectángulo_36076" data-name="Rectángulo 36076" width="0.13" height="0.999" transform="translate(0 0.108) rotate(-56.009)"/>
                      </g>
                    </g>
                  </g>
                </g>
              </g>
            </g>
            <g id="Grupo_93133" data-name="Grupo 93133" transform="translate(1.822 3.074)">
              <g id="Grupo_93132" data-name="Grupo 93132" transform="translate(0 0)">
                <g id="Grupo_93131" data-name="Grupo 93131">
                  <g id="Grupo_93130" data-name="Grupo 93130">
                    <g id="Grupo_93129" data-name="Grupo 93129">
                      <g id="Grupo_93128" data-name="Grupo 93128">
                        <rect id="Rectángulo_36077" data-name="Rectángulo 36077" width="0.13" height="0.999" transform="translate(0 0.108) rotate(-56.007)"/>
                      </g>
                    </g>
                  </g>
                </g>
              </g>
            </g>
            <g id="Grupo_93145" data-name="Grupo 93145" transform="translate(0 4.415)">
              <g id="Grupo_93144" data-name="Grupo 93144">
                <g id="Grupo_93143" data-name="Grupo 93143">
                  <g id="Grupo_93142" data-name="Grupo 93142">
                    <g id="Grupo_93141" data-name="Grupo 93141">
                      <g id="Grupo_93140" data-name="Grupo 93140">
                        <g id="Grupo_93139" data-name="Grupo 93139">
                          <g id="Grupo_93138" data-name="Grupo 93138">
                            <g id="Grupo_93137" data-name="Grupo 93137">
                              <g id="Grupo_93136" data-name="Grupo 93136">
                                <g id="Grupo_93135" data-name="Grupo 93135">
                                  <g id="Grupo_93134" data-name="Grupo 93134">
                                    <path id="Trazado_127541" data-name="Trazado 127541" d="M1257.222,1804.294h-17.56a.5.5,0,0,0-.5.5v.867h.13v-.867a.371.371,0,0,1,.371-.371h17.56a.8.8,0,0,1,.52,1.418l.084.1a.934.934,0,0,0-.6-1.647Z" transform="translate(-1239.161 -1804.294)"/>
                                  </g>
                                </g>
                              </g>
                            </g>
                          </g>
                        </g>
                      </g>
                    </g>
                  </g>
                </g>
              </g>
            </g>
            <g id="Grupo_93151" data-name="Grupo 93151" transform="translate(9.27)">
              <g id="Grupo_93150" data-name="Grupo 93150">
                <g id="Grupo_93149" data-name="Grupo 93149">
                  <g id="Grupo_93148" data-name="Grupo 93148">
                    <g id="Grupo_93147" data-name="Grupo 93147">
                      <g id="Grupo_93146" data-name="Grupo 93146">
                        <path id="Trazado_127542" data-name="Trazado 127542" d="M1306.027,1778.98c-1.3-.556-7.042-3.1-7.1-3.127l-.053.119c.058.026,5.8,2.571,7.1,3.127a3.162,3.162,0,0,1,1.631,1.262l.118-.055A3.212,3.212,0,0,0,1306.027,1778.98Z" transform="translate(-1298.875 -1775.853)"/>
                      </g>
                    </g>
                  </g>
                </g>
              </g>
            </g>
          </g>
          <g id="Grupo_93153" data-name="Grupo 93153" transform="translate(45.064 74.182)">
            <path id="Trazado_127543" data-name="Trazado 127543" d="M1250.414,1371.027l-17.253,4.984v5.367s12.2,10.655,22.346,13.36l-19.632,34.212a15.806,15.806,0,0,0,10.885,4.382s26.848-39.13,26.858-43.705C1273.624,1386.351,1250.414,1371.027,1250.414,1371.027Z" transform="translate(-1233.161 -1371.027)" fill="#3d1f35"/>
          </g>
          <g id="Grupo_93154" data-name="Grupo 93154" transform="translate(3.64 62.35)">
            <path id="Trazado_127544" data-name="Trazado 127544" d="M1004.655,1295.522l-38.34,64.794a41.729,41.729,0,0,0,10.448,6.23s5.368-7.859,14.09-21.278,16.965-19.266,24.058-25.783a87.716,87.716,0,0,0,11.5-12.844L1016,1294.808Z" transform="translate(-966.315 -1294.808)" fill="#49263e"/>
          </g>
          <g id="Grupo_93155" data-name="Grupo 93155" transform="translate(0.891 129.153)">
            <path id="Trazado_127545" data-name="Trazado 127545" d="M960.16,1736.18a24.229,24.229,0,0,0-4.03-1.508l.617-3.737c-3.661-1.076-4.007-5.795-4.007-5.795l-3.32.4a.92.92,0,0,0-.751,1.24l4.235,11.183h7.257S961.182,1736.72,960.16,1736.18Z" transform="translate(-948.608 -1725.14)" fill="#3aa1c9"/>
          </g>
          <g id="Grupo_93156" data-name="Grupo 93156" transform="translate(0.078 130.147)">
            <path id="Trazado_127546" data-name="Trazado 127546" d="M955.913,1743.614a.491.491,0,0,0-.432-.249h-6.268a1.068,1.068,0,0,1-1-.69l-4.044-10.819a.476.476,0,0,0-.4-.318.377.377,0,0,0-.242.063.4.4,0,0,0-.135.464l4.006,11.609a1.232,1.232,0,0,0,1.163.824h6.975a.477.477,0,0,0,.485-.613A1.1,1.1,0,0,0,955.913,1743.614Z" transform="translate(-943.366 -1731.538)" fill="#fec786"/>
          </g>
          <g id="Grupo_93157" data-name="Grupo 93157" transform="translate(0 130.069)">
            <path id="Trazado_127547" data-name="Trazado 127547" d="M955.559,1743.154a.567.567,0,0,0-.5-.289h-6.269a1,1,0,0,1-.927-.639l-4.044-10.819a.551.551,0,0,0-.471-.367.44.44,0,0,0-.29.076.477.477,0,0,0-.164.553l.146-.05a.327.327,0,0,1,.106-.375.3.3,0,0,1,.193-.049.4.4,0,0,1,.335.267l4.044,10.819a1.151,1.151,0,0,0,1.071.74h6.269a.412.412,0,0,1,.364.209,1.031,1.031,0,0,1,.1.252.419.419,0,0,1-.067.365.424.424,0,0,1-.343.152v.154a.553.553,0,0,0,.56-.708A1.186,1.186,0,0,0,955.559,1743.154Z" transform="translate(-942.866 -1731.037)" fill="#1d1d1b"/>
          </g>
          <g id="Grupo_93158" data-name="Grupo 93158" transform="translate(4.433 129.197)">
            <path id="Trazado_127548" data-name="Trazado 127548" d="M972.9,1726.937l-.181-.362-.293-.687-.4-.469-.593,1.063s.992,2.174,1,2.186.208.51.208.51l.543-.311.018-.438-.16-.839Z" transform="translate(-971.426 -1725.419)" fill="#3aa1c9"/>
          </g>
          <g id="Grupo_93159" data-name="Grupo 93159" transform="translate(6.207 132.526)">
            <path id="Trazado_127549" data-name="Trazado 127549" d="M983.013,1747.83a2.272,2.272,0,0,0,.6.844l.421.243.781.265.729.091.032-.384-2.722-2.02Z" transform="translate(-982.851 -1746.869)" fill="#fe9f73"/>
          </g>
          <g id="Grupo_93160" data-name="Grupo 93160" transform="translate(8.393 138.61)">
            <path id="Trazado_127550" data-name="Trazado 127550" d="M996.935,1786.21c.035.009,3.578.942,4.3,1.733l.114-.1c-.751-.825-4.226-1.74-4.373-1.778Z" transform="translate(-996.935 -1786.06)" fill="#1d1d1b"/>
          </g>
          <g id="Grupo_93161" data-name="Grupo 93161" transform="translate(4.978 129.09)">
            <path id="Trazado_127551" data-name="Trazado 127551" d="M976.248,1728.379c-.224-2.911-1.186-3.617-1.226-3.645l-.089.126c.01.007.944.707,1.161,3.531.148,1.921,1.663,2.118,2.77,2.263l.031,0-.6,3.627-1.118.807.091.125,1.17-.844.635-3.847-.19-.025C977.771,1730.355,976.386,1730.175,976.248,1728.379Z" transform="translate(-974.933 -1724.734)" fill="#1d1d1b"/>
          </g>
          <g id="Grupo_93268" data-name="Grupo 93268" transform="translate(58.465 0)">
            <g id="Grupo_93166" data-name="Grupo 93166" transform="translate(4.334 1.053)">
              <g id="Grupo_93165" data-name="Grupo 93165">
                <g id="Grupo_93164" data-name="Grupo 93164">
                  <g id="Grupo_93163" data-name="Grupo 93163">
                    <g id="Grupo_93162" data-name="Grupo 93162">
                      <path id="Trazado_127552" data-name="Trazado 127552" d="M1355.174,901.406a9.739,9.739,0,0,0-5.971-1.433s-1.615,1.31-1.782,1.47,1.371-.061,1.371-.061l7.371,6.242.508-1.649A4.144,4.144,0,0,0,1355.174,901.406Z" transform="translate(-1347.408 -899.943)" fill="#ffb294"/>
                    </g>
                  </g>
                </g>
              </g>
            </g>
            <g id="Grupo_93174" data-name="Grupo 93174" transform="translate(0 1.48)">
              <g id="Grupo_93173" data-name="Grupo 93173">
                <g id="Grupo_93172" data-name="Grupo 93172">
                  <g id="Grupo_93171" data-name="Grupo 93171">
                    <g id="Grupo_93170" data-name="Grupo 93170">
                      <g id="Grupo_93169" data-name="Grupo 93169">
                        <g id="Grupo_93168" data-name="Grupo 93168">
                          <g id="Grupo_93167" data-name="Grupo 93167">
                            <path id="Trazado_127553" data-name="Trazado 127553" d="M1322.167,911.082l-.6,2.211a36.07,36.07,0,0,0-2.074,5.256,4.344,4.344,0,0,0,3.176,4.04,7.1,7.1,0,0,0,2.151.316c1.3-.01,1.376,2.94,1.606,1.661l1.64-7.343c2.27.36,2.932-2.157,2.932-2.157l2.144-6.954-8.079-5.419Z" transform="translate(-1319.488 -902.693)" fill="#ffb294"/>
                          </g>
                        </g>
                      </g>
                    </g>
                  </g>
                </g>
              </g>
            </g>
            <g id="Grupo_93182" data-name="Grupo 93182" transform="translate(6.813 7.504)">
              <g id="Grupo_93181" data-name="Grupo 93181">
                <g id="Grupo_93180" data-name="Grupo 93180">
                  <g id="Grupo_93179" data-name="Grupo 93179">
                    <g id="Grupo_93178" data-name="Grupo 93178">
                      <g id="Grupo_93177" data-name="Grupo 93177">
                        <g id="Grupo_93176" data-name="Grupo 93176">
                          <g id="Grupo_93175" data-name="Grupo 93175">
                            <path id="Trazado_127554" data-name="Trazado 127554" d="M1363.418,942.137a.108.108,0,1,0,.138.167c.062-.051,1.52-1.229,2.606-.124a.108.108,0,0,0,.154-.152C1365.091,940.782,1363.435,942.124,1363.418,942.137Z" transform="translate(-1363.379 -941.499)" fill="#4c222e"/>
                          </g>
                        </g>
                      </g>
                    </g>
                  </g>
                </g>
              </g>
            </g>
            <g id="Grupo_93190" data-name="Grupo 93190" transform="translate(11.732 8.228)">
              <g id="Grupo_93189" data-name="Grupo 93189">
                <g id="Grupo_93188" data-name="Grupo 93188">
                  <g id="Grupo_93187" data-name="Grupo 93187">
                    <g id="Grupo_93186" data-name="Grupo 93186">
                      <g id="Grupo_93185" data-name="Grupo 93185">
                        <g id="Grupo_93184" data-name="Grupo 93184">
                          <g id="Grupo_93183" data-name="Grupo 93183">
                            <path id="Trazado_127555" data-name="Trazado 127555" d="M1395.175,946.159a.108.108,0,1,0,0,.217c.012,0,1.23.034,1.316.7a.108.108,0,1,0,.215-.028C1396.592,946.2,1395.233,946.16,1395.175,946.159Z" transform="translate(-1395.065 -946.159)" fill="#4c222e"/>
                          </g>
                        </g>
                      </g>
                    </g>
                  </g>
                </g>
              </g>
            </g>
            <g id="Grupo_93198" data-name="Grupo 93198" transform="translate(7.973 8.972)">
              <g id="Grupo_93197" data-name="Grupo 93197">
                <g id="Grupo_93196" data-name="Grupo 93196">
                  <g id="Grupo_93195" data-name="Grupo 93195">
                    <g id="Grupo_93194" data-name="Grupo 93194">
                      <g id="Grupo_93193" data-name="Grupo 93193">
                        <g id="Grupo_93192" data-name="Grupo 93192">
                          <g id="Grupo_93191" data-name="Grupo 93191">
                            <path id="Trazado_127556" data-name="Trazado 127556" d="M1371.269,950.968a.325.325,0,1,0,.215.406A.325.325,0,0,0,1371.269,950.968Z" transform="translate(-1370.848 -950.954)"/>
                          </g>
                        </g>
                      </g>
                    </g>
                  </g>
                </g>
              </g>
            </g>
            <g id="Grupo_93206" data-name="Grupo 93206" transform="translate(11.37 9.679)">
              <g id="Grupo_93205" data-name="Grupo 93205">
                <g id="Grupo_93204" data-name="Grupo 93204">
                  <g id="Grupo_93203" data-name="Grupo 93203">
                    <g id="Grupo_93202" data-name="Grupo 93202">
                      <g id="Grupo_93201" data-name="Grupo 93201">
                        <g id="Grupo_93200" data-name="Grupo 93200">
                          <g id="Grupo_93199" data-name="Grupo 93199">
                            <path id="Trazado_127557" data-name="Trazado 127557" d="M1393.154,955.525a.325.325,0,1,0,.215.406A.325.325,0,0,0,1393.154,955.525Z" transform="translate(-1392.733 -955.511)"/>
                          </g>
                        </g>
                      </g>
                    </g>
                  </g>
                </g>
              </g>
            </g>
            <g id="Grupo_93214" data-name="Grupo 93214" transform="translate(0.691 0.766)">
              <g id="Grupo_93213" data-name="Grupo 93213">
                <g id="Grupo_93212" data-name="Grupo 93212">
                  <g id="Grupo_93211" data-name="Grupo 93211">
                    <g id="Grupo_93210" data-name="Grupo 93210">
                      <g id="Grupo_93209" data-name="Grupo 93209">
                        <g id="Grupo_93208" data-name="Grupo 93208">
                          <g id="Grupo_93207" data-name="Grupo 93207">
                            <path id="Trazado_127558" data-name="Trazado 127558" d="M1325.442,899.458c-1.377,2.095-.615,3.662-.8,4.355s-2.079,5.174,1.274,5.83l3.232-7.368-.192-3.39.457-.585S1326.819,897.363,1325.442,899.458Z" transform="translate(-1323.938 -898.092)" fill="#33192c"/>
                          </g>
                        </g>
                      </g>
                    </g>
                  </g>
                </g>
              </g>
            </g>
            <g id="Grupo_93222" data-name="Grupo 93222" transform="translate(2.262 5.969)">
              <g id="Grupo_93221" data-name="Grupo 93221">
                <g id="Grupo_93220" data-name="Grupo 93220">
                  <g id="Grupo_93219" data-name="Grupo 93219">
                    <g id="Grupo_93218" data-name="Grupo 93218">
                      <g id="Grupo_93217" data-name="Grupo 93217">
                        <g id="Grupo_93216" data-name="Grupo 93216">
                          <g id="Grupo_93215" data-name="Grupo 93215">
                            <path id="Trazado_127559" data-name="Trazado 127559" d="M1336.586,931.7a1.95,1.95,0,1,0,1.289,2.438A1.95,1.95,0,0,0,1336.586,931.7Z" transform="translate(-1334.061 -931.608)" fill="#ffb294"/>
                          </g>
                        </g>
                      </g>
                    </g>
                  </g>
                </g>
              </g>
            </g>
            <g id="Grupo_93230" data-name="Grupo 93230" transform="translate(3.171 6.795)">
              <g id="Grupo_93229" data-name="Grupo 93229">
                <g id="Grupo_93228" data-name="Grupo 93228">
                  <g id="Grupo_93227" data-name="Grupo 93227">
                    <g id="Grupo_93226" data-name="Grupo 93226">
                      <g id="Grupo_93225" data-name="Grupo 93225">
                        <g id="Grupo_93224" data-name="Grupo 93224">
                          <g id="Grupo_93223" data-name="Grupo 93223">
                            <path id="Trazado_127560" data-name="Trazado 127560" d="M1340.394,936.933a.054.054,0,0,0,0,.108,1.223,1.223,0,0,1,.811.308.88.88,0,0,1,.235.575.916.916,0,0,0-.968-.336.763.763,0,0,0-.557.761.813.813,0,0,0,.551.807l.011,0a.054.054,0,0,0,.031-.1l-.011,0a.7.7,0,0,1-.475-.7.663.663,0,0,1,.476-.658.848.848,0,0,1,.947.428l.091.172.011-.194a1.054,1.054,0,0,0-.266-.826A1.313,1.313,0,0,0,1340.394,936.933Z" transform="translate(-1339.917 -936.932)" fill="#f07162"/>
                          </g>
                        </g>
                      </g>
                    </g>
                  </g>
                </g>
              </g>
            </g>
            <g id="Grupo_93238" data-name="Grupo 93238" transform="translate(4.038 12.346)">
              <g id="Grupo_93237" data-name="Grupo 93237">
                <g id="Grupo_93236" data-name="Grupo 93236">
                  <g id="Grupo_93235" data-name="Grupo 93235">
                    <g id="Grupo_93234" data-name="Grupo 93234">
                      <g id="Grupo_93233" data-name="Grupo 93233">
                        <g id="Grupo_93232" data-name="Grupo 93232">
                          <g id="Grupo_93231" data-name="Grupo 93231">
                            <path id="Trazado_127561" data-name="Trazado 127561" d="M1345.648,972.688s-1.3,4.445,3.769,6.444l.62-2.779S1346.46,975.991,1345.648,972.688Z" transform="translate(-1345.498 -972.688)" fill="#f07162"/>
                          </g>
                        </g>
                      </g>
                    </g>
                  </g>
                </g>
              </g>
            </g>
            <g id="Grupo_93246" data-name="Grupo 93246" transform="translate(9.02 9.108)">
              <g id="Grupo_93245" data-name="Grupo 93245">
                <g id="Grupo_93244" data-name="Grupo 93244">
                  <g id="Grupo_93243" data-name="Grupo 93243">
                    <g id="Grupo_93242" data-name="Grupo 93242">
                      <g id="Grupo_93241" data-name="Grupo 93241">
                        <g id="Grupo_93240" data-name="Grupo 93240">
                          <g id="Grupo_93239" data-name="Grupo 93239">
                            <path id="Trazado_127562" data-name="Trazado 127562" d="M1379.278,951.832a.054.054,0,0,0-.062.044l-.425,2.543-1.144.023a.054.054,0,0,0-.015.106l.017,0,1.233-.025.44-2.632A.054.054,0,0,0,1379.278,951.832Z" transform="translate(-1377.594 -951.831)" fill="#f07162"/>
                          </g>
                        </g>
                      </g>
                    </g>
                  </g>
                </g>
              </g>
            </g>
            <g id="Grupo_93252" data-name="Grupo 93252" transform="translate(1.824 9.241)">
              <g id="Grupo_93251" data-name="Grupo 93251">
                <g id="Grupo_93250" data-name="Grupo 93250">
                  <g id="Grupo_93249" data-name="Grupo 93249">
                    <g id="Grupo_93248" data-name="Grupo 93248">
                      <g id="Grupo_93247" data-name="Grupo 93247">
                        <path id="Trazado_127563" data-name="Trazado 127563" d="M1331.24,956.079l1.2.481,1.082-3.51-.841-.365Z" transform="translate(-1331.24 -952.684)" fill="#ffb294"/>
                      </g>
                    </g>
                  </g>
                </g>
              </g>
            </g>
            <g id="Grupo_93257" data-name="Grupo 93257" transform="translate(3.244)">
              <g id="Grupo_93256" data-name="Grupo 93256">
                <g id="Grupo_93255" data-name="Grupo 93255">
                  <g id="Grupo_93254" data-name="Grupo 93254">
                    <g id="Grupo_93253" data-name="Grupo 93253">
                      <path id="Trazado_127564" data-name="Trazado 127564" d="M1351.339,896.157s1.161-2.527-1.47-2.484-7.029-1.424-8.958.408,2.1,4.135,2.1,4.135,8.059,1.971,9.118.268A1.471,1.471,0,0,0,1351.339,896.157Z" transform="translate(-1340.387 -893.158)" fill="#33192c"/>
                    </g>
                  </g>
                </g>
              </g>
            </g>
            <g id="Grupo_93261" data-name="Grupo 93261" transform="translate(4.089 3.514)">
              <g id="Grupo_93260" data-name="Grupo 93260">
                <g id="Grupo_93259" data-name="Grupo 93259">
                  <g id="Grupo_93258" data-name="Grupo 93258">
                    <path id="Trazado_127565" data-name="Trazado 127565" d="M1347.567,915.8a12.711,12.711,0,0,0-1.721.369c.222.03,1.757.634,1.757.634l-.527,1.709a3.6,3.6,0,0,1-.261,2.418s.429.327.637-.047.559-3.309,1.683-3.515S1347.664,915.779,1347.567,915.8Z" transform="translate(-1345.828 -915.795)" fill="#33192c"/>
                  </g>
                </g>
              </g>
            </g>
            <g id="Grupo_93267" data-name="Grupo 93267" transform="translate(8.171 12.197)">
              <g id="Grupo_93266" data-name="Grupo 93266">
                <g id="Grupo_93265" data-name="Grupo 93265">
                  <g id="Grupo_93264" data-name="Grupo 93264">
                    <g id="Grupo_93263" data-name="Grupo 93263">
                      <g id="Grupo_93262" data-name="Grupo 93262">
                        <path id="Trazado_127566" data-name="Trazado 127566" d="M1372.832,972.825a1.186,1.186,0,0,0,1.218-.46s-1.893-.629-1.924-.634A1.187,1.187,0,0,0,1372.832,972.825Z" transform="translate(-1372.126 -971.731)" fill="#fbfdfc"/>
                      </g>
                    </g>
                  </g>
                </g>
              </g>
            </g>
          </g>
          <g id="Grupo_93290" data-name="Grupo 93290" transform="translate(97.688 35.566)">
            <g id="Grupo_93271" data-name="Grupo 93271">
              <g id="Grupo_93270" data-name="Grupo 93270">
                <g id="Grupo_93269" data-name="Grupo 93269">
                  <path id="Trazado_127567" data-name="Trazado 127567" d="M1584.542,1126.261s.682-.951-.236-1.42c0,0,.761-1.037-.848-1.409a.9.9,0,0,0-.6-.983,6.838,6.838,0,0,0-2.831-.065c-.294.119-3.856,2.537-3.856,2.537s-3.77,3.745-4.018,3.9l3.2,6.545a30.943,30.943,0,0,0,4.908-3.343s0,0,0,0a1.564,1.564,0,0,0,.184-.213.026.026,0,0,0,.007-.007l.031-.052a5.839,5.839,0,0,1,.636-.9c.666-1.072,1.217-2.272,1.5-2.563a3.342,3.342,0,0,1,1.523-.494.893.893,0,0,0,.774-.808A.78.78,0,0,0,1584.542,1126.261Z" transform="translate(-1572.155 -1122.266)" fill="#ffb294"/>
                </g>
              </g>
            </g>
            <g id="Grupo_93277" data-name="Grupo 93277" transform="translate(7.265 1.066)">
              <g id="Grupo_93276" data-name="Grupo 93276">
                <g id="Grupo_93275" data-name="Grupo 93275">
                  <g id="Grupo_93274" data-name="Grupo 93274">
                    <g id="Grupo_93273" data-name="Grupo 93273">
                      <g id="Grupo_93272" data-name="Grupo 93272">
                        <path id="Trazado_127568" data-name="Trazado 127568" d="M1622.99,1129.134c-.091,0-2.232.093-2.644.209a7.854,7.854,0,0,0-1.346.72.1.1,0,0,0,.037.182.1.1,0,0,0,.072-.015,7.908,7.908,0,0,1,1.29-.694,24.394,24.394,0,0,1,2.6-.2.1.1,0,0,0,.1-.1A.1.1,0,0,0,1622.99,1129.134Z" transform="translate(-1618.954 -1129.133)" fill="#f07162"/>
                      </g>
                    </g>
                  </g>
                </g>
              </g>
            </g>
            <g id="Grupo_93283" data-name="Grupo 93283" transform="translate(8.4 2.475)">
              <g id="Grupo_93282" data-name="Grupo 93282">
                <g id="Grupo_93281" data-name="Grupo 93281">
                  <g id="Grupo_93280" data-name="Grupo 93280">
                    <g id="Grupo_93279" data-name="Grupo 93279">
                      <g id="Grupo_93278" data-name="Grupo 93278">
                        <path id="Trazado_127569" data-name="Trazado 127569" d="M1630.008,1138.21a21.315,21.315,0,0,0-2.463.43,7.155,7.155,0,0,0-1.232.676.1.1,0,0,0,.039.181.1.1,0,0,0,.074-.017,7.1,7.1,0,0,1,1.187-.653,21.919,21.919,0,0,1,2.419-.419.1.1,0,0,0,.089-.112A.1.1,0,0,0,1630.008,1138.21Z" transform="translate(-1626.268 -1138.209)" fill="#f07162"/>
                      </g>
                    </g>
                  </g>
                </g>
              </g>
            </g>
            <g id="Grupo_93289" data-name="Grupo 93289" transform="translate(9.132 3.894)">
              <g id="Grupo_93288" data-name="Grupo 93288">
                <g id="Grupo_93287" data-name="Grupo 93287">
                  <g id="Grupo_93286" data-name="Grupo 93286">
                    <g id="Grupo_93285" data-name="Grupo 93285">
                      <g id="Grupo_93284" data-name="Grupo 93284">
                        <path id="Trazado_127570" data-name="Trazado 127570" d="M1634.226,1147.353a13.715,13.715,0,0,0-2.216.372,5,5,0,0,0-.989.557.1.1,0,0,0,.042.178.1.1,0,0,0,.078-.019,4.879,4.879,0,0,1,.943-.531,13.975,13.975,0,0,1,2.16-.359.1.1,0,0,0,.092-.109A.1.1,0,0,0,1634.226,1147.353Z" transform="translate(-1630.98 -1147.353)" fill="#f07162"/>
                      </g>
                    </g>
                  </g>
                </g>
              </g>
            </g>
          </g>
          <g id="Grupo_93291" data-name="Grupo 93291" transform="translate(56.275 14.328)">
            <path id="Trazado_127571" data-name="Trazado 127571" d="M1305.379,989.129l10.095,9.659.137-6.216-6.966-7.116Z" transform="translate(-1305.379 -985.456)" fill="#a5efed"/>
          </g>
          <g id="Grupo_93292" data-name="Grupo 93292" transform="translate(36.002 17.749)">
            <path id="Trazado_127572" data-name="Trazado 127572" d="M1201.773,1010.837c-3.737-5.175-7.9-2.806-7.9-2.806-6.042,3.42-19.088,53.337-19.088,53.337s7.9-.414,10.7-.206c8.11.6,11.142,7.488,20.7,4.522,0,0-2.456-13.575-1.366-16.474.35-.929,1.421-7.709,1.756-8.432-1.825-2.688-.31-10.4,1.469-19.635C1205.65,1016.937,1203.235,1012.862,1201.773,1010.837Z" transform="translate(-1174.787 -1007.491)" fill="#fff"/>
          </g>
          <g id="Grupo_93293" data-name="Grupo 93293" transform="translate(41.797 61.471)">
            <path id="Trazado_127573" data-name="Trazado 127573" d="M1236.188,1289.141h-.206c.007,3.756,1.477,13.426,1.628,14.407-3.591,1.482-8.256.628-13.866-2.537-5.036-2.841-11.56-2.05-11.626-2.042l.026.2c.064-.008,6.524-.791,11.5,2.017,3.859,2.177,7.28,3.27,10.224,3.27a9.906,9.906,0,0,0,3.9-.753l.074-.031-.012-.08C1237.81,1303.491,1236.2,1293.064,1236.188,1289.141Z" transform="translate(-1212.118 -1289.141)" fill="#1d1d1b"/>
          </g>
          <g id="Grupo_93294" data-name="Grupo 93294" transform="translate(52.633 26.341)">
            <path id="Trazado_127574" data-name="Trazado 127574" d="M1305.611,1078.441l-10.01-15.6-13.686,7.793s10.812,17.559,17.5,20.781,31.372-6.226,31.372-6.226l-.58-10.048Z" transform="translate(-1281.916 -1062.844)" fill="#fff"/>
          </g>
          <g id="Grupo_93295" data-name="Grupo 93295" transform="translate(52.545 34.081)">
            <path id="Trazado_127575" data-name="Trazado 127575" d="M1298.983,1133.443c-6.584-3.173-17.349-20.567-17.457-20.742l-.175.108c.108.176,10.905,17.621,17.543,20.82a9.545,9.545,0,0,0,4.018.686c9.262,0,26.578-6.58,27.436-6.908l-.074-.192C1330.027,1127.308,1305.553,1136.609,1298.983,1133.443Z" transform="translate(-1281.35 -1112.701)" fill="#1d1d1b"/>
          </g>
          <g id="Grupo_93296" data-name="Grupo 93296" transform="translate(66.057 25.988)">
            <path id="Trazado_127576" data-name="Trazado 127576" d="M1378.715,1076.409l-10.149-15.839-.173.111,10.22,15.95,21.158-2.835-.027-.2Z" transform="translate(-1368.392 -1060.57)" fill="#1d1d1b"/>
          </g>
        </g>
        <g id="Grupo_93298" data-name="Grupo 93298" transform="translate(264.912 233.807)">
          <path id="Trazado_127577" data-name="Trazado 127577" d="M878.73,557.058a4.732,4.732,0,0,1-3.508,1.361,5.091,5.091,0,0,1-4.513-2.5,12.8,12.8,0,0,1-1.616-6.98,13,13,0,0,1,1.543-6.936,4.9,4.9,0,0,1,4.382-2.438,4.688,4.688,0,0,1,3.268,1.194,8.414,8.414,0,0,1,2.133,3.7l1.849-.437a9.243,9.243,0,0,0-2.628-4.658,6.65,6.65,0,0,0-4.506-1.514,7.058,7.058,0,0,0-6.019,2.846Q867,543.542,867,548.812q0,5.445,2.118,8.392a6.971,6.971,0,0,0,6.019,2.948,6.716,6.716,0,0,0,4.782-1.7,9.642,9.642,0,0,0,2.555-5.161l-1.761-.393A8.386,8.386,0,0,1,878.73,557.058Z" transform="translate(-866.997 -537.85)" fill="#49263e"/>
          <path id="Trazado_127578" data-name="Trazado 127578" d="M1004.887,549.916a5.728,5.728,0,0,0,1.077-3.588,5.157,5.157,0,0,0-1.936-4.382,9.453,9.453,0,0,0-5.764-1.47H992.28v21.53h1.994v-9.782h5.313l5.008,9.782h2.256l-5.182-10.074A5.961,5.961,0,0,0,1004.887,549.916Zm-5.75.619h-4.862v-8.327h4.265a6.546,6.546,0,0,1,4.025,1.019,3.709,3.709,0,0,1,1.317,3.13,3.906,3.906,0,0,1-1.23,3.094A5.151,5.151,0,0,1,999.137,550.535Z" transform="translate(-972.832 -540.068)" fill="#49263e"/>
          <path id="Trazado_127579" data-name="Trazado 127579" d="M1114.681,551.481h7.492v-1.732h-7.492v-7.541h10.349v-1.732h-12.344v21.53h12.8v-1.732h-10.8Z" transform="translate(-1074.547 -540.068)" fill="#49263e"/>
          <path id="Trazado_127580" data-name="Trazado 127580" d="M1225.018,540.476h-5.241v21.53h5.241q4.979,0,7.562-2.817t2.584-8.247q0-5.211-2.548-7.839T1225.018,540.476Zm6.027,17.607q-2.023,2.191-6.26,2.191h-3.013V542.208h3.1q4.382,0,6.289,2.118t1.907,6.98Q1233.068,555.892,1231.044,558.083Z" transform="translate(-1165.013 -540.068)" fill="#49263e"/>
          <rect id="Rectángulo_36078" data-name="Rectángulo 36078" width="1.994" height="21.53" transform="translate(74.824 0.408)" fill="#49263e"/>
          <path id="Trazado_127581" data-name="Trazado 127581" d="M1386.415,542.208h6.376v19.8h2.009v-19.8h6.376v-1.732h-14.761Z" transform="translate(-1305.783 -540.068)" fill="#49263e"/>
          <path id="Trazado_127582" data-name="Trazado 127582" d="M1561.735,549.492a20.46,20.46,0,0,0-4.09-1.7q-1.107-.378-1.689-.6a5.055,5.055,0,0,1-2.234-1.4,3.171,3.171,0,0,1-.721-2.111,3.505,3.505,0,0,1,1.114-2.693,4.1,4.1,0,0,1,2.9-1.034,4.975,4.975,0,0,1,3.108.961,6.784,6.784,0,0,1,2.06,2.97l1.689-.539a7.759,7.759,0,0,0-2.54-3.865,6.821,6.821,0,0,0-4.229-1.259,6.373,6.373,0,0,0-4.527,1.536,5.485,5.485,0,0,0-1.645,4.214,4.565,4.565,0,0,0,.655,2.518,6.335,6.335,0,0,0,2.213,1.922,15.254,15.254,0,0,0,2.249.888q1.754.6,2.817,1.019a7.133,7.133,0,0,1,2.766,1.769,3.7,3.7,0,0,1,.815,2.467,3.928,3.928,0,0,1-1.245,3.028,4.646,4.646,0,0,1-3.283,1.15,5.147,5.147,0,0,1-3.341-1.1,7.824,7.824,0,0,1-2.234-3.4l-1.732.713a8.876,8.876,0,0,0,2.8,4.178,7.255,7.255,0,0,0,4.506,1.339,6.768,6.768,0,0,0,4.826-1.674,5.876,5.876,0,0,0,1.783-4.5,5.292,5.292,0,0,0-.662-2.7A6.493,6.493,0,0,0,1561.735,549.492Z" transform="translate(-1444.491 -538.167)" fill="#49263e"/>
          <path id="Trazado_127583" data-name="Trazado 127583" d="M1668.687,557.058a4.732,4.732,0,0,1-3.508,1.361,5.091,5.091,0,0,1-4.513-2.5,12.8,12.8,0,0,1-1.616-6.98,13,13,0,0,1,1.543-6.936,4.9,4.9,0,0,1,4.382-2.438,4.689,4.689,0,0,1,3.268,1.194,8.412,8.412,0,0,1,2.132,3.7l1.849-.437a9.242,9.242,0,0,0-2.628-4.658,6.649,6.649,0,0,0-4.505-1.514,7.057,7.057,0,0,0-6.019,2.846q-2.119,2.846-2.118,8.116,0,5.445,2.118,8.392a6.97,6.97,0,0,0,6.019,2.948,6.717,6.717,0,0,0,4.782-1.7,9.642,9.642,0,0,0,2.555-5.161l-1.761-.393A8.388,8.388,0,0,1,1668.687,557.058Z" transform="translate(-1534.325 -537.85)" fill="#49263e"/>
          <path id="Trazado_127584" data-name="Trazado 127584" d="M1780.272,538.225a7.336,7.336,0,0,0-6.121,3.035,15.243,15.243,0,0,0,0,16.173,7.668,7.668,0,0,0,12.221,0,15.366,15.366,0,0,0,0-16.173A7.279,7.279,0,0,0,1780.272,538.225Zm4.644,18a5.549,5.549,0,0,1-9.287,0,14.755,14.755,0,0,1,0-13.764,5.558,5.558,0,0,1,9.287,0,14.754,14.754,0,0,1,0,13.764Z" transform="translate(-1631.367 -538.167)" fill="#49263e"/>
          <path id="Trazado_127585" data-name="Trazado 127585" d="M1921.628,549.916a5.729,5.729,0,0,0,1.077-3.588,5.156,5.156,0,0,0-1.936-4.382,9.453,9.453,0,0,0-5.764-1.47h-5.983v21.53h1.994v-9.782h5.313l5.008,9.782h2.256l-5.182-10.074A5.961,5.961,0,0,0,1921.628,549.916Zm-5.75.619h-4.862v-8.327h4.265a6.546,6.546,0,0,1,4.025,1.019,3.709,3.709,0,0,1,1.317,3.13,3.906,3.906,0,0,1-1.23,3.094A5.15,5.15,0,0,1,1915.878,550.535Z" transform="translate(-1747.262 -540.068)" fill="#49263e"/>
          <path id="Trazado_127586" data-name="Trazado 127586" d="M2031.422,551.481h7.492v-1.732h-7.492v-7.541h10.349v-1.732h-12.344v21.53h12.8v-1.732h-10.8Z" transform="translate(-1848.977 -540.068)" fill="#49263e"/>
        </g>
        <path id="Trazado_127587" data-name="Trazado 127587" d="M2079.958,683.167s1.183-21.293-14.9-22.7c-18.446-1.618-18.67,19.3-18.67,19.3s-8.384-7.959-14.431,2.132c0,0-10.45-6.04-15.722,5.116a1.751,1.751,0,0,0-.132,1.127h71.37a3.052,3.052,0,0,0-.842-2.418C2085.435,684.446,2083.393,683.407,2079.958,683.167Z" transform="translate(-1572.776 -407.547)" fill="#fff"/>
        <path id="Trazado_127588" data-name="Trazado 127588" d="M479.237,697.929c-4.612-7.7-11.007-1.626-11.007-1.626s-.17-15.956-14.241-14.722c-12.268,1.076-11.366,17.317-11.366,17.317-2.62.183-4.177.976-5.09,1.949a2.328,2.328,0,0,0-.642,1.844H491.33a1.335,1.335,0,0,0-.1-.86C487.208,693.322,479.237,697.929,479.237,697.929Z" transform="translate(-238.738 -425.404)" fill="#fff"/>
        <path id="Trazado_127589" data-name="Trazado 127589" d="M1140.792,336.955s-2.111-6.521-8.522-5.379-4.144,10.625-4.144,10.625a5.156,5.156,0,0,0-3.5.542,1.628,1.628,0,0,0-.733,1.268h33.288a6.844,6.844,0,0,0,2.163-5.15,10.612,10.612,0,0,0-2.2-5.852C1151.133,324.477,1140.692,332.625,1140.792,336.955Z" transform="translate(-819.1 -127.842)" fill="#fff"/>
      </g>
    </g>
  </g>
</svg>
