<svg xmlns="http://www.w3.org/2000/svg" width="610" height="285" viewBox="0 0 610 285">
  <g id="Grupo_93988" data-name="Grupo 93988" transform="translate(-9545 10139)">
    <rect id="Imagen_21" data-name="Imagen 21" width="610" height="285" rx="19" transform="translate(9545 -10139)" fill="#85d161"/>
    <g id="Grupo_93427" data-name="Grupo 93427" transform="translate(9191.856 -10507.188)">
      <g id="Grupo_93410" data-name="Grupo 93410" transform="translate(726.148 470.878)">
        <path id="Trazado_127764" data-name="Trazado 127764" d="M1866.483,894.014c-2.234-4.775-.121-7.635-1.79-8.887-.647-.485-.926,2.119-1.351,2.225s-5.136-3.444-6.2-2.7-2.36,4.712-.556,6.2,5.885.853,5.576,4.862C1861.981,898.1,1866.483,894.014,1866.483,894.014Z" transform="translate(-1855.691 -881.657)" fill="#efaea6"/>
        <g id="Grupo_93408" data-name="Grupo 93408" transform="translate(43.63 6.978)">
          <path id="Trazado_127765" data-name="Trazado 127765" d="M2102.494,912.464c-.13,2.421,1.385,8.533.725,11.114l-6.094.236s-5.917.147-4.667-.968c1.669-1.49,1.01-.731,1.738-1.79a13.542,13.542,0,0,0,1.305-3.309c.551-1.887,1.016-3.991,1.232-5.022.085-.4.133-.643.133-.643l-.017-.478,3.174-4.893S2102.637,909.807,2102.494,912.464Z" transform="translate(-2092.283 -906.71)" fill="#efaea6"/>
          <path id="Trazado_127766" data-name="Trazado 127766" d="M2109.725,942.839c.551-1.887,1.016-3.991,1.232-5.022l1.466-.341s1.859.078,2.275.834C2115.324,939.452,2112.681,944.557,2109.725,942.839Z" transform="translate(-2106.509 -931.802)" fill="#1f1f3b" opacity="0.14"/>
        </g>
        <path id="Trazado_127767" data-name="Trazado 127767" d="M2209.722,1584.493c-2.294-.758-7.78-3.416-7.78-3.416l2.528-6.253,8.2,4.07.844,5.259Z" transform="translate(-2138.09 -1444.64)" fill="#fff"/>
        <path id="Trazado_127768" data-name="Trazado 127768" d="M2232.123,1595.9c-.622.344.235,2.115,1.051,2.766,1.866,1.491-.921,8.481-1.275,9.79-.183.676,2.465,3.082,3.851-.068,1.2-2.724,5.065-11.434,6.357-14.423a1.488,1.488,0,0,0-.391-1.753c-1.8-1.448-6.549-3.653-6.985-2.853C2234.479,1590.59,2234.494,1594.589,2232.123,1595.9Z" transform="translate(-2162.515 -1456.356)" fill="#1f1f3b"/>
        <path id="Trazado_127769" data-name="Trazado 127769" d="M2146.7,1702.729c-.13-2.42.344-8.514.344-8.514l6.724.1-.8,9.146-4.576,2.7Z" transform="translate(-2093.02 -1542.013)" fill="#fff"/>
        <path id="Trazado_127770" data-name="Trazado 127770" d="M2088.8,1725.021c-.724.007-.63.683-.935,1.683-.7,2.288-9.3,3.331-10.644,3.479-.694.076-1.954,3.43,1.474,3.572,2.964.123,12.458.55,15.7.664a1.478,1.478,0,0,0,1.482-1.006c.683-2.21,1.223-8.349.322-8.464C2094.972,1725.164,2092.1,1724.989,2088.8,1725.021Z" transform="translate(-2035.711 -1567.079)" fill="#1f1f3b"/>
        <path id="Trazado_127771" data-name="Trazado 127771" d="M2048.008,1208.306c-.144,1.084-.321,2.263-.545,3.552a290.7,290.7,0,0,0-3.2,31.617c-.26,10.388-2.491,34.6-2.691,38.319-3.252,1.209-5.2.672-9.685-.524,0,0,.27-20.064.318-37.64.039-14.271-.247-12.856-1.91-31.12l0,0c-.034.082-.772,1.813-1.854,4.478-2.314,5.69-6.247,13.552-6.381,21.07-.064,3.62,28.49,17.09,29.54,17.747s-3.611,9.461-4.583,9.562-36.964-17.341-38.272-23.085c-1.193-5.241,9.389-45.965,11.361-56.229,0,0,28.273-4.528,28.622,4.983a33.406,33.406,0,0,1-.054,3.535c-.1,1.469-.093,2.835-.093,4.333A65.524,65.524,0,0,1,2048.008,1208.306Z" transform="translate(-1980.44 -1126.685)" fill="#3b3b4d"/>
        <path id="Trazado_127772" data-name="Trazado 127772" d="M2140.528,1306.6l0,.015a.783.783,0,0,1-.075-.056A.683.683,0,0,1,2140.528,1306.6Z" transform="translate(-2087.936 -1225.842)" fill="#1f1f3b" opacity="0.46"/>
        <path id="Trazado_127773" data-name="Trazado 127773" d="M2114.826,1313.13l0,0c-.034.082-1.448,3.444-2.529,6.11l1.687-10.893A24.214,24.214,0,0,0,2114.826,1313.13Z" transform="translate(-2064.975 -1227.306)" fill="#1f1f3b" opacity="0.79"/>
        <path id="Trazado_127774" data-name="Trazado 127774" d="M2170.518,1259.178c-.229-.063-10.879-2.923-12.048-8.35,0,0,9.322,1.3,12.3,1.785C2170.771,1255.06,2170.686,1257.8,2170.518,1259.178Z" transform="translate(-2102.635 -1180.391)" fill="#1f1f3b" opacity="0.35"/>
        <path id="Trazado_127775" data-name="Trazado 127775" d="M2086.611,965.092c-2.386-.782-2.836,3.171-5.287,3.23-1.294.032-.979-.51-1.556-1.132-.355-.383-.685-.808-1.309-.238-12.705,11.6-1.823,43.18-3.472,45.253-1.349,1.7,8.639,6.1,15.125,4.894,8.9-1.648,8.87-11.131,8.713-12.951s-4.164-32.817-4.164-32.817A48.143,48.143,0,0,1,2086.611,965.092Z" transform="translate(-2032.282 -947.264)" fill="#fff"/>
        <path id="Trazado_127776" data-name="Trazado 127776" d="M1923.129,980.8c-.179,2.357-.584,4.083-1.52,4.844-1.68,1.366-3.913,1.525-6.445-1.378a4.864,4.864,0,0,1-.4-.524c-3.338-5.035-.03-18.255.516-21.5.222-1.308.645-3.064,1.027-4.888.472-2.267.367-8.645-.4-9.839-2.86-4.467-10.808.642-19.354.141-4.391-.258-14.02-20.326-14.187-21.951s5.448-3.2,6.384-2.585c1.69,1.11,8.132,14.785,10.3,15.354,3.589.943,13.883-5.6,24.572-5.781a10.416,10.416,0,0,1-.006,1.256c-.031.719-.116,1.768-.314,3.2-.114.837-.269,1.808-.477,2.92-1.3,7.019,2.442,12.266,1.168,20.773a78.743,78.743,0,0,0-.712,10.8C1923.252,975.15,1923.315,978.327,1923.129,980.8Z" transform="translate(-1877.449 -913.011)" fill="#0069a8"/>
        <path id="Trazado_127777" data-name="Trazado 127777" d="M2184.245,1279.595c-.257.42-.979.381-.634.692s4.645,2.475,4.645,2.475.4.481.957-.245a2.944,2.944,0,0,0,.6-1.482Z" transform="translate(-2123.064 -1203.853)" fill="#e79e9c"/>
        <path id="Trazado_127778" data-name="Trazado 127778" d="M2157.771,984.725c-.012,1.512-.034,2.725-.068,3.753-.071,2.095-.19,3.4-.336,4.825-.058.568-.118,1.158-.182,1.822v0c-.06.636-.124,1.347-.188,2.177a.027.027,0,0,0,0,.012c-.011.143-.024.289-.034.44a31.019,31.019,0,0,0,.635,6.318q.1.623.218,1.265v0c1.2,6.793,2.991,15.037.865,16.2-3.968,2.174-9.079,1.968-12.268-1.742-2.643-3.078.394-6.711-1.312-13.646a86.073,86.073,0,0,1-2.5-15.464,192.638,192.638,0,0,1,1.388-25.151,17.492,17.492,0,0,1,10.822,5.926C2156.806,973.753,2157.792,980.114,2157.771,984.725Z" transform="translate(-2089.665 -947.712)" fill="#0069a8"/>
        <path id="Trazado_127779" data-name="Trazado 127779" d="M2161.323,995.09c12.284,22.61,14.1,19.668,14.247,23.266s-11.062,22.557-11.062,22.557,6.168,3.751,6.834,2.844,13.564-20.564,12.791-25.959c-1.094-7.643-13.736-26.928-15.335-28.979s-8.91-3.291-9.02.218A11.415,11.415,0,0,0,2161.323,995.09Z" transform="translate(-2103.698 -965.075)" fill="#0069a8"/>
        <path id="Trazado_127780" data-name="Trazado 127780" d="M2204.716,1094.506c-.069.751-.147,1.6-.22,2.63-.013.167-.021.345-.02.534a.024.024,0,0,0,0,.012c-.011.144-.024.289-.034.44a31,31,0,0,0,.635,6.318c-4.537-4.907-4.291-15.841-4.291-15.841Z" transform="translate(-2137.145 -1048.079)" fill="#1f1f3b" opacity="0.24"/>
        <path id="Trazado_127781" data-name="Trazado 127781" d="M2196.024,1190.4c-.432,1.569-7.374,13.727-7.374,13.727l6.976-15.948Z" transform="translate(-2127.249 -1129.296)" fill="#1f1f3b" opacity="0.24"/>
        <path id="Trazado_127782" data-name="Trazado 127782" d="M2120.158,981.513c.211-.152,2.518,3.853,5.5,5.049a6.98,6.98,0,0,0,2.612.542c2.663,0,6.949.837,10.275.24a34.368,34.368,0,0,0-3.255-4.773c-2.4.876-5.419,1.991-6.812,1.921a10.174,10.174,0,0,1-2.928-.605,16.3,16.3,0,0,1-4.319-2.45c-.572-.437-.678-1.147-1.347-1.135C2118.994,980.318,2119.886,981.708,2120.158,981.513Z" transform="translate(-2070.849 -959.754)" fill="#1f1f3b" opacity="0.24"/>
        <path id="Trazado_127783" data-name="Trazado 127783" d="M2115.629,977.846a1.121,1.121,0,0,1,1.176-1.1c.669-.012.732.248,1.3.686a13.44,13.44,0,0,0,7.247,3.056c2.973.149,9.613-3.99,14.027-3.31s5.87,4.411,12.23,5.037,13.083-2.336,14.96-2.129,3.021.541,3,1.259a3.7,3.7,0,0,1-2.211,2.533c-1.3.58-12.826,1.976-15.889,1.748-5-.373-9.422-4.487-12.64-4.585s-9.913,2.053-13.681,2.057c-4.2.005-7.768-4.534-8.039-4.34a1.187,1.187,0,0,1-1.064.281C2115.673,978.971,2115.616,978.253,2115.629,977.846Z" transform="translate(-2067.693 -956.854)" fill="#f4ad00"/>
        <g id="Grupo_93409" data-name="Grupo 93409" transform="translate(41.226 0)">
          <path id="Trazado_127784" data-name="Trazado 127784" d="M2085.163,897.278c-.243,2.129-2.688,6.152-1.238,6.185s-.519,4.5,1.023,4.589c3.734.221,8.1-2.018,8.643-3.8s.429-6.8.429-6.8Z" transform="translate(-2082.69 -892.039)" fill="#efaea6"/>
          <path id="Trazado_127785" data-name="Trazado 127785" d="M2085.509,876.26c-1.182.107-1.228.383-2.041-.036s.648-1.514-.884-1.808-3.22-.432-3.328-2.189c-.156-2.542,2.092-2.088,3.48-1.757.893.212,1.174-1.724,2.968-1.593,1.407.1,1.217.916,2.468,1.063.755.089,2.274-1.114,3.429-.176,2.143,1.741.249,3.761,2.019,5.605,2.064,2.151-3,6.492-3.556,5.937-.648-.648.4-2.794-.258-3.32-.994-.795-1.147.064-2.025.841-.937.83-2.621.837-1.491-.783S2086.579,876.164,2085.509,876.26Z" transform="translate(-2079.247 -868.871)" fill="#191939"/>
        </g>
        <path id="Trazado_127786" data-name="Trazado 127786" d="M2135.9,1584.1l10.655,6.261.226-2.843-10.907-5.441Z" transform="translate(-2084.206 -1450.555)" fill="#1f1f3b"/>
        <path id="Trazado_127787" data-name="Trazado 127787" d="M2136.127,1505.564l11.724,6.223.05-1.018-11.726-7.218Z" transform="translate(-2084.412 -1386.51)" fill="#1f1f3b"/>
      </g>
      <path id="Trazado_127788" data-name="Trazado 127788" d="M672.789,1759.9c0,1.58,79.634,3.414,171.389,3.414s166.138-1.281,166.138-2.861-74.383-2.86-166.138-2.86S672.789,1758.32,672.789,1759.9Z" transform="translate(-164.78 -1122.826)" fill="#32323f" opacity="0.14"/>
      <g id="Grupo_93417" data-name="Grupo 93417" transform="translate(518.54 415.42)">
        <path id="Trazado_127789" data-name="Trazado 127789" d="M1336.8,681.491c-2.764,78.454-70.786,114.782-121.727,108.828-31.754-3.712-2.556-221.866-2.556-221.866,34.5-2.733,74.911,12.453,100.078,42.223l.133.157c.177.21.352.422.527.633q1.914,2.307,3.7,4.728C1329.888,633.706,1337.714,655.662,1336.8,681.491Z" transform="translate(-1113.527 -568.139)" fill="#cc820a"/>
        <g id="Grupo_93416" data-name="Grupo 93416" transform="translate(0 0.313)">
          <path id="Trazado_127790" data-name="Trazado 127790" d="M944.219,691.288c-5.5,61.119-57.827,106.053-116.883,100.363-54.043-5.207-94.99-51.006-97.336-105.585a116.083,116.083,0,0,1,4.138-36.059c11.027-39.5,42.389-69.252,80.648-77.722q4.325-.957,8.762-1.549a104.083,104.083,0,0,1,23.7-.413C906.3,576.012,949.716,630.171,944.219,691.288Z" transform="translate(-729.893 -569.837)" fill="#f4ad00"/>
          <path id="Trazado_127791" data-name="Trazado 127791" d="M842.319,574.71a203.72,203.72,0,0,1-9.038,28.422c-24.717,6.952-45.052,25.909-54.145,50.984a78.335,78.335,0,0,1-26.227-.136c11.027-39.5,42.389-69.252,80.648-77.722Q837.882,575.3,842.319,574.71Z" transform="translate(-748.665 -573.811)" fill="#f4c83d" opacity="0.78"/>
          <ellipse id="Elipse_5148" data-name="Elipse 5148" cx="80.331" cy="83.138" rx="80.331" ry="83.138" transform="translate(25.351 26.433)" fill="#d39333" opacity="0.19"/>
          <path id="Trazado_127792" data-name="Trazado 127792" d="M1013.917,746.166a78.614,78.614,0,0,0-51.428-26.4c-43.918-4.231-82.835,29.184-86.924,74.638a84.416,84.416,0,0,0,15.579,57.183,84.241,84.241,0,0,1-20.69-63.56c4.088-45.454,43.006-78.869,86.924-74.638A79.065,79.065,0,0,1,1013.917,746.166Z" transform="translate(-844.248 -686.621)" fill="#cc820a"/>
          <path id="Trazado_127793" data-name="Trazado 127793" d="M1130.208,961.372c-4.088,45.452-43,78.87-86.924,74.638a79.066,79.066,0,0,1-56.54-32.778,78.617,78.617,0,0,0,51.428,26.4c43.918,4.231,82.836-29.186,86.924-74.638a84.413,84.413,0,0,0-15.579-57.183A84.237,84.237,0,0,1,1130.208,961.372Z" transform="translate(-939.378 -837.33)" fill="#f4c83d"/>
          <g id="Grupo_93415" data-name="Grupo 93415" transform="translate(67.073 43.801)">
            <g id="Grupo_93412" data-name="Grupo 93412" transform="translate(2.822 2.029)">
              <g id="Grupo_93411" data-name="Grupo 93411" transform="translate(16.263 18.055)">
                <path id="Trazado_127794" data-name="Trazado 127794" d="M1251.027,923.541a47.94,47.94,0,0,0-5.9-3.626h0c-.79-.4-1.6-.769-2.437-1.106q-.481-.194-.974-.372a35.653,35.653,0,0,0-8.945-1.906q-.437-.042-.886-.076-1.16-.089-2.416-.136-1.321-.049-2.762-.048-2.105,0-4.175.071-1.226.04-2.441.1-4.251.218-8.362.721c-.4.048-.77.09-1.113.126-.484.051-.916.091-1.308.123-1,.083-1.74.121-2.406.188a11.665,11.665,0,0,0-1.272.188,12.924,12.924,0,0,0-1.96.593c-.151.058-.308.119-.473.185a11.44,11.44,0,0,0-4.481,2.982,6.1,6.1,0,0,0-1.287,2.46,10.3,10.3,0,0,0-.331,2.773l.016,3.674,0,1.065.3,70.45c0,.091,0,.181,0,.272,0,.33,0,.658-.008.986-.018,1.264-.06,2.5-.038,3.685.063,3.455.664,6.415,3.943,8.032q.2.1.418.192,1.226.552,2.555,1,1.422.48,2.965.84.377.088.761.169h.007c.559.119,1.116.231,1.679.34h0q2.6.5,5.244.864,2.882.393,5.621.572.582.039,1.158.067c.434.02.855.04,1.266.057q2.5.1,4.442.1,1.235,0,2.391-.029,1.272-.03,2.455-.094h0a45.447,45.447,0,0,0,10.864-1.692c.833-.25,1.634-.527,2.412-.833h0a35.668,35.668,0,0,0,8.2-4.652q10.457-7.65,10.386-23.594-.039-9.016-4.844-14.97a24.529,24.529,0,0,0-11.1-7.92c-.28-.1-.562-.194-.847-.284l.123-.048a20.61,20.61,0,0,0,13.49-20.085Q1260.9,930.456,1251.027,923.541Zm-14.322,11.116c4,3.732,3.249,9.458,3.262,12.356q.022,4.99-2.749,7.57t-8.908,2.581l-10.415.007,0-1.008-.1-23.425a31.773,31.773,0,0,1,4.35-.486c1.854-.107,3.494-.166,4.921-.167a22.71,22.71,0,0,1,6,.672A8.633,8.633,0,0,1,1236.705,934.656Zm1.987,64.632a16.082,16.082,0,0,1-9.476,2.663q-2.854,0-5.99-.237a22.83,22.83,0,0,1-5.142-.885l0-.438-.1-23.58,11.7-.007a23.006,23.006,0,0,1,6.383.766,10.451,10.451,0,0,1,3.184,1.483q3.151,2.254,3.171,7.564C1242.434,990.374,1241.206,997.515,1238.692,999.289Z" transform="translate(-1197.1 -916.27)" fill="#cc820a"/>
              </g>
              <path id="Trazado_127795" data-name="Trazado 127795" d="M1260.581,844.157s3.467-11.691-.418-19.339c-3.231-6.36,13.722-7.841,13.6.269-.229,15.028-.1,20.612-.1,20.612Z" transform="translate(-1231.937 -819.304)" fill="#cc820a"/>
              <path id="Trazado_127796" data-name="Trazado 127796" d="M1134.283,937.994s-10.352.354-18.689.359c-3.882,0-8.61-5.719-.771-5.56,14.525.295,20.9-8.328,20.9-8.328Z" transform="translate(-1110.281 -904.899)" fill="#cc820a"/>
              <path id="Trazado_127797" data-name="Trazado 127797" d="M1136.1,1401.8s-14.1.109-22.439.114c-3.882,0-7.277-9.2-2.141-8.977,14.516.636,23.2-5.044,23.2-5.044Z" transform="translate(-1108.913 -1282.865)" fill="#cc820a"/>
              <path id="Trazado_127798" data-name="Trazado 127798" d="M1384.181,843.2s1.977-11.067-.418-19.339c-2-6.907,13.722-7.841,13.6.27-.229,15.028-.1,20.612-.1,20.612Z" transform="translate(-1332.934 -818.363)" fill="#cc820a"/>
              <path id="Trazado_127799" data-name="Trazado 127799" d="M1265.146,1419.387s-.289,10.713-.252,19.339c.017,4.017,13.79,7.823,13.6-.287-.359-15.028-.276-20.611-.276-20.611Z" transform="translate(-1236.126 -1307.281)" fill="#cc820a"/>
              <path id="Trazado_127800" data-name="Trazado 127800" d="M1387.711,1419.308s-.289,10.713-.252,19.339c.017,4.017,13.79,7.823,13.6-.287-.359-15.028-.277-20.612-.277-20.612Z" transform="translate(-1336.089 -1307.216)" fill="#cc820a"/>
            </g>
            <g id="Grupo_93414" data-name="Grupo 93414">
              <g id="Grupo_93413" data-name="Grupo 93413" transform="translate(15.335 17.062)">
                <path id="Trazado_127801" data-name="Trazado 127801" d="M1230.7,907.153c-1.171-.82-2.31-1.579-3.46-2.273-.8-.484-1.609-.935-2.437-1.353h0q-.482-.244-.974-.472a31.849,31.849,0,0,0-8.913-2.612c-1.054-.159-2.168-.285-3.355-.377h0c-1.588-.122-3.3-.185-5.177-.184q-.869,0-1.732.014-1.228.017-2.443.057-4.755.152-9.338.654-.735.081-1.464.17c-.964.116-1.752.2-2.422.25h0a30.732,30.732,0,0,0-3.672.377h0a14.022,14.022,0,0,0-2.433.777,11.463,11.463,0,0,0-4.481,2.982,7.1,7.1,0,0,0-1.6,4.416c-.016.264-.024.537-.022.817l.02,4.74.005,1.057.3,69.392c0,.422,0,.839-.007,1.258h0c-.027,1.825-.1,3.6.034,5.222.245,2.921,1.172,5.349,4.287,6.688q.978.441,2.02.814a32.416,32.416,0,0,0,4.264,1.195h0c.559.119,1.115.231,1.678.34h0l.7.132q.869.16,1.744.3,1.392.232,2.8.426,3.493.477,6.777.639.651.03,1.266.057h0q1.285.053,2.424.076c.716.016,1.387.023,2.018.023,1.728,0,3.338-.04,4.845-.122h0c.85-.044,1.667-.1,2.455-.169a38.092,38.092,0,0,0,10.822-2.356h0c.829-.324,1.631-.681,2.416-1.07a39.245,39.245,0,0,0,5.782-3.582q10.456-7.65,10.386-23.593-.038-9.017-4.845-14.971a24.69,24.69,0,0,0-8.664-6.913c-.239-.115-.48-.226-.725-.332a25.481,25.481,0,0,0-2.561-.959,21.167,21.167,0,0,0,9.955-7.653,20.951,20.951,0,0,0,3.658-12.48Q1240.571,914.07,1230.7,907.153ZM1218.36,982.9a16.083,16.083,0,0,1-9.475,2.663q-2.856,0-5.992-.238-1.48-.115-2.706-.317a16.776,16.776,0,0,1-2.436-.568l-.1-24.019,11.7-.008q5.7,0,8.82,1.773a8.333,8.333,0,0,1,.746.477q3.151,2.253,3.172,7.563C1222.1,973.987,1220.875,981.127,1218.36,982.9Zm-10.382-42.125-7.981,0h-2.434l-.1-24.434a31.747,31.747,0,0,1,4.351-.486c1.853-.107,3.494-.165,4.92-.166,3.513,0,6.409.474,8.44,1.678a7,7,0,0,1,1.2.894c4,3.732,3.249,9.458,3.261,12.356q.022,4.991-2.749,7.57T1207.979,940.776Z" transform="translate(-1176.769 -899.882)" fill="#f4c83d"/>
              </g>
              <path id="Trazado_127802" data-name="Trazado 127802" d="M1242.063,831.284s-.381-10.713-.418-19.339c-.017-4.017,13.722-7.841,13.6.27-.229,15.028-.1,20.612-.1,20.612Z" transform="translate(-1214.346 -807.424)" fill="#f4c83d"/>
              <path id="Trazado_127803" data-name="Trazado 127803" d="M1116.685,920.8s-10.352.354-18.689.359c-3.882,0-7.631-14.229.208-14.07,14.525.295,19.921.182,19.921.182Z" transform="translate(-1093.609 -888.694)" fill="#f4c83d"/>
              <path id="Trazado_127804" data-name="Trazado 127804" d="M1120.115,1370.7l.217,2.194,1.158,11.714h0l-1.292,0c-3.518-.006-13.453-.021-20.211-.017a2.345,2.345,0,0,1-1.55-.718c-1.971-1.813-3.443-6.663-2.591-9.99a4.077,4.077,0,0,1,4.349-3.361q1.669.034,3.18.061c2.928.053,5.417.087,7.509.109q1.327.013,2.444.021C1118.13,1370.736,1120.115,1370.7,1120.115,1370.7Z" transform="translate(-1095.231 -1266.661)" fill="#f4c83d"/>
              <path id="Trazado_127805" data-name="Trazado 127805" d="M1364.628,831.2s-.381-10.713-.418-19.339c-.017-4.017,13.722-7.841,13.6.27-.23,15.028-.1,20.612-.1,20.612Z" transform="translate(-1314.308 -807.359)" fill="#f4c83d"/>
              <path id="Trazado_127806" data-name="Trazado 127806" d="M1244.816,1403s-.289,10.713-.252,19.339c.017,4.017,13.79,7.823,13.6-.287-.359-15.028-.277-20.612-.277-20.612Z" transform="translate(-1216.723 -1291.885)" fill="#f4c83d"/>
              <path id="Trazado_127807" data-name="Trazado 127807" d="M1367.382,1402.921s-.289,10.713-.252,19.339c.017,4.017,13.79,7.824,13.6-.287-.359-15.028-.277-20.611-.277-20.611Z" transform="translate(-1316.687 -1291.822)" fill="#f4c83d"/>
            </g>
          </g>
        </g>
      </g>
      <g id="Grupo_93418" data-name="Grupo 93418" transform="translate(640.19 457.956)">
        <path id="Trazado_127808" data-name="Trazado 127808" d="M1471.78,805.009c-1.9.782-5.506,2.276-6.074,2.545-2.919,4.671-11.266,13.954-13.006,15.441a6.337,6.337,0,0,1-2.589.905c-4.745.924-13.916.966-15.835.961-1.829,0-1.59,4.223-1.9,8.37a22.7,22.7,0,0,1-.546,3.8c-1.221,4.83-5.848,3.611-8.564,3.605s1.18,11.882-2.148,14.589-17.55-6.432-20.521-5.885a1.2,1.2,0,0,0-.542.312c-1.63,1.455-4.173,7.594-6.331,12.6a63.165,63.165,0,0,1-2.779,5.927l0,0c-.031.054-.061.105-.092.153a.006.006,0,0,0,0,0c-.022.035-.044.07-.066.1s-.059.09-.087.131-.042.061-.064.09-.03.044-.046.066-.031.042-.048.061c-1.178,1.508.179-3.509,1.929-9.25,1.4-4.584,3.047-9.628,3.856-12.175a2.517,2.517,0,0,1,.173-.413c2.556-4.815,19.363,4.553,21.86,5.294a.534.534,0,0,0,.638-.2.006.006,0,0,0,0,0c1.226-1.673-1.4-11.893-.454-14.443a2.437,2.437,0,0,1,.133-.3c1.1-2.084,4.607-1.147,7.325-.738.461.07.9.124,1.3.146a1.241,1.241,0,0,0,1.125-.656.026.026,0,0,0,.009-.017,4.058,4.058,0,0,0,.443-1.014c.909-2.973.492-9.077.721-11.743a1.171,1.171,0,0,1,.125-.433c1.584-3.172,17.359-2.984,19.963-2.69.963.109,2.689-2.13,4.553-5.237.1-.159.192-.321.288-.485s.194-.33.29-.5v0c.033-.055.066-.111.1-.166.083-.144.164-.291.247-.437.072-.129.146-.258.219-.389.052-.1.1-.188.155-.282.207-.374.417-.758.621-1.145.05-.1.1-.194.155-.291.275-.518.55-1.046.819-1.573.074-.149.149-.3.225-.444.017-.03.031-.065.048-.1.083-.164.166-.328.245-.49.044-.09.09-.179.133-.267.089-.181.177-.358.262-.535q.263-.534.513-1.062l.247-.524c.083-.175.164-.347.243-.52.039-.087.079-.173.118-.258q.238-.512.461-1.01c.035-.083.074-.164.109-.249.183-.409.358-.808.522-1.195.068-.155.133-.308.2-.459.033-.074.063-.149.094-.223l.489-1.291c.029-.076.057-.149.085-.223l6.432-1.162c.177.21.352.422.527.633Q1469.993,802.587,1471.78,805.009Z" transform="translate(-1389.998 -799.492)" fill="#eddcc3"/>
        <path id="Trazado_127809" data-name="Trazado 127809" d="M1467.645,799.591l-6.207,1.02c-2.281,6.1-9.239,19.984-11.6,19.717-2.716-.308-19.778-.5-20.088,3.122s.573,13.591-2.3,13.432-7.7-1.981-8.759.889,2.381,15.4-.184,14.644-20.208-10.615-22.035-4.883c-1.381,4.332-5.187,15.9-6.054,20.125,0,0,0,.006,0,.009l0,0c-.054.094-.109.179-.161.26-.029.046-.059.088-.087.129s-.042.063-.064.092-.03.044-.046.065-.031.044-.048.063c-2.119,2.715,3.961-15.69,5.785-21.425a2.537,2.537,0,0,1,.271-.581c3.47-5.555,19.154,4.2,21.622,4.931.347.1.723.492.876.168a.006.006,0,0,0,0,0c.979-2.091-1.47-11.8-.551-14.277a2.279,2.279,0,0,1,.23-.465c1.4-2.191,5.833-.57,8.527-.424a1.312,1.312,0,0,0,1.223-.824.025.025,0,0,0,.009-.017c1.352-2.458.811-9.635,1.068-12.592a1.254,1.254,0,0,1,.221-.6c2.041-3,17.307-2.812,19.865-2.525.981.112,2.751-2.209,4.651-5.4.1-.159.192-.321.288-.485s.194-.33.289-.5v0c.083-.144.164-.29.247-.437.07-.127.146-.258.219-.389.052-.094.1-.186.155-.282.208-.372.417-.756.621-1.143l.155-.291c.275-.518.55-1.046.819-1.575.074-.148.149-.3.225-.443.017-.031.031-.066.048-.1.083-.164.166-.328.245-.492.044-.089.09-.179.133-.267.09-.179.177-.356.262-.535.175-.356.347-.708.513-1.06q.124-.266.249-.526c.081-.173.162-.345.242-.52.039-.085.079-.172.118-.258.159-.339.312-.679.461-1.009.037-.083.074-.166.109-.249.183-.409.358-.81.522-1.2.068-.155.135-.308.2-.457.033-.076.063-.151.094-.223.216-.516.413-1.005.587-1.459.029-.076.057-.149.085-.223l6.3-1.319.133.157C1467.295,799.169,1467.47,799.381,1467.645,799.591Z" transform="translate(-1389.564 -798.802)" fill="#f9cf70"/>
      </g>
      <path id="Trazado_127810" data-name="Trazado 127810" d="M1765.194,404.749a70.674,70.674,0,0,1-22.22-1.963,5.15,5.15,0,0,1-3.119-1.679,4.868,4.868,0,0,1,.438-5.655,5.522,5.522,0,0,1,4.911-1.7,7.612,7.612,0,0,0,3.356.114c1.353-.465,2.248-1.935,3.154-3.215s2.133-2.546,3.532-2.347c1.048.149,1.875,1.084,2.808,1.67a1.909,1.909,0,0,0,2.821-.434c1.142-2.312-.47-8.647,5.423-8.653,8.507-.008,7.123,6.372,8.148,7.724,1.554,2.05,4.317,1.6,6.565.9s4.925-1.358,6.661.475c1.506,1.589,1.664,4.506,3.264,5.959,1.7,1.546,4.122.718,6.184.021s4.722-.955,5.921,1.156a4.93,4.93,0,0,1-1.167,5.641,8.151,8.151,0,0,1-5.1,1.748C1785.121,405.361,1774.54,404.068,1765.194,404.749Z" transform="translate(-1034.484)" fill="#fff" opacity="0.95"/>
      <path id="Trazado_127811" data-name="Trazado 127811" d="M512.525,1466.263c3.315,0,10.128,6.589.392,7.645s-24.318.57-30.219.592c-9.632.036-12.021-.405-11.944-4.815.044-2.552,1.274-4.2,6.352-4.874,5.282-.7,2.584-7.279,9.031-7.079,5.492.17,6.052,8.786,11.077,6.674s3.973,3.643,7.648,4.7C508.9,1470.265,509.21,1466.263,512.525,1466.263Z" transform="translate(0 -878.258)" fill="#fff"/>
      <path id="Trazado_127812" data-name="Trazado 127812" d="M1582.4,1338.022c-9.115-1.507-10.417-5.84-12.108-19.27-1.181,12.743-2.688,17.575-11.956,19.028,8.084,3.634,10.925,4.953,12.366,19.68C1572.69,1342.544,1574.465,1341.225,1582.4,1338.022Z" transform="translate(-887.02 -764.912)" fill="#fff"/>
      <path id="Trazado_127813" data-name="Trazado 127813" d="M838.019,701.5c-10-1.653-11.424-6.4-13.279-21.134-1.3,13.975-2.949,19.274-13.112,20.868,8.865,3.985,11.981,5.431,13.562,21.584C827.374,706.462,829.321,705.015,838.019,701.5Z" transform="translate(-278.015 -244.253)" fill="#fff"/>
      <path id="Trazado_127814" data-name="Trazado 127814" d="M1775.231,805.955" transform="translate(-1063.92 -346.68)" fill="#ad521f"/>
      <path id="Trazado_127815" data-name="Trazado 127815" d="M1429.232,997.388c-2.36,1.3-4,2.331-4.326,2.868-1.348,2.207-.49,12.142-1.1,13.368a3.076,3.076,0,0,1-3.557,1.84c-1.6-.491-14.816-6.783-15.76-7.236-1.532-.736-2.8.794-3.25,1.533-1.357,2.242.259-.148-4.906,12.817-1.365,3.427-2.453,6.5-2.246,6.577a.006.006,0,0,0,0,0l1.617-8.8c1.4-4.584,3.046-9.628,3.856-12.175a2.522,2.522,0,0,1,.173-.413c2.556-4.815,19.363,4.553,21.86,5.294a.534.534,0,0,0,.638-.2.007.007,0,0,0,0,0c1.226-1.673-1.4-11.893-.454-14.443a2.431,2.431,0,0,1,.133-.3C1423.007,996.042,1426.514,996.978,1429.232,997.388Z" transform="translate(-753.04 -502.347)" fill="#89510e"/>
      <path id="Trazado_127816" data-name="Trazado 127816" d="M1639.6,800.281l-.044,1.756a31.768,31.768,0,0,0-3.434,3.189c-1.473,2.33-8.708,14.35-13.368,17.906-.3.229-.679.487-1.123.769-3.515,2.231-11.219,6.012-17.733,9.331-1.221.621-2.4,1.228-3.5,1.8.909-2.973.492-9.077.721-11.743a1.169,1.169,0,0,1,.125-.433c1.584-3.172,17.358-2.984,19.962-2.69.963.109,2.689-2.13,4.553-5.237.1-.159.192-.321.288-.485s.194-.33.29-.5v0c.033-.055.066-.111.1-.166.083-.144.164-.291.247-.437.072-.129.146-.258.219-.389.052-.1.1-.188.155-.282.207-.374.417-.758.622-1.145.05-.1.1-.194.155-.291.275-.518.549-1.046.819-1.573.074-.149.149-.3.225-.444.016-.03.031-.065.048-.1.083-.164.166-.328.245-.49.044-.09.09-.179.133-.267.089-.181.177-.358.262-.535q.263-.534.513-1.062l.247-.524c.083-.175.164-.347.243-.52.039-.087.079-.173.118-.258q.238-.512.461-1.01c.035-.083.074-.164.109-.249.182-.409.358-.808.522-1.195.068-.155.133-.308.2-.459.033-.074.063-.149.094-.223l.489-1.291c.03-.076.057-.149.085-.223l6.432-1.162C1639.248,799.858,1639.423,800.07,1639.6,800.281Z" transform="translate(-921.327 -341.536)" fill="#89510e"/>
      <g id="Grupo_93425" data-name="Grupo 93425" transform="translate(649.156 451.524)">
        <g id="Grupo_93419" data-name="Grupo 93419" transform="translate(0 18.918)">
          <path id="Trazado_127817" data-name="Trazado 127817" d="M1508.132,904.549c-1.626.561-10.271-2.408-20.766-5.526-.823-.244-1.653-.488-2.5-.731-4.038-1.172-8.279-2.327-12.452-3.286-16.148-3.712-31.515-4.543-32.974-6.524-2.911-3.958-.272-20.058,2.858-21.737,1.481-.794,19.984.36,35.769,3.859,2.509.556,5.04,1.164,7.538,1.8l1.094.283c14,3.646,26.668,8.193,27.851,9.992C1517.293,886.859,1512.856,902.918,1508.132,904.549Z" transform="translate(-1438.184 -866.506)" fill="#ffe9cc"/>
        </g>
        <path id="Trazado_127818" data-name="Trazado 127818" d="M1564.237,781.043c-1.354,1.645-5.255,24.172-4.275,37.254s1.517,31.6,6.208,33.912S1564.237,781.043,1564.237,781.043Z" transform="translate(-1537.377 -777.885)" fill="#32323f" opacity="0.26"/>
        <path id="Trazado_127819" data-name="Trazado 127819" d="M1691.675,925.028c-.823-.244-1.653-.488-2.5-.731-.295-.322-.489-.542-.489-.542l.9-25.365,1.374.242a1.28,1.28,0,0,0-.016.595C1691.031,902.167,1690.59,920.144,1691.675,925.028Z" transform="translate(-1642.493 -873.592)" fill="#32323f" opacity="0.26"/>
        <g id="Grupo_93424" data-name="Grupo 93424" transform="translate(23.088 0)">
          <path id="Trazado_127820" data-name="Trazado 127820" d="M1589.94,765.858c-3.288-3.651-20.509-1.505-22.785,1.22-1.077,1.29-4,17.614-3.758,33.782.256,17.4,3.857,35.554,5.691,37.384,3.538,3.531,20.162,2.429,22.713-1.869,1.276-2.149-3.45-18.705-3.824-35.272S1591.584,767.683,1589.94,765.858Z" transform="translate(-1563.383 -763.92)" fill="#ffe9cc"/>
          <g id="Grupo_93423" data-name="Grupo 93423" transform="translate(2.825 22.184)">
            <path id="Trazado_127821" data-name="Trazado 127821" d="M1596.532,885.012c-2.156-1.674-15.332-.337-16.589.675s-1.852,19.441-.353,21.285,16.021,1.134,16.619.028S1597.348,885.645,1596.532,885.012Z" transform="translate(-1578.703 -884.217)" fill="#ffae00" opacity="0.28"/>
            <g id="Grupo_93420" data-name="Grupo 93420" transform="translate(12.639 3.401)" opacity="0.35">
              <path id="Trazado_127822" data-name="Trazado 127822" d="M1651.359,905.631a1.574,1.574,0,1,1,.654-2.056A1.527,1.527,0,0,1,1651.359,905.631Z" transform="translate(-1648.825 -902.66)" fill="#a03315"/>
              <path id="Trazado_127823" data-name="Trazado 127823" d="M1651.708,929.549a1.574,1.574,0,1,1,.654-2.056A1.527,1.527,0,0,1,1651.708,929.549Z" transform="translate(-1649.11 -922.167)" fill="#a03315"/>
              <ellipse id="Elipse_5149" data-name="Elipse 5149" cx="1.479" cy="1.571" rx="1.479" ry="1.571" transform="translate(0 9.475) rotate(-25.614)" fill="#a03315"/>
              <path id="Trazado_127824" data-name="Trazado 127824" d="M1653.249,980.866a1.574,1.574,0,1,1,.654-2.056A1.527,1.527,0,0,1,1653.249,980.866Z" transform="translate(-1650.367 -964.02)" fill="#a03315"/>
            </g>
            <g id="Grupo_93421" data-name="Grupo 93421" transform="translate(7.083 2.686)" opacity="0.35">
              <ellipse id="Elipse_5150" data-name="Elipse 5150" cx="1.479" cy="1.571" rx="1.479" ry="1.571" transform="matrix(0.902, -0.432, 0.432, 0.902, 0, 1.279)" fill="#a03315"/>
              <path id="Trazado_127825" data-name="Trazado 127825" d="M1622.435,928.391a1.574,1.574,0,1,1,.654-2.056A1.527,1.527,0,0,1,1622.435,928.391Z" transform="translate(-1619.678 -920.507)" fill="#a03315"/>
              <path id="Trazado_127826" data-name="Trazado 127826" d="M1622.943,951.635a1.574,1.574,0,1,1,.654-2.056A1.527,1.527,0,0,1,1622.943,951.635Z" transform="translate(-1620.092 -939.465)" fill="#a03315"/>
              <path id="Trazado_127827" data-name="Trazado 127827" d="M1623.975,979.707a1.574,1.574,0,1,1,.654-2.056A1.527,1.527,0,0,1,1623.975,979.707Z" transform="translate(-1620.935 -962.36)" fill="#a03315"/>
            </g>
            <g id="Grupo_93422" data-name="Grupo 93422" transform="translate(2.597 3.159)" opacity="0.35">
              <path id="Trazado_127828" data-name="Trazado 127828" d="M1594.961,904.321a1.574,1.574,0,1,1,.654-2.056A1.527,1.527,0,0,1,1594.961,904.321Z" transform="translate(-1592.785 -901.349)" fill="#a03315"/>
              <path id="Trazado_127829" data-name="Trazado 127829" d="M1595.312,928.239a1.574,1.574,0,1,1,.654-2.056A1.527,1.527,0,0,1,1595.312,928.239Z" transform="translate(-1593.071 -920.857)" fill="#a03315"/>
              <path id="Trazado_127830" data-name="Trazado 127830" d="M1595.819,951.484a1.574,1.574,0,1,1,.654-2.056A1.527,1.527,0,0,1,1595.819,951.484Z" transform="translate(-1593.485 -939.815)" fill="#a03315"/>
              <path id="Trazado_127831" data-name="Trazado 127831" d="M1596.852,979.556a1.574,1.574,0,1,1,.654-2.056A1.527,1.527,0,0,1,1596.852,979.556Z" transform="translate(-1594.328 -962.71)" fill="#a03315"/>
            </g>
          </g>
        </g>
      </g>
      <g id="Grupo_93426" data-name="Grupo 93426" transform="translate(690.612 632.039)">
        <path id="Trazado_127832" data-name="Trazado 127832" d="M1897.556,1759.532c1.517.147,3.451-.136,2.391-.85s-.089-2.382-1.066-2.373-1.224,1.53-2.44,1.356-2.208.22-1.582,1.085S1897.556,1759.532,1897.556,1759.532Z" transform="translate(-1851.941 -1753.818)" fill="#89510e"/>
        <path id="Trazado_127833" data-name="Trazado 127833" d="M1716.976,1754.473a2.544,2.544,0,0,1-.625,1.58,2.141,2.141,0,0,1-1.194.631,7.567,7.567,0,0,1-3.479-1.178.894.894,0,0,1-.16-.2l.91-1.842s1.334-1.4,2.669-.971A3.416,3.416,0,0,1,1716.976,1754.473Z" transform="translate(-1702.568 -1750.644)" fill="#89510e"/>
        <path id="Trazado_127834" data-name="Trazado 127834" d="M1669.925,1762.452a.59.59,0,0,1,.254,1.055,4.7,4.7,0,0,1-1.367.67,17.089,17.089,0,0,1-5.4-.746.591.591,0,0,1,.089-1.153,20.636,20.636,0,0,1,3.992-.168C1668.234,1762.178,1669.127,1762.315,1669.925,1762.452Z" transform="translate(-1662.989 -1758.517)" fill="#f4c83d"/>
        <path id="Trazado_127835" data-name="Trazado 127835" d="M1779.166,1748.64c-2.841.713-6.011.487-6.824-1.137s5.524-5.524,7.8-4.549,1.191,3.363,3.574,3.16,5.045.593,2.275,2.039C1785.159,1748.586,1782.261,1747.863,1779.166,1748.64Z" transform="translate(-1752.118 -1742.799)" fill="#ffae00"/>
      </g>
    </g>
  </g>
</svg>
