<svg xmlns="http://www.w3.org/2000/svg" xmlns:xlink="http://www.w3.org/1999/xlink" width="85" height="85" viewBox="0 0 85 85">
  <defs>
    <clipPath id="clip-path">
      <rect id="Rectángulo_35928" data-name="Rectángulo 35928" width="85" height="85" transform="translate(810 4028)" fill="#fff" stroke="#707070" stroke-width="1"/>
    </clipPath>
  </defs>
  <g id="Enmascarar_grupo_121" data-name="Enmascarar grupo 121" transform="translate(-810 -4028)" clip-path="url(#clip-path)">
    <g id="humano" transform="translate(808.629 4026.629)">
      <g id="Grupo_92813" data-name="Grupo 92813">
        <g id="Grupo_92769" data-name="Grupo 92769">
          <path id="Trazado_127125" data-name="Trazado 127125" d="M27.282,16.452H13.847a6.857,6.857,0,0,1,13.435,0Z" fill="#656d78"/>
        </g>
        <g id="Grupo_92770" data-name="Grupo 92770">
          <path id="Trazado_127126" data-name="Trazado 127126" d="M50.589,8.226H37.153a6.857,6.857,0,0,1,13.435,0Z" fill="#b27946"/>
        </g>
        <g id="Grupo_92771" data-name="Grupo 92771">
          <path id="Trazado_127127" data-name="Trazado 127127" d="M69.124,11.242a6.865,6.865,0,0,1,4.771,5.21H60.46a6.855,6.855,0,0,1,6.718-5.484A7.031,7.031,0,0,1,69.124,11.242Z" fill="#e6e9ed"/>
        </g>
        <g id="Grupo_92772" data-name="Grupo 92772">
          <path id="Trazado_127128" data-name="Trazado 127128" d="M79.516,13.71a5.482,5.482,0,0,1-5.484,5.484H73.9a6.924,6.924,0,0,0,0-2.742,6.865,6.865,0,0,0-4.771-5.21A5.491,5.491,0,0,1,79.516,13.71Z" fill="#e6e9ed"/>
        </g>
        <g id="Grupo_92773" data-name="Grupo 92773">
          <path id="Trazado_127129" data-name="Trazado 127129" d="M16.452,26.048a4.107,4.107,0,0,0,4.113,4.113H11.1a6.85,6.85,0,0,1,5.347-5.347Z" fill="#b4dd7f"/>
        </g>
        <g id="Grupo_92774" data-name="Grupo 92774">
          <path id="Trazado_127130" data-name="Trazado 127130" d="M30.12,30.806a14.557,14.557,0,0,0-1.069,3.441,8.26,8.26,0,0,0-7.115-4.085H20.565a4.119,4.119,0,0,0,4.113-4.113V24.815a6.863,6.863,0,0,1,5.443,5.991Z" fill="#b4dd7f"/>
        </g>
        <g id="Grupo_92775" data-name="Grupo 92775">
          <path id="Trazado_127131" data-name="Trazado 127131" d="M76.774,31.532v1.316a9.2,9.2,0,0,0-6.512-2.687H67.177a4.119,4.119,0,0,0,4.113-4.113V24.815A6.855,6.855,0,0,1,76.774,31.532Z" fill="#b4dd7f"/>
        </g>
        <g id="Grupo_92776" data-name="Grupo 92776">
          <path id="Trazado_127132" data-name="Trazado 127132" d="M67.177,30.161h-.343A9.228,9.228,0,0,0,58.8,34.836h-.014a14.837,14.837,0,0,0-1.165-4.031,6.863,6.863,0,0,1,5.443-5.991v1.234a4.107,4.107,0,0,0,4.113,4.113Z" fill="#b4dd7f"/>
        </g>
        <g id="Grupo_92777" data-name="Grupo 92777">
          <path id="Trazado_127133" data-name="Trazado 127133" d="M39.758,17.823a4.107,4.107,0,0,0,4.113,4.113,15.012,15.012,0,0,0-9.6,3.441v-2.07a6.855,6.855,0,0,1,5.484-6.718Z" fill="#ff826e"/>
        </g>
        <g id="Grupo_92778" data-name="Grupo 92778">
          <path id="Trazado_127134" data-name="Trazado 127134" d="M53.468,23.306v2.07a15.012,15.012,0,0,0-9.6-3.441,4.119,4.119,0,0,0,4.113-4.113V16.589a6.828,6.828,0,0,1,5.484,6.718Z" fill="#ff826e"/>
        </g>
        <g id="Grupo_92779" data-name="Grupo 92779">
          <path id="Trazado_127135" data-name="Trazado 127135" d="M12.791,62.146,16,68.1l3.194,5.936V85H2.742V66.41a9.421,9.421,0,0,1,3.77-7.54,9.275,9.275,0,0,1,3.619-1.659Z" fill="#ff826e"/>
        </g>
        <g id="Grupo_92780" data-name="Grupo 92780">
          <path id="Trazado_127136" data-name="Trazado 127136" d="M24.677,74.032V85H19.194V74.032l2.742-5.086v3.715a1.375,1.375,0,0,0,1.371,1.371Z" fill="#ff826e"/>
        </g>
        <g id="Grupo_92781" data-name="Grupo 92781">
          <path id="Trazado_127137" data-name="Trazado 127137" d="M17.823,64.435h4.565a14.289,14.289,0,0,0-.452,3.537v.973l-2.742,5.086L16,68.1Z" fill="#e6e9ed"/>
        </g>
        <g id="Grupo_92782" data-name="Grupo 92782">
          <path id="Trazado_127138" data-name="Trazado 127138" d="M19.194,58.952l4.524,2.262A13.265,13.265,0,0,0,22.4,64.435H17.823l-1.371-4.113Z" fill="#ccd1d9"/>
        </g>
        <g id="Grupo_92783" data-name="Grupo 92783">
          <path id="Trazado_127139" data-name="Trazado 127139" d="M17.823,64.435,16,68.1l-3.208-5.95,3.66-1.823Z" fill="#fcd770"/>
        </g>
        <g id="Grupo_92784" data-name="Grupo 92784">
          <path id="Trazado_127140" data-name="Trazado 127140" d="M23.306,56.21l4.085.823a13.427,13.427,0,0,0-3.674,4.181l-4.524-2.262Z" fill="#ffc729"/>
        </g>
        <g id="Grupo_92785" data-name="Grupo 92785">
          <path id="Trazado_127141" data-name="Trazado 127141" d="M19.194,58.952l-2.742,1.371-3.66,1.823-2.66-4.935a1.01,1.01,0,0,1,.192-.055l4.757-.946Z" fill="#ffc729"/>
        </g>
        <g id="Grupo_92786" data-name="Grupo 92786">
          <path id="Trazado_127142" data-name="Trazado 127142" d="M28.79,44.611a10.28,10.28,0,0,1-1.906,2.44l-.973.932a6.46,6.46,0,0,0,.137-1.371V44.035a5.5,5.5,0,0,0-4.154-5.319l-.9-.219-.014-.014a4.683,4.683,0,0,1-3.112,1.851l-3.167.452A2.755,2.755,0,0,0,12.339,43.5v3.112a6.46,6.46,0,0,0,.137,1.371l-.973-.932a10.471,10.471,0,0,1-3.277-7.636V32.9a2.75,2.75,0,0,1,2.742-2.742H21.935a8.26,8.26,0,0,1,7.115,4.085,14.259,14.259,0,0,0-.26,2.769Z" fill="#b27946"/>
        </g>
        <g id="Grupo_92787" data-name="Grupo 92787">
          <path id="Trazado_127143" data-name="Trazado 127143" d="M75.4,43.5a2.755,2.755,0,0,0-2.358-2.715l-3.167-.452a4.683,4.683,0,0,1-3.112-1.851l-.014.014-.9.219a5.5,5.5,0,0,0-4.154,5.319v2.577a6.46,6.46,0,0,0,.137,1.371l-.973-.932a10.28,10.28,0,0,1-1.906-2.44v-7.6a14.316,14.316,0,0,0-.165-2.18H58.8a9.228,9.228,0,0,1,8.034-4.675h3.427a9.268,9.268,0,0,1,9.254,9.254,10.471,10.471,0,0,1-3.277,7.636l-.973.932a6.46,6.46,0,0,0,.137-1.371Z" fill="#b27946"/>
        </g>
        <g id="Grupo_92788" data-name="Grupo 92788">
          <path id="Trazado_127144" data-name="Trazado 127144" d="M79.516,85H68.548V74.032L71.743,68.1l3.208-5.95,2.66-4.935A9.4,9.4,0,0,1,84,62.187a9.477,9.477,0,0,1,1,4.223V85Z" fill="#e6e9ed"/>
        </g>
        <g id="Grupo_92789" data-name="Grupo 92789">
          <path id="Trazado_127145" data-name="Trazado 127145" d="M68.548,74.032V85H63.065V74.032h1.371a1.375,1.375,0,0,0,1.371-1.371V68.946Z" fill="#e6e9ed"/>
        </g>
        <g id="Grupo_92790" data-name="Grupo 92790">
          <path id="Trazado_127146" data-name="Trazado 127146" d="M69.919,64.435l1.823,3.66-3.194,5.936-2.742-5.086v-.973a14.289,14.289,0,0,0-.452-3.537Z" fill="#fcd770"/>
        </g>
        <g id="Grupo_92791" data-name="Grupo 92791">
          <path id="Trazado_127147" data-name="Trazado 127147" d="M71.29,60.323l-1.371,4.113H65.34a13.265,13.265,0,0,0-1.316-3.222l4.524-2.262Z" fill="#ffc729"/>
        </g>
        <g id="Grupo_92792" data-name="Grupo 92792">
          <path id="Trazado_127148" data-name="Trazado 127148" d="M74.951,62.146,71.743,68.1l-1.823-3.66,1.371-4.113Z" fill="#ff826e"/>
        </g>
        <g id="Grupo_92793" data-name="Grupo 92793">
          <path id="Trazado_127149" data-name="Trazado 127149" d="M77.61,57.21l-2.66,4.935-3.66-1.823-2.742-1.371,4.113-2.742,4.757.946a1.009,1.009,0,0,1,.192.055Z" fill="#fc6e51"/>
        </g>
        <g id="Grupo_92794" data-name="Grupo 92794">
          <path id="Trazado_127150" data-name="Trazado 127150" d="M68.548,58.952l-4.524,2.262a13.427,13.427,0,0,0-3.674-4.181l4.085-.823Z" fill="#fc6e51"/>
        </g>
        <g id="Grupo_92795" data-name="Grupo 92795">
          <path id="Trazado_127151" data-name="Trazado 127151" d="M32.9,80.887V85H24.677V74.032h5.772a16.452,16.452,0,0,0,.823,2.769Z" fill="#f0d0b4"/>
        </g>
        <g id="Grupo_92796" data-name="Grupo 92796">
          <path id="Trazado_127152" data-name="Trazado 127152" d="M63.065,74.032V85H54.839V80.887L56.47,76.8a16.453,16.453,0,0,0,.823-2.769Z" fill="#f0d0b4"/>
        </g>
        <g id="Grupo_92797" data-name="Grupo 92797">
          <path id="Trazado_127153" data-name="Trazado 127153" d="M30.449,74.032H23.306a1.375,1.375,0,0,1-1.371-1.371V67.973a14.289,14.289,0,0,1,.452-3.537H22.4a13.265,13.265,0,0,1,1.316-3.222,13.427,13.427,0,0,1,3.674-4.181,9.587,9.587,0,0,1,1.412-.919,13.78,13.78,0,0,1,4.757-1.686l1.138-.178,4,7.444,5.169,9.6V85H32.9V80.887L31.272,76.8a16.453,16.453,0,0,1-.823-2.769Z" fill="#b4dd7f"/>
        </g>
        <g id="Grupo_92798" data-name="Grupo 92798">
          <path id="Trazado_127154" data-name="Trazado 127154" d="M57.293,74.032A16.453,16.453,0,0,1,56.47,76.8l-1.631,4.085V85H43.871V71.29l5.169-9.6,4-7.444,1.138.178a13.78,13.78,0,0,1,4.757,1.686,9.587,9.587,0,0,1,1.412.919,13.427,13.427,0,0,1,3.674,4.181,13.265,13.265,0,0,1,1.316,3.222h.014a14.289,14.289,0,0,1,.452,3.537v4.689a1.375,1.375,0,0,1-1.371,1.371H57.293Z" fill="#b4dd7f"/>
        </g>
        <g id="Grupo_92799" data-name="Grupo 92799">
          <path id="Trazado_127155" data-name="Trazado 127155" d="M49.04,61.694l-5.169,9.6-5.169-9.6Z" fill="#ffeaa7"/>
        </g>
        <g id="Grupo_92800" data-name="Grupo 92800">
          <path id="Trazado_127156" data-name="Trazado 127156" d="M43.871,30.161a11.97,11.97,0,0,1-7.6,5.086l-2,.4v5.484a9.6,9.6,0,0,0,5.484,8.665v.151A4.1,4.1,0,0,1,36.276,54l-1.577.247-1.138.178A13.78,13.78,0,0,0,28.8,56.114L28.79,56.1V37.016a14.259,14.259,0,0,1,.26-2.769,14.557,14.557,0,0,1,1.069-3.441,15.1,15.1,0,0,1,23.348-5.429,14.269,14.269,0,0,1,1.069.973,15.076,15.076,0,0,1,3.085,4.456,14.837,14.837,0,0,1,1.165,4.031,14.315,14.315,0,0,1,.165,2.18V56.1l-.014.014a13.78,13.78,0,0,0-4.757-1.686l-1.138-.178L51.466,54a4.1,4.1,0,0,1-3.482-4.058V49.9a9.32,9.32,0,0,0,5.484-8.486V35.645l-2-.4a12.017,12.017,0,0,1-7.6-5.086Z" fill="#656d78"/>
        </g>
        <g id="Grupo_92801" data-name="Grupo 92801">
          <path id="Trazado_127157" data-name="Trazado 127157" d="M24.677,24.815v1.234a4.113,4.113,0,0,1-8.226,0V24.815a6.46,6.46,0,0,1,1.371-.137h5.484a6.46,6.46,0,0,1,1.371.137Z" fill="#f0d0b4"/>
        </g>
        <g id="Grupo_92802" data-name="Grupo 92802">
          <path id="Trazado_127158" data-name="Trazado 127158" d="M27.282,16.452a6.46,6.46,0,0,1,.137,1.371,6.855,6.855,0,1,1-13.71,0,6.46,6.46,0,0,1,.137-1.371Z" fill="#f0d0b4"/>
        </g>
        <g id="Grupo_92803" data-name="Grupo 92803">
          <path id="Trazado_127159" data-name="Trazado 127159" d="M47.984,16.589v1.234a4.113,4.113,0,0,1-8.226,0V16.589a6.46,6.46,0,0,1,1.371-.137h5.484A6.46,6.46,0,0,1,47.984,16.589Z" fill="#f0d0b4"/>
        </g>
        <g id="Grupo_92804" data-name="Grupo 92804">
          <path id="Trazado_127160" data-name="Trazado 127160" d="M50.589,8.226A6.46,6.46,0,0,1,50.726,9.6a6.855,6.855,0,0,1-13.71,0,6.46,6.46,0,0,1,.137-1.371Z" fill="#f0d0b4"/>
        </g>
        <g id="Grupo_92805" data-name="Grupo 92805">
          <path id="Trazado_127161" data-name="Trazado 127161" d="M71.29,24.815v1.234a4.113,4.113,0,0,1-8.226,0V24.815a6.46,6.46,0,0,1,1.371-.137h5.484a6.46,6.46,0,0,1,1.371.137Z" fill="#f0d0b4"/>
        </g>
        <g id="Grupo_92806" data-name="Grupo 92806">
          <path id="Trazado_127162" data-name="Trazado 127162" d="M73.9,19.194a6.856,6.856,0,0,1-13.573-1.371,6.46,6.46,0,0,1,.137-1.371H73.9a6.924,6.924,0,0,1,0,2.742Z" fill="#f0d0b4"/>
        </g>
        <g id="Grupo_92807" data-name="Grupo 92807">
          <path id="Trazado_127163" data-name="Trazado 127163" d="M68.548,53.468a6.725,6.725,0,0,0,3.222-.809l.891,3.551-4.113,2.742L64.435,56.21l.891-3.551Z" fill="#f0d0b4"/>
        </g>
        <g id="Grupo_92808" data-name="Grupo 92808">
          <path id="Trazado_127164" data-name="Trazado 127164" d="M66.766,38.483a4.683,4.683,0,0,0,3.112,1.851l3.167.452A2.755,2.755,0,0,1,75.4,43.5v3.112a6.46,6.46,0,0,1-.137,1.371,6.831,6.831,0,0,1-3.5,4.675,6.725,6.725,0,0,1-3.222.809l-3.222-.809A6.659,6.659,0,0,1,63.7,51.466a6.917,6.917,0,0,1-1.865-3.482,6.46,6.46,0,0,1-.137-1.371V44.035a5.5,5.5,0,0,1,4.154-5.319l.9-.219Z" fill="#f0d0b4"/>
        </g>
        <g id="Grupo_92809" data-name="Grupo 92809">
          <path id="Trazado_127165" data-name="Trazado 127165" d="M23.306,56.21l-4.113,2.742L15.081,56.21l.891-3.551a6.725,6.725,0,0,0,3.222.809l3.222-.809Z" fill="#f0d0b4"/>
        </g>
        <g id="Grupo_92810" data-name="Grupo 92810">
          <path id="Trazado_127166" data-name="Trazado 127166" d="M21.894,38.716a5.5,5.5,0,0,1,4.154,5.319v2.577a6.46,6.46,0,0,1-.137,1.371,6.917,6.917,0,0,1-1.865,3.482,6.659,6.659,0,0,1-1.631,1.193l-3.222.809a6.725,6.725,0,0,1-3.222-.809,6.831,6.831,0,0,1-3.5-4.675,6.46,6.46,0,0,1-.137-1.371V43.5A2.755,2.755,0,0,1,14.7,40.786l3.167-.452a4.683,4.683,0,0,0,3.112-1.851l.014.014Z" fill="#f0d0b4"/>
        </g>
        <g id="Grupo_92811" data-name="Grupo 92811">
          <path id="Trazado_127167" data-name="Trazado 127167" d="M53.043,54.249l-4,7.444H38.7l-4-7.444L36.276,54a4.1,4.1,0,0,0,3.482-4.058v-.151a9.563,9.563,0,0,0,4.154.932h.247a9.165,9.165,0,0,0,3.825-.823v.041A4.1,4.1,0,0,0,51.466,54Z" fill="#f0d0b4"/>
        </g>
        <g id="Grupo_92812" data-name="Grupo 92812">
          <path id="Trazado_127168" data-name="Trazado 127168" d="M53.468,35.645v5.772A9.32,9.32,0,0,1,47.984,49.9a9.165,9.165,0,0,1-3.825.823h-.247a9.614,9.614,0,0,1-9.638-9.6V35.645l2-.4a11.97,11.97,0,0,0,7.6-5.086,12.017,12.017,0,0,0,7.6,5.086Z" fill="#f0d0b4"/>
        </g>
      </g>
      <g id="Grupo_92814" data-name="Grupo 92814">
        <path id="Trazado_127169" data-name="Trazado 127169" d="M82.051,57.767a10.888,10.888,0,0,0-4.364-1.951l-3.907-.781-.437-1.752a8.241,8.241,0,0,0,3.15-4.575l.7-.664a11.91,11.91,0,0,0,3.7-8.626,10.572,10.572,0,0,0-2.742-7.1v-.786a8.23,8.23,0,0,0-5.366-7.7,8.239,8.239,0,0,0,2.178-3.359A6.84,6.84,0,1,0,68.472,9.709a8.21,8.21,0,0,0-6.9,14.118,8.176,8.176,0,0,0-4.3,3.684,16.6,16.6,0,0,0-2.436-2.723V23.306a8.23,8.23,0,0,0-5.366-7.7,8.226,8.226,0,1,0-11.2,0,8.23,8.23,0,0,0-5.366,7.7v1.482a16.593,16.593,0,0,0-2.436,2.721,8.185,8.185,0,0,0-4.3-3.684,8.225,8.225,0,1,0-11.2,0A8.244,8.244,0,0,0,10.055,28.9a4.115,4.115,0,0,0-3.2,4v6.515a11.915,11.915,0,0,0,3.7,8.625l.7.665a8.245,8.245,0,0,0,3.15,4.575l-.437,1.752-3.907.781A10.8,10.8,0,0,0,1.371,66.408V86.371h85V66.408a10.859,10.859,0,0,0-4.32-8.641ZM27.138,48.709l.281-.269v6.882c-.123.08-.251.154-.372.237l-2.623-.524-.437-1.752a8.245,8.245,0,0,0,3.15-4.575Zm-3.544,8.957.864.173A14.722,14.722,0,0,0,23.2,59.425l-1.283-.642Zm-4.783,5.4-.683-2.047,1.065-.533,2.675,1.337q-.269.609-.485,1.242H18.811Zm-3.16-.809.691,2.074-.392.784-1.276-2.37Zm3.019,3.551H20.73a15.44,15.44,0,0,0-.166,2.165v.622L19.194,71.14,17.54,68.067Zm1.895,8.571.284-.526A2.737,2.737,0,0,0,23.306,75.4v8.226H20.565ZM26.048,75.4h3.327a16.987,16.987,0,0,0,.618,1.9l1.538,3.846v2.479H26.048Zm6.492.883a14.092,14.092,0,0,1-.287-9.683l.579-1.734L30.233,64l-.58,1.734a16.841,16.841,0,0,0-.862,5.321q0,.808.077,1.605H23.306v-4.69a12.274,12.274,0,0,1,10.463-12.2l.175-.027L42.5,71.636V83.629H34.274V80.624ZM43.871,32.4a13.2,13.2,0,0,0,7.32,4.187l.906.181v4.646a7.948,7.948,0,0,1-7.938,7.939h-.241a8.26,8.26,0,0,1-8.272-8.229V36.769l.906-.181a13.2,13.2,0,0,0,7.32-4.187ZM40.842,51.654a11.055,11.055,0,0,0,3.075.443h.241a10.665,10.665,0,0,0,2.76-.374,5.427,5.427,0,0,0,4.017,3.556L48.22,60.323h-8.7l-2.716-5.044a5.421,5.421,0,0,0,4.036-3.625ZM43.871,68.4,41,63.065h5.744Zm1.371,3.238L53.8,55.749l.175.027A12.272,12.272,0,0,1,64.435,67.971v4.69H58.876q.074-.8.075-1.605a16.8,16.8,0,0,0-.864-5.321L57.509,64l-2.6.868.577,1.733a14.084,14.084,0,0,1-.285,9.685l-1.734,4.338v3.005H45.242Zm15.081-23.2.281.267a8.245,8.245,0,0,0,3.15,4.575l-.437,1.752-2.623.524c-.121-.084-.248-.158-.372-.237Zm8.608,14.624H66.359q-.216-.635-.485-1.242l2.675-1.338,1.065.533Zm-4.393-3.641a15.07,15.07,0,0,0-1.254-1.586l.864-.173,1.675,1.116ZM56.21,81.15,57.748,77.3a16.621,16.621,0,0,0,.618-1.9h3.327v8.226H56.21ZM64.435,75.4a2.737,2.737,0,0,0,2.458-1.552l.284.526v9.251H64.435Zm4.113-4.264-1.371-2.546v-.622a15.237,15.237,0,0,0-.167-2.165h2.061L70.2,68.069Zm3.244-6.024-.392-.784.691-2.074.978.489Zm3.735-6.934L74.37,60.329l-3.094-1.548,1.675-1.116ZM71.1,55.605l-2.549,1.7L66,55.6l.273-1.093a8.067,8.067,0,0,0,4.552,0Zm2.935-8.992a5.484,5.484,0,1,1-10.968,0V44.04a4.107,4.107,0,0,1,3.116-3.99l.112-.029a6.078,6.078,0,0,0,3.39,1.675l3.171.454a1.376,1.376,0,0,1,1.178,1.356Zm3.643-4.294a9.165,9.165,0,0,1-.9,1.908v-.721a4.131,4.131,0,0,0-3.53-4.07l-3.171-.454a3.386,3.386,0,0,1-2.9-3.337H64.435a6.056,6.056,0,0,0,.332,1.977,6.845,6.845,0,0,0-4.445,6.417V37.016a16.423,16.423,0,0,0-.111-1.845,7.9,7.9,0,0,1,6.626-3.639h3.422a7.9,7.9,0,0,1,7.886,7.886,9.138,9.138,0,0,1-.47,2.9ZM69.919,26.048a2.742,2.742,0,1,1-5.484,0ZM75.156,30a10.537,10.537,0,0,0-3.329-1.076,5.422,5.422,0,0,0,.76-2.148A5.47,5.47,0,0,1,75.156,30Zm-7.979-6.689a5.489,5.489,0,0,1-5.484-5.484H72.661A5.489,5.489,0,0,1,67.177,23.306ZM74.032,9.6a4.093,4.093,0,0,1,1.357,7.961,8.223,8.223,0,0,0-4.138-6.871A4.091,4.091,0,0,1,74.032,9.6Zm-6.855,2.742A5.466,5.466,0,0,1,71.9,15.081H62.457A5.462,5.462,0,0,1,67.177,12.339ZM61.765,26.756a5.43,5.43,0,0,0,1.213,2.778,10.7,10.7,0,0,0-3.522,2.255c-.129-.384-.26-.765-.417-1.135a5.445,5.445,0,0,1,2.725-3.9Zm-9.724-4a16.351,16.351,0,0,0-3.85-1.6,5.419,5.419,0,0,0,1.09-2.614A5.457,5.457,0,0,1,52.041,22.757ZM41.129,17.823h5.484a2.742,2.742,0,0,1-5.484,0Zm2.742-2.742A5.489,5.489,0,0,1,38.387,9.6H49.355A5.489,5.489,0,0,1,43.871,15.081Zm0-10.968a5.466,5.466,0,0,1,4.722,2.742H39.151A5.462,5.462,0,0,1,43.871,4.113ZM38.46,18.545a5.419,5.419,0,0,0,1.09,2.614,16.351,16.351,0,0,0-3.85,1.6A5.461,5.461,0,0,1,38.46,18.545Zm5.411,4.761a13.725,13.725,0,0,1,13.71,13.71V53.93a15.281,15.281,0,0,0-3.19-.864l-2.71-.417a2.72,2.72,0,0,1-2.217-1.977,10.68,10.68,0,0,0,5.374-9.257V34.521L51.727,33.9a10.471,10.471,0,0,1-6.486-4.187V26.048H42.5v3.663A10.478,10.478,0,0,1,36.013,33.9l-3.109.622v6.605a10.956,10.956,0,0,0,5.408,9.425,2.721,2.721,0,0,1-2.25,2.1l-2.71.417a15.281,15.281,0,0,0-3.19.864V37.016a13.725,13.725,0,0,1,13.71-13.71ZM28.7,30.653c-.1.23-.171.47-.259.7A9.645,9.645,0,0,0,24.953,29.3a5.422,5.422,0,0,0,1.023-2.547,5.436,5.436,0,0,1,2.725,3.9ZM17.823,26.048h5.484a2.742,2.742,0,0,1-5.484,0Zm2.742-2.742a5.489,5.489,0,0,1-5.484-5.484H26.048A5.489,5.489,0,0,1,20.565,23.306Zm0-10.968a5.466,5.466,0,0,1,4.722,2.742H15.844A5.462,5.462,0,0,1,20.565,12.339ZM15.152,26.75a5.416,5.416,0,0,0,.692,2.04H13.083A5.5,5.5,0,0,1,15.152,26.75ZM10.067,42.318a9.123,9.123,0,0,1-.47-2.9V32.9a1.372,1.372,0,0,1,1.371-1.371H21.935a6.878,6.878,0,0,1,5.684,3.049,16.573,16.573,0,0,0-.2,2.435V44.04a6.843,6.843,0,0,0-4.445-6.417,6.055,6.055,0,0,0,.332-1.977H20.565a3.389,3.389,0,0,1-2.894,3.338l-3.171.454a4.13,4.13,0,0,0-3.532,4.069v.721a9.176,9.176,0,0,1-.9-1.91Zm3.643,1.189a1.378,1.378,0,0,1,1.176-1.357l3.171-.454a6.092,6.092,0,0,0,3.39-1.675l.114.029a4.109,4.109,0,0,1,3.116,3.991v2.573a5.484,5.484,0,1,1-10.968,0Zm5.484,11.332a8.161,8.161,0,0,0,2.276-.328l.273,1.093-2.549,1.7-2.549-1.7.273-1.093A8.161,8.161,0,0,0,19.194,54.839Zm-4.4,2.827,1.675,1.116-3.094,1.548-1.158-2.148ZM4.113,66.408a8,8,0,0,1,5.34-7.575l8.37,15.545v9.25H9.6V68.548H6.855V83.629H4.113ZM83.629,83.629H80.887V68.548H78.145V83.629H69.919v-9.25l8.37-15.544a8,8,0,0,1,5.34,7.573Z"/>
        <path id="Trazado_127170" data-name="Trazado 127170" d="M43.871,46.613A5.775,5.775,0,0,0,49.066,43.4l.144-.289-2.453-1.227-.144.291a3.066,3.066,0,0,1-5.484,0l-.144-.289-2.453,1.227.144.288A5.775,5.775,0,0,0,43.871,46.613Z"/>
      </g>
    </g>
  </g>
</svg>
