<svg xmlns="http://www.w3.org/2000/svg" width="341.254" height="258.867" viewBox="0 0 341.254 258.867">
  <g id="Grupo_92999" data-name="Grupo 92999" transform="translate(-48.39 -42.66)">
    <g id="shadow" transform="translate(65.32 279.686)">
      <path id="Trazado_127255" data-name="Trazado 127255" d="M241.442,662.311c-9.5.017-19,.157-28.477.8-3.575.244-7.075.78-10.658,1-7.157.432-14.186,1.237-21.368,1.609-5.783.3-11.591.475-17.358.855a99.355,99.355,0,0,1-16.758-.314c-3.972-.435-7.962-.68-11.867-1.379a77.117,77.117,0,0,0-13.666-1.321c-6.491.029-12.811.032-19.023,1.413a23.547,23.547,0,0,0-6.505,2.3c-3.79,2.329-4.3,8.141-.519,10.556,6.374,4.065,19.979,5.66,28.914,5.736,9.791.083,19.3-.363,29.108-.625,9.111-.243,18.2-.589,27.326-.578,18.639.025,37.281,0,55.887-.763,17.481-.717,35.005-.471,52.524-.471,17.965,0,35.809.086,53.644,1.55,7.771.638,15.688.861,23.5,1.307a185.389,185.389,0,0,0,20.683-.378,75.187,75.187,0,0,0,16.976-2.788c4.207-1.232,11.707-5.059,13-8,3.617-8.244-50.972-8.046-59.353-8.028-9.376.021-18.827.21-28.2-.009a106.1,106.1,0,0,1-11.67-1.081c-3.831-.515-7.691-.384-11.576-.6-16.2-.9-32.439-.771-48.693-.771C252.025,662.33,246.734,662.3,241.442,662.311Z" transform="translate(-92.65 -662.309)" fill="#fed5b1"/>
    </g>
    <g id="object" transform="translate(48.39 42.659)">
      <g id="Grupo_92891" data-name="Grupo 92891" transform="translate(248.131 90.132)">
        <g id="Grupo_92884" data-name="Grupo 92884">
          <g id="Grupo_92881" data-name="Grupo 92881" transform="translate(0 24.843)">
            <path id="Trazado_127256" data-name="Trazado 127256" d="M705.551,355.673l-2.278-1.233-.617-2.2-.532-.106-.157.65-1.035-1.678-1.516-.513-1.729,1.244-.619,2.112,1.417,1.586,2.4.789,3.045,1.822Z" transform="translate(-697.068 -347.779)" fill="#e8bdb8"/>
            <path id="Trazado_127257" data-name="Trazado 127257" d="M711.92,348.588l13.414,9.376,13.724-14.73,1.635,16.71-13.374,8.8-17.843-15.732Z" transform="translate(-704.729 -343.234)" fill="#bcbec0"/>
          </g>
          <g id="Grupo_92882" data-name="Grupo 92882" transform="translate(38.662 82.809)">
            <path id="Trazado_127258" data-name="Trazado 127258" d="M832.169,673.4l.229,2.256-4.1,2.813-2.392-1.977,1.935-2.534,4.1-2.813Z" transform="translate(-815.287 -603.676)" fill="#3b455a"/>
            <path id="Trazado_127259" data-name="Trazado 127259" d="M814.922,495.523l.694,6.851-6.146,23.538,5.707,37.823-4.2,1.447L799.9,528.255l-1.758-10.743.064-22.742Z" transform="translate(-798.142 -494.771)" fill="#d7e8f4"/>
          </g>
          <g id="Grupo_92883" data-name="Grupo 92883" transform="translate(23.134 85.435)">
            <path id="Trazado_127260" data-name="Trazado 127260" d="M757.548,507.4l8.836,63.379H770.4l.723-40.626,7.31-28.515Z" transform="translate(-757.548 -501.636)" fill="#d7e8f4"/>
            <path id="Trazado_127261" data-name="Trazado 127261" d="M780.569,681.076v2.277l-4.343,2.277-2.172-2.277,2.172-2.277Z" transform="translate(-767.741 -612.437)" fill="#3b455a"/>
          </g>
          <path id="Trazado_127262" data-name="Trazado 127262" d="M750.83,342.79a3.612,3.612,0,0,1,1.326-1.292c3.99-2.252,10.6-.269,14.933-.269,1.279,13.471,4.817,26.311,7.1,39.538q3.639,21.072,8.194,41.972c.172.789-12.049.391-13.2.41-11.758.2-27.148.158-38.493-3.4,7.24-19.438,9.884-40.352,15.585-60.3,1-3.5,2.19-6.95,3.091-10.48C749.888,346.931,749.808,344.462,750.83,342.79Z" transform="translate(-717.829 -316.655)" fill="#b4b6b8"/>
          <path id="Trazado_127263" data-name="Trazado 127263" d="M784.6,287.127a7.926,7.926,0,0,0-5.646,6.637,6.976,6.976,0,0,1,1.535-11.293,8.076,8.076,0,0,1,3.888,4.709Z" transform="translate(-746.26 -280.87)" fill="#3b455a"/>
          <path id="Trazado_127264" data-name="Trazado 127264" d="M780.812,296.044c1.538-8.119,11.682-6.716,14.592-.141,1.655,3.739-.079,9.032-3.389,11.633-.071.719-.164,2.7-.714,3.183-.6.52-2.47.024-3.2-.146a1.132,1.132,0,0,1-.565-.254,2.117,2.117,0,0,1-.219-1.231,6.75,6.75,0,0,1-1.654-.326,7.858,7.858,0,0,1-4.775-5.34A15.741,15.741,0,0,1,780.812,296.044Z" transform="translate(-748.53 -285.8)" fill="#e8bdb8"/>
          <path id="Trazado_127265" data-name="Trazado 127265" d="M798.791,320.761a2.117,2.117,0,0,1-.232-.023c-1.789-.307-4.661-.885-5.491-2.77-.852-1.932.661-5.436.911-7.443.38-3.051.506-6.129.653-9.2a14.013,14.013,0,0,0-2.3-7.856,44.1,44.1,0,0,0-5.206-6.461,6.559,6.559,0,0,1-1.815-2.891,4.275,4.275,0,0,1,1.06-3.537,5.993,5.993,0,0,1,4.679-2.289c6.709-.16,11.753,3.809,13.656,10.361,2.727,9.389-.68,18.348-.172,27.691a8.929,8.929,0,0,0,1.509,4.488C805.8,320.481,800.238,320.843,798.791,320.761Z" transform="translate(-751.51 -278.288)" fill="#3b455a"/>
        </g>
        <path id="Trazado_127266" data-name="Trazado 127266" d="M813.729,376.287a4.32,4.32,0,0,0,2.02-3.471,18.934,18.934,0,0,0-.51-4.417,36.324,36.324,0,0,1,.314-14.058c1.014-4.583,6.361,1.18,7.026,3.247.737,2.292.529,4.787.709,7.156q.361,4.772.342,9.563c-.008,2.019.488,6.787-1.636,7.941a5.84,5.84,0,0,1-1.88.527c-1.014.164-13.124,1.692-13.314,1.094l-1.673-5.278C807.646,378.076,811.42,377.848,813.729,376.287Z" transform="translate(-763.793 -324.184)" fill="#bcbec0"/>
        <g id="Grupo_92885" data-name="Grupo 92885" transform="translate(37.229 49.543)">
          <path id="Trazado_127267" data-name="Trazado 127267" d="M816.812,430.889a.582.582,0,0,1-.688-.453l-2.985-14.374a8.882,8.882,0,1,0-17.392,3.612l2.985,14.374a.582.582,0,1,1-1.139.237l-2.985-14.374a10.046,10.046,0,1,1,19.672-4.085l2.985,14.373A.583.583,0,0,1,816.812,430.889Z" transform="translate(-794.395 -407.806)" fill="#1a3151"/>
        </g>
        <path id="Trazado_127268" data-name="Trazado 127268" d="M888.11,493.557l-2.864-2.355-6.021-46.466,2,.776,3.03.02Z" transform="translate(-809.547 -381.067)" fill="#9c8375"/>
        <path id="Trazado_127269" data-name="Trazado 127269" d="M884.449,446.764l5.759,36.578-2.73-36.558Z" transform="translate(-812.772 -382.319)" fill="#ad9282"/>
        <path id="Trazado_127270" data-name="Trazado 127270" d="M764.131,453.868l44.059-9.15,7.045,46.362L769.9,499.844Z" transform="translate(-738.478 -381.056)" fill="#ba9d8c"/>
        <path id="Trazado_127271" data-name="Trazado 127271" d="M837.1,492.671,790.787,503.7l-9.469-47.971,42.5-8.879Z" transform="translate(-749.091 -382.369)" fill="#eac5b0"/>
        <path id="Trazado_127272" data-name="Trazado 127272" d="M780.216,517.16l-10.272-2.538-5.772-45.976,3.673-.005,2.9.547Z" transform="translate(-738.504 -395.828)" fill="#e3bfab"/>
        <path id="Trazado_127273" data-name="Trazado 127273" d="M773.774,468.642l7.169,41.806,5.236,6.706L776.7,469.175Z" transform="translate(-744.433 -395.828)" fill="#d4b29f"/>
        <path id="Trazado_127274" data-name="Trazado 127274" d="M779.253,582.121l5.073-4.189,5.236,6.706Z" transform="translate(-747.816 -463.313)" fill="#c9a997"/>
        <g id="Grupo_92887" data-name="Grupo 92887" transform="translate(43.093 75.901)">
          <path id="Trazado_127275" data-name="Trazado 127275" d="M812.029,477.641a1.164,1.164,0,1,0-.9,1.378A1.165,1.165,0,0,0,812.029,477.641Z" transform="translate(-809.726 -476.712)" fill="#9ea6ad"/>
          <g id="Grupo_92886" data-name="Grupo 92886" transform="translate(0.499 0.5)">
            <path id="Trazado_127276" data-name="Trazado 127276" d="M812.346,478.549a.665.665,0,1,0-.516.788A.666.666,0,0,0,812.346,478.549Z" transform="translate(-811.029 -478.018)" fill="#ba9d8c"/>
          </g>
        </g>
        <g id="Grupo_92889" data-name="Grupo 92889" transform="translate(61.636 72.05)">
          <path id="Trazado_127277" data-name="Trazado 127277" d="M860.5,467.574a1.164,1.164,0,1,0-.9,1.378A1.165,1.165,0,0,0,860.5,467.574Z" transform="translate(-858.201 -466.645)" fill="#9ea6ad"/>
          <g id="Grupo_92888" data-name="Grupo 92888" transform="translate(0.499 0.499)">
            <path id="Trazado_127278" data-name="Trazado 127278" d="M860.821,468.482a.665.665,0,1,0-.516.788A.665.665,0,0,0,860.821,468.482Z" transform="translate(-859.505 -467.95)" fill="#ba9d8c"/>
          </g>
        </g>
        <g id="Grupo_92890" data-name="Grupo 92890" transform="translate(40.475 50.601)">
          <path id="Trazado_127279" data-name="Trazado 127279" d="M825.3,433.654a.583.583,0,0,1-.689-.452l-2.985-14.374a8.882,8.882,0,1,0-17.393,3.612l2.985,14.374a.582.582,0,1,1-1.14.237l-2.985-14.374a10.046,10.046,0,1,1,19.671-4.085l2.985,14.374A.582.582,0,0,1,825.3,433.654Z" transform="translate(-802.88 -410.571)" fill="#1a3151"/>
        </g>
        <path id="Trazado_127280" data-name="Trazado 127280" d="M794.492,421.657l-2.7.883-2.215-1.167-.486.344.4.615-2.115-.442-1.551.819-.314,2.313,1.213,2.084,2.33.068,2.439-1.316,3.745-1.048Z" transform="translate(-751.681 -366.641)" fill="#e8bdb8"/>
        <path id="Trazado_127281" data-name="Trazado 127281" d="M815.307,416.371a9.581,9.581,0,0,1-1.528-1.064c-.143-.068-.294-.128-.447-.186-2.327,1.343-5.823,1.579-8.2,2.067l1.673,5.278c.158.5,8.514-.469,11.938-.907C817.631,419.808,816.785,417.771,815.307,416.371Z" transform="translate(-763.793 -362.78)" fill="#bcbec0"/>
      </g>
      <g id="Grupo_92936" data-name="Grupo 92936" transform="translate(0 45.598)">
        <g id="Grupo_92892" data-name="Grupo 92892" transform="translate(35.103 64.261)">
          <path id="Trazado_127282" data-name="Trazado 127282" d="M175.977,335.539l-8.343,3.286-13.641,11.3-6.236-20.266-7.6,1.364,4.872,24.748,7.99,7.21,22.995-12.666Z" transform="translate(-140.158 -329.861)" fill="#305399"/>
        </g>
        <g id="Grupo_92893" data-name="Grupo 92893" transform="translate(8.433)">
          <path id="Trazado_127283" data-name="Trazado 127283" d="M151.365,209.729l-68.11,15.343a2.647,2.647,0,0,1-3.149-2.006l-9.6-42.632a2.647,2.647,0,0,1,1.984-3.162l68.11-15.344a2.647,2.647,0,0,1,3.149,2.006l9.6,42.632A2.648,2.648,0,0,1,151.365,209.729Z" transform="translate(-70.437 -161.865)" fill="#3b455a"/>
        </g>
        <g id="Grupo_92894" data-name="Grupo 92894" transform="translate(15.303 28.749)">
          <rect id="Rectángulo_35980" data-name="Rectángulo 35980" width="13.133" height="9.837" rx="0.658" transform="translate(0 2.886) rotate(-12.695)" fill="#f7f7f7"/>
        </g>
        <g id="Grupo_92895" data-name="Grupo 92895" transform="translate(17.336 32.701)" opacity="0.3" style="mix-blend-mode: multiply;isolation: isolate">
          <path id="Trazado_127284" data-name="Trazado 127284" d="M106.285,251.371l-.905-4.016c-2.447,3.7-8.314,6.522-11.669,7.957.1.638.211.575.878.4l11.466-2.577C106.81,252.966,106.659,253.036,106.285,251.371Z" transform="translate(-93.71 -247.355)" fill="#a0a1a3"/>
        </g>
        <g id="Grupo_92900" data-name="Grupo 92900" transform="translate(18.196 29.974)">
          <g id="Grupo_92896" data-name="Grupo 92896" transform="translate(0 11.166)">
            <rect id="Rectángulo_35981" data-name="Rectángulo 35981" width="15.183" height="4.856" transform="translate(0 3.337) rotate(-12.695)" fill="#d7e8f4"/>
          </g>
          <g id="Grupo_92897" data-name="Grupo 92897" transform="translate(16.521 7.444)">
            <rect id="Rectángulo_35982" data-name="Rectángulo 35982" width="15.183" height="4.856" transform="translate(0 3.337) rotate(-12.695)" fill="#d7e8f4"/>
          </g>
          <g id="Grupo_92898" data-name="Grupo 92898" transform="translate(33.043 3.722)">
            <rect id="Rectángulo_35983" data-name="Rectángulo 35983" width="15.183" height="4.856" transform="translate(0 3.337) rotate(-12.695)" fill="#d7e8f4"/>
          </g>
          <g id="Grupo_92899" data-name="Grupo 92899" transform="translate(49.564 0)">
            <rect id="Rectángulo_35984" data-name="Rectángulo 35984" width="15.183" height="4.856" transform="translate(0 3.337) rotate(-12.695)" fill="#d7e8f4"/>
          </g>
        </g>
        <g id="Grupo_92901" data-name="Grupo 92901" transform="translate(13.919 13.133)">
          <path id="Trazado_127285" data-name="Trazado 127285" d="M89.39,221.592a2.124,2.124,0,0,1-1.319.928,2.095,2.095,0,1,1,.667-3.816l.106.063.41-.61-.107-.073a2.849,2.849,0,1,0,.882,3.886l.067-.114-.639-.362Z" transform="translate(-84.778 -209.43)" fill="#fff"/>
          <path id="Trazado_127286" data-name="Trazado 127286" d="M100.916,216.637a1.6,1.6,0,0,0-1.91-1.216l-1.667.376,1.221,5.421.733-.165-.517-2.294.794-.179,1.653,2.038.824-.186-1.752-2.149A1.614,1.614,0,0,0,100.916,216.637Zm-.733.165a.845.845,0,0,1-.639,1.01l-.934.21-.373-1.655.934-.21A.86.86,0,0,1,100.183,216.8Z" transform="translate(-92.534 -208.044)" fill="#fff"/>
          <path id="Trazado_127287" data-name="Trazado 127287" d="M108.419,218.623l2.868-.646-.166-.736-2.115.476-.455-2.02,1.848-.416-.166-.736-1.848.416-.269-1.193,2.115-.476-.166-.736-2.868.646Z" transform="translate(-98.622 -206.298)" fill="#fff"/>
          <path id="Trazado_127288" data-name="Trazado 127288" d="M117.636,211.28l-1.277.288,1.221,5.421,1.276-.288a2.779,2.779,0,1,0-1.221-5.421Zm1.055,4.685-.544.123-.89-3.95.544-.123a1.869,1.869,0,0,1,2.485,1.5A1.9,1.9,0,0,1,118.691,215.966Z" transform="translate(-104.279 -205.454)" fill="#fff"/>
          <rect id="Rectángulo_35985" data-name="Rectángulo 35985" width="0.751" height="5.557" transform="matrix(0.976, -0.22, 0.22, 0.976, 16.7, 5.073)" fill="#fff"/>
          <path id="Trazado_127289" data-name="Trazado 127289" d="M131.286,208.347l1.348-.3,1.055,4.685.733-.165-1.055-4.685,1.341-.3-.166-.736-3.423.771Z" transform="translate(-113.393 -202.769)" fill="#fff"/>
          <path id="Trazado_127290" data-name="Trazado 127290" d="M151.579,207.5l-.068.1a2.124,2.124,0,0,1-1.319.928,2.1,2.1,0,1,1,.667-3.816l.106.063.41-.611-.107-.073a2.849,2.849,0,1,0,.882,3.886l.067-.114Z" transform="translate(-123.137 -200.789)" fill="#fff"/>
          <path id="Trazado_127291" data-name="Trazado 127291" d="M162.572,201.167l-1.364,6,.815-.184.4-1.792,2.3-.518,1.138,1.445.808-.182-3.8-4.841Zm1.631,2.854-1.591.358.421-1.852Z" transform="translate(-131.972 -199.225)" fill="#fff"/>
          <path id="Trazado_127292" data-name="Trazado 127292" d="M176.618,199.583a1.6,1.6,0,0,0-1.91-1.216l-1.667.376,1.221,5.421L175,204l-.517-2.294.794-.179,1.653,2.038.824-.186L176,201.229A1.616,1.616,0,0,0,176.618,199.583Zm-.733.165a.846.846,0,0,1-.639,1.01l-.934.21-.373-1.655.934-.211A.86.86,0,0,1,175.885,199.748Z" transform="translate(-139.279 -197.513)" fill="#fff"/>
          <path id="Trazado_127293" data-name="Trazado 127293" d="M184.177,196.29l-1.277.288L184.121,202l1.277-.288a2.779,2.779,0,1,0-1.221-5.421Zm2.65,2.237a1.9,1.9,0,0,1-1.6,2.449l-.544.123-.89-3.95.544-.123A1.869,1.869,0,0,1,186.827,198.527Z" transform="translate(-145.367 -196.198)" fill="#fff"/>
        </g>
        <g id="Grupo_92902" data-name="Grupo 92902" transform="translate(53.066 38.085)">
          <rect id="Rectángulo_35986" data-name="Rectángulo 35986" width="32.118" height="1.471" transform="translate(0 7.059) rotate(-12.695)" fill="#f7f7f7"/>
        </g>
        <g id="Grupo_92925" data-name="Grupo 92925" transform="translate(33.154 46.528)">
          <g id="Grupo_92903" data-name="Grupo 92903" transform="translate(83.043 33.079)">
            <path id="Trazado_127294" data-name="Trazado 127294" d="M352.159,373.147l3.219-3.168,5.075.12.579,2.574-7.669,3.313Z" transform="translate(-352.159 -369.978)" fill="#e8bdb8"/>
          </g>
          <path id="Trazado_127295" data-name="Trazado 127295" d="M249.521,298.456c-.614-6.914-3.272-8.173-3.272-8.173h0a6.105,6.105,0,0,0-2.416-1.216,7.076,7.076,0,0,0-2.306,4.825l-.2,0a6.54,6.54,0,0,1,2.418.539c.583,4.121,1.471,10.679,1.5,12.6.047,2.859.723,2.912,2.646,3.538s3.952-.982,3.952-.982A42.281,42.281,0,0,1,249.521,298.456Z" transform="translate(-200.678 -286.938)" fill="#bcbec0"/>
          <g id="Grupo_92917" data-name="Grupo 92917" transform="translate(25.135 22.215)">
            <g id="Grupo_92908" data-name="Grupo 92908" transform="translate(4.2 59.146)">
              <g id="Grupo_92905" data-name="Grupo 92905" transform="translate(0.351 65.224)">
                <g id="Grupo_92904" data-name="Grupo 92904">
                  <path id="Trazado_127296" data-name="Trazado 127296" d="M212.89,668.9l-.221,2.181,3.956,2.719,2.309-1.912-1.868-2.45-3.956-2.719Z" transform="translate(-212.669 -666.714)" fill="#eac5b0"/>
                </g>
              </g>
              <g id="Grupo_92907" data-name="Grupo 92907">
                <g id="Grupo_92906" data-name="Grupo 92906">
                  <path id="Trazado_127297" data-name="Trazado 127297" d="M212.422,496.928l-.67,6.623,5.932,22.756-5.508,36.568,4.055,1.4,10.692-35.7,1.7-10.386-.062-21.987Z" transform="translate(-211.753 -496.201)" fill="#bcbec0"/>
                </g>
              </g>
            </g>
            <g id="Grupo_92913" data-name="Grupo 92913" transform="translate(15.897 61.685)">
              <g id="Grupo_92910" data-name="Grupo 92910">
                <g id="Grupo_92909" data-name="Grupo 92909">
                  <path id="Trazado_127298" data-name="Trazado 127298" d="M262.49,508.408l-8.529,61.274h-3.877l-.7-39.277-7.056-27.568Z" transform="translate(-242.331 -502.838)" fill="#bcbec0"/>
                </g>
              </g>
              <g id="Grupo_92912" data-name="Grupo 92912" transform="translate(7.776 66.36)">
                <g id="Grupo_92911" data-name="Grupo 92911">
                  <path id="Trazado_127299" data-name="Trazado 127299" d="M262.659,676.32v2.2l4.192,2.2,2.1-2.2-2.1-2.2Z" transform="translate(-262.659 -676.32)" fill="#eac5b0"/>
                </g>
              </g>
            </g>
            <g id="Grupo_92916" data-name="Grupo 92916">
              <g id="Grupo_92915" data-name="Grupo 92915">
                <g id="Grupo_92914" data-name="Grupo 92914">
                  <path id="Trazado_127300" data-name="Trazado 127300" d="M205.857,393.326c3.311-22.29,2.128-38.523,2.3-42.981a9.311,9.311,0,0,1,3.225-6.77c1.341-.307,2.508-1.191,3.861-1.54,9.154-2.359,14.148,4.8,17.574,12.525a224.884,224.884,0,0,1,10.637,29.381c2.517,8.8,5.039,17.687,6.1,26.824.435,3.77.8,7.345-3.23,9.008-6.42,2.65-13.635,2.592-20.416,3.442-7.79.976-15.59,1.689-23.431,2.023C198.379,425.413,202.546,415.616,205.857,393.326Z" transform="translate(-200.773 -341.578)" fill="#305399"/>
                </g>
              </g>
            </g>
          </g>
          <g id="Grupo_92918" data-name="Grupo 92918" transform="translate(0 9.354)">
            <path id="Trazado_127301" data-name="Trazado 127301" d="M138.5,317.432,135.063,314l1.169-6.041h3.313l.974,5.262,1.681,1.01v2.54Z" transform="translate(-135.063 -307.955)" fill="#e8bdb8"/>
          </g>
          <g id="Grupo_92919" data-name="Grupo 92919" transform="translate(44.04 22.215)">
            <path id="Trazado_127302" data-name="Trazado 127302" d="M250.2,341.578l8.769,1.559,15.828,15.312,14.189-4.98,4.562,5.816-18.989,11.134-20.072-12.861Z" transform="translate(-250.196 -341.578)" fill="#305399"/>
          </g>
          <g id="Grupo_92920" data-name="Grupo 92920" transform="translate(35.663 21.826)">
            <path id="Trazado_127303" data-name="Trazado 127303" d="M238.835,341.416l1.614,23.7L228.3,342.587l3.544-1.266,2.532-.76Z" transform="translate(-228.296 -340.561)" fill="#3b455a"/>
          </g>
          <g id="Grupo_92922" data-name="Grupo 92922" transform="translate(34.097 5.476)">
            <g id="Grupo_92921" data-name="Grupo 92921">
              <path id="Trazado_127304" data-name="Trazado 127304" d="M236.734,301.411c-3.021-6.579-11.336-3.247-12.418,2.957-.615,3.528,1.257,9.66,5.469,9.718.212.6.576,1.722,1.144,2.015.615.317,2.1-.5,2.69-.8a.99.99,0,0,0,.425-.335,1.856,1.856,0,0,0-.074-1.093,5.907,5.907,0,0,0,1.335-.626,6.882,6.882,0,0,0,2.925-5.547A13.815,13.815,0,0,0,236.734,301.411Z" transform="translate(-224.202 -297.818)" fill="#e8bdb8"/>
            </g>
          </g>
          <g id="Grupo_92924" data-name="Grupo 92924" transform="translate(26.315)">
            <g id="Grupo_92923" data-name="Grupo 92923">
              <path id="Trazado_127305" data-name="Trazado 127305" d="M220.526,285.654s1.762,3.537-2.764,5.766-6.7,6.745-4.9,10.492,6.067,5.781,4.453,7.286-8.736,2.17-8.736,2.17-7.622-12.9-3.5-20.33S217.257,281.387,220.526,285.654Z" transform="translate(-203.858 -283.502)" fill="#bcbec0"/>
            </g>
          </g>
        </g>
        <g id="Grupo_92926" data-name="Grupo 92926" transform="translate(49.322 83.49)">
          <path id="Trazado_127306" data-name="Trazado 127306" d="M177.748,393.245l1.336-.736.967-4.057a9.746,9.746,0,0,0-1.853-8.323l-.869.72a8.618,8.618,0,0,1,1.623,7.341Z" transform="translate(-177.33 -380.13)" fill="#3b455a"/>
        </g>
        <g id="Grupo_92934" data-name="Grupo 92934" transform="translate(0.009 78.416)">
          <g id="Grupo_92933" data-name="Grupo 92933">
            <g id="Grupo_92927" data-name="Grupo 92927" transform="translate(28.663)">
              <path id="Trazado_127307" data-name="Trazado 127307" d="M141.089,393.612a.565.565,0,0,1-.35-.718l4.631-13.467a8.616,8.616,0,1,0-16.295-5.6l-4.631,13.467a.564.564,0,1,1-1.068-.367l4.631-13.466a9.745,9.745,0,1,1,18.43,6.338l-4.631,13.467A.565.565,0,0,1,141.089,393.612Z" transform="translate(-123.345 -366.866)" fill="#3b455a"/>
            </g>
            <path id="Trazado_127308" data-name="Trazado 127308" d="M157.375,475.371l-1.222-3.383,18-41.736,1.282,1.637,2.517,1.518Z" transform="translate(-114.941 -406.006)" fill="#9c8375"/>
            <path id="Trazado_127309" data-name="Trazado 127309" d="M185.058,434.531l-13.317,33.36,15.834-31.842Z" transform="translate(-124.566 -408.648)" fill="#ad9282"/>
            <path id="Trazado_127310" data-name="Trazado 127310" d="M66.376,393.17l41.278,14.195L90.563,449.522,48.414,434.374Z" transform="translate(-48.414 -383.108)" fill="#ba9d8c"/>
            <path id="Trazado_127311" data-name="Trazado 127311" d="M111.609,461.314,67.523,447.566l15.867-44.7,39.848,13.651Z" transform="translate(-60.214 -389.096)" fill="#eac5b0"/>
            <path id="Trazado_127312" data-name="Trazado 127312" d="M79.607,397.916,64.876,436.334l1.045,8.186,15.884-44.779Z" transform="translate(-58.579 -386.039)" fill="#d4b29f"/>
            <g id="Grupo_92929" data-name="Grupo 92929" transform="translate(30.242 21.695)">
              <path id="Trazado_127313" data-name="Trazado 127313" d="M129.671,425.081a1.129,1.129,0,1,0-1.435.7A1.13,1.13,0,0,0,129.671,425.081Z" transform="translate(-127.474 -423.583)" fill="#9ea6ad"/>
              <g id="Grupo_92928" data-name="Grupo 92928" transform="translate(0.484 0.485)">
                <path id="Trazado_127314" data-name="Trazado 127314" d="M130,425.707a.645.645,0,1,0-.82.4A.645.645,0,0,0,130,425.707Z" transform="translate(-128.74 -424.851)" fill="#ba9d8c"/>
              </g>
            </g>
            <g id="Grupo_92931" data-name="Grupo 92931" transform="translate(47.614 27.67)">
              <path id="Trazado_127315" data-name="Trazado 127315" d="M175.087,440.7a1.129,1.129,0,1,0-1.435.7A1.13,1.13,0,0,0,175.087,440.7Z" transform="translate(-172.89 -439.201)" fill="#9ea6ad"/>
              <g id="Grupo_92930" data-name="Grupo 92930" transform="translate(0.484 0.485)">
                <path id="Trazado_127316" data-name="Trazado 127316" d="M175.411,441.325a.645.645,0,1,0-.82.4A.646.646,0,0,0,175.411,441.325Z" transform="translate(-174.156 -440.468)" fill="#ba9d8c"/>
              </g>
            </g>
            <g id="Grupo_92932" data-name="Grupo 92932" transform="translate(30.845 2.49)">
              <path id="Trazado_127317" data-name="Trazado 127317" d="M146.795,400.121a.565.565,0,0,1-.35-.718l4.631-13.467a8.616,8.616,0,1,0-16.295-5.6L130.15,393.8a.565.565,0,1,1-1.068-.367l4.631-13.467a9.745,9.745,0,1,1,18.43,6.338l-4.631,13.466A.565.565,0,0,1,146.795,400.121Z" transform="translate(-129.051 -373.375)" fill="#3b455a"/>
            </g>
          </g>
        </g>
        <g id="Grupo_92935" data-name="Grupo 92935" transform="translate(35.103 64.261)">
          <path id="Trazado_127318" data-name="Trazado 127318" d="M150.623,354.474c1.063-1.628,1.992-3.386,3.191-4.926l-6.058-19.688-7.6,1.364,4.872,24.749,2.979,2.688C148.833,357.241,149.721,355.856,150.623,354.474Z" transform="translate(-140.157 -329.861)" fill="#305399"/>
        </g>
        <path id="Trazado_127319" data-name="Trazado 127319" d="M48.39,434.384l6.306-.98,14.731-38.418-3.066-1.815Z" transform="translate(-48.39 -304.692)" fill="#e3bfab"/>
        <path id="Trazado_127320" data-name="Trazado 127320" d="M48.39,499.331l6.306-.98,1.045,8.186Z" transform="translate(-48.39 -369.639)" fill="#c9a997"/>
      </g>
      <g id="Grupo_92954" data-name="Grupo 92954" transform="translate(177.717 79.712)">
        <g id="Grupo_92948" data-name="Grupo 92948" transform="translate(30.357 3.7)">
          <g id="Grupo_92941" data-name="Grupo 92941" transform="translate(1.397 82.037)">
            <g id="Grupo_92937" data-name="Grupo 92937" transform="translate(11.285 2.36)">
              <path id="Trazado_127321" data-name="Trazado 127321" d="M641.05,481.357l1.561,10.742-3.133,60.585-5.255-1.1L625.5,482.706Z" transform="translate(-625.504 -481.357)" fill="#9ea6ad"/>
            </g>
            <g id="Grupo_92938" data-name="Grupo 92938">
              <path id="Trazado_127322" data-name="Trazado 127322" d="M597.017,475.529,596,515.693l10.2,34.671,5.946-2.211-5.008-30.919,4.6-42.047Z" transform="translate(-596.002 -475.186)" fill="#9ea6ad"/>
            </g>
            <g id="Grupo_92939" data-name="Grupo 92939" transform="translate(7.66 69.72)">
              <path id="Trazado_127323" data-name="Trazado 127323" d="M624.536,657.452l-7.118,3.263,2.39,4.978-3.733,2.352s-.352,2.072.9,2.948,9.376-5.947,9.376-5.947Z" transform="translate(-616.028 -657.452)" fill="#3b455a"/>
            </g>
            <g id="Grupo_92940" data-name="Grupo 92940" transform="translate(15.549 70.897)">
              <path id="Trazado_127324" data-name="Trazado 127324" d="M647.933,660.529l-7.721,1.3,1.016,5.427-4.216,1.3s-.878,1.91.107,3.08,10.6-3.31,10.6-3.31Z" transform="translate(-636.651 -660.529)" fill="#1a3151"/>
            </g>
          </g>
          <g id="Grupo_92942" data-name="Grupo 92942" transform="translate(12.712 11.016)">
            <path id="Trazado_127325" data-name="Trazado 127325" d="M626.088,295.382a21.113,21.113,0,0,0,2.341,5.081,35.9,35.9,0,0,1,1.413-9.712.946.946,0,0,0,.013-.729.884.884,0,0,0-.593-.337C625.2,288.7,625.129,292.266,626.088,295.382Z" transform="translate(-625.581 -289.518)" fill="#bcbec0"/>
          </g>
          <g id="Grupo_92946" data-name="Grupo 92946" transform="translate(2.076)">
            <g id="Grupo_92943" data-name="Grupo 92943" transform="translate(12.436 5.662)">
              <path id="Trazado_127326" data-name="Trazado 127326" d="M631.222,291.884a6.264,6.264,0,0,0,2.525,3.7,4.47,4.47,0,0,0,4.643-.27c4.065-2.459,11.112-16.022.515-19.352C629.284,272.939,629.465,286.281,631.222,291.884Z" transform="translate(-630.288 -275.523)" fill="#b28070"/>
            </g>
            <g id="Grupo_92944" data-name="Grupo 92944" transform="translate(21.743 6.296)">
              <path id="Trazado_127327" data-name="Trazado 127327" d="M654.619,292.965c.633.936,2.073.723,3.095.24a10.993,10.993,0,0,0,5.95-11.516c-.678-3.826-5.408-6.8-6.492-2.1-.384,1.664.578,4.006.3,5.856A26.9,26.9,0,0,1,654.619,292.965Z" transform="translate(-654.619 -277.179)" fill="#bcbec0"/>
            </g>
            <g id="Grupo_92945" data-name="Grupo 92945">
              <path id="Trazado_127328" data-name="Trazado 127328" d="M609.172,261.939c-4.825,2.669-6.983,8.546-11.4,11.852a16.357,16.357,0,0,0,12.728.316c3.972-1.589,13.393-2.551,12.161-8.056C621.412,260.449,613.4,259.6,609.172,261.939Z" transform="translate(-597.777 -260.72)" fill="#bcbec0"/>
            </g>
          </g>
          <g id="Grupo_92947" data-name="Grupo 92947" transform="translate(0 27.04)">
            <path id="Trazado_127329" data-name="Trazado 127329" d="M624.539,340.258c2.763,4.8,2.75,10.228,2.369,15.423-.864,11.762.257,25.4-3.8,36.643-7.655-.007-22.329-3.517-29.953-4.3-1.486-10.225-.62-16.2.218-27.783.413-5.709,1.3-13.369,3.32-18.808,1.654-4.453,6.065-10.2,12.722-10.019C615.655,331.584,622.027,335.9,624.539,340.258Z" transform="translate(-592.349 -331.409)" fill="#3b455a"/>
          </g>
          <path id="Trazado_127330" data-name="Trazado 127330" d="M639.266,326.284a2.135,2.135,0,0,1-2.379-.629c-.712-.689-.493-.914-.342-1.929.223-1.5.621-2.986.929-4.468l4.122.857s-.829,4.013-.891,4.287A2.643,2.643,0,0,1,639.266,326.284Z" transform="translate(-619.544 -296.866)" fill="#b28070"/>
        </g>
        <g id="Grupo_92951" data-name="Grupo 92951" transform="translate(51.622 0)">
          <g id="Grupo_92949" data-name="Grupo 92949" transform="translate(12.819)">
            <path id="Trazado_127331" data-name="Trazado 127331" d="M686,255.936l-1.8-4.888-2.1.708.5,3.631-1.143-.131,2.042,3.988,2.28-.438Z" transform="translate(-681.454 -251.048)" fill="#b28070"/>
          </g>
          <g id="Grupo_92950" data-name="Grupo 92950" transform="translate(0 6.449)">
            <path id="Trazado_127332" data-name="Trazado 127332" d="M648.408,312.923a4.652,4.652,0,0,1-.386-1.278A8.673,8.673,0,0,1,649.4,305.9c1.656-2.719,4.179-4.936,6.132-7.45l6.7-8.627-.567-21.277,4.565-.635,5.586,25.548c-3.15,3.673-6.242,7.25-9.14,11.094-2.6,3.446-4.687,7.691-8.648,9.754C651.788,315.469,649.39,314.981,648.408,312.923Z" transform="translate(-647.942 -267.908)" fill="#3b455a"/>
          </g>
        </g>
        <g id="Grupo_92952" data-name="Grupo 92952" transform="translate(0 40.594)">
          <path id="Trazado_127333" data-name="Trazado 127333" d="M521.861,360.339l-3.219-3.168-5.075.12-.579,2.574,7.669,3.313Z" transform="translate(-512.987 -357.171)" fill="#b28070"/>
        </g>
        <g id="Grupo_92953" data-name="Grupo 92953" transform="translate(4.528 30.878)">
          <path id="Trazado_127334" data-name="Trazado 127334" d="M566.977,335.08l-3.664-3.31-19.738,15.723-14.189-4.98-4.562,5.816,18.989,11.134L563.886,346.6Z" transform="translate(-524.826 -331.77)" fill="#3b455a"/>
        </g>
      </g>
      <g id="Grupo_92955" data-name="Grupo 92955" transform="translate(210.056 30.133)">
        <path id="Trazado_127335" data-name="Trazado 127335" d="M672.222,177.32l-72.163-5.235a2.743,2.743,0,0,1-2.521-2.935l3.276-45.169a2.744,2.744,0,0,1,2.918-2.54l72.163,5.235a2.744,2.744,0,0,1,2.521,2.935L675.14,174.78A2.744,2.744,0,0,1,672.222,177.32Z" transform="translate(-597.531 -121.434)" fill="#587bc9"/>
      </g>
      <g id="Grupo_92956" data-name="Grupo 92956" transform="translate(215.458 47.672)">
        <path id="Rectángulo_35987" data-name="Rectángulo 35987" d="M.681,0H12.929a.682.682,0,0,1,.682.682V9.513a.682.682,0,0,1-.682.682H.682A.682.682,0,0,1,0,9.513V.681A.681.681,0,0,1,.681,0Z" transform="translate(0.738 0) rotate(4.149)" fill="#f7f7f7"/>
      </g>
      <g id="Grupo_92957" data-name="Grupo 92957" transform="translate(215.468 52.844)" opacity="0.22" style="mix-blend-mode: multiply;isolation: isolate">
        <path id="Trazado_127336" data-name="Trazado 127336" d="M625.327,185.758l.349-4.95c-3.538,2.934-10.211,4.044-13.969,4.46-.02.275-.2.593.633.584l12.3.892C625.379,186.829,625.255,186.762,625.327,185.758Z" transform="translate(-611.678 -180.808)" fill="#a0a1a3"/>
      </g>
      <g id="Grupo_92962" data-name="Grupo 92962" transform="translate(214.844 61.278)">
        <g id="Grupo_92958" data-name="Grupo 92958" transform="translate(0 0)">
          <rect id="Rectángulo_35988" data-name="Rectángulo 35988" width="15.734" height="5.032" transform="translate(0.364 0) rotate(4.149)" fill="#d7e8f4"/>
        </g>
        <g id="Grupo_92959" data-name="Grupo 92959" transform="translate(17.505 1.27)">
          <rect id="Rectángulo_35989" data-name="Rectángulo 35989" width="15.734" height="5.032" transform="translate(0.364 0) rotate(4.149)" fill="#d7e8f4"/>
        </g>
        <g id="Grupo_92960" data-name="Grupo 92960" transform="translate(35.009 2.539)">
          <rect id="Rectángulo_35990" data-name="Rectángulo 35990" width="15.734" height="5.032" transform="translate(0.364 0) rotate(4.149)" fill="#d7e8f4"/>
        </g>
        <g id="Grupo_92961" data-name="Grupo 92961" transform="translate(52.514 3.809)">
          <rect id="Rectángulo_35991" data-name="Rectángulo 35991" width="15.734" height="5.032" transform="translate(0.364 0) rotate(4.149)" fill="#d7e8f4"/>
        </g>
      </g>
      <g id="Grupo_92963" data-name="Grupo 92963" transform="translate(216.937 37.758)">
        <path id="Trazado_127337" data-name="Trazado 127337" d="M619.883,145.964a2.2,2.2,0,0,1-1.587.524A2.171,2.171,0,1,1,620.1,142.9l.086.094.59-.483-.084-.1a2.953,2.953,0,1,0-.292,4.119l.1-.093-.525-.551Z" transform="translate(-615.519 -141.37)" fill="#fff"/>
        <path id="Trazado_127338" data-name="Trazado 127338" d="M633.513,144.007a1.662,1.662,0,0,0-1.53-1.78l-1.766-.128-.417,5.744.776.056.176-2.431.841.061,1.028,2.518.873.063-1.092-2.658A1.674,1.674,0,0,0,633.513,144.007Zm-.776-.056a.876.876,0,0,1-.937.81l-.99-.072.127-1.753.99.072A.891.891,0,0,1,632.737,143.951Z" transform="translate(-624.338 -141.82)" fill="#fff"/>
        <path id="Trazado_127339" data-name="Trazado 127339" d="M640.246,148.6l3.039.22.057-.78-2.241-.163.155-2.14,1.958.142.057-.78-1.958-.142.092-1.264,2.241.163.057-.78-3.039-.22Z" transform="translate(-630.788 -142.288)" fill="#fff"/>
        <path id="Trazado_127340" data-name="Trazado 127340" d="M651.722,143.659l-1.353-.1-.417,5.744,1.353.1a2.88,2.88,0,1,0,.417-5.744Zm-.36,4.964-.576-.042.3-4.184.577.042a1.937,1.937,0,0,1,2.013,2.235A1.968,1.968,0,0,1,651.361,148.624Z" transform="translate(-636.781 -142.723)" fill="#fff"/>
        <rect id="Rectángulo_35992" data-name="Rectángulo 35992" width="5.759" height="0.779" transform="matrix(0.072, -0.997, 0.997, 0.072, 18.066, 6.937)" fill="#fff"/>
        <path id="Trazado_127341" data-name="Trazado 127341" d="M666.533,145.475l1.428.1-.36,4.964.776.056.36-4.964,1.421.1.057-.78-3.626-.263Z" transform="translate(-647.019 -143.423)" fill="#fff"/>
        <path id="Trazado_127342" data-name="Trazado 127342" d="M685.8,150.661l-.1.077a2.2,2.2,0,0,1-1.586.524,2.171,2.171,0,1,1,1.807-3.584l.086.094.59-.483-.085-.1a2.953,2.953,0,1,0-.292,4.12l.1-.093Z" transform="translate(-656.161 -144.318)" fill="#fff"/>
        <path id="Trazado_127343" data-name="Trazado 127343" d="M697.242,147.282l-3.155,5.545.863.063.937-1.657,2.434.176.7,1.775.856.062-2.315-5.942ZM698,150.6l-1.685-.122.974-1.711Z" transform="translate(-664.033 -145.02)" fill="#fff"/>
        <path id="Trazado_127344" data-name="Trazado 127344" d="M713.719,149.825a1.662,1.662,0,0,0-1.53-1.78l-1.766-.128-.417,5.744.776.056.176-2.431.841.061,1.027,2.518.873.063-1.092-2.658A1.674,1.674,0,0,0,713.719,149.825Zm-.777-.056a.876.876,0,0,1-.937.81l-.99-.072.127-1.753.99.072A.891.891,0,0,1,712.943,149.769Z" transform="translate(-673.864 -145.413)" fill="#fff"/>
        <path id="Trazado_127345" data-name="Trazado 127345" d="M722.222,148.773l-1.353-.1-.417,5.744,1.353.1a2.88,2.88,0,1,0,.417-5.744Zm1.957,3.014a1.968,1.968,0,0,1-2.317,1.95l-.577-.042.3-4.184.576.042A1.937,1.937,0,0,1,724.179,151.788Z" transform="translate(-680.313 -145.881)" fill="#fff"/>
      </g>
      <g id="Grupo_92964" data-name="Grupo 92964" transform="translate(249.484 72.41)">
        <rect id="Rectángulo_35993" data-name="Rectángulo 35993" width="33.285" height="1.525" transform="translate(0.11 0) rotate(4.149)" fill="#f7f7f7"/>
      </g>
      <g id="Grupo_92975" data-name="Grupo 92975" transform="translate(122.558)">
        <g id="Grupo_92974" data-name="Grupo 92974">
          <g id="Grupo_92973" data-name="Grupo 92973">
            <g id="Grupo_92972" data-name="Grupo 92972">
              <g id="Grupo_92971" data-name="Grupo 92971">
                <g id="Grupo_92970" data-name="Grupo 92970">
                  <path id="Rectángulo_35994" data-name="Rectángulo 35994" d="M0,0H2.449A4.185,4.185,0,0,1,6.634,4.185V66.247a4.185,4.185,0,0,1-4.185,4.185H0a0,0,0,0,1,0,0V0A0,0,0,0,1,0,0Z" transform="translate(55.991 11.193) rotate(7.008)" fill="#bcbec0"/>
                  <rect id="Rectángulo_35995" data-name="Rectángulo 35995" width="4.651" height="65.564" transform="translate(55.156 13.544) rotate(7.008)" fill="#6d6e6f" opacity="0.49" style="mix-blend-mode: multiply;isolation: isolate"/>
                  <path id="Trazado_127346" data-name="Trazado 127346" d="M413.611,130.047,371.738,124.9a3.36,3.36,0,0,1-2.925-3.745L378.1,45.61a3.36,3.36,0,0,1,3.745-2.925l41.873,5.147a3.36,3.36,0,0,1,2.925,3.745l-9.286,75.545A3.36,3.36,0,0,1,413.611,130.047Z" transform="translate(-368.787 -42.659)" fill="#bcbec0"/>
                  <rect id="Rectángulo_35996" data-name="Rectángulo 35996" width="10.113" height="6.155" transform="translate(5.159 72.533) rotate(7.008)" fill="#d7e8f4"/>
                  <rect id="Rectángulo_35997" data-name="Rectángulo 35997" width="10.113" height="6.155" transform="translate(19.753 74.327) rotate(7.008)" fill="#7db5db"/>
                  <rect id="Rectángulo_35998" data-name="Rectángulo 35998" width="10.113" height="6.155" transform="translate(34.347 76.121) rotate(7.008)" fill="#587bc9"/>
                  <path id="Trazado_127347" data-name="Trazado 127347" d="M467.866,249l-9.286-7.343,10.037,1.234Z" transform="translate(-424.233 -165.539)" fill="#7f7f7f" opacity="0.16" style="mix-blend-mode: multiply;isolation: isolate"/>
                  <rect id="Rectángulo_35999" data-name="Rectángulo 35999" width="38.724" height="28.567" rx="5.485" transform="matrix(0.993, 0.122, -0.122, 0.993, 14.216, 6.058)" fill="#d7e8f4"/>
                  <path id="Trazado_127348" data-name="Trazado 127348" d="M434.694,119.963c-5.773,4-13.306,4.31-20.093,4.22a87.009,87.009,0,0,1-11.449-.969c-1.55-.227-3.106-.437-4.667-.6a2.188,2.188,0,0,0,1.577.988l34.092,4.191a2.18,2.18,0,0,0,2.436-1.888l1.047-8.516A18.472,18.472,0,0,1,434.694,119.963Z" transform="translate(-387.125 -88.805)" fill="#a0a1a3" opacity="0.3" style="mix-blend-mode: multiply;isolation: isolate"/>
                  <rect id="Rectángulo_36000" data-name="Rectángulo 36000" width="28.268" height="2.61" rx="1.305" transform="translate(16.591 1.681) rotate(7.008)" fill="#6d6e6f" opacity="0.33" style="mix-blend-mode: multiply;isolation: isolate"/>
                  <g id="Grupo_92965" data-name="Grupo 92965" transform="translate(16.486 18.13)">
                    <rect id="Rectángulo_36001" data-name="Rectángulo 36001" width="5.919" height="1.259" transform="translate(0.154 0) rotate(7.008)" fill="#f7f7f7"/>
                    <rect id="Rectángulo_36002" data-name="Rectángulo 36002" width="5.919" height="1.259" transform="translate(7.847 0.946) rotate(7.008)" fill="#f7f7f7"/>
                    <rect id="Rectángulo_36003" data-name="Rectángulo 36003" width="5.919" height="1.259" transform="translate(15.54 1.891) rotate(7.008)" fill="#f7f7f7"/>
                    <rect id="Rectángulo_36004" data-name="Rectángulo 36004" width="5.919" height="1.259" transform="translate(23.233 2.837) rotate(7.008)" fill="#f7f7f7"/>
                  </g>
                  <g id="Grupo_92966" data-name="Grupo 92966" transform="translate(10.082 37.576)" opacity="0.2" style="mix-blend-mode: multiply;isolation: isolate">
                    <rect id="Rectángulo_36005" data-name="Rectángulo 36005" width="9.613" height="5.759" rx="1.614" transform="matrix(0.993, 0.122, -0.122, 0.993, 0.703, 0)" fill="#6d6e6f"/>
                    <rect id="Rectángulo_36006" data-name="Rectángulo 36006" width="9.613" height="5.759" rx="1.614" transform="translate(14.4 1.684) rotate(7.008)" fill="#6d6e6f"/>
                    <rect id="Rectángulo_36007" data-name="Rectángulo 36007" width="9.613" height="5.759" rx="1.614" transform="matrix(0.993, 0.122, -0.122, 0.993, 28.098, 3.368)" fill="#6d6e6f"/>
                  </g>
                  <g id="Grupo_92967" data-name="Grupo 92967" transform="translate(9.032 46.115)" opacity="0.2" style="mix-blend-mode: multiply;isolation: isolate">
                    <rect id="Rectángulo_36008" data-name="Rectángulo 36008" width="9.613" height="5.759" rx="1.614" transform="translate(0.703 0) rotate(7.008)" fill="#6d6e6f"/>
                    <rect id="Rectángulo_36009" data-name="Rectángulo 36009" width="9.613" height="5.759" rx="1.614" transform="translate(14.4 1.684) rotate(7.008)" fill="#6d6e6f"/>
                    <rect id="Rectángulo_36010" data-name="Rectángulo 36010" width="9.613" height="5.759" rx="1.614" transform="translate(28.098 3.368) rotate(7.008)" fill="#6d6e6f"/>
                  </g>
                  <g id="Grupo_92968" data-name="Grupo 92968" transform="translate(7.983 54.655)" opacity="0.2" style="mix-blend-mode: multiply;isolation: isolate">
                    <rect id="Rectángulo_36011" data-name="Rectángulo 36011" width="9.613" height="5.759" rx="1.614" transform="translate(0.703 0) rotate(7.008)" fill="#6d6e6f"/>
                    <rect id="Rectángulo_36012" data-name="Rectángulo 36012" width="9.613" height="5.759" rx="1.614" transform="translate(14.4 1.684) rotate(7.008)" fill="#6d6e6f"/>
                    <rect id="Rectángulo_36013" data-name="Rectángulo 36013" width="9.613" height="5.759" rx="1.614" transform="translate(28.098 3.368) rotate(7.008)" fill="#6d6e6f"/>
                  </g>
                  <g id="Grupo_92969" data-name="Grupo 92969" transform="translate(6.933 63.194)" opacity="0.2" style="mix-blend-mode: multiply;isolation: isolate">
                    <rect id="Rectángulo_36014" data-name="Rectángulo 36014" width="9.613" height="5.759" rx="1.614" transform="translate(0.703 0) rotate(7.008)" fill="#6d6e6f"/>
                    <rect id="Rectángulo_36015" data-name="Rectángulo 36015" width="9.613" height="5.759" rx="1.614" transform="translate(14.4 1.684) rotate(7.008)" fill="#6d6e6f"/>
                    <rect id="Rectángulo_36016" data-name="Rectángulo 36016" width="9.613" height="5.759" rx="1.614" transform="matrix(0.993, 0.122, -0.122, 0.993, 28.098, 3.368)" fill="#6d6e6f"/>
                  </g>
                  <rect id="Rectángulo_36017" data-name="Rectángulo 36017" width="12.206" height="1.551" transform="translate(32.491 26.569) rotate(7.008)" fill="#f7f7f7"/>
                </g>
              </g>
            </g>
          </g>
        </g>
      </g>
      <g id="Grupo_92982" data-name="Grupo 92982" transform="translate(106.452 65.978)">
        <path id="Trazado_127349" data-name="Trazado 127349" d="M489.053,260.543l1.25-6.472-3.864-4.416-2.024,1.84.931,4.577-1,1.108,1.091,4.679S489.066,260.455,489.053,260.543Z" transform="translate(-424.036 -236.453)" fill="#e8bdb8"/>
        <path id="Trazado_127350" data-name="Trazado 127350" d="M363.992,226.124l-.475-6.753,5.462-4.228,2.29,3-2.467,4.4.881,2.29-2.421,3.637Z" transform="translate(-349.427 -215.143)" fill="#e8bdb8"/>
        <g id="Grupo_92981" data-name="Grupo 92981" transform="translate(14.09 15.841)">
          <g id="Grupo_92978" data-name="Grupo 92978" transform="translate(5.687 68.39)">
            <g id="Grupo_92976" data-name="Grupo 92976" transform="translate(14.699)">
              <path id="Trazado_127351" data-name="Trazado 127351" d="M440.179,438.785l.442,38.207-4.072,49.185h-5.536L424.388,480.8l-7.576-45.455Z" transform="translate(-416.812 -435.344)" fill="#3b455a"/>
              <path id="Trazado_127352" data-name="Trazado 127352" d="M454.019,674.074l5.987,2.993L463,674.074l-2.993-2.993h-5.987Z" transform="translate(-439.787 -580.907)" fill="#3b455a"/>
            </g>
            <g id="Grupo_92977" data-name="Grupo 92977">
              <path id="Trazado_127353" data-name="Trazado 127353" d="M378.493,438.785l-.109,22.1,3.734,65.287h5.536l9.261-43.325,4.944-47.508Z" transform="translate(-378.384 -435.344)" fill="#3b455a"/>
              <path id="Trazado_127354" data-name="Trazado 127354" d="M388.039,674.074l-5.987,2.993-2.993-2.993,2.993-2.993h5.987Z" transform="translate(-378.801 -580.907)" fill="#3b455a"/>
            </g>
          </g>
          <path id="Trazado_127355" data-name="Trazado 127355" d="M363.555,384.15c-.119,3.507-.042,8.2,1.434,8.373a1.456,1.456,0,0,0,.786-.208c2.567-1.247,4.4-3.011,6.929-4.216a31.262,31.262,0,0,1,8.614-2.38,89.6,89.6,0,0,1,13.284-1.163c3.8-.033,7.754,1.7,11.348,2.654a12.527,12.527,0,0,1,3.658,2.166c1.7,1.167,2.442,1.63,2.21-.756-.378-3.893-.77-7.785-1.249-11.668a143.969,143.969,0,0,0-4.456-22.964c-.84-2.864-1.81-5.688-2.779-8.51l-3.541-10.312c-1.467-4.272-3.943-7.282-8.278-8.776-3.747-1.291-8.4-1.644-12.044.163-4.051,2.009-5.978,8.856-7.946,12.514-1.724,3.206-3.9,11.95-4.544,15.407-.777,4.16-1.495,8.3-2.06,12.43a127.449,127.449,0,0,0-1.195,13.667C363.713,381.074,363.612,382.475,363.555,384.15Z" transform="translate(-363.517 -299.01)" fill="#d7e8f4"/>
          <path id="Trazado_127356" data-name="Trazado 127356" d="M400.069,330.143l7.482.071s8.028,28.056,8.323,32.891c.29,4.747,2.319,23.994,2.319,23.994s-8.286.2-17.832,1.358c-9.333,2-10.117.816-10.117.816s5.037-20.23,5.2-26.042c.171-5.945.932-25.579.932-25.579Z" transform="translate(-380.02 -301.994)" fill="#f7f7f7"/>
          <g id="Grupo_92980" data-name="Grupo 92980" transform="translate(11.49)">
            <path id="Trazado_127357" data-name="Trazado 127357" d="M414.164,302.443a.894.894,0,0,1-.306.175,1.7,1.7,0,0,1-.728.02l-2.969-.352c.326-3.031-1.446-3.716-3.172-5.665-1.75-1.976-1.211-4.64-1.113-7.059a5.143,5.143,0,0,1,.346-1.978,4.324,4.324,0,0,1,2.793-2.015,10.523,10.523,0,0,1,8.717.959,4.608,4.608,0,0,1,1.672,1.7,6.25,6.25,0,0,1,.264,3.647,12.3,12.3,0,0,1-1.868,5.335c-.995,1.483-2.892,2.193-3.11,3.972A2.015,2.015,0,0,1,414.164,302.443Z" transform="translate(-401.068 -274.149)" fill="#e8bdb8"/>
            <g id="Grupo_92979" data-name="Grupo 92979">
              <path id="Trazado_127358" data-name="Trazado 127358" d="M441.182,290.371a5.179,5.179,0,0,0-.338,2.29,4.394,4.394,0,0,0,2.429-2.906,4.458,4.458,0,0,0,.286-1.777,2.109,2.109,0,0,0-.787-1.55,1.328,1.328,0,0,0-2.047.573C440.533,287.87,441.435,289.225,441.182,290.371Z" transform="translate(-422.665 -274.843)" fill="#3b455a"/>
              <path id="Trazado_127359" data-name="Trazado 127359" d="M418.494,265.393a2.711,2.711,0,0,0-1.192-2.279,5.522,5.522,0,0,1-1.941-1.623c-.331-.586-.38-1.311-.708-1.9-.595-1.064-1.886-1.377-3.009-1.738-2.81-.9-4.322-1.944-7.3-.789-2.115.821-4.849.931-6.813,2.129a6.878,6.878,0,0,0-2.09,2.2,12.413,12.413,0,0,0-1.168,10.7,13.185,13.185,0,0,0,1.05,2.027c.785,1.275,1.627,2.844,3.018,3.468.087-.6.535-.932.675-1.522a4.67,4.67,0,0,0,.045-1.307c-.086-1.7-.607-4.39,1.091-5.234,2.148-1.066,6.177-.1,8.245.8,1.83.8,4.92,1.838,6.871.983C417.082,270.509,418.555,267.342,418.494,265.393Z" transform="translate(-393.555 -256.555)" fill="#3b455a"/>
            </g>
          </g>
        </g>
        <path id="Trazado_127360" data-name="Trazado 127360" d="M441.514,295.228l17.8-.254L457.583,275.9l5.735-2.085,6.915,22.992-3.245,6.936-19.862,5.807Z" transform="translate(-397.589 -251.371)" fill="#d7e8f4"/>
        <path id="Trazado_127361" data-name="Trazado 127361" d="M358.422,273.475l-18.993-5.6,7.03-23.745-5.793-4.155-13.984,27.488,3.867,9.519,18.146,9.366Z" transform="translate(-326.683 -230.478)" fill="#d7e8f4"/>
      </g>
      <g id="Grupo_92983" data-name="Grupo 92983" transform="translate(105.363 119.676)">
        <path id="Trazado_127362" data-name="Trazado 127362" d="M471.194,451.267,334.784,460a5.183,5.183,0,0,1-5.472-4.846l-5.465-85.384a5.183,5.183,0,0,1,4.809-5.5l136.41-8.732a5.183,5.183,0,0,1,5.472,4.846L476,445.763A5.184,5.184,0,0,1,471.194,451.267Z" transform="translate(-323.836 -355.523)" fill="#7db5db"/>
      </g>
      <g id="Grupo_92984" data-name="Grupo 92984" transform="translate(114.567 159.606)">
        <rect id="Rectángulo_36018" data-name="Rectángulo 36018" width="25.713" height="19.26" rx="1.288" transform="translate(0 1.643) rotate(-3.663)" fill="#f7f7f7"/>
      </g>
      <g id="Grupo_92985" data-name="Grupo 92985" transform="translate(115.733 167.522)" opacity="0.44" style="mix-blend-mode: multiply;isolation: isolate">
        <path id="Trazado_127363" data-name="Trazado 127363" d="M376.525,489.646l-.579-9.04c-5.868,6.4-18.073,10.19-25,11.934,0,1.042.22,1,1.194.94l23.489-1.5C376.91,491.971,376.65,491.544,376.525,489.646Z" transform="translate(-350.945 -480.606)" fill="#a0a1a3"/>
      </g>
      <g id="Grupo_92990" data-name="Grupo 92990" transform="translate(116.214 178.714)">
        <g id="Grupo_92986" data-name="Grupo 92986" transform="translate(0 6.354)">
          <rect id="Rectángulo_36019" data-name="Rectángulo 36019" width="29.725" height="9.507" transform="translate(0 1.899) rotate(-3.663)" fill="#d7e8f4"/>
        </g>
        <g id="Grupo_92987" data-name="Grupo 92987" transform="translate(33.089 4.236)">
          <rect id="Rectángulo_36020" data-name="Rectángulo 36020" width="29.725" height="9.507" transform="translate(0 1.899) rotate(-3.663)" fill="#d7e8f4"/>
        </g>
        <g id="Grupo_92988" data-name="Grupo 92988" transform="translate(66.178 2.118)">
          <rect id="Rectángulo_36021" data-name="Rectángulo 36021" width="29.725" height="9.507" transform="translate(0 1.899) rotate(-3.663)" fill="#d7e8f4"/>
        </g>
        <g id="Grupo_92989" data-name="Grupo 92989" transform="translate(99.267 0)">
          <rect id="Rectángulo_36022" data-name="Rectángulo 36022" width="29.725" height="9.507" transform="translate(0 1.899) rotate(-3.663)" fill="#d7e8f4"/>
        </g>
      </g>
      <g id="Grupo_92991" data-name="Grupo 92991" transform="translate(114.117 137.14)">
        <path id="Trazado_127364" data-name="Trazado 127364" d="M355.362,421.377a4.158,4.158,0,0,1-2.835,1.389,4.1,4.1,0,1,1,2.462-7.173l.185.155.981-1.055-.185-.173a5.578,5.578,0,1,0,.512,7.785l.164-.2-1.124-.9Z" transform="translate(-346.722 -408.537)" fill="#fff"/>
        <path id="Trazado_127365" data-name="Trazado 127365" d="M380.488,414.988a3.138,3.138,0,0,0-3.319-2.938l-3.339.213.7,10.858,1.468-.094-.294-4.6,1.59-.1,2.57,4.449,1.65-.106-2.726-4.694A3.162,3.162,0,0,0,380.488,414.988Zm-1.467.094a1.656,1.656,0,0,1-1.545,1.756l-1.871.12-.212-3.314,1.871-.12A1.683,1.683,0,0,1,379.021,415.082Z" transform="translate(-363.461 -407.887)" fill="#fff"/>
        <path id="Trazado_127366" data-name="Trazado 127366" d="M394.27,421.619l5.745-.368-.094-1.474-4.236.271L395.425,416l3.7-.237-.094-1.474-3.7.237-.153-2.39,4.236-.271-.094-1.474-5.745.368Z" transform="translate(-375.653 -406.869)" fill="#fff"/>
        <path id="Trazado_127367" data-name="Trazado 127367" d="M414.479,409.726l-2.557.164.7,10.858,2.557-.164a5.172,5.172,0,0,0,5.209-5.813C420.174,411.491,417.856,409.51,414.479,409.726Zm.6,9.384-1.089.07-.506-7.91,1.089-.07c2.6-.166,4.183,1.17,4.343,3.665S417.642,418.946,415.08,419.11Z" transform="translate(-386.982 -406.447)" fill="#fff"/>
        <rect id="Rectángulo_36023" data-name="Rectángulo 36023" width="1.471" height="10.88" transform="translate(34.193 2.851) rotate(-3.662)" fill="#fff"/>
        <path id="Trazado_127368" data-name="Trazado 127368" d="M441.58,409.054l2.7-.173.6,9.384,1.468-.094-.6-9.384,2.687-.172-.094-1.474-6.854.439Z" transform="translate(-405.237 -404.86)" fill="#fff"/>
        <path id="Trazado_127369" data-name="Trazado 127369" d="M479.939,413.245l-.161.169a4.156,4.156,0,0,1-2.834,1.389,4.1,4.1,0,1,1,2.462-7.173l.185.155.981-1.055-.185-.173a5.579,5.579,0,1,0,.512,7.785l.164-.2Z" transform="translate(-423.546 -403.619)" fill="#fff"/>
        <path id="Trazado_127370" data-name="Trazado 127370" d="M501.649,403.912,497.167,415.1l1.632-.1,1.328-3.341,4.6-.294,1.757,3.144,1.618-.1-5.858-10.527Zm2.276,6.02-3.185.2,1.384-3.452Z" transform="translate(-439.619 -402.843)" fill="#fff"/>
        <path id="Trazado_127371" data-name="Trazado 127371" d="M532.1,405.283a3.138,3.138,0,0,0-3.32-2.938l-3.339.213.7,10.858,1.468-.094-.294-4.6,1.59-.1,2.57,4.449,1.65-.106-2.725-4.694A3.162,3.162,0,0,0,532.1,405.283Zm-1.468.094a1.656,1.656,0,0,1-1.545,1.756l-1.871.12-.212-3.314,1.871-.12A1.683,1.683,0,0,1,530.635,405.377Z" transform="translate(-457.08 -401.895)" fill="#fff"/>
        <path id="Trazado_127372" data-name="Trazado 127372" d="M547.746,401.2l-2.557.164.7,10.858,2.557-.164a5.172,5.172,0,0,0,5.209-5.812C553.441,402.96,551.123,400.979,547.746,401.2Zm4.438,5.14c.16,2.494-1.275,4.081-3.837,4.245l-1.089.07-.506-7.91,1.089-.07C550.441,402.5,552.024,403.839,552.184,406.335Z" transform="translate(-469.272 -401.179)" fill="#fff"/>
      </g>
      <g id="Grupo_92997" data-name="Grupo 92997" transform="translate(205.038 132.056)">
        <g id="Grupo_92992" data-name="Grupo 92992" transform="translate(0 1.281)">
          <path id="Trazado_127373" data-name="Trazado 127373" d="M594.44,400.047a8.891,8.891,0,0,1,3.338-7.538,8.74,8.74,0,0,0-5.1-1.253,8.887,8.887,0,0,0,1.136,17.737,8.74,8.74,0,0,0,4.9-1.894A8.889,8.889,0,0,1,594.44,400.047Z" transform="translate(-584.413 -391.237)" fill="#f7f7f7"/>
        </g>
        <g id="Grupo_92993" data-name="Grupo 92993" transform="translate(13.365 0.641)">
          <path id="Trazado_127374" data-name="Trazado 127374" d="M626.022,398.372a8.89,8.89,0,0,1,3.339-7.538,8.762,8.762,0,0,0-10.008.641,8.913,8.913,0,0,1,.934,14.589,8.759,8.759,0,0,0,10.008-.641A8.89,8.89,0,0,1,626.022,398.372Z" transform="translate(-619.352 -389.562)" fill="#d7e8f4"/>
        </g>
        <g id="Grupo_92994" data-name="Grupo 92994" transform="translate(10.008 2.553)">
          <path id="Trazado_127375" data-name="Trazado 127375" d="M618.206,401.612a8.889,8.889,0,0,0-4.272-7.051,8.913,8.913,0,0,0,.934,14.589A8.889,8.889,0,0,0,618.206,401.612Z" transform="translate(-610.577 -394.561)" fill="#cfdfeb"/>
        </g>
        <g id="Grupo_92995" data-name="Grupo 92995" transform="translate(23.373)">
          <path id="Trazado_127376" data-name="Trazado 127376" d="M650.419,387.906a8.742,8.742,0,0,0-4.9,1.894,8.913,8.913,0,0,1,.934,14.589,8.739,8.739,0,0,0,5.1,1.254,8.887,8.887,0,0,0-1.135-17.737Z" transform="translate(-645.516 -387.887)" fill="#587bc9"/>
        </g>
        <g id="Grupo_92996" data-name="Grupo 92996" transform="translate(20.016 1.912)">
          <path id="Trazado_127377" data-name="Trazado 127377" d="M644.369,399.937a8.89,8.89,0,0,0-4.272-7.051,8.912,8.912,0,0,0,.934,14.589A8.888,8.888,0,0,0,644.369,399.937Z" transform="translate(-636.74 -392.886)" fill="#5070b8"/>
        </g>
      </g>
      <g id="Grupo_92998" data-name="Grupo 92998" transform="translate(183.431 194.957)">
        <rect id="Rectángulo_36024" data-name="Rectángulo 36024" width="62.882" height="2.881" transform="translate(0 4.017) rotate(-3.663)" fill="#f7f7f7"/>
      </g>
    </g>
  </g>
</svg>
