<svg xmlns="http://www.w3.org/2000/svg" xmlns:xlink="http://www.w3.org/1999/xlink" width="85" height="85" viewBox="0 0 85 85">
  <defs>
    <clipPath id="clip-path">
      <rect id="Rectángulo_34289" data-name="Rectángulo 34289" width="85" height="85" transform="translate(-3256 -7860)" fill="#fff" stroke="#707070" stroke-width="1"/>
    </clipPath>
  </defs>
  <g id="Enmascarar_grupo_59" data-name="Enmascarar grupo 59" transform="translate(3256 7860)" clip-path="url(#clip-path)">
    <g id="producto" transform="translate(-3255.998 -7860)">
      <path id="Trazado_116595" data-name="Trazado 116595" d="M82.066,39.477a5.765,5.765,0,0,0-8.154,0l-8.791,8.79a4.959,4.959,0,0,1-3.508,1.453H43.65a3.378,3.378,0,0,1-2.389-5.766l1.5-1.495A5.766,5.766,0,0,0,34.6,34.306L26.24,42.668a9.059,9.059,0,0,0-2.464,4.525,7,7,0,0,1-1.908,3.475L1.245,71.291V83.755H18.059L35.8,66.013a12.944,12.944,0,0,1,9.152-3.791H65.421a4.959,4.959,0,0,0,3.508-1.453L82.066,47.632a5.766,5.766,0,0,0,0-8.154Zm0,0" fill="#ffdecf"/>
      <path id="Trazado_116596" data-name="Trazado 116596" d="M35.708,15.367V10.128a8.882,8.882,0,1,1,17.764,0v5.239a2.075,2.075,0,0,1-4.15,0V10.228A4.8,4.8,0,0,0,44.733,5.4a4.737,4.737,0,0,0-4.875,4.73v5.239a2.075,2.075,0,1,1-4.15,0Zm0,0" fill="#dce6eb"/>
      <path id="Trazado_116597" data-name="Trazado 116597" d="M82.066,39.477a5.763,5.763,0,0,0-5.425-1.529,5.765,5.765,0,0,1-1.216,6.362L64.337,55.4a11.955,11.955,0,0,1-8.453,3.5H38.314a12.943,12.943,0,0,0-9.152,3.791L15,76.857a12.218,12.218,0,0,1-8.638,3.578H1.245v3.32H18.059L35.8,66.013a12.944,12.944,0,0,1,9.152-3.791H65.421a4.959,4.959,0,0,0,3.508-1.453L82.066,47.632a5.766,5.766,0,0,0,0-8.154Zm0,0" fill="#fcb19f"/>
      <path id="Trazado_116598" data-name="Trazado 116598" d="M34.6,34.306a5.765,5.765,0,0,1,8.154,8.154l-1.5,1.5a3.378,3.378,0,0,0,2.389,5.766H59.957a1.975,1.975,0,0,0,1.972-2.092L59.857,12.6A1.556,1.556,0,0,0,58.3,11.132H53.473v4.235a2.075,2.075,0,1,1-4.15,0V11.132H39.859v4.235a2.075,2.075,0,0,1-4.15,0V11.132H30.876A1.556,1.556,0,0,0,29.324,12.6l-1.7,28.685Zm0,0" fill="#72e4a0"/>
      <path id="Trazado_116599" data-name="Trazado 116599" d="M61.929,47.629,59.857,12.6A1.556,1.556,0,0,0,58.3,11.132H53.473v2.473l1.449,24.508A7.826,7.826,0,0,1,47.109,46.4H40.268a3.371,3.371,0,0,0,3.382,3.32H59.957a1.975,1.975,0,0,0,1.972-2.092Zm0,0" fill="#62c389"/>
      <g id="Grupo_81193" data-name="Grupo 81193">
        <path id="Trazado_116600" data-name="Trazado 116600" d="M77,22.457h-6.29a1.966,1.966,0,0,1,0-3.933H77a1.966,1.966,0,0,1,0,3.933Zm0,0" fill="#ffd508"/>
        <path id="Trazado_116601" data-name="Trazado 116601" d="M73.8,9.294l-4.447,4.447a1.966,1.966,0,0,1-2.781-2.781L71.02,6.513A1.966,1.966,0,0,1,73.8,9.294Zm0,0" fill="#ffd508"/>
        <path id="Trazado_116602" data-name="Trazado 116602" d="M73.8,31.688l-4.447-4.447a1.966,1.966,0,0,0-2.781,2.78l4.447,4.447a1.966,1.966,0,0,0,2.781-2.78Zm0,0" fill="#ffd508"/>
        <path id="Trazado_116603" data-name="Trazado 116603" d="M12.179,22.457h6.29a1.966,1.966,0,1,0,0-3.933h-6.29a1.966,1.966,0,1,0,0,3.933Zm0,0" fill="#ffd508"/>
        <path id="Trazado_116604" data-name="Trazado 116604" d="M15.38,9.294l4.447,4.447a1.966,1.966,0,0,0,2.781-2.781L18.161,6.513A1.966,1.966,0,0,0,15.38,9.294Zm0,0" fill="#ffd508"/>
        <path id="Trazado_116605" data-name="Trazado 116605" d="M15.38,31.688l4.447-4.447a1.966,1.966,0,0,1,2.781,2.78l-4.447,4.447a1.966,1.966,0,0,1-2.781-2.78Zm0,0" fill="#ffd508"/>
      </g>
      <path id="Trazado_116606" data-name="Trazado 116606" d="M61.353,37.881l.355,5.993,4.4-4.4c.056-.056.114-.11.173-.163a5.758,5.758,0,0,0-4.923-1.433Zm0,0" fill="#fcb19f"/>
      <path id="Trazado_116607" data-name="Trazado 116607" d="M66.1,39.477l-4.4,4.4.222,3.755a1.975,1.975,0,0,1-1.972,2.092h1.657a4.959,4.959,0,0,0,3.508-1.453l8.791-8.79c.056-.056.113-.11.172-.163a5.765,5.765,0,0,0-7.982.163Zm0,0" fill="#fcb19f"/>
      <path id="Trazado_116608" data-name="Trazado 116608" d="M82.947,38.6a7.023,7.023,0,0,0-8.862-.866,6.984,6.984,0,0,0-7.813,0,6.918,6.918,0,0,0-3.751-1.184L61.1,12.522a2.8,2.8,0,0,0-2.8-2.635H54.713a10.068,10.068,0,0,0-1.734-5.435,1.245,1.245,0,1,0-2.061,1.4,7.6,7.6,0,0,1,1.309,4.278v5.239a.83.83,0,1,1-1.66,0V10.228a6.072,6.072,0,0,0-5.8-6.075,5.978,5.978,0,0,0-6.157,5.975v5.239a.83.83,0,1,1-1.66,0V10.128a7.644,7.644,0,0,1,9.882-7.3A1.245,1.245,0,1,0,47.567.445a10.131,10.131,0,0,0-13.1,9.443H30.876a2.8,2.8,0,0,0-2.8,2.634L27.4,23.964a1.245,1.245,0,0,0,2.486.147l.678-11.443a.31.31,0,0,1,.309-.291h3.588v2.989a3.32,3.32,0,1,0,6.641,0v-2.99h6.973v2.99a3.32,3.32,0,1,0,6.641,0v-2.99H58.3a.31.31,0,0,1,.309.292c.391,6.614,1.68,28.406,2.072,35.033a.73.73,0,0,1-.729.774H43.65a2.133,2.133,0,0,1-1.508-3.641l1.495-1.495a7.011,7.011,0,0,0-9.914-9.915l-4.659,4.659.484-8.172a1.245,1.245,0,1,0-2.486-.148l-.649,10.971L25.36,41.787a10.316,10.316,0,0,0-2.8,5.145,5.745,5.745,0,0,1-1.571,2.856L.364,70.411a1.244,1.244,0,0,0-.364.88V83.755A1.245,1.245,0,0,0,1.245,85H18.059a1.245,1.245,0,0,0,.881-.364L36.683,66.893a11.621,11.621,0,0,1,8.272-3.426H58.509a1.245,1.245,0,0,0,0-2.49H44.955a14.1,14.1,0,0,0-10.033,4.156L17.544,82.51H2.49v-10.7L22.749,51.549a8.223,8.223,0,0,0,2.244-4.095,7.835,7.835,0,0,1,2.128-3.906l8.362-8.362a4.52,4.52,0,0,1,6.393,6.393l-1.495,1.5a4.622,4.622,0,0,0,3.269,7.892H61.614A6.167,6.167,0,0,0,66,49.148l8.79-8.79a4.52,4.52,0,0,1,6.393,6.393L68.049,59.888a3.692,3.692,0,0,1-2.628,1.088h-1.1a1.245,1.245,0,0,0,0,2.49h1.1a6.163,6.163,0,0,0,4.388-1.818L82.947,48.512a7.018,7.018,0,0,0,0-9.914ZM44.7,6.642A3.556,3.556,0,0,1,48.06,9.887H41.116A3.484,3.484,0,0,1,44.7,6.642Zm19.64,32.841-1.551,1.551-.117-1.988a4.451,4.451,0,0,1,1.668.438Zm-.1,7.905a3.726,3.726,0,0,1-1.091.754,3.207,3.207,0,0,0,.022-.586l-.189-3.2,4-4a4.506,4.506,0,0,1,5.163-.876Zm0,0"/>
      <path id="Trazado_116609" data-name="Trazado 116609" d="M67.5,20.491A3.215,3.215,0,0,0,70.712,23.7H77a3.211,3.211,0,0,0,0-6.423h-6.29A3.215,3.215,0,0,0,67.5,20.491Zm10.222,0a.722.722,0,0,1-.72.721h-6.29a.721.721,0,0,1,0-1.442H77A.722.722,0,0,1,77.723,20.491Zm0,0"/>
      <path id="Trazado_116610" data-name="Trazado 116610" d="M70.234,14.621l4.448-4.447A3.211,3.211,0,0,0,70.14,5.632L65.692,10.08a3.211,3.211,0,0,0,4.541,4.541Zm-2.78-2.78L71.9,7.394a.721.721,0,0,1,1.019,1.019L68.473,12.86a.721.721,0,0,1-1.019-1.019Zm0,0"/>
      <path id="Trazado_116611" data-name="Trazado 116611" d="M70.14,35.349a3.211,3.211,0,1,0,4.541-4.541L70.234,26.36A3.211,3.211,0,0,0,65.692,30.9Zm-2.687-7.228a.722.722,0,0,1,1.019,0l4.447,4.448A.721.721,0,0,1,71.9,33.588L67.454,29.14A.72.72,0,0,1,67.454,28.121Zm0,0"/>
      <path id="Trazado_116612" data-name="Trazado 116612" d="M12.179,23.7h6.29a3.211,3.211,0,1,0,0-6.422h-6.29a3.211,3.211,0,1,0,0,6.422Zm0-3.932h6.29a.721.721,0,1,1,0,1.442h-6.29a.721.721,0,1,1,0-1.442Zm0,0"/>
      <path id="Trazado_116613" data-name="Trazado 116613" d="M18.947,14.621a3.211,3.211,0,0,0,4.541-4.541L19.041,5.632A3.211,3.211,0,0,0,14.5,10.174ZM16.26,7.394a.722.722,0,0,1,1.02,0l4.447,4.447a.721.721,0,1,1-1.019,1.019L16.26,8.413a.722.722,0,0,1,0-1.019Zm0,0"/>
      <path id="Trazado_116614" data-name="Trazado 116614" d="M18.947,26.36,14.5,30.808a3.211,3.211,0,0,0,4.541,4.541L23.488,30.9a3.211,3.211,0,1,0-4.541-4.541Zm2.78,2.78L17.28,33.588a.721.721,0,1,1-1.02-1.019l4.448-4.448a.721.721,0,0,1,1.019,1.019Zm0,0"/>
    </g>
  </g>
</svg>
