<svg xmlns="http://www.w3.org/2000/svg" xmlns:xlink="http://www.w3.org/1999/xlink" width="85" height="85" viewBox="0 0 85 85">
  <defs>
    <clipPath id="clip-path">
      <rect id="Rectángulo_34291" data-name="Rectángulo 34291" width="85" height="85" transform="translate(-2678.148 -7860)" fill="#fff" stroke="#707070" stroke-width="1"/>
    </clipPath>
  </defs>
  <g id="Enmascarar_grupo_61" data-name="Enmascarar grupo 61" transform="translate(2678.148 7860)" clip-path="url(#clip-path)">
    <g id="Layer_10" data-name="Layer 10" transform="translate(-2679.519 -7861.371)">
      <path id="Trazado_116627" data-name="Trazado 116627" d="M75.4,19.194,85,27.419H2.742l9.6-8.226Z" fill="#c0dafb"/>
      <path id="Trazado_116628" data-name="Trazado 116628" d="M2.742,27.419H85V38.387H2.742Z" fill="#77a0d3"/>
      <circle id="Elipse_4795" data-name="Elipse 4795" cx="15.081" cy="15.081" r="15.081" transform="translate(28.79 2.742)" fill="#ccc"/>
      <path id="Trazado_116629" data-name="Trazado 116629" d="M43.871,2.742A15.07,15.07,0,0,0,31.24,26.048H47.984A4.113,4.113,0,0,0,52.1,21.935V5.192A15.005,15.005,0,0,0,43.871,2.742Z" fill="#f2f2f2"/>
      <path id="Trazado_116630" data-name="Trazado 116630" d="M5.484,38.387H82.258V79.516H5.484Z" fill="#f2f2f2"/>
      <path id="Trazado_116631" data-name="Trazado 116631" d="M10.968,54.839H32.9V79.516H10.968Z" fill="#77a0d3"/>
      <path id="Trazado_116632" data-name="Trazado 116632" d="M10.968,54.839V75.4h13.71A4.113,4.113,0,0,0,28.79,71.29V54.839Z" fill="#c0dafb"/>
      <path id="Trazado_116633" data-name="Trazado 116633" d="M38.387,43.871H76.774V74.032H38.387Z" fill="#77a0d3"/>
      <path id="Trazado_116634" data-name="Trazado 116634" d="M38.387,43.871V67.177H68.548a4.113,4.113,0,0,0,4.113-4.113V43.871Z" fill="#c0dafb"/>
      <path id="Trazado_116635" data-name="Trazado 116635" d="M64.435,54.839a2.742,2.742,0,0,1-5.484,0,5.484,5.484,0,0,0-5.484,5.484v2.742h4.113v6.855h8.226V63.065h4.113V60.323A5.484,5.484,0,0,0,64.435,54.839Z" fill="#559b38"/>
      <path id="Trazado_116636" data-name="Trazado 116636" d="M61.694,67.177a2.742,2.742,0,0,0,2.742-2.742v-9.6a2.742,2.742,0,0,1-5.484,0,5.484,5.484,0,0,0-5.484,5.484v2.742h4.113v4.113Z" fill="#6bc148"/>
      <path id="Trazado_116637" data-name="Trazado 116637" d="M49.355,26.048V19.194h4.113V15.648a4.681,4.681,0,0,0-4.68-4.68H46.613a2.742,2.742,0,1,1-5.484,0H38.955a4.681,4.681,0,0,0-4.68,4.68v3.545h4.113v6.855Z" fill="#f3a845"/>
      <path id="Trazado_116638" data-name="Trazado 116638" d="M45.242,23.306a2.742,2.742,0,0,0,2.742-2.742v-9.6H46.613a2.742,2.742,0,1,1-5.484,0H38.955a4.68,4.68,0,0,0-4.68,4.68v3.545h4.113v4.113Z" fill="#eecc61"/>
      <g id="Grupo_81195" data-name="Grupo 81195">
        <path id="Trazado_116639" data-name="Trazado 116639" d="M2.742,79.516H85V85H2.742Z" fill="#77a0d3"/>
        <path id="Trazado_116640" data-name="Trazado 116640" d="M10.968,43.871H32.9v5.484H10.968Z" fill="#77a0d3"/>
        <path id="Trazado_116641" data-name="Trazado 116641" d="M15.081,64.435h2.742v5.484H15.081Z" fill="#77a0d3"/>
      </g>
      <path id="Trazado_116642" data-name="Trazado 116642" d="M56.21,54.839a2.742,2.742,0,0,1-5.484,0,5.484,5.484,0,0,0-5.484,5.484v2.742h4.113v6.855h8.226V63.065h4.113V60.323A5.484,5.484,0,0,0,56.21,54.839Z" fill="#f3a845"/>
      <path id="Trazado_116643" data-name="Trazado 116643" d="M2.742,82.258H79.516a2.742,2.742,0,0,0,2.742-2.742H2.742Z" fill="#c0dafb"/>
      <path id="Trazado_116644" data-name="Trazado 116644" d="M53.468,67.177a2.742,2.742,0,0,0,2.742-2.742v-9.6a2.742,2.742,0,0,1-5.484,0,5.484,5.484,0,0,0-5.484,5.484v2.742h4.113v4.113Z" fill="#eecc61"/>
      <path id="Trazado_116645" data-name="Trazado 116645" d="M10.968,46.613H27.419a2.742,2.742,0,0,0,2.742-2.742H10.968Z" fill="#c0dafb"/>
      <rect id="Rectángulo_34297" data-name="Rectángulo 34297" width="7.129" height="2.742" rx="1.371" transform="translate(75.403 30.161)" fill="#fff"/>
      <rect id="Rectángulo_34298" data-name="Rectángulo 34298" width="4.113" height="2.742" rx="1.371" transform="translate(68.548 30.161)" fill="#fff"/>
      <path id="Trazado_116646" data-name="Trazado 116646" d="M37.016,20.565v5.484a1.371,1.371,0,0,0,1.371,1.371H49.355a1.371,1.371,0,0,0,1.371-1.371V20.565h2.742a1.371,1.371,0,0,0,1.371-1.371V15.648A6.053,6.053,0,0,0,48.789,9.6H46.613a1.371,1.371,0,0,0-1.371,1.371,1.371,1.371,0,1,1-2.742,0A1.371,1.371,0,0,0,41.129,9.6H38.955a6.053,6.053,0,0,0-6.051,6.05v3.547a1.371,1.371,0,0,0,1.371,1.371Zm-1.371-4.916a3.31,3.31,0,0,1,3.31-3.31h1.038a4.113,4.113,0,0,0,7.757,0h1.038a3.31,3.31,0,0,1,3.31,3.31v2.174H49.355a1.371,1.371,0,0,0-1.371,1.371v5.484H39.758V19.194a1.371,1.371,0,0,0-1.371-1.371H35.645Z"/>
      <path id="Trazado_116647" data-name="Trazado 116647" d="M85,39.758a1.371,1.371,0,0,0,1.371-1.371V27.419a1.349,1.349,0,0,0-.489-1.028l.011-.012-9.6-8.226a1.371,1.371,0,0,0-.893-.33H60.323a16.452,16.452,0,1,0-32.9,0H12.339a1.371,1.371,0,0,0-.892.33l-9.6,8.226.011.012a1.349,1.349,0,0,0-.489,1.028V38.387a1.371,1.371,0,0,0,1.371,1.371H4.113V78.145H2.742a1.371,1.371,0,0,0-1.371,1.371V85a1.371,1.371,0,0,0,1.371,1.371H85A1.371,1.371,0,0,0,86.371,85V79.516A1.371,1.371,0,0,0,85,78.145H83.629V39.758Zm-1.371-2.742H4.113V28.79h27.53a16.375,16.375,0,0,0,24.455,0h27.53ZM74.9,20.565l6.4,5.484H58.1a16.3,16.3,0,0,0,1.978-5.484ZM43.871,4.113a13.71,13.71,0,1,1-13.71,13.71,13.71,13.71,0,0,1,13.71-13.71ZM12.846,20.565H27.667a16.3,16.3,0,0,0,1.978,5.484H6.444ZM83.629,83.629H4.113V80.887H83.629Zm-52.1-5.484H12.339V56.21H31.532Zm49.355,0H34.274V54.839A1.371,1.371,0,0,0,32.9,53.468H10.968A1.371,1.371,0,0,0,9.6,54.839V78.145H6.855V39.758H80.887Z"/>
      <path id="Trazado_116648" data-name="Trazado 116648" d="M10.968,50.726H32.9a1.371,1.371,0,0,0,1.371-1.371V43.871A1.371,1.371,0,0,0,32.9,42.5H10.968A1.371,1.371,0,0,0,9.6,43.871v5.484A1.371,1.371,0,0,0,10.968,50.726Zm1.371-5.484H31.532v2.742H12.339Z"/>
      <path id="Trazado_116649" data-name="Trazado 116649" d="M38.387,75.4H76.774a1.371,1.371,0,0,0,1.371-1.371V43.871A1.371,1.371,0,0,0,76.774,42.5H38.387a1.371,1.371,0,0,0-1.371,1.371V74.032A1.371,1.371,0,0,0,38.387,75.4Zm1.371-2.742V50.726H51.25l-1.416,2.832a6.843,6.843,0,0,0-5.962,6.764v2.742a1.371,1.371,0,0,0,1.371,1.371h2.742v5.484a1.371,1.371,0,0,0,1.371,1.371H65.806a1.371,1.371,0,0,0,1.371-1.371V64.435h2.742a1.371,1.371,0,0,0,1.371-1.371V60.323a6.842,6.842,0,0,0-5.962-6.764l-1.416-2.832H75.4V72.661Zm9.6-10.968H46.613V60.323a4.121,4.121,0,0,1,3.031-3.976,4.113,4.113,0,0,0,7.647,0,4.121,4.121,0,0,1,3.031,3.976v1.371H57.581a1.371,1.371,0,0,0-1.371,1.371v5.484H50.726V63.065a1.371,1.371,0,0,0-1.371-1.371Zm5.437-6.625a1.339,1.339,0,0,1-2.649,0l1.324-2.649Zm6.855,1.126a6.81,6.81,0,0,0-1.22-1.234l1.267-2.54,1.337,2.673a1.431,1.431,0,0,1-1.385,1.1Zm-2.7,8.241h2.742a1.371,1.371,0,0,0,1.371-1.371V60.323a6.777,6.777,0,0,0-.192-1.548,4.128,4.128,0,0,0,2.645-2.421,4.121,4.121,0,0,1,3.031,3.969v1.371H65.806a1.371,1.371,0,0,0-1.371,1.371v5.484H58.952Zm-.978-10.709a6.533,6.533,0,0,0-.872-.169l-1.416-2.832h3.789ZM75.4,45.242v2.742H39.758V45.242Z"/>
      <path id="Trazado_116650" data-name="Trazado 116650" d="M15.081,64.435h2.742v5.484H15.081Z"/>
    </g>
  </g>
</svg>
