<svg xmlns="http://www.w3.org/2000/svg" xmlns:xlink="http://www.w3.org/1999/xlink" width="85" height="85" viewBox="0 0 85 85">
  <defs>
    <clipPath id="clip-path">
      <rect id="Rectángulo_34290" data-name="Rectángulo 34290" width="85" height="85" transform="translate(-3256 -7762)" fill="#fff" stroke="#707070" stroke-width="1"/>
    </clipPath>
  </defs>
  <g id="Enmascarar_grupo_60" data-name="Enmascarar grupo 60" transform="translate(3256 7762)" clip-path="url(#clip-path)">
    <g id="precio-bajo" transform="translate(-3255.994 -7761.957)">
      <g id="Layer_3" data-name="Layer 3">
        <path id="Trazado_116615" data-name="Trazado 116615" d="M51.766,50.451c-3.651,0-5.284.027-5.284.027a2.655,2.655,0,0,1-2.669-2.655V29.487a18.587,18.587,0,1,0-31.851.027V47.822a2.655,2.655,0,0,1-.863,1.965,2.75,2.75,0,0,1-1.806.69H4a2.655,2.655,0,0,0-2.071,4.328L23.606,81.664a5.362,5.362,0,0,0,8.324,0L53.837,54.779a2.655,2.655,0,0,0-2.071-4.328Z" fill="#fbf198"/>
        <path id="Trazado_116616" data-name="Trazado 116616" d="M11.962,47.822A2.625,2.625,0,0,1,11.6,49.15h5.07a2.743,2.743,0,0,0,1.806-.69,2.655,2.655,0,0,0,.863-1.965V28.182A18.579,18.579,0,0,1,28.315,1.35c-.146,0-.288-.023-.434-.023A18.587,18.587,0,0,0,11.962,29.514Z" fill="#fccf81"/>
        <path id="Trazado_116617" data-name="Trazado 116617" d="M30.978,80.334,9.294,53.474a2.6,2.6,0,0,1-.21-3H4a2.655,2.655,0,0,0-2.071,4.328L23.606,81.664a5.362,5.362,0,0,0,8.324,0l.231-.283a5.272,5.272,0,0,1-1.183-1.048Z" fill="#fccf81"/>
        <path id="Trazado_116618" data-name="Trazado 116618" d="M27.881,1.328A18.587,18.587,0,1,0,46.468,19.915,18.587,18.587,0,0,0,27.881,1.328Z" fill="#ff8999"/>
        <circle id="Elipse_4794" data-name="Elipse 4794" cx="13.277" cy="13.277" r="13.277" transform="translate(14.604 6.638)" fill="#fbfaba"/>
        <path id="Trazado_116619" data-name="Trazado 116619" d="M34.519,30.536A13.258,13.258,0,0,1,26.492,6.713a13.277,13.277,0,1,0,9.426,23.749A13.422,13.422,0,0,1,34.519,30.536Z" fill="#f5ec98"/>
        <path id="Trazado_116620" data-name="Trazado 116620" d="M82.288,19.915a1.328,1.328,0,0,1,1.022,2.2L69.742,37.586a2.724,2.724,0,0,1-4.076,0L52.111,22.119a1.328,1.328,0,0,1,1.022-2.2h5.284V3.983a2.655,2.655,0,0,1,2.655-2.655H74.349A2.663,2.663,0,0,1,77,3.983V19.915Z" fill="#fbf198"/>
        <g id="Grupo_81194" data-name="Grupo 81194">
          <path id="Trazado_116621" data-name="Trazado 116621" d="M58.445,18.587h5.283V2.655A2.633,2.633,0,0,1,64.1,1.328H61.072a2.655,2.655,0,0,0-2.655,2.655v14.6Z" fill="#fccf81"/>
          <path id="Trazado_116622" data-name="Trazado 116622" d="M57.423,20.791a1.277,1.277,0,0,1-.319-.876H53.133a1.328,1.328,0,0,0-1.022,2.2L65.666,37.586a2.724,2.724,0,0,0,4.076,0l1.195-1.367Z" fill="#fccf81"/>
        </g>
      </g>
      <g id="Layer_1" data-name="Layer 1">
        <path id="Trazado_116623" data-name="Trazado 116623" d="M22.552,82.512a6.763,6.763,0,0,0,9.61.815,6.9,6.9,0,0,0,.777-.811L54.846,55.629a4.02,4.02,0,0,0-3.1-6.491c-3.646,0-5.288.027-5.285.027a1.336,1.336,0,0,1-1.341-1.328V29.843a19.943,19.943,0,1,0-5.876,6.413,1.328,1.328,0,0,0-1.523-2.173,17.222,17.222,0,1,1,4.934-5.272,1.49,1.49,0,0,0-.19.685v18.34a4,4,0,0,0,4.017,3.983c.009,0,1.637-.027,5.264-.027a1.346,1.346,0,0,1,1.041,2.16L30.876,80.841a4.073,4.073,0,0,1-6.26,0L2.935,53.983a1.342,1.342,0,0,1,1.038-2.164h5.3a4.028,4.028,0,0,0,4-3.983v-10.1a1.328,1.328,0,0,0-2.655,0v10.1a1.337,1.337,0,0,1-1.341,1.328h-5.3a4.037,4.037,0,0,0-3.1,6.488Z"/>
        <path id="Trazado_116624" data-name="Trazado 116624" d="M27.86,5.325a14.6,14.6,0,1,0,14.6,14.6,14.6,14.6,0,0,0-14.6-14.6Zm0,26.553A11.949,11.949,0,1,1,39.809,19.93,11.949,11.949,0,0,1,27.86,31.878Z"/>
        <path id="Trazado_116625" data-name="Trazado 116625" d="M27.86,15.947h2.655a1.328,1.328,0,0,0,0-2.655H29.187a1.328,1.328,0,1,0-2.655,0v.227a3.983,3.983,0,0,0,1.328,7.738,1.328,1.328,0,0,1,0,2.655H25.2a1.328,1.328,0,0,0,0,2.655h1.328a1.328,1.328,0,1,0,2.655,0v-.244A3.974,3.974,0,0,0,27.86,18.6a1.328,1.328,0,0,1,0-2.655Z"/>
        <path id="Trazado_116626" data-name="Trazado 116626" d="M76.982,18.6a1.328,1.328,0,0,0,0,2.655h5.311L68.724,36.722a1.431,1.431,0,0,1-2.082,0L53.106,21.256h5.284a1.328,1.328,0,0,0,1.328-1.328V4a1.328,1.328,0,0,1,1.328-1.328H74.323A1.328,1.328,0,0,1,75.65,4V14.618a1.328,1.328,0,0,0,2.655,0V4A3.983,3.983,0,0,0,74.323.013H61.046A3.983,3.983,0,0,0,57.063,4V18.6H53.106a2.683,2.683,0,0,0-2.021,4.407L64.648,38.476a4.1,4.1,0,0,0,6.07,0L84.287,23.008a2.621,2.621,0,0,0,.422-2.839A2.655,2.655,0,0,0,82.266,18.6Z"/>
      </g>
    </g>
  </g>
</svg>
