<svg xmlns="http://www.w3.org/2000/svg" xmlns:xlink="http://www.w3.org/1999/xlink" width="85" height="85" viewBox="0 0 85 85">
  <defs>
    <clipPath id="clip-path">
      <rect id="Rectángulo_34292" data-name="Rectángulo 34292" width="85" height="85" transform="translate(-2678.148 -7762)" fill="#fff" stroke="#707070" stroke-width="1"/>
    </clipPath>
  </defs>
  <g id="Enmascarar_grupo_62" data-name="Enmascarar grupo 62" transform="translate(2678.148 7762)" clip-path="url(#clip-path)">
    <g id="Filled_stroke_cut_Ex" data-name="Filled stroke cut Ex" transform="translate(-2680.954 -7764.833)">
      <g id="Grupo_81199" data-name="Grupo 81199">
        <g id="Grupo_81197" data-name="Grupo 81197">
          <g id="Grupo_81196" data-name="Grupo 81196">
            <path id="Trazado_116651" data-name="Trazado 116651" d="M79.193,60.317,54.651,84.86a5.312,5.312,0,0,1-7.513,0L11.612,49.333a5.312,5.312,0,0,1-1.528-4.3l2.3-22.241a5.312,5.312,0,0,1,4.738-4.738l22.241-2.3a5.312,5.312,0,0,1,4.3,1.528L79.193,52.8a5.312,5.312,0,0,1,0,7.513Z" fill="#fac850"/>
            <path id="Trazado_116652" data-name="Trazado 116652" d="M50.894,87.832a6.685,6.685,0,0,1-4.758-1.971L16,55.723l2-2L48.141,83.858a3.9,3.9,0,0,0,5.509,0L78.191,59.316a3.9,3.9,0,0,0,0-5.509l-4.639-4.639,2-2L80.195,51.8a6.729,6.729,0,0,1,0,9.516L55.653,85.861a6.685,6.685,0,0,1-4.758,1.971Z"/>
            <path id="Trazado_116653" data-name="Trazado 116653" d="M50.894,81.285a3.167,3.167,0,0,1-2.254-.933l-1.476-1.476,2-2,1.476,1.476a.354.354,0,0,0,.5,0l1.434-1.434,2,2-1.434,1.434A3.168,3.168,0,0,1,50.894,81.285Z"/>
            <path id="Trazado_116654" data-name="Trazado 116654" d="M73.251,60.249l-2-2,1.434-1.434a.354.354,0,0,0,0-.5l-1.476-1.476,2-2,1.476,1.476a3.187,3.187,0,0,1,0,4.508Z"/>
            <path id="Trazado_116655" data-name="Trazado 116655" d="M17.415,49.126l-2.083-2.083a3.174,3.174,0,0,1-.916-2.582l.218-2.107,2.818.291-.218,2.107a.352.352,0,0,0,.1.287l2.083,2.083Z"/>
            <path id="Trazado_116656" data-name="Trazado 116656" d="M83.636,43.916h-51L35.363,12.75h51Z" fill="#fa5d3f"/>
            <circle id="Elipse_4796" data-name="Elipse 4796" cx="4.25" cy="4.25" r="4.25" transform="translate(18.596 24.263)" fill="#fffffe"/>
          </g>
          <path id="Trazado_116657" data-name="Trazado 116657" d="M26.853,24.506a5.675,5.675,0,0,0-8.737.884l-.053-.2a9.986,9.986,0,0,1-4.513.1l.243-2.355a3.913,3.913,0,0,1,3.474-3.474l14.044-1.452L31.02,15.19l-2.687.277A12.75,12.75,0,1,0,10.5,27.274L8.675,44.885a6.7,6.7,0,0,0,1.935,5.45l3.082,3.083,2-2-3.083-3.083a3.88,3.88,0,0,1-1.12-3.156l1.764-17.056a12.848,12.848,0,0,0,3.929.112q-.007.139-.007.28a5.667,5.667,0,1,0,9.674-4.007ZM5.667,15.583a9.917,9.917,0,0,1,19.833,0q0,.089,0,.177l-8.522.882a6.758,6.758,0,0,0-6,6l-.168,1.629a9.925,9.925,0,0,1-5.14-8.689ZM24.849,30.516a2.833,2.833,0,1,1,0-4.007,2.833,2.833,0,0,1,0,4.007Z"/>
        </g>
        <path id="Trazado_116658" data-name="Trazado 116658" d="M32.583,43.916H52.416V62.333H49.583Z" fill="#fa7d29"/>
        <g id="Grupo_81198" data-name="Grupo 81198">
          <path id="Trazado_116659" data-name="Trazado 116659" d="M87.407,11.794a1.417,1.417,0,0,0-1.045-.46h-51a1.417,1.417,0,0,0-1.411,1.293L31.258,43.415a1.417,1.417,0,0,0,.283,1.462l17,18.416a1.418,1.418,0,0,0,1.042.456h2.833a1.417,1.417,0,0,0,1.417-1.417v-17h29.8a1.417,1.417,0,0,0,1.411-1.293l1.24-14.166-2.823-.248L82.338,42.5H34.182l2.479-28.333H84.817l-1.1,12.626,2.823.247,1.24-14.167A1.417,1.417,0,0,0,87.407,11.794ZM51,45.333V60.916h-.8L35.818,45.333Z"/>
          <path id="Trazado_116660" data-name="Trazado 116660" d="M42.854,24.083h5.312V21.25H42.854a3.191,3.191,0,0,0-3.187,3.187v2.125a3.191,3.191,0,0,0,3.187,3.187h2.125a.354.354,0,0,1,.354.354v2.125a.354.354,0,0,1-.354.354H39.666v2.833h5.312a3.191,3.191,0,0,0,3.187-3.187V30.1a3.191,3.191,0,0,0-3.187-3.187H42.854a.354.354,0,0,1-.354-.354V24.437A.354.354,0,0,1,42.854,24.083Z"/>
          <path id="Trazado_116661" data-name="Trazado 116661" d="M59.5,35.416V25.5a4.25,4.25,0,1,0-8.5,0v9.917h2.833v-4.25h2.833v4.25Zm-5.667-7.083V25.5a1.417,1.417,0,1,1,2.833,0v2.833Z"/>
          <path id="Trazado_116662" data-name="Trazado 116662" d="M62.333,21.25V34a1.417,1.417,0,0,0,1.417,1.417h5.667V32.583h-4.25V21.25Z"/>
          <path id="Trazado_116663" data-name="Trazado 116663" d="M79.333,24.083V21.25H73.666a1.417,1.417,0,0,0-1.417,1.417V34a1.417,1.417,0,0,0,1.417,1.417h5.667V32.583h-4.25V29.75h2.833V26.916H75.083V24.083Z"/>
        </g>
      </g>
    </g>
  </g>
</svg>
