<svg xmlns="http://www.w3.org/2000/svg" xmlns:xlink="http://www.w3.org/1999/xlink" width="76" height="76" viewBox="0 0 76 76">
  <defs>
    <clipPath id="clip-path">
      <rect id="Rectángulo_34303" data-name="Rectángulo 34303" width="76" height="76" transform="translate(484 5195)" fill="#fff" stroke="#707070" stroke-width="1"/>
    </clipPath>
  </defs>
  <g id="Enmascarar_grupo_67" data-name="Enmascarar grupo 67" transform="translate(-484 -5195)" clip-path="url(#clip-path)">
    <g id="estrategia-de-mercadeo" transform="translate(482.774 5193.774)">
      <g id="Grupo_81278" data-name="Grupo 81278">
        <g id="Grupo_81267" data-name="Grupo 81267">
          <path id="Trazado_116743" data-name="Trazado 116743" d="M73.548,62.516V74.774A1.229,1.229,0,0,1,72.323,76H60.065a1.229,1.229,0,0,1-1.226-1.226V62.516a1.229,1.229,0,0,1,1.226-1.226H72.323a1.246,1.246,0,0,1,1.128.735v.012a1.234,1.234,0,0,1,.1.478Z" fill="#ff826e"/>
        </g>
        <g id="Grupo_81268" data-name="Grupo 81268">
          <path id="Trazado_116744" data-name="Trazado 116744" d="M73.45,42.425a1.234,1.234,0,0,1,.1.478V55.161a1.229,1.229,0,0,1-1.226,1.226H60.065a1.229,1.229,0,0,1-1.226-1.226V42.9a1.229,1.229,0,0,1,1.226-1.226H72.323a1.246,1.246,0,0,1,1.128.735Z" fill="#ff826e"/>
        </g>
        <g id="Grupo_81269" data-name="Grupo 81269">
          <path id="Trazado_116745" data-name="Trazado 116745" d="M63.742,3.677V35.548c0-2.77-5.908-4.29-12.454-5.124h-.012a28.317,28.317,0,0,0,.208-3.457,24.387,24.387,0,0,0-7.355-17.5c8.593-.552,19.613-2,19.613-5.786Z" fill="#ccd1d9"/>
        </g>
        <g id="Grupo_81270" data-name="Grupo 81270">
          <path id="Trazado_116746" data-name="Trazado 116746" d="M71.1,24.516V35.548a1.229,1.229,0,0,1-1.226,1.226h-4.9a1.229,1.229,0,0,1-1.226-1.226V3.677a1.229,1.229,0,0,1,1.226-1.226h4.9A1.229,1.229,0,0,1,71.1,3.677V24.516Z" fill="#ff826e"/>
        </g>
        <g id="Grupo_81271" data-name="Grupo 81271">
          <path id="Trazado_116747" data-name="Trazado 116747" d="M71.1,14.71a4.9,4.9,0,1,1,0,9.806Z" fill="#fcd770"/>
        </g>
        <g id="Grupo_81272" data-name="Grupo 81272">
          <path id="Trazado_116748" data-name="Trazado 116748" d="M33.1,68.645v1.226a6.129,6.129,0,0,1-12.258,0V68.645Z" fill="#aab2bd"/>
        </g>
        <g id="Grupo_81273" data-name="Grupo 81273">
          <path id="Trazado_116749" data-name="Trazado 116749" d="M35.548,63.742v3.677a1.229,1.229,0,0,1-1.226,1.226H19.613a1.229,1.229,0,0,1-1.226-1.226V63.742Z" fill="#ccd1d9"/>
        </g>
        <g id="Grupo_81274" data-name="Grupo 81274">
          <path id="Trazado_116750" data-name="Trazado 116750" d="M35.548,60.065v3.677H18.387V60.065a1.229,1.229,0,0,1,1.226-1.226h14.71A1.229,1.229,0,0,1,35.548,60.065Z" fill="#ccd1d9"/>
        </g>
        <g id="Grupo_81275" data-name="Grupo 81275">
          <path id="Trazado_116751" data-name="Trazado 116751" d="M51.484,26.968a28.318,28.318,0,0,1-.208,3.457,25.078,25.078,0,0,1-2.243,7.955c-3.334,7.1-9.243,11.339-12.491,15.666L34.323,31.871h2.452a2.459,2.459,0,0,0,2.452-2.452V19.613h-4.9v4.9h-4.9v-4.9h-4.9v4.9h-4.9v-4.9h-4.9v9.806a2.459,2.459,0,0,0,2.452,2.452h2.452L17.394,54.046C12.7,47.794,2.452,41.714,2.452,26.968a24.516,24.516,0,0,1,49.032,0Z" fill="#ffeaa7"/>
        </g>
        <g id="Grupo_81276" data-name="Grupo 81276">
          <path id="Trazado_116752" data-name="Trazado 116752" d="M34.323,31.871l2.219,22.175a10.6,10.6,0,0,0-2.219,4.793H19.613a10.6,10.6,0,0,0-2.219-4.793l2.219-22.175Z" fill="#a0d468"/>
        </g>
        <g id="Grupo_81277" data-name="Grupo 81277">
          <path id="Trazado_116753" data-name="Trazado 116753" d="M39.226,19.613v9.806a2.459,2.459,0,0,1-2.452,2.452H17.161a2.459,2.459,0,0,1-2.452-2.452V19.613h4.9v4.9h4.9v-4.9h4.9v4.9h4.9v-4.9Z" fill="#a0d468"/>
        </g>
      </g>
      <g id="Grupo_81279" data-name="Grupo 81279">
        <path id="Trazado_116754" data-name="Trazado 116754" d="M25.742,38h2.452v2.452H25.742Z"/>
        <path id="Trazado_116755" data-name="Trazado 116755" d="M25.742,42.9h2.452v2.452H25.742Z"/>
        <path id="Trazado_116756" data-name="Trazado 116756" d="M25.742,47.806h2.452v2.452H25.742Z"/>
        <path id="Trazado_116757" data-name="Trazado 116757" d="M66.092,69.262l-2.709-2.709-1.733,1.733L66.3,72.932,76.957,59.6l-1.915-1.532Z"/>
        <path id="Trazado_116758" data-name="Trazado 116758" d="M72.323,74.774H60.065V62.516h7.355V60.065H60.065a2.454,2.454,0,0,0-2.452,2.452v4.9H50.258V50.258h7.355v4.9a2.454,2.454,0,0,0,2.452,2.452H72.323a2.454,2.454,0,0,0,2.452-2.452v-4.9H72.323v4.9H60.065V42.9h7.355V40.452H60.065A2.454,2.454,0,0,0,57.613,42.9v4.9H50.258V38.634a26.573,26.573,0,0,0,2.059-6.828c9.874,1.411,10.2,3.5,10.2,3.742A2.454,2.454,0,0,0,64.968,38h4.9a2.454,2.454,0,0,0,2.452-2.452v-9.93a6.129,6.129,0,0,0,0-12.01V3.677a2.454,2.454,0,0,0-2.452-2.452h-4.9a2.454,2.454,0,0,0-2.452,2.452c0,1.239-3.817,3.57-17.98,4.528A25.7,25.7,0,0,0,1.226,26.968c0,11.773,6.241,18.233,11.257,23.424,2.634,2.729,4.938,5.125,5.7,7.689a2.451,2.451,0,0,0-1.021,1.983v7.355a2.454,2.454,0,0,0,2.452,2.452,7.355,7.355,0,0,0,14.71,0,2.454,2.454,0,0,0,2.452-2.452V60.065a2.446,2.446,0,0,0-1.021-1.982c.764-2.564,3.066-4.961,5.7-7.689a57.109,57.109,0,0,0,6.353-7.437V67.419a2.454,2.454,0,0,0,2.452,2.452h7.355v4.9a2.454,2.454,0,0,0,2.452,2.452H72.323a2.454,2.454,0,0,0,2.452-2.452v-4.9H72.323Zm2.452-55.161a3.672,3.672,0,0,1-2.452,3.452v-6.9A3.67,3.67,0,0,1,74.774,19.613Zm-4.9-15.935V35.548h-4.9V3.677ZM62.516,7.164V32.084c-2.008-1.169-5.283-2.059-9.9-2.715.059-.777.1-1.573.1-2.4A25.626,25.626,0,0,0,46.733,10.5c8.777-.717,13.4-1.97,15.783-3.338ZM25.742,25.742v-4.9h2.452v4.9h7.355v-4.9H38v8.581a1.227,1.227,0,0,1-1.226,1.226H17.161a1.227,1.227,0,0,1-1.226-1.226V20.839h2.452v4.9ZM33.213,33.1l2.061,20.609a12.135,12.135,0,0,0-1.931,3.907H20.592a12.135,12.135,0,0,0-1.931-3.907L20.722,33.1Zm1.109,26.968v2.452H19.613V60.065Zm-7.355,14.71a4.908,4.908,0,0,1-4.9-4.9h9.806A4.908,4.908,0,0,1,26.968,74.774Zm-7.355-7.355V64.968H34.324v2.452ZM39.69,48.69c-.775.8-1.52,1.576-2.22,2.343L35.677,33.1h1.1a3.682,3.682,0,0,0,3.677-3.677V18.387H33.1v4.9H30.645v-4.9H23.29v4.9H20.839v-4.9H13.484V29.419A3.682,3.682,0,0,0,17.161,33.1h1.1L16.465,51.033c-.7-.766-1.445-1.541-2.219-2.343C9.292,43.561,3.677,37.749,3.677,26.968a23.29,23.29,0,1,1,46.581,0C50.258,37.749,44.644,43.561,39.69,48.69Z"/>
        <path id="Trazado_116759" data-name="Trazado 116759" d="M66.092,49.649,63.383,46.94l-1.733,1.733L66.3,53.319,76.957,39.992,75.043,38.46Z"/>
      </g>
    </g>
  </g>
</svg>
