<svg xmlns="http://www.w3.org/2000/svg" xmlns:xlink="http://www.w3.org/1999/xlink" width="85" height="85" viewBox="0 0 85 85">
  <defs>
    <clipPath id="clip-path">
      <rect id="Rectángulo_34315" data-name="Rectángulo 34315" width="85" height="85" transform="translate(1020 8284)" fill="#fff" stroke="#707070" stroke-width="1"/>
    </clipPath>
  </defs>
  <g id="Enmascarar_grupo_66" data-name="Enmascarar grupo 66" transform="translate(-1020 -8284)" clip-path="url(#clip-path)">
    <g id="cliente" transform="translate(1018.629 8282.629)">
      <g id="Grupo_81265" data-name="Grupo 81265">
        <g id="Grupo_81244" data-name="Grupo 81244">
          <circle id="Elipse_4811" data-name="Elipse 4811" cx="19.194" cy="19.194" r="19.194" transform="translate(2.742 2.742)" fill="#e6e9ed"/>
        </g>
        <g id="Grupo_81245" data-name="Grupo 81245">
          <circle id="Elipse_4812" data-name="Elipse 4812" cx="19.194" cy="19.194" r="19.194" transform="translate(46.613 2.742)" fill="#e6e9ed"/>
        </g>
        <g id="Grupo_81246" data-name="Grupo 81246">
          <circle id="Elipse_4813" data-name="Elipse 4813" cx="19.194" cy="19.194" r="19.194" transform="translate(32.903 46.613)" fill="#e6e9ed"/>
        </g>
        <g id="Grupo_81247" data-name="Grupo 81247">
          <path id="Trazado_116723" data-name="Trazado 116723" d="M75.4,38.538v.014a19.155,19.155,0,0,1-19.194,0V35.81a7.243,7.243,0,0,1,5.484-7.019l4.113,5.484,4.113-5.484A7.243,7.243,0,0,1,75.4,35.81Z" fill="#b4dd7f"/>
        </g>
        <g id="Grupo_81248" data-name="Grupo 81248">
          <path id="Trazado_116724" data-name="Trazado 116724" d="M57.156,17.123a9.068,9.068,0,0,1-.946-4.017A4.874,4.874,0,0,1,61.09,8.226h9.432A4.868,4.868,0,0,1,75.4,13.106a9.068,9.068,0,0,1-.946,4.017,2.694,2.694,0,0,0-1.8-.672H68.877a7.432,7.432,0,0,1-5.251-2.18,1.939,1.939,0,0,0-3.3,1.371v.809H58.952a2.694,2.694,0,0,0-1.8.672Z" fill="#656d78"/>
        </g>
        <g id="Grupo_81249" data-name="Grupo 81249">
          <path id="Trazado_116725" data-name="Trazado 116725" d="M57.581,60.323H55.168a7.432,7.432,0,0,1-5.251-2.18,1.939,1.939,0,0,0-3.3,1.371v.809H45.242a2.694,2.694,0,0,0-1.8.672,9.068,9.068,0,0,1-.946-4.017A4.874,4.874,0,0,1,47.381,52.1h9.432a4.868,4.868,0,0,1,4.881,4.881,9.068,9.068,0,0,1-.946,4.017,2.694,2.694,0,0,0-1.8-.672Z" fill="#656d78"/>
        </g>
        <g id="Grupo_81250" data-name="Grupo 81250">
          <path id="Trazado_116726" data-name="Trazado 116726" d="M29.407,33.438a7.263,7.263,0,0,1,2.125,5.1v.014a19.155,19.155,0,0,1-19.194,0v-.014a7.256,7.256,0,0,1,5.484-7.006,4.113,4.113,0,0,0,8.226,0,7.194,7.194,0,0,1,3.359,1.906Z" fill="#ff826e"/>
        </g>
        <g id="Grupo_81251" data-name="Grupo 81251">
          <path id="Trazado_116727" data-name="Trazado 116727" d="M31.532,17.823v9.6a9.548,9.548,0,0,1-2.125,6.019,7.194,7.194,0,0,0-3.359-1.906L25.24,28.31a4.093,4.093,0,0,0,2.18-3.633V19.194H25.006a7.432,7.432,0,0,1-5.251-2.18,1.939,1.939,0,0,0-3.3,1.371v6.293a4.093,4.093,0,0,0,2.18,3.633l-.809,3.222a7.194,7.194,0,0,0-3.359,1.906,9.548,9.548,0,0,1-2.125-6.019v-9.6a9.6,9.6,0,1,1,19.194,0Z" fill="#fcd770"/>
        </g>
        <g id="Grupo_81252" data-name="Grupo 81252">
          <path id="Trazado_116728" data-name="Trazado 116728" d="M61.694,82.409v.014a19.155,19.155,0,0,1-19.194,0V79.681a7.243,7.243,0,0,1,5.484-7.019L52.1,78.145l4.113-5.484a7.243,7.243,0,0,1,5.484,7.019Z" fill="#fcd770"/>
        </g>
        <g id="Grupo_81253" data-name="Grupo 81253">
          <path id="Trazado_116729" data-name="Trazado 116729" d="M16.452,63.065V79.516L2.742,82.244V60.336Z" fill="#ff826e"/>
        </g>
        <g id="Grupo_81254" data-name="Grupo 81254">
          <path id="Trazado_116730" data-name="Trazado 116730" d="M16.452,79.516V63.065l4.606-3.688a8.193,8.193,0,0,1,5.127-1.8H37.016a1.375,1.375,0,0,1,1.371,1.371,4.119,4.119,0,0,1-4.113,4.113H33.1a20.016,20.016,0,0,0-.192,2.742A19.208,19.208,0,0,0,52.1,85H26.185a8.193,8.193,0,0,1-5.127-1.8Z" fill="#f0d0b4"/>
        </g>
        <g id="Grupo_81255" data-name="Grupo 81255">
          <path id="Trazado_116731" data-name="Trazado 116731" d="M74.594,17.26a2.681,2.681,0,0,1,.809,1.933,2.75,2.75,0,0,1-2.742,2.742H71.29V16.452h1.371a2.694,2.694,0,0,1,1.8.672A1.293,1.293,0,0,0,74.594,17.26Z" fill="#f0d0b4"/>
        </g>
        <g id="Grupo_81256" data-name="Grupo 81256">
          <path id="Trazado_116732" data-name="Trazado 116732" d="M67.177,26.048a4.16,4.16,0,0,0,1.933-.48l.809,3.222-4.113,5.484L61.694,28.79l.809-3.222a4.16,4.16,0,0,0,1.933.48Z" fill="#f0d0b4"/>
        </g>
        <g id="Grupo_81257" data-name="Grupo 81257">
          <path id="Trazado_116733" data-name="Trazado 116733" d="M71.29,16.452v5.484a4.093,4.093,0,0,1-2.18,3.633,4.16,4.16,0,0,1-1.933.48H64.435a4.16,4.16,0,0,1-1.933-.48,4.093,4.093,0,0,1-2.18-3.633V15.643a1.939,1.939,0,0,1,3.3-1.371,7.432,7.432,0,0,0,5.251,2.18Z" fill="#f0d0b4"/>
        </g>
        <g id="Grupo_81258" data-name="Grupo 81258">
          <path id="Trazado_116734" data-name="Trazado 116734" d="M56.21,19.194a2.759,2.759,0,0,1,.946-2.07,2.694,2.694,0,0,1,1.8-.672h1.371v5.484H58.952a2.762,2.762,0,0,1-2.742-2.742Z" fill="#f0d0b4"/>
        </g>
        <g id="Grupo_81259" data-name="Grupo 81259">
          <path id="Trazado_116735" data-name="Trazado 116735" d="M57.581,65.806V60.323h1.371a2.694,2.694,0,0,1,1.8.672,1.292,1.292,0,0,0,.137.137,2.681,2.681,0,0,1,.809,1.933,2.75,2.75,0,0,1-2.742,2.742Z" fill="#f0d0b4"/>
        </g>
        <g id="Grupo_81260" data-name="Grupo 81260">
          <path id="Trazado_116736" data-name="Trazado 116736" d="M53.468,69.919a4.16,4.16,0,0,0,1.933-.48l.809,3.222L52.1,78.145l-4.113-5.484.809-3.222a4.16,4.16,0,0,0,1.933.48Z" fill="#f0d0b4"/>
        </g>
        <g id="Grupo_81261" data-name="Grupo 81261">
          <path id="Trazado_116737" data-name="Trazado 116737" d="M46.613,60.323v5.484H45.242A2.762,2.762,0,0,1,42.5,63.065a2.759,2.759,0,0,1,.946-2.07,2.694,2.694,0,0,1,1.8-.672Z" fill="#f0d0b4"/>
        </g>
        <g id="Grupo_81262" data-name="Grupo 81262">
          <path id="Trazado_116738" data-name="Trazado 116738" d="M57.581,60.323v5.484A4.093,4.093,0,0,1,55.4,69.44a4.16,4.16,0,0,1-1.933.48H50.726a4.16,4.16,0,0,1-1.933-.48,4.093,4.093,0,0,1-2.18-3.633V59.514a1.939,1.939,0,0,1,3.3-1.371,7.432,7.432,0,0,0,5.251,2.18Z" fill="#f0d0b4"/>
        </g>
        <g id="Grupo_81263" data-name="Grupo 81263">
          <path id="Trazado_116739" data-name="Trazado 116739" d="M23.306,28.79a4.16,4.16,0,0,0,1.933-.48l.809,3.222a4.113,4.113,0,0,1-8.226,0l.809-3.222a4.16,4.16,0,0,0,1.933.48Z" fill="#f0d0b4"/>
        </g>
        <g id="Grupo_81264" data-name="Grupo 81264">
          <path id="Trazado_116740" data-name="Trazado 116740" d="M27.419,19.194v5.484a4.093,4.093,0,0,1-2.18,3.633,4.16,4.16,0,0,1-1.933.48H20.565a4.16,4.16,0,0,1-1.933-.48,4.093,4.093,0,0,1-2.18-3.633V18.385a1.939,1.939,0,0,1,3.3-1.371,7.432,7.432,0,0,0,5.251,2.18Z" fill="#f0d0b4"/>
        </g>
      </g>
      <g id="Grupo_81266" data-name="Grupo 81266">
        <path id="Trazado_116741" data-name="Trazado 116741" d="M21.935,42.5A20.573,20.573,0,0,0,42.43,23.306h2.88a20.575,20.575,0,1,0,0-2.742h-2.88A20.553,20.553,0,1,0,21.935,42.5ZM13.71,27.419v-9.6a8.226,8.226,0,0,1,16.452,0v9.6a8.134,8.134,0,0,1-1.052,4.025,8.53,8.53,0,0,0-1.919-1L26.8,28.873a5.452,5.452,0,0,0,1.993-4.2V17.823H25.009A6.011,6.011,0,0,1,20.73,16.05a3.31,3.31,0,0,0-5.65,2.34v6.287a5.452,5.452,0,0,0,1.993,4.2l-.393,1.574a8.5,8.5,0,0,0-1.919,1,8.134,8.134,0,0,1-1.052-4.025Zm12.339-2.742a2.745,2.745,0,0,1-2.742,2.742H20.565a2.745,2.745,0,0,1-2.742-2.742V18.39a.568.568,0,0,1,.969-.4,8.734,8.734,0,0,0,6.217,2.576h1.039ZM19.6,30.064a5.44,5.44,0,0,0,.962.1h2.742a5.441,5.441,0,0,0,.962-.1l.4,1.589a2.732,2.732,0,0,1-5.459,0Zm-5.824,7.7A5.837,5.837,0,0,1,16.8,33.406a5.454,5.454,0,0,0,10.266,0,5.837,5.837,0,0,1,3.024,4.357,17.676,17.676,0,0,1-16.315,0Zm43.8-.033V35.814a5.852,5.852,0,0,1,3.611-5.408l4.615,6.154,4.615-6.154a5.852,5.852,0,0,1,3.611,5.408V37.73a17.7,17.7,0,0,1-16.452,0Zm1.371-17.166a1.371,1.371,0,1,1,0-2.742Zm.058-5.484h-.058a4.064,4.064,0,0,0-1.054.154,7.615,7.615,0,0,1-.317-2.128A3.513,3.513,0,0,1,61.09,9.6h9.434a3.513,3.513,0,0,1,3.508,3.51,7.668,7.668,0,0,1-.317,2.129,4.007,4.007,0,0,0-1.054-.155H68.88A6.011,6.011,0,0,1,64.6,13.308a3.3,3.3,0,0,0-5.592,1.773Zm13.652,2.742a1.371,1.371,0,0,1,0,2.742ZM61.694,21.935V15.648a.568.568,0,0,1,.969-.4,8.734,8.734,0,0,0,6.217,2.576h1.039v4.113a2.745,2.745,0,0,1-2.742,2.742H64.435A2.745,2.745,0,0,1,61.694,21.935Zm2.742,5.484h2.742a5.441,5.441,0,0,0,.962-.1l.292,1.168-2.625,3.5-2.625-3.5.292-1.168A5.441,5.441,0,0,0,64.435,27.419ZM65.806,4.113A17.8,17.8,0,0,1,76.774,35.954v-.14A8.6,8.6,0,0,0,71.061,27.7l-.393-1.574a5.459,5.459,0,0,0,1.8-2.824h.195a4.107,4.107,0,0,0,3.39-6.434,10.394,10.394,0,0,0,.722-3.766,6.259,6.259,0,0,0-6.252-6.252H61.09a6.259,6.259,0,0,0-6.252,6.252,10.4,10.4,0,0,0,.722,3.767,4.074,4.074,0,0,0-.722,2.32,4.118,4.118,0,0,0,4.113,4.113h.195a5.459,5.459,0,0,0,1.8,2.824L60.552,27.7a8.6,8.6,0,0,0-5.713,8.109v.14A17.8,17.8,0,0,1,65.806,4.113Zm-43.871,0a17.8,17.8,0,0,1,10.624,32.1,8.6,8.6,0,0,0-1.415-2.847A11,11,0,0,0,32.9,27.419v-9.6a10.968,10.968,0,1,0-21.935,0v9.6a11,11,0,0,0,1.759,5.945,8.545,8.545,0,0,0-1.415,2.847,17.8,17.8,0,0,1,10.624-32.1Z"/>
        <path id="Trazado_116742" data-name="Trazado 116742" d="M78.145,64.435H72.591A20.541,20.541,0,0,0,33.92,56.21H26.192a9.64,9.64,0,0,0-6,2.1l-4.1,3.283L1.371,58.661V83.92l14.721-2.934,4.1,3.283a9.643,9.643,0,0,0,6,2.1H52.1A20.573,20.573,0,0,0,72.591,67.177h8.3V42.5H78.145ZM15.081,78.392,4.113,80.579V62L15.081,64.19Zm11.11,5.237a6.874,6.874,0,0,1-4.282-1.5l-4.087-3.27V63.724l4.087-3.27a6.877,6.877,0,0,1,4.282-1.5H37.016a2.745,2.745,0,0,1-2.742,2.742h-4.68l-2.1,2.1a6.815,6.815,0,0,1-4.848,2.008H20.565v2.742h2.077a9.536,9.536,0,0,0,6.786-2.812l1.3-1.3h.851c-.03.458-.048.916-.048,1.371A20.561,20.561,0,0,0,41.88,83.629ZM43.871,81.6V79.685a5.852,5.852,0,0,1,3.611-5.408L52.1,80.431l4.615-6.154a5.852,5.852,0,0,1,3.611,5.408V81.6a17.7,17.7,0,0,1-16.452,0Zm1.371-17.166a1.371,1.371,0,1,1,0-2.742Zm.058-5.484h-.058a4.064,4.064,0,0,0-1.054.154,7.615,7.615,0,0,1-.317-2.128,3.514,3.514,0,0,1,3.51-3.51h9.434a3.514,3.514,0,0,1,3.51,3.51,7.668,7.668,0,0,1-.317,2.129,4.026,4.026,0,0,0-1.056-.155H55.17a6.011,6.011,0,0,1-4.279-1.773A3.3,3.3,0,0,0,45.3,58.952Zm13.652,2.742a1.371,1.371,0,0,1,0,2.742ZM47.984,65.806V59.519a.568.568,0,0,1,.969-.4,8.734,8.734,0,0,0,6.217,2.576H56.21v4.113a2.745,2.745,0,0,1-2.742,2.742H50.726A2.745,2.745,0,0,1,47.984,65.806Zm2.742,5.484h2.742a5.44,5.44,0,0,0,.962-.1l.292,1.168L52.1,75.86l-2.625-3.5.292-1.168A5.44,5.44,0,0,0,50.726,71.29Zm12.339,8.534v-.14a8.6,8.6,0,0,0-5.713-8.109L56.958,70a5.459,5.459,0,0,0,1.8-2.824h.195a4.107,4.107,0,0,0,3.39-6.434,10.394,10.394,0,0,0,.722-3.766,6.259,6.259,0,0,0-6.252-6.252H47.381a6.259,6.259,0,0,0-6.252,6.252,10.4,10.4,0,0,0,.723,3.767,4.074,4.074,0,0,0-.723,2.32,4.118,4.118,0,0,0,4.113,4.113h.195A5.459,5.459,0,0,0,47.235,70l-.393,1.574a8.6,8.6,0,0,0-5.713,8.109v.14a17.782,17.782,0,0,1-6.855-14.018c0-.457.021-.917.056-1.376a5.486,5.486,0,0,0,5.428-5.478,2.742,2.742,0,0,0-2.675-2.735A17.811,17.811,0,1,1,63.065,79.825Z"/>
      </g>
    </g>
  </g>
</svg>
