<svg xmlns="http://www.w3.org/2000/svg" xmlns:xlink="http://www.w3.org/1999/xlink" width="85" height="85" viewBox="0 0 85 85">
  <defs>
    <clipPath id="clip-path">
      <rect id="Rect치ngulo_34313" data-name="Rect치ngulo 34313" width="85" height="85" transform="translate(180 8284)" fill="#fff" stroke="#707070" stroke-width="1"/>
    </clipPath>
  </defs>
  <g id="Enmascarar_grupo_64" data-name="Enmascarar grupo 64" transform="translate(-180 -8284)" clip-path="url(#clip-path)">
    <g id="_05-Target" data-name="05-Target" transform="translate(177.167 8281.167)">
      <circle id="Elipse_4808" data-name="Elipse 4808" cx="36.833" cy="36.833" r="36.833" transform="translate(7.083 7.083)" fill="#64b5f6"/>
      <path id="Trazado_116692" data-name="Trazado 116692" d="M59.19,10.4A36.829,36.829,0,0,1,21.56,73.182,36.83,36.83,0,1,0,59.19,10.4Z" fill="#42a5f5"/>
      <circle id="Elipse_4809" data-name="Elipse 4809" cx="25.5" cy="25.5" r="25.5" transform="translate(18.417 18.417)" fill="#eee"/>
      <path id="Trazado_116693" data-name="Trazado 116693" d="M53.316,20.228A25.479,25.479,0,0,1,27.434,63.356,25.488,25.488,0,1,0,53.316,20.228Z" fill="#e0e0e0"/>
      <circle id="Elipse_4810" data-name="Elipse 4810" cx="14.167" cy="14.167" r="14.167" transform="translate(29.75 29.75)" fill="#ffccbc"/>
      <path id="Trazado_116694" data-name="Trazado 116694" d="M58.083,43.917a14.163,14.163,0,0,1-24.678,9.492,13.775,13.775,0,0,0,3.428.425A14.163,14.163,0,0,0,47.345,30.175,14.165,14.165,0,0,1,58.083,43.917Z" fill="#ffab91"/>
      <path id="Trazado_116695" data-name="Trazado 116695" d="M59.5,14.167v9.917l9.917-9.917V4.25Z" fill="#ffa726"/>
      <path id="Trazado_116696" data-name="Trazado 116696" d="M65.167,11.819V8.5L59.5,14.167v5.667l4.007-4.007A5.667,5.667,0,0,0,65.167,11.819Z" fill="#ffb74d"/>
      <path id="Trazado_116697" data-name="Trazado 116697" d="M73.667,18.417,63.75,28.333h9.917l9.917-9.917Z" fill="#ffa726"/>
      <path id="Trazado_116698" data-name="Trazado 116698" d="M68,28.333h5.667l5.667-5.667h-3.32a5.667,5.667,0,0,0-4.007,1.66Z" fill="#ffb74d"/>
      <rect id="Rect치ngulo_34316" data-name="Rect치ngulo 34316" width="47.597" height="6.01" rx="3.005" transform="translate(39.839 43.745) rotate(-45)" fill="#616161"/>
      <path id="Trazado_116699" data-name="Trazado 116699" d="M41.2,44.513a2.992,2.992,0,0,0,2.893-.768L70.662,17.172a3.005,3.005,0,0,0,0-4.25l-28.7,28.7A2.992,2.992,0,0,0,41.2,44.513Z" fill="#757575"/>
      <path id="Trazado_116700" data-name="Trazado 116700" d="M70.833,86.417V72.25A14.167,14.167,0,0,0,56.667,58.083h-25.5A14.167,14.167,0,0,0,17,72.25V86.417Z" fill="#ffb74d"/>
      <path id="Trazado_116701" data-name="Trazado 116701" d="M70.833,72.25V86.417H17V79.333a2.842,2.842,0,0,0,2.833,2.833H60.917a2.842,2.842,0,0,0,2.833-2.833V72.25A14.172,14.172,0,0,0,49.583,58.083h7.083A14.167,14.167,0,0,1,70.833,72.25Z" fill="#ffa726"/>
      <path id="Trazado_116702" data-name="Trazado 116702" d="M19.833,43.917A23.914,23.914,0,0,0,22.35,54.581a1.416,1.416,0,0,1-2.54,1.253A26.9,26.9,0,0,1,54.391,19.126a1.417,1.417,0,0,1-1.115,2.605,23.654,23.654,0,0,0-9.359-1.9A24.11,24.11,0,0,0,19.833,43.917ZM66.127,56.479a1.417,1.417,0,0,0,1.9-.644,26.763,26.763,0,0,0,.683-22.392,1.416,1.416,0,1,0-2.6,1.115A23.648,23.648,0,0,1,68,43.917a23.914,23.914,0,0,1-2.517,10.664,1.416,1.416,0,0,0,.643,1.9ZM8.5,43.917A35.444,35.444,0,0,1,55.917,10.583a1.417,1.417,0,1,0,.96-2.666A38.253,38.253,0,0,0,11.919,64.867a1.417,1.417,0,1,0,2.371-1.552,35.3,35.3,0,0,1-5.79-19.4ZM78.1,30.1a1.416,1.416,0,0,0-.852,1.813,35.468,35.468,0,0,1-3.706,31.4,1.417,1.417,0,1,0,2.371,1.552,38.3,38.3,0,0,0,4-33.911A1.416,1.416,0,0,0,78.1,30.1Zm6.483-10.685-9.917,9.917a1.416,1.416,0,0,1-1,.415h-9.33L57.6,36.484a15.533,15.533,0,0,1-4.754,20.183h3.818A15.6,15.6,0,0,1,72.25,72.25V86.417a1.417,1.417,0,0,1-2.833,0V72.25A12.764,12.764,0,0,0,56.667,59.5h-25.5a12.764,12.764,0,0,0-12.75,12.75V86.417a1.417,1.417,0,0,1-2.833,0V72.25A15.6,15.6,0,0,1,31.167,56.667h3.818A15.57,15.57,0,0,1,51.35,30.23L58.083,23.5v-9.33a1.417,1.417,0,0,1,.415-1l9.917-9.917a1.417,1.417,0,0,1,2.418,1v6.582A4.4,4.4,0,0,1,77,17h6.582a1.417,1.417,0,0,1,1,2.418Zm-12.213-6.2L42.965,42.622a1.589,1.589,0,1,0,2.247,2.247L74.619,15.462a1.589,1.589,0,1,0-2.247-2.247ZM60.917,20.663,68,13.58V7.67l-7.083,7.083ZM55.492,38.594l-8.278,8.278a4.422,4.422,0,0,1-6.253-6.253l8.278-8.278a12.778,12.778,0,1,0,6.253,6.253ZM80.163,19.833h-5.91L67.17,26.917h5.91Zm-51.83,51a1.416,1.416,0,0,0-1.417,1.417V86.417a1.417,1.417,0,0,0,2.833,0V72.25a1.416,1.416,0,0,0-1.417-1.417Zm31.167,0a1.416,1.416,0,0,0-1.417,1.417V86.417a1.417,1.417,0,0,0,2.833,0V72.25A1.416,1.416,0,0,0,59.5,70.833Z"/>
    </g>
  </g>
</svg>
