<svg xmlns="http://www.w3.org/2000/svg" width="1070" height="538" viewBox="0 0 1070 538">
  <g id="Grupo_93984" data-name="Grupo 93984" transform="translate(-265 -5194)">
    <g id="Trazado_128164" data-name="Trazado 128164" transform="translate(265 5194)" fill="#fff">
      <path d="M 1040 536.5 L 30 536.5 C 26.1518669128418 536.5 22.41959953308105 535.7466430664062 18.90693283081055 534.2609252929688 C 15.51333332061768 532.8256225585938 12.46533298492432 530.7703857421875 9.847466468811035 528.1525268554688 C 7.229599952697754 525.53466796875 5.174399852752686 522.4866943359375 3.739066600799561 519.0930786132812 C 2.253333330154419 515.5803833007812 1.5 511.84814453125 1.5 508 L 1.5 30 C 1.5 26.1518669128418 2.253333330154419 22.41959953308105 3.739066600799561 18.90693283081055 C 5.174399852752686 15.51333332061768 7.229599952697754 12.46533298492432 9.847466468811035 9.847466468811035 C 12.46533298492432 7.229599952697754 15.51333332061768 5.174399852752686 18.90693283081055 3.739066600799561 C 22.41959953308105 2.253333330154419 26.1518669128418 1.5 30 1.5 L 1040 1.5 C 1043.84814453125 1.5 1047.580444335938 2.253333330154419 1051.093017578125 3.739066600799561 C 1054.486694335938 5.174399852752686 1057.53466796875 7.229599952697754 1060.152587890625 9.847466468811035 C 1062.770385742188 12.46533298492432 1064.825561523438 15.51333332061768 1066.260986328125 18.90693283081055 C 1067.746704101562 22.41959953308105 1068.5 26.1518669128418 1068.5 30 L 1068.5 508 C 1068.5 511.84814453125 1067.746704101562 515.5803833007812 1066.260986328125 519.0930786132812 C 1064.825561523438 522.4866943359375 1062.770385742188 525.53466796875 1060.152587890625 528.1525268554688 C 1057.53466796875 530.7703857421875 1054.486694335938 532.8256225585938 1051.093017578125 534.2609252929688 C 1047.580444335938 535.7466430664062 1043.84814453125 536.5 1040 536.5 Z" stroke="none"/>
      <path d="M 30 3 C 26.353759765625 3 22.8179931640625 3.71343994140625 19.4912109375 5.12054443359375 C 16.2763671875 6.48028564453125 13.388671875 8.427490234375 10.9080810546875 10.90814208984375 C 8.427490234375 13.388671875 6.480224609375 16.27655029296875 5.1204833984375 19.4913330078125 C 3.7135009765625 22.8179931640625 3 26.35372924804688 3 30 L 3 508 C 3 511.6462707519531 3.7135009765625 515.1820068359375 5.1204833984375 518.5086669921875 C 6.480224609375 521.7234497070312 8.427490234375 524.611328125 10.9080810546875 527.0918579101562 C 13.388671875 529.572509765625 16.2763671875 531.5197143554688 19.4912109375 532.8794555664062 C 22.8179931640625 534.2865600585938 26.353759765625 535 30 535 L 1040 535 C 1043.646240234375 535 1047.181884765625 534.2865600585938 1050.508666992188 532.8794555664062 C 1053.723510742188 531.5197143554688 1056.611328125 529.572509765625 1059.091918945312 527.0918579101562 C 1061.572509765625 524.611328125 1063.519775390625 521.7234497070312 1064.879516601562 518.5086669921875 C 1066.286499023438 515.181884765625 1067 511.6462707519531 1067 508 L 1067 30 C 1067 26.35372924804688 1066.286499023438 22.818115234375 1064.879516601562 19.4913330078125 C 1063.519775390625 16.27655029296875 1061.572509765625 13.388671875 1059.091918945312 10.90814208984375 C 1056.611328125 8.427490234375 1053.723510742188 6.48028564453125 1050.508666992188 5.12054443359375 C 1047.181884765625 3.71343994140625 1043.646240234375 3 1040 3 L 30 3 M 30 0 L 1040 0 C 1056.568481445312 0 1070 13.43145751953125 1070 30 L 1070 508 C 1070 524.5685424804688 1056.568481445312 538 1040 538 L 30 538 C 13.4312744140625 538 0 524.5685424804688 0 508 L 0 30 C 0 13.43145751953125 13.4312744140625 0 30 0 Z" stroke="none" fill="#fc8116"/>
    </g>
    <g id="Grupo_81209" data-name="Grupo 81209" transform="translate(15.5 -34.75)">
      <g id="Grupo_81203" data-name="Grupo 81203">
        <line id="Línea_146" data-name="Línea 146" y2="460" transform="translate(390.167 5268.5)" fill="none" stroke="#12263f" stroke-width="5"/>
        <line id="Línea_147" data-name="Línea 147" x2="820.333" transform="translate(390.167 5575.5)" fill="none" stroke="#12263f" stroke-width="5"/>
        <line id="Línea_148" data-name="Línea 148" y2="460" transform="translate(570.369 5268.5)" fill="none" stroke="#12263f" stroke-width="5"/>
        <line id="Línea_149" data-name="Línea 149" y2="307" transform="translate(784.372 5268.5)" fill="none" stroke="#12263f" stroke-width="5"/>
        <line id="Línea_150" data-name="Línea 150" y2="307" transform="translate(906.86 5268.5)" fill="none" stroke="#12263f" stroke-width="5"/>
        <line id="Línea_151" data-name="Línea 151" y2="307" transform="translate(1046 5268.5)" fill="none" stroke="#12263f" stroke-width="5"/>
      </g>
      <text id="Etapa_de_desarrollo" data-name="Etapa de desarrollo" transform="translate(417 5702)" fill="#12263f" font-size="16" font-family="Roboto-Black, Roboto" font-weight="800"><tspan x="0" y="0">Etapa de desarrollo</tspan></text>
      <text id="Introducción" transform="translate(611 5702)" fill="#12263f" font-size="16" font-family="Roboto-Black, Roboto" font-weight="800"><tspan x="0" y="0">Introducción</tspan></text>
      <text id="Crecimiento" transform="translate(777 5702)" fill="#12263f" font-size="16" font-family="Roboto-Black, Roboto" font-weight="800"><tspan x="0" y="0">Crecimiento</tspan></text>
      <text id="Madurez" transform="translate(943 5702)" fill="#12263f" font-size="16" font-family="Roboto-Black, Roboto" font-weight="800"><tspan x="0" y="0">Madurez</tspan></text>
      <text id="Utilidades" transform="translate(938 5563)" fill="#12263f" font-size="16" font-family="Roboto-Regular, Roboto"><tspan x="0" y="0">Utilidades</tspan></text>
      <text id="Ventas" transform="translate(1138 5449)" fill="#12263f" font-size="16" font-family="Roboto-Regular, Roboto"><tspan x="0" y="0">Ventas</tspan></text>
      <text id="Tiempo" transform="translate(1230 5582)" fill="#12263f" font-size="16" font-family="Roboto-Regular, Roboto"><tspan x="0" y="0">Tiempo</tspan></text>
      <text id="Ventas_y_utilidades_" data-name="Ventas y
utilidades $" transform="translate(285 5282)" fill="#12263f" font-size="16" font-family="Roboto-Regular, Roboto"><tspan x="0" y="0">Ventas y</tspan><tspan x="0" y="24">utilidades $</tspan></text>
      <text id="Pérdida_inversión_" data-name="Pérdida
inversión $" transform="translate(285 5700)" fill="#12263f" font-size="16" font-family="Roboto-Regular, Roboto"><tspan x="0" y="0">Pérdida</tspan><tspan x="0" y="24">inversión $</tspan></text>
      <text id="Declinación_" data-name="Declinación " transform="translate(1092 5702)" fill="#12263f" font-size="16" font-family="Roboto-Black, Roboto" font-weight="800"><tspan x="0" y="0">Declinación </tspan></text>
      <path id="Trazado_116668" data-name="Trazado 116668" d="M-4606.667-5972v-148s105.12-18.667,191.469,57.333c42.225,37.164,71.332,45.333,135.78-14.667s81.969-105.333,175.826-114.667,177.7,57.333,218.375,58.667,98.55-21.333,98.55-21.333" transform="translate(4996.667 11700)" fill="none" stroke="#fc8116" stroke-width="10"/>
      <path id="Trazado_116670" data-name="Trazado 116670" d="M-4373.333-5090.833s116,11.333,191.333-54,93.6-104.565,134-168.5c121.333-192,139.333,69.167,315,177.333" transform="translate(4943 10658.166)" fill="none" stroke="#67c53a" stroke-width="10"/>
    </g>
  </g>
</svg>
