<svg xmlns="http://www.w3.org/2000/svg" xmlns:xlink="http://www.w3.org/1999/xlink" width="54" height="54" viewBox="0 0 54 54">
  <defs>
    <clipPath id="clip-path">
      <rect id="Rectángulo_34334" data-name="Rectángulo 34334" width="54" height="54" transform="translate(278 10294)" fill="#fff" stroke="#707070" stroke-width="1"/>
    </clipPath>
  </defs>
  <g id="Enmascarar_grupo_71" data-name="Enmascarar grupo 71" transform="translate(-278 -10294)" clip-path="url(#clip-path)">
    <g id="investigacion_1_" data-name="investigacion (1)" transform="translate(276.2 10292.2)">
      <path id="Trazado_116844" data-name="Trazado 116844" d="M13.5,12.6a2.7,2.7,0,0,0-2.7,2.7V27.9l6.3,1.8L27,25.2l2.7-8.1-1.8-4.5Z" fill="#7dafff"/>
      <path id="Trazado_116845" data-name="Trazado 116845" d="M45.9,19.118V52.2a2.7,2.7,0,0,1-2.7,2.7h-27a2.7,2.7,0,0,1-2.7-2.7V29.7l14.4-3.6V9h7.882a2.705,2.705,0,0,1,1.909.791l7.418,7.418a2.705,2.705,0,0,1,.791,1.909Z" fill="#548aff"/>
      <path id="Trazado_116846" data-name="Trazado 116846" d="M26.006,26.165H30.46V30.3H26.006Z" transform="translate(-11.696 28.237) rotate(-45)" fill="#f78e00"/>
      <path id="Trazado_116847" data-name="Trazado 116847" d="M28.528,29.125h5.09v3.9h-5.09Z" transform="translate(-12.873 31.078) rotate(-45)" fill="#ffb401"/>
      <path id="Trazado_116848" data-name="Trazado 116848" d="M37.576,28.668h7.636V54.12H37.576Z" transform="translate(-17.148 41.4) rotate(-45)" fill="#ffc431"/>
      <path id="Trazado_116849" data-name="Trazado 116849" d="M47.7,53.1l.682.682a3.818,3.818,0,0,0,2.7,1.118h0A3.818,3.818,0,0,0,54.9,51.082h0a3.818,3.818,0,0,0-1.118-2.7L53.1,47.7Z" fill="#ffb401"/>
      <path id="Trazado_116850" data-name="Trazado 116850" d="M17.1,2.7A14.4,14.4,0,1,0,31.5,17.1,14.4,14.4,0,0,0,17.1,2.7Zm0,25.2A10.8,10.8,0,1,1,27.9,17.1,10.8,10.8,0,0,1,17.1,27.9Z" fill="#ffc431"/>
      <path id="Trazado_116851" data-name="Trazado 116851" d="M45.657,18H38.7a1.8,1.8,0,0,1-1.8-1.8V9.243a2.689,2.689,0,0,1,.791.548l7.418,7.418a2.687,2.687,0,0,1,.548.791Z" fill="#7dafff"/>
      <path id="Trazado_116852" data-name="Trazado 116852" d="M18,46.8h9v1.8H18Z"/>
      <path id="Trazado_116853" data-name="Trazado 116853" d="M28.8,46.8h6.3v1.8H28.8Z"/>
      <path id="Trazado_116854" data-name="Trazado 116854" d="M18,41.4h2.7v1.8H18Z"/>
      <path id="Trazado_116855" data-name="Trazado 116855" d="M22.5,41.4h9v1.8h-9Z"/>
      <path id="Trazado_116856" data-name="Trazado 116856" d="M18,36h7.2v1.8H18Z"/>
      <path id="Trazado_116857" data-name="Trazado 116857" d="M39.6,27h1.8v1.8H39.6Z"/>
      <path id="Trazado_116858" data-name="Trazado 116858" d="M36,21.6h5.4v1.8H36Z"/>
      <path id="Trazado_116859" data-name="Trazado 116859" d="M12.6,31.724V52.2a3.6,3.6,0,0,0,3.6,3.6h27a3.606,3.606,0,0,0,3.427-2.5l.436.436.682.682a4.718,4.718,0,1,0,6.673-6.673l-.682-.682L46.8,40.127V19.118a3.576,3.576,0,0,0-1.054-2.546L38.327,9.154A3.577,3.577,0,0,0,35.782,8.1H29.465A15.3,15.3,0,1,0,12.6,31.724ZM45,52.2A1.8,1.8,0,0,1,43.2,54h-27a1.8,1.8,0,0,1-1.8-1.8V32.161A15.3,15.3,0,0,0,25.475,29.9L27,31.426a.9.9,0,0,0,.26.71L29.327,34.2l-.264.264a.9.9,0,0,0,0,1.273l.264.264H27v1.8h4.127l3.6,3.6H33.3v1.8h3.227l3.6,3.6H36.9v1.8h5.027L45,51.673ZM28.125,30l-1.191-1.191a15.436,15.436,0,0,0,1.877-1.877L30,28.125Zm3.375-.829L32.927,30.6,30.6,32.927,29.173,31.5ZM53.145,49.018a2.918,2.918,0,1,1-4.127,4.127l-.045-.045L53.1,48.973ZM51.827,47.7,47.7,51.827,30.973,35.1,35.1,30.973ZM35.782,9.9A1.823,1.823,0,0,1,36,9.915V16.2a2.7,2.7,0,0,0,2.7,2.7h2.7V17.1H38.7a.9.9,0,0,1-.9-.9V11.173l6.673,6.673A1.788,1.788,0,0,1,45,19.118V38.327l-9.264-9.264a.9.9,0,0,0-1.273,0l-.264.264-.527-.527H37.8V27H31.5c-.025,0-.049,0-.074,0L29.9,25.475A15.289,15.289,0,0,0,31.042,23.4H34.2V21.6H31.724A15.292,15.292,0,0,0,30.6,9.9ZM17.1,3.6A13.5,13.5,0,1,1,3.6,17.1,13.5,13.5,0,0,1,17.1,3.6Z"/>
      <path id="Trazado_116860" data-name="Trazado 116860" d="M17.1,28.8A11.7,11.7,0,1,0,5.4,17.1,11.7,11.7,0,0,0,17.1,28.8ZM27,17.1c0,.3-.015.6-.041.9H21.6v1.8h5.026a9.857,9.857,0,0,1-1.232,2.7H14.4v1.8h9.487A9.88,9.88,0,0,1,11.7,25.393V15.3a1.8,1.8,0,0,1,1.8-1.8H26.322A9.849,9.849,0,0,1,27,17.1ZM17.1,7.2a9.9,9.9,0,0,1,8.293,4.5H13.5a3.6,3.6,0,0,0-3.6,3.6v8.587A9.895,9.895,0,0,1,17.1,7.2Z"/>
      <path id="Trazado_116861" data-name="Trazado 116861" d="M14.4,18h5.4v1.8H14.4Z"/>
    </g>
  </g>
</svg>
