<svg xmlns="http://www.w3.org/2000/svg" xmlns:xlink="http://www.w3.org/1999/xlink" width="54" height="54" viewBox="0 0 54 54">
  <defs>
    <clipPath id="clip-path">
      <rect id="Rectángulo_34344" data-name="Rectángulo 34344" width="54" height="54" transform="translate(-2961 -1406)" fill="#fff" stroke="#707070" stroke-width="1"/>
    </clipPath>
  </defs>
  <g id="Enmascarar_grupo_73" data-name="Enmascarar grupo 73" transform="translate(2961 1406)" clip-path="url(#clip-path)">
    <g id="marketing-directo" transform="translate(-2961.871 -1406.871)">
      <circle id="Elipse_4821" data-name="Elipse 4821" cx="17.419" cy="17.419" r="17.419" transform="translate(17.419 1.742)" fill="#e73844"/>
      <path id="Trazado_116864" data-name="Trazado 116864" d="M34.839,1.742a17.332,17.332,0,0,0-11.4,4.273A17.4,17.4,0,0,0,47.985,30.566,17.4,17.4,0,0,0,34.839,1.742Z" fill="#ff4d55"/>
      <circle id="Elipse_4822" data-name="Elipse 4822" cx="12.194" cy="12.194" r="12.194" transform="translate(22.645 6.968)" fill="#e6e6e6"/>
      <path id="Trazado_116865" data-name="Trazado 116865" d="M33.1,8.71a12.142,12.142,0,0,0-7.705,2.746A12.194,12.194,0,0,0,42.544,28.609,12.194,12.194,0,0,0,33.1,8.71Z" fill="#f2f2f2"/>
      <path id="Trazado_116866" data-name="Trazado 116866" d="M32.226,20.9v2.613l-2.648.378a4.018,4.018,0,0,0-3.449,3.977v4.355H43.549V27.871A4.018,4.018,0,0,0,40.1,23.894l-2.648-.378V20.9" fill="#d08d78"/>
      <path id="Trazado_116867" data-name="Trazado 116867" d="M40.1,23.894l-2.648-.378V21.754a4.29,4.29,0,0,1-4.355.523v1.239l-2.648.378A4.018,4.018,0,0,0,27,27.871v4.355H43.549V27.871A4.018,4.018,0,0,0,40.1,23.894Z" fill="#f2b9a1"/>
      <path id="Trazado_116868" data-name="Trazado 116868" d="M12.522,46.378h3.695v7.389H12.522Z" transform="translate(-31.203 24.831) rotate(-45)" fill="#ccc"/>
      <path id="Trazado_116869" data-name="Trazado 116869" d="M11.323,47.9l1.742,1.742a3.683,3.683,0,0,0,4.195.711l-4.195-4.195Z" fill="#e6e6e6"/>
      <path id="Trazado_116870" data-name="Trazado 116870" d="M21.317,42.215,13.936,45.29,9.581,49.645,4.355,44.42,8.71,40.065l3.075-7.381" fill="#e6e6e6"/>
      <path id="Trazado_116871" data-name="Trazado 116871" d="M19.472,40.37l-7.687-7.687L8.71,40.065,5.661,43.113l.9.9a4.268,4.268,0,0,0,6.036,0,9.557,9.557,0,0,1,3.079-2.064Z" fill="#f2f2f2"/>
      <path id="Trazado_116872" data-name="Trazado 116872" d="M23.846,39.524a1.848,1.848,0,0,1-2.613,2.613l-9.37-9.37a1.848,1.848,0,0,1,2.613-2.613Z" fill="#e73844"/>
      <path id="Trazado_116873" data-name="Trazado 116873" d="M5.226,45.29,4.205,46.311a2.463,2.463,0,0,0,3.484,3.484l1.02-1.02" fill="#ccc"/>
      <path id="Trazado_116874" data-name="Trazado 116874" d="M14.476,30.154a1.838,1.838,0,0,0-2.926.435,1.847,1.847,0,0,0,.313.435l9.37,9.37a1.838,1.838,0,0,0,2.926-.435,1.829,1.829,0,0,0-.313-.435Z" fill="#ff4d55"/>
      <path id="Trazado_116875" data-name="Trazado 116875" d="M6.065,41.153h6.158v7.389H6.065Z" transform="translate(-29.039 19.605) rotate(-45)" fill="#e73844"/>
      <path id="Trazado_116876" data-name="Trazado 116876" d="M12.6,44.015c.01-.01.022-.019.032-.029L8.71,40.065,5.661,43.113l.9.9a4.268,4.268,0,0,0,6.036,0Z" fill="#ff4d55"/>
      <path id="Trazado_116877" data-name="Trazado 116877" d="M4.205,46.311a2.45,2.45,0,0,0-.555.871,2.456,2.456,0,0,0,4.039.871l.15-.15L5.226,45.29Z" fill="#e6e6e6"/>
      <path id="Trazado_116878" data-name="Trazado 116878" d="M27.871,14.371V10.452A5.226,5.226,0,0,1,33.1,5.226h3.484a2.613,2.613,0,0,1,2.613,2.613,2.613,2.613,0,0,1,2.613,2.613v3.919" fill="#383838"/>
      <path id="Trazado_116879" data-name="Trazado 116879" d="M29.613,10.452v3.919H41.807V10.452a2.613,2.613,0,0,0-2.613-2.613,2.613,2.613,0,0,0-2.613-2.613H34.839a5.226,5.226,0,0,0-5.226,5.226Z" fill="#4c4c4c"/>
      <g id="Grupo_81306" data-name="Grupo 81306">
        <path id="Trazado_116880" data-name="Trazado 116880" d="M39.194,13.065v4.355a4.355,4.355,0,0,1-8.71,0V13.065h2.472a3.821,3.821,0,0,0,3.625-2.613Z" fill="#d08d78"/>
        <path id="Trazado_116881" data-name="Trazado 116881" d="M30.484,13.936H29.178a2.177,2.177,0,1,0,0,4.355h1.394" fill="#d08d78"/>
        <path id="Trazado_116882" data-name="Trazado 116882" d="M39.194,13.936H40.5a2.177,2.177,0,1,1,0,4.355H39.107" fill="#d08d78"/>
      </g>
      <path id="Trazado_116883" data-name="Trazado 116883" d="M35.274,21.731a4.341,4.341,0,0,0,3.919-4.311V13.065l-2.613-2.613a3.821,3.821,0,0,1-3.625,2.613h-1.6v4.355a4.341,4.341,0,0,0,3.919,4.311Z" fill="#f2b9a1"/>
      <path id="Trazado_116884" data-name="Trazado 116884" d="M40.1,23.894l-1.777-.253a3.484,3.484,0,0,1-6.963,0l-1.779.253a4.018,4.018,0,0,0-3.452,3.977v4.355H43.549V27.871A4.018,4.018,0,0,0,40.1,23.894Z" fill="#0059be"/>
      <path id="Trazado_116885" data-name="Trazado 116885" d="M40.1,23.894l-1.777-.253a3.479,3.479,0,0,1-6.947.122l-.924.132A4.018,4.018,0,0,0,27,27.871v4.355H43.549V27.871A4.018,4.018,0,0,0,40.1,23.894Z" fill="#006bdb"/>
      <path id="Trazado_116886" data-name="Trazado 116886" d="M2.613,48.052A3.334,3.334,0,0,0,8.3,50.41l.405-.4.255.255a.871.871,0,0,0,1.232,0l.255-.255,4.61,4.61a.871.871,0,0,0,1.232,0L18.906,52a.871.871,0,0,0,0-1.232l-4.61-4.61.133-.133,6.8-2.833a2.71,2.71,0,0,0,3.234-4.287l-9.37-9.37A2.712,2.712,0,0,0,10.8,32.776L7.969,39.569,3.736,43.8a.871.871,0,0,0,0,1.232l.259.257-.405.405a3.31,3.31,0,0,0-.976,2.357Zm14.446,3.335-1.381,1.381-3.994-3.994,1.381-1.381Zm2.719-9.474-5.639,2.352-4.4-4.4,2.352-5.639ZM13.17,30.484a.987.987,0,0,1,.691.286l9.37,9.37a.976.976,0,0,1-.691,1.667.987.987,0,0,1-.691-.286l-9.37-9.37a.976.976,0,0,1,.691-1.667ZM8.71,41.3,12.7,45.29,9.581,48.414,5.586,44.42ZM7.478,48.774l-.405.405a1.593,1.593,0,0,1-2.252-2.253l.405-.4Z"/>
      <path id="Trazado_116887" data-name="Trazado 116887" d="M53.129,19.161a18.29,18.29,0,1,0-18.29,18.29,18.29,18.29,0,0,0,18.29-18.29ZM25.861,33.043a.86.86,0,0,0,.268.054H43.549a.86.86,0,0,0,.268-.054,16.446,16.446,0,0,1-17.956,0Zm20.3-13.882a11.241,11.241,0,0,1-2.2,6.692,4.895,4.895,0,0,0-3.736-2.821l-1.9-.271V21.3a5.24,5.24,0,0,0,1.437-2.143h.74a3.044,3.044,0,0,0,2.177-5.175V11.01a11.218,11.218,0,0,1,3.484,8.151ZM34.839,20.9a3.484,3.484,0,0,1-3.484-3.484V13.936h1.6a4.687,4.687,0,0,0,3.858-2.02l1.509,1.509v3.994A3.484,3.484,0,0,1,34.839,20.9Zm0,1.742a5.2,5.2,0,0,0,1.742-.3v1.176a.871.871,0,0,0,.718.852,2.6,2.6,0,0,1-4.919,0,.871.871,0,0,0,.718-.852V22.34a5.2,5.2,0,0,0,1.742.3Zm-4.205,1.978a4.346,4.346,0,0,0,8.41,0l.932.133a3.162,3.162,0,0,1,2.7,3.115v3.484H27V27.871a3.162,3.162,0,0,1,2.7-3.115Zm9.431-9.817H40.5a1.306,1.306,0,1,1,0,2.613h-.435Zm.871-4.355v2.657a3,3,0,0,0-.435-.044h-.435a.871.871,0,0,0-.255-.616L37.2,9.836a.871.871,0,0,0-1.441.341,2.948,2.948,0,0,1-2.8,2.017H30.484a.871.871,0,0,0-.871.871h-.435a3,3,0,0,0-.435.044V10.452A4.36,4.36,0,0,1,33.1,6.1h3.484a1.742,1.742,0,0,1,1.742,1.742.871.871,0,0,0,.871.871A1.742,1.742,0,0,1,40.936,10.452ZM29.178,14.807h.435v2.613h-.435a1.306,1.306,0,0,1,0-2.613ZM27,13.986a3.044,3.044,0,0,0,2.177,5.175h.74A5.24,5.24,0,0,0,31.355,21.3v1.457l-1.9.271a4.9,4.9,0,0,0-3.736,2.821A11.26,11.26,0,0,1,27,11.02Zm-8.71,5.175A16.548,16.548,0,1,1,44.194,32.8a.863.863,0,0,0,.226-.572v-4.2A13.044,13.044,0,0,0,41.684,8.034a3.466,3.466,0,0,0-1.706-.979,3.49,3.49,0,0,0-3.4-2.7H33.1a6.1,6.1,0,0,0-5.761,4.117,13.037,13.037,0,0,0-2.078,19.552v4.2a.863.863,0,0,0,.226.572A16.539,16.539,0,0,1,18.29,19.161Z"/>
    </g>
  </g>
</svg>
