<svg xmlns="http://www.w3.org/2000/svg" xmlns:xlink="http://www.w3.org/1999/xlink" width="54" height="54" viewBox="0 0 54 54">
  <defs>
    <clipPath id="clip-path">
      <rect id="Rectángulo_34383" data-name="Rectángulo 34383" width="54" height="54" transform="translate(-2217 102)" fill="#fff" stroke="#707070" stroke-width="1"/>
    </clipPath>
  </defs>
  <g id="Enmascarar_grupo_92" data-name="Enmascarar grupo 92" transform="translate(2217 -102)" clip-path="url(#clip-path)">
    <g id="compras" transform="translate(-2216.991 102)">
      <path id="Trazado_117032" data-name="Trazado 117032" d="M46.784,9.35V44.763a1.106,1.106,0,0,1-1.106,1.107H16.1A1.106,1.106,0,0,1,15,44.763V9.35A1.107,1.107,0,0,1,16.1,8.243H45.678A1.107,1.107,0,0,1,46.784,9.35Zm0,0" fill="#f44545"/>
      <path id="Trazado_117033" data-name="Trazado 117033" d="M46.784,9.35V44.763a1.106,1.106,0,0,1-1.106,1.107h-7.51V8.243h7.51A1.107,1.107,0,0,1,46.784,9.35Zm0,0" fill="#c42d2d"/>
      <path id="Trazado_117034" data-name="Trazado 117034" d="M35.913,35.028a2.356,2.356,0,0,0-1.032,3.17l.726,1.427a.692.692,0,0,1-.617,1.006h-2.8l-6.621,0a1.569,1.569,0,1,0-.043,3.136c-3.094,0-2.918,0-2.931,0a1.642,1.642,0,0,0-1.1.5,1.6,1.6,0,0,0-.426,1.542,1.478,1.478,0,0,0,1.5,1.1h1.362a1.568,1.568,0,0,0,.031,3.135l4.888,0A1.565,1.565,0,0,0,27.274,51.6a1.568,1.568,0,0,0,1.567,1.568l10.964,0h.029a3.7,3.7,0,0,0,3.7-3.688L43.522,41.2a3.766,3.766,0,0,0-.043-.57H41.387a2.505,2.505,0,0,1-2.234-1.37l-1.94-3.809a.967.967,0,0,0-1.3-.424Zm0,0" fill="#f2bb88"/>
      <path id="Trazado_117035" data-name="Trazado 117035" d="M43.534,48.068a3.7,3.7,0,0,1-3.7,3.571h-.028l-12.531,0a1.567,1.567,0,0,0,1.566,1.535l10.964,0h.028a3.7,3.7,0,0,0,3.7-3.688Zm0,0" fill="#e3a76f"/>
      <path id="Trazado_117036" data-name="Trazado 117036" d="M45.436,53.431H51.06c1.158,0,2.111-.714,2.111-1.587V40.132a1.911,1.911,0,0,0-2.1-1.594H45.442c-1.158,0-2.105.714-2.106,1.587l0,11.712a1.91,1.91,0,0,0,2.1,1.593Zm0,0" fill="#d2d2d7"/>
      <path id="Trazado_117037" data-name="Trazado 117037" d="M47.179,53.431H51.06c1.158,0,2.111-.714,2.111-1.587V40.132a1.911,1.911,0,0,0-2.1-1.594H47.179Zm0,0" fill="#5596fb"/>
      <path id="Trazado_117038" data-name="Trazado 117038" d="M18.068,13.35a2.357,2.357,0,0,1,1.032,3.17l-.726,1.427a.692.692,0,0,0,.617,1.006h2.8l6.621,0a1.569,1.569,0,1,1,.043,3.136c2.476,0,2.915,0,2.931,0a1.641,1.641,0,0,1,1.1.5,1.6,1.6,0,0,1,.427,1.542,1.478,1.478,0,0,1-1.5,1.1H30.058a1.568,1.568,0,0,1-.032,3.135l-4.888,0a1.564,1.564,0,0,1,1.568,1.567,1.568,1.568,0,0,1-1.567,1.568l-10.964,0h-.028a3.7,3.7,0,0,1-3.7-3.688l.015-8.287a3.714,3.714,0,0,1,.043-.57h2.091a2.506,2.506,0,0,0,2.234-1.37l1.939-3.809a.968.968,0,0,1,1.3-.424Zm0,0" fill="#f2bb88"/>
      <path id="Trazado_117039" data-name="Trazado 117039" d="M10.447,26.391a3.7,3.7,0,0,0,3.7,3.57h.029l12.531,0a1.567,1.567,0,0,1-1.566,1.535l-10.964,0h-.029a3.7,3.7,0,0,1-3.7-3.688Zm0,0" fill="#e3a76f"/>
      <path id="Trazado_117040" data-name="Trazado 117040" d="M10.649,29.835a1.91,1.91,0,0,1-2.1,1.594H2.921C1.763,31.428.81,30.714.81,29.84V18.13a1.911,1.911,0,0,1,2.1-1.594H8.539c1.158,0,2.1.714,2.106,1.588Zm0,0" fill="#ebebf0"/>
      <path id="Trazado_117041" data-name="Trazado 117041" d="M6.27,29.952l1.265,1.476H2.922C1.763,31.428.81,30.714.81,29.84V18.13a1.911,1.911,0,0,1,2.1-1.594H7.535L6.27,18.01a1.538,1.538,0,0,0,0,2l.416.484a1.539,1.539,0,0,1,0,2l-.416.484a1.536,1.536,0,0,0,0,2l.416.484a1.539,1.539,0,0,1,0,2l-.416.485a1.537,1.537,0,0,0,0,2Zm0,0" fill="#ffa90b"/>
      <path id="Trazado_117042" data-name="Trazado 117042" d="M51.076,37.407h-3.52V9.435a1.908,1.908,0,0,0-1.907-1.907H38.9V6.394A6.393,6.393,0,0,0,29.711.646a6.392,6.392,0,0,0-9.192,5.749V7.528H16.075a1.909,1.909,0,0,0-1.907,1.907V17.22A1.733,1.733,0,0,1,12.6,18.246H11.445V18.2a2.691,2.691,0,0,0-2.906-2.388H2.905A2.692,2.692,0,0,0,0,18.207V29.933a2.221,2.221,0,0,0,.941,1.762,3.283,3.283,0,0,0,1.97.628H8.543a3.265,3.265,0,0,0,1.971-.633,2.507,2.507,0,0,0,.526-.536A4.481,4.481,0,0,0,14.153,32.4h.016V44.848a1.908,1.908,0,0,0,1.907,1.905H20.6a2.237,2.237,0,0,0,1.137.835,2.37,2.37,0,0,0,2.191,3.267h2.653l0,.009A2.371,2.371,0,0,0,28.823,54L39.83,54a4.481,4.481,0,0,0,3.113-1.251,3.069,3.069,0,0,0,2.5,1.168h5.634a3.463,3.463,0,0,0,1.26-.235,2.95,2.95,0,0,0,.71-.391,2.244,2.244,0,0,0,.941-1.762V39.8a2.692,2.692,0,0,0-2.907-2.395ZM6.051,27.031l-.416.484a2.325,2.325,0,0,0,0,3.042l.142.166H2.911A1.707,1.707,0,0,1,1.9,30.416a.667.667,0,0,1-.3-.484V18.207c0-.376.558-.8,1.306-.8H5.778l-.141.165a2.323,2.323,0,0,0,0,3.042l.415.484a.734.734,0,0,1,0,.961l-.414.484a2.323,2.323,0,0,0,0,3.042l.415.484a.734.734,0,0,1,0,.96Zm3.8,2.9a.673.673,0,0,1-.3.488,2.7,2.7,0,0,1-1.665.308L6.849,29.517a.734.734,0,0,1,0-.961l.415-.484a2.324,2.324,0,0,0,0-3.042l-.415-.484a.734.734,0,0,1,0-.961l.414-.484a2.323,2.323,0,0,0,0-3.043l-.415-.484a.734.734,0,0,1,0-.96l1.035-1.206h.655c.748,0,1.306.418,1.308.791,0,.011,0,12.517,0,11.727ZM32.509,1.6a4.8,4.8,0,0,1,4.8,4.8V7.528h-4V6.394a6.375,6.375,0,0,0-2-4.642,4.781,4.781,0,0,1,1.2-.154Zm-2.8.9a4.792,4.792,0,0,1,2,3.892V7.528h-4V6.394A4.792,4.792,0,0,1,29.711,2.5ZM22.118,6.394a4.8,4.8,0,0,1,6-4.642,6.375,6.375,0,0,0-2,4.642V7.528h-4ZM14.169,30.806h-.016a2.882,2.882,0,0,1-1.248-.281,2.921,2.921,0,0,1-1.456-1.563l0-9.118H12.6a3.292,3.292,0,0,0,2.949-1.809l1.911-3.754v0h0l0-.006h0l.01-.019v0l0-.006.01-.02-.006.012.011-.022a.172.172,0,0,1,.229-.075,1.563,1.563,0,0,1,.683,2.1l-.728,1.428A1.494,1.494,0,0,0,19,19.845l9.432,0a.809.809,0,0,1,.815.782.774.774,0,0,1-.77.76H23.105a.8.8,0,1,0,0,1.6h8.28a.846.846,0,0,1,.569.262.723.723,0,0,1-.508,1.277h-8.4a.8.8,0,0,0,0,1.6h7.005a.77.77,0,0,1,0,1.541l-7.655,0a.8.8,0,0,0,0,1.6c2.953,0,3-.08,3.307.225a.771.771,0,0,1-.545,1.315h-.016l-10.973,0ZM20.2,45.155H16.075a.308.308,0,0,1-.308-.307V32.4l9.392,0A2.371,2.371,0,0,0,27.4,29.27l0-.009,2.653,0a2.369,2.369,0,0,0,2.191-3.267,2.327,2.327,0,0,0,.841-3.88,2.891,2.891,0,0,0-2.366-.73,2.384,2.384,0,0,0-2.283-3.14l-9.259,0,.648-1.274a3.158,3.158,0,0,0-1.382-4.249,1.767,1.767,0,0,0-2.379.774l-.295.58V9.435a.308.308,0,0,1,.308-.308h4.444v2.961a.8.8,0,0,0,1.6,0V9.127H31.71v2.961a.8.8,0,0,0,1.6,0V9.127h4.033V34.436a1.766,1.766,0,0,0-1.8-.118,3.164,3.164,0,0,0-1.383,4.249l.648,1.273-9.259,0a2.415,2.415,0,0,0-2.277,1.6,2.314,2.314,0,0,0-.007,1.543H22.6A2.463,2.463,0,0,0,20.2,45.155Zm22.331,5.4a2.905,2.905,0,0,1-2.7,1.844l-11.005,0a.772.772,0,0,1-.545-1.315c.39-.39.756-.161,3.307-.226a.8.8,0,0,0,0-1.6H28.824c-5.311-.008-5.128.084-5.437-.228a.772.772,0,0,1,.527-1.316h7.02a.8.8,0,0,0,0-1.6h-7c-1.119-.053-1.674.146-2-.25a.833.833,0,0,1,.667-1.29h8.277a.8.8,0,0,0,0-1.6H25.485a.766.766,0,0,1-.711-1.005.826.826,0,0,1,.772-.535l9.433,0a1.492,1.492,0,0,0,1.33-2.169l-.727-1.428a1.563,1.563,0,0,1,.683-2.1.17.17,0,0,1,.229.075l1.911,3.755h0l0,0,0,0v0l0,.009,0,.007,0,0,0,.007,0,.006h0l0,.006,0,0,0,.005v0h0l0,0v0l0,0v0l0,.007,0,0,0,.006,0,0h0A3.431,3.431,0,0,0,41.7,41.44h.839c0,1.676,0,9.624,0,9.118ZM42.5,18.018a.8.8,0,0,0-.8.8V39.841a1.837,1.837,0,0,1-1.836-.934L38.94,37.1V9.127H41.7V15.62a.8.8,0,1,0,1.6,0V9.127h2.353a.308.308,0,0,1,.308.308V37.407h-.514a3.212,3.212,0,0,0-2.148.781V18.817a.8.8,0,0,0-.8-.8Zm9.887,33.511a.7.7,0,0,1-.257.447,1.674,1.674,0,0,1-1.057.342H47.978v-4.6a.8.8,0,0,0-1.6,0v4.6h-.942a1.691,1.691,0,0,1-1-.307.679.679,0,0,1-.3-.489v-.7c0-.011,0-11.012,0-11.028,0-.374.559-.791,1.309-.791h.935v5.511a.8.8,0,0,0,1.6,0V39.005h3.1c.748,0,1.308.421,1.308.8Zm0,0"/>
      <path id="Trazado_117043" data-name="Trazado 117043" d="M50.069,49.083a1.093,1.093,0,1,0,1.093,1.093A1.1,1.1,0,0,0,50.069,49.083Zm0,0"/>
    </g>
  </g>
</svg>
