<svg xmlns="http://www.w3.org/2000/svg" width="190" height="189.039" viewBox="0 0 190 189.039">
  <g id="banco" transform="translate(-0.001 -1.295)">
    <g id="Grupo_82080" data-name="Grupo 82080" transform="translate(15.3 12.199)">
      <path id="Trazado_121275" data-name="Trazado 121275" d="M41.227,76.7v45.158H200.638V76.7L120.927,30.678Z" transform="translate(-41.227 -30.678)" fill="#eceaec" fill-rule="evenodd"/>
    </g>
    <g id="Grupo_82081" data-name="Grupo 82081" transform="translate(2.789 4.078)">
      <path id="Trazado_121276" data-name="Trazado 121276" d="M8.485,68.585a7.315,7.315,0,0,0,9.972,2.672l1.567-.9,79.7-46.021,79.711,46.021,1.567.9a7.3,7.3,0,0,0,7.289-12.644L103.732,9.794a8.535,8.535,0,0,0-8.015,0L11.157,58.613a7.327,7.327,0,0,0-2.672,9.972Z" transform="translate(-7.513 -8.795)" fill="#9fd4fe" fill-rule="evenodd"/>
    </g>
    <g id="Grupo_82082" data-name="Grupo 82082" transform="translate(2.793 103.378)">
      <path id="Trazado_121277" data-name="Trazado 121277" d="M17.844,289.972h172.4a1.71,1.71,0,0,0,1.7-1.7V278.085a1.71,1.71,0,0,0-1.7-1.7H9.229a1.71,1.71,0,0,0-1.7,1.7v10.182a1.71,1.71,0,0,0,1.7,1.7Z" transform="translate(-7.525 -276.381)" fill="#9fd4fe" fill-rule="evenodd"/>
    </g>
    <g id="Grupo_82083" data-name="Grupo 82083" transform="translate(13.112 116.968)">
      <path id="Trazado_121278" data-name="Trazado 121278" d="M43.115,325.143H73.745a1.661,1.661,0,0,0,1.651-1.651V313H35.331v10.487a1.661,1.661,0,0,0,1.651,1.651Z" transform="translate(-35.331 -313.004)" fill="#eceaec" fill-rule="evenodd"/>
    </g>
    <g id="Grupo_82084" data-name="Grupo 82084" transform="translate(74.962 116.968)">
      <path id="Trazado_121279" data-name="Trazado 121279" d="M209.8,325.143h30.62a1.664,1.664,0,0,0,1.662-1.651V313H202v10.487a1.663,1.663,0,0,0,1.662,1.651Z" transform="translate(-202.001 -313.004)" fill="#eceaec" fill-rule="evenodd"/>
    </g>
    <g id="Grupo_82085" data-name="Grupo 82085" transform="translate(136.822 116.968)">
      <path id="Trazado_121280" data-name="Trazado 121280" d="M370.36,325.143h36.752a1.664,1.664,0,0,0,1.662-1.651V313H368.7v10.487A1.664,1.664,0,0,0,370.36,325.143Z" transform="translate(-368.698 -313.004)" fill="#eceaec" fill-rule="evenodd"/>
    </g>
    <g id="Grupo_82086" data-name="Grupo 82086" transform="translate(144.617 129.107)">
      <path id="Trazado_121281" data-name="Trazado 121281" d="M389.7,345.715H414.19v32.714H389.7Z" transform="translate(-389.702 -345.715)" fill="#ffe07d" fill-rule="evenodd"/>
    </g>
    <g id="Grupo_82087" data-name="Grupo 82087" transform="translate(82.756 129.107)">
      <path id="Trazado_121282" data-name="Trazado 121282" d="M223,345.715h24.488v32.714H223Z" transform="translate(-223.004 -345.715)" fill="#ffe07d" fill-rule="evenodd"/>
    </g>
    <g id="Grupo_82088" data-name="Grupo 82088" transform="translate(20.895 129.107)">
      <path id="Trazado_121283" data-name="Trazado 121283" d="M56.306,345.715H80.8v32.714h-24.5Z" transform="translate(-56.306 -345.715)" fill="#ffe07d" fill-rule="evenodd"/>
    </g>
    <g id="Grupo_82089" data-name="Grupo 82089" transform="translate(13.112 161.821)">
      <path id="Trazado_121284" data-name="Trazado 121284" d="M35.331,446.009H75.4V435.532a1.664,1.664,0,0,0-1.651-1.662H36.982a1.663,1.663,0,0,0-1.651,1.662Z" transform="translate(-35.331 -433.87)" fill="#eceaec" fill-rule="evenodd"/>
    </g>
    <g id="Grupo_82090" data-name="Grupo 82090" transform="translate(136.822 161.821)">
      <path id="Trazado_121285" data-name="Trazado 121285" d="M368.7,446.009h40.076V435.532a1.666,1.666,0,0,0-1.662-1.662H370.36a1.666,1.666,0,0,0-1.662,1.662Z" transform="translate(-368.698 -433.87)" fill="#eceaec" fill-rule="evenodd"/>
    </g>
    <g id="Grupo_82091" data-name="Grupo 82091" transform="translate(74.962 161.821)">
      <path id="Trazado_121286" data-name="Trazado 121286" d="M202,446.009h40.076V435.532a1.666,1.666,0,0,0-1.662-1.662H203.662A1.666,1.666,0,0,0,202,435.532v10.477Z" transform="translate(-202 -433.87)" fill="#eceaec" fill-rule="evenodd"/>
    </g>
    <g id="Grupo_82092" data-name="Grupo 82092" transform="translate(2.793 173.96)">
      <path id="Trazado_121287" data-name="Trazado 121287" d="M9.228,480.173H190.245a1.71,1.71,0,0,0,1.7-1.7V468.286a1.71,1.71,0,0,0-1.7-1.7H9.228a1.71,1.71,0,0,0-1.7,1.7v10.182a1.711,1.711,0,0,0,1.7,1.7Z" transform="translate(-7.524 -466.582)" fill="#9fd4fe" fill-rule="evenodd"/>
    </g>
    <g id="Grupo_82093" data-name="Grupo 82093" transform="translate(86.501 36.067)">
      <path id="Trazado_121288" data-name="Trazado 121288" d="M233.1,103.9A8.909,8.909,0,1,0,242,95,8.907,8.907,0,0,0,233.1,103.9Z" transform="translate(-233.095 -94.995)" fill="#ffe07d" fill-rule="evenodd"/>
    </g>
    <g id="Grupo_82094" data-name="Grupo 82094" transform="translate(45.393 116.968)">
      <path id="Trazado_121289" data-name="Trazado 121289" d="M122.322,325.143v32.714h6.132a1.663,1.663,0,0,1,1.651,1.662V370H151.89V359.519a1.666,1.666,0,0,1,1.662-1.662h6.132V325.143h-6.132a1.664,1.664,0,0,1-1.662-1.651V313H130.106v10.487a1.661,1.661,0,0,1-1.651,1.651Z" transform="translate(-122.322 -313.004)" fill="#b6b1b7" fill-rule="evenodd"/>
    </g>
    <g id="Grupo_82095" data-name="Grupo 82095" transform="translate(107.244 116.968)">
      <path id="Trazado_121290" data-name="Trazado 121290" d="M288.992,325.143v32.714h6.132a1.666,1.666,0,0,1,1.662,1.662V370h21.784V359.519a1.666,1.666,0,0,1,1.662-1.662h6.132V325.143h-6.132a1.664,1.664,0,0,1-1.662-1.651V313H296.786v10.487a1.663,1.663,0,0,1-1.662,1.651Z" transform="translate(-288.992 -313.004)" fill="#b6b1b7" fill-rule="evenodd"/>
    </g>
    <g id="Grupo_82096" data-name="Grupo 82096" transform="translate(15.3 19.615)">
      <path id="Trazado_121291" data-name="Trazado 121291" d="M120.927,50.662l-79.7,46.021v10.351l79.7-46.021,79.711,46.021V96.683Z" transform="translate(-41.227 -50.662)" fill="#dad8db" fill-rule="evenodd"/>
    </g>
    <g id="Grupo_82097" data-name="Grupo 82097" transform="translate(86.501 36.067)">
      <path id="Trazado_121292" data-name="Trazado 121292" d="M242.005,95a8.915,8.915,0,0,0-8.425,11.813,8.908,8.908,0,0,1,16.683.432,8.8,8.8,0,0,0,.652-3.335A8.913,8.913,0,0,0,242.005,95Z" transform="translate(-233.096 -94.995)" fill="#ffc269" fill-rule="evenodd"/>
    </g>
    <g id="Grupo_82098" data-name="Grupo 82098" transform="translate(20.895 129.107)">
      <path id="Trazado_121293" data-name="Trazado 121293" d="M56.306,345.715H80.8v8.9h-24.5Z" transform="translate(-56.306 -345.715)" fill="#ffc269" fill-rule="evenodd"/>
    </g>
    <g id="Grupo_82099" data-name="Grupo 82099" transform="translate(82.756 129.107)">
      <path id="Trazado_121294" data-name="Trazado 121294" d="M223,345.715h24.488v8.9H223Z" transform="translate(-223.004 -345.715)" fill="#ffc269" fill-rule="evenodd"/>
    </g>
    <g id="Grupo_82100" data-name="Grupo 82100" transform="translate(144.617 129.107)">
      <path id="Trazado_121295" data-name="Trazado 121295" d="M389.7,345.715H414.19v8.9H389.7Z" transform="translate(-389.702 -345.715)" fill="#ffc269" fill-rule="evenodd"/>
    </g>
    <g id="Grupo_82101" data-name="Grupo 82101" transform="translate(13.112 116.968)">
      <path id="Trazado_121296" data-name="Trazado 121296" d="M35.331,313H75.4v6.511H35.331Z" transform="translate(-35.331 -313.004)" fill="#dad8db" fill-rule="evenodd"/>
    </g>
    <g id="Grupo_82102" data-name="Grupo 82102" transform="translate(74.962 116.968)">
      <path id="Trazado_121297" data-name="Trazado 121297" d="M202,313h40.076v6.511H202Z" transform="translate(-202.001 -313.004)" fill="#dad8db" fill-rule="evenodd"/>
    </g>
    <g id="Grupo_82103" data-name="Grupo 82103" transform="translate(136.822 116.968)">
      <path id="Trazado_121298" data-name="Trazado 121298" d="M368.7,313h40.076v6.511H368.7Z" transform="translate(-368.698 -313.004)" fill="#dad8db" fill-rule="evenodd"/>
    </g>
    <g id="Grupo_82105" data-name="Grupo 82105" transform="translate(0.001 1.295)">
      <path id="Trazado_121299" data-name="Trazado 121299" d="M175.237,131.891a4.445,4.445,0,0,0,4.445-4.435v-7.7h5.832A4.492,4.492,0,0,0,190,115.264V105.082a4.493,4.493,0,0,0-4.487-4.487h-8.02V70a9.931,9.931,0,0,0,2.4.3,10.175,10.175,0,0,0,2.644-.351,10.085,10.085,0,0,0,2.42-18.463L100.407,2.672a11.307,11.307,0,0,0-10.806,0L5.038,51.487A10.085,10.085,0,0,0,12.517,70v30.592H4.5A4.492,4.492,0,0,0,.01,105.082v10.182A4.493,4.493,0,0,0,4.5,119.751h5.831v7.7a4.439,4.439,0,0,0,4.435,4.435h3.349v27.148H14.763a4.445,4.445,0,0,0-4.435,4.445v7.694H4.5A4.492,4.492,0,0,0,.01,175.664v10.182A4.493,4.493,0,0,0,4.5,190.334h84.7a2.783,2.783,0,1,0,0-5.566H5.576v-8.024H184.434v8.024h-82.4a2.783,2.783,0,0,0,0,5.566h83.477A4.492,4.492,0,0,0,190,185.847V175.664a4.493,4.493,0,0,0-4.487-4.487h-5.832v-7.694a4.45,4.45,0,0,0-4.445-4.445h-3.349V131.89h3.349ZM12.342,64.129a4.532,4.532,0,0,1-6.17-1.652l0,0a4.521,4.521,0,0,1,1.654-6.168L92.392,7.483A5.349,5.349,0,0,1,95,6.861a5.28,5.28,0,0,1,2.616.626l84.561,48.819a4.514,4.514,0,0,1-4.507,7.823L96.391,17.2a2.783,2.783,0,0,0-2.783,0ZM5.576,106.161H89.194a2.783,2.783,0,1,0,0-5.566H18.083V67.242L95,22.828l76.928,44.414v33.352H101.574a2.783,2.783,0,1,0,0,5.566h82.86v8.024H5.576Zm72.169,20.163v-6.572h34.51v6.572Zm26.716,5.566v27.148H85.539V131.891Zm-88.566-5.566v-6.572h34.5v6.572Zm26.716,5.566v27.148H23.679V131.891Zm7.784,39.287h-34.5V164.6h34.5Zm21.784-7.694v7.694H55.96v-7.694a4.445,4.445,0,0,0-4.435-4.445H48.177V131.891h3.349a4.439,4.439,0,0,0,4.435-4.435v-7.7H72.178v7.7a4.445,4.445,0,0,0,4.445,4.435h3.349v27.148H76.623A4.45,4.45,0,0,0,72.178,163.483Zm40.077,7.694H77.745V164.6h34.51Zm21.784-7.694v7.694H117.821v-7.694a4.45,4.45,0,0,0-4.445-4.445h-3.349V131.891h3.349a4.445,4.445,0,0,0,4.445-4.435v-7.7h16.218v7.7a4.445,4.445,0,0,0,4.445,4.435h3.349v27.148h-3.349A4.45,4.45,0,0,0,134.039,163.483Zm40.077,1.121v6.572h-34.51V164.6ZM147.4,159.038V131.891h18.921v27.148Zm-7.794-32.714v-6.572h34.51v6.572Z" transform="translate(-0.001 -1.295)"/>
      <path id="Trazado_121300" data-name="Trazado 121300" d="M248.98,99.188a11.692,11.692,0,1,0-11.692,11.693A11.706,11.706,0,0,0,248.98,99.188Zm-17.818,0a6.126,6.126,0,1,1,6.126,6.126A6.133,6.133,0,0,1,231.161,99.188Z" transform="translate(-141.878 -55.507)"/>
      <g id="Grupo_82104" data-name="Grupo 82104" transform="translate(45.824 63.515)">
        <path id="Trazado_121301" data-name="Trazado 121301" d="M139.088,185.081a7.743,7.743,0,0,0-6.544-11.9h-6.278a2.783,2.783,0,0,0-2.783,2.783v21.614a2.784,2.784,0,0,0,2.783,2.783h.012s5.772-.026,7.363-.026a8.6,8.6,0,0,0,5.447-15.251Zm-6.544-6.336a2.19,2.19,0,1,1,0,4.38l-3.495.006v-4.386h3.495Zm1.1,16.022c-.847,0-2.874.007-4.592.014V188.7c.41,0,4.592,0,4.592,0a3.035,3.035,0,0,1,0,6.069Z" transform="translate(-123.483 -172.908)"/>
        <path id="Trazado_121302" data-name="Trazado 121302" d="M201.656,175.283l-.029-.075a3.261,3.261,0,0,0-3.027-2.03h0a3.262,3.262,0,0,0-3.028,2.033c-.009.021-.017.042-.025.063l-8.116,21.309a2.783,2.783,0,0,0,5.2,1.981l1.339-3.515h9.2l1.323,3.507a2.783,2.783,0,1,0,5.208-1.965Zm-5.566,14.2,2.5-6.564,2.477,6.564Z" transform="translate(-163.584 -172.908)"/>
        <path id="Trazado_121303" data-name="Trazado 121303" d="M281.563,173.179h-.027a2.783,2.783,0,0,0-2.756,2.81l.125,12.906-10-14.474A2.783,2.783,0,0,0,263.835,176v21.574a2.783,2.783,0,1,0,5.566,0V184.931l9.514,13.777a3.066,3.066,0,0,0,3.465,1.274,3.177,3.177,0,0,0,2.167-3.161l-.2-20.886A2.783,2.783,0,0,0,281.563,173.179Z" transform="translate(-211.751 -172.908)"/>
        <path id="Trazado_121304" data-name="Trazado 121304" d="M358.7,195.115l-9.722-9.379,8.9-8.177a2.783,2.783,0,0,0-3.767-4.1L347,179.992v-4.759a2.783,2.783,0,0,0-5.566,0v21.884a2.783,2.783,0,0,0,5.566,0v-5.555l7.833,7.558a2.783,2.783,0,1,0,3.865-4.006Z" transform="translate(-260.554 -172.45)"/>
      </g>
    </g>
  </g>
</svg>
