<svg xmlns="http://www.w3.org/2000/svg" xmlns:xlink="http://www.w3.org/1999/xlink" width="76" height="76" viewBox="0 0 76 76">
  <defs>
    <clipPath id="clip-path">
      <rect id="Rectángulo_34303" data-name="Rectángulo 34303" width="76" height="76" transform="translate(484 5195)" fill="#fff" stroke="#707070" stroke-width="1"/>
    </clipPath>
  </defs>
  <g id="Enmascarar_grupo_68" data-name="Enmascarar grupo 68" transform="translate(-484 -5195)" clip-path="url(#clip-path)">
    <g id="layer2" transform="translate(481.467 5192.467)">
      <path id="path6751" d="M73.467,27.867a3.792,3.792,0,0,1,3.8,3.8v41.8a3.792,3.792,0,0,1-3.8,3.8H8.233a4.481,4.481,0,0,1-4.4-4.117c0-16.543-.029-28.817-.029-45.283" fill="#e4eff8"/>
      <path id="path6753" d="M77.267,73.467a3.792,3.792,0,0,1-3.8,3.8H8.234A4.631,4.631,0,0,1,4.095,74.4a4.219,4.219,0,0,0,1.606.331H70.933a3.792,3.792,0,0,0,3.8-3.8V29.115a3.768,3.768,0,0,0-.176-1.091,3.78,3.78,0,0,1,2.709,3.624Z" fill="#c4dcf0"/>
      <path id="path6755" d="M3.8,24.067a5.067,5.067,0,0,1,10.133,0V64.6a3.792,3.792,0,0,1-3.8,3.8h-1.9A4.424,4.424,0,0,0,3.8,72.833Z" fill="#549ad4"/>
      <path id="path6757" d="M13.933,64.6a3.792,3.792,0,0,1-3.8,3.8h-1.9A4.424,4.424,0,0,0,3.8,72.834V66.3a4.412,4.412,0,0,1,1.9-.438H7.6a3.792,3.792,0,0,0,3.8-3.8V21.523a5.054,5.054,0,0,0-.453-2.081,5.048,5.048,0,0,1,2.986,4.614Z" fill="#3588cb"/>
      <path id="path6759" d="M51.933,53.2A2.533,2.533,0,1,1,49.4,50.667,2.533,2.533,0,0,1,51.933,53.2Z" fill="#ff5151"/>
      <path id="path6761" d="M49.4,19A15.2,15.2,0,1,1,34.2,3.8,15.2,15.2,0,0,1,49.4,19Z" fill="#ffca28"/>
      <path id="path6763" d="M34.2,3.8A15.2,15.2,0,0,0,22.3,9.567a15.186,15.186,0,0,1,21.261,21.4A15.2,15.2,0,0,0,34.2,3.8Z" fill="#ecb200"/>
      <path id="path6765" d="M36.733,43.067A2.533,2.533,0,1,1,34.2,40.533,2.533,2.533,0,0,1,36.733,43.067Z" fill="#ff5151"/>
      <path id="path6767" d="M62.067,35.467h5.067A1.264,1.264,0,0,1,68.4,36.733v3.8A1.264,1.264,0,0,1,67.133,41.8H62.067A1.264,1.264,0,0,1,60.8,40.533v-3.8A1.264,1.264,0,0,1,62.067,35.467Z" fill="#549ad4"/>
      <path id="path6769" d="M62.067,35.467A1.264,1.264,0,0,0,60.8,36.733v3.8A1.264,1.264,0,0,0,62.067,41.8h5.067A1.264,1.264,0,0,0,68.4,40.533V39.267H64.6A1.264,1.264,0,0,1,63.333,38V35.467Z" fill="#3588cb"/>
      <path id="path6771" d="M64.6,12.533l12.667,6.333L64.6,23.933" fill="#ff5151"/>
      <g id="Grupo_81280" data-name="Grupo 81280">
        <path id="path6773" d="M64.6,12.533v11.4l2.533-1.014V13.8Z" fill="#ff2929"/>
        <path id="path6775" d="M48.579,50.815a2.528,2.528,0,1,0,3.305,2.87,2.517,2.517,0,0,1-3.305-2.87Z" fill="#ff2929"/>
        <path id="path6777" d="M33.379,40.682a2.528,2.528,0,1,0,3.305,2.87,2.517,2.517,0,0,1-3.305-2.87Z" fill="#ff2929"/>
      </g>
      <path id="path6779" d="M17.733,19A16.343,16.343,0,0,0,19.6,26.6H15.2V24.069a6.336,6.336,0,0,0-12.672,0V72.831a5.691,5.691,0,0,0,5.7,5.7H73.467a5.065,5.065,0,0,0,5.067-5.067v-41.8A5.055,5.055,0,0,0,73.467,26.6h-7.6V24.789l11.875-4.75a1.267,1.267,0,0,0,.094-2.3L65.864,11.749V11.4a1.267,1.267,0,1,0-2.533,0V26.6H48.8A16.463,16.463,0,1,0,17.733,19ZM64.583,2.533a1.267,1.267,0,0,0-1.252,1.282V5.087a1.267,1.267,0,0,0,2.533,0V3.815a1.266,1.266,0,0,0-1.281-1.282ZM34.2,5.069A13.931,13.931,0,1,1,20.267,19,13.935,13.935,0,0,1,34.2,5.069ZM57.74,7.657l.9.9a1.269,1.269,0,0,0,1.8-1.794l-.9-.9a1.206,1.206,0,0,0-.884-.369A1.265,1.265,0,0,0,57.74,7.657ZM69.679,5.863l-.9.9a1.269,1.269,0,0,0,1.8,1.794l.9-.9a1.269,1.269,0,0,0-.94-2.162,1.216,1.216,0,0,0-.856.369ZM32.931,10.136V19a1.267,1.267,0,0,0,.376.9l3.8,3.8a1.267,1.267,0,0,0,1.8-1.786l-3.431-3.431v-8.34a1.268,1.268,0,0,0-2.536,0Zm32.933,4.451,8.313,4.151-8.313,3.325Zm-57,5.675a3.8,3.8,0,0,1,3.8,3.807V64.6a2.535,2.535,0,0,1-2.533,2.533h-1.9a5.693,5.693,0,0,0-3.169.948V24.069a3.794,3.794,0,0,1,3.8-3.807Zm6.341,8.874h6.017a16.471,16.471,0,0,0,25.959,0h16.15v5.069H62.069a2.526,2.526,0,0,0-2.536,2.533v3.8a1.27,1.27,0,1,0,0,2.536H62l-10.01,7.35a3.792,3.792,0,0,0-5.116-.057L37.9,43.893a3.716,3.716,0,0,0,.1-.824,3.8,3.8,0,1,0-7.6,0,3.683,3.683,0,0,0,.136.94l-12.31,9.455a1.267,1.267,0,1,0,1.554,2L31.939,46.12a3.81,3.81,0,0,0,4.616-.069L45.647,52.6a4.149,4.149,0,0,0-.043.6,3.8,3.8,0,0,0,7.6,0,3.554,3.554,0,0,0-.038-.507l13.109-9.629H69.67a1.268,1.268,0,0,0,0-2.536v-3.8A2.537,2.537,0,0,0,67.136,34.2H65.865V29.136h7.6A2.519,2.519,0,0,1,76,31.669v41.8A2.525,2.525,0,0,1,73.467,76H8.239a3.165,3.165,0,1,1,0-6.331h1.9A5.068,5.068,0,0,0,15.206,64.6Zm31.659,7.593a1.273,1.273,0,0,0-.9,2.17l1.007,1-1.007,1.007a1.267,1.267,0,0,0,1.8,1.786l1-1,1.007,1a1.263,1.263,0,1,0,1.786-1.786l-1-1.007,1-1a1.266,1.266,0,0,0-.905-2.17,1.28,1.28,0,0,0-.881.374l-1.007,1.007-1-1.007a1.235,1.235,0,0,0-.9-.374Zm15.2.01h5.067v3.8H62.069ZM34.205,41.8a1.272,1.272,0,0,1,1.262,1.274,1.258,1.258,0,0,1-1.262,1.262,1.268,1.268,0,1,1,0-2.536Zm31.669,7.6a1.265,1.265,0,0,0-.908,2.16l1.007,1.007-1.007,1a1.27,1.27,0,1,0,1.8,1.8l1-1.007,1.007,1.007a1.267,1.267,0,0,0,1.786-1.8l-.994-1,1-1.007a1.266,1.266,0,0,0-.935-2.16,1.233,1.233,0,0,0-.861.374l-1.007,1-1-1a1.213,1.213,0,0,0-.888-.374ZM49.4,51.931a1.268,1.268,0,1,1-1.262,1.274A1.271,1.271,0,0,1,49.4,51.931ZM25.321,56.99a1.266,1.266,0,0,0-.693.215l-3.8,2.533a1.269,1.269,0,1,0,1.4,2.115l3.095-2.068,3.1,2.068a1.267,1.267,0,0,0,1.4,0l3.095-2.068,3.1,2.068a1.267,1.267,0,0,0,1.41,0l3.095-2.068,3.095,2.068a1.269,1.269,0,1,0,1.4-2.115l-3.8-2.533a1.267,1.267,0,0,0-1.4,0l-3.095,2.066-3.1-2.066a1.267,1.267,0,0,0-1.4,0l-3.095,2.066-3.1-2.066a1.266,1.266,0,0,0-.71-.215ZM57,62.067A1.267,1.267,0,1,0,57,64.6h1.267a1.267,1.267,0,1,0,0-2.533Zm6.333,0a1.267,1.267,0,1,0,0,2.533H64.6a1.267,1.267,0,1,0,0-2.533Zm6.333,0a1.267,1.267,0,1,0,0,2.533h1.267a1.267,1.267,0,1,0,0-2.533ZM25.321,63.331a1.266,1.266,0,0,0-.693.215l-3.8,2.523a1.268,1.268,0,1,0,1.4,2.113l3.095-2.066,3.1,2.066a1.267,1.267,0,0,0,1.4,0l3.095-2.066,3.1,2.066a1.267,1.267,0,0,0,1.41,0l3.095-2.066,3.095,2.066a1.268,1.268,0,1,0,1.4-2.113l-3.8-2.523a1.267,1.267,0,0,0-1.4,0L36.739,65.6l-3.1-2.056a1.267,1.267,0,0,0-1.4,0L29.136,65.6l-3.1-2.056a1.266,1.266,0,0,0-.71-.215Z"/>
    </g>
  </g>
</svg>
