<svg xmlns="http://www.w3.org/2000/svg" xmlns:xlink="http://www.w3.org/1999/xlink" width="85" height="85" viewBox="0 0 85 85">
  <defs>
    <clipPath id="clip-path">
      <rect id="Rectángulo_34314" data-name="Rectángulo 34314" width="85" height="85" transform="translate(600 8284)" fill="#fff" stroke="#707070" stroke-width="1"/>
    </clipPath>
  </defs>
  <g id="Enmascarar_grupo_65" data-name="Enmascarar grupo 65" transform="translate(-600 -8284)" clip-path="url(#clip-path)">
    <g id="segmentacion" transform="translate(600 8284)">
      <g id="Grupo_81242" data-name="Grupo 81242">
        <g id="Grupo_81227" data-name="Grupo 81227">
          <path id="Trazado_116703" data-name="Trazado 116703" d="M34.274,17.823V37.016a13.641,13.641,0,0,0-5.251,1.042L21.689,20.331A32.621,32.621,0,0,1,34.274,17.823Z" fill="#ccd1d9"/>
        </g>
        <g id="Grupo_81228" data-name="Grupo 81228">
          <path id="Trazado_116704" data-name="Trazado 116704" d="M3.88,38.14l17.727,7.335a13.641,13.641,0,0,0-1.042,5.251H1.371A32.621,32.621,0,0,1,3.88,38.14Z" fill="#ccd1d9"/>
        </g>
        <g id="Grupo_81229" data-name="Grupo 81229">
          <path id="Trazado_116705" data-name="Trazado 116705" d="M29.023,38.058a13.821,13.821,0,0,0-4.442,2.975L11.009,27.46a32.87,32.87,0,0,1,10.68-7.129Z" fill="#ccd1d9"/>
        </g>
        <g id="Grupo_81230" data-name="Grupo 81230">
          <path id="Trazado_116706" data-name="Trazado 116706" d="M21.606,55.977,3.88,63.311A32.621,32.621,0,0,1,1.371,50.726H20.565A13.641,13.641,0,0,0,21.606,55.977Z" fill="#ccd1d9"/>
        </g>
        <g id="Grupo_81231" data-name="Grupo 81231">
          <path id="Trazado_116707" data-name="Trazado 116707" d="M11.009,27.46,24.581,41.033a13.821,13.821,0,0,0-2.975,4.442L3.88,38.14a32.87,32.87,0,0,1,7.129-10.68Z" fill="#ccd1d9"/>
        </g>
        <g id="Grupo_81232" data-name="Grupo 81232">
          <path id="Trazado_116708" data-name="Trazado 116708" d="M21.606,55.977a13.712,13.712,0,0,0,26.377-5.251H67.177A32.9,32.9,0,0,1,3.88,63.311Z" fill="#ef7385"/>
        </g>
        <g id="Grupo_81233" data-name="Grupo 81233">
          <path id="Trazado_116709" data-name="Trazado 116709" d="M21.606,45.475a13.777,13.777,0,0,1,7.417-7.417,13.7,13.7,0,1,1-7.417,7.417Z" fill="#fcd770"/>
        </g>
        <g id="Grupo_81234" data-name="Grupo 81234">
          <path id="Trazado_116710" data-name="Trazado 116710" d="M78.844,37.016a46.66,46.66,0,0,1,2.043,13.71h-32.9a13.715,13.715,0,0,0-13.71-13.71V4.113A46.516,46.516,0,0,1,56.21,9.583v5.5a2.75,2.75,0,0,0,2.742,2.742h2.742v2.742a5.482,5.482,0,0,0,5.484,5.484,8.24,8.24,0,0,0-8.226,8.226v2.742Z" fill="#b4dd7f"/>
        </g>
        <g id="Grupo_81235" data-name="Grupo 81235">
          <path id="Trazado_116711" data-name="Trazado 116711" d="M80.887,34.274v2.742H58.952V34.274a8.2,8.2,0,0,1,3.14-6.457l3.715,3.715,4.113-5.484,4.113,5.484,3.715-3.715A8.2,8.2,0,0,1,80.887,34.274Z" fill="#ef7385"/>
        </g>
        <g id="Grupo_81236" data-name="Grupo 81236">
          <path id="Trazado_116712" data-name="Trazado 116712" d="M72.661,26.048a8.149,8.149,0,0,1,5.086,1.769l-3.715,3.715-4.113-5.484Z" fill="#ef7385"/>
        </g>
        <g id="Grupo_81237" data-name="Grupo 81237">
          <path id="Trazado_116713" data-name="Trazado 116713" d="M69.919,26.048l-4.113,5.484-3.715-3.715a8.149,8.149,0,0,1,5.086-1.769Z" fill="#ef7385"/>
        </g>
        <g id="Grupo_81238" data-name="Grupo 81238">
          <path id="Trazado_116714" data-name="Trazado 116714" d="M80.887,12.339a2.75,2.75,0,0,1,2.742,2.742,2.762,2.762,0,0,1-2.742,2.742H78.145V12.339Z" fill="#f0d0b4"/>
        </g>
        <g id="Grupo_81239" data-name="Grupo 81239">
          <path id="Trazado_116715" data-name="Trazado 116715" d="M78.145,9.6V20.565a5.482,5.482,0,0,1-5.484,5.484H67.177a5.482,5.482,0,0,1-5.484-5.484V11.818A2.218,2.218,0,0,1,64.9,9.83a23.684,23.684,0,0,0,10.5,2.509h.123A2.754,2.754,0,0,0,78.145,9.6Z" fill="#f0d0b4"/>
        </g>
        <g id="Grupo_81240" data-name="Grupo 81240">
          <path id="Trazado_116716" data-name="Trazado 116716" d="M61.694,12.339v5.484H58.952a2.75,2.75,0,0,1-2.742-2.742,2.762,2.762,0,0,1,2.742-2.742Z" fill="#f0d0b4"/>
        </g>
        <g id="Grupo_81241" data-name="Grupo 81241">
          <path id="Trazado_116717" data-name="Trazado 116717" d="M83.629,9.6v5.484a2.75,2.75,0,0,0-2.742-2.742H78.145V9.6a2.754,2.754,0,0,1-2.619,2.742H75.4A23.684,23.684,0,0,1,64.9,9.83a2.218,2.218,0,0,0-3.208,1.988v.521H58.952a2.762,2.762,0,0,0-2.742,2.742v-5.5a8.229,8.229,0,0,1,8.226-8.212H75.4A8.232,8.232,0,0,1,83.629,9.6Z" fill="#fcd770"/>
        </g>
      </g>
      <g id="Grupo_81243" data-name="Grupo 81243">
        <path id="Trazado_116718" data-name="Trazado 116718" d="M75.4,0H64.435a9.609,9.609,0,0,0-9.358,7.5,48.106,48.106,0,0,0-20.8-4.756H32.9V16.486A34.271,34.271,0,1,0,68.514,52.1H82.258V50.726a48.078,48.078,0,0,0-1.636-12.339h1.636V34.274a9.6,9.6,0,0,0-5.181-8.511,6.812,6.812,0,0,0,2.439-5.2V19.194h1.371A4.118,4.118,0,0,0,85,15.081V9.6A9.608,9.608,0,0,0,75.4,0ZM60.323,16.452H58.952a1.371,1.371,0,1,1,0-2.742h1.371ZM24.631,39.144,12.98,27.493a31.674,31.674,0,0,1,7.975-5.34l6.309,15.231a15.123,15.123,0,0,0-2.634,1.759Zm-1.939,1.939a15.046,15.046,0,0,0-1.759,2.634L5.7,37.407a31.633,31.633,0,0,1,5.339-7.975Zm-2.819,5.162a14.969,14.969,0,0,0-.61,3.111H2.776a31.333,31.333,0,0,1,1.867-9.419Zm-.61,5.853a15.059,15.059,0,0,0,.61,3.111L4.645,61.515A31.334,31.334,0,0,1,2.776,52.1Zm2.672-1.371A12.339,12.339,0,1,1,34.274,63.065,12.352,12.352,0,0,1,21.935,50.726ZM32.9,35.715a15.059,15.059,0,0,0-3.111.61L23.485,21.1A31.333,31.333,0,0,1,32.9,19.229Zm1.371,46.543A31.569,31.569,0,0,1,5.7,64.045l15.231-6.309A15.068,15.068,0,0,0,49.285,52.1H65.771A31.566,31.566,0,0,1,34.274,82.258ZM79.5,49.355H49.285a15.1,15.1,0,0,0-13.64-13.64V5.5a45.311,45.311,0,0,1,19.194,4.931v4.645a4.118,4.118,0,0,0,4.113,4.113h1.371v1.371a6.812,6.812,0,0,0,2.439,5.2,9.6,9.6,0,0,0-5.181,8.511v4.113H77.79A45.2,45.2,0,0,1,79.5,49.355ZM67.177,27.419l-1.519,2.026-1.365-1.367A6.762,6.762,0,0,1,67.177,27.419Zm12.339,6.855v1.371H60.323V34.274a6.8,6.8,0,0,1,1.753-4.534l3.878,3.88,3.965-5.286,3.965,5.286,3.878-3.88a6.8,6.8,0,0,1,1.753,4.534Zm-6.855-6.855a6.773,6.773,0,0,1,2.886.659l-1.365,1.367Zm-5.484-2.742a4.118,4.118,0,0,1-4.113-4.113v-8.75a.847.847,0,0,1,1.226-.758A25.247,25.247,0,0,0,75.4,13.71h.123a4.05,4.05,0,0,0,1.248-.233v7.089a4.118,4.118,0,0,1-4.113,4.113ZM75.4,8.226a1.371,1.371,0,0,1,.026,2.742A22.466,22.466,0,0,1,65.519,8.6a3.632,3.632,0,0,0-1.607-.378,3.587,3.587,0,0,0-3.477,2.742H58.952a4.067,4.067,0,0,0-1.371.252V9.6a6.863,6.863,0,0,1,6.855-6.855H75.4A6.863,6.863,0,0,1,82.258,9.6V11.22a4.067,4.067,0,0,0-1.371-.252H79.516V9.6A4.118,4.118,0,0,0,75.4,5.484H74.032V8.226Zm5.484,8.226H79.516V13.71h1.371a1.371,1.371,0,0,1,0,2.742Z"/>
        <path id="Trazado_116719" data-name="Trazado 116719" d="M32.9,57.328v2.994h2.742V57.581h2.742V53.468a4.118,4.118,0,0,0-4.113-4.113A1.371,1.371,0,0,1,32.9,47.984V46.613h1.371a1.371,1.371,0,0,1,1.371,1.371v1.371h2.742V47.984a4.107,4.107,0,0,0-2.742-3.861V41.129H32.9v2.742H30.161v4.113A4.118,4.118,0,0,0,34.274,52.1a1.371,1.371,0,0,1,1.371,1.371v1.371H34.274A1.371,1.371,0,0,1,32.9,53.468V52.1H30.161v1.371A4.107,4.107,0,0,0,32.9,57.328Z"/>
        <path id="Trazado_116720" data-name="Trazado 116720" d="M63.065,41.129h2.742v2.742H63.065Z"/>
        <path id="Trazado_116721" data-name="Trazado 116721" d="M68.548,41.129H71.29v2.742H68.548Z"/>
        <path id="Trazado_116722" data-name="Trazado 116722" d="M74.032,41.129h2.742v2.742H74.032Z"/>
      </g>
    </g>
  </g>
</svg>
