<svg xmlns="http://www.w3.org/2000/svg" xmlns:xlink="http://www.w3.org/1999/xlink" width="76" height="76" viewBox="0 0 76 76">
  <defs>
    <clipPath id="clip-path">
      <rect id="Rect치ngulo_34303" data-name="Rect치ngulo 34303" width="76" height="76" transform="translate(484 5195)" fill="#fff" stroke="#707070" stroke-width="1"/>
    </clipPath>
  </defs>
  <g id="Enmascarar_grupo_69" data-name="Enmascarar grupo 69" transform="translate(-484 -5195)" clip-path="url(#clip-path)">
    <g id="Fill_out_line" data-name="Fill out line" transform="translate(481.467 5192.467)">
      <path id="Trazado_116760" data-name="Trazado 116760" d="M63.333,46.867a22.776,22.776,0,0,1-22.8,22.8A23.081,23.081,0,0,1,38,69.527a22.8,22.8,0,1,1,25.335-22.66Z" fill="#8fd1ec"/>
      <path id="Trazado_116761" data-name="Trazado 116761" d="M45.681,60.974,41.8,63.333v2.533H38v3.661a22.8,22.8,0,0,1-6.333-43.671v7.077H34.2l2.533,2.533-5.067,5.067H29.133v3.8l3.8,3.8L34.2,46.867,39.267,49.4l1.267,3.8L45.6,54.467Z" fill="#59b55d"/>
      <path id="Trazado_116762" data-name="Trazado 116762" d="M63.333,46.867a22.788,22.788,0,0,1-1.284,7.564L59.533,49.4l-5.067,1.267-5.067-3.8L53.2,38l-3.8-5.067,2.823-5.645a22.785,22.785,0,0,1,11.11,19.578Z" fill="#59b55d"/>
      <path id="Trazado_116763" data-name="Trazado 116763" d="M30.4,10.133H50.667V26.6H30.4Z" fill="#e94042"/>
      <path id="Trazado_116764" data-name="Trazado 116764" d="M45.6,10.133h5.067V26.6H45.6Z" fill="#d6393b"/>
      <circle id="Elipse_4814" data-name="Elipse 4814" cx="13.933" cy="13.933" r="13.933" transform="translate(3.8 45.6)" fill="#f3e19f"/>
      <path id="Trazado_116765" data-name="Trazado 116765" d="M11.4,55.733h1.267v7.6H11.4a3.8,3.8,0,0,1,0-7.6Z" fill="#e94042"/>
      <path id="Trazado_116766" data-name="Trazado 116766" d="M12.667,63.333a12.55,12.55,0,0,1,6.962,2.108l.638.425V53.2l-.638.425a12.551,12.551,0,0,1-6.962,2.108Z" fill="#c9d9e5"/>
      <rect id="Rect치ngulo_34317" data-name="Rect치ngulo 34317" width="3.8" height="17.733" rx="1.9" transform="translate(20.267 50.667)" fill="#e94042"/>
      <path id="Trazado_116767" data-name="Trazado 116767" d="M24.067,57h1.267a2.533,2.533,0,0,1,0,5.067H24.067Z" fill="#d6393b"/>
      <circle id="Elipse_4815" data-name="Elipse 4815" cx="13.933" cy="13.933" r="13.933" transform="translate(49.4 46.867)" fill="#f3e19f"/>
      <path id="Trazado_116768" data-name="Trazado 116768" d="M62.067,59.533V57L60.8,54.467l1.267-2.533h5.067v7.6Z" fill="#f7c699"/>
      <path id="Trazado_116769" data-name="Trazado 116769" d="M67.64,59.28a5.067,5.067,0,0,1,2.027,4.053V68.4H59.533V63.333A5.067,5.067,0,0,1,67.64,59.28Z" fill="#e94042"/>
      <path id="Trazado_116770" data-name="Trazado 116770" d="M19.534,42.08a21.58,21.58,0,0,1,7.841-12.26l-1.549-2a24.119,24.119,0,0,0-8.762,13.7Z"/>
      <path id="Trazado_116771" data-name="Trazado 116771" d="M61.769,43.276l2.5-.419a23.986,23.986,0,0,0-9.026-15.041l-1.549,2a21.46,21.46,0,0,1,8.077,13.456Z"/>
      <path id="Trazado_116772" data-name="Trazado 116772" d="M40.533,76a29.02,29.02,0,0,1-9.343-1.532L32.562,73.1,30.771,71.3l-2.533,2.533a1.267,1.267,0,0,0-.371.9v3.8H30.4V76.875a31.773,31.773,0,0,0,22.81-.981l-1.015-2.321A28.924,28.924,0,0,1,40.533,76Z"/>
      <path id="Trazado_116773" data-name="Trazado 116773" d="M30.4,27.867H50.667A1.266,1.266,0,0,0,51.933,26.6V10.133a1.266,1.266,0,0,0-1.267-1.267H48.133V7.6a5.065,5.065,0,0,0-7.6-4.386A5.017,5.017,0,0,0,38,2.533,5.072,5.072,0,0,0,32.933,7.6V8.867H30.4a1.266,1.266,0,0,0-1.267,1.267V26.6A1.266,1.266,0,0,0,30.4,27.867ZM46.867,11.4H49.4V25.333H46.867Zm-3.8-6.333A2.537,2.537,0,0,1,45.6,7.6V8.867H43.067V7.6a5.035,5.035,0,0,0-.635-2.453,2.51,2.51,0,0,1,.635-.081ZM35.467,7.6a2.533,2.533,0,1,1,5.067,0V8.867H35.467Zm-3.8,3.8H44.333V25.333H31.667Z"/>
      <path id="Trazado_116774" data-name="Trazado 116774" d="M32.038,49.029a1.267,1.267,0,0,0,1.791,0l.621-.621,3.781,1.89,1.1,3.3a1.266,1.266,0,0,0,.894.828l4.107,1.027v4.667L41.1,62.279a1.267,1.267,0,0,0-.564,1.054V64.6H38a1.267,1.267,0,0,0-1.267,1.267v2.2a21.361,21.361,0,0,1-3.378-.89l-.844,2.389a24.178,24.178,0,0,0,15.952.033L47.628,67.2a21.487,21.487,0,0,1-7.1,1.2q-.636,0-1.267-.037V67.133H41.8a1.267,1.267,0,0,0,1.267-1.267V64.011L46.3,61.854a1.267,1.267,0,0,0,.564-1.054V54.467a1.267,1.267,0,0,0-.959-1.229l-4.392-1.1L40.468,49a1.266,1.266,0,0,0-.635-.732l-5.067-2.533a1.267,1.267,0,0,0-1.462.237l-.371.371L30.4,43.809V41.8h1.267a1.267,1.267,0,0,0,.9-.371l5.067-5.067a1.267,1.267,0,0,0,0-1.791L35.1,32.038a1.267,1.267,0,0,0-.9-.371H32.933V30.4H30.4v2.533A1.267,1.267,0,0,0,31.667,34.2h2.009l1.267,1.267-3.8,3.8H29.133a1.267,1.267,0,0,0-1.267,1.267v3.8a1.267,1.267,0,0,0,.371.9Z"/>
      <path id="Trazado_116775" data-name="Trazado 116775" d="M54.213,37.24l-3.33-4.44.916-1.832-2.266-1.133-1.267,2.533a1.266,1.266,0,0,0,.12,1.327l3.361,4.481-3.511,8.194a1.267,1.267,0,0,0,.4,1.512l1.689,1.267,1.52-2.027-.892-.669L54.364,38.5a1.267,1.267,0,0,0-.151-1.259Z"/>
      <path id="Trazado_116776" data-name="Trazado 116776" d="M32.933,59.533a15.2,15.2,0,1,0-15.2,15.2,15.2,15.2,0,0,0,15.2-15.2ZM17.733,72.2A12.667,12.667,0,1,1,30.4,59.533,12.667,12.667,0,0,1,17.733,72.2Z"/>
      <path id="Trazado_116777" data-name="Trazado 116777" d="M25.333,55.733V52.567A3.166,3.166,0,1,0,19,52.521l-.076.051a11.245,11.245,0,0,1-6.259,1.9H11.4a5.067,5.067,0,0,0,0,10.133v3.8h2.533V64.671A11.237,11.237,0,0,1,18.926,66.5l.076.051a3.166,3.166,0,1,0,6.332-.046V63.333a3.8,3.8,0,1,0,0-7.6ZM11.4,62.067A2.533,2.533,0,0,1,11.4,57ZM19,63.6a13.778,13.778,0,0,0-5.067-1.479V56.943A13.778,13.778,0,0,0,19,55.464Zm3.8,2.9a.633.633,0,0,1-1.267,0V52.567a.633.633,0,1,1,1.267,0Zm2.533-5.7V58.267a1.267,1.267,0,0,1,0,2.533Z"/>
      <path id="Trazado_116778" data-name="Trazado 116778" d="M63.333,45.6a15.2,15.2,0,1,0,15.2,15.2,15.2,15.2,0,0,0-15.2-15.2Zm0,27.867A12.667,12.667,0,1,1,76,60.8,12.667,12.667,0,0,1,63.333,73.467Z"/>
      <path id="Trazado_116779" data-name="Trazado 116779" d="M68.4,58.267V51.933a1.266,1.266,0,0,0-1.267-1.267H58.267V53.2h1.75l-.35.7a1.274,1.274,0,0,0,0,1.134L60.8,57.3v.967a6.363,6.363,0,0,0-2.533,5.067V68.4a1.266,1.266,0,0,0,1.267,1.267H69.667A1.266,1.266,0,0,0,70.933,68.4V63.333A6.359,6.359,0,0,0,68.4,58.267ZM62.85,53.2h3.016v3.935a6.377,6.377,0,0,0-2.533,0V57a1.28,1.28,0,0,0-.133-.567l-.985-1.966ZM68.4,67.133H64.6v-3.8H62.067v3.8H60.8v-3.8a3.8,3.8,0,0,1,7.6,0Z"/>
      <path id="Trazado_116780" data-name="Trazado 116780" d="M73.024,39.809l-1.436.829A31.772,31.772,0,0,0,59.334,21.375l-1.5,2.039A29.241,29.241,0,0,1,69.109,41.158l-1.875-.5L66.578,43.1l3.461.927A1.267,1.267,0,0,0,71,43.9L74.291,42Z"/>
      <path id="Trazado_116781" data-name="Trazado 116781" d="M22.733,21.964l-3.291-1.9-1.267,2.194,1.436.829A31.772,31.772,0,0,0,9.057,43.331l2.518.281A29.24,29.24,0,0,1,21.3,24.975l.5,1.875,2.447-.656-.927-3.461a1.266,1.266,0,0,0-.59-.769Z"/>
    </g>
  </g>
</svg>
