<svg id="Grupo_93039" data-name="Grupo 93039" xmlns="http://www.w3.org/2000/svg" xmlns:xlink="http://www.w3.org/1999/xlink" width="314.334" height="304.012" viewBox="0 0 314.334 304.012">
  <defs>
    <linearGradient id="linear-gradient" x1="0.5" x2="0.5" y2="1" gradientUnits="objectBoundingBox">
      <stop offset="0" stop-color="#d5f0ff"/>
      <stop offset="1" stop-color="#fff"/>
    </linearGradient>
    <linearGradient id="linear-gradient-2" y1="0.5" x2="1" y2="0.5" gradientUnits="objectBoundingBox">
      <stop offset="0" stop-color="#2c7efe"/>
      <stop offset="1" stop-color="#84b2fe"/>
    </linearGradient>
    <linearGradient id="linear-gradient-3" y1="0.5" x2="1" y2="0.5" gradientUnits="objectBoundingBox">
      <stop offset="0" stop-color="#dfcffd"/>
      <stop offset="1" stop-color="#8183f1"/>
    </linearGradient>
    <linearGradient id="linear-gradient-4" x1="0.205" y1="0.906" x2="0.707" y2="0.04" gradientUnits="objectBoundingBox">
      <stop offset="0" stop-color="#dfe6ff"/>
      <stop offset="0.231" stop-color="#eaeeff"/>
      <stop offset="0.657" stop-color="#f9faff"/>
      <stop offset="1" stop-color="#fff"/>
    </linearGradient>
    <linearGradient id="linear-gradient-5" x1="0.204" y1="0.906" x2="0.707" y2="0.04" xlink:href="#linear-gradient-4"/>
  </defs>
  <path id="Trazado_127378" data-name="Trazado 127378" d="M275.579,336.514c3.937,2.979,22.221,25.7,85.63-9.855,24.893-13.963,38.973-34.482,27.338-58.2-15.9-32.4-25.444-37.738-16.288-69.767,5.321-18.615,32.444-92.2-60.619-90.024-42.721,1-47.439,38.913-125.846,10.785C55.427,72.675,45.648,345.556,145.864,343.213c41.342-.967,66.629-5.761,114.913-9.287,2.758-.2,8.88-.614,11.711,1.048Z" transform="translate(-78.354 -108.618)" fill="#d5f0ff" fill-rule="evenodd" opacity="0.5"/>
  <g id="Grupo_93001" data-name="Grupo 93001" transform="translate(32.487 122.851)">
    <path id="Trazado_127379" data-name="Trazado 127379" d="M272.84,829.029q47.62.017,95.279.045l24.67.011,24.67-.011q47.62-.017,95.279-.045c3,0,4.653,2.816,3.713,6.261-7.474,27.3-14.414,52.647-20.861,76.221q-9.03,33.005-16.9,61.791a5.873,5.873,0,0,1-5.428,4.017H312.313a5.873,5.873,0,0,1-5.428-4.017q-7.9-28.848-16.9-61.791c-6.446-23.574-13.4-48.921-20.861-76.221-.94-3.445.717-6.261,3.713-6.261Z" transform="translate(-268.864 -829.029)" fill="#84b2fe"/>
    <path id="Trazado_127380" data-name="Trazado 127380" d="M326.48,883.312l88.212.034,22.838.011,22.838-.011,88.212-.034c2.772,0,4.3,2.457,3.431,5.476q-10.367,35.833-19.31,66.706-8.346,28.882-15.645,54.083a5.4,5.4,0,0,1-5.021,3.512H363.025a5.4,5.4,0,0,1-5.021-3.512q-7.314-25.246-15.655-54.083-8.943-30.935-19.3-66.706c-.872-3.018.659-5.476,3.432-5.476Z" transform="translate(-313.606 -874.055)" fill="url(#linear-gradient)"/>
  </g>
  <g id="Grupo_93005" data-name="Grupo 93005" transform="translate(236.754 202.319)">
    <path id="Trazado_127381" data-name="Trazado 127381" d="M1508.8,1475.212a21.538,21.538,0,0,1,1.589,8.142,21.841,21.841,0,0,1-43.68,0,21.538,21.538,0,0,1,1.589-8.142h.413v.126c0,4.111,8.878,7.451,19.839,7.451s19.838-3.339,19.838-7.451v-.126Z" transform="translate(-1466.711 -1444.488)" fill="#a298c8"/>
    <path id="Trazado_127382" data-name="Trazado 127382" d="M1496.105,1452.959c11.167,0,20.278-3.007,20.278-6.7s-9.111-6.688-20.278-6.688-20.287,3.007-20.287,6.688,9.111,6.7,20.287,6.7Z" transform="translate(-1474.265 -1414.928)" fill="#dbdadb"/>
    <path id="Trazado_127383" data-name="Trazado 127383" d="M1499.118,1460.473c9.479,0,17.442,2.029,19.668,4.767-2.226,2.908-10.189,5.054-19.668,5.054s-17.442-2.146-19.668-5.054c2.226-2.738,10.188-4.767,19.668-4.767Z" transform="translate(-1477.277 -1432.262)" fill="#8d3b32"/>
    <g id="Grupo_93002" data-name="Grupo 93002" transform="translate(3.028 5.182)">
      <path id="Trazado_127384" data-name="Trazado 127384" d="M1485.942,1328.346c5.574,4.192,12.477,4.03,16.328,10.314s4.3,13.555,1.777,19.21c-6.185-.323-12.478-4.03-16.329-10.305s-.736-12.989-1.777-19.219Z" transform="translate(-1485.514 -1327.849)" fill="#17878b"/>
      <path id="Trazado_127385" data-name="Trazado 127385" d="M1503.139,1355.675l-.148-.008a19.4,19.4,0,0,1-9.142-2.953,22.814,22.814,0,0,1-7.359-7.455c-2.453-4-2.121-8.186-1.8-12.232a29.311,29.311,0,0,0-.006-7.064l-.089-.532.431.324a29.535,29.535,0,0,0,6.8,3.524c3.7,1.517,7.192,2.95,9.582,6.85a22.759,22.759,0,0,1,3.31,9.932,19.341,19.341,0,0,1-1.519,9.479Zm-17.953-29.27a32.07,32.07,0,0,1-.066,6.656c-.315,3.977-.641,8.09,1.738,11.972,3.631,5.917,9.754,9.811,16.008,10.194,2.5-5.742,1.806-12.958-1.824-18.873-2.317-3.78-5.746-5.187-9.377-6.677A31.628,31.628,0,0,1,1485.185,1326.406Z" transform="translate(-1484.468 -1325.431)" fill="#fff"/>
    </g>
    <g id="Grupo_93003" data-name="Grupo 93003" transform="translate(13.007)">
      <path id="Trazado_127386" data-name="Trazado 127386" d="M1552.778,1298.446c2.567,6.481,8.537,9.946,8.537,17.316s-3.42,13.8-8.537,17.307c-5.108-3.51-8.528-9.946-8.528-17.307s6.158-11.463,8.528-17.316Z" transform="translate(-1544.034 -1297.866)" fill="#16b79e"/>
      <path id="Trazado_127387" data-name="Trazado 127387" d="M1551.729,1330.508l-.122-.084a19.385,19.385,0,0,1-6.25-7.29,22.775,22.775,0,0,1-2.371-10.195c0-4.7,2.47-8.092,4.859-11.376a29.363,29.363,0,0,0,3.684-6.021l.2-.5.2.5a29.53,29.53,0,0,0,3.958,6.547c2.363,3.225,4.594,6.272,4.594,10.849a22.758,22.758,0,0,1-2.373,10.195,19.371,19.371,0,0,1-6.258,7.29Zm0-34.327a32.122,32.122,0,0,1-3.532,5.636c-2.348,3.229-4.777,6.567-4.777,11.122,0,6.936,3.181,13.451,8.312,17.044,5.136-3.591,8.321-10.106,8.321-17.044,0-4.435-2.191-7.427-4.511-10.593A31.639,31.639,0,0,1,1551.726,1296.181Z" transform="translate(-1542.985 -1295.043)" fill="#fff"/>
    </g>
    <g id="Grupo_93004" data-name="Grupo 93004" transform="translate(20.328 5.182)">
      <path id="Trazado_127388" data-name="Trazado 127388" d="M1606.864,1328.346c-5.574,4.192-12.478,4.03-16.328,10.314s-4.3,13.555-1.777,19.21c6.185-.323,12.478-4.03,16.328-10.305s.736-12.989,1.777-19.219Z" transform="translate(-1586.968 -1327.849)" fill="#4fbd9d"/>
      <path id="Trazado_127389" data-name="Trazado 127389" d="M1587.573,1355.675l-.06-.135a19.344,19.344,0,0,1-1.519-9.479,22.759,22.759,0,0,1,3.31-9.932c2.39-3.9,5.883-5.333,9.582-6.85a29.538,29.538,0,0,0,6.8-3.524l.431-.324-.089.532a29.316,29.316,0,0,0-.006,7.064c.321,4.046.652,8.23-1.8,12.232a22.814,22.814,0,0,1-7.359,7.455,19.4,19.4,0,0,1-9.142,2.953Zm17.953-29.27a31.634,31.634,0,0,1-6.478,3.272c-3.631,1.49-7.061,2.9-9.378,6.677-3.63,5.915-4.324,13.132-1.824,18.873,6.254-.383,12.376-4.277,16.008-10.194,2.379-3.882,2.053-7.995,1.738-11.972A32.076,32.076,0,0,1,1605.526,1326.406Z" transform="translate(-1585.92 -1325.431)" fill="#fff"/>
    </g>
  </g>
  <g id="Grupo_93012" data-name="Grupo 93012" transform="translate(76.689 6.763)">
    <path id="Trazado_127390" data-name="Trazado 127390" d="M543.414,286.367H698.4c-12.251,59.406,5.767,140.628,0,197.483H543.414c10.093-61.948-9.367-129.166,0-197.483Z" transform="translate(-538.616 -262.818)" fill="#8badda" fill-rule="evenodd"/>
    <path id="Trazado_127391" data-name="Trazado 127391" d="M560.474,201.5H709.287c-11.773,62.788,5.529,148.636,0,208.727H560.474c9.689-65.475-9-136.51,0-208.727Z" transform="translate(-552.851 -192.424)" fill="#d9cbe2" fill-rule="evenodd"/>
    <path id="Trazado_127392" data-name="Trazado 127392" d="M530.63,148.275H681.694c-11.939,65.517,5.622,155.1,0,217.8H530.63c9.844-68.328-9.128-142.443,0-217.8Z" transform="translate(-528.069 -148.275)" fill="#fff" fill-rule="evenodd"/>
    <path id="Trazado_127393" data-name="Trazado 127393" d="M739.838,945.546H628.791c-1.944,0-3.514.653-3.514,1.463h0c0,.809,1.57,1.463,3.514,1.463H739.838c1.944,0,3.514-.654,3.514-1.463h0c0-.809-1.57-1.463-3.514-1.463Z" transform="translate(-608.7 -809.589)" fill="#8badda" fill-rule="evenodd"/>
    <path id="Trazado_127394" data-name="Trazado 127394" d="M767.336,1005.645H656.289c-1.944,0-3.539.664-3.539,1.462h0c0,.809,1.595,1.473,3.539,1.473H767.336c1.919,0,3.514-.664,3.514-1.473h0c0-.8-1.595-1.462-3.514-1.462Z" transform="translate(-631.488 -859.439)" fill="#8badda" fill-rule="evenodd"/>
    <path id="Trazado_127395" data-name="Trazado 127395" d="M758.938,1067.751h97.727c1.711,0,3.114.654,3.114,1.463h0c0,.8-1.4,1.463-3.114,1.463H758.938c-1.689,0-3.092-.664-3.092-1.463h0c0-.809,1.4-1.463,3.092-1.463Z" transform="translate(-717.003 -910.954)" fill="#8badda" fill-rule="evenodd"/>
    <path id="Trazado_127396" data-name="Trazado 127396" d="M891.188,285.393H812.927c-1.37,0-2.476.653-2.476,1.463h0c0,.809,1.106,1.463,2.476,1.463h78.261c1.37,0,2.477-.654,2.477-1.463h0c0-.809-1.107-1.463-2.477-1.463Z" transform="translate(-762.297 -262.01)" fill="#8badda" fill-rule="evenodd"/>
    <path id="Trazado_127397" data-name="Trazado 127397" d="M910.568,345.492H832.307c-1.37,0-2.494.664-2.494,1.463h0c0,.809,1.124,1.473,2.494,1.473h78.261c1.352,0,2.476-.664,2.476-1.473h0c0-.8-1.124-1.463-2.476-1.463Z" transform="translate(-778.357 -311.861)" fill="#8badda" fill-rule="evenodd"/>
    <path id="Trazado_127398" data-name="Trazado 127398" d="M904.65,407.6h68.873c1.206,0,2.195.654,2.195,1.463h0c0,.8-.989,1.462-2.195,1.462H904.65c-1.19,0-2.179-.664-2.179-1.462h0c0-.809.989-1.463,2.179-1.463Z" transform="translate(-838.625 -363.376)" fill="#8badda" fill-rule="evenodd"/>
    <path id="Trazado_127399" data-name="Trazado 127399" d="M648.811,1127.851H759.858c1.919,0,3.514.664,3.514,1.462h0c0,.809-1.595,1.463-3.514,1.463H648.811c-1.944,0-3.514-.653-3.514-1.463h0c0-.8,1.57-1.462,3.514-1.462Z" transform="translate(-625.306 -960.805)" fill="#8badda" fill-rule="evenodd"/>
    <path id="Trazado_127400" data-name="Trazado 127400" d="M749.577,1205.408H626.75a1.479,1.479,0,0,0-1.473,1.473h0a1.476,1.476,0,0,0,1.473,1.463H749.577a1.476,1.476,0,0,0,1.473-1.463h0a1.478,1.478,0,0,0-1.473-1.473Z" transform="translate(-608.7 -1025.137)" fill="#8badda" fill-rule="evenodd"/>
    <path id="Trazado_127401" data-name="Trazado 127401" d="M768.678,1265.568H645.84a1.461,1.461,0,0,0-1.463,1.463h0a1.461,1.461,0,0,0,1.463,1.463H768.678a1.467,1.467,0,0,0,1.462-1.463h0a1.467,1.467,0,0,0-1.462-1.463Z" transform="translate(-624.543 -1075.038)" fill="#8badda" fill-rule="evenodd"/>
    <rect id="Rectángulo_36025" data-name="Rectángulo 36025" width="35.512" height="9.667" transform="translate(15.941 69.837)" fill="#8dafdb"/>
    <rect id="Rectángulo_36026" data-name="Rectángulo 36026" width="35.512" height="9.667" transform="translate(20.422 85.308)" fill="#8dafdb"/>
    <rect id="Rectángulo_36027" data-name="Rectángulo 36027" width="35.512" height="9.667" transform="translate(23.539 101.568)" fill="#8dafdb"/>
    <rect id="Rectángulo_36028" data-name="Rectángulo 36028" width="35.512" height="9.667" transform="translate(16.526 117.039)" fill="#8dafdb"/>
    <rect id="Rectángulo_36029" data-name="Rectángulo 36029" width="69.311" height="9.667" transform="translate(60.19 69.837)" fill="#dfe4f2"/>
    <rect id="Rectángulo_36030" data-name="Rectángulo 36030" width="69.311" height="9.667" transform="translate(64.671 85.308)" fill="#dfe4f2"/>
    <rect id="Rectángulo_36031" data-name="Rectángulo 36031" width="69.311" height="9.667" transform="translate(67.788 101.568)" fill="#dfe4f2"/>
    <rect id="Rectángulo_36032" data-name="Rectángulo 36032" width="69.311" height="9.667" transform="translate(60.775 117.039)" fill="#dfe4f2"/>
    <g id="Grupo_93011" data-name="Grupo 93011" transform="translate(12.4 23.549)">
      <path id="Trazado_127402" data-name="Trazado 127402" d="M620.178,321.843a16.106,16.106,0,1,0-16.126-16.126,16.139,16.139,0,0,0,16.126,16.126Z" transform="translate(-603.495 -289.075)" fill="#fff" fill-rule="evenodd"/>
      <g id="Grupo_93010" data-name="Grupo 93010">
        <g id="Grupo_93007" data-name="Grupo 93007" transform="translate(26.377 3.667)">
          <g id="Grupo_93006" data-name="Grupo 93006">
            <path id="Trazado_127403" data-name="Trazado 127403" d="M761.889,316.789a.37.37,0,0,1-.348-.244,16.24,16.24,0,0,0-4.848-6.926.37.37,0,0,1,.474-.569,16.978,16.978,0,0,1,5.07,7.242.37.37,0,0,1-.221.475A.367.367,0,0,1,761.889,316.789Z" transform="translate(-756.374 -308.777)" fill="#84b2fe"/>
            <path id="Trazado_127404" data-name="Trazado 127404" d="M760.983,316.068a.559.559,0,0,1-.523-.367,16.051,16.051,0,0,0-4.792-6.846.557.557,0,1,1,.713-.856,17.168,17.168,0,0,1,5.126,7.321.557.557,0,0,1-.523.747Zm-4.959-7.825h-.017a.184.184,0,0,0-.1.324,16.43,16.43,0,0,1,4.9,7.005.186.186,0,0,0,.236.11.184.184,0,0,0,.11-.236,16.792,16.792,0,0,0-5.014-7.162A.183.183,0,0,0,756.024,308.243Z" transform="translate(-755.467 -307.87)" fill="#84b2fe"/>
          </g>
        </g>
        <g id="Grupo_93009" data-name="Grupo 93009">
          <g id="Grupo_93008" data-name="Grupo 93008">
            <path id="Trazado_127405" data-name="Trazado 127405" d="M618.377,320.412a16.476,16.476,0,1,1,7.886-30.948.37.37,0,0,1-.354.651,15.594,15.594,0,0,0-7.532-1.914,15.735,15.735,0,1,0,15.756,15.715,13.445,13.445,0,0,0-.4-3.366.37.37,0,0,1,.717-.186,14.187,14.187,0,0,1,.428,3.552A16.515,16.515,0,0,1,618.377,320.412Z" transform="translate(-601.694 -287.274)" fill="#84b2fe"/>
            <path id="Trazado_127406" data-name="Trazado 127406" d="M617.47,319.692a16.662,16.662,0,1,1,7.975-31.3.557.557,0,0,1-.532.978,15.41,15.41,0,0,0-7.443-1.891,15.549,15.549,0,1,0,15.57,15.528,13.262,13.262,0,0,0-.4-3.319.557.557,0,1,1,1.078-.279,14.371,14.371,0,0,1,.435,3.6A16.7,16.7,0,0,1,617.47,319.692Zm0-32.952a16.29,16.29,0,1,0,16.311,16.269,14,14,0,0,0-.423-3.5.184.184,0,0,0-.085-.113.182.182,0,0,0-.138-.019.184.184,0,0,0-.133.224,13.625,13.625,0,0,1,.411,3.412,15.942,15.942,0,1,1-15.943-15.9,15.779,15.779,0,0,1,7.621,1.936.184.184,0,1,0,.176-.323A16.14,16.14,0,0,0,617.47,286.74Z" transform="translate(-600.787 -286.367)" fill="#84b2fe"/>
          </g>
        </g>
      </g>
      <path id="Trazado_127407" data-name="Trazado 127407" d="M634.7,351.036l-6.917-3.667c-.333-.208-.417.167-.292.375l6.25,6.834a1.267,1.267,0,0,0,1.917,0c5.334-4.75,10.626-9.5,15.96-14.251a.222.222,0,0,0-.292-.333Z" transform="translate(-622.888 -330.811)" fill="#15489d" fill-rule="evenodd"/>
    </g>
  </g>
  <g id="Grupo_93021" data-name="Grupo 93021" transform="translate(8.77 132.014)">
    <g id="Grupo_93015" data-name="Grupo 93015" transform="translate(0 127.709)">
      <g id="Grupo_93013" data-name="Grupo 93013" transform="translate(110.732 16.873)">
        <rect id="Rectángulo_36033" data-name="Rectángulo 36033" width="75.33" height="12.807" fill="#2c7efe"/>
        <path id="Trazado_127408" data-name="Trazado 127408" d="M977.061,1755.849c2.589,0,4.706-1.425,4.706-3.186s-2.117-3.186-4.706-3.186-4.716,1.425-4.716,3.186,2.117,3.186,4.716,3.186Z" transform="translate(-939.396 -1746.26)" fill="#dfe6ff" fill-rule="evenodd"/>
      </g>
      <g id="Grupo_93014" data-name="Grupo 93014">
        <rect id="Rectángulo_36034" data-name="Rectángulo 36034" width="275.98" height="34.605" transform="translate(9.652 3.06)" fill="#dfcffd"/>
        <rect id="Rectángulo_36035" data-name="Rectángulo 36035" width="295.285" height="8.667" fill="#2c7efe"/>
        <rect id="Rectángulo_36036" data-name="Rectángulo 36036" width="75.33" height="12.807" transform="translate(21.673 16.873)" fill="#2c7efe"/>
        <path id="Trazado_127409" data-name="Trazado 127409" d="M454.807,1755.849c2.588,0,4.705-1.425,4.705-3.186s-2.117-3.186-4.705-3.186-4.716,1.425-4.716,3.186,2.117,3.186,4.716,3.186Z" transform="translate(-395.469 -1729.387)" fill="#fff" fill-rule="evenodd"/>
        <rect id="Rectángulo_36037" data-name="Rectángulo 36037" width="75.33" height="12.807" transform="translate(198.282 16.873)" fill="#2c7efe"/>
        <path id="Trazado_127410" data-name="Trazado 127410" d="M1490.515,1755.849c2.6,0,4.716-1.425,4.716-3.186s-2.117-3.186-4.716-3.186-4.706,1.425-4.706,3.186,2.117,3.186,4.706,3.186Z" transform="translate(-1254.568 -1729.387)" fill="#fff" fill-rule="evenodd"/>
      </g>
    </g>
    <g id="Grupo_93020" data-name="Grupo 93020" transform="translate(88.204)">
      <path id="Trazado_127411" data-name="Trazado 127411" d="M1051.834,1084.707h2.8a.282.282,0,0,1,.283.283h0a.282.282,0,0,1-.283.283h-2.8a.28.28,0,0,1-.272-.283h0a.28.28,0,0,1,.272-.283Z" transform="translate(-982.576 -1050.27)" fill="#e6e6e6" fill-rule="evenodd"/>
      <path id="Trazado_127412" data-name="Trazado 127412" d="M1051.834,1030.257h2.8a.282.282,0,0,1,.283.283h0a.28.28,0,0,1-.283.273h-2.8a.277.277,0,0,1-.272-.273h0a.28.28,0,0,1,.272-.283Z" transform="translate(-982.576 -1005.105)" fill="#e6e6e6" fill-rule="evenodd"/>
      <path id="Trazado_127413" data-name="Trazado 127413" d="M1051.834,980.662h2.8a.28.28,0,0,1,.283.272h0a.282.282,0,0,1-.283.283h-2.8a.28.28,0,0,1-.272-.283h0a.277.277,0,0,1,.272-.272Z" transform="translate(-982.576 -963.967)" fill="#e6e6e6" fill-rule="evenodd"/>
      <path id="Trazado_127414" data-name="Trazado 127414" d="M1051.834,924.614h2.8a.282.282,0,0,1,.283.283h0a.28.28,0,0,1-.283.272h-2.8a.277.277,0,0,1-.272-.272h0a.28.28,0,0,1,.272-.283Z" transform="translate(-982.576 -917.477)" fill="#39429a" fill-rule="evenodd"/>
      <rect id="Rectángulo_36038" data-name="Rectángulo 36038" width="27.164" height="10.962" transform="translate(51.547 112.482)" fill="#66f"/>
      <path id="Trazado_127415" data-name="Trazado 127415" d="M949.023,1236.75,981,1285.293H967.384L935.41,1236.75Z" transform="translate(-886.231 -1176.385)" fill="#ccf" fill-rule="evenodd"/>
      <rect id="Rectángulo_36039" data-name="Rectángulo 36039" width="86.229" height="23.349" transform="translate(15.276 101.897)" fill="#8183f1"/>
      <path id="Trazado_127416" data-name="Trazado 127416" d="M857.418,966.459a53.916,53.916,0,0,0-.367,7.671c-1.729-.8-3.574-1.016-4.265,1.467-1,4.569,3.857,14.829,7.42,14.819,1.174,3.186,6.7,8.573,8.08,11.077l7.326-1.247v.042l.21-.021.22.021v-.042l8.09,1.645c1.394-2.5,6.131-8.29,7.315-11.475,3.553.01,8.4-10.249,7.409-14.819-.681-2.484-2.536-2.264-4.265-1.467a52.43,52.43,0,0,0-.367-7.671l-18.288-5.523v-.063l-.115.031-.115-.031v.063Z" transform="translate(-817.587 -947.553)" fill="#f96" fill-rule="evenodd"/>
      <rect id="Rectángulo_36040" data-name="Rectángulo 36040" width="19.398" height="19.702" transform="translate(48.791 45.546)" fill="#f96"/>
      <path id="Trazado_127417" data-name="Trazado 127417" d="M847.768,905.725c2.138,13.729,6.864,24.45,12.44,30.455,3,2.148,11.151,1.719,16.726.859a81.832,81.832,0,0,0,12.021-35.611,9.362,9.362,0,0,0-5.156-4.716,18.454,18.454,0,0,0-1.708-9.443l-2.578,3.867c-3.427-3.437-7.5-6.225-14.368-8.374.073,2.222,1.069,4.936.21,6.655-9.862-1.719-18.445,5.146-21.882,14.159,1.436.713,2.861,1.425,4.3,2.148Z" transform="translate(-809.971 -882.763)" fill="#060352" fill-rule="evenodd"/>
      <path id="Trazado_127418" data-name="Trazado 127418" d="M676.758,1268.065c-4.884.367-19.556,30.182-29.334,45.274-2.63,4.087,8.279,13.739,12.041,9.285l16.548-16.338,1.121,18.56,29.323-.692,29.323.692,1.121-18.56,16.548,16.338c3.762,4.454,14.672-5.2,12.041-9.285-9.778-15.091-24.45-44.907-29.333-45.274-6.026-2.452-19.367-4.559-29.7-4.182-10.333-.377-23.674,1.729-29.7,4.182Z" transform="translate(-647.02 -1198.855)" fill="#dfcffd" fill-rule="evenodd"/>
      <path id="Trazado_127419" data-name="Trazado 127419" d="M948.2,1264.374a25.557,25.557,0,0,1-24.523,0,149.651,149.651,0,0,1,24.523,0Z" transform="translate(-876.495 -1198.843)" fill="#be96f8" fill-rule="evenodd"/>
      <g id="Grupo_93019" data-name="Grupo 93019" transform="translate(6.504 116.81)">
        <path id="Trazado_127420" data-name="Trazado 127420" d="M697.391,1567.752H778.8a12.264,12.264,0,0,1,12.23,12.23V1609.8a12.264,12.264,0,0,1-12.23,12.23H697.391a12.264,12.264,0,0,1-12.23-12.23v-29.816a12.264,12.264,0,0,1,12.23-12.23Z" transform="translate(-685.161 -1567.752)" fill="#0643a3" fill-rule="evenodd"/>
        <g id="Grupo_93016" data-name="Grupo 93016" transform="translate(33.106 17.816)">
          <path id="Trazado_127421" data-name="Trazado 127421" d="M918.955,1709.6H879.3v-14.976c0-12.349,8.9-22.4,19.828-22.4s19.828,10.047,19.828,22.4Zm-37.833-1.824h36.009v-13.152c0-11.344-8.077-20.572-18-20.572s-18,9.228-18,20.572Z" transform="translate(-879.298 -1672.225)" fill="#fff"/>
        </g>
        <g id="Grupo_93017" data-name="Grupo 93017" transform="translate(30.298 36.334)">
          <path id="Trazado_127422" data-name="Trazado 127422" d="M866.823,1788.8a3.988,3.988,0,1,0-3.993-3.982,4,4,0,0,0,3.993,3.982Z" transform="translate(-862.83 -1780.82)" fill="#fff" fill-rule="evenodd"/>
        </g>
        <g id="Grupo_93018" data-name="Grupo 93018" transform="translate(67.586 36.334)">
          <path id="Trazado_127423" data-name="Trazado 127423" d="M1085.484,1788.8a3.988,3.988,0,1,0-3.993-3.982,4,4,0,0,0,3.993,3.982Z" transform="translate(-1081.491 -1780.82)" fill="#fff" fill-rule="evenodd"/>
        </g>
      </g>
    </g>
  </g>
  <g id="Grupo_93024" data-name="Grupo 93024" transform="translate(234.248 37.092)">
    <g id="Grupo_93023" data-name="Grupo 93023" transform="translate(19.833 9.505)">
      <path id="Trazado_127424" data-name="Trazado 127424" d="M1571.044,381.871h14.085a2.734,2.734,0,0,1,2.727,2.726v27.5a2.733,2.733,0,0,1-2.727,2.726h-14.085a2.734,2.734,0,0,1-2.726-2.726V384.6a2.735,2.735,0,0,1,2.726-2.726Z" transform="translate(-1568.318 -381.871)" fill="#15489d"/>
      <rect id="Rectángulo_36041" data-name="Rectángulo 36041" width="16.907" height="25.325" transform="translate(1.316 3.87)" fill="#8dafdb"/>
      <path id="Trazado_127425" data-name="Trazado 127425" d="M1612.567,557.468h2.988a.883.883,0,0,1,.881.88h0a.883.883,0,0,1-.881.88h-2.988a.882.882,0,0,1-.879-.88h0a.882.882,0,0,1,.879-.88Z" transform="translate(-1604.292 -527.524)" fill="#fff"/>
      <path id="Trazado_127426" data-name="Trazado 127426" d="M1613.974,558.946h2.924a.63.63,0,0,1,.628.628h0a.629.629,0,0,1-.628.627h-2.924a.629.629,0,0,1-.628-.627h0a.63.63,0,0,1,.628-.628Z" transform="translate(-1605.667 -528.75)" fill="#15489d"/>
      <path id="Trazado_127427" data-name="Trazado 127427" d="M1581.727,463.761h3.03a.126.126,0,0,0,.125-.125v-2.227a.126.126,0,0,0-.125-.127h-3.03a.126.126,0,0,0-.125.127v2.227a.126.126,0,0,0,.125.125Z" transform="translate(-1579.337 -447.74)" fill="#fff"/>
      <path id="Trazado_127428" data-name="Trazado 127428" d="M1604.724,463.761h3.03a.126.126,0,0,0,.125-.125v-2.227a.126.126,0,0,0-.125-.127h-3.03a.126.126,0,0,0-.125.127v2.227a.126.126,0,0,0,.125.125Z" transform="translate(-1598.412 -447.74)" fill="#fff"/>
      <path id="Trazado_127429" data-name="Trazado 127429" d="M1627.5,463.761h3.03a.126.126,0,0,0,.125-.125v-2.227a.126.126,0,0,0-.125-.127h-3.03a.126.126,0,0,0-.127.127v2.227a.126.126,0,0,0,.127.125Z" transform="translate(-1617.302 -447.74)" fill="#fff"/>
      <path id="Trazado_127430" data-name="Trazado 127430" d="M1650.494,463.761h3.031a.126.126,0,0,0,.125-.125v-2.227a.126.126,0,0,0-.125-.127h-3.031a.126.126,0,0,0-.125.127v2.227a.126.126,0,0,0,.125.125Z" transform="translate(-1636.377 -447.74)" fill="#fff"/>
      <path id="Trazado_127431" data-name="Trazado 127431" d="M1581.727,481.732h3.03a.126.126,0,0,0,.125-.125v-2.228a.126.126,0,0,0-.125-.126h-3.03a.126.126,0,0,0-.125.126v2.228a.126.126,0,0,0,.125.125Z" transform="translate(-1579.337 -462.647)" fill="#fff"/>
      <path id="Trazado_127432" data-name="Trazado 127432" d="M1604.724,481.732h3.03a.126.126,0,0,0,.125-.125v-2.228a.126.126,0,0,0-.125-.126h-3.03a.126.126,0,0,0-.125.126v2.228a.126.126,0,0,0,.125.125Z" transform="translate(-1598.412 -462.647)" fill="#fff"/>
      <path id="Trazado_127433" data-name="Trazado 127433" d="M1627.5,481.732h3.03a.126.126,0,0,0,.125-.125v-2.228a.126.126,0,0,0-.125-.126h-3.03a.126.126,0,0,0-.127.126v2.228a.126.126,0,0,0,.127.125Z" transform="translate(-1617.302 -462.647)" fill="#fff"/>
      <path id="Trazado_127434" data-name="Trazado 127434" d="M1650.494,481.732h3.031a.126.126,0,0,0,.125-.125v-2.228a.126.126,0,0,0-.125-.126h-3.031a.126.126,0,0,0-.125.126v2.228a.126.126,0,0,0,.125.125Z" transform="translate(-1636.377 -462.647)" fill="#fff"/>
      <path id="Trazado_127435" data-name="Trazado 127435" d="M1581.727,498.852h3.03a.126.126,0,0,0,.125-.125V496.5a.126.126,0,0,0-.125-.126h-3.03a.126.126,0,0,0-.125.126v2.228a.126.126,0,0,0,.125.125Z" transform="translate(-1579.337 -476.847)" fill="#fff"/>
      <path id="Trazado_127436" data-name="Trazado 127436" d="M1604.724,498.852h3.03a.126.126,0,0,0,.125-.125V496.5a.126.126,0,0,0-.125-.126h-3.03a.126.126,0,0,0-.125.126v2.228a.126.126,0,0,0,.125.125Z" transform="translate(-1598.412 -476.847)" fill="#fff"/>
      <path id="Trazado_127437" data-name="Trazado 127437" d="M1627.5,498.852h3.03a.126.126,0,0,0,.125-.125V496.5a.126.126,0,0,0-.125-.126h-3.03a.126.126,0,0,0-.127.126v2.228a.126.126,0,0,0,.127.125Z" transform="translate(-1617.302 -476.847)" fill="#fff"/>
      <path id="Trazado_127438" data-name="Trazado 127438" d="M1650.494,498.852h3.031a.126.126,0,0,0,.125-.125V496.5a.126.126,0,0,0-.125-.126h-3.031a.126.126,0,0,0-.125.126v2.228a.126.126,0,0,0,.125.125Z" transform="translate(-1636.377 -476.847)" fill="#fff"/>
      <path id="Trazado_127439" data-name="Trazado 127439" d="M1581.727,516.982h3.03a.126.126,0,0,0,.125-.125v-2.228a.126.126,0,0,0-.125-.125h-3.03a.126.126,0,0,0-.125.125v2.228a.126.126,0,0,0,.125.125Z" transform="translate(-1579.337 -491.885)" fill="#fff"/>
      <path id="Trazado_127440" data-name="Trazado 127440" d="M1604.724,516.982h3.03a.126.126,0,0,0,.125-.125v-2.228a.126.126,0,0,0-.125-.125h-3.03a.126.126,0,0,0-.125.125v2.228a.126.126,0,0,0,.125.125Z" transform="translate(-1598.412 -491.885)" fill="#fff"/>
      <path id="Trazado_127441" data-name="Trazado 127441" d="M1627.5,516.982h3.03a.126.126,0,0,0,.125-.125v-2.228a.126.126,0,0,0-.125-.125h-3.03a.126.126,0,0,0-.127.125v2.228a.126.126,0,0,0,.127.125Z" transform="translate(-1617.302 -491.885)" fill="#fff"/>
      <path id="Trazado_127442" data-name="Trazado 127442" d="M1650.494,516.982h3.031a.126.126,0,0,0,.125-.125v-2.228a.126.126,0,0,0-.125-.125h-3.031a.126.126,0,0,0-.125.125v2.228a.126.126,0,0,0,.125.125Z" transform="translate(-1636.377 -491.885)" fill="#fff"/>
      <path id="Trazado_127443" data-name="Trazado 127443" d="M1581.727,535.1h3.03a.126.126,0,0,0,.125-.125v-2.227a.126.126,0,0,0-.125-.127h-3.03a.126.126,0,0,0-.125.127v2.227a.126.126,0,0,0,.125.125Z" transform="translate(-1579.337 -506.917)" fill="#fff"/>
      <path id="Trazado_127444" data-name="Trazado 127444" d="M1604.724,535.1h3.03a.126.126,0,0,0,.125-.125v-2.227a.126.126,0,0,0-.125-.127h-3.03a.126.126,0,0,0-.125.127v2.227a.126.126,0,0,0,.125.125Z" transform="translate(-1598.412 -506.917)" fill="#fff"/>
      <path id="Trazado_127445" data-name="Trazado 127445" d="M1627.5,535.1h3.03a.126.126,0,0,0,.125-.125v-2.227a.126.126,0,0,0-.125-.127h-3.03a.126.126,0,0,0-.127.127v2.227a.126.126,0,0,0,.127.125Z" transform="translate(-1617.302 -506.917)" fill="#fff"/>
      <path id="Trazado_127446" data-name="Trazado 127446" d="M1650.494,535.1h3.031a.126.126,0,0,0,.125-.125v-2.227a.126.126,0,0,0-.125-.127h-3.031a.126.126,0,0,0-.125.127v2.227a.126.126,0,0,0,.125.125Z" transform="translate(-1636.377 -506.917)" fill="#fff"/>
      <g id="Grupo_93022" data-name="Grupo 93022" transform="translate(3.292 13.923)">
        <path id="Trazado_127447" data-name="Trazado 127447" d="M1590.214,483.781h-.173v-1.108a.854.854,0,0,1-.165.121,1.165,1.165,0,0,1-.183.09v-.169a1.032,1.032,0,0,0,.254-.166.661.661,0,0,0,.155-.188h.112Z" transform="translate(-1589.34 -479.148)" fill="#15489d" fill-rule="evenodd"/>
        <path id="Trazado_127448" data-name="Trazado 127448" d="M1612.407,483.615v.166h-.937a.318.318,0,0,1,.021-.122.631.631,0,0,1,.116-.187,1.736,1.736,0,0,1,.227-.214,2,2,0,0,0,.311-.3.358.358,0,0,0,.081-.209.234.234,0,0,0-.074-.175.269.269,0,0,0-.193-.07.272.272,0,0,0-.2.075.284.284,0,0,0-.076.208l-.177-.018a.431.431,0,0,1,.138-.3.469.469,0,0,1,.321-.1.446.446,0,0,1,.322.112.371.371,0,0,1,.119.28.418.418,0,0,1-.034.167.634.634,0,0,1-.115.173,2.7,2.7,0,0,1-.268.248c-.1.089-.171.148-.2.178a.6.6,0,0,0-.074.095Z" transform="translate(-1607.403 -479.148)" fill="#15489d" fill-rule="evenodd"/>
        <path id="Trazado_127449" data-name="Trazado 127449" d="M1634.281,483.334l.173-.023a.387.387,0,0,0,.1.213.252.252,0,0,0,.176.065.281.281,0,0,0,.208-.085.289.289,0,0,0,.084-.21.265.265,0,0,0-.079-.2.269.269,0,0,0-.2-.078.475.475,0,0,0-.122.02l.018-.152.028,0a.36.36,0,0,0,.2-.058.2.2,0,0,0,.09-.178.213.213,0,0,0-.065-.159.231.231,0,0,0-.167-.061.236.236,0,0,0-.17.064.325.325,0,0,0-.086.192l-.175-.031a.454.454,0,0,1,.145-.272.42.42,0,0,1,.281-.1.463.463,0,0,1,.213.049.36.36,0,0,1,.149.135.349.349,0,0,1,.052.182.29.29,0,0,1-.049.166.339.339,0,0,1-.145.12.326.326,0,0,1,.194.119.366.366,0,0,1,.069.229.42.42,0,0,1-.134.315.481.481,0,0,1-.342.128.447.447,0,0,1-.31-.111.424.424,0,0,1-.14-.288Z" transform="translate(-1626.324 -479.088)" fill="#15489d" fill-rule="evenodd"/>
        <path id="Trazado_127450" data-name="Trazado 127450" d="M1588.966,500.91v-.338h-.614v-.16l.645-.916h.143v.916h.191v.16h-.191v.338Zm0-.5v-.637l-.444.637Z" transform="translate(-1588.228 -493.361)" fill="#15489d" fill-rule="evenodd"/>
        <path id="Trazado_127451" data-name="Trazado 127451" d="M1611.471,500.5l.182-.013a.323.323,0,0,0,.094.2.256.256,0,0,0,.178.068.278.278,0,0,0,.213-.095.359.359,0,0,0,.086-.251.324.324,0,0,0-.083-.235.285.285,0,0,0-.218-.086.307.307,0,0,0-.151.038.285.285,0,0,0-.106.1l-.164-.025.136-.727h.7v.166h-.563l-.075.381a.46.46,0,0,1,.267-.089.422.422,0,0,1,.311.128.45.45,0,0,1,.128.331.515.515,0,0,1-.112.331.446.446,0,0,1-.371.172.458.458,0,0,1-.315-.108.426.426,0,0,1-.139-.287Z" transform="translate(-1607.404 -493.342)" fill="#15489d" fill-rule="evenodd"/>
        <path id="Trazado_127452" data-name="Trazado 127452" d="M1635.169,499.754l-.171.015a.331.331,0,0,0-.066-.149.231.231,0,0,0-.175-.075.246.246,0,0,0-.148.047.387.387,0,0,0-.129.175.917.917,0,0,0-.05.326.408.408,0,0,1,.154-.142.418.418,0,0,1,.191-.046.393.393,0,0,1,.3.128.459.459,0,0,1,.123.331.546.546,0,0,1-.058.247.417.417,0,0,1-.159.175.43.43,0,0,1-.228.061.448.448,0,0,1-.354-.16.809.809,0,0,1-.137-.526.947.947,0,0,1,.151-.6.438.438,0,0,1,.357-.162.4.4,0,0,1,.274.095.39.39,0,0,1,.128.257Zm-.711.611a.4.4,0,0,0,.038.172.294.294,0,0,0,.106.124.271.271,0,0,0,.145.043.246.246,0,0,0,.189-.089.351.351,0,0,0,.079-.241.327.327,0,0,0-.077-.231.257.257,0,0,0-.2-.085.264.264,0,0,0-.2.085.3.3,0,0,0-.083.221Z" transform="translate(-1626.306 -493.283)" fill="#15489d" fill-rule="evenodd"/>
        <path id="Trazado_127453" data-name="Trazado 127453" d="M1588.539,517.842v-.166h.915v.135a1.928,1.928,0,0,0-.268.382,2.373,2.373,0,0,0-.205.491,1.852,1.852,0,0,0-.066.389h-.177a1.7,1.7,0,0,1,.065-.4,2.072,2.072,0,0,1,.179-.456,1.943,1.943,0,0,1,.249-.371Z" transform="translate(-1588.383 -508.441)" fill="#15489d" fill-rule="evenodd"/>
        <path id="Trazado_127454" data-name="Trazado 127454" d="M1611.762,518.193a.344.344,0,0,1-.161-.113.3.3,0,0,1-.051-.176.343.343,0,0,1,.111-.259.464.464,0,0,1,.593,0,.348.348,0,0,1,.113.262.288.288,0,0,1-.052.171.327.327,0,0,1-.156.113.381.381,0,0,1,.2.137.371.371,0,0,1,.068.225.408.408,0,0,1-.128.305.519.519,0,0,1-.674,0,.41.41,0,0,1-.128-.31.37.37,0,0,1,.07-.23.345.345,0,0,1,.2-.127Zm-.035-.3a.219.219,0,0,0,.064.164.25.25,0,0,0,.332,0,.207.207,0,0,0,.064-.155.22.22,0,0,0-.065-.161.222.222,0,0,0-.165-.065.229.229,0,0,0-.166.064.205.205,0,0,0-.064.152Zm-.058.653a.309.309,0,0,0,.034.144.247.247,0,0,0,.1.108.321.321,0,0,0,.15.038.288.288,0,0,0,.2-.491.282.282,0,0,0-.209-.082.273.273,0,0,0-.2.081.278.278,0,0,0-.08.2Z" transform="translate(-1607.422 -508.327)" fill="#15489d" fill-rule="evenodd"/>
        <path id="Trazado_127455" data-name="Trazado 127455" d="M1634.3,518.632l.166-.015a.281.281,0,0,0,.081.171.225.225,0,0,0,.154.053.266.266,0,0,0,.14-.037.281.281,0,0,0,.1-.1.572.572,0,0,0,.064-.166.824.824,0,0,0,.027-.212c0-.007,0-.02,0-.036a.4.4,0,0,1-.143.135.379.379,0,0,1-.194.052.392.392,0,0,1-.3-.128.465.465,0,0,1-.122-.336.476.476,0,0,1,.126-.346.425.425,0,0,1,.317-.132.446.446,0,0,1,.252.075.456.456,0,0,1,.174.212,1.042,1.042,0,0,1,.059.4,1.284,1.284,0,0,1-.059.432.49.49,0,0,1-.175.245.449.449,0,0,1-.272.085.4.4,0,0,1-.271-.092.4.4,0,0,1-.127-.26Zm.71-.625a.337.337,0,0,0-.08-.236.244.244,0,0,0-.19-.089.264.264,0,0,0-.2.095.352.352,0,0,0-.085.245.307.307,0,0,0,.08.219.268.268,0,0,0,.2.085.257.257,0,0,0,.2-.085.332.332,0,0,0,.077-.234Z" transform="translate(-1626.319 -508.327)" fill="#15489d" fill-rule="evenodd"/>
        <path id="Trazado_127456" data-name="Trazado 127456" d="M1611.522,536.384a1.3,1.3,0,0,1,.05-.4.5.5,0,0,1,.154-.236.388.388,0,0,1,.256-.082.428.428,0,0,1,.2.046.38.38,0,0,1,.143.133.713.713,0,0,1,.086.21,1.347,1.347,0,0,1,.032.334,1.33,1.33,0,0,1-.05.4.5.5,0,0,1-.154.236.429.429,0,0,1-.577-.063.935.935,0,0,1-.139-.576Zm.177,0a.887.887,0,0,0,.081.464.24.24,0,0,0,.2.116.237.237,0,0,0,.2-.116,1.348,1.348,0,0,0,0-.927.239.239,0,0,0-.2-.114.221.221,0,0,0-.19.1.89.89,0,0,0-.09.477Z" transform="translate(-1607.447 -523.359)" fill="#15489d" fill-rule="evenodd"/>
        <rect id="Rectángulo_36042" data-name="Rectángulo 36042" width="0.374" height="0.373" transform="translate(0.427 12.839)" fill="#15489d"/>
        <path id="Trazado_127457" data-name="Trazado 127457" d="M1588.617,465.164l.234.033a.6.6,0,0,1-.2.378.578.578,0,0,1-.39.136.6.6,0,0,1-.465-.189.761.761,0,0,1-.176-.541,1,1,0,0,1,.075-.4.531.531,0,0,1,.231-.257.688.688,0,0,1,.337-.085.584.584,0,0,1,.375.116.532.532,0,0,1,.187.331l-.231.034a.385.385,0,0,0-.118-.214.308.308,0,0,0-.2-.071.371.371,0,0,0-.294.129.617.617,0,0,0-.113.409.636.636,0,0,0,.109.413.354.354,0,0,0,.284.129.338.338,0,0,0,.235-.086.426.426,0,0,0,.12-.266Z" transform="translate(-1587.623 -464.116)" fill="#15489d" fill-rule="evenodd"/>
        <path id="Trazado_127458" data-name="Trazado 127458" d="M1609.985,465.236a1.625,1.625,0,0,1-.225-.393,1.233,1.233,0,0,1-.023-.874,1.752,1.752,0,0,1,.249-.45h.116q-.109.186-.144.266a1.5,1.5,0,0,0-.124.593,1.616,1.616,0,0,0,.268.86Zm.917,0h-.115a1.615,1.615,0,0,0,.267-.86,1.456,1.456,0,0,0-.038-.333,1.331,1.331,0,0,0-.085-.257c-.023-.054-.071-.143-.144-.268h.115a1.74,1.74,0,0,1,.248.45,1.243,1.243,0,0,1-.024.874,1.656,1.656,0,0,1-.224.393Z" transform="translate(-1605.909 -463.518)" fill="#15489d" fill-rule="evenodd"/>
        <path id="Trazado_127459" data-name="Trazado 127459" d="M1632.7,464.69a.411.411,0,0,1,.073-.248.25.25,0,0,1,.214-.1.281.281,0,0,1,.214.091.39.39,0,0,1,.084.269.384.384,0,0,1-.085.267.271.271,0,0,1-.21.093.263.263,0,0,1-.207-.092.4.4,0,0,1-.082-.278Zm.292-.235a.125.125,0,0,0-.1.054.335.335,0,0,0-.042.2.3.3,0,0,0,.042.183.127.127,0,0,0,.1.053.125.125,0,0,0,.1-.053.334.334,0,0,0,.042-.2.305.305,0,0,0-.042-.185.129.129,0,0,0-.1-.054Zm0,1.322.744-1.438h.136l-.741,1.438Zm.588-.37a.409.409,0,0,1,.074-.248.244.244,0,0,1,.214-.1.28.28,0,0,1,.213.091.385.385,0,0,1,.085.269.379.379,0,0,1-.086.267.271.271,0,0,1-.21.093.265.265,0,0,1-.207-.092.406.406,0,0,1-.082-.278Zm.293-.235a.126.126,0,0,0-.1.054.336.336,0,0,0-.042.2.3.3,0,0,0,.042.183.13.13,0,0,0,.209,0,.347.347,0,0,0,.041-.2.3.3,0,0,0-.042-.185.125.125,0,0,0-.1-.054Z" transform="translate(-1625.015 -464.2)" fill="#15489d" fill-rule="evenodd"/>
        <path id="Trazado_127460" data-name="Trazado 127460" d="M1654,466.35v-.159l.912-.387v.17l-.723.3.723.3v.171Zm1.13,0v-.159l.912-.387v.17l-.723.3.723.3v.171Z" transform="translate(-1642.684 -465.414)" fill="#15489d" fill-rule="evenodd"/>
        <path id="Trazado_127461" data-name="Trazado 127461" d="M1656.506,484.36l.464-.658-.429-.612h.265l.2.3c.038.055.068.1.087.138l.1-.139.212-.3h.263l-.433.612.46.658h-.262l-.262-.392-.06-.094-.339.486Z" transform="translate(-1644.76 -479.752)" fill="#15489d" fill-rule="evenodd"/>
        <rect id="Rectángulo_36043" data-name="Rectángulo 36043" width="0.74" height="0.24" transform="translate(11.972 6.722)" fill="#15489d"/>
        <path id="Trazado_127462" data-name="Trazado 127462" d="M1657.14,519.587v-.47h-.468v-.2h.468v-.466h.2v.466h.467v.2h-.467v.47Z" transform="translate(-1644.897 -509.086)" fill="#15489d" fill-rule="evenodd"/>
        <path id="Trazado_127463" data-name="Trazado 127463" d="M1635.5,537.272l.381-1.359h.13l-.382,1.359Z" transform="translate(-1627.335 -523.568)" fill="#15489d" fill-rule="evenodd"/>
        <path id="Trazado_127464" data-name="Trazado 127464" d="M1658,538.156h-1.034v-.18H1658Zm0,.476h-1.034v-.18H1658Z" transform="translate(-1645.137 -525.279)" fill="#15489d" fill-rule="evenodd"/>
      </g>
      <rect id="Rectángulo_36044" data-name="Rectángulo 36044" width="16.907" height="8.458" transform="translate(1.316 3.87)" fill="#fff"/>
      <path id="Trazado_127465" data-name="Trazado 127465" d="M1606.9,392.1h5.622c.252,0,.459.151.459.336h0c0,.185-.207.335-.459.335H1606.9c-.252,0-.457-.151-.457-.335h0c0-.185.205-.336.457-.336Z" transform="translate(-1599.937 -390.352)" fill="#071c3e"/>
    </g>
    <path id="Trazado_127466" data-name="Trazado 127466" d="M1476.26,326.154c7.038-.337,13.454,3.176,17.789,8.934a18.192,18.192,0,0,0-13.826-5.579c-7.466.386-13.677,5.567-16.684,12.831l4.406-.226-3.711,5.664-3.711,5.664-4.265-5.269-4.243-5.208,4.875-.255c2.908-9.283,10.334-16.059,19.37-16.556Z" transform="translate(-1452.015 -326.132)" fill-rule="evenodd" fill="url(#linear-gradient-2)"/>
    <path id="Trazado_127467" data-name="Trazado 127467" d="M1568.5,499.248c-7.042.234-13.406-3.373-17.656-9.193a18.383,18.383,0,0,0,13.743,5.78c7.47-.277,13.757-5.366,16.829-12.606l-4.368.182,3.793-5.61,3.794-5.61,4.146,5.31,4.207,5.29-4.878.184c-3.043,9.24-10.568,15.907-19.61,16.271Z" transform="translate(-1533.994 -447.284)" fill-rule="evenodd" fill="url(#linear-gradient-3)"/>
  </g>
  <g id="Grupo_93026" data-name="Grupo 93026" transform="translate(17.136 58.981)">
    <path id="Trazado_127468" data-name="Trazado 127468" d="M181.183,476.025H219.52a2.35,2.35,0,0,1,2.343,2.343V515.18a2.35,2.35,0,0,1-2.343,2.343H181.183a2.35,2.35,0,0,1-2.343-2.343V478.368a2.35,2.35,0,0,1,2.343-2.343Z" transform="translate(-178.84 -472.353)" fill="#fff" fill-rule="evenodd"/>
    <path id="Trazado_127469" data-name="Trazado 127469" d="M180.728,476.025h39.247a1.992,1.992,0,0,1,1.887,2.073v6.287H178.84V478.1a1.994,1.994,0,0,1,1.888-2.073Z" transform="translate(-178.84 -472.353)" fill="#2c7efe" fill-rule="evenodd"/>
    <path id="Trazado_127470" data-name="Trazado 127470" d="M230.5,493.92a1.324,1.324,0,1,0-1.322-1.324,1.327,1.327,0,0,0,1.322,1.324Z" transform="translate(-220.593 -484.999)" fill="#0643a3" fill-rule="evenodd"/>
    <path id="Trazado_127471" data-name="Trazado 127471" d="M213.511,454.491a4.285,4.285,0,0,1,4.241,3.67h-1.993a2.329,2.329,0,1,0-2.268,2.942c1.905.1,1.558,1.98,0,1.957a4.284,4.284,0,0,1,.021-8.568Z" transform="translate(-204.045 -454.491)" fill-rule="evenodd" fill="url(#linear-gradient-4)"/>
    <path id="Trazado_127472" data-name="Trazado 127472" d="M300.865,493.92a1.324,1.324,0,1,0-1.324-1.324,1.327,1.327,0,0,0,1.324,1.324Z" transform="translate(-278.958 -484.999)" fill="#0643a3" fill-rule="evenodd"/>
    <path id="Trazado_127473" data-name="Trazado 127473" d="M283.889,454.491a4.28,4.28,0,0,1,4.238,3.67h-1.993a2.329,2.329,0,1,0-2.266,2.942c1.9.1,1.558,1.98,0,1.957a4.284,4.284,0,0,1,.021-8.568Z" transform="translate(-262.422 -454.491)" fill-rule="evenodd" fill="url(#linear-gradient-5)"/>
    <path id="Trazado_127474" data-name="Trazado 127474" d="M372.027,493.92A1.324,1.324,0,1,0,370.7,492.6a1.327,1.327,0,0,0,1.324,1.324Z" transform="translate(-337.985 -484.999)" fill="#0643a3" fill-rule="evenodd"/>
    <path id="Trazado_127475" data-name="Trazado 127475" d="M355.036,454.491a4.285,4.285,0,0,1,4.241,3.67h-1.993a2.329,2.329,0,1,0-2.268,2.942c1.905.1,1.558,1.98,0,1.957a4.284,4.284,0,0,1,.02-8.568Z" transform="translate(-321.436 -454.491)" fill-rule="evenodd" fill="url(#linear-gradient-4)"/>
    <path id="Trazado_127476" data-name="Trazado 127476" d="M196.581,534.371h28.966a4.766,4.766,0,0,1,4.833,4.674v20.738a4.772,4.772,0,0,1-4.833,4.674H196.581a4.765,4.765,0,0,1-4.825-4.674V539.045a4.76,4.76,0,0,1,4.825-4.674Z" transform="translate(-189.553 -520.749)" fill="#2c7efe" fill-rule="evenodd"/>
    <g id="Grupo_93025" data-name="Grupo 93025" transform="translate(2.911 14.359)">
      <path id="Trazado_127477" data-name="Trazado 127477" d="M201.027,539.132h.237a.065.065,0,0,1,.056.068.062.062,0,0,1-.056.06h-.349c-.035,0-.056-.022-.063-.06a.065.065,0,0,1,.063-.068h.112Zm-.712.053a.063.063,0,0,1,.07.053.067.067,0,0,1-.049.075h0l-.056.007-.056.008-.056.007-.056.015h-.007a.058.058,0,0,1-.07-.053.065.065,0,0,1,.049-.075h.007l.056-.008.056-.015.056-.008.056-.008Zm-.817.2a.056.056,0,0,1,.077.037c.007.038-.007.075-.035.083l-.028.008-.049.015-.056.023-.049.023-.042.015a.065.065,0,0,1-.077-.038.062.062,0,0,1,.035-.083l.042-.015.056-.023.056-.023.049-.015Zm-.775.338a.06.06,0,0,1,.084.022.072.072,0,0,1-.028.09l-.021.008-.049.03-.042.023-.049.03-.042.03a.062.062,0,0,1-.084-.023.073.073,0,0,1,.021-.09l.049-.03.049-.023.049-.03.049-.03Zm-.7.473a.056.056,0,0,1,.084.015.075.075,0,0,1-.014.09l-.042.03-.042.037-.042.03-.042.038-.014.015a.054.054,0,0,1-.084-.007.065.065,0,0,1,.007-.09l.021-.015.042-.038.042-.037.042-.03Zm-.621.609a.054.054,0,0,1,.084-.008.065.065,0,0,1,0,.09l-.007.007-.035.045-.028.038-.035.045-.035.038-.007.015a.056.056,0,0,1-.084.015.075.075,0,0,1-.014-.09l.014-.015.035-.045.035-.045.035-.037.035-.045Zm-.5.721a.064.064,0,0,1,.084-.023.073.073,0,0,1,.021.09l-.007.008-.021.045-.028.045-.028.045-.021.053-.007.023a.064.064,0,0,1-.084.023.065.065,0,0,1-.028-.083l.014-.023.028-.053.021-.045.028-.053.028-.045Zm-.349.819a.056.056,0,0,1,.077-.038.063.063,0,0,1,.035.075l-.014.053-.014.053-.014.052-.014.045-.014.037a.053.053,0,0,1-.07.045.067.067,0,0,1-.042-.075l.007-.038.014-.053.014-.052.021-.053Zm-.174.886a.055.055,0,0,1,.063-.06.065.065,0,0,1,.056.068l-.007.045-.007.06v.105l-.007.038a.065.065,0,0,1-.056.068.077.077,0,0,1-.063-.068l.007-.038v-.12l.007-.053Zm-.021.894a.06.06,0,1,1,.119,0v.255a.063.063,0,0,1-.056.06.063.063,0,0,1-.063-.06Zm0,.887a.064.064,0,0,1,.063-.06.063.063,0,0,1,.056.06v.255a.06.06,0,1,1-.119,0Zm0,.894a.06.06,0,1,1,.119,0v.255a.063.063,0,0,1-.056.06.063.063,0,0,1-.063-.06Zm0,.887a.064.064,0,0,1,.063-.06.063.063,0,0,1,.056.06v.255a.06.06,0,1,1-.119,0Zm0,.894a.06.06,0,1,1,.119,0v.255a.063.063,0,0,1-.056.06.064.064,0,0,1-.063-.06Zm0,.887a.064.064,0,0,1,.063-.06.063.063,0,0,1,.056.06v.255a.06.06,0,1,1-.119,0Zm0,.894a.06.06,0,1,1,.119,0v.255a.063.063,0,0,1-.056.06.064.064,0,0,1-.063-.06Zm0,.887a.063.063,0,0,1,.063-.06.062.062,0,0,1,.056.06v.255a.06.06,0,1,1-.119,0Zm0,.894a.06.06,0,1,1,.119,0v.256a.063.063,0,0,1-.056.06.063.063,0,0,1-.063-.06Zm0,.887a.063.063,0,0,1,.063-.06.063.063,0,0,1,.056.06v.255a.06.06,0,1,1-.119,0Zm0,.894a.06.06,0,1,1,.119,0v.255a.062.062,0,0,1-.056.06.063.063,0,0,1-.063-.06Zm0,.886a.063.063,0,0,1,.063-.06.062.062,0,0,1,.056.06v.255a.06.06,0,1,1-.119,0Zm0,.894a.06.06,0,1,1,.119,0v.255a.063.063,0,0,1-.056.06.063.063,0,0,1-.063-.06Zm0,.886a.063.063,0,0,1,.063-.06.063.063,0,0,1,.056.06v.255a.06.06,0,1,1-.119,0Zm0,.894a.06.06,0,1,1,.119,0v.255a.063.063,0,0,1-.056.06.063.063,0,0,1-.063-.06Zm0,.886a.063.063,0,0,1,.063-.06.063.063,0,0,1,.056.06v.255a.06.06,0,1,1-.119,0Zm0,.894a.06.06,0,1,1,.119,0v.255a.063.063,0,0,1-.056.06.064.064,0,0,1-.063-.06Zm0,.887a.063.063,0,0,1,.063-.06.062.062,0,0,1,.056.06v.255a.06.06,0,1,1-.119,0Zm0,.894a.06.06,0,1,1,.119,0v.255a.063.063,0,0,1-.056.06.064.064,0,0,1-.063-.06Zm0,.887a.064.064,0,0,1,.063-.06.063.063,0,0,1,.056.06v.255a.06.06,0,1,1-.119,0Zm0,.894a.06.06,0,1,1,.119,0v.255a.063.063,0,0,1-.056.06.064.064,0,0,1-.063-.06Zm0,.887a.063.063,0,0,1,.063-.06.062.062,0,0,1,.056.06v.255a.06.06,0,1,1-.119,0Zm.028.9a.072.072,0,0,1,.056-.075.068.068,0,0,1,.063.06v.015l.007.052.007.053.014.06.007.053v.015a.067.067,0,0,1-.042.075.07.07,0,0,1-.07-.053l-.007-.015-.007-.06-.007-.053-.007-.053-.007-.06Zm.2.879a.058.058,0,0,1,.035-.083.048.048,0,0,1,.07.038l.007.008.014.052.021.045.021.053.014.053.014.023a.062.062,0,0,1-.035.083.057.057,0,0,1-.077-.03l-.007-.03-.021-.045-.021-.053-.014-.053-.021-.053Zm.37.8a.057.057,0,0,1,.014-.083.055.055,0,0,1,.084.015l.028.045.028.045.028.045.028.045.014.03a.072.072,0,0,1-.007.09.055.055,0,0,1-.084-.015l-.021-.03-.028-.045-.028-.045-.035-.053Zm.517.714a.059.059,0,0,1,0-.09.06.06,0,0,1,.084,0l.028.038.042.038.035.045.035.037.021.023a.065.065,0,0,1,.007.09.06.06,0,0,1-.084,0l-.028-.023-.035-.037-.035-.045-.042-.037Zm.628.594a.065.065,0,0,1-.014-.09.056.056,0,0,1,.084-.015l.007.008.042.03.042.03.049.038.042.03.007.007a.063.063,0,0,1,.021.083.064.064,0,0,1-.084.023l-.007-.008-.049-.03-.042-.038-.049-.03-.042-.037Zm.719.458a.065.065,0,0,1-.028-.083.061.061,0,0,1,.077-.038l.042.023.049.03.049.022.049.023.028.008a.065.065,0,0,1,.028.083.054.054,0,0,1-.077.038l-.021-.015-.056-.023-.049-.022-.049-.023Zm.782.323a.069.069,0,0,1-.042-.083.061.061,0,0,1,.07-.045l.049.015.056.015.056.015.049.015.021.008a.063.063,0,0,1,.042.075.058.058,0,0,1-.07.045h-.021l-.056-.015-.056-.015-.049-.023Zm.817.173a.059.059,0,0,1-.049-.068.063.063,0,0,1,.063-.06l.021.008.056.008h.056l.063.008h.042a.064.064,0,0,1,.049.068.055.055,0,0,1-.063.06h-.042l-.056-.008-.063-.008-.056-.008Zm.838.037a.063.063,0,0,1-.063-.06.065.065,0,0,1,.063-.068h.23a.065.065,0,0,1,.063.068.064.064,0,0,1-.063.06Zm.824,0a.057.057,0,0,1-.056-.06c0-.037.021-.068.056-.068h.237c.035,0,.056.03.056.068a.057.057,0,0,1-.056.06Zm.831,0a.063.063,0,0,1-.063-.06.065.065,0,0,1,.063-.068h.23a.065.065,0,0,1,.063.068.064.064,0,0,1-.063.06Zm.824,0a.057.057,0,0,1-.056-.06c0-.037.021-.068.056-.068h.237c.035,0,.056.03.056.068a.057.057,0,0,1-.056.06Zm.831,0a.063.063,0,0,1-.063-.06.065.065,0,0,1,.063-.068h.23a.065.065,0,0,1,.063.068.064.064,0,0,1-.063.06Zm.824,0a.057.057,0,0,1-.056-.06c0-.037.021-.068.056-.068h.237c.035,0,.056.03.056.068a.057.057,0,0,1-.056.06Zm.831,0a.063.063,0,0,1-.063-.06.065.065,0,0,1,.063-.068h.23a.065.065,0,0,1,.063.068.063.063,0,0,1-.063.06Zm.824,0a.057.057,0,0,1-.056-.06c0-.037.021-.068.056-.068h.237c.035,0,.056.03.056.068a.057.057,0,0,1-.056.06Zm.831,0a.063.063,0,0,1-.063-.06.065.065,0,0,1,.063-.068h.237a.064.064,0,0,1,.056.068.062.062,0,0,1-.056.06Zm.824,0a.057.057,0,0,1-.056-.06c0-.037.021-.068.056-.068h.237c.035,0,.056.03.056.068a.057.057,0,0,1-.056.06Zm.831,0a.063.063,0,0,1-.063-.06.065.065,0,0,1,.063-.068h.237a.064.064,0,0,1,.056.068.062.062,0,0,1-.056.06Zm.824,0a.062.062,0,0,1-.056-.06.064.064,0,0,1,.056-.068h.237a.065.065,0,0,1,.063.068.063.063,0,0,1-.063.06Zm.831,0a.063.063,0,0,1-.063-.06.065.065,0,0,1,.063-.068h.237a.064.064,0,0,1,.056.068.062.062,0,0,1-.056.06Zm.824,0a.062.062,0,0,1-.056-.06.064.064,0,0,1,.056-.068h.237a.065.065,0,0,1,.063.068.063.063,0,0,1-.063.06Zm.831,0a.063.063,0,0,1-.063-.06.065.065,0,0,1,.063-.068h.237a.064.064,0,0,1,.056.068.062.062,0,0,1-.056.06Zm.824,0a.062.062,0,0,1-.056-.06.064.064,0,0,1,.056-.068h.237a.065.065,0,0,1,.063.068.063.063,0,0,1-.063.06Zm.831,0a.063.063,0,0,1-.063-.06.065.065,0,0,1,.063-.068h.237a.064.064,0,0,1,.056.068.062.062,0,0,1-.056.06Zm.824,0a.062.062,0,0,1-.056-.06.064.064,0,0,1,.056-.068h.237a.065.065,0,0,1,.063.068.063.063,0,0,1-.063.06h-.237Zm.831,0a.063.063,0,0,1-.063-.06.065.065,0,0,1,.063-.068h.237a.064.064,0,0,1,.056.068.062.062,0,0,1-.056.06Zm.824,0a.062.062,0,0,1-.056-.06.064.064,0,0,1,.056-.068h.237a.065.065,0,0,1,.063.068.063.063,0,0,1-.063.06Zm.831,0a.063.063,0,0,1-.063-.06.065.065,0,0,1,.063-.068h.237a.064.064,0,0,1,.056.068.062.062,0,0,1-.056.06Zm.824,0a.062.062,0,0,1-.056-.06.064.064,0,0,1,.056-.068h.237a.065.065,0,0,1,.063.068.063.063,0,0,1-.063.06Zm.831,0a.063.063,0,0,1-.063-.06.065.065,0,0,1,.063-.068h.237a.065.065,0,0,1,.056.068.062.062,0,0,1-.056.06Zm.824,0a.062.062,0,0,1-.056-.06.064.064,0,0,1,.056-.068h.237a.065.065,0,0,1,.063.068.063.063,0,0,1-.063.06Zm.831,0a.063.063,0,0,1-.063-.06.065.065,0,0,1,.063-.068h.237a.065.065,0,0,1,.056.068.062.062,0,0,1-.056.06Zm.824,0a.062.062,0,0,1-.056-.06.064.064,0,0,1,.056-.068h.237a.065.065,0,0,1,.063.068.063.063,0,0,1-.063.06Zm.831,0a.063.063,0,0,1-.063-.06.065.065,0,0,1,.063-.068h.237a.065.065,0,0,1,.056.068.062.062,0,0,1-.056.06Zm.824,0a.062.062,0,0,1-.056-.06.064.064,0,0,1,.056-.068h.237a.065.065,0,0,1,.063.068.063.063,0,0,1-.063.06Zm.831,0a.063.063,0,0,1-.063-.06.065.065,0,0,1,.063-.068h.237a.065.065,0,0,1,.056.068.062.062,0,0,1-.056.06Zm.824,0a.062.062,0,0,1-.056-.06.065.065,0,0,1,.056-.068h.237a.065.065,0,0,1,.063.068.063.063,0,0,1-.063.06Zm.831,0a.064.064,0,0,1-.063-.06.065.065,0,0,1,.063-.068h.237a.065.065,0,0,1,.056.068.062.062,0,0,1-.056.06Zm.824,0a.062.062,0,0,1-.056-.06.065.065,0,0,1,.056-.068h.237a.065.065,0,0,1,.063.068.063.063,0,0,1-.063.06Zm.831,0a.063.063,0,0,1-.063-.06.065.065,0,0,1,.063-.068h.237a.065.065,0,0,1,.056.068.062.062,0,0,1-.056.06Zm.824,0a.062.062,0,0,1-.056-.06.064.064,0,0,1,.056-.068h.237a.065.065,0,0,1,.063.068.063.063,0,0,1-.063.06h-.237Zm.838-.045a.058.058,0,0,1-.07-.053c0-.03.021-.068.056-.068l.049-.008.063-.015.056-.008.056-.008h.007a.052.052,0,0,1,.063.053c.007.03-.014.068-.042.068l-.014.008-.056.008-.056.007-.056.008Zm.817-.18a.066.066,0,0,1-.077-.045.067.067,0,0,1,.042-.075l.021-.008.056-.023.049-.015.056-.023.042-.015a.066.066,0,0,1,.077.045.063.063,0,0,1-.035.075l-.049.015-.049.022-.056.015-.056.023Zm.782-.331a.057.057,0,0,1-.084-.03.065.065,0,0,1,.028-.083l.021-.008.049-.03.049-.022.049-.03.042-.022a.049.049,0,0,1,.077.022.063.063,0,0,1-.021.083l-.042.03-.049.023-.049.03-.049.03Zm.712-.466a.055.055,0,0,1-.084-.015.066.066,0,0,1,.014-.09h0l.042-.03.042-.038.042-.03.042-.038.014-.015a.06.06,0,0,1,.084.008.065.065,0,0,1-.007.09l-.014.015-.042.038-.042.038-.042.03-.049.037Zm.628-.593a.06.06,0,0,1-.084,0,.064.064,0,0,1-.007-.09l.014-.015.035-.037.035-.038.035-.045.028-.038.007-.015a.061.061,0,0,1,.084-.008.065.065,0,0,1,.014.09l-.014.008-.035.045-.035.045-.035.038-.035.045Zm.51-.721a.057.057,0,0,1-.084.023.063.063,0,0,1-.021-.083l.007-.015.028-.045.028-.045.021-.053.028-.045.007-.015a.057.057,0,0,1,.077-.03.066.066,0,0,1,.028.09l-.007.015-.028.053-.028.045-.021.045-.028.053Zm.363-.811a.055.055,0,0,1-.077.038.058.058,0,0,1-.035-.083h0l.014-.053.014-.045.021-.053.014-.052.007-.03a.056.056,0,0,1,.07-.045.061.061,0,0,1,.042.075l-.007.038-.014.053-.021.052-.014.053-.014.053Zm.188-.879a.058.058,0,0,1-.07.052.055.055,0,0,1-.049-.068l.007-.053v-.053l.007-.053v-.06l.007-.03a.057.057,0,0,1,.056-.06.056.056,0,0,1,.056.068v.09l-.007.06-.007.053Zm.021-.894a.062.062,0,0,1-.056.06.063.063,0,0,1-.063-.06v-.255a.06.06,0,1,1,.119,0Zm0-.894a.06.06,0,1,1-.119,0v-.255a.064.064,0,0,1,.063-.06.062.062,0,0,1,.056.06Zm0-.886a.062.062,0,0,1-.056.06.063.063,0,0,1-.063-.06v-.255a.06.06,0,1,1,.119,0Zm0-.894a.06.06,0,1,1-.119,0v-.255a.063.063,0,0,1,.063-.06.062.062,0,0,1,.056.06Zm0-.887a.063.063,0,0,1-.056.06.064.064,0,0,1-.063-.06v-.255a.06.06,0,1,1,.119,0Zm0-.894a.06.06,0,1,1-.119,0v-.255a.064.064,0,0,1,.063-.06.062.062,0,0,1,.056.06Zm0-.887a.063.063,0,0,1-.056.06.064.064,0,0,1-.063-.06v-.255a.06.06,0,1,1,.119,0Zm0-.894a.06.06,0,1,1-.119,0v-.255a.064.064,0,0,1,.063-.06.063.063,0,0,1,.056.06Zm0-.887a.063.063,0,0,1-.056.06.064.064,0,0,1-.063-.06V555.4a.06.06,0,1,1,.119,0Zm0-.894a.06.06,0,1,1-.119,0V554.5a.064.064,0,0,1,.063-.06.063.063,0,0,1,.056.06Zm0-.886a.062.062,0,0,1-.056.06.064.064,0,0,1-.063-.06v-.255a.06.06,0,1,1,.119,0Zm0-.894a.06.06,0,1,1-.119,0v-.255a.064.064,0,0,1,.063-.06.063.063,0,0,1,.056.06Zm0-.886a.062.062,0,0,1-.056.06.063.063,0,0,1-.063-.06v-.255a.06.06,0,1,1,.119,0Zm0-.894a.06.06,0,1,1-.119,0v-.255a.063.063,0,0,1,.063-.06.062.062,0,0,1,.056.06Zm0-.886a.062.062,0,0,1-.056.06.063.063,0,0,1-.063-.06v-.255a.06.06,0,1,1,.119,0Zm0-.894a.057.057,0,0,1-.056.06.059.059,0,0,1-.063-.06v-.255a.059.059,0,0,1,.063-.06.057.057,0,0,1,.056.06Zm0-.886a.062.062,0,0,1-.056.06.063.063,0,0,1-.063-.06v-.255a.06.06,0,1,1,.119,0Zm0-.894a.057.057,0,0,1-.056.06.059.059,0,0,1-.063-.06v-.255a.059.059,0,0,1,.063-.06.057.057,0,0,1,.056.06Zm0-.894a.06.06,0,1,1-.119,0v-.248a.06.06,0,1,1,.119,0Zm0-.886a.057.057,0,0,1-.056.06.059.059,0,0,1-.063-.06V545.6a.059.059,0,0,1,.063-.06.057.057,0,0,1,.056.06Zm0-.894a.06.06,0,1,1-.119,0v-.248a.06.06,0,1,1,.119,0Zm0-.886a.057.057,0,0,1-.056.06.059.059,0,0,1-.063-.06v-.255a.059.059,0,0,1,.063-.06.057.057,0,0,1,.056.06Zm-.021-.894a.07.07,0,0,1-.056.068c-.028.008-.056-.023-.063-.053v-.023l-.007-.06-.007-.053-.007-.053-.007-.053-.007-.007a.074.074,0,0,1,.049-.075.058.058,0,0,1,.07.045v.015l.014.053.007.06.007.053.007.06Zm-.188-.886a.058.058,0,0,1-.035.083c-.028.015-.063-.008-.077-.038v-.015l-.021-.053-.014-.045-.021-.053-.014-.053-.007-.015a.065.065,0,0,1,.028-.083.057.057,0,0,1,.077.03l.007.023.021.053.021.053.014.045.021.052Zm-.356-.811a.075.075,0,0,1-.021.09.054.054,0,0,1-.077-.023l-.007-.008-.028-.045-.021-.045-.028-.045-.028-.045-.021-.022a.085.085,0,0,1,.014-.09.056.056,0,0,1,.084.015l.021.03.028.045.028.045.028.045.028.053Zm-.51-.721a.064.064,0,0,1,0,.09.054.054,0,0,1-.084,0h0l-.035-.038-.035-.045-.035-.038-.042-.037-.014-.023a.064.064,0,0,1-.007-.09.06.06,0,0,1,.084,0l.021.023.042.037.035.038.035.045.035.038Zm-.621-.593a.063.063,0,0,1,.014.083.055.055,0,0,1-.084.015l-.014-.008-.042-.03-.042-.038-.042-.03-.042-.03-.014-.007a.071.071,0,0,1-.014-.09.055.055,0,0,1,.084-.015l.007.008.042.03.049.03.042.038.042.03Zm-.719-.473a.059.059,0,0,1,.028.083.052.052,0,0,1-.077.03l-.042-.023-.049-.023-.049-.023-.049-.022-.021-.015a.062.062,0,0,1-.035-.083.057.057,0,0,1,.077-.03l.028.008.049.023.049.03.056.023Zm-.775-.33a.065.065,0,0,1,.042.083.056.056,0,0,1-.077.038l-.042-.015-.056-.015-.056-.015-.049-.015h-.021a.077.077,0,0,1-.042-.083.058.058,0,0,1,.07-.045l.021.007.056.015.056.015.049.015Zm-.817-.188a.062.062,0,0,1,.049.075.056.056,0,0,1-.063.052h-.021l-.056-.007-.056-.008-.056-.008h-.042a.066.066,0,0,1-.056-.075.053.053,0,0,1,.063-.053h.042l.063.008.056.007.056.008Zm-.831-.045a.065.065,0,0,1,.056.068.062.062,0,0,1-.056.06h-.237a.063.063,0,0,1-.063-.06.065.065,0,0,1,.063-.068Zm-.831,0a.065.065,0,0,1,.063.068.063.063,0,0,1-.063.06H227.5a.062.062,0,0,1-.056-.06.065.065,0,0,1,.056-.068Zm-.824,0a.065.065,0,0,1,.056.068.062.062,0,0,1-.056.06h-.237a.063.063,0,0,1-.063-.06.065.065,0,0,1,.063-.068Zm-.831,0a.065.065,0,0,1,.063.068.063.063,0,0,1-.063.06h-.237a.062.062,0,0,1-.056-.06.065.065,0,0,1,.056-.068Zm-.824,0a.065.065,0,0,1,.056.068.062.062,0,0,1-.056.06h-.237a.063.063,0,0,1-.063-.06.065.065,0,0,1,.063-.068Zm-.831,0a.065.065,0,0,1,.063.068.063.063,0,0,1-.063.06h-.237a.062.062,0,0,1-.056-.06.065.065,0,0,1,.056-.068Zm-.824,0a.065.065,0,0,1,.056.068.062.062,0,0,1-.056.06h-.237a.063.063,0,0,1-.063-.06.065.065,0,0,1,.063-.068Zm-.831,0a.065.065,0,0,1,.063.068.063.063,0,0,1-.063.06h-.237a.062.062,0,0,1-.056-.06.065.065,0,0,1,.056-.068Zm-.824,0a.065.065,0,0,1,.056.068.062.062,0,0,1-.056.06h-.237a.063.063,0,0,1-.063-.06.065.065,0,0,1,.063-.068Zm-.831,0a.065.065,0,0,1,.063.068.063.063,0,0,1-.063.06h-.237a.062.062,0,0,1-.056-.06.065.065,0,0,1,.056-.068Zm-.824,0a.065.065,0,0,1,.056.068.062.062,0,0,1-.056.06h-.237a.063.063,0,0,1-.063-.06.065.065,0,0,1,.063-.068Zm-.831,0a.065.065,0,0,1,.063.068.063.063,0,0,1-.063.06h-.237a.062.062,0,0,1-.056-.06.065.065,0,0,1,.056-.068Zm-.824,0a.065.065,0,0,1,.056.068.062.062,0,0,1-.056.06H218.4a.063.063,0,0,1-.063-.06.065.065,0,0,1,.063-.068Zm-.831,0c.035,0,.056.03.056.068a.057.057,0,0,1-.056.06h-.237a.057.057,0,0,1-.056-.06c0-.038.021-.068.056-.068Zm-.824,0a.065.065,0,0,1,.056.068.062.062,0,0,1-.056.06h-.237a.063.063,0,0,1-.063-.06.065.065,0,0,1,.063-.068Zm-.831,0c.035,0,.056.03.056.068a.057.057,0,0,1-.056.06h-.237a.057.057,0,0,1-.056-.06c0-.038.021-.068.056-.068Zm-.831,0a.065.065,0,0,1,.063.068.063.063,0,0,1-.063.06h-.23a.063.063,0,0,1-.063-.06.065.065,0,0,1,.063-.068Zm-.824,0c.035,0,.056.03.056.068a.057.057,0,0,1-.056.06h-.237a.057.057,0,0,1-.056-.06c0-.038.021-.068.056-.068Zm-.831,0a.065.065,0,0,1,.063.068.063.063,0,0,1-.063.06h-.23a.063.063,0,0,1-.063-.06.065.065,0,0,1,.063-.068Zm-.824,0c.035,0,.056.03.056.068a.057.057,0,0,1-.056.06h-.237a.057.057,0,0,1-.056-.06c0-.038.021-.068.056-.068Zm-.831,0a.065.065,0,0,1,.063.068.063.063,0,0,1-.063.06h-.23a.063.063,0,0,1-.063-.06.065.065,0,0,1,.063-.068Zm-.824,0c.035,0,.056.03.056.068a.057.057,0,0,1-.056.06h-.237a.057.057,0,0,1-.056-.06c0-.038.021-.068.056-.068Zm-.831,0a.065.065,0,0,1,.063.068.063.063,0,0,1-.063.06h-.23a.063.063,0,0,1-.063-.06.065.065,0,0,1,.063-.068Zm-.824,0c.035,0,.056.03.056.068a.057.057,0,0,1-.056.06H209.3a.057.057,0,0,1-.056-.06c0-.038.021-.068.056-.068Zm-.831,0a.065.065,0,0,1,.063.068.063.063,0,0,1-.063.06h-.23a.063.063,0,0,1-.063-.06.065.065,0,0,1,.063-.068Zm-.824,0c.035,0,.056.03.056.068a.057.057,0,0,1-.056.06h-.237a.057.057,0,0,1-.056-.06c0-.038.021-.068.056-.068Zm-.831,0a.065.065,0,0,1,.063.068.063.063,0,0,1-.063.06h-.23a.063.063,0,0,1-.063-.06.065.065,0,0,1,.063-.068Zm-.824,0c.035,0,.056.03.056.068a.057.057,0,0,1-.056.06h-.237a.057.057,0,0,1-.056-.06c0-.038.021-.068.056-.068Zm-.831,0a.065.065,0,0,1,.063.068.063.063,0,0,1-.063.06h-.23a.063.063,0,0,1-.063-.06.065.065,0,0,1,.063-.068Zm-.824,0c.035,0,.056.03.056.068a.057.057,0,0,1-.056.06h-.237a.057.057,0,0,1-.056-.06c0-.038.021-.068.056-.068Zm-.831,0a.065.065,0,0,1,.063.068.063.063,0,0,1-.063.06H203.5a.062.062,0,0,1-.056-.06.065.065,0,0,1,.056-.068Zm-.824,0c.035,0,.056.03.056.068a.057.057,0,0,1-.056.06h-.237a.057.057,0,0,1-.056-.06c0-.038.021-.068.056-.068Zm-.831,0a.065.065,0,0,1,.063.068.063.063,0,0,1-.063.06h-.237a.062.062,0,0,1-.056-.06.065.065,0,0,1,.056-.068Z" transform="translate(-196.275 -539.057)" fill="#fff"/>
      <path id="Trazado_127478" data-name="Trazado 127478" d="M228.416,567.407h-.237a.136.136,0,0,1-.13-.135.139.139,0,0,1,.13-.142h.237a.14.14,0,0,1,.137.142A.138.138,0,0,1,228.416,567.407Zm-.824,0h-.237a.138.138,0,0,1-.138-.135.14.14,0,0,1,.138-.142h.237a.139.139,0,0,1,.131.142A.136.136,0,0,1,227.593,567.407Zm-.83,0h-.237a.136.136,0,0,1-.131-.135.139.139,0,0,1,.131-.142h.237a.14.14,0,0,1,.137.142A.138.138,0,0,1,226.762,567.407Zm-.824,0H225.7a.138.138,0,0,1-.138-.135.14.14,0,0,1,.138-.142h.237a.139.139,0,0,1,.13.142A.136.136,0,0,1,225.938,567.407Zm-.831,0h-.237a.136.136,0,0,1-.13-.135.139.139,0,0,1,.13-.142h.237a.14.14,0,0,1,.137.142A.138.138,0,0,1,225.108,567.407Zm-.824,0h-.237a.138.138,0,0,1-.137-.135.14.14,0,0,1,.137-.142h.237a.139.139,0,0,1,.13.142A.136.136,0,0,1,224.284,567.407Zm-.831,0h-.237a.136.136,0,0,1-.13-.135.139.139,0,0,1,.13-.142h.237a.14.14,0,0,1,.137.142A.138.138,0,0,1,223.454,567.407Zm-.824,0h-.237a.138.138,0,0,1-.137-.135.14.14,0,0,1,.137-.142h.237a.139.139,0,0,1,.13.142A.136.136,0,0,1,222.63,567.407Zm-.831,0h-.237a.136.136,0,0,1-.13-.135.139.139,0,0,1,.13-.142h.237a.14.14,0,0,1,.137.142A.138.138,0,0,1,221.8,567.407Zm-.824,0h-.237a.138.138,0,0,1-.137-.135.14.14,0,0,1,.137-.142h.237a.139.139,0,0,1,.13.142A.136.136,0,0,1,220.976,567.407Zm-.831,0h-.237a.136.136,0,0,1-.13-.135.139.139,0,0,1,.13-.142h.237a.14.14,0,0,1,.137.142A.138.138,0,0,1,220.145,567.407Zm-.824,0h-.237a.138.138,0,0,1-.137-.135.14.14,0,0,1,.137-.142h.237a.139.139,0,0,1,.13.142A.136.136,0,0,1,219.321,567.407Zm-.831,0h-.237a.136.136,0,0,1-.13-.135.139.139,0,0,1,.13-.142h.237a.14.14,0,0,1,.137.142A.138.138,0,0,1,218.491,567.407Zm-.824,0h-.237a.138.138,0,0,1-.137-.135.14.14,0,0,1,.137-.142h.237a.139.139,0,0,1,.13.142A.136.136,0,0,1,217.667,567.407Zm-.831,0H216.6a.136.136,0,0,1-.13-.135.139.139,0,0,1,.13-.142h.237a.14.14,0,0,1,.137.142A.138.138,0,0,1,216.836,567.407Zm-.824,0h-.237a.138.138,0,0,1-.137-.135.14.14,0,0,1,.137-.142h.237a.139.139,0,0,1,.13.142A.136.136,0,0,1,216.013,567.407Zm-.831,0h-.237a.136.136,0,0,1-.13-.135.139.139,0,0,1,.13-.142h.237a.14.14,0,0,1,.137.142A.138.138,0,0,1,215.182,567.407Zm-.824,0h-.237a.138.138,0,0,1-.137-.135.14.14,0,0,1,.137-.142h.237a.139.139,0,0,1,.13.142A.136.136,0,0,1,214.358,567.407Zm-.831,0h-.237a.136.136,0,0,1-.13-.135.139.139,0,0,1,.13-.142h.237a.14.14,0,0,1,.137.142A.138.138,0,0,1,213.528,567.407Zm-.824,0h-.237a.138.138,0,0,1-.137-.135.14.14,0,0,1,.137-.142h.237a.139.139,0,0,1,.13.142A.136.136,0,0,1,212.7,567.407Zm-.831,0h-.237a.136.136,0,0,1-.13-.135.139.139,0,0,1,.13-.142h.237a.14.14,0,0,1,.137.142A.138.138,0,0,1,211.873,567.407Zm-.824,0h-.237a.138.138,0,0,1-.137-.135.14.14,0,0,1,.137-.142h.237a.139.139,0,0,1,.13.142A.136.136,0,0,1,211.05,567.407Zm-.831,0h-.237a.136.136,0,0,1-.13-.135.139.139,0,0,1,.13-.142h.237a.14.14,0,0,1,.137.142A.138.138,0,0,1,210.219,567.407Zm-.824,0h-.237a.138.138,0,0,1-.137-.135.14.14,0,0,1,.137-.142h.237a.139.139,0,0,1,.13.142A.136.136,0,0,1,209.4,567.407Zm-.831,0h-.237a.131.131,0,0,1-.13-.135.134.134,0,0,1,.13-.142h.237a.134.134,0,0,1,.13.142A.131.131,0,0,1,208.565,567.407Zm-.824,0H207.5a.138.138,0,0,1-.137-.135.14.14,0,0,1,.137-.142h.237a.139.139,0,0,1,.13.142A.136.136,0,0,1,207.741,567.407Zm-.831,0h-.237a.131.131,0,0,1-.13-.135.134.134,0,0,1,.13-.142h.237a.134.134,0,0,1,.13.142A.131.131,0,0,1,206.911,567.407Zm-.831,0h-.23a.138.138,0,0,1-.137-.135.14.14,0,0,1,.137-.142h.23a.14.14,0,0,1,.137.142A.138.138,0,0,1,206.08,567.407Zm-.824,0h-.237a.131.131,0,0,1-.13-.135.134.134,0,0,1,.13-.142h.237a.134.134,0,0,1,.13.142A.131.131,0,0,1,205.256,567.407Zm-.831,0h-.23a.138.138,0,0,1-.137-.135.14.14,0,0,1,.137-.142h.23a.14.14,0,0,1,.137.142A.138.138,0,0,1,204.426,567.407Zm-.824,0h-.237a.131.131,0,0,1-.13-.135.134.134,0,0,1,.13-.142h.237a.134.134,0,0,1,.131.142A.131.131,0,0,1,203.6,567.407Zm-.831,0h-.23a.138.138,0,0,1-.137-.135.14.14,0,0,1,.137-.142h.23a.14.14,0,0,1,.138.142A.138.138,0,0,1,202.771,567.407Zm-.824,0h-.237a.131.131,0,0,1-.13-.135.134.134,0,0,1,.13-.142h.237a.134.134,0,0,1,.131.142A.131.131,0,0,1,201.948,567.407Zm-.831,0h-.23a.138.138,0,0,1-.138-.135.14.14,0,0,1,.138-.142h.23a.14.14,0,0,1,.138.142A.138.138,0,0,1,201.117,567.407Zm-.82-.014h-.062l-.169-.022h-.016a.121.121,0,0,1-.094-.049.134.134,0,0,1-.029-.1.139.139,0,0,1,.137-.127h.013l.026.009.043.006h.06l.058.007h.047l.01,0a.139.139,0,0,1,.1.148.138.138,0,0,1-.05.1A.123.123,0,0,1,200.3,567.393Zm28.707-.03a.127.127,0,0,1-.071-.021.142.142,0,0,1-.059-.094v-.014a.138.138,0,0,1,.123-.142l.041-.006.067-.016.121-.016a.124.124,0,0,1,.094.025.128.128,0,0,1,.05.094.139.139,0,0,1-.028.106.115.115,0,0,1-.064.042l-.014.008-.234.031Zm-29.528-.105h-.044l-.133-.037-.039-.018-.048-.007-.009,0a.143.143,0,0,1-.086-.165v0a.136.136,0,0,1,.063-.085.127.127,0,0,1,.1-.015l.051.016.109.029.074.024a.137.137,0,0,1,.092.16v0A.133.133,0,0,1,199.476,567.258Zm30.343-.075a.143.143,0,0,1-.132-.1l0-.009a.141.141,0,0,1,.092-.163l.017-.006.061-.024.046-.014.053-.021.05-.018a.14.14,0,0,1,.166.091l0,.009a.136.136,0,0,1-.088.164l-.042.013-.056.025-.051.014-.081.031A.133.133,0,0,1,229.818,567.183Zm-31.126-.2a.138.138,0,0,1-.055-.012l-.007,0-.02-.015-.051-.021-.1-.047-.042-.023a.14.14,0,0,1-.061-.177.134.134,0,0,1,.165-.081l.008,0,.053.029.045.028.088.041.03.008.008,0a.14.14,0,0,1,.062.177.136.136,0,0,1-.073.08A.124.124,0,0,1,198.692,566.984Zm31.89-.126a.127.127,0,0,1-.12-.083.14.14,0,0,1,.062-.177l.01,0,.014,0,.05-.03.045-.021.049-.03.037-.02a.119.119,0,0,1,.1-.019.132.132,0,0,1,.088.073.138.138,0,0,1-.048.177l-.051.035-.045.021-.1.062-.026.009A.156.156,0,0,1,230.583,566.858Zm-32.626-.293a.135.135,0,0,1-.065-.016l-.011-.006-.009-.009-.051-.033-.037-.033-.054-.035-.021-.018h0l-.02-.017a.14.14,0,0,1-.028-.191.136.136,0,0,1,.092-.059.128.128,0,0,1,.1.028l.01.009.078.056.051.039.046.033.006.006a.138.138,0,0,1,.04.172l-.006.011A.14.14,0,0,1,197.957,566.565Zm33.336-.167h-.018a.135.135,0,0,1-.09-.055.126.126,0,0,1-.028-.091.146.146,0,0,1,.054-.1l0,0,.039-.028.045-.04.039-.028.036-.033.019-.02a.135.135,0,0,1,.185.015l.007.008a.139.139,0,0,1-.017.187l-.016.017-.09.08-.042.03-.046.036A.13.13,0,0,1,231.292,566.4Zm-33.979-.379h0a.132.132,0,0,1-.092-.036l-.033-.027-.039-.043-.031-.04-.042-.038-.028-.037a.134.134,0,0,1,0-.2.135.135,0,0,1,.182,0l.007.006.029.039.046.042.033.042.05.054a.139.139,0,0,1,.017.187l-.007.008A.132.132,0,0,1,197.313,566.019Zm34.6-.21a.133.133,0,0,1-.093-.037.138.138,0,0,1-.017-.188l.006-.008.082-.088.055-.073.009-.019.008-.009a.144.144,0,0,1,.1-.045.121.121,0,0,1,.085.033.14.14,0,0,1,.025.188l-.01.015-.016.008-.065.083-.033.035-.028.036-.009.018-.008.009A.131.131,0,0,1,231.913,565.808Zm-35.147-.455a.13.13,0,0,1-.03,0,.123.123,0,0,1-.081-.061l-.02-.029-.056-.09-.039-.06-.017-.037a.129.129,0,0,1-.021-.1.126.126,0,0,1,.057-.088.128.128,0,0,1,.094-.025.136.136,0,0,1,.092.059l0,0,.116.188.012.025a.148.148,0,0,1-.018.177l-.008.007A.134.134,0,0,1,196.766,565.354Zm35.645-.25a.119.119,0,0,1-.071-.024.138.138,0,0,1-.047-.176l.011-.023.052-.085.024-.058.031-.052a.137.137,0,0,1,.081-.073.125.125,0,0,1,.1.007.139.139,0,0,1,.065.183l-.011.024-.03.057-.026.041-.021.045-.033.061-.011.011a.146.146,0,0,1-.095.059Zm-36.056-.523a.127.127,0,0,1-.04-.007.137.137,0,0,1-.081-.073l0-.007-.007-.03-.019-.042-.024-.061-.013-.048-.025-.062v-.01a.142.142,0,0,1,.011-.106.142.142,0,0,1,.173-.057.124.124,0,0,1,.062.068l.008.009.017.064.02.043.024.061.011.042.012.021a.133.133,0,0,1,0,.1.14.14,0,0,1-.074.078A.123.123,0,0,1,196.354,564.58Zm36.42-.278a.151.151,0,0,1-.121-.069.144.144,0,0,1-.008-.116l.014-.053.016-.051.019-.048.019-.075a.129.129,0,0,1,.058-.086.132.132,0,0,1,.1-.016.127.127,0,0,1,.079.056.143.143,0,0,1,.018.106l-.008.042-.017.061-.019.049-.029.108a.14.14,0,0,1-.081.084A.122.122,0,0,1,232.774,564.3Zm-36.638-.569h-.01a.145.145,0,0,1-.14-.1l-.009-.02-.03-.23-.007-.015v-.016a.146.146,0,0,1,.115-.148l.008,0h.008a.143.143,0,0,1,.136.121v.024l.013.1.014.064.008.071a.141.141,0,0,1-.1.154Zm36.824-.3-.022,0a.123.123,0,0,1-.085-.045.134.134,0,0,1-.029-.108l.006-.046v-.057l.006-.048v-.064l.007-.031a.131.131,0,1,1,.261.023v.093l-.013.109v.061a.143.143,0,0,1-.06.094A.127.127,0,0,1,232.96,563.434Zm-36.91-.588a.14.14,0,0,1-.137-.142v-.255a.138.138,0,0,1,.137-.135.136.136,0,0,1,.131.135v.255A.139.139,0,0,1,196.049,562.846Zm36.932-.3a.138.138,0,0,1-.137-.135v-.255a.14.14,0,0,1,.137-.142.139.139,0,0,1,.131.142v.255A.136.136,0,0,1,232.981,562.546Zm-36.932-.593a.138.138,0,0,1-.137-.135v-.255a.14.14,0,0,1,.137-.142.139.139,0,0,1,.131.142v.255A.136.136,0,0,1,196.049,561.953Zm36.932-.293a.14.14,0,0,1-.137-.142v-.255a.138.138,0,0,1,.137-.135.136.136,0,0,1,.131.135v.255A.139.139,0,0,1,232.981,561.659Zm-36.932-.593a.14.14,0,0,1-.137-.142v-.255a.138.138,0,0,1,.137-.135.136.136,0,0,1,.131.135v.255A.139.139,0,0,1,196.049,561.066Zm36.932-.3a.138.138,0,0,1-.137-.135v-.255a.134.134,0,1,1,.268,0v.255A.136.136,0,0,1,232.981,560.765Zm-36.932-.593a.138.138,0,0,1-.137-.135v-.255a.14.14,0,0,1,.137-.142.139.139,0,0,1,.131.142v.255A.136.136,0,0,1,196.049,560.172Zm36.932-.293a.14.14,0,0,1-.137-.142v-.255a.138.138,0,0,1,.137-.135.136.136,0,0,1,.131.135v.255A.139.139,0,0,1,232.981,559.879Zm-36.932-.593a.14.14,0,0,1-.137-.142v-.255a.138.138,0,0,1,.137-.135.136.136,0,0,1,.131.135v.255A.139.139,0,0,1,196.049,559.285Zm36.932-.3a.138.138,0,0,1-.137-.135v-.255a.14.14,0,0,1,.137-.142.139.139,0,0,1,.131.142v.255A.136.136,0,0,1,232.981,558.985Zm-36.932-.593a.138.138,0,0,1-.137-.135V558a.14.14,0,0,1,.137-.142.139.139,0,0,1,.131.142v.255A.136.136,0,0,1,196.049,558.392Zm36.932-.293a.14.14,0,0,1-.137-.142V557.7a.138.138,0,0,1,.137-.135.136.136,0,0,1,.131.135v.255A.139.139,0,0,1,232.981,558.1Zm-36.932-.593a.14.14,0,0,1-.137-.142v-.255a.138.138,0,0,1,.137-.135.136.136,0,0,1,.131.135v.255A.139.139,0,0,1,196.049,557.5Zm36.932-.3a.138.138,0,0,1-.137-.135v-.255a.14.14,0,0,1,.137-.142.139.139,0,0,1,.131.142v.255A.136.136,0,0,1,232.981,557.2Zm-36.932-.594a.138.138,0,0,1-.137-.135v-.255a.14.14,0,0,1,.137-.142.139.139,0,0,1,.131.142v.255A.136.136,0,0,1,196.049,556.611Zm36.932-.293a.14.14,0,0,1-.137-.142v-.255a.138.138,0,0,1,.137-.135.136.136,0,0,1,.131.135v.255A.139.139,0,0,1,232.981,556.318Zm-36.932-.593a.14.14,0,0,1-.137-.142v-.255a.138.138,0,0,1,.137-.135.136.136,0,0,1,.131.135v.255A.139.139,0,0,1,196.049,555.724Zm36.932-.3a.138.138,0,0,1-.137-.135v-.255a.14.14,0,0,1,.137-.142.139.139,0,0,1,.131.142v.255A.136.136,0,0,1,232.981,555.424Zm-36.932-.594a.138.138,0,0,1-.137-.135v-.255a.14.14,0,0,1,.137-.142.139.139,0,0,1,.131.142v.255A.136.136,0,0,1,196.049,554.83Zm36.932-.293a.14.14,0,0,1-.137-.142v-.255a.138.138,0,0,1,.137-.135.136.136,0,0,1,.131.135v.255A.139.139,0,0,1,232.981,554.537Zm-36.932-.593a.14.14,0,0,1-.137-.142v-.255a.138.138,0,0,1,.137-.135.136.136,0,0,1,.131.135v.255A.139.139,0,0,1,196.049,553.944Zm36.932-.3a.138.138,0,0,1-.137-.135v-.255a.134.134,0,1,1,.268,0v.255A.136.136,0,0,1,232.981,553.643Zm-36.932-.593a.138.138,0,0,1-.137-.135v-.255a.14.14,0,0,1,.137-.142.139.139,0,0,1,.131.142v.255A.136.136,0,0,1,196.049,553.05Zm36.932-.293a.14.14,0,0,1-.137-.142v-.255a.138.138,0,0,1,.137-.135.136.136,0,0,1,.131.135v.255A.139.139,0,0,1,232.981,552.757Zm-36.932-.594a.14.14,0,0,1-.137-.142v-.255a.138.138,0,0,1,.137-.135.136.136,0,0,1,.131.135v.255A.139.139,0,0,1,196.049,552.163Zm36.932-.3a.138.138,0,0,1-.137-.135v-.255a.14.14,0,0,1,.137-.142.139.139,0,0,1,.131.142v.255A.136.136,0,0,1,232.981,551.863Zm-36.932-.593a.138.138,0,0,1-.137-.135v-.256a.14.14,0,0,1,.137-.142.139.139,0,0,1,.131.142v.256A.136.136,0,0,1,196.049,551.269Zm36.932-.293a.14.14,0,0,1-.137-.142v-.255a.138.138,0,0,1,.137-.135.136.136,0,0,1,.131.135v.255A.139.139,0,0,1,232.981,550.976Zm-36.932-.594a.14.14,0,0,1-.137-.142v-.255a.138.138,0,0,1,.137-.135.136.136,0,0,1,.131.135v.255A.139.139,0,0,1,196.049,550.383Zm36.932-.3a.138.138,0,0,1-.137-.135v-.255a.14.14,0,0,1,.137-.142.139.139,0,0,1,.131.142v.255A.136.136,0,0,1,232.981,550.082Zm-36.932-.593a.138.138,0,0,1-.137-.135V549.1a.14.14,0,0,1,.137-.142.139.139,0,0,1,.131.142v.255A.136.136,0,0,1,196.049,549.489Zm36.932-.3a.133.133,0,0,1-.137-.135V548.8a.133.133,0,0,1,.137-.135.131.131,0,0,1,.131.135v.255A.131.131,0,0,1,232.981,549.188Zm-.019-.135Zm-36.913-.451a.14.14,0,0,1-.137-.142V548.2a.138.138,0,0,1,.137-.135.136.136,0,0,1,.131.135v.255A.139.139,0,0,1,196.049,548.6Zm36.932-.3a.138.138,0,0,1-.137-.135v-.255a.14.14,0,0,1,.137-.142.139.139,0,0,1,.131.142v.255A.136.136,0,0,1,232.981,548.3Zm-36.932-.593a.138.138,0,0,1-.137-.135v-.255a.14.14,0,0,1,.137-.142.139.139,0,0,1,.131.142v.255A.136.136,0,0,1,196.049,547.708Zm36.932-.3a.133.133,0,0,1-.137-.135v-.255a.133.133,0,0,1,.137-.135.131.131,0,0,1,.131.135v.255A.131.131,0,0,1,232.981,547.408Zm-.019-.135Zm-36.913-.451a.14.14,0,0,1-.137-.142v-.255a.138.138,0,0,1,.137-.135.136.136,0,0,1,.131.135v.255A.139.139,0,0,1,196.049,546.822Zm36.932-.3a.14.14,0,0,1-.137-.142v-.248a.14.14,0,0,1,.137-.142.139.139,0,0,1,.131.142v.248A.139.139,0,0,1,232.981,546.521Zm-36.932-.594a.138.138,0,0,1-.137-.135v-.255a.14.14,0,0,1,.137-.142.139.139,0,0,1,.131.142v.255A.136.136,0,0,1,196.049,545.928Zm36.932-.3a.133.133,0,0,1-.137-.135v-.255a.133.133,0,0,1,.137-.135.131.131,0,0,1,.131.135v.255A.131.131,0,0,1,232.981,545.627Zm-.019-.135Zm-36.913-.451a.14.14,0,0,1-.137-.142v-.255a.138.138,0,0,1,.137-.135.136.136,0,0,1,.131.135v.255A.139.139,0,0,1,196.049,545.041Zm36.932-.3a.14.14,0,0,1-.137-.142v-.248a.14.14,0,0,1,.137-.142.139.139,0,0,1,.131.142v.248A.139.139,0,0,1,232.981,544.741Zm-36.932-.594a.138.138,0,0,1-.137-.135v-.255a.14.14,0,0,1,.137-.142.139.139,0,0,1,.131.142v.255A.136.136,0,0,1,196.049,544.147Zm36.932-.3a.133.133,0,0,1-.137-.135v-.255a.133.133,0,0,1,.137-.135.131.131,0,0,1,.131.135v.255A.131.131,0,0,1,232.981,543.847Zm-.019-.135Zm-36.913-.451h-.008l-.008,0a.151.151,0,0,1-.122-.141V543.1l.006-.031v-.123l.013-.095a.137.137,0,0,1,.05-.1.122.122,0,0,1,.1-.026.14.14,0,0,1,.122.142v.011l-.007.045-.006.053v.114l-.006.032A.138.138,0,0,1,196.049,543.261Zm36.9-.3a.116.116,0,0,1-.059-.017.151.151,0,0,1-.067-.095l0-.008v-.027l-.024-.189-.011-.012v-.029a.149.149,0,0,1,.1-.147h0a.133.133,0,0,1,.158.1l0,.008v.014l.013.054.021.181v.022a.145.145,0,0,1-.113.14A.1.1,0,0,1,232.952,542.962Zm-36.781-.585a.152.152,0,0,1-.032,0h0a.141.141,0,0,1-.1-.162l.008-.042.031-.114.019-.048.013-.047a.131.131,0,0,1,.174-.09.137.137,0,0,1,.083.162l-.043.163-.015.049-.012.033a.13.13,0,0,1-.054.08A.128.128,0,0,1,196.171,542.376Zm36.6-.283a.122.122,0,0,1-.039-.006.151.151,0,0,1-.087-.079l-.007-.015v-.017l-.018-.045-.013-.042-.023-.058-.012-.046,0-.009a.14.14,0,0,1,.06-.18.123.123,0,0,1,.1-.008.138.138,0,0,1,.081.072l0,.009.006.02.043.108.013.042.025.063v.018a.142.142,0,0,1-.011.106.122.122,0,0,1-.073.059A.115.115,0,0,1,232.774,542.094Zm-36.3-.546a.138.138,0,0,1-.065-.017.14.14,0,0,1-.06-.18l0-.008.013-.021.026-.049.022-.047.03-.057.017-.027v-.01l.013-.019a.138.138,0,0,1,.18-.046.147.147,0,0,1,.053.187l-.005.011-.007.008-.02.042-.052.085-.017.044-.01.031-.007.009A.141.141,0,0,1,196.47,541.548Zm35.952-.256a.136.136,0,0,1-.041-.006.125.125,0,0,1-.068-.054l-.009-.012-.032-.053-.019-.041-.05-.08-.024-.026-.005-.011a.16.16,0,0,1,.027-.172l.008-.007a.129.129,0,0,1,.1-.029.137.137,0,0,1,.092.059l.023.033.086.14.03.056a.15.15,0,0,1-.042.18l-.012.008A.136.136,0,0,1,232.422,541.292Zm-35.5-.483a.117.117,0,0,1-.083-.033.15.15,0,0,1-.027-.184l.009-.011.012-.013.072-.093.033-.035.041-.052a.126.126,0,0,1,.083-.049.138.138,0,0,1,.106.032l.008.007a.148.148,0,0,1,.038.109.125.125,0,0,1-.041.085l0,0-.1.13-.029.033-.006.011a.14.14,0,0,1-.1.06Zm35-.226a.134.134,0,0,1-.1-.044l-.039-.043-.033-.042-.03-.033-.047-.042-.014-.023a.139.139,0,0,1-.01-.181l.006-.009.008-.007a.135.135,0,0,1,.186.007l.019.02.044.04.039.043.033.042.033.035a.14.14,0,0,1,0,.192A.131.131,0,0,1,231.921,540.584Zm-34.419-.409h-.018a.127.127,0,0,1-.083-.05.138.138,0,0,1-.031-.1.136.136,0,0,1,.049-.1l.021-.015.087-.077.039-.028.037-.033a.119.119,0,0,1,.093-.034.14.14,0,0,1,.1.06l0,0a.15.15,0,0,1-.031.188l0,0-.039.028-.045.04-.039.028-.036.032-.019.02A.14.14,0,0,1,197.5,540.174Zm33.8-.183a.129.129,0,0,1-.075-.025l-.017-.01-.048-.035-.039-.035-.094-.065a.146.146,0,0,1-.032-.194.137.137,0,0,1,.092-.059.13.13,0,0,1,.1.028l.01.009.034.024.057.037.039.035.05.037.008.008a.12.12,0,0,1,.044.067.148.148,0,0,1-.016.113l0,0a.136.136,0,0,1-.092.059Zm-33.124-.321a.144.144,0,0,1-.045-.007.126.126,0,0,1-.075-.066.147.147,0,0,1,.051-.186l.055-.033.045-.021.117-.07a.133.133,0,0,1,.181.06l0,.005a.147.147,0,0,1-.063.182l-.01,0-.014,0-.046.028-.04.021-.045.027-.048.034A.142.142,0,0,1,198.182,539.67Zm32.419-.143a.133.133,0,0,1-.063-.016l-.04-.021-.157-.074-.016-.011a.139.139,0,0,1-.068-.075.132.132,0,0,1,0-.1.137.137,0,0,1,.081-.072.124.124,0,0,1,.09,0l.033.01.057.027.043.027.063.027.031.02a.13.13,0,0,1,.064.07.141.141,0,0,1,0,.107.128.128,0,0,1-.074.075A.125.125,0,0,1,230.6,539.527Zm-31.665-.231a.138.138,0,0,1-.127-.083l0-.005a.144.144,0,0,1,.007-.115.128.128,0,0,1,.075-.064l.04-.014.115-.046.065-.021a.132.132,0,0,1,.108,0,.129.129,0,0,1,.068.086v0a.14.14,0,0,1-.089.168l-.028.008-.043.013-.051.021-.053.024-.052.018A.156.156,0,0,1,198.936,539.3Zm30.9-.095a.133.133,0,0,1-.05-.01l-.037-.013-.149-.042h-.028l-.017-.009a.151.151,0,0,1-.08-.162v0a.133.133,0,0,1,.158-.1l.01,0,.018.006.109.029.1.03a.14.14,0,0,1,.1.168v0a.13.13,0,0,1-.068.086A.131.131,0,0,1,229.835,539.2Zm-30.106-.139a.127.127,0,0,1-.071-.021.141.141,0,0,1-.059-.092.14.14,0,0,1,.106-.163l.008,0h.01l.046-.006.061-.015.109-.015a.137.137,0,0,1,.155.109v0a.142.142,0,0,1-.1.161l-.01,0-.163.022-.061.016h-.03Zm29.3-.045h-.04l-.162-.022h-.045l-.008,0a.141.141,0,0,1-.115-.155.131.131,0,0,1,.048-.094.125.125,0,0,1,.1-.027h.045l.171.022h.024l.008,0a.137.137,0,0,1,.108.156.131.131,0,0,1-.053.094A.124.124,0,0,1,229.026,539.017Zm-.826-.046h-.237a.138.138,0,0,1-.137-.135.14.14,0,0,1,.137-.142h.237a.139.139,0,0,1,.13.142A.136.136,0,0,1,228.2,538.971Zm-.831,0h-.237a.136.136,0,0,1-.13-.135.139.139,0,0,1,.13-.142h.237a.14.14,0,0,1,.137.142A.138.138,0,0,1,227.369,538.971Zm-.824,0h-.237a.138.138,0,0,1-.137-.135.14.14,0,0,1,.137-.142h.237a.139.139,0,0,1,.13.142A.136.136,0,0,1,226.546,538.971Zm-.831,0h-.237a.136.136,0,0,1-.13-.135.139.139,0,0,1,.13-.142h.237a.14.14,0,0,1,.137.142A.138.138,0,0,1,225.715,538.971Zm-.824,0h-.237a.138.138,0,0,1-.137-.135.14.14,0,0,1,.137-.142h.237a.139.139,0,0,1,.13.142A.136.136,0,0,1,224.891,538.971Zm-.831,0h-.237a.136.136,0,0,1-.13-.135.139.139,0,0,1,.13-.142h.237a.14.14,0,0,1,.137.142A.138.138,0,0,1,224.061,538.971Zm-.824,0H223a.138.138,0,0,1-.137-.135.14.14,0,0,1,.137-.142h.237a.139.139,0,0,1,.13.142A.136.136,0,0,1,223.237,538.971Zm-.831,0h-.237a.136.136,0,0,1-.13-.135.139.139,0,0,1,.13-.142h.237a.14.14,0,0,1,.137.142A.138.138,0,0,1,222.406,538.971Zm-.824,0h-.237a.138.138,0,0,1-.137-.135.14.14,0,0,1,.137-.142h.237a.139.139,0,0,1,.13.142A.136.136,0,0,1,221.583,538.971Zm-.831,0h-.237a.136.136,0,0,1-.13-.135.139.139,0,0,1,.13-.142h.237a.14.14,0,0,1,.137.142A.138.138,0,0,1,220.752,538.971Zm-.824,0h-.237a.138.138,0,0,1-.137-.135.14.14,0,0,1,.137-.142h.237a.139.139,0,0,1,.13.142A.136.136,0,0,1,219.929,538.971Zm-.831,0h-.237a.136.136,0,0,1-.13-.135.139.139,0,0,1,.13-.142h.237a.14.14,0,0,1,.137.142A.138.138,0,0,1,219.1,538.971Zm-.824,0h-.237a.138.138,0,0,1-.137-.135.14.14,0,0,1,.137-.142h.237a.139.139,0,0,1,.13.142A.136.136,0,0,1,218.274,538.971Zm-.831,0h-.237a.131.131,0,0,1-.13-.135.134.134,0,0,1,.13-.142h.237a.134.134,0,0,1,.13.142A.131.131,0,0,1,217.444,538.971Zm-.824,0h-.237a.138.138,0,0,1-.137-.135.14.14,0,0,1,.137-.142h.237a.139.139,0,0,1,.13.142A.136.136,0,0,1,216.62,538.971Zm-.831,0h-.237a.131.131,0,0,1-.13-.135.134.134,0,0,1,.13-.142h.237a.134.134,0,0,1,.13.142A.131.131,0,0,1,215.789,538.971Zm-.831,0h-.23a.138.138,0,0,1-.137-.135.14.14,0,0,1,.137-.142h.23a.14.14,0,0,1,.138.142A.138.138,0,0,1,214.959,538.971Zm-.824,0H213.9a.131.131,0,0,1-.13-.135.134.134,0,0,1,.13-.142h.237a.134.134,0,0,1,.13.142A.131.131,0,0,1,214.135,538.971Zm-.831,0h-.23a.138.138,0,0,1-.137-.135.14.14,0,0,1,.137-.142h.23a.14.14,0,0,1,.137.142A.138.138,0,0,1,213.3,538.971Zm-.824,0h-.237a.131.131,0,0,1-.13-.135.134.134,0,0,1,.13-.142h.237a.134.134,0,0,1,.131.142A.131.131,0,0,1,212.481,538.971Zm-.831,0h-.23a.138.138,0,0,1-.137-.135.14.14,0,0,1,.137-.142h.23a.14.14,0,0,1,.137.142A.138.138,0,0,1,211.65,538.971Zm-.824,0h-.237a.131.131,0,0,1-.13-.135.134.134,0,0,1,.13-.142h.237a.134.134,0,0,1,.131.142A.131.131,0,0,1,210.826,538.971Zm-.831,0h-.23a.138.138,0,0,1-.137-.135.14.14,0,0,1,.137-.142H210a.14.14,0,0,1,.138.142A.138.138,0,0,1,210,538.971Zm-.824,0h-.237a.131.131,0,0,1-.13-.135.134.134,0,0,1,.13-.142h.237a.134.134,0,0,1,.131.142A.131.131,0,0,1,209.172,538.971Zm-.831,0h-.23a.138.138,0,0,1-.137-.135.14.14,0,0,1,.137-.142h.23a.14.14,0,0,1,.138.142A.138.138,0,0,1,208.341,538.971Zm-.824,0h-.237a.131.131,0,0,1-.13-.135.134.134,0,0,1,.13-.142h.237a.134.134,0,0,1,.131.142A.131.131,0,0,1,207.518,538.971Zm-.831,0h-.23a.138.138,0,0,1-.137-.135.14.14,0,0,1,.137-.142h.23a.14.14,0,0,1,.138.142A.138.138,0,0,1,206.687,538.971Zm-.824,0h-.237a.131.131,0,0,1-.13-.135.134.134,0,0,1,.13-.142h.237a.134.134,0,0,1,.131.142A.131.131,0,0,1,205.864,538.971Zm-.831,0h-.23a.138.138,0,0,1-.137-.135.14.14,0,0,1,.137-.142h.23a.14.14,0,0,1,.138.142A.138.138,0,0,1,205.033,538.971Zm-.824,0h-.237a.131.131,0,0,1-.13-.135.134.134,0,0,1,.13-.142h.237a.134.134,0,0,1,.131.142A.131.131,0,0,1,204.209,538.971Zm-.831,0h-.237a.136.136,0,0,1-.131-.135.139.139,0,0,1,.131-.142h.237a.14.14,0,0,1,.138.142A.138.138,0,0,1,203.379,538.971Zm-.824,0h-.237a.131.131,0,0,1-.13-.135.134.134,0,0,1,.13-.142h.237a.134.134,0,0,1,.131.142A.131.131,0,0,1,202.555,538.971Zm-.831,0h-.237a.136.136,0,0,1-.131-.135.139.139,0,0,1,.131-.142h.237a.14.14,0,0,1,.138.142A.138.138,0,0,1,201.724,538.971Zm-.824,0h-.349a.136.136,0,0,1-.136-.121v-.014a.14.14,0,0,1,.138-.142h.349a.139.139,0,0,1,.131.142A.136.136,0,0,1,200.9,538.971Z" transform="translate(-195.912 -538.694)" fill="#fff"/>
    </g>
    <rect id="Rectángulo_36045" data-name="Rectángulo 36045" width="4.045" height="4.045" rx="2.023" transform="translate(24.093 17.106)" fill="#fff"/>
    <rect id="Rectángulo_36046" data-name="Rectángulo 36046" width="4.045" height="4.045" rx="2.023" transform="translate(28.737 17.106)" fill="#fff"/>
    <rect id="Rectángulo_36047" data-name="Rectángulo 36047" width="4.045" height="4.045" rx="2.023" transform="translate(33.384 17.106)" fill="#fff"/>
    <rect id="Rectángulo_36048" data-name="Rectángulo 36048" width="4.045" height="4.045" rx="2.023" transform="translate(5.593 21.802)" fill="#dd587b"/>
    <rect id="Rectángulo_36049" data-name="Rectángulo 36049" width="4.045" height="4.045" rx="2.023" transform="translate(10.237 21.802)" fill="#fff"/>
    <rect id="Rectángulo_36050" data-name="Rectángulo 36050" width="4.045" height="4.045" rx="2.023" transform="translate(14.884 21.802)" fill="#fff"/>
    <rect id="Rectángulo_36051" data-name="Rectángulo 36051" width="4.045" height="4.045" rx="2.023" transform="translate(19.529 21.802)" fill="#fff"/>
    <rect id="Rectángulo_36052" data-name="Rectángulo 36052" width="4.045" height="4.045" rx="2.023" transform="translate(24.093 21.802)" fill="#fff"/>
    <rect id="Rectángulo_36053" data-name="Rectángulo 36053" width="4.045" height="4.045" rx="2.023" transform="translate(28.737 21.802)" fill="#fff"/>
    <rect id="Rectángulo_36054" data-name="Rectángulo 36054" width="4.045" height="4.045" rx="2.023" transform="translate(33.384 21.802)" fill="#fff"/>
    <rect id="Rectángulo_36055" data-name="Rectángulo 36055" width="4.045" height="4.045" rx="2.023" transform="translate(5.593 26.675)" fill="#dd587b"/>
    <rect id="Rectángulo_36056" data-name="Rectángulo 36056" width="4.045" height="4.045" rx="2.023" transform="translate(10.237 26.675)" fill="#fff"/>
    <rect id="Rectángulo_36057" data-name="Rectángulo 36057" width="4.045" height="4.045" rx="2.023" transform="translate(14.884 26.675)" fill="#fff"/>
    <rect id="Rectángulo_36058" data-name="Rectángulo 36058" width="4.045" height="4.045" rx="2.023" transform="translate(19.529 26.675)" fill="#fff"/>
    <rect id="Rectángulo_36059" data-name="Rectángulo 36059" width="4.045" height="4.045" rx="2.023" transform="translate(24.093 26.675)" fill="#fff"/>
    <rect id="Rectángulo_36060" data-name="Rectángulo 36060" width="4.045" height="4.045" rx="2.023" transform="translate(28.737 26.675)" fill="#fff"/>
    <rect id="Rectángulo_36061" data-name="Rectángulo 36061" width="4.045" height="4.045" rx="2.023" transform="translate(33.384 26.675)" fill="#fff"/>
    <rect id="Rectángulo_36062" data-name="Rectángulo 36062" width="4.045" height="4.045" rx="2.023" transform="translate(5.593 31.545)" fill="#dd587b"/>
    <rect id="Rectángulo_36063" data-name="Rectángulo 36063" width="4.045" height="4.045" rx="2.023" transform="translate(10.237 31.545)" fill="#fff"/>
    <rect id="Rectángulo_36064" data-name="Rectángulo 36064" width="4.045" height="4.045" rx="2.023" transform="translate(14.884 31.545)" fill="#fff"/>
    <rect id="Rectángulo_36065" data-name="Rectángulo 36065" width="4.045" height="4.045" rx="2.023" transform="translate(19.529 31.545)" fill="#fff"/>
    <rect id="Rectángulo_36066" data-name="Rectángulo 36066" width="4.045" height="4.045" rx="2.023" transform="translate(24.093 31.545)" fill="#fff"/>
    <rect id="Rectángulo_36067" data-name="Rectángulo 36067" width="4.045" height="4.045" rx="2.023" transform="translate(28.737 31.545)" fill="#fff"/>
    <rect id="Rectángulo_36068" data-name="Rectángulo 36068" width="4.045" height="4.045" rx="2.023" transform="translate(33.384 31.545)" fill="#fff"/>
    <rect id="Rectángulo_36069" data-name="Rectángulo 36069" width="4.045" height="4.045" rx="2.023" transform="translate(5.593 36.334)" fill="#dd587b"/>
    <rect id="Rectángulo_36070" data-name="Rectángulo 36070" width="4.045" height="4.045" rx="2.023" transform="translate(10.237 36.334)" fill="#fff"/>
    <rect id="Rectángulo_36071" data-name="Rectángulo 36071" width="4.045" height="4.045" rx="2.023" transform="translate(14.884 36.334)" fill="#fff"/>
    <rect id="Rectángulo_36072" data-name="Rectángulo 36072" width="4.045" height="4.045" rx="2.023" transform="translate(19.529 36.334)" fill="#fff"/>
    <rect id="Rectángulo_36073" data-name="Rectángulo 36073" width="4.045" height="4.045" rx="2.023" transform="translate(24.093 36.334)" fill="#fff"/>
    <rect id="Rectángulo_36074" data-name="Rectángulo 36074" width="4.045" height="4.045" rx="2.023" transform="translate(28.737 36.334)" fill="#fff"/>
  </g>
  <g id="Grupo_93027" data-name="Grupo 93027" transform="translate(30.562 196.3)">
    <path id="Trazado_127479" data-name="Trazado 127479" d="M273.1,1259.788a16.686,16.686,0,1,1-15.478,17.813,16.732,16.732,0,0,1,15.478-17.813Z" transform="translate(-257.575 -1259.747)" fill="#f5eb29" fill-rule="evenodd"/>
    <path id="Trazado_127480" data-name="Trazado 127480" d="M278.708,1266.446a15.549,15.549,0,1,1-14.41,16.612,15.569,15.569,0,0,1,14.41-16.612Z" transform="translate(-263.119 -1265.272)" fill="#f89e1c" fill-rule="evenodd"/>
    <path id="Trazado_127481" data-name="Trazado 127481" d="M281.385,1272.524a15.031,15.031,0,1,1-13.943,16.045,15.043,15.043,0,0,1,13.943-16.045Z" transform="translate(-265.73 -1270.315)" fill="#ffcc13" fill-rule="evenodd"/>
    <path id="Trazado_127482" data-name="Trazado 127482" d="M339.662,1318.553a5.037,5.037,0,0,1-.334,2.168,4.541,4.541,0,0,1-1.2,1.668,6.377,6.377,0,0,1-1.935,1.1,8.363,8.363,0,0,1-.867.234l.067,1.034a1.064,1.064,0,0,1-1,1.167h0a1.144,1.144,0,0,1-1.2-1.034l-.067-.867c-.4,0-.8,0-1.168-.033a14.456,14.456,0,0,1-1.434-.233,5.792,5.792,0,0,1-1.068-.334,4.033,4.033,0,0,1-.667-.334,1,1,0,0,1-.334-.467,2.549,2.549,0,0,1-.133-.834,1.6,1.6,0,0,1,0-.567c0-.134.033-.267.033-.367a.342.342,0,0,1,.167-.2.473.473,0,0,1,.2-.067,1.018,1.018,0,0,1,.6.167,7.169,7.169,0,0,0,1,.467c.4.133.867.267,1.368.4a5.375,5.375,0,0,0,1.3.133l-.4-5.471-.167-.067a12.069,12.069,0,0,1-1.534-.567,5.089,5.089,0,0,1-1.368-.8,4.161,4.161,0,0,1-1.034-1.234,4.26,4.26,0,0,1-.467-1.734,4.539,4.539,0,0,1,.233-1.768,4.308,4.308,0,0,1,1.034-1.534,6.269,6.269,0,0,1,1.768-1.168c.3-.1.567-.2.9-.3l-.067-1a1.09,1.09,0,0,1,1.034-1.167h0a1.064,1.064,0,0,1,1.167,1l.067.9a6.409,6.409,0,0,1,.8.033,6.077,6.077,0,0,1,1.168.2,5.269,5.269,0,0,1,.934.267c.233.133.434.2.567.3a1,1,0,0,1,.267.234.538.538,0,0,1,.134.233,1.686,1.686,0,0,0,.067.3c.033.133.033.267.067.467v.5a1.2,1.2,0,0,1-.067.367.306.306,0,0,1-.134.2.474.474,0,0,1-.2.067,1.053,1.053,0,0,1-.5-.167c-.2-.1-.467-.2-.8-.334a8.819,8.819,0,0,0-1.2-.334,4.117,4.117,0,0,0-.967-.1l.367,5.1a4.754,4.754,0,0,0,.534.167c.534.167,1.067.367,1.568.567a5.629,5.629,0,0,1,1.4.767,3.948,3.948,0,0,1,1.5,2.869Zm-4.5,2.8a2.2,2.2,0,0,0,.734-.4,1.926,1.926,0,0,0,.634-.834,2.1,2.1,0,0,0,.167-1.134,1.635,1.635,0,0,0-.434-1.068,3.21,3.21,0,0,0-.967-.734c-.133-.067-.267-.134-.434-.2Zm-3.036-11.875a2.053,2.053,0,0,0-.634.4,1.8,1.8,0,0,0-.5.734,2.81,2.81,0,0,0-.134.9,1.839,1.839,0,0,0,.434,1.1,3.241,3.241,0,0,0,1,.734c.033.033.067.033.1.067Z" transform="translate(-316 -1297.231)" fill="#f37521" fill-rule="evenodd"/>
    <path id="Trazado_127483" data-name="Trazado 127483" d="M321.009,1304.583l-.2,3.136,3.069.767-3.136-.2-.767,3.069.2-3.136-3.069-.767,3.136.2Z" transform="translate(-306.954 -1296.937)" fill="#fff" fill-rule="evenodd"/>
  </g>
  <g id="Grupo_93037" data-name="Grupo 93037" transform="translate(277.471 168.681)">
    <g id="Grupo_93028" data-name="Grupo 93028" transform="translate(7.909 4.445)">
      <path id="Trazado_127484" data-name="Trazado 127484" d="M1754.8,1124.082c-.472,1.108-2.424,2.016-2.724,3.777a2.593,2.593,0,1,0,2.724-3.777Z" transform="translate(-1751.966 -1124.042)" fill="#a5ca39" fill-rule="evenodd"/>
      <path id="Trazado_127485" data-name="Trazado 127485" d="M1753.26,1132.179l-.011-.011a5.084,5.084,0,0,1-1.305-4.506,4.748,4.748,0,0,1,1.656-2.491,4.577,4.577,0,0,0,1.069-1.292l.013-.031.024.023a5.335,5.335,0,0,1-1.432,8.3Zm1.438-8.25a4.767,4.767,0,0,1-1.066,1.276,4.712,4.712,0,0,0-1.643,2.465,2.568,2.568,0,1,0,2.709-3.741Z" transform="translate(-1751.859 -1123.85)" fill="#a5ca39"/>
    </g>
    <g id="Grupo_93029" data-name="Grupo 93029" transform="translate(0.77 10.845)">
      <path id="Trazado_127486" data-name="Trazado 127486" d="M1710.215,1163.59c1.18-.291,2.388-2.07,4.177-2.079a2.595,2.595,0,1,1-4.177,2.079Z" transform="translate(-1710.177 -1161.488)" fill="#a5ca39" fill-rule="evenodd"/>
      <path id="Trazado_127487" data-name="Trazado 127487" d="M1714.186,1165.508a5.076,5.076,0,0,1-4.174-2.017l-.019-.027.032-.008a4.606,4.606,0,0,0,1.457-.851,4.736,4.736,0,0,1,2.725-1.229h.058a5.051,5.051,0,0,1,4.174,2.017l.009.013-.009.013a5.049,5.049,0,0,1-4.2,2.089Zm-4.118-2.016a5.286,5.286,0,1,0,4.139-2.07,4.7,4.7,0,0,0-2.7,1.22A4.787,4.787,0,0,1,1710.069,1163.492Z" transform="translate(-1709.993 -1161.376)" fill="#a5ca39"/>
    </g>
    <g id="Grupo_93030" data-name="Grupo 93030">
      <path id="Trazado_127488" data-name="Trazado 127488" d="M1705.907,1110.713a15.749,15.749,0,1,1,12.5,18.422,15.752,15.752,0,0,1-12.5-18.422Z" transform="translate(-1705.599 -1097.902)" fill="#faec16" fill-rule="evenodd"/>
      <path id="Trazado_127489" data-name="Trazado 127489" d="M1721.294,1129.327a15.912,15.912,0,0,1-3.009-.288,15.766,15.766,0,0,1-12.521-18.449h0a15.768,15.768,0,1,1,15.53,18.738Zm-15.485-18.729h0a15.726,15.726,0,1,0,18.4-12.484,15.619,15.619,0,0,0-18.4,12.484Z" transform="translate(-1705.478 -1097.782)" fill="#faec16"/>
    </g>
    <g id="Grupo_93031" data-name="Grupo 93031" transform="translate(1.669 0.997)">
      <path id="Trazado_127490" data-name="Trazado 127490" d="M1715.676,1115.87a14.908,14.908,0,1,1,11.831,17.451,14.917,14.917,0,0,1-11.831-17.451Z" transform="translate(-1715.384 -1103.747)" fill="#f9ce0d" fill-rule="evenodd"/>
      <path id="Trazado_127491" data-name="Trazado 127491" d="M1730.229,1133.5a15.084,15.084,0,0,1-2.845-.272,14.939,14.939,0,0,1-11.849-17.478h0a14.927,14.927,0,1,1,14.694,17.75Zm-14.649-17.741A14.885,14.885,0,1,0,1733,1103.943a14.916,14.916,0,0,0-17.424,11.813Z" transform="translate(-1715.265 -1103.628)" fill="#f9ce0d"/>
    </g>
    <g id="Grupo_93032" data-name="Grupo 93032" transform="translate(2.655 1.983)">
      <path id="Trazado_127492" data-name="Trazado 127492" d="M1735.1,1137.394a13.924,13.924,0,1,0-13.919-13.919,13.952,13.952,0,0,0,13.919,13.919Z" transform="translate(-1721.16 -1109.524)" fill="#fff" fill-rule="evenodd"/>
      <path id="Trazado_127493" data-name="Trazado 127493" d="M1734.991,1137.3a13.946,13.946,0,1,1,13.951-13.942A13.844,13.844,0,0,1,1734.991,1137.3Zm0-27.847a13.9,13.9,0,1,0,13.905,13.905A13.917,13.917,0,0,0,1734.991,1109.458Z" transform="translate(-1721.049 -1109.412)" fill="#fff"/>
    </g>
    <g id="Grupo_93033" data-name="Grupo 93033" transform="translate(2.955 2.292)">
      <path id="Trazado_127494" data-name="Trazado 127494" d="M1736.56,1138.6a13.619,13.619,0,1,0-13.619-13.62,13.642,13.642,0,0,0,13.619,13.62Z" transform="translate(-1722.918 -1111.334)" fill="#d58a28" fill-rule="evenodd"/>
      <path id="Trazado_127495" data-name="Trazado 127495" d="M1736.448,1138.507a13.642,13.642,0,1,1,13.642-13.642A13.658,13.658,0,0,1,1736.448,1138.507Zm0-27.239a13.6,13.6,0,1,0,13.6,13.6A13.612,13.612,0,0,0,1736.448,1111.268Z" transform="translate(-1722.806 -1111.222)" fill="#d58a28"/>
    </g>
    <g id="Grupo_93034" data-name="Grupo 93034" transform="translate(3.209 2.546)">
      <path id="Trazado_127496" data-name="Trazado 127496" d="M1737.8,1139.578a13.365,13.365,0,1,0-13.365-13.365,13.394,13.394,0,0,0,13.365,13.365Z" transform="translate(-1724.408 -1112.825)" fill="#f9ce0d" fill-rule="evenodd"/>
      <path id="Trazado_127497" data-name="Trazado 127497" d="M1737.685,1139.489a13.388,13.388,0,1,1,13.388-13.388A13.294,13.294,0,0,1,1737.685,1139.489Zm0-26.73a13.342,13.342,0,1,0,13.342,13.342A13.357,13.357,0,0,0,1737.685,1112.759Z" transform="translate(-1724.297 -1112.713)" fill="#f9ce0d"/>
    </g>
    <g id="Grupo_93035" data-name="Grupo 93035" transform="translate(10.223 4.24)">
      <path id="Trazado_127498" data-name="Trazado 127498" d="M1778.186,1138.452a5.8,5.8,0,0,1-.509,2.47,5.055,5.055,0,0,1-1.453,1.816,6.6,6.6,0,0,1-2.243,1.126,11.275,11.275,0,0,1-1.153.254v1.289a.61.61,0,0,1-.608.617h-.826a.61.61,0,0,1-.608-.617v-1.171a11.485,11.485,0,0,1-3.069-.518,9.454,9.454,0,0,1-1.171-.472,3.243,3.243,0,0,1-.69-.445,1.119,1.119,0,0,1-.327-.563,3.918,3.918,0,0,1-.1-.981,4.117,4.117,0,0,1,.036-.635,2.471,2.471,0,0,1,.1-.427.534.534,0,0,1,.172-.236.461.461,0,0,1,.254-.064,1.428,1.428,0,0,1,.645.272c.291.182.645.372,1.062.59a9.467,9.467,0,0,0,1.489.581,6.061,6.061,0,0,0,1.6.272v-6.31l-.39-.154a18.087,18.087,0,0,1-1.653-.772,6.388,6.388,0,0,1-1.453-1.053,4.731,4.731,0,0,1-1.407-3.55,5.174,5.174,0,0,1,.409-2.025,4.709,4.709,0,0,1,1.226-1.707,6.372,6.372,0,0,1,2.061-1.171,6.7,6.7,0,0,1,1.208-.309v-1.3a.61.61,0,0,1,.608-.617h.826a.61.61,0,0,1,.608.617v1.171a8.73,8.73,0,0,1,1.071.118,9.072,9.072,0,0,1,1.3.318,5.457,5.457,0,0,1,.99.4,4.312,4.312,0,0,1,.626.391,1.251,1.251,0,0,1,.272.281.715.715,0,0,1,.109.272c.018.1.036.218.064.363a4.588,4.588,0,0,1,.027.536,5.514,5.514,0,0,1-.027.59,1.47,1.47,0,0,1-.109.409.459.459,0,0,1-.172.227.369.369,0,0,1-.218.073,1.221,1.221,0,0,1-.526-.227,7.425,7.425,0,0,0-.881-.472,8.734,8.734,0,0,0-1.271-.472,4.759,4.759,0,0,0-1.253-.209v5.884l.781.309c.572.227,1.126.481,1.68.763a6.406,6.406,0,0,1,1.471,1.017,4.478,4.478,0,0,1,1.426,3.45Zm-5.357,2.942a3.33,3.33,0,0,0,1.035-.5,2.283,2.283,0,0,0,.771-.89,2.869,2.869,0,0,0,.273-1.289,2.085,2.085,0,0,0-.391-1.28,3.758,3.758,0,0,0-1.026-.926,6.577,6.577,0,0,0-.663-.363Zm-2.043-14.146a2.6,2.6,0,0,0-.917.49,2.271,2.271,0,0,0-.617.826,2.46,2.46,0,0,0-.218,1.035,2.139,2.139,0,0,0,.409,1.307,3.69,3.69,0,0,0,1.035.935c.1.054.2.118.309.172Z" transform="translate(-1765.429 -1122.645)" fill="#fff" fill-rule="evenodd"/>
    </g>
    <g id="Grupo_93036" data-name="Grupo 93036" transform="translate(2.749 5.282)">
      <path id="Trazado_127499" data-name="Trazado 127499" d="M1725.169,1128.767l.227,3.341,3.341.227-3.341.227-.227,3.332-.227-3.332-3.332-.227,3.332-.227Z" transform="translate(-1721.608 -1128.766)" fill="#fff" fill-rule="evenodd"/>
      <path id="Trazado_127500" data-name="Trazado 127500" d="M1725.138,1135.889l-.226-3.312-3.312-.225v-.046l3.312-.226.226-3.321h.046l.226,3.321,3.321.226v.046l-3.321.225-.226,3.312Zm-3.2-3.561,3.016.205.206,3.016.206-3.016,3.024-.205-3.024-.206-.206-3.024-.206,3.024Z" transform="translate(-1721.6 -1128.759)" fill="#fff"/>
    </g>
  </g>
  <g id="Grupo_93038" data-name="Grupo 93038" transform="translate(32.817 2.558)">
    <path id="Trazado_127501" data-name="Trazado 127501" d="M287.531,123.621A16.739,16.739,0,1,1,270.8,140.369a16.742,16.742,0,0,1,16.731-16.748Z" transform="translate(-270.8 -123.621)" fill="#faec16"/>
    <path id="Trazado_127502" data-name="Trazado 127502" d="M302.648,141.947a13.623,13.623,0,1,1-13.623,13.623,13.632,13.632,0,0,1,13.623-13.623Z" transform="translate(-285.917 -138.822)" fill="#f19d21"/>
    <path id="Trazado_127503" data-name="Trazado 127503" d="M305.335,148.326a13.079,13.079,0,1,1-13.07,13.088,13.09,13.09,0,0,1,13.07-13.088Z" transform="translate(-288.605 -144.113)" fill="#f9ce0d"/>
    <path id="Trazado_127504" data-name="Trazado 127504" d="M347.628,181a4.939,4.939,0,0,1-.432,2.141,4.276,4.276,0,0,1-1.26,1.571,5.806,5.806,0,0,1-1.934.967c-.276.069-.552.138-.846.19v.553a.763.763,0,0,1-.742.76h-.57a.763.763,0,0,1-.742-.76v-.432a6.409,6.409,0,0,1-1.157-.121,8.62,8.62,0,0,1-1.347-.311,8.458,8.458,0,0,1-1-.414,2.649,2.649,0,0,1-.6-.38.9.9,0,0,1-.276-.483,2.817,2.817,0,0,1-.1-.846,2.4,2.4,0,0,1,.052-.553,3.457,3.457,0,0,1,.069-.363.334.334,0,0,1,.155-.207.459.459,0,0,1,.207-.052,1.154,1.154,0,0,1,.57.224c.242.155.553.328.915.518a10.419,10.419,0,0,0,1.278.5,5.757,5.757,0,0,0,1.709.242,4.393,4.393,0,0,0,1.312-.173,2.617,2.617,0,0,0,1.019-.449,2.077,2.077,0,0,0,.673-.777,2.5,2.5,0,0,0,.225-1.122,1.82,1.82,0,0,0-.328-1.105,3.6,3.6,0,0,0-.881-.794,7.752,7.752,0,0,0-1.26-.6c-.449-.19-.932-.363-1.416-.57a15.261,15.261,0,0,1-1.433-.656,5.511,5.511,0,0,1-1.243-.915,3.93,3.93,0,0,1-.881-1.278,4.3,4.3,0,0,1-.345-1.778,4.347,4.347,0,0,1,.363-1.761,3.981,3.981,0,0,1,1.053-1.468,5.719,5.719,0,0,1,1.778-1.019,6.832,6.832,0,0,1,.9-.242v-.725a.748.748,0,0,1,.742-.742h.57a.748.748,0,0,1,.742.742v.6c.259.017.518.052.777.086a8.218,8.218,0,0,1,1.122.276,5.989,5.989,0,0,1,.863.345,4.937,4.937,0,0,1,.535.345,1.054,1.054,0,0,1,.242.242.864.864,0,0,1,.086.224c.017.086.035.19.052.328a3.624,3.624,0,0,1,.017.466,4.38,4.38,0,0,1-.017.5,1.437,1.437,0,0,1-.086.345.5.5,0,0,1-.155.207.349.349,0,0,1-.19.052,1.078,1.078,0,0,1-.449-.19c-.19-.121-.449-.259-.76-.414a8.015,8.015,0,0,0-1.105-.4,4.555,4.555,0,0,0-1.433-.207,4.8,4.8,0,0,0-1.295.173,2.216,2.216,0,0,0-.9.466,1.65,1.65,0,0,0-.535.708,1.952,1.952,0,0,0-.19.9,1.81,1.81,0,0,0,.345,1.122,3.414,3.414,0,0,0,.9.811,8.575,8.575,0,0,0,1.26.622c.483.19.949.38,1.45.57.483.19.967.415,1.45.656a5.494,5.494,0,0,1,1.26.881,3.829,3.829,0,0,1,.9,1.243,4.109,4.109,0,0,1,.328,1.727Z" transform="translate(-325.389 -160.07)" fill="#e54e25"/>
    <path id="Trazado_127505" data-name="Trazado 127505" d="M390.386,148.528l.294,3.85,3.85.294-3.85.294-.294,3.85-.294-3.85-3.868-.294,3.868-.294Z" transform="translate(-366.541 -144.281)" fill="#fff"/>
  </g>
</svg>
