<svg xmlns="http://www.w3.org/2000/svg" xmlns:xlink="http://www.w3.org/1999/xlink" width="85" height="85" viewBox="0 0 85 85">
  <defs>
    <clipPath id="clip-path">
      <rect id="Rectángulo_35927" data-name="Rectángulo 35927" width="85" height="85" transform="translate(285 4028)" fill="#fff" stroke="#707070" stroke-width="1"/>
    </clipPath>
  </defs>
  <g id="Enmascarar_grupo_120" data-name="Enmascarar grupo 120" transform="translate(-285 -4028)" clip-path="url(#clip-path)">
    <g id="trabajo-en-equipo" transform="translate(283.629 4026.629)">
      <g id="Grupo_92767" data-name="Grupo 92767">
        <g id="Grupo_92745" data-name="Grupo 92745">
          <path id="Trazado_127100" data-name="Trazado 127100" d="M63.736,62.6,71.29,72.661,78.844,62.6A13.677,13.677,0,0,1,85,74.032V85H67.177V78.145a13.677,13.677,0,0,0-6.156-11.434c-.3-.206-.617-.4-.932-.576A13.562,13.562,0,0,1,63.736,62.6Z" fill="#5cd6b3"/>
        </g>
        <g id="Grupo_92746" data-name="Grupo 92746">
          <path id="Trazado_127101" data-name="Trazado 127101" d="M71.29,60.323V72.661L63.736,62.6A13.586,13.586,0,0,1,71.29,60.323Z" fill="#ccd1d9"/>
        </g>
        <g id="Grupo_92747" data-name="Grupo 92747">
          <path id="Trazado_127102" data-name="Trazado 127102" d="M78.844,62.6,71.29,72.661V60.323A13.586,13.586,0,0,1,78.844,62.6Z" fill="#ccd1d9"/>
        </g>
        <g id="Grupo_92748" data-name="Grupo 92748">
          <path id="Trazado_127103" data-name="Trazado 127103" d="M42.5,80.887a4.078,4.078,0,0,0-2.7-3.852v-.014A13.757,13.757,0,0,1,45.914,66.7l7.554,10.077,7.554-10.063a13.677,13.677,0,0,1,6.156,11.434V85H38.387A4.119,4.119,0,0,0,42.5,80.887Z" fill="#ff826e"/>
        </g>
        <g id="Grupo_92749" data-name="Grupo 92749">
          <path id="Trazado_127104" data-name="Trazado 127104" d="M61.022,66.711,53.468,76.774V64.435a13.665,13.665,0,0,1,6.622,1.7c.315.178.631.37.932.576Z" fill="#e6e9ed"/>
        </g>
        <g id="Grupo_92750" data-name="Grupo 92750">
          <path id="Trazado_127105" data-name="Trazado 127105" d="M53.468,64.435V76.774L45.914,66.7c.3-.192.617-.384.932-.562A13.665,13.665,0,0,1,53.468,64.435Z" fill="#e6e9ed"/>
        </g>
        <g id="Grupo_92751" data-name="Grupo 92751">
          <path id="Trazado_127106" data-name="Trazado 127106" d="M43.2,62.6a13.562,13.562,0,0,1,3.647,3.537c-.315.178-.631.37-.932.562A13.757,13.757,0,0,0,39.8,77.021v.014a3.745,3.745,0,0,0-1.412-.26h-9.6V74.2a18.131,18.131,0,0,0-2.948-9.748A12.711,12.711,0,0,1,28.1,62.6l7.54,10.063Z" fill="#5cd6b3"/>
        </g>
        <g id="Grupo_92752" data-name="Grupo 92752">
          <path id="Trazado_127107" data-name="Trazado 127107" d="M43.2,62.6,35.645,72.661V60.323a13.585,13.585,0,0,1,6.4,1.59A12.137,12.137,0,0,1,43.2,62.6Z" fill="#ccd1d9"/>
        </g>
        <g id="Grupo_92753" data-name="Grupo 92753">
          <path id="Trazado_127108" data-name="Trazado 127108" d="M35.645,60.323V72.661L28.1,62.6A13.575,13.575,0,0,1,35.645,60.323Z" fill="#ccd1d9"/>
        </g>
        <g id="Grupo_92754" data-name="Grupo 92754">
          <path id="Trazado_127109" data-name="Trazado 127109" d="M38.387,76.774a3.745,3.745,0,0,1,1.412.26A4.108,4.108,0,0,1,38.387,85H34.274V76.774Z" fill="#f0d0b4"/>
        </g>
        <g id="Grupo_92755" data-name="Grupo 92755">
          <path id="Trazado_127110" data-name="Trazado 127110" d="M28.79,76.774h5.484V85H21.5a11.571,11.571,0,0,1-9.816-5.443A22.468,22.468,0,0,1,9.1,73.785a23,23,0,0,1-.877-6.279V66.135a14.049,14.049,0,0,1,2.852-8.473l.027.027,8.089,6.745,2.276-4.524a17.692,17.692,0,0,1,4.044,4.044c.11.165.233.329.329.494A18.131,18.131,0,0,1,28.79,74.2Z" fill="#4fc1e9"/>
        </g>
        <g id="Grupo_92756" data-name="Grupo 92756">
          <path id="Trazado_127111" data-name="Trazado 127111" d="M16.027,57.265a17.8,17.8,0,0,1,4.538,2.029c.315.206.617.4.9.6v.014l-2.276,4.524L11.1,57.69l-.027-.027a14.087,14.087,0,0,1,1.261-1.453Z" fill="#3bafda"/>
        </g>
        <g id="Grupo_92757" data-name="Grupo 92757">
          <path id="Trazado_127112" data-name="Trazado 127112" d="M63.9,53.715a10.583,10.583,0,0,1-2.742,4.3l-.973.932a6.46,6.46,0,0,0,.137-1.371V54.455a1.389,1.389,0,0,0-.932-1.3,14.162,14.162,0,0,1-5.552-3.427l-.37-.37-.37.37a14.162,14.162,0,0,1-5.552,3.427,1.389,1.389,0,0,0-.932,1.3v3.126a6.46,6.46,0,0,0,.137,1.371l-.973-.932A10.471,10.471,0,0,1,42.5,50.383V49.355a8.215,8.215,0,0,1,1.645-4.935,7.777,7.777,0,0,1,2-1.906,8.222,8.222,0,0,1,4.579-1.385H56.21a8.229,8.229,0,0,1,3.674.864,7.377,7.377,0,0,1,.9.521,7.777,7.777,0,0,1,2,1.906,8.215,8.215,0,0,1,1.645,4.935v1.028A10.528,10.528,0,0,1,63.9,53.715Z" fill="#656d78"/>
        </g>
        <g id="Grupo_92758" data-name="Grupo 92758">
          <path id="Trazado_127113" data-name="Trazado 127113" d="M78.145,50.342a1.389,1.389,0,0,0-.932-1.3,14.162,14.162,0,0,1-5.552-3.427l-.37-.37-.37.37a14.162,14.162,0,0,1-5.552,3.427,1.389,1.389,0,0,0-.932,1.3v-.987a8.215,8.215,0,0,0-1.645-4.935,7.777,7.777,0,0,0-2-1.906,8.162,8.162,0,0,1,1.179-2.207A7.361,7.361,0,0,1,63.448,38.8c0-.014.014-.014.014-.027a8.258,8.258,0,0,1,5.086-1.755h5.484a8.251,8.251,0,0,1,3.359.713c.11.055.219.11.315.151a8,8,0,0,1,2.906,2.427,8.215,8.215,0,0,1,1.645,4.935V46.27a10.471,10.471,0,0,1-3.277,7.636l-.973.932a6.46,6.46,0,0,0,.137-1.371Z" fill="#b27946"/>
        </g>
        <g id="Grupo_92759" data-name="Grupo 92759">
          <path id="Trazado_127114" data-name="Trazado 127114" d="M29.723,49.04a1.425,1.425,0,0,0-.781.685l-.727-.356v-.014a6.773,6.773,0,0,0,.576-2.742V42.5h2.742a22.9,22.9,0,0,0-.59-5.251h.014a8.4,8.4,0,0,1,1.947-.233h5.484a8.229,8.229,0,0,1,3.674.864,7.374,7.374,0,0,1,1.426.9,7.8,7.8,0,0,1,1.481,1.522,8.162,8.162,0,0,1,1.179,2.207,7.777,7.777,0,0,0-2,1.906A8.215,8.215,0,0,0,42.5,49.355v.987a1.389,1.389,0,0,0-.932-1.3,14.162,14.162,0,0,1-5.552-3.427l-.37-.37-.37.37a14.162,14.162,0,0,1-5.552,3.427Z" fill="#b27946"/>
        </g>
        <g id="Grupo_92760" data-name="Grupo 92760">
          <path id="Trazado_127115" data-name="Trazado 127115" d="M20.044,33.506a8.314,8.314,0,0,0-3.318,2.481l-3.016,3.77A2.762,2.762,0,0,0,10.968,42.5a3.3,3.3,0,0,0,.973,2.344l1.769,1.769-.836,5.9L6.361,46.969A10.325,10.325,0,0,1,2.742,39.1v-.562a15.24,15.24,0,0,1,.946-5.278A15.04,15.04,0,0,1,6.4,28.626a15.284,15.284,0,0,1,11.571-5.319h6.553a5.674,5.674,0,0,1,3.99,1.645,5.9,5.9,0,0,1,.535.631,5.641,5.641,0,0,1,1.11,3.359,5.347,5.347,0,0,1-5.333,5.333H22.086a3.019,3.019,0,0,1-2.043-.768Z" fill="#656d78"/>
        </g>
        <g id="Grupo_92761" data-name="Grupo 92761">
          <path id="Trazado_127116" data-name="Trazado 127116" d="M80.092,26.048a5.462,5.462,0,0,1-5.059-3.386c-.014-.027-.027-.041-.027-.069a5.481,5.481,0,0,1,1.165-6l1.535-1.535-7.76-7.76L68.411,8.829a5.481,5.481,0,0,1-6,1.165c-.027,0-.041-.014-.069-.027a5.462,5.462,0,0,1-3.386-5.059V2.742H47.984V4.908A5.462,5.462,0,0,1,44.6,9.967c-.027.014-.041.027-.069.027a5.481,5.481,0,0,1-6-1.165L36.989,7.294l-7.76,7.76,1.535,1.535a5.481,5.481,0,0,1,1.165,6c0,.027-.014.041-.027.069a5.455,5.455,0,0,1-2.852,2.92,5.641,5.641,0,0,1,1.11,3.359,5.3,5.3,0,0,1-1.069,3.194,21.6,21.6,0,0,1,1.851,5.114h.014a8.4,8.4,0,0,1,1.947-.233h3.606a17.823,17.823,0,1,1,33.918,0h3.606a8.251,8.251,0,0,1,3.359.713,5.514,5.514,0,0,1,2.7-.713h2.166V26.048Z" fill="#ffc729"/>
        </g>
        <g id="Grupo_92762" data-name="Grupo 92762">
          <path id="Trazado_127117" data-name="Trazado 127117" d="M63.462,38.771a12.341,12.341,0,1,0-19.975.014,7.374,7.374,0,0,0-1.426-.9,8.229,8.229,0,0,0-3.674-.864H36.509a17.823,17.823,0,1,1,33.918,0H68.548a8.258,8.258,0,0,0-5.086,1.755Z" fill="#fcd770"/>
        </g>
        <g id="Grupo_92763" data-name="Grupo 92763">
          <path id="Trazado_127118" data-name="Trazado 127118" d="M78.145,50.342v3.126a6.46,6.46,0,0,1-.137,1.371,6.854,6.854,0,0,1-13.573-1.371V50.342a1.389,1.389,0,0,1,.932-1.3,14.162,14.162,0,0,0,5.552-3.427l.37-.37.37.37a14.162,14.162,0,0,0,5.552,3.427A1.389,1.389,0,0,1,78.145,50.342Z" fill="#f0d0b4"/>
        </g>
        <g id="Grupo_92764" data-name="Grupo 92764">
          <path id="Trazado_127119" data-name="Trazado 127119" d="M60.323,54.455v3.126a6.46,6.46,0,0,1-.137,1.371,6.853,6.853,0,0,1-13.435,0,6.46,6.46,0,0,1-.137-1.371V54.455a1.389,1.389,0,0,1,.932-1.3A14.162,14.162,0,0,0,53.1,49.725l.37-.37.37.37a14.162,14.162,0,0,0,5.552,3.427A1.389,1.389,0,0,1,60.323,54.455Z" fill="#f0d0b4"/>
        </g>
        <g id="Grupo_92765" data-name="Grupo 92765">
          <path id="Trazado_127120" data-name="Trazado 127120" d="M42.5,50.383v3.085a6.855,6.855,0,1,1-13.71,0V50.342a1.324,1.324,0,0,1,.151-.617,1.425,1.425,0,0,1,.781-.685,14.162,14.162,0,0,0,5.552-3.427l.37-.37.37.37a14.162,14.162,0,0,0,5.552,3.427,1.389,1.389,0,0,1,.932,1.3Z" fill="#f0d0b4"/>
        </g>
        <g id="Grupo_92766" data-name="Grupo 92766">
          <path id="Trazado_127121" data-name="Trazado 127121" d="M28.215,49.355v.014a6.848,6.848,0,0,1-6.279,4.1H20.565v5.827a17.8,17.8,0,0,0-4.538-2.029L12.339,56.21l.535-3.7.836-5.9-1.769-1.769a3.3,3.3,0,0,1-.973-2.344,2.762,2.762,0,0,1,2.742-2.742l3.016-3.77a8.314,8.314,0,0,1,3.318-2.481,3.019,3.019,0,0,0,2.043.768h2.742a5.31,5.31,0,0,0,4.264-2.139,21.6,21.6,0,0,1,1.851,5.114,22.9,22.9,0,0,1,.59,5.251H28.79v4.113a6.773,6.773,0,0,1-.576,2.742Z" fill="#f0d0b4"/>
        </g>
      </g>
      <g id="Grupo_92768" data-name="Grupo 92768">
        <path id="Trazado_127122" data-name="Trazado 127122" d="M76.437,59.876a8.232,8.232,0,0,0,2.8-4.312l.7-.664a11.915,11.915,0,0,0,3.7-8.627V45.242a9.642,9.642,0,0,0-1.919-5.757,9.377,9.377,0,0,0-.984-1.1h2.9V24.677H80.1a4.195,4.195,0,0,1-2.95-7.124l2.5-2.5-9.7-9.7-2.5,2.5A4.2,4.2,0,0,1,60.323,4.9V1.371H46.613V4.9A4.132,4.132,0,0,1,44,8.736a4.109,4.109,0,0,1-4.513-.882l-2.5-2.5-9.7,9.7,2.5,2.5a4.145,4.145,0,0,1,.851,4.585A4.093,4.093,0,0,1,29.3,23.844a6.957,6.957,0,0,0-4.774-1.908H17.973a16.607,16.607,0,0,0-16.6,16.6V39.1a11.729,11.729,0,0,0,4.1,8.917L11.4,53.062l-.363,2.54A15.3,15.3,0,0,0,6.855,66.138v1.371a24.1,24.1,0,0,0,3.666,12.78,12.863,12.863,0,0,0,10.972,6.082H86.371V74.032a15.092,15.092,0,0,0-9.934-14.157ZM65.806,83.629h-22.7a5.4,5.4,0,0,0-1.823-7.379,12.316,12.316,0,0,1,4.368-7.613L53.468,79.06,61.3,68.617a12.321,12.321,0,0,1,4.508,9.528ZM30.161,75.4V74.19a18.85,18.85,0,0,0-2.561-9.5c.071-.062.14-.125.212-.185l7.832,10.445,7.823-10.432a12.255,12.255,0,0,1,1.378,1.305,15.114,15.114,0,0,0-6.212,9.609c-.082,0-.162-.026-.247-.026ZM12.906,43.871a1.928,1.928,0,0,1-.568-1.371,1.371,1.371,0,0,1,1.371-1.371h.658l3.426-4.282a6.837,6.837,0,0,1,2.137-1.762,4.474,4.474,0,0,0,2.151.559h2.742a6.662,6.662,0,0,0,3.81-1.2,20.8,20.8,0,0,1,1.488,6.682h-2.7v5.484a5.4,5.4,0,0,1-.195,1.371H25A3.571,3.571,0,0,1,21.79,46l-2.453,1.227A6.305,6.305,0,0,0,25,50.726h.524A5.432,5.432,0,0,1,21.935,52.1H16.452v2.742h2.742V57a18.966,18.966,0,0,0-2.8-1.054l-2.531-.722,1.3-9.092Zm24.11-12.339a16.452,16.452,0,1,1,32.377,4.113h-.845a9.553,9.553,0,0,0-2.077.237,13.71,13.71,0,1,0-26.006,0,9.575,9.575,0,0,0-2.078-.237h-.845A16.479,16.479,0,0,1,37.016,31.532ZM63.065,50.343v.042A9.05,9.05,0,0,1,61.694,55.2v-.739a2.735,2.735,0,0,0-1.874-2.6,12.873,12.873,0,0,1-5.007-3.1l-1.345-1.345L52.124,48.76a12.869,12.869,0,0,1-5.005,3.094,2.739,2.739,0,0,0-1.877,2.6V55.2a9.05,9.05,0,0,1-1.371-4.809V49.355A6.855,6.855,0,0,1,50.726,42.5H56.21a6.857,6.857,0,0,1,6.855,6.855ZM58.99,67.127l-4.151,5.535V65.887A12.23,12.23,0,0,1,58.99,67.127ZM40.8,59.872a8.267,8.267,0,0,0,2.3-2.945,11.818,11.818,0,0,0,1.727,2.085l.7.665a8.235,8.235,0,0,0,2.805,4.316c-.367.134-.725.285-1.079.447A15.118,15.118,0,0,0,40.8,59.872Zm-10.636-6.4V50.343a15.616,15.616,0,0,0,5.484-3.193,15.637,15.637,0,0,0,5.484,3.193v3.124a5.484,5.484,0,0,1-10.968,0Zm4.113,15.081-4.155-5.541a12.216,12.216,0,0,1,4.155-1.234Zm2.742-6.771a12.314,12.314,0,0,1,4.153,1.235l-4.153,5.536ZM52.1,65.891v6.77l-4.15-5.532A12.2,12.2,0,0,1,52.1,65.891Zm1.371-2.827a5.489,5.489,0,0,1-5.484-5.484V54.456a15.616,15.616,0,0,0,5.484-3.193,15.637,15.637,0,0,0,5.484,3.193v3.124A5.489,5.489,0,0,1,53.468,63.065ZM56.21,39.758H50.726a9.6,9.6,0,0,0-3.936.865,9.288,9.288,0,0,0-2.259-2.75,10.862,10.862,0,0,1-2.03-6.341,10.968,10.968,0,1,1,19.906,6.339,9.25,9.25,0,0,0-2.262,2.753,9.564,9.564,0,0,0-3.935-.866ZM38.387,38.387a6.8,6.8,0,0,1,6.082,3.706,9.474,9.474,0,0,0-1.42,1.5,9.618,9.618,0,0,0-1.711,3.883,12.867,12.867,0,0,1-4.349-2.832L35.645,43.3,34.3,44.647a12.878,12.878,0,0,1-4.18,2.764c.025-.262.04-.528.04-.8V43.871H32.9V42.5a25.069,25.069,0,0,0-.336-4.092c.112-.005.223-.021.336-.021ZM15.644,58.58a16.211,16.211,0,0,1,4.044,1.8l-.949,1.9L13.611,58Zm6.291-.012V54.839a8.184,8.184,0,0,0,5.484-2.111v.74a8.205,8.205,0,0,0,3.072,6.4,14.937,14.937,0,0,0-4.452,2.539A19.072,19.072,0,0,0,21.935,58.568ZM59.7,64.427c-.354-.16-.714-.3-1.082-.439a8.232,8.232,0,0,0,2.8-4.312l.7-.664a11.946,11.946,0,0,0,1.729-2.087,8.267,8.267,0,0,0,2.3,2.945A15.1,15.1,0,0,0,59.7,64.427Zm10.223-2.65v6.771l-4.153-5.536A12.314,12.314,0,0,1,69.919,61.777Zm2.742,0a12.23,12.23,0,0,1,4.151,1.239l-4.151,5.535Zm4.113-8.307a5.484,5.484,0,0,1-10.968,0V50.343A15.616,15.616,0,0,0,71.29,47.15a15.637,15.637,0,0,0,5.484,3.193Zm4.113-7.195a9.05,9.05,0,0,1-1.371,4.809v-.739a2.735,2.735,0,0,0-1.874-2.6,12.873,12.873,0,0,1-5.007-3.1L71.29,43.3l-1.344,1.344A12.864,12.864,0,0,1,65.6,47.478a9.311,9.311,0,0,0-3.131-5.387,6.987,6.987,0,0,1,.6-.962,6.889,6.889,0,0,1,5.484-2.742h5.484a6.857,6.857,0,0,1,6.855,6.855ZM31.73,15.615l-.561-.561L36.99,9.233l.561.561a6.936,6.936,0,0,0,11.8-4.89V4.113h8.226V4.9a6.864,6.864,0,0,0,4.3,6.363,6.851,6.851,0,0,0,7.51-1.472l.561-.561,5.821,5.821-.561.561a6.936,6.936,0,0,0,4.889,11.8h.791v8.226H80.1a6.871,6.871,0,0,0-2.764.592,9.561,9.561,0,0,0-3.3-.592H72.207a19.194,19.194,0,1,0-37.48,0H32.9a9.3,9.3,0,0,0-.936.056,23.783,23.783,0,0,0-1.319-3.5,6.623,6.623,0,0,0,.884-3.266,6.936,6.936,0,0,0-.631-2.869,6.943,6.943,0,0,0,2.3-2.945,6.847,6.847,0,0,0-1.472-7.507ZM7.255,45.933A8.987,8.987,0,0,1,4.113,39.1v-.565a13.862,13.862,0,0,1,13.86-13.859h6.557a4.265,4.265,0,0,1,4.26,4.26A3.971,3.971,0,0,1,24.824,32.9H22.082A1.48,1.48,0,0,1,20.636,32a1.394,1.394,0,0,1,.2-1.278,1.362,1.362,0,0,1,1.1-.557h1.371V27.419H21.935a4.121,4.121,0,0,0-3.92,5.38c.021.067.053.128.078.192a9.62,9.62,0,0,0-2.442,2.143L13,38.449A4.118,4.118,0,0,0,9.6,42.5a4.647,4.647,0,0,0,1.371,3.31L12.255,47.1l-.393,2.754Zm5.589,32.9A21.356,21.356,0,0,1,9.6,67.509V66.138a12.59,12.59,0,0,1,1.762-6.446l8.288,6.9,2.28-4.56A16.073,16.073,0,0,1,27.419,74.19V75.4H21.412l-3.735-7.468-2.453,1.227,3.735,7.466a2.724,2.724,0,0,0,2.453,1.516H32.9v5.484H21.493A10.141,10.141,0,0,1,12.845,78.836Zm22.8,4.793V78.145h2.742a2.742,2.742,0,1,1,0,5.484Zm47.984,0H68.548V78.145A15.064,15.064,0,0,0,62.1,65.8a12.448,12.448,0,0,1,1.363-1.287L71.29,74.947,79.121,64.5a12.321,12.321,0,0,1,4.508,9.528Z"/>
        <circle id="Elipse_5128" data-name="Elipse 5128" cx="1.371" cy="1.371" r="1.371" transform="translate(52.097 6.855)"/>
        <path id="Trazado_127123" data-name="Trazado 127123" d="M36.987,16.423a1.371,1.371,0,1,0-.969-.4,1.367,1.367,0,0,0,.969.4Z"/>
        <circle id="Elipse_5129" data-name="Elipse 5129" cx="1.371" cy="1.371" r="1.371" transform="translate(75.403 30.161)"/>
        <path id="Trazado_127124" data-name="Trazado 127124" d="M69.948,16.423a1.371,1.371,0,1,0-.969-.4,1.367,1.367,0,0,0,.969.4Z"/>
      </g>
    </g>
  </g>
</svg>
