<svg xmlns="http://www.w3.org/2000/svg" xmlns:xlink="http://www.w3.org/1999/xlink" width="76" height="76" viewBox="0 0 76 76">
  <defs>
    <clipPath id="clip-path">
      <rect id="Rectángulo_34303" data-name="Rectángulo 34303" width="76" height="76" transform="translate(484 5195)" fill="#fff" stroke="#707070" stroke-width="1"/>
    </clipPath>
  </defs>
  <g id="Enmascarar_grupo_63" data-name="Enmascarar grupo 63" transform="translate(-484 -5195)" clip-path="url(#clip-path)">
    <g id="lluvia-de-ideas" transform="translate(489.138 5195)">
      <path id="Trazado_116673" data-name="Trazado 116673" d="M31.932,21.26v2.986A1.073,1.073,0,0,0,33,25.318H35.42a1.073,1.073,0,0,0,1.073-1.073V21.26a1.072,1.072,0,0,0-1.073-1.073H33A1.072,1.072,0,0,0,31.932,21.26Zm0,0" fill="#86919e"/>
      <path id="Trazado_116674" data-name="Trazado 116674" d="M23.1,32.984,11.388,13.565a2.794,2.794,0,0,0-3.84-.948L2.46,15.694a2.8,2.8,0,0,0-.949,3.845L13.543,39.494Zm0,0" fill="#84eaf5"/>
      <path id="Trazado_116675" data-name="Trazado 116675" d="M42.928,9.825a8.716,8.716,0,1,0-12.2,7.988v2.071a1.91,1.91,0,0,0,1.91,1.91h3.153a1.91,1.91,0,0,0,1.91-1.91V17.814a8.716,8.716,0,0,0,5.23-7.988Zm0,0" fill="#feda5f"/>
      <path id="Trazado_116676" data-name="Trazado 116676" d="M59.181,32.439l5.434-9.011L64.54,12.212l-9.957,5.174L49.218,26.28Zm0,0" fill="#fce49d"/>
      <path id="Trazado_116677" data-name="Trazado 116677" d="M58.763,21.795v0l-4.179-4.41-10.236,17,3.773,5.1L54.111,40.9l10.5-17.47Zm0,0" fill="#f4c84e"/>
      <path id="Trazado_116678" data-name="Trazado 116678" d="M54.111,40.9l10.5-17.47-5.852-1.634L49.968,36.313Zm0,0" fill="#feda5f"/>
      <path id="Trazado_116679" data-name="Trazado 116679" d="M64.54,12.212,60.984,14.06l3.583,2.205Zm0,0" fill="#86919e"/>
      <path id="Trazado_116680" data-name="Trazado 116680" d="M39.39,60.469H53.849A8.543,8.543,0,0,0,54.44,43.4a8.543,8.543,0,0,0-12.484-9.341,8.546,8.546,0,0,0-15.788,0,8.543,8.543,0,0,0-12.479,9.364,8.545,8.545,0,0,0,.886,17.043Zm0,0" fill="#f0a8d0"/>
      <path id="Trazado_116681" data-name="Trazado 116681" d="M54.441,43.4a8.543,8.543,0,0,0-11.59-9.772,8.541,8.541,0,0,1,5.08,9.772,8.543,8.543,0,0,1-.591,17.066h6.51A8.543,8.543,0,0,0,54.441,43.4Zm0,0" fill="#ea89bf"/>
      <path id="Trazado_116682" data-name="Trazado 116682" d="M31.752,43.54l8.082.1L35.369,55.177l7.384.194L27.018,74.9l5.474-14.438-6.821-.085Zm0,0" fill="#feda5f"/>
      <path id="Trazado_116683" data-name="Trazado 116683" d="M44.5,18.168l2.367,1.48a1.11,1.11,0,0,0,1.176-1.882l-2.367-1.479A1.11,1.11,0,0,0,44.5,18.168Zm0,0"/>
      <path id="Trazado_116684" data-name="Trazado 116684" d="M45.383,3.839a1.106,1.106,0,0,0,.587-.169l2.367-1.48A1.11,1.11,0,0,0,47.161.308l-2.367,1.48a1.118,1.118,0,0,0,.589,2.051Zm0,0"/>
      <path id="Trazado_116685" data-name="Trazado 116685" d="M46.048,9.978a1.109,1.109,0,0,0,1.109,1.11h2.959a1.11,1.11,0,0,0,0-2.219H47.157a1.109,1.109,0,0,0-1.109,1.109Zm0,0"/>
      <path id="Trazado_116686" data-name="Trazado 116686" d="M22.75,16.287l-2.367,1.479a1.11,1.11,0,0,0,1.176,1.882l2.367-1.48A1.11,1.11,0,0,0,22.75,16.287Zm0,0"/>
      <path id="Trazado_116687" data-name="Trazado 116687" d="M20.087,2.191,22.454,3.67A1.11,1.11,0,0,0,23.63,1.788L21.263.308a1.11,1.11,0,0,0-1.176,1.882Zm0,0"/>
      <path id="Trazado_116688" data-name="Trazado 116688" d="M18.308,11.088h2.959a1.11,1.11,0,0,0,0-2.219H18.308a1.11,1.11,0,0,0,0,2.219Zm0,0"/>
      <path id="Trazado_116689" data-name="Trazado 116689" d="M29.616,18.509v1.375a3.014,3.014,0,0,0,1.206,2.409v3.024a1.11,1.11,0,0,0,1.11,1.109h4.56A1.109,1.109,0,0,0,37.6,25.318V22.293a3.012,3.012,0,0,0,1.206-2.409V18.509a9.835,9.835,0,0,0,5.171-9.761,1.11,1.11,0,0,0-2.206.242A7.616,7.616,0,0,1,37.254,16.8a1.111,1.111,0,0,0-.665,1.017v2.071a.8.8,0,0,1-.8.8H32.636a.8.8,0,0,1-.8-.8V17.814A1.108,1.108,0,0,0,31.17,16.8a7.607,7.607,0,1,1,7.3-13.274,1.11,1.11,0,0,0,1.244-1.837,9.826,9.826,0,1,0-10.1,16.824Zm3.426,5.7V22.9h2.341v1.3Zm0,0"/>
      <path id="Trazado_116690" data-name="Trazado 116690" d="M60.126,33.02l.005-.007L65.565,24a1.128,1.128,0,0,0,.159-.58L65.65,12.205a1.12,1.12,0,0,0-1.621-.978L54.071,16.4c-.644.335-.972,1.3-1.317,1.868L44.459,32.022a9.662,9.662,0,0,0-1.989.565,9.657,9.657,0,0,0-16.816,0,9.7,9.7,0,0,0-1.824-.538L12.339,12.992a3.9,3.9,0,0,0-5.365-1.324L1.886,14.744A3.918,3.918,0,0,0,.561,20.113L12.5,39.919a9.664,9.664,0,0,0-.087,2.593,9.656,9.656,0,0,0,2.158,19.067h3.363a1.11,1.11,0,0,0,0-2.219H14.575a7.435,7.435,0,0,1-.772-14.83,1.12,1.12,0,0,0,.968-1.349A7.431,7.431,0,0,1,22.02,34.1a7.625,7.625,0,0,1,6.1,3.163,1.11,1.11,0,0,0,1.759-1.353A11.815,11.815,0,0,0,27.6,33.659a7.436,7.436,0,0,1,13.332.829,1.12,1.12,0,0,0,1.564.544,7.435,7.435,0,0,1,11.043,6.5,7.317,7.317,0,0,1-.052.863,7.961,7.961,0,0,0-4.419,1.849,1.11,1.11,0,0,0,1.57,1.569,6.271,6.271,0,0,1,3.834-1.259c3.792,0,6.812,3.768,6.812,7.37a7.443,7.443,0,0,1-7.435,7.435H40.965l2.652-3.292a1.126,1.126,0,0,0-.836-1.805l-5.809-.152,3.9-10.068a1.12,1.12,0,0,0-1.021-1.51l-8.082-.1a1.1,1.1,0,0,0-1.058.733l-6.07,16.815a1.127,1.127,0,0,0,.994,1.6h5.253l-4.9,12.933a1.117,1.117,0,0,0,1.9,1.09L39.193,61.56a1.115,1.115,0,0,0,.2.019H53.849a9.653,9.653,0,0,0,1.865-19.125c.057-.6-.217-1.759.072-2.239Zm-46.7,4.127L2.461,18.966a1.7,1.7,0,0,1,.573-2.323l5.088-3.077a1.683,1.683,0,0,1,2.315.572l1.152,1.91L9.506,17.309a1.11,1.11,0,0,0,1.149,1.9l2.081-1.259,2.25,3.731L11.651,23.7a1.11,1.11,0,0,0,1.149,1.9l3.332-2.015,2.25,3.731L16.3,28.571a1.11,1.11,0,1,0,1.149,1.9l2.081-1.259,1.632,2.707a9.668,9.668,0,0,0-7.736,5.229ZM33.531,60.86a1.11,1.11,0,0,0-1.023-1.5l-5.262-.066L32.527,44.66l5.695.071L34.335,54.777a1.11,1.11,0,0,0,1.006,1.51l5.141.135L30.528,68.779ZM47.106,31.929l3.056-5.067.006-.009,4.61-7.646,2.594,2.737-6.73,11.07a9.591,9.591,0,0,0-3.537-1.085ZM59.353,20.808,56.4,17.692l4.5-2.34,2.558,1.541.034,5.071Zm4.091-6.516-.232-.139.23-.119ZM52.469,34.282l6.8-11.193L62.911,24.1,54.855,37.461a9.707,9.707,0,0,0-2.386-3.179Zm0,0"/>
    </g>
  </g>
</svg>
