<svg xmlns="http://www.w3.org/2000/svg" width="187.884" height="189.738" viewBox="0 0 187.884 189.738">
  <g id="producto_1_" data-name="producto (1)" transform="translate(-2.5)">
    <g id="Grupo_81956" data-name="Grupo 81956" transform="translate(6.015 29.377)">
      <path id="Trazado_121019" data-name="Trazado 121019" d="M209.437,211.748,181.16,225.474l-38.332,1.5-39.556-.646L76.219,211.748l66.609-15.228Z" transform="translate(-52.401 -153.033)" fill="#f4aa73"/>
      <path id="Trazado_121020" data-name="Trazado 121020" d="M179.941,81.877,192.8,107.921a4.744,4.744,0,0,0,3.571,2.595l28.741,4.176a4.743,4.743,0,0,1,2.628,8.09l-17.42,16.98-4.249,3.314a4.742,4.742,0,0,0-1.364,4.2l5.781,28.6a4.743,4.743,0,0,1-6.882,5L177.9,167.363a4.743,4.743,0,0,0-4.414,0l-25.707,13.515a4.743,4.743,0,0,1-6.882-5l7.872-28.447a4.742,4.742,0,0,0-1.364-4.2L129.879,123.7a4.743,4.743,0,0,1,2.628-8.09l20.975-4.874,1.528-.222a4.742,4.742,0,0,0,3.571-2.595l12.854-26.044a4.743,4.743,0,0,1,8.506,0Z" transform="translate(-85.261 -79.233)" fill="#ffef92"/>
      <path id="Trazado_121021" data-name="Trazado 121021" d="M193.015,234.343l-25.709-13.518a4.759,4.759,0,0,0-4.412,0l-25.709,13.518a4.744,4.744,0,0,1-6.882-5l4.909-28.624a4.743,4.743,0,0,0-1.361-4.2l-20.8-20.27a4.744,4.744,0,0,1,2.629-8.09l27.215-3.956a43.063,43.063,0,0,0,56.832,29.024l-3.378,3.292a4.743,4.743,0,0,0-1.361,4.2l4.909,28.624a4.744,4.744,0,0,1-6.882,5Z" transform="translate(-74.672 -132.697)" fill="#fee45a"/>
      <path id="Trazado_121022" data-name="Trazado 121022" d="M310.069,237.59v80.7A3.808,3.808,0,0,1,307.113,322l-63.654,14.549-7.312-40.276,7.312-43.463,13.416,1.326,16.4-8.141Z" transform="translate(-153.032 -178.876)" fill="#f4aa73"/>
      <path id="Trazado_121023" data-name="Trazado 121023" d="M142.828,252.814v83.739L87.343,323.871l-5.562-3.678a3.808,3.808,0,0,1-2.955-3.711L76.219,237.59l37.312,17.579Z" transform="translate(-52.401 -178.876)" fill="#e29a6c"/>
      <path id="Trazado_121024" data-name="Trazado 121024" d="M87.342,240.133v83.739L79.174,322a3.808,3.808,0,0,1-2.955-3.711v-80.7Z" transform="translate(-52.401 -178.876)" fill="#d48c64"/>
      <path id="Trazado_121025" data-name="Trazado 121025" d="M106.208,257,82.137,281.076a.741.741,0,0,1-.687.2L27.094,269.041,18.6,266.025a.742.742,0,0,1-.362-1.248l21.4-20.527,11.577.187Z" transform="translate(-15.781 -183.066)" fill="#fbbd80"/>
      <path id="Trazado_121026" data-name="Trazado 121026" d="M47.418,240.245,23.292,264.853l-10.734-2.417a.743.743,0,0,1-.36-1.25l23.6-23.6,9.465.189Z" transform="translate(-11.979 -178.876)" fill="#f4aa73"/>
      <path id="Trazado_121027" data-name="Trazado 121027" d="M255.869,252.813l24.072,24.072a.741.741,0,0,0,.687.2l65.089-14.65a.741.741,0,0,0,.362-1.248l-23.6-23.6Z" transform="translate(-165.442 -178.876)" fill="#fbbd80"/>
    </g>
    <g id="Grupo_81957" data-name="Grupo 81957" transform="translate(2.5)">
      <path id="Trazado_121028" data-name="Trazado 121028" d="M189.57,155.809,165.02,131.259a2.886,2.886,0,0,0-1.347-.745l-19.42-4.439,6.179-6.023a7.524,7.524,0,0,0-4.17-12.833l-28.741-4.177a1.961,1.961,0,0,1-1.477-1.073L103.189,75.925a7.524,7.524,0,0,0-13.493,0L76.842,101.969a1.962,1.962,0,0,1-1.477,1.073l-6.835.993a2.781,2.781,0,0,0,.8,5.5l6.835-.993a7.522,7.522,0,0,0,5.665-4.116L94.683,78.387a1.962,1.962,0,0,1,3.519,0l12.854,26.044a7.522,7.522,0,0,0,5.665,4.116l28.741,4.177a1.962,1.962,0,0,1,1.087,3.347l-20.8,20.273a7.5,7.5,0,0,0-1.88,2.986L96.442,145.6l-27.43-6.27a7.492,7.492,0,0,0-1.879-2.986l-20.8-20.273a1.962,1.962,0,0,1,1.087-3.347l9.254-1.345a2.781,2.781,0,0,0-.8-5.5l-9.254,1.345a7.524,7.524,0,0,0-4.17,12.833l6.179,6.022-19.42,4.439a2.62,2.62,0,0,0-1.347.745L3.315,155.809a2.781,2.781,0,0,0,1.356,4.68l22.381,5.037v48.4a6.554,6.554,0,0,0,5.119,6.421L48.6,224.106a2.781,2.781,0,0,0,1.239-5.422L33.41,214.929a1.02,1.02,0,0,1-.8-1V166.778l38.859,8.746a2.781,2.781,0,0,0,2.577-.746l19.613-19.613v32.513a2.781,2.781,0,0,0,5.562,0V155.164l19.613,19.613a2.781,2.781,0,0,0,2.577.746l13.9-3.129a2.781,2.781,0,1,0-1.221-5.426l-12.4,2.792L101.966,150.04l60.209-13.762,19.893,19.893-35.384,7.964a2.781,2.781,0,0,0,1.221,5.426l12.368-2.784v47.152a1.02,1.02,0,0,1-.8,1L99.223,228.7V200.654a2.781,2.781,0,1,0-5.562,0V228.7l-31.2-7.131a2.781,2.781,0,0,0-1.239,5.422L95,234.711a6.523,6.523,0,0,0,2.893,0l62.826-14.36a6.554,6.554,0,0,0,5.12-6.421v-48.4l22.38-5.037a2.781,2.781,0,0,0,1.356-4.68ZM139.512,130.7l11.062,2.529L132.735,137.3ZM60.151,137.3l-17.839-4.077L53.373,130.7ZM71.2,169.762l-60.381-13.59,19.893-19.893,60.209,13.762Z" transform="translate(-2.5 -45.135)"/>
      <path id="Trazado_121029" data-name="Trazado 121029" d="M251.15,16.981a2.78,2.78,0,0,0,2.781-2.781V2.781a2.781,2.781,0,1,0-5.562,0V14.2a2.781,2.781,0,0,0,2.781,2.781Z" transform="translate(-157.208)"/>
      <path id="Trazado_121030" data-name="Trazado 121030" d="M312.61,78.856a2.78,2.78,0,0,0,3.917-.343l7.34-8.748a2.78,2.78,0,1,0-4.26-3.574l-7.34,8.748A2.78,2.78,0,0,0,312.61,78.856Z" transform="translate(-197.005 -41.024)"/>
      <path id="Trazado_121031" data-name="Trazado 121031" d="M401.608,112.08a2.77,2.77,0,0,0,1.786-.651l8.747-7.34a2.781,2.781,0,1,0-3.575-4.26l-8.747,7.34a2.781,2.781,0,0,0,1.789,4.911Z" transform="translate(-251.88 -62.406)"/>
      <path id="Trazado_121032" data-name="Trazado 121032" d="M173.318,78.514a2.781,2.781,0,0,0,4.261-3.575l-7.34-8.748a2.781,2.781,0,0,0-4.261,3.575Z" transform="translate(-104.956 -41.024)"/>
      <path id="Trazado_121033" data-name="Trazado 121033" d="M75.313,104.088l8.748,7.34a2.781,2.781,0,1,0,3.575-4.26l-8.748-7.34a2.781,2.781,0,0,0-3.575,4.26Z" transform="translate(-47.691 -62.405)"/>
    </g>
  </g>
</svg>
