<svg xmlns="http://www.w3.org/2000/svg" width="369.091" height="253" viewBox="0 0 369.091 253">
  <g id="Grupo_80711" data-name="Grupo 80711" transform="translate(-211.232 -146.528)">
    <path id="Trazado_114599" data-name="Trazado 114599" d="M239.852,434.9s-44.317-63.685-22.658-129.248c14.117-42.735,67.074-66.152,96.96-42.735,12.729,9.974,53.567.336,75.371-40.955,42.372-80.239,206.58-33.173,163.33,91.686C533.1,370.7,592.507,375.433,565.665,435.026Z" transform="translate(0 -35.791)" fill="#e1f3d7"/>
    <g id="Grupo_80663" data-name="Grupo 80663" transform="translate(238.811 196.395)">
      <path id="Trazado_114600" data-name="Trazado 114600" d="M686.023,599.547l-39.049,42.208L590.705,589.7h0L567,567.759l39.048-42.206,44.269,40.956Z" transform="translate(-566.996 -525.553)" fill="#a8d29f"/>
      <g id="Grupo_80662" data-name="Grupo 80662" transform="translate(7.886 7.974)">
        <path id="Trazado_114601" data-name="Trazado 114601" d="M728.424,651.948l-30.316,32.767-71.887-66.508,30.316-32.768ZM700.83,679.772l22.863-24.712a4.137,4.137,0,0,0-.227-5.847L659.7,590.223a4.212,4.212,0,0,0-5.952.231l-22.771,24.613a4.177,4.177,0,0,0,.229,5.9L695.012,680A4.117,4.117,0,0,0,700.83,679.772Z" transform="translate(-626.222 -585.44)" fill="#82b378"/>
      </g>
      <circle id="Elipse_4755" data-name="Elipse 4755" cx="12.01" cy="12.01" r="12.01" transform="translate(46.745 45.84) rotate(-1.119)" fill="#82b378"/>
    </g>
    <g id="Grupo_80665" data-name="Grupo 80665" transform="translate(312.841 153.927)">
      <path id="Trazado_114602" data-name="Trazado 114602" d="M1054.412,330.3l-56.085,12.68-16.9-74.771h0l-7.122-31.5,56.084-12.678,13.3,58.824Z" transform="translate(-974.303 -224.028)" fill="#a8d29f"/>
      <g id="Grupo_80664" data-name="Grupo 80664" transform="translate(7.329 6.094)">
        <path id="Trazado_114603" data-name="Trazado 114603" d="M1094.482,365.316l-43.542,9.843-21.594-95.523,43.541-9.843Zm-38.5,7.309,32.837-7.423a4.138,4.138,0,0,0,3.124-4.948l-19.153-84.726a4.212,4.212,0,0,0-5.037-3.18l-32.706,7.394a4.177,4.177,0,0,0-3.153,5l19.166,84.78A4.117,4.117,0,0,0,1055.982,372.625Z" transform="translate(-1029.346 -269.793)" fill="#82b378"/>
      </g>
      <circle id="Elipse_4756" data-name="Elipse 4756" cx="12.01" cy="12.01" r="12.01" transform="translate(22.911 58.777) rotate(-45)" fill="#82b378"/>
    </g>
    <g id="Grupo_80667" data-name="Grupo 80667" transform="translate(444.783 221.76)">
      <path id="Trazado_114604" data-name="Trazado 114604" d="M2024.975,612.815,1965.17,591.84l27.964-79.73h0l11.782-33.594,59.8,20.975-22,62.726Z" transform="translate(-1965.17 -478.515)" fill="#a8d29f"/>
      <g id="Grupo_80666" data-name="Grupo 80666" transform="translate(8.962 7.332)">
        <path id="Trazado_114605" data-name="Trazado 114605" d="M2078.9,651.724,2032.47,635.44,2068.2,533.581l46.429,16.284Zm-40.237-15.7,35.015,12.281a4.561,4.561,0,0,0,5.813-2.794l31.687-90.345a4.643,4.643,0,0,0-2.844-5.917l-34.875-12.232a4.6,4.6,0,0,0-5.868,2.821l-31.708,90.4A4.538,4.538,0,0,0,2038.663,636.023Z" transform="translate(-2032.47 -533.581)" fill="#82b378"/>
      </g>
      <path id="Trazado_114606" data-name="Trazado 114606" d="M2242.258,886.618a13.238,13.238,0,1,1,8.11,16.873A13.238,13.238,0,0,1,2242.258,886.618Z" transform="translate(-2204.711 -824.595)" fill="#82b378"/>
    </g>
    <g id="Grupo_80669" data-name="Grupo 80669" transform="translate(309.471 229.874)">
      <path id="Trazado_114607" data-name="Trazado 114607" d="M973.112,1101.818v17.071a5.961,5.961,0,0,1-5.942,5.943H954.937a5.961,5.961,0,0,1-5.943-5.943v-17.071a5.961,5.961,0,0,1,5.943-5.943H967.17A5.961,5.961,0,0,1,973.112,1101.818Z" transform="translate(-948.994 -1021.783)" fill="#ed7d2b"/>
      <path id="Trazado_114608" data-name="Trazado 114608" d="M973.112,1101.818v9.511a5.962,5.962,0,0,1-5.942,5.943H954.937a5.962,5.962,0,0,1-5.943-5.943v-9.511a5.961,5.961,0,0,1,5.943-5.943H967.17A5.961,5.961,0,0,1,973.112,1101.818Z" transform="translate(-948.994 -1021.783)" fill="#f99746"/>
      <path id="Trazado_114609" data-name="Trazado 114609" d="M1202.634,791.035a62.933,62.933,0,0,1-5.013,24.667,63.755,63.755,0,0,1-58.516,38.863h-18.163a63.663,63.663,0,0,1-54.67-31.27,63.18,63.18,0,0,1-3.846-56.928,63.755,63.755,0,0,1,58.516-38.862h18.163a63.684,63.684,0,0,1,55.571,32.84A62.968,62.968,0,0,1,1202.634,791.035Z" transform="translate(-1042.976 -702.465)" fill="#ed7d2b"/>
      <path id="Trazado_114610" data-name="Trazado 114610" d="M1194.677,760.346c1.507,7.327.322,17.8-1.606,23.346-12.821,36.875-42.957,43.532-73.762,46.336-21.9,1.994-53.036-6.732-53.036-6.732a63.18,63.18,0,0,1-3.846-56.928,63.755,63.755,0,0,1,58.516-38.862h18.163A63.684,63.684,0,0,1,1194.677,760.346Z" transform="translate(-1042.976 -702.465)" fill="#f99746"/>
      <path id="Trazado_114611" data-name="Trazado 114611" d="M1285.894,580.408h-24.987c-2.52,0-4.562-1.53-4.562-3.417V542.874a2.746,2.746,0,0,1,.5-1.572c1.221-1.773,4.433-2.5,6.823-1.15,9.487,5.377,25.03,17.065,26.779,36.607C1290.624,578.733,1288.535,580.408,1285.894,580.408Z" transform="translate(-1215.419 -539.452)" fill="#f99746"/>
      <path id="Trazado_114612" data-name="Trazado 114612" d="M1261.923,592.457h-1.016c-2.52,0-4.562-1.53-4.562-3.417V554.923a2.746,2.746,0,0,1,.5-1.572,3.248,3.248,0,0,1,.308.3c5.428,6.042,13.251,17.914,11.047,34.543C1267.879,590.613,1265.167,592.457,1261.923,592.457Z" transform="translate(-1215.419 -551.5)" fill="#ed7d2b"/>
      <path id="Trazado_114613" data-name="Trazado 114613" d="M1199.333,994.074a3.723,3.723,0,1,1,3.723,3.723A3.723,3.723,0,0,1,1199.333,994.074Z" transform="translate(-1165.998 -930.31)" fill="#2b478b"/>
      <path id="Trazado_114614" data-name="Trazado 114614" d="M1712.034,1422.3l-5.926,38.479a4.7,4.7,0,0,0,4.544,5.9h15.573a8.915,8.915,0,0,0,7.926-4.832l24.2-48.279Z" transform="translate(-1605.155 -1297.169)" fill="#ed7d2b"/>
      <path id="Trazado_114615" data-name="Trazado 114615" d="M1172.067,1451.832l4.754,37.818a4.7,4.7,0,0,1-4.544,5.9H1156.7a8.916,8.916,0,0,1-7.926-4.832l-24.835-43.844Z" transform="translate(-1100.647 -1326.042)" fill="#ed7d2b"/>
      <g id="Grupo_80668" data-name="Grupo 80668" transform="translate(150.671 71.302)">
        <path id="Trazado_114616" data-name="Trazado 114616" d="M2104.63,1109.457a4.181,4.181,0,0,1-1.072-.14c-2.761-.726-4.341-4.023-4.124-8.6a22.933,22.933,0,0,1,5.157-13.008,23.448,23.448,0,0,1,4.669-4.371,13.345,13.345,0,0,0-3.435-3.786,8.844,8.844,0,0,0-8.038-1.682c-7.7,2.09-14.224,13.095-14.753,14.332a1.3,1.3,0,0,1-2.459-.856,37.757,37.757,0,0,1,4.8-7.224c4.636-5.671,8.675-7.819,11.247-8.622a11.445,11.445,0,0,1,10.77,1.969,16.008,16.008,0,0,1,4.08,4.479,27.143,27.143,0,0,1,8.855-3.024,1.3,1.3,0,0,1,.421,2.57,24.5,24.5,0,0,0-8.1,2.78,19.691,19.691,0,0,1,1.391,5.861,25.75,25.75,0,0,1-2.4,13.058C2109.7,1107.2,2107.142,1109.457,2104.63,1109.457Zm5.784-23.742a20.8,20.8,0,0,0-3.8,3.631,20.283,20.283,0,0,0-4.578,11.49c-.149,3.133.75,5.585,2.186,5.963,1.451.381,3.537-1.569,5.072-4.744a23.4,23.4,0,0,0,2.152-11.7A17.457,17.457,0,0,0,2110.414,1085.716Zm-27.369,6.45-.008.023Z" transform="translate(-2080.508 -1074.921)" fill="#ed7d2b"/>
      </g>
    </g>
    <g id="Grupo_80692" data-name="Grupo 80692" transform="translate(324.584 350.247)">
      <g id="Grupo_80671" data-name="Grupo 80671" transform="translate(5.025 43.512)">
        <path id="Trazado_114617" data-name="Trazado 114617" d="M1149.5,1771.16v2.479a.845.845,0,0,1-.2.533,1.219,1.219,0,0,1-.742.407,1.332,1.332,0,0,1-.2.015h-47a1.1,1.1,0,0,1-1.126-.812.939.939,0,0,1-.01-.094c0-.016,0-.032,0-.049v-2.479c0-.016,0-.032,0-.048a.928.928,0,0,1,.01-.094,1.1,1.1,0,0,1,1.126-.812h47a1.286,1.286,0,0,1,.2.015,1.234,1.234,0,0,1,.209.05,1.136,1.136,0,0,1,.533.357A.845.845,0,0,1,1149.5,1771.16Z" transform="translate(-1100.222 -1770.205)" fill="#ffb93e"/>
        <path id="Trazado_114618" data-name="Trazado 114618" d="M1126.421,1774.593h-25.182a1.008,1.008,0,0,1-.977-.707.842.842,0,0,1-.028-.105.939.939,0,0,1-.01-.094c0-.016,0-.032,0-.049v-2.479c0-.016,0-.032,0-.048a.928.928,0,0,1,.01-.094.837.837,0,0,1,.028-.105,1.008,1.008,0,0,1,.977-.707h22.09A7.688,7.688,0,0,0,1126.421,1774.593Z" transform="translate(-1100.222 -1770.205)" fill="#ffa412"/>
        <g id="Grupo_80670" data-name="Grupo 80670" transform="translate(17.271)">
          <rect id="Rectángulo_34066" data-name="Rectángulo 34066" width="0.534" height="4.388" transform="translate(25.755 0)" fill="#ffa412"/>
          <rect id="Rectángulo_34067" data-name="Rectángulo 34067" width="0.534" height="4.388" transform="translate(23.947 0)" fill="#ffa412"/>
          <rect id="Rectángulo_34068" data-name="Rectángulo 34068" width="0.534" height="4.388" transform="translate(21.778 0)" fill="#ffa412"/>
          <rect id="Rectángulo_34069" data-name="Rectángulo 34069" width="0.534" height="4.388" transform="translate(18.454 0)" fill="#ffa412"/>
          <rect id="Rectángulo_34070" data-name="Rectángulo 34070" width="0.534" height="4.388" transform="translate(14.939 0)" fill="#ffa412"/>
          <rect id="Rectángulo_34071" data-name="Rectángulo 34071" width="0.534" height="4.388" transform="translate(9.551 0)" fill="#ffa412"/>
          <rect id="Rectángulo_34072" data-name="Rectángulo 34072" width="0.534" height="4.388" transform="translate(4.505 0)" fill="#ffa412"/>
          <rect id="Rectángulo_34073" data-name="Rectángulo 34073" width="0.534" height="4.388" transform="translate(0 0)" fill="#ffa412"/>
          <rect id="Rectángulo_34074" data-name="Rectángulo 34074" width="0.534" height="4.388" transform="translate(27.476 0)" fill="#ffa412"/>
          <rect id="Rectángulo_34075" data-name="Rectángulo 34075" width="0.534" height="4.388" transform="translate(28.614 0)" fill="#ffa412"/>
          <rect id="Rectángulo_34076" data-name="Rectángulo 34076" width="0.534" height="4.388" transform="translate(29.712 0)" fill="#ffa412"/>
          <path id="Trazado_114619" data-name="Trazado 114619" d="M1459.793,1770.218v4.358a1.324,1.324,0,0,1-.2.015h-.334V1770.2h.334A1.324,1.324,0,0,1,1459.793,1770.218Z" transform="translate(-1428.721 -1770.203)" fill="#ffa412"/>
          <path id="Trazado_114620" data-name="Trazado 114620" d="M1465.369,1771.045v3.545a1.134,1.134,0,0,1-.534.357v-4.259A1.132,1.132,0,0,1,1465.369,1771.045Z" transform="translate(-1433.555 -1770.623)" fill="#ffa412"/>
        </g>
      </g>
      <g id="Grupo_80673" data-name="Grupo 80673" transform="translate(0 39.124)">
        <path id="Trazado_114621" data-name="Trazado 114621" d="M1111.766,1738.2v2.477a.852.852,0,0,1-.194.535,1.141,1.141,0,0,1-.107.113,1.18,1.18,0,0,1-.427.244,1.205,1.205,0,0,1-.209.048,1.278,1.278,0,0,1-.2.016h-47.006a1.1,1.1,0,0,1-1.125-.813c0-.031-.009-.062-.01-.093s0-.032,0-.05V1738.2c0-.016,0-.034,0-.05s.006-.062.01-.093a1.1,1.1,0,0,1,1.125-.813h47.006c.029,0,.06,0,.089,0a.215.215,0,0,1,.032,0,0,0,0,0,1,.006,0,.213.213,0,0,1,.043,0l.029,0a1.206,1.206,0,0,1,.209.048c.04.013.078.028.115.044h0l.074.035.041.023a.348.348,0,0,1,.038.024.846.846,0,0,1,.138.1c.015.011.026.025.04.037l.024.022a.076.076,0,0,1,.012.013l.01.01a.433.433,0,0,1,.043.048A.848.848,0,0,1,1111.766,1738.2Z" transform="translate(-1062.487 -1737.245)" fill="#ffb93e"/>
        <path id="Trazado_114622" data-name="Trazado 114622" d="M1088.684,1741.634H1063.5a1.007,1.007,0,0,1-.976-.709.836.836,0,0,1-.027-.1c0-.031-.009-.062-.01-.093s0-.032,0-.05V1738.2c0-.016,0-.034,0-.05s.006-.062.01-.093a.847.847,0,0,1,.027-.1,1.007,1.007,0,0,1,.976-.709h22.09c.009.037.019.072.031.109A7.674,7.674,0,0,0,1088.684,1741.634Z" transform="translate(-1062.487 -1737.245)" fill="#ffa412"/>
        <g id="Grupo_80672" data-name="Grupo 80672" transform="translate(17.27 0)">
          <rect id="Rectángulo_34077" data-name="Rectángulo 34077" width="0.534" height="4.388" transform="translate(25.755 0)" fill="#ffa412"/>
          <rect id="Rectángulo_34078" data-name="Rectángulo 34078" width="0.534" height="4.388" transform="translate(23.947 0)" fill="#ffa412"/>
          <rect id="Rectángulo_34079" data-name="Rectángulo 34079" width="0.534" height="4.388" transform="translate(21.778 0)" fill="#ffa412"/>
          <rect id="Rectángulo_34080" data-name="Rectángulo 34080" width="0.534" height="4.388" transform="translate(18.454 0)" fill="#ffa412"/>
          <rect id="Rectángulo_34081" data-name="Rectángulo 34081" width="0.534" height="4.388" transform="translate(14.939 0)" fill="#ffa412"/>
          <rect id="Rectángulo_34082" data-name="Rectángulo 34082" width="0.534" height="4.388" transform="translate(9.551 0)" fill="#ffa412"/>
          <rect id="Rectángulo_34083" data-name="Rectángulo 34083" width="0.534" height="4.388" transform="translate(4.505 0)" fill="#ffa412"/>
          <rect id="Rectángulo_34084" data-name="Rectángulo 34084" width="0.534" height="4.388" transform="translate(0 0)" fill="#ffa412"/>
          <rect id="Rectángulo_34085" data-name="Rectángulo 34085" width="0.534" height="4.388" transform="translate(27.476 0)" fill="#ffa412"/>
          <rect id="Rectángulo_34086" data-name="Rectángulo 34086" width="0.534" height="4.388" transform="translate(28.614 0)" fill="#ffa412"/>
          <rect id="Rectángulo_34087" data-name="Rectángulo 34087" width="0.534" height="4.388" transform="translate(29.712 0)" fill="#ffa412"/>
          <path id="Trazado_114623" data-name="Trazado 114623" d="M1422.051,1737.263v4.358a1.3,1.3,0,0,1-.2.015h-.334v-4.388h.334A1.3,1.3,0,0,1,1422.051,1737.263Z" transform="translate(-1390.979 -1737.248)" fill="#ffa412"/>
          <path id="Trazado_114624" data-name="Trazado 114624" d="M1427.627,1738.089v3.544a1.132,1.132,0,0,1-.534.357v-4.259A1.133,1.133,0,0,1,1427.627,1738.089Z" transform="translate(-1395.813 -1737.667)" fill="#ffa412"/>
        </g>
      </g>
      <g id="Grupo_80675" data-name="Grupo 80675" transform="translate(2.429 34.844)">
        <path id="Trazado_114625" data-name="Trazado 114625" d="M1130,1706.066v2.479a.845.845,0,0,1-.2.533,1.127,1.127,0,0,1-.533.357,1.341,1.341,0,0,1-.209.05,1.468,1.468,0,0,1-.2.015h-47.006a1.309,1.309,0,0,1-.524-.109.992.992,0,0,1-.6-.693c0-.021-.006-.041-.009-.062a.388.388,0,0,1,0-.043c0-.016,0-.032,0-.048v-2.479c0-.016,0-.032,0-.049a.651.651,0,0,1,.01-.092,1.1,1.1,0,0,1,1.125-.814h47.006a1.28,1.28,0,0,1,.2.015,1.191,1.191,0,0,1,.209.048,1.14,1.14,0,0,1,.533.358A.845.845,0,0,1,1130,1706.066Z" transform="translate(-1080.726 -1705.11)" fill="#ffb93e"/>
        <path id="Trazado_114626" data-name="Trazado 114626" d="M1106.923,1709.5h-25.182a1.051,1.051,0,0,1-.467-.109.962.962,0,0,1-.535-.693c0-.021-.006-.041-.009-.062a.388.388,0,0,1,0-.043c0-.016,0-.032,0-.048v-2.479c0-.016,0-.032,0-.049a.651.651,0,0,1,.01-.092.823.823,0,0,1,.026-.1,1,1,0,0,1,.977-.711h22.09a7.7,7.7,0,0,0,2.938,4.279C1106.819,1709.427,1106.87,1709.463,1106.923,1709.5Z" transform="translate(-1080.726 -1705.11)" fill="#ffa412"/>
        <g id="Grupo_80674" data-name="Grupo 80674" transform="translate(17.27)">
          <rect id="Rectángulo_34088" data-name="Rectángulo 34088" width="0.534" height="4.388" transform="translate(25.755 0)" fill="#ffa412"/>
          <rect id="Rectángulo_34089" data-name="Rectángulo 34089" width="0.534" height="4.388" transform="translate(23.947 0)" fill="#ffa412"/>
          <rect id="Rectángulo_34090" data-name="Rectángulo 34090" width="0.534" height="4.388" transform="translate(21.778 0)" fill="#ffa412"/>
          <rect id="Rectángulo_34091" data-name="Rectángulo 34091" width="0.534" height="4.388" transform="translate(18.454 0)" fill="#ffa412"/>
          <rect id="Rectángulo_34092" data-name="Rectángulo 34092" width="0.534" height="4.388" transform="translate(14.939 0)" fill="#ffa412"/>
          <rect id="Rectángulo_34093" data-name="Rectángulo 34093" width="0.534" height="4.388" transform="translate(9.551 0)" fill="#ffa412"/>
          <rect id="Rectángulo_34094" data-name="Rectángulo 34094" width="0.534" height="4.388" transform="translate(4.505 0)" fill="#ffa412"/>
          <rect id="Rectángulo_34095" data-name="Rectángulo 34095" width="0.534" height="4.388" transform="translate(0 0)" fill="#ffa412"/>
          <rect id="Rectángulo_34096" data-name="Rectángulo 34096" width="0.534" height="4.388" transform="translate(27.476 0)" fill="#ffa412"/>
          <rect id="Rectángulo_34097" data-name="Rectángulo 34097" width="0.534" height="4.388" transform="translate(28.614 0)" fill="#ffa412"/>
          <rect id="Rectángulo_34098" data-name="Rectángulo 34098" width="0.534" height="4.388" transform="translate(29.712 0)" fill="#ffa412"/>
          <path id="Trazado_114627" data-name="Trazado 114627" d="M1440.29,1705.121v4.357a1.3,1.3,0,0,1-.2.015h-.334v-4.388h.334A1.336,1.336,0,0,1,1440.29,1705.121Z" transform="translate(-1409.218 -1705.106)" fill="#ffa412"/>
          <path id="Trazado_114628" data-name="Trazado 114628" d="M1445.866,1705.947v3.545a1.129,1.129,0,0,1-.534.357v-4.259A1.131,1.131,0,0,1,1445.866,1705.947Z" transform="translate(-1414.052 -1705.526)" fill="#ffa412"/>
        </g>
      </g>
      <g id="Grupo_80677" data-name="Grupo 80677" transform="translate(3.555 30.456)">
        <path id="Trazado_114629" data-name="Trazado 114629" d="M1138.463,1673.106v2.477a.842.842,0,0,1-.2.533c-.016.021-.034.04-.052.059a1.1,1.1,0,0,1-.324.236,1.363,1.363,0,0,1-.157.063,1.259,1.259,0,0,1-.209.049c-.032,0-.065.009-.1.011s-.069,0-.1,0h-47a1.1,1.1,0,0,1-1.126-.813c0-.031-.009-.062-.01-.092v-2.577a1.049,1.049,0,0,1,1-.9c.044,0,.09-.007.135-.007h47c.034,0,.069,0,.1,0s.066.006.1.012a1.223,1.223,0,0,1,.209.049,1.133,1.133,0,0,1,.533.357A.846.846,0,0,1,1138.463,1673.106Z" transform="translate(-1089.184 -1672.15)" fill="#ffb93e"/>
        <path id="Trazado_114630" data-name="Trazado 114630" d="M1115.381,1676.539H1090.2a1.01,1.01,0,0,1-.977-.708.817.817,0,0,1-.027-.105c0-.031-.009-.062-.01-.092v-2.577a.988.988,0,0,1,.894-.9,1.082,1.082,0,0,1,.12-.007h22.09s0,0,0,.007A7.7,7.7,0,0,0,1115.381,1676.539Z" transform="translate(-1089.184 -1672.15)" fill="#ffa412"/>
        <g id="Grupo_80676" data-name="Grupo 80676" transform="translate(17.27)">
          <rect id="Rectángulo_34099" data-name="Rectángulo 34099" width="0.534" height="4.388" transform="translate(25.755 0)" fill="#ffa412"/>
          <rect id="Rectángulo_34100" data-name="Rectángulo 34100" width="0.534" height="4.388" transform="translate(23.947 0)" fill="#ffa412"/>
          <rect id="Rectángulo_34101" data-name="Rectángulo 34101" width="0.534" height="4.388" transform="translate(21.778 0)" fill="#ffa412"/>
          <rect id="Rectángulo_34102" data-name="Rectángulo 34102" width="0.534" height="4.388" transform="translate(18.454 0)" fill="#ffa412"/>
          <rect id="Rectángulo_34103" data-name="Rectángulo 34103" width="0.534" height="4.388" transform="translate(14.939 0)" fill="#ffa412"/>
          <rect id="Rectángulo_34104" data-name="Rectángulo 34104" width="0.534" height="4.388" transform="translate(9.551 0)" fill="#ffa412"/>
          <rect id="Rectángulo_34105" data-name="Rectángulo 34105" width="0.534" height="4.388" transform="translate(4.505 0)" fill="#ffa412"/>
          <rect id="Rectángulo_34106" data-name="Rectángulo 34106" width="0.534" height="4.388" transform="translate(0 0)" fill="#ffa412"/>
          <rect id="Rectángulo_34107" data-name="Rectángulo 34107" width="0.534" height="4.388" transform="translate(27.476 0)" fill="#ffa412"/>
          <rect id="Rectángulo_34108" data-name="Rectángulo 34108" width="0.534" height="4.388" transform="translate(28.614 0)" fill="#ffa412"/>
          <rect id="Rectángulo_34109" data-name="Rectángulo 34109" width="0.534" height="4.388" transform="translate(29.712 0)" fill="#ffa412"/>
          <path id="Trazado_114631" data-name="Trazado 114631" d="M1448.746,1672.166v4.358a1.338,1.338,0,0,1-.2.015h-.334v-4.388h.334A1.292,1.292,0,0,1,1448.746,1672.166Z" transform="translate(-1417.674 -1672.15)" fill="#ffa412"/>
          <path id="Trazado_114632" data-name="Trazado 114632" d="M1454.322,1672.992v3.545a1.133,1.133,0,0,1-.534.357v-4.259A1.133,1.133,0,0,1,1454.322,1672.992Z" transform="translate(-1422.507 -1672.57)" fill="#ffa412"/>
        </g>
      </g>
      <g id="Grupo_80679" data-name="Grupo 80679" transform="translate(0.098 26.074)">
        <path id="Trazado_114633" data-name="Trazado 114633" d="M1112.5,1640.2v2.477a.839.839,0,0,1-.194.533,1.123,1.123,0,0,1-.534.358,1.219,1.219,0,0,1-.207.049.511.511,0,0,1-.066.009h-.009a.261.261,0,0,1-.035,0l-.031,0h-47.064a1.074,1.074,0,0,1-1.137-.906c0-.016,0-.032,0-.05V1640.2c0-.016,0-.034,0-.05a.338.338,0,0,1,0-.04,1.029,1.029,0,0,1,.853-.835.235.235,0,0,1,.034-.007,1.355,1.355,0,0,1,.247-.024h47c.035,0,.068,0,.1,0l.042,0h0c.018,0,.035,0,.053.007a1.243,1.243,0,0,1,.207.049,1.121,1.121,0,0,1,.534.358A.839.839,0,0,1,1112.5,1640.2Z" transform="translate(-1063.226 -1639.245)" fill="#ffb93e"/>
        <path id="Trazado_114634" data-name="Trazado 114634" d="M1089.423,1643.634h-25.181a.994.994,0,0,1-1.015-.906c0-.016,0-.032,0-.05V1640.2c0-.016,0-.034,0-.05a.338.338,0,0,1,0-.04.979.979,0,0,1,.788-.841.216.216,0,0,1,.043-.009,1.072,1.072,0,0,1,.18-.016h22.089c0,.012.006.021.009.032a7.692,7.692,0,0,0,3.073,4.349S1089.42,1643.631,1089.423,1643.634Z" transform="translate(-1063.226 -1639.245)" fill="#ffa412"/>
        <g id="Grupo_80678" data-name="Grupo 80678" transform="translate(17.27 0)">
          <rect id="Rectángulo_34110" data-name="Rectángulo 34110" width="0.534" height="4.388" transform="translate(25.755 0)" fill="#ffa412"/>
          <rect id="Rectángulo_34111" data-name="Rectángulo 34111" width="0.534" height="4.388" transform="translate(23.947 0)" fill="#ffa412"/>
          <rect id="Rectángulo_34112" data-name="Rectángulo 34112" width="0.534" height="4.388" transform="translate(21.778 0)" fill="#ffa412"/>
          <rect id="Rectángulo_34113" data-name="Rectángulo 34113" width="0.534" height="4.388" transform="translate(18.454 0)" fill="#ffa412"/>
          <rect id="Rectángulo_34114" data-name="Rectángulo 34114" width="0.534" height="4.388" transform="translate(14.939 0)" fill="#ffa412"/>
          <rect id="Rectángulo_34115" data-name="Rectángulo 34115" width="0.534" height="4.388" transform="translate(9.551 0)" fill="#ffa412"/>
          <rect id="Rectángulo_34116" data-name="Rectángulo 34116" width="0.534" height="4.388" transform="translate(4.505 0)" fill="#ffa412"/>
          <rect id="Rectángulo_34117" data-name="Rectángulo 34117" width="0.534" height="4.388" transform="translate(0 0)" fill="#ffa412"/>
          <rect id="Rectángulo_34118" data-name="Rectángulo 34118" width="0.534" height="4.388" transform="translate(27.476 0)" fill="#ffa412"/>
          <rect id="Rectángulo_34119" data-name="Rectángulo 34119" width="0.534" height="4.388" transform="translate(28.614 0)" fill="#ffa412"/>
          <rect id="Rectángulo_34120" data-name="Rectángulo 34120" width="0.534" height="4.388" transform="translate(29.712 0)" fill="#ffa412"/>
          <path id="Trazado_114635" data-name="Trazado 114635" d="M1422.793,1639.263v4.358a1.323,1.323,0,0,1-.2.015h-.334v-4.388h.334A1.307,1.307,0,0,1,1422.793,1639.263Z" transform="translate(-1391.721 -1639.248)" fill="#ffa412"/>
          <path id="Trazado_114636" data-name="Trazado 114636" d="M1428.368,1640.089v3.545a1.131,1.131,0,0,1-.533.357v-4.259A1.133,1.133,0,0,1,1428.368,1640.089Z" transform="translate(-1396.555 -1639.667)" fill="#ffa412"/>
        </g>
      </g>
      <g id="Grupo_80681" data-name="Grupo 80681" transform="translate(0 21.717)">
        <path id="Trazado_114637" data-name="Trazado 114637" d="M1111.766,1607.483v2.477a.849.849,0,0,1-.194.533,1.379,1.379,0,0,1-.107.114,1.176,1.176,0,0,1-.427.244,1.2,1.2,0,0,1-.161.041h0a.319.319,0,0,1-.043.007,1.264,1.264,0,0,1-.2.016h-47.006a1.236,1.236,0,0,1-.147-.009l-.056-.007a1.057,1.057,0,0,1-.924-.807.787.787,0,0,1-.009-.082c0-.018,0-.034,0-.05v-2.477c0-.017,0-.034,0-.05s.006-.062.01-.092a1.1,1.1,0,0,1,1.125-.814h47.006l.089,0h.038l.043.006a.109.109,0,0,1,.029,0,1.217,1.217,0,0,1,.209.049c.04.013.078.028.115.044h0a1.142,1.142,0,0,1,.376.264c.015.016.029.032.043.048A.853.853,0,0,1,1111.766,1607.483Z" transform="translate(-1062.487 -1606.527)" fill="#ffb93e"/>
        <path id="Trazado_114638" data-name="Trazado 114638" d="M1088.684,1610.916h-25.241l-.065-.006a.993.993,0,0,1-.881-.816.787.787,0,0,1-.009-.082c0-.018,0-.034,0-.05v-2.477c0-.017,0-.034,0-.05s.006-.062.01-.092a.812.812,0,0,1,.027-.1,1.007,1.007,0,0,1,.976-.709h22.09c.009.037.019.072.031.109a7.676,7.676,0,0,0,3.016,4.248C1088.653,1610.9,1088.67,1610.9,1088.684,1610.916Z" transform="translate(-1062.487 -1606.527)" fill="#ffa412"/>
        <g id="Grupo_80680" data-name="Grupo 80680" transform="translate(17.27 0)">
          <rect id="Rectángulo_34121" data-name="Rectángulo 34121" width="0.534" height="4.388" transform="translate(25.755 0)" fill="#ffa412"/>
          <rect id="Rectángulo_34122" data-name="Rectángulo 34122" width="0.534" height="4.388" transform="translate(23.947 0)" fill="#ffa412"/>
          <rect id="Rectángulo_34123" data-name="Rectángulo 34123" width="0.534" height="4.388" transform="translate(21.778 0)" fill="#ffa412"/>
          <rect id="Rectángulo_34124" data-name="Rectángulo 34124" width="0.534" height="4.388" transform="translate(18.454 0)" fill="#ffa412"/>
          <rect id="Rectángulo_34125" data-name="Rectángulo 34125" width="0.534" height="4.388" transform="translate(14.939 0)" fill="#ffa412"/>
          <rect id="Rectángulo_34126" data-name="Rectángulo 34126" width="0.534" height="4.388" transform="translate(9.551 0)" fill="#ffa412"/>
          <rect id="Rectángulo_34127" data-name="Rectángulo 34127" width="0.534" height="4.388" transform="translate(4.505 0)" fill="#ffa412"/>
          <rect id="Rectángulo_34128" data-name="Rectángulo 34128" width="0.534" height="4.388" transform="translate(0 0)" fill="#ffa412"/>
          <rect id="Rectángulo_34129" data-name="Rectángulo 34129" width="0.534" height="4.388" transform="translate(27.476 0)" fill="#ffa412"/>
          <rect id="Rectángulo_34130" data-name="Rectángulo 34130" width="0.534" height="4.388" transform="translate(28.614 0)" fill="#ffa412"/>
          <rect id="Rectángulo_34131" data-name="Rectángulo 34131" width="0.534" height="4.388" transform="translate(29.712 0)" fill="#ffa412"/>
          <path id="Trazado_114639" data-name="Trazado 114639" d="M1422.051,1606.545v4.357a1.316,1.316,0,0,1-.2.015h-.334v-4.388h.334A1.27,1.27,0,0,1,1422.051,1606.545Z" transform="translate(-1390.979 -1606.529)" fill="#ffa412"/>
          <path id="Trazado_114640" data-name="Trazado 114640" d="M1427.627,1607.37v3.545a1.133,1.133,0,0,1-.534.358v-4.259A1.132,1.132,0,0,1,1427.627,1607.37Z" transform="translate(-1395.813 -1606.948)" fill="#ffa412"/>
        </g>
      </g>
      <g id="Grupo_80683" data-name="Grupo 80683" transform="translate(2.429 17.437)">
        <path id="Trazado_114641" data-name="Trazado 114641" d="M1130,1575.339v2.477a.847.847,0,0,1-.2.535,1.127,1.127,0,0,1-.533.357,1.213,1.213,0,0,1-.209.048,1.28,1.28,0,0,1-.2.016h-47.006a1.309,1.309,0,0,1-.524-.109.993.993,0,0,1-.6-.693c0-.021-.006-.041-.009-.062a.419.419,0,0,1,0-.043c0-.016,0-.032,0-.05v-2.477c0-.016,0-.034,0-.05a.684.684,0,0,1,.01-.093,1.1,1.1,0,0,1,1.125-.813h47.006a1.265,1.265,0,0,1,.2.016,1.191,1.191,0,0,1,.209.048,1.118,1.118,0,0,1,.533.358A.841.841,0,0,1,1130,1575.339Z" transform="translate(-1080.726 -1574.383)" fill="#ffb93e"/>
        <path id="Trazado_114642" data-name="Trazado 114642" d="M1106.923,1578.772h-25.182a1.051,1.051,0,0,1-.467-.109.963.963,0,0,1-.535-.693c0-.021-.006-.041-.009-.062a.419.419,0,0,1,0-.043c0-.016,0-.032,0-.05v-2.477c0-.016,0-.034,0-.05a.684.684,0,0,1,.01-.093.819.819,0,0,1,.026-.1,1.006,1.006,0,0,1,.977-.712h22.09a7.7,7.7,0,0,0,2.938,4.28C1106.819,1578.7,1106.87,1578.735,1106.923,1578.772Z" transform="translate(-1080.726 -1574.383)" fill="#ffa412"/>
        <g id="Grupo_80682" data-name="Grupo 80682" transform="translate(17.27 0.001)">
          <rect id="Rectángulo_34132" data-name="Rectángulo 34132" width="0.534" height="4.388" transform="translate(25.755 0)" fill="#ffa412"/>
          <rect id="Rectángulo_34133" data-name="Rectángulo 34133" width="0.534" height="4.388" transform="translate(23.947 0)" fill="#ffa412"/>
          <rect id="Rectángulo_34134" data-name="Rectángulo 34134" width="0.534" height="4.388" transform="translate(21.778 0)" fill="#ffa412"/>
          <rect id="Rectángulo_34135" data-name="Rectángulo 34135" width="0.534" height="4.388" transform="translate(18.454 0)" fill="#ffa412"/>
          <rect id="Rectángulo_34136" data-name="Rectángulo 34136" width="0.534" height="4.388" transform="translate(14.939 0)" fill="#ffa412"/>
          <rect id="Rectángulo_34137" data-name="Rectángulo 34137" width="0.534" height="4.388" transform="translate(9.551 0)" fill="#ffa412"/>
          <rect id="Rectángulo_34138" data-name="Rectángulo 34138" width="0.534" height="4.388" transform="translate(4.505 0)" fill="#ffa412"/>
          <rect id="Rectángulo_34139" data-name="Rectángulo 34139" width="0.534" height="4.388" transform="translate(0 0)" fill="#ffa412"/>
          <rect id="Rectángulo_34140" data-name="Rectángulo 34140" width="0.534" height="4.388" transform="translate(27.476 0)" fill="#ffa412"/>
          <rect id="Rectángulo_34141" data-name="Rectángulo 34141" width="0.534" height="4.388" transform="translate(28.614 0)" fill="#ffa412"/>
          <rect id="Rectángulo_34142" data-name="Rectángulo 34142" width="0.534" height="4.388" transform="translate(29.712 0)" fill="#ffa412"/>
          <path id="Trazado_114643" data-name="Trazado 114643" d="M1440.29,1574.4v4.358a1.336,1.336,0,0,1-.2.015h-.334v-4.388h.334A1.3,1.3,0,0,1,1440.29,1574.4Z" transform="translate(-1409.218 -1574.388)" fill="#ffa412"/>
          <path id="Trazado_114644" data-name="Trazado 114644" d="M1445.866,1575.228v3.545a1.131,1.131,0,0,1-.534.357v-4.26A1.133,1.133,0,0,1,1445.866,1575.228Z" transform="translate(-1414.052 -1574.806)" fill="#ffa412"/>
        </g>
      </g>
      <g id="Grupo_80685" data-name="Grupo 80685" transform="translate(6.27 13.05)">
        <path id="Trazado_114645" data-name="Trazado 114645" d="M1158.853,1542.388v2.478a.849.849,0,0,1-.194.532h0c-.016.021-.034.04-.051.059a1.079,1.079,0,0,1-.251.2,1.22,1.22,0,0,1-.15.072,0,0,0,0,0,0,0c-.025.01-.051.021-.079.029a1.2,1.2,0,0,1-.208.048,1.266,1.266,0,0,1-.2.015H1110.71a1.1,1.1,0,0,1-1.125-.812.64.64,0,0,1-.01-.094c0-.016,0-.032,0-.049v-2.478c0-.016,0-.033,0-.049a1.047,1.047,0,0,1,1-.9,1.009,1.009,0,0,1,.134-.007h47.005a1.489,1.489,0,0,1,.2.015,1.339,1.339,0,0,1,.208.05,1.155,1.155,0,0,1,.482.3c.018.019.035.038.051.059h0A.849.849,0,0,1,1158.853,1542.388Z" transform="translate(-1109.574 -1541.434)" fill="#ffb93e"/>
        <path id="Trazado_114646" data-name="Trazado 114646" d="M1135.771,1545.821h-25.183a1.006,1.006,0,0,1-.977-.71.813.813,0,0,1-.026-.1.64.64,0,0,1-.01-.094c0-.016,0-.032,0-.049v-2.478c0-.016,0-.033,0-.049a.985.985,0,0,1,.893-.9.819.819,0,0,1,.12-.007h22.09s0,0,0,.007A7.689,7.689,0,0,0,1135.771,1545.821Z" transform="translate(-1109.574 -1541.434)" fill="#ffa412"/>
        <g id="Grupo_80684" data-name="Grupo 80684" transform="translate(17.27)">
          <rect id="Rectángulo_34143" data-name="Rectángulo 34143" width="0.534" height="4.388" transform="translate(25.755 0)" fill="#ffa412"/>
          <rect id="Rectángulo_34144" data-name="Rectángulo 34144" width="0.534" height="4.388" transform="translate(23.947 0)" fill="#ffa412"/>
          <rect id="Rectángulo_34145" data-name="Rectángulo 34145" width="0.534" height="4.388" transform="translate(21.778 0)" fill="#ffa412"/>
          <rect id="Rectángulo_34146" data-name="Rectángulo 34146" width="0.534" height="4.388" transform="translate(18.454 0)" fill="#ffa412"/>
          <rect id="Rectángulo_34147" data-name="Rectángulo 34147" width="0.534" height="4.388" transform="translate(14.939 0)" fill="#ffa412"/>
          <rect id="Rectángulo_34148" data-name="Rectángulo 34148" width="0.534" height="4.388" transform="translate(9.551 0)" fill="#ffa412"/>
          <rect id="Rectángulo_34149" data-name="Rectángulo 34149" width="0.534" height="4.388" transform="translate(4.505 0)" fill="#ffa412"/>
          <rect id="Rectángulo_34150" data-name="Rectángulo 34150" width="0.534" height="4.388" transform="translate(0 0)" fill="#ffa412"/>
          <rect id="Rectángulo_34151" data-name="Rectángulo 34151" width="0.534" height="4.388" transform="translate(27.476 0)" fill="#ffa412"/>
          <rect id="Rectángulo_34152" data-name="Rectángulo 34152" width="0.534" height="4.388" transform="translate(28.614 0)" fill="#ffa412"/>
          <rect id="Rectángulo_34153" data-name="Rectángulo 34153" width="0.534" height="4.388" transform="translate(29.712 0)" fill="#ffa412"/>
          <path id="Trazado_114647" data-name="Trazado 114647" d="M1469.139,1541.448v4.358a1.339,1.339,0,0,1-.2.015h-.334v-4.388h.334A1.339,1.339,0,0,1,1469.139,1541.448Z" transform="translate(-1438.067 -1541.433)" fill="#ffa412"/>
          <path id="Trazado_114648" data-name="Trazado 114648" d="M1474.715,1542.273v3.545a1.133,1.133,0,0,1-.534.357v-4.259A1.133,1.133,0,0,1,1474.715,1542.273Z" transform="translate(-1442.901 -1541.852)" fill="#ffa412"/>
        </g>
      </g>
      <g id="Grupo_80687" data-name="Grupo 80687" transform="translate(0.098 8.668)">
        <path id="Trazado_114649" data-name="Trazado 114649" d="M1112.5,1509.483v2.477a.839.839,0,0,1-.194.533,1.121,1.121,0,0,1-.534.358,1.219,1.219,0,0,1-.207.049l-.066.009h-.009c-.015,0-.029,0-.044,0h-47.086a1.2,1.2,0,0,1-.968-.455.84.84,0,0,1-.169-.451c0-.018,0-.034,0-.05v-2.477c0-.018,0-.034,0-.05a1.009,1.009,0,0,1,.806-.863,1.293,1.293,0,0,1,.33-.043h47l.06,0,.029,0a.957.957,0,0,1,.112.012,1.208,1.208,0,0,1,.207.049.673.673,0,0,1,.1.037h0a1.1,1.1,0,0,1,.329.207.017.017,0,0,1,0,.006l.013.012a.858.858,0,0,1,.089.1A.844.844,0,0,1,1112.5,1509.483Z" transform="translate(-1063.226 -1508.527)" fill="#ffb93e"/>
        <path id="Trazado_114650" data-name="Trazado 114650" d="M1089.423,1512.916h-25.181a1.032,1.032,0,0,1-.849-.433.9.9,0,0,1-.166-.473c0-.018,0-.034,0-.05v-2.477c0-.018,0-.034,0-.05a.979.979,0,0,1,.809-.885,1.042,1.042,0,0,1,.205-.021h22.089c.009.034.019.068.029.1a7.677,7.677,0,0,0,3.053,4.28Z" transform="translate(-1063.226 -1508.527)" fill="#ffa412"/>
        <g id="Grupo_80686" data-name="Grupo 80686" transform="translate(17.27 0)">
          <rect id="Rectángulo_34154" data-name="Rectángulo 34154" width="0.534" height="4.388" transform="translate(25.755 0)" fill="#ffa412"/>
          <rect id="Rectángulo_34155" data-name="Rectángulo 34155" width="0.534" height="4.388" transform="translate(23.947 0)" fill="#ffa412"/>
          <rect id="Rectángulo_34156" data-name="Rectángulo 34156" width="0.534" height="4.388" transform="translate(21.778 0)" fill="#ffa412"/>
          <rect id="Rectángulo_34157" data-name="Rectángulo 34157" width="0.534" height="4.388" transform="translate(18.454 0)" fill="#ffa412"/>
          <rect id="Rectángulo_34158" data-name="Rectángulo 34158" width="0.534" height="4.388" transform="translate(14.939 0)" fill="#ffa412"/>
          <rect id="Rectángulo_34159" data-name="Rectángulo 34159" width="0.534" height="4.388" transform="translate(9.551 0)" fill="#ffa412"/>
          <rect id="Rectángulo_34160" data-name="Rectángulo 34160" width="0.534" height="4.388" transform="translate(4.505 0)" fill="#ffa412"/>
          <rect id="Rectángulo_34161" data-name="Rectángulo 34161" width="0.534" height="4.388" transform="translate(0 0)" fill="#ffa412"/>
          <rect id="Rectángulo_34162" data-name="Rectángulo 34162" width="0.534" height="4.388" transform="translate(27.476 0)" fill="#ffa412"/>
          <rect id="Rectángulo_34163" data-name="Rectángulo 34163" width="0.534" height="4.388" transform="translate(28.614 0)" fill="#ffa412"/>
          <rect id="Rectángulo_34164" data-name="Rectángulo 34164" width="0.534" height="4.388" transform="translate(29.712 0)" fill="#ffa412"/>
          <path id="Trazado_114651" data-name="Trazado 114651" d="M1422.793,1508.544v4.358a1.323,1.323,0,0,1-.2.015h-.334v-4.388h.334A1.323,1.323,0,0,1,1422.793,1508.544Z" transform="translate(-1391.721 -1508.529)" fill="#ffa412"/>
          <path id="Trazado_114652" data-name="Trazado 114652" d="M1428.368,1509.371v3.545a1.131,1.131,0,0,1-.533.357v-4.259A1.131,1.131,0,0,1,1428.368,1509.371Z" transform="translate(-1396.555 -1508.949)" fill="#ffa412"/>
        </g>
      </g>
      <g id="Grupo_80689" data-name="Grupo 80689" transform="translate(3.554 4.381)">
        <path id="Trazado_114653" data-name="Trazado 114653" d="M1138.458,1477.291v2.478a.844.844,0,0,1-.195.533,1.134,1.134,0,0,1-.534.357,1.2,1.2,0,0,1-.208.049,1.321,1.321,0,0,1-.2.015h-47a1.3,1.3,0,0,1-.508-.1.977.977,0,0,1-.625-.765c0-.013,0-.026,0-.039s0-.033,0-.049v-2.478c0-.016,0-.033,0-.049a1.048,1.048,0,0,1,1-.9,1.246,1.246,0,0,1,.134-.007h47a1.337,1.337,0,0,1,.2.015,1.215,1.215,0,0,1,.208.049,1.134,1.134,0,0,1,.534.357A.844.844,0,0,1,1138.458,1477.291Z" transform="translate(-1089.179 -1476.336)" fill="#ffb93e"/>
        <path id="Trazado_114654" data-name="Trazado 114654" d="M1115.376,1480.724h-25.182a1.05,1.05,0,0,1-.453-.1.961.961,0,0,1-.558-.765c0-.013,0-.026,0-.039s0-.033,0-.049v-2.478c0-.016,0-.033,0-.049a1.017,1.017,0,0,1,1.014-.906h22.09l0,.007a7.7,7.7,0,0,0,2.946,4.28C1115.279,1480.657,1115.327,1480.691,1115.376,1480.724Z" transform="translate(-1089.179 -1476.336)" fill="#ffa412"/>
        <g id="Grupo_80688" data-name="Grupo 80688" transform="translate(17.27)">
          <rect id="Rectángulo_34165" data-name="Rectángulo 34165" width="0.534" height="4.388" transform="translate(25.755 0)" fill="#ffa412"/>
          <rect id="Rectángulo_34166" data-name="Rectángulo 34166" width="0.534" height="4.388" transform="translate(23.947 0)" fill="#ffa412"/>
          <rect id="Rectángulo_34167" data-name="Rectángulo 34167" width="0.534" height="4.388" transform="translate(21.778 0)" fill="#ffa412"/>
          <rect id="Rectángulo_34168" data-name="Rectángulo 34168" width="0.534" height="4.388" transform="translate(18.454 0)" fill="#ffa412"/>
          <rect id="Rectángulo_34169" data-name="Rectángulo 34169" width="0.534" height="4.388" transform="translate(14.939 0)" fill="#ffa412"/>
          <rect id="Rectángulo_34170" data-name="Rectángulo 34170" width="0.534" height="4.388" transform="translate(9.551 0)" fill="#ffa412"/>
          <rect id="Rectángulo_34171" data-name="Rectángulo 34171" width="0.534" height="4.388" transform="translate(4.505 0)" fill="#ffa412"/>
          <rect id="Rectángulo_34172" data-name="Rectángulo 34172" width="0.534" height="4.388" transform="translate(0 0)" fill="#ffa412"/>
          <rect id="Rectángulo_34173" data-name="Rectángulo 34173" width="0.534" height="4.388" transform="translate(27.476 0)" fill="#ffa412"/>
          <rect id="Rectángulo_34174" data-name="Rectángulo 34174" width="0.534" height="4.388" transform="translate(28.614 0)" fill="#ffa412"/>
          <rect id="Rectángulo_34175" data-name="Rectángulo 34175" width="0.534" height="4.388" transform="translate(29.712 0)" fill="#ffa412"/>
          <path id="Trazado_114655" data-name="Trazado 114655" d="M1448.746,1476.35v4.358a1.322,1.322,0,0,1-.2.015h-.334v-4.388h.334A1.355,1.355,0,0,1,1448.746,1476.35Z" transform="translate(-1417.674 -1476.335)" fill="#ffa412"/>
          <path id="Trazado_114656" data-name="Trazado 114656" d="M1454.322,1477.175v3.545a1.134,1.134,0,0,1-.534.357v-4.26A1.136,1.136,0,0,1,1454.322,1477.175Z" transform="translate(-1422.507 -1476.754)" fill="#ffa412"/>
        </g>
      </g>
      <g id="Grupo_80691" data-name="Grupo 80691" transform="translate(5.025 0)">
        <path id="Trazado_114657" data-name="Trazado 114657" d="M1149.506,1444.389v2.478a.844.844,0,0,1-.195.533,1.133,1.133,0,0,1-.534.357,1.217,1.217,0,0,1-.208.049l-.066.009-.037,0-.037,0-.06,0h-47a1.074,1.074,0,0,1-1.136-.906c0-.016,0-.033,0-.049v-2.478c0-.016,0-.033,0-.049a1.074,1.074,0,0,1,1.136-.906h47a1.322,1.322,0,0,1,.2.015,1.229,1.229,0,0,1,.208.049,1.132,1.132,0,0,1,.534.358A.843.843,0,0,1,1149.506,1444.389Z" transform="translate(-1100.227 -1443.434)" fill="#ffb93e"/>
        <path id="Trazado_114658" data-name="Trazado 114658" d="M1126.424,1447.822h-25.182a1,1,0,0,1-1.014-.906c0-.016,0-.033,0-.049v-2.478c0-.016,0-.033,0-.049a.994.994,0,0,1,1.014-.906h22.089a7.694,7.694,0,0,0,3.083,4.381Z" transform="translate(-1100.227 -1443.434)" fill="#ffa412"/>
        <g id="Grupo_80690" data-name="Grupo 80690" transform="translate(17.27)">
          <rect id="Rectángulo_34176" data-name="Rectángulo 34176" width="0.534" height="4.388" transform="translate(25.755 0)" fill="#ffa412"/>
          <rect id="Rectángulo_34177" data-name="Rectángulo 34177" width="0.534" height="4.388" transform="translate(23.947 0)" fill="#ffa412"/>
          <rect id="Rectángulo_34178" data-name="Rectángulo 34178" width="0.534" height="4.388" transform="translate(21.778 0)" fill="#ffa412"/>
          <rect id="Rectángulo_34179" data-name="Rectángulo 34179" width="0.534" height="4.388" transform="translate(18.454 0)" fill="#ffa412"/>
          <rect id="Rectángulo_34180" data-name="Rectángulo 34180" width="0.534" height="4.388" transform="translate(14.939 0)" fill="#ffa412"/>
          <rect id="Rectángulo_34181" data-name="Rectángulo 34181" width="0.534" height="4.388" transform="translate(9.551 0)" fill="#ffa412"/>
          <rect id="Rectángulo_34182" data-name="Rectángulo 34182" width="0.534" height="4.388" transform="translate(4.505 0)" fill="#ffa412"/>
          <rect id="Rectángulo_34183" data-name="Rectángulo 34183" width="0.534" height="4.388" transform="translate(0 0)" fill="#ffa412"/>
          <rect id="Rectángulo_34184" data-name="Rectángulo 34184" width="0.534" height="4.388" transform="translate(27.476 0)" fill="#ffa412"/>
          <rect id="Rectángulo_34185" data-name="Rectángulo 34185" width="0.534" height="4.388" transform="translate(28.614 0)" fill="#ffa412"/>
          <rect id="Rectángulo_34186" data-name="Rectángulo 34186" width="0.534" height="4.388" transform="translate(29.712 0)" fill="#ffa412"/>
          <path id="Trazado_114659" data-name="Trazado 114659" d="M1459.794,1443.448v4.358a1.307,1.307,0,0,1-.2.015h-.334v-4.388h.334A1.338,1.338,0,0,1,1459.794,1443.448Z" transform="translate(-1428.722 -1443.433)" fill="#ffa412"/>
          <path id="Trazado_114660" data-name="Trazado 114660" d="M1465.369,1444.273v3.544a1.133,1.133,0,0,1-.534.357v-4.259A1.133,1.133,0,0,1,1465.369,1444.273Z" transform="translate(-1433.555 -1443.852)" fill="#ffa412"/>
        </g>
      </g>
    </g>
    <g id="Grupo_80693" data-name="Grupo 80693" transform="translate(331.802 320.534)">
      <path id="Trazado_114661" data-name="Trazado 114661" d="M1282.912,1225s-2.469,3.476-4.732,3.524-5.707-1.611-5.707-1.611-2.078-4.632-.668-6.444a3.026,3.026,0,0,1,2.892.475,4.438,4.438,0,0,1,.765.733,2.425,2.425,0,0,0,1.188.805c1.615.492,3.532-.664,4.249.451a7.58,7.58,0,0,0,1.248,1.478A5.7,5.7,0,0,0,1282.912,1225Z" transform="translate(-1250.725 -1220.295)" fill="#ffeddc"/>
      <path id="Trazado_114662" data-name="Trazado 114662" d="M1116.7,1303.648s8.726-21.144,24.433-21.547c0,0,14.5,1.611,15.3,21.547Z" transform="translate(-1116.698 -1273.871)" fill="#ffeddc"/>
      <path id="Trazado_114663" data-name="Trazado 114663" d="M1267.675,1269.135s6.3,1.4,8.238.577a1.945,1.945,0,0,0-2.358-2.263,5.562,5.562,0,0,1-3.692-.973C1268.88,1265.975,1267.414,1268.034,1267.675,1269.135Z" transform="translate(-1247.545 -1260.259)" fill="#db6a1d"/>
      <path id="Trazado_114664" data-name="Trazado 114664" d="M1298.351,1229.435c-.4.3-1.639-4.257-1.639-4.257a4.429,4.429,0,0,1,.765.733,2.427,2.427,0,0,0,1.188.805C1298.669,1226.849,1298.742,1229.141,1298.351,1229.435Z" transform="translate(-1272.742 -1224.528)" fill="#e5c1a1"/>
      <path id="Trazado_114665" data-name="Trazado 114665" d="M1330.284,1241.6a25.962,25.962,0,0,1-3.4,1.8c-.4,0,2.147-3.274,2.147-3.274A7.583,7.583,0,0,0,1330.284,1241.6Z" transform="translate(-1298.863 -1237.479)" fill="#e5c1a1"/>
      <path id="Trazado_114666" data-name="Trazado 114666" d="M1180.7,1338.368c-.161-.138,6.175-9.331,7.921-9.4s5.666,2.014,8.505,2.282,5.591-.537,6.128,1.141,2.014,7.628,1.107,8.58S1184.184,1341.345,1180.7,1338.368Z" transform="translate(-1172.174 -1314.498)" fill="#f9ddbf"/>
    </g>
    <g id="Grupo_80696" data-name="Grupo 80696" transform="translate(379.423 242.473)">
      <path id="Trazado_114667" data-name="Trazado 114667" d="M1496.6,658.817a13.718,13.718,0,0,1-1.266.869c-.172.106-.345.206-.523.3a14.064,14.064,0,0,1-1.371.662l-.4-.069q-1.266-.212-2.5-.388-.61-.088-1.209-.167c-1.678-.223-3.294-.4-4.826-.54q-.619-.059-1.22-.107c-.319-.026-.631-.05-.941-.073q-1.137-.084-2.2-.143a13.719,13.719,0,0,1-2.692-2.509,13.832,13.832,0,0,1,4.013-20.87c.176-.1.354-.191.533-.277a13.819,13.819,0,0,1,14.6,23.309Z" transform="translate(-1474.322 -634.067)" fill="#ffb93e"/>
      <g id="Grupo_80694" data-name="Grupo 80694" transform="translate(1.52 1.584)">
        <path id="Trazado_114668" data-name="Trazado 114668" d="M1508.961,652.366a12.387,12.387,0,1,0-15.781,17.327q.6.049,1.22.107a12.045,12.045,0,1,1,9.855-1.091c-.107.063-.214.125-.323.185a11.988,11.988,0,0,1-4.706,1.446q.6.079,1.208.167a12.377,12.377,0,0,0,3.659-1.32c.225-.123.443-.254.658-.389A12.4,12.4,0,0,0,1508.961,652.366Z" transform="translate(-1485.736 -645.963)" fill="#ffa412"/>
      </g>
      <g id="Grupo_80695" data-name="Grupo 80695" transform="translate(8.098 4.877)">
        <path id="Trazado_114669" data-name="Trazado 114669" d="M1547.026,680.986a3.557,3.557,0,0,0-2.244-2.173,6.318,6.318,0,0,0-1.677-.314q-.925-.057-2.013-.026a9.669,9.669,0,0,1-1.15-.024,2.872,2.872,0,0,1-.809-.176,1.415,1.415,0,0,1-.54-.367,1.932,1.932,0,0,1-.344-.565,2.083,2.083,0,0,1-.156-.665,1.422,1.422,0,0,1,.1-.624,1.527,1.527,0,0,1,.385-.546,2.255,2.255,0,0,1,.7-.429,1.776,1.776,0,0,1,1.51.015,2.561,2.561,0,0,1,1.142,1.427l2.815-1.142a5.235,5.235,0,0,0-.922-1.529,3.951,3.951,0,0,0-2.759-1.361,5.241,5.241,0,0,0-1.7.173l-.8-1.963-1.558.633.785,1.935a5.854,5.854,0,0,0-1.43,1.019,4.377,4.377,0,0,0-.9,1.257,3.5,3.5,0,0,0-.332,1.42,4.152,4.152,0,0,0,1.224,2.918,3.686,3.686,0,0,0,1.319.772,6.238,6.238,0,0,0,1.677.3,19.713,19.713,0,0,0,2.019,0,7.708,7.708,0,0,1,1.1.007,2.95,2.95,0,0,1,.8.179,1.514,1.514,0,0,1,.564.383,2.085,2.085,0,0,1,.379.625,1.757,1.757,0,0,1,.135.668,1.429,1.429,0,0,1-.151.634,1.8,1.8,0,0,1-.446.562,2.7,2.7,0,0,1-.756.443,3.238,3.238,0,0,1-.827.214,1.867,1.867,0,0,1-.834-.084,1.935,1.935,0,0,1-.761-.492,2.972,2.972,0,0,1-.615-1l-2.816,1.143a4.889,4.889,0,0,0,1.109,1.722,3.969,3.969,0,0,0,1.458.909,4.452,4.452,0,0,0,1.658.239,7.071,7.071,0,0,0,1.706-.282l.727,1.792,1.549-.629-.731-1.8a6.35,6.35,0,0,0,1.446-1.009,4.245,4.245,0,0,0,.921-1.239,3.445,3.445,0,0,0,.339-1.413A3.784,3.784,0,0,0,1547.026,680.986Z" transform="translate(-1535.134 -670.696)" fill="#ffa412"/>
      </g>
    </g>
    <path id="Trazado_114670" data-name="Trazado 114670" d="M1083.08,1495.626a23.568,23.568,0,0,1-15.569,14.621v-1.929c0-.016,0-.032,0-.049a.929.929,0,0,1,.01-.094.828.828,0,0,1,.028-.105,1.008,1.008,0,0,1,.977-.707H1063.5a1.007,1.007,0,0,1-.976-.709.841.841,0,0,1-.027-.1c0-.031-.009-.062-.01-.093s0-.032,0-.05v-2.477c0-.016,0-.034,0-.05s.006-.062.01-.093a.847.847,0,0,1,.027-.1,1.007,1.007,0,0,1,.976-.709h1.962a.962.962,0,0,1-.535-.693c0-.02-.006-.041-.009-.062a.42.42,0,0,1,0-.042c0-.016,0-.032,0-.049v-2.479c0-.016,0-.032,0-.049a.635.635,0,0,1,.01-.092.782.782,0,0,1,.026-.1,1,1,0,0,1,.977-.711h1.126a1.009,1.009,0,0,1-.977-.708.8.8,0,0,1-.028-.105c0-.031-.009-.062-.01-.093v-2.577a.988.988,0,0,1,.894-.9H1063.6a.994.994,0,0,1-1.015-.906c0-.016,0-.032,0-.05v-2.477c0-.016,0-.034,0-.05a.364.364,0,0,1,0-.04.979.979,0,0,1,.789-.841.994.994,0,0,1-.881-.817.783.783,0,0,1-.009-.082c0-.018,0-.034,0-.05v-2.477c0-.018,0-.034,0-.05s.006-.062.01-.092a.82.82,0,0,1,.027-.1,1.007,1.007,0,0,1,.976-.709h1.962a.963.963,0,0,1-.535-.693c0-.021-.006-.041-.009-.062s0-.028,0-.043,0-.032,0-.05v-2.477c0-.016,0-.034,0-.05a.665.665,0,0,1,.01-.093.781.781,0,0,1,.026-.1,1.006,1.006,0,0,1,.977-.712h3.841a1.006,1.006,0,0,1-.977-.71.852.852,0,0,1-.026-.1.642.642,0,0,1-.01-.094c0-.016,0-.032,0-.048v-2.479c0-.016,0-.032,0-.048a.985.985,0,0,1,.893-.9h-6.05a1.032,1.032,0,0,1-.849-.433l0-.022.637-3.891,0-.022.908-5.552c10.584,1.417,18.518,9.447,19.757,19.139A20.97,20.97,0,0,1,1083.08,1495.626Z" transform="translate(-737.903 -1113.605)" fill="#e2810e" opacity="0.5"/>
    <circle id="Elipse_4757" data-name="Elipse 4757" cx="23.12" cy="23.12" r="23.12" transform="translate(296.11 398.355) rotate(-93)" fill="#e2810e"/>
    <path id="Trazado_114671" data-name="Trazado 114671" d="M861.187,1498.756q-.427.261-.869.5c-.1.055-.2.109-.3.161-.228.122-.456.238-.685.353a23.121,23.121,0,0,1-21.339-41.01q.444-.245.9-.468t.881-.415a23.062,23.062,0,0,1,6.94-1.866,23.124,23.124,0,0,1,14.476,42.741Z" transform="translate(-532.934 -1103.982)" fill="#ffb93e"/>
    <g id="Grupo_80697" data-name="Grupo 80697" transform="translate(295.629 354.556)">
      <path id="Trazado_114672" data-name="Trazado 114672" d="M865.794,1517.235a20.8,20.8,0,0,1-5.786-.826,20.59,20.59,0,1,1,5.786.826Zm-.063-40.88a20.155,20.155,0,1,0,17.687,10.423A20.036,20.036,0,0,0,865.731,1476.355Z" transform="translate(-845.039 -1475.796)" fill="#ffa412"/>
    </g>
    <g id="Grupo_80698" data-name="Grupo 80698" transform="translate(306.646 360.066)">
      <path id="Trazado_114673" data-name="Trazado 114673" d="M947.676,1534.387c-.046-.114-.094-.224-.143-.332a6.065,6.065,0,0,0-1.4-2,6.265,6.265,0,0,0-2.208-1.3,10.569,10.569,0,0,0-2.8-.527q-1.548-.1-3.369-.044a16.23,16.23,0,0,1-1.924-.039,4.816,4.816,0,0,1-1.354-.3,2.374,2.374,0,0,1-.9-.612,3.225,3.225,0,0,1-.574-.948,3.5,3.5,0,0,1-.261-1.111,2.386,2.386,0,0,1,.164-1.045,2.556,2.556,0,0,1,.645-.913,3.764,3.764,0,0,1,1.179-.718,2.977,2.977,0,0,1,2.526.024,4.287,4.287,0,0,1,1.909,2.39l4.71-1.912a8.8,8.8,0,0,0-1.542-2.557,6.605,6.605,0,0,0-4.617-2.278,8.723,8.723,0,0,0-2.843.291l-1.334-3.285-2.607,1.059,1.315,3.24a9.777,9.777,0,0,0-2.394,1.7,7.317,7.317,0,0,0-1.509,2.1,5.859,5.859,0,0,0-.554,2.377,6.959,6.959,0,0,0,2.049,4.881,6.166,6.166,0,0,0,2.2,1.292,10.443,10.443,0,0,0,2.807.509,32.985,32.985,0,0,0,3.377,0,12.552,12.552,0,0,1,1.837.012,4.8,4.8,0,0,1,1.346.3,2.548,2.548,0,0,1,.943.64,3.467,3.467,0,0,1,.634,1.047,2.905,2.905,0,0,1,.225,1.117,2.383,2.383,0,0,1-.251,1.063,3,3,0,0,1-.748.939,4.522,4.522,0,0,1-1.265.742,5.423,5.423,0,0,1-1.382.359,3.156,3.156,0,0,1-1.395-.139,3.245,3.245,0,0,1-1.273-.823,5,5,0,0,1-1.03-1.671l-4.709,1.912a8.128,8.128,0,0,0,1.852,2.88,6.68,6.68,0,0,0,2.44,1.522,7.461,7.461,0,0,0,2.773.4,11.759,11.759,0,0,0,2.856-.472l1.216,3,2.591-1.052-1.223-3.012a10.526,10.526,0,0,0,2.418-1.688,7.139,7.139,0,0,0,1.459-1.906c.029-.055.056-.11.083-.166a5.794,5.794,0,0,0,.568-2.364A6.364,6.364,0,0,0,947.676,1534.387Z" transform="translate(-927.78 -1517.171)" fill="#ffa412"/>
    </g>
    <g id="Grupo_80699" data-name="Grupo 80699" transform="translate(238.811 289.635)">
      <path id="Trazado_114674" data-name="Trazado 114674" d="M815.948,1017.784c.07-.283-6.158,2.815-6.474,3.166-2.921,3.24-2.088,7.469-.417,7.509,1.072.026.864,1.808.864,1.808l11.943-5.052S820.426,1016.83,815.948,1017.784Z" transform="translate(-755.715 -1013.786)" fill="#2c3a64"/>
      <path id="Trazado_114675" data-name="Trazado 114675" d="M773.275,992.9s.427-4.652-4.771-4.652a6.1,6.1,0,0,1,2.39,1.282,6.147,6.147,0,0,0-6.924,1.045c-3.608,2.991-1.366,10.492-2.463,11.916s-5.37,1.709-4.848,6.314,13.56,10.373,12.723,14.183c0,0,5.109-7.511,1.456-10.939a6.772,6.772,0,0,1,1.962,3.671s.483-3.893-1.994-5.138c-2.192-1.1-3.988-5.132-3.8-5.852S773.275,992.9,773.275,992.9Z" transform="translate(-711.572 -988.25)" fill="#2c3a64"/>
      <path id="Trazado_114676" data-name="Trazado 114676" d="M787.515,1163.422a4.616,4.616,0,0,0-8.174-1.905,4.18,4.18,0,0,0-.823,2.028c-.541,4.381,6.465,22.227,7.468,23.844,1.826,2.942,12.581,13.026,12.581,13.026l1.982-1.2s-7.629-12.915-8.81-14.123C790.374,1183.693,789.037,1170.751,787.515,1163.422Z" transform="translate(-730.532 -1136.882)" fill="#ed985f"/>
      <path id="Trazado_114677" data-name="Trazado 114677" d="M923.619,1444.786s2.893-1.9,3.988-1.777,4.265,1.034,4.3,1.5-3.532.757-3.771,1.011-2.664,1.873-3.543,1.365S923.619,1444.786,923.619,1444.786Z" transform="translate(-856.337 -1382.449)" fill="#ed985f"/>
      <path id="Trazado_114678" data-name="Trazado 114678" d="M580.456,1354.075l-2.585-.38a30.553,30.553,0,0,1-9.984-19.791,23.041,23.041,0,0,1-.062-3.984.7.7,0,0,0-.09-.44s0,0,0,0c-.278-.426-.97-1.494-1.907-3.014-.924-1.5-2.5-4.326-4.244-7.5-3.133-5.718-6.781-12.556-8.033-14.734-3.987-6.941-2.065-11.609-2.065-11.609s11.122-1.1,14.17-3.766l1.1,1.692s2.41,10.669,2.3,10.718q.178.544.362,1.108a185.485,185.485,0,0,1,5.282,19.181,31.718,31.718,0,0,1,.835,8.287,14.542,14.542,0,0,0,.2,3.036C576.8,1340.532,580.456,1354.075,580.456,1354.075Z" transform="translate(-533.354 -1248.826)" fill="#2b478b"/>
      <path id="Trazado_114679" data-name="Trazado 114679" d="M742.212,1764.157H731.43a5.92,5.92,0,0,1,.3-2.89c.54-1.2,1.309-1.234.1-3.11.685.705,2.888,1,4.446.787a13.2,13.2,0,0,0,1.869,2.845C738.853,1762.3,741.995,1762.117,742.212,1764.157Z" transform="translate(-689.688 -1655.638)" fill="#233862"/>
      <path id="Trazado_114680" data-name="Trazado 114680" d="M569.409,1302.372c-.942,5.195-3.167,13.839-7.827,16.591-3.133-5.718-6.781-12.556-8.033-14.734-3.987-6.941-2.065-11.609-2.065-11.609s11.122-1.1,14.17-3.766l1.1,1.692s2.41,10.669,2.3,10.718Q569.225,1301.808,569.409,1302.372Z" transform="translate(-533.354 -1248.826)" fill="#233862"/>
      <path id="Trazado_114681" data-name="Trazado 114681" d="M799.246,1169.579a11.543,11.543,0,0,1,2.221,3.484s-2.432,6.984-8.115,7.859C793.351,1180.923,797.848,1169.576,799.246,1169.579Z" transform="translate(-743.416 -1145.434)" fill="#ed7d2b"/>
      <path id="Trazado_114682" data-name="Trazado 114682" d="M456.142,1278.774l.037-2.017c-4.018.507-13.854-4.8-13.854-4.8s-4.2,2.8-4.779,10.78c-.281,3.9-2.058,20.378-2.254,25.3-.072,1.784-.1,3.057-.1,3.565a.01.01,0,0,1,0,.005.7.7,0,0,1-.171.415,23.037,23.037,0,0,0-2.177,3.337c-6.131,11.407-2.925,26.907-2.925,26.907l1.424-.362s5.184-16.068,8.572-23.018a14.557,14.557,0,0,1,1.535-2.627,31.7,31.7,0,0,0,3.941-7.337,191.81,191.81,0,0,0,6.666-19.977C452.176,1288.966,456.142,1278.774,456.142,1278.774Z" transform="translate(-427.649 -1234.178)" fill="#2b478b"/>
      <path id="Trazado_114683" data-name="Trazado 114683" d="M785.065,1121.315c-6.568-1.507-2.372-10.737-1.991-10.575.91-.186,2.909-1.783,4.7-4.9l.242.21,4.034,3.537s-.933,1.376-1.717,2.723a6.156,6.156,0,0,0-1.051,2.451C789.6,1115.012,786.817,1121.718,785.065,1121.315Z" transform="translate(-733.059 -1090.178)" fill="#ffb27d"/>
      <path id="Trazado_114684" data-name="Trazado 114684" d="M834.576,1110.954s-.933,1.374-1.717,2.723c-2.508-1.546-2.511-4.651-2.318-6.26Z" transform="translate(-775.589 -1091.549)" fill="#ed985f"/>
      <path id="Trazado_114685" data-name="Trazado 114685" d="M833.6,1065.783s-6.09-3.389-3.921-7.149,2.843-6.73,6.823-4.725,3.9,3.871,3.483,5.3S835.239,1066.567,833.6,1065.783Z" transform="translate(-774.5 -1044.606)" fill="#ffb27d"/>
      <path id="Trazado_114686" data-name="Trazado 114686" d="M836.845,1053.7c-.279-1.669-1.127-1.829-1.718-1.717a4.871,4.871,0,0,0-5.923-2.268,8.292,8.292,0,0,1-4.8,2.883s.707,1.315,3.619,2.129a4.976,4.976,0,0,0,2.872-.23,16.263,16.263,0,0,1-4.133,1.558c3.837.351,7.488-3.157,7.867-3.532a5.461,5.461,0,0,1,.3,2.514c-.252,1.131-1.256,3.179-.643,3.444C834.286,1058.483,837.263,1056.206,836.845,1053.7Z" transform="translate(-770.333 -1041.29)" fill="#2c3a64"/>
      <path id="Trazado_114687" data-name="Trazado 114687" d="M429.186,1763.651H418.4a5.919,5.919,0,0,1,.3-2.89c.54-1.2,1.385-1.74,1.182-3.187a3.882,3.882,0,0,0,3.361,1.286,11.814,11.814,0,0,0,1.871,2.425C425.827,1761.79,428.969,1761.61,429.186,1763.651Z" transform="translate(-418.344 -1655.131)" fill="#233862"/>
      <path id="Trazado_114688" data-name="Trazado 114688" d="M566.66,1148.961a26.21,26.21,0,0,1-5.326.966c-2.835.309-5.762.521-7.3,1.133a1.646,1.646,0,0,0-1.05.851c-.665,2-3.594,5.083-3.594,5.083-18.775-.854-20.836-8.708-20.836-8.708,12.632-14.688,34.02-18.94,34.02-18.94s1.528-.648,5.375,2.41c2.567,2.041,2.229,2.824,2.229,2.824S570.743,1147.536,566.66,1148.961Z" transform="translate(-513.882 -1110.507)" fill="#f99746"/>
      <path id="Trazado_114689" data-name="Trazado 114689" d="M726.81,1184.85c-2.835.309-5.762.521-7.3,1.133a29.9,29.9,0,0,1,3.792-16.407S726.189,1181.307,726.81,1184.85Z" transform="translate(-679.358 -1145.431)" fill="#ed7d2b"/>
      <path id="Trazado_114690" data-name="Trazado 114690" d="M746.446,1155.972s-7.106.7-7.675,5.319,6.812,23.423,7.87,25.126c1.925,3.1,13.258,13.727,13.258,13.727l2.089-1.266s-8.039-13.609-9.284-14.883C750.749,1182,748.852,1157.571,746.446,1155.972Z" transform="translate(-696.076 -1133.638)" fill="#ffb27d"/>
      <path id="Trazado_114691" data-name="Trazado 114691" d="M730.812,1156.865c.019.1,6.558,2.136,10.766,0,0,0,.9-9.709-4.124-9.183s-8,2.109-8.126,4.515A8.5,8.5,0,0,0,730.812,1156.865Z" transform="translate(-687.912 -1126.435)" fill="#f99746"/>
      <path id="Trazado_114692" data-name="Trazado 114692" d="M892.79,1461.922s2.549-2.341,3.65-2.4,4.376.334,4.489.787-3.364,1.316-3.559,1.606-2.327,2.278-3.277,1.919S892.79,1461.922,892.79,1461.922Z" transform="translate(-829.614 -1396.766)" fill="#ffb27d"/>
    </g>
    <g id="Grupo_80700" data-name="Grupo 80700" transform="translate(409.282 277.221)">
      <path id="Trazado_114693" data-name="Trazado 114693" d="M1738.932,1017.743h0a1.659,1.659,0,0,1-1.51-1.05l-38.812-119.241a.784.784,0,0,1,.823-1.063h0a1.66,1.66,0,0,1,1.51,1.05l38.812,119.241A.784.784,0,0,1,1738.932,1017.743Z" transform="translate(-1698.559 -896.207)" fill="#233862"/>
      <path id="Trazado_114694" data-name="Trazado 114694" d="M1973.842,1016.371h0a1.659,1.659,0,0,1-1.51-1.05l-38.812-119.241a.784.784,0,0,1,.823-1.063h0a1.659,1.659,0,0,1,1.51,1.05l38.812,119.241A.784.784,0,0,1,1973.842,1016.371Z" transform="translate(-1902.189 -895.018)" fill="#233862"/>
      <path id="Trazado_114695" data-name="Trazado 114695" d="M1769.661,1014.794l-31.411.183a1.572,1.572,0,0,1-1.426-.991h0a.741.741,0,0,1,.777-1l31.411-.183a1.572,1.572,0,0,1,1.426.991h0A.742.742,0,0,1,1769.661,1014.794Z" transform="translate(-1731.688 -997.116)" fill="#233862"/>
      <path id="Trazado_114696" data-name="Trazado 114696" d="M1820.552,1171.143l-31.411.183a1.572,1.572,0,0,1-1.426-.991h0a.741.741,0,0,1,.776-1l31.411-.184a1.572,1.572,0,0,1,1.426.991h0A.741.741,0,0,1,1820.552,1171.143Z" transform="translate(-1775.803 -1132.645)" fill="#233862"/>
      <path id="Trazado_114697" data-name="Trazado 114697" d="M1869.565,1321.724l-31.411.184a1.572,1.572,0,0,1-1.426-.991h0a.741.741,0,0,1,.776-1l31.411-.183a1.572,1.572,0,0,1,1.426.991h0A.741.741,0,0,1,1869.565,1321.724Z" transform="translate(-1818.289 -1263.175)" fill="#233862"/>
      <path id="Trazado_114698" data-name="Trazado 114698" d="M1924.743,1491.246l-31.411.183a1.572,1.572,0,0,1-1.426-.991h0a.742.742,0,0,1,.777-1l31.411-.183a1.572,1.572,0,0,1,1.426.991h0A.742.742,0,0,1,1924.743,1491.246Z" transform="translate(-1866.12 -1410.125)" fill="#233862"/>
      <path id="Trazado_114699" data-name="Trazado 114699" d="M1982.5,1668.68l-31.411.183a1.572,1.572,0,0,1-1.426-.991h0a.741.741,0,0,1,.777-1l31.411-.183a1.572,1.572,0,0,1,1.426.991h0A.742.742,0,0,1,1982.5,1668.68Z" transform="translate(-1916.183 -1563.931)" fill="#233862"/>
    </g>
    <g id="Grupo_80703" data-name="Grupo 80703" transform="translate(403.392 219.156)">
      <path id="Trazado_114700" data-name="Trazado 114700" d="M1660.695,731.906c-.578-.408-1.889-1.306-1.957-1.106a.88.88,0,0,0,.178.643,5.67,5.67,0,0,0-3.5-.125,1.428,1.428,0,0,0-.937.617.629.629,0,0,0,.219.982c.972.6.69.242,2.04,1.122a3.975,3.975,0,0,0,3.992.487l1.326-.221.165-2.181S1661.462,732.034,1660.695,731.906Z" transform="translate(-1654.328 -694.577)" fill="#ffb27d"/>
      <path id="Trazado_114701" data-name="Trazado 114701" d="M1910.559,556.524s-3.125,3.708-7.105,2.157a12.059,12.059,0,0,1-.868-3.6c0-.188,0-.37-.007-.543-.021-1.719-.079-2.683-.079-2.683h0c.181-.076,6.084-2.5,6.079-2.3C1908.482,554.208,1910.559,556.524,1910.559,556.524Z" transform="translate(-1869.454 -537.484)" fill="#ffb27d"/>
      <path id="Trazado_114702" data-name="Trazado 114702" d="M1907.99,557.678a9.232,9.232,0,0,1-5.411,3.873c-.021-1.719-.079-2.683-.079-2.683h0C1902.667,558.823,1908.16,557.367,1907.99,557.678Z" transform="translate(-1869.454 -544.495)" fill="#ed975d"/>
      <path id="Trazado_114703" data-name="Trazado 114703" d="M1886.493,494.33s6.639,1.561,7.547-2.589,2.377-6.742-1.823-7.914-5.373.231-6.013,1.542S1884.79,493.817,1886.493,494.33Z" transform="translate(-1854.683 -480.136)" fill="#ffb27d"/>
      <path id="Trazado_114704" data-name="Trazado 114704" d="M1879.354,471.7c.091.058,1.519.5,4.224-4.892a4.694,4.694,0,0,0-.276-4.293c-.99-1.617-4.5-2.888-7.416-3.442s-3.616,1.088-4.3,2.737a8.9,8.9,0,0,1-2.8,3.156c2.515,1.4,5.543-.6,6.593-.274s1.42,1.984,1.5,2.514.2.971,1.519.5.6,1.87.385,2.318C1878.776,470.017,1878.6,471.211,1879.354,471.7Z" transform="translate(-1840.224 -458.959)" fill="#233862"/>
      <g id="Grupo_80701" data-name="Grupo 80701" transform="translate(28.247 48.738)">
        <path id="Trazado_114705" data-name="Trazado 114705" d="M2001.138,1264.447h4.02c.843,0,1.779-.844,2.013-2.388s1.967-2.388,2.342-3.653-1.546-3.045-1.546-3.045l-.321-.413-.334-.43-3.184.749s-.078.758-.128,1.724c-.034.7-.052,1.5-.013,2.21.094,1.687-.472,3.5-1.97,3.83S2001.138,1264.447,2001.138,1264.447Z" transform="translate(-1983.094 -1197.32)" fill="#2c3a64"/>
        <path id="Trazado_114706" data-name="Trazado 114706" d="M1866.459,1293.888h10.655a.957.957,0,0,0,.226-.066c.712-.356.489-3.08.4-3.921-.016-.156-.028-.247-.028-.247s-3.747-3-4.262-.7c-.016.071-.035.142-.055.211h0c-.65,2.147-3.558,3.122-5.238,3.394A1.829,1.829,0,0,0,1866.459,1293.888Z" transform="translate(-1866.459 -1226.42)" fill="#2c3a64"/>
        <path id="Trazado_114707" data-name="Trazado 114707" d="M1882.588,863.8s.569,7.1,1.238,15.633c.909,11.593,2,25.832,2.11,28.53.187,4.684.937,12.177.937,12.177s1.779,1.78,5.339,1.03a122.567,122.567,0,0,0,4.079-22.014c.014-.185.028-.372.042-.559.843-11.521,2.154-35.781,2.154-35.781Z" transform="translate(-1880.44 -857.779)" fill="#2b478b"/>
        <path id="Trazado_114708" data-name="Trazado 114708" d="M1882.588,863.8s.569,7.1,1.238,15.633l12.465,19.723c.014-.185.028-.372.042-.559.843-11.521,2.154-35.781,2.154-35.781Z" transform="translate(-1880.44 -857.779)" fill="#233862"/>
        <path id="Trazado_114709" data-name="Trazado 114709" d="M1909.213,829.481s5.76,23.751,10.158,36.871,4.583,19.472,4.583,19.472,4.984-.974,5.524-1.945c0,0,1.708-22.471-1.681-28.893-1.915-3.629-1.591-12.038-1.591-15.869a54.106,54.106,0,0,0-2.215-14.145Z" transform="translate(-1903.52 -824.972)" fill="#2b478b"/>
      </g>
      <g id="Grupo_80702" data-name="Grupo 80702" transform="translate(38.443 19.451)">
        <path id="Trazado_114710" data-name="Trazado 114710" d="M2077.234,837.515l.108,1.654a3.563,3.563,0,0,0,1.965,4.444s1.308.528,1.361-.491-.115-.635-.008-2.069a3.3,3.3,0,0,0-1.406-3.245l-.778-.9Z" transform="translate(-2059.293 -806.033)" fill="#ffb27d"/>
        <path id="Trazado_114711" data-name="Trazado 114711" d="M1962.164,637.717c-1.135.364-1.317.282-1.317.282s-5.526-10.06-6.085-10.981-11.731-11.281-11.731-11.281l2.871-10.706s12.707,16.454,14.079,18.816c2.267,3.9,3.6,12.963,3.6,12.963A3.323,3.323,0,0,1,1962.164,637.717Z" transform="translate(-1943.03 -605.031)" fill="#1e3d70"/>
      </g>
      <path id="Trazado_114712" data-name="Trazado 114712" d="M1866.241,604.356c.04,2.2.167,4.67.34,7.18l.032.447c.11,1.555.23,3.114.367,4.634q.082.914.175,1.8l.009.08c0,.221.032.462.056.681.56,5.693,1.147,10.191,1.256,10.26a.638.638,0,0,0,.437.112c1.493-.188,5.947.151,9.594-.642a27.656,27.656,0,0,0,8.535-3.539c.373-.22,1.222-.8,1.153-1.24-.068-.479-.193-1.172-.353-2.043a110.557,110.557,0,0,1-1.834-14.334q-.095-1.7-.275-3.36a51,51,0,0,0-1.487-8.024c-1.251-4.5-3.088-7.95-5.393-9.3-.3-.169-1.922.863-3.41,1.818a6.572,6.572,0,0,1-4.229,1l-1.239,1.37a13.834,13.834,0,0,0-3.534,7.366q-.049.366-.084.778A48.389,48.389,0,0,0,1866.241,604.356Z" transform="translate(-1838.012 -569.996)" fill="#2a4e96"/>
      <path id="Trazado_114713" data-name="Trazado 114713" d="M1866.241,668.309c.04,2.2.167,4.67.34,7.18l.032.447c8.528-5.338,9.842-15.106,9.842-15.106a23.327,23.327,0,0,0-10.1,2.528A48.39,48.39,0,0,0,1866.241,668.309Z" transform="translate(-1838.012 -633.949)" fill="#1e3d70"/>
      <path id="Trazado_114714" data-name="Trazado 114714" d="M1704.452,634.7c-.088-1.265.567-1.475.567-1.475s12.859-2.33,13.952-2.674,10.44-10.067,10.44-10.067,3.583-4.04,6.516-3.148a5.513,5.513,0,0,1,3.885,4.658,5.58,5.58,0,0,1-2.591,5.728c-4.388,2.692-13.173,7.995-15.242,8.6-4.6,1.35-16.977.108-16.977.108A3.991,3.991,0,0,1,1704.452,634.7Z" transform="translate(-1697.771 -596.132)" fill="#2a4e96"/>
    </g>
    <g id="Grupo_80704" data-name="Grupo 80704" transform="translate(378.281 265.681)">
      <path id="Trazado_114715" data-name="Trazado 114715" d="M1504.338,814.594a1.189,1.189,0,0,1-1.489.781,102.289,102.289,0,0,0-18.626-3.831,110.645,110.645,0,0,0-17.213-.713,1.189,1.189,0,0,1-.147-2.373,113.636,113.636,0,0,1,17.831.741,105.394,105.394,0,0,1,18.862,3.907A1.189,1.189,0,0,1,1504.338,814.594Z" transform="translate(-1465.748 -808.353)" fill="#2b478b"/>
    </g>
    <g id="Grupo_80707" data-name="Grupo 80707" transform="translate(506.623 376.117)">
      <path id="Trazado_114716" data-name="Trazado 114716" d="M2463.583,1646.274a2.93,2.93,0,0,0-.388-.615h0l0,0a2.985,2.985,0,0,0-.377-.382l-.569-.576-.15.11c-2.912-1.425-8.924.085-15.006,4.056-7.351,4.8-12.07,11.407-10.709,14.919l-.208.153.818.815c.039.041.079.081.121.12l.023.023.007.005a3.355,3.355,0,0,0,.707.492l0,0h0c2.874,1.506,8.951.007,15.1-4.008C2460.444,1656.5,2465.2,1649.732,2463.583,1646.274Z" transform="translate(-2435.275 -1643.409)" fill="#ffa412"/>
      <path id="Trazado_114717" data-name="Trazado 114717" d="M2440.521,1642.3c7.488-4.889,14.871-6.049,16.49-2.591s-3.138,10.224-10.627,15.113-14.871,6.049-16.49,2.591S2433.033,1647.187,2440.521,1642.3Z" transform="translate(-2429.578 -1637.716)" fill="#ffb93e"/>
      <g id="Grupo_80705" data-name="Grupo 80705" transform="translate(1.728 1.259)">
        <path id="Trazado_114718" data-name="Trazado 114718" d="M2446.391,1666.125a5.967,5.967,0,0,1-1.648-.208,2.853,2.853,0,0,1-1.926-1.536c-.675-1.472-.05-3.658,1.762-6.155a29.494,29.494,0,0,1,7.6-6.966h0c4.814-3.152,9.71-4.675,12.473-3.879a2.855,2.855,0,0,1,1.926,1.536c.675,1.472.05,3.658-1.761,6.155a29.489,29.489,0,0,1-7.6,6.966C2453.251,1664.635,2449.23,1666.125,2446.391,1666.125Zm16.634-18.4c-2.715,0-6.7,1.482-10.542,4a28.946,28.946,0,0,0-7.46,6.829c-1.665,2.3-2.287,4.338-1.707,5.6a2.329,2.329,0,0,0,1.579,1.237,5.376,5.376,0,0,0,1.479.185c2.715,0,6.7-1.482,10.542-4a28.937,28.937,0,0,0,7.46-6.829c1.665-2.3,2.287-4.338,1.707-5.6a2.332,2.332,0,0,0-1.579-1.237A5.378,5.378,0,0,0,2463.025,1647.723Z" transform="translate(-2442.552 -1647.172)" fill="#ffa412"/>
      </g>
      <g id="Grupo_80706" data-name="Grupo 80706" transform="translate(5.984 5.879)">
        <path id="Trazado_114719" data-name="Trazado 114719" d="M2479.394,1688.613a3.973,3.973,0,0,0,.617-.334,2.95,2.95,0,0,0,.5-.424,3.948,3.948,0,0,0,.433-.558,7.318,7.318,0,0,0,.411-.73q.361-.717.742-1.339a8.1,8.1,0,0,1,.851-1.154,6.879,6.879,0,0,1,1.075-.976,7.4,7.4,0,0,1,1.413-.8,5.184,5.184,0,0,1,1.263-.4,2.182,2.182,0,0,1,.961.033,1.161,1.161,0,0,1,.626.434,1.48,1.48,0,0,1,.249.816l1.767-.776-.092.951-1.791.787a4.056,4.056,0,0,1-.495,1.105,5.839,5.839,0,0,1-.861,1.056,8.014,8.014,0,0,1-1.2.955,10.032,10.032,0,0,1-1.5.812l.166-1.718a5.044,5.044,0,0,0,1.51-.945,1.681,1.681,0,0,0,.568-1,.643.643,0,0,0-.067-.412.418.418,0,0,0-.274-.184,1.052,1.052,0,0,0-.44.017,3.042,3.042,0,0,0-.564.191,3.642,3.642,0,0,0-.559.3,2.749,2.749,0,0,0-.478.406,3.951,3.951,0,0,0-.434.561q-.209.322-.442.766-.378.718-.762,1.339a8.335,8.335,0,0,1-.859,1.154,7,7,0,0,1-1.079.978,7.368,7.368,0,0,1-1.406.8,5.2,5.2,0,0,1-1.287.4,2.123,2.123,0,0,1-.953-.04,1.1,1.1,0,0,1-.6-.449,1.616,1.616,0,0,1-.236-.827l-1.642.722.092-.945,1.634-.718a4.784,4.784,0,0,1,.414-1.1,5.442,5.442,0,0,1,.793-1.131,7.558,7.558,0,0,1,1.231-1.088,9.458,9.458,0,0,1,1.721-.961l-.166,1.718a5.79,5.79,0,0,0-.989.54,3.674,3.674,0,0,0-.656.57,2.132,2.132,0,0,0-.371.564,1.773,1.773,0,0,0-.141.52.787.787,0,0,0,.06.443.449.449,0,0,0,.263.223.884.884,0,0,0,.429.016A2.4,2.4,0,0,0,2479.394,1688.613Z" transform="translate(-2474.52 -1681.867)" fill="#ffa412"/>
      </g>
    </g>
    <g id="Grupo_80710" data-name="Grupo 80710" transform="translate(387.437 205.754)">
      <path id="Trazado_114720" data-name="Trazado 114720" d="M1534.708,363.742a1.859,1.859,0,0,1,.246-.39h0a1.872,1.872,0,0,1,.239-.242l.361-.366.095.07c1.848-.9,5.663.054,9.522,2.574,4.664,3.045,7.659,7.238,6.795,9.467l.132.1-.519.517q-.037.039-.077.076l-.015.015,0,0a2.126,2.126,0,0,1-.448.312l0,0h0c-1.824.956-5.68,0-9.581-2.543C1536.7,370.229,1533.681,365.936,1534.708,363.742Z" transform="translate(-1534.508 -361.923)" fill="#ffa412"/>
      <path id="Trazado_114721" data-name="Trazado 114721" d="M1549.34,361.219c-4.752-3.1-9.437-3.838-10.464-1.644s1.991,6.488,6.743,9.59,9.436,3.838,10.464,1.644S1554.091,364.321,1549.34,361.219Z" transform="translate(-1538.12 -358.311)" fill="#ffb93e"/>
      <g id="Grupo_80708" data-name="Grupo 80708" transform="translate(1.651 0.799)">
        <path id="Trazado_114722" data-name="Trazado 114722" d="M1553.018,373.744a18.714,18.714,0,0,1-4.825-4.42c-1.149-1.584-1.546-2.972-1.117-3.906a1.81,1.81,0,0,1,1.222-.975c1.754-.505,4.86.461,7.915,2.461h0a18.71,18.71,0,0,1,4.825,4.42c1.149,1.584,1.546,2.972,1.118,3.906a1.81,1.81,0,0,1-1.222.975,3.791,3.791,0,0,1-1.046.132A13.965,13.965,0,0,1,1553.018,373.744Zm-4.624-8.966a1.478,1.478,0,0,0-1,.785c-.368.8.026,2.1,1.083,3.556a18.364,18.364,0,0,0,4.734,4.333,13.78,13.78,0,0,0,6.69,2.535,3.415,3.415,0,0,0,.938-.117,1.479,1.479,0,0,0,1-.785c.368-.8-.026-2.1-1.083-3.556a18.365,18.365,0,0,0-4.734-4.333,13.78,13.78,0,0,0-6.689-2.535A3.409,3.409,0,0,0,1548.394,364.778Z" transform="translate(-1546.907 -364.311)" fill="#ffa412"/>
      </g>
      <g id="Grupo_80709" data-name="Grupo 80709" transform="translate(4.352 3.73)">
        <path id="Trazado_114723" data-name="Trazado 114723" d="M1574.467,390.719a.562.562,0,0,0,.272-.01.286.286,0,0,0,.167-.142.5.5,0,0,0,.038-.281,1.122,1.122,0,0,0-.09-.33,1.356,1.356,0,0,0-.235-.358,2.342,2.342,0,0,0-.416-.362,3.678,3.678,0,0,0-.627-.343l-.106-1.09a5.988,5.988,0,0,1,1.092.61,4.781,4.781,0,0,1,.781.69,3.453,3.453,0,0,1,.5.718,3.03,3.03,0,0,1,.263.7l1.037.456.058.6-1.043-.458a1.021,1.021,0,0,1-.15.525.7.7,0,0,1-.384.285,1.346,1.346,0,0,1-.6.025,3.3,3.3,0,0,1-.817-.256,4.668,4.668,0,0,1-.891-.505,4.41,4.41,0,0,1-.684-.62,5.263,5.263,0,0,1-.545-.732q-.244-.394-.483-.85-.148-.282-.28-.486a2.492,2.492,0,0,0-.275-.356,1.741,1.741,0,0,0-.3-.258,2.365,2.365,0,0,0-.354-.192,1.93,1.93,0,0,0-.358-.121.665.665,0,0,0-.279-.011.265.265,0,0,0-.174.117.41.41,0,0,0-.042.261,1.07,1.07,0,0,0,.36.637,3.212,3.212,0,0,0,.958.6l.106,1.09a6.364,6.364,0,0,1-.955-.515,5.1,5.1,0,0,1-.759-.606,3.706,3.706,0,0,1-.546-.67,2.571,2.571,0,0,1-.314-.7l-1.137-.5-.059-.6,1.121.492a.937.937,0,0,1,.158-.518.736.736,0,0,1,.4-.275,1.384,1.384,0,0,1,.61-.021,3.293,3.293,0,0,1,.8.251,4.693,4.693,0,0,1,.9.508,4.353,4.353,0,0,1,.682.619,5.161,5.161,0,0,1,.54.732q.241.395.471.85a4.669,4.669,0,0,0,.26.463,2.483,2.483,0,0,0,.275.354,1.857,1.857,0,0,0,.317.269,2.532,2.532,0,0,0,.391.212A1.524,1.524,0,0,0,1574.467,390.719Z" transform="translate(-1567.191 -386.326)" fill="#ffa412"/>
      </g>
    </g>
    <path id="Rectángulo_34187" data-name="Rectángulo 34187" d="M.771,0H368.32a.771.771,0,0,1,.771.771v0a.771.771,0,0,1-.771.771H.771A.771.771,0,0,1,0,.771v0A.771.771,0,0,1,.771,0Z" transform="translate(211.232 397.986)" fill="#2e3552"/>
  </g>
</svg>
