<svg xmlns="http://www.w3.org/2000/svg" width="295" height="306.904" viewBox="0 0 295 306.904">
  <g id="Grupo_93990" data-name="Grupo 93990" transform="translate(-180 -4485.096)">
    <path id="Rectángulo_35237" data-name="Rectángulo 35237" d="M30,0H265a30,30,0,0,1,30,30V261a0,0,0,0,1,0,0H0a0,0,0,0,1,0,0V30A30,30,0,0,1,30,0Z" transform="translate(180 4531)" fill="#fde07e"/>
    <g id="Grupo_92849" data-name="Grupo 92849" transform="translate(-442.031 4314.723)">
      <g id="Grupo_92848" data-name="Grupo 92848" transform="translate(622.031 244.96)">
        <g id="Grupo_92817" data-name="Grupo 92817" transform="translate(0 69.057)">
          <g id="Grupo_92816" data-name="Grupo 92816" transform="translate(2.146)">
            <path id="Trazado_127171" data-name="Trazado 127171" d="M920.089,797.241c15.23,33.459-6.808,99.107-146.579,53.483-70.079-22.875-122.426,28.656-133.212-7.313-25.126-83.783,77.486-180.7,134.546-113.038C827,792.222,892.369,736.344,920.089,797.241Z" transform="translate(-636.406 -707.632)" fill="none" stroke="#fdd85e" stroke-miterlimit="10" stroke-width="3.642" stroke-dasharray="29.212 29.212"/>
          </g>
          <path id="Trazado_127172" data-name="Trazado 127172" d="M912,983.677H622.031c9.075-80.9,70.521-143.473,144.985-143.473S902.926,902.779,912,983.677Z" transform="translate(-622.031 -820.417)" fill="#fdd85e"/>
        </g>
        <g id="Grupo_92843" data-name="Grupo 92843" transform="translate(130.661 -18.904)">
          <rect id="Rectángulo_35929" data-name="Rectángulo 35929" width="153.785" height="210.955" rx="9" transform="translate(0 20.651)" fill="#a9bae6"/>
          <g id="Grupo_92841" data-name="Grupo 92841" transform="translate(6.89 29.153)">
            <g id="Grupo_92818" data-name="Grupo 92818">
              <rect id="Rectángulo_35930" data-name="Rectángulo 35930" width="126.577" height="183.868" transform="translate(7.009)" fill="#f6f5f5"/>
              <path id="Trazado_127173" data-name="Trazado 127173" d="M1663.527,440.287c.04,71.7,2.354,158.17-5.7,177.316-35.474,3.456-77.01,4.565-120.879,4.772l16.675-181.534Z" transform="translate(-1529.942 -440.286)" fill="#e4e4e4"/>
              <path id="Trazado_127174" data-name="Trazado 127174" d="M1612.219,611.857c-55.291,8.849-92.245,9.315-122.216,7.09,3.884-41.345,5.441-110.03,7.007-178.6l66.627.148,60.3,3.98C1624.816,515.644,1624.912,581.388,1612.219,611.857Z" transform="translate(-1490.003 -440.334)" fill="#fff"/>
            </g>
            <g id="Grupo_92840" data-name="Grupo 92840" transform="translate(19.747 16.957)">
              <rect id="Rectángulo_35931" data-name="Rectángulo 35931" width="66.605" height="10.145" transform="translate(16.346 0) rotate(1.348)" fill="#708cd5"/>
              <g id="Grupo_92839" data-name="Grupo 92839" transform="translate(0 19.793)">
                <g id="Grupo_92822" data-name="Grupo 92822" transform="translate(2.23)">
                  <g id="Grupo_92819" data-name="Grupo 92819" transform="translate(33.131 5.181)">
                    <rect id="Rectángulo_35932" data-name="Rectángulo 35932" width="60.078" height="4.644" transform="matrix(1, 0.024, -0.024, 1, 0.347, 0)" fill="#708cd5"/>
                    <rect id="Rectángulo_35933" data-name="Rectángulo 35933" width="40.836" height="4.644" transform="translate(0.109 10.122) rotate(1.348)" fill="#d3dfff"/>
                  </g>
                  <g id="Grupo_92821" data-name="Grupo 92821" transform="translate(0)">
                    <rect id="Rectángulo_35934" data-name="Rectángulo 35934" width="14.223" height="14.223" transform="matrix(1, 0.024, -0.024, 1, 0.335, 4.674)" fill="#fff" stroke="#708cd5" stroke-miterlimit="10" stroke-width="3"/>
                    <g id="Grupo_92820" data-name="Grupo 92820" transform="translate(2.624)">
                      <path id="Trazado_127175" data-name="Trazado 127175" d="M1654.85,694.91c.439,1.681,1.25,8.72,4.775,6.752a10.741,10.741,0,0,0,2.109-2.344l3.28-3.724,6.559-7.447c.56-.636-1.914-2.232-2.617-1.433l-5.83,6.619-2.915,3.31c-.674.766-2.234,3.235-3.234,3.454l1.632.527c.385.315-.33-1.921-.346-1.982l-.813-3.115c-.224-.858-2.931-1.889-2.6-.618Z" transform="translate(-1654.822 -686.495)" fill="#ee6f57"/>
                    </g>
                  </g>
                </g>
                <g id="Grupo_92826" data-name="Grupo 92826" transform="translate(1.622 26.251)">
                  <g id="Grupo_92823" data-name="Grupo 92823" transform="translate(33.131 4.78)">
                    <rect id="Rectángulo_35935" data-name="Rectángulo 35935" width="49.473" height="4.644" transform="translate(0.347 0) rotate(1.348)" fill="#708cd5"/>
                    <rect id="Rectángulo_35936" data-name="Rectángulo 35936" width="60.078" height="4.644" transform="translate(0.109 10.122) rotate(1.348)" fill="#d3dfff"/>
                  </g>
                  <g id="Grupo_92825" data-name="Grupo 92825" transform="translate(0)">
                    <rect id="Rectángulo_35937" data-name="Rectángulo 35937" width="14.223" height="14.223" transform="matrix(1, 0.024, -0.024, 1, 0.335, 4.273)" fill="#fff" stroke="#708cd5" stroke-miterlimit="10" stroke-width="3"/>
                    <g id="Grupo_92824" data-name="Grupo 92824" transform="translate(2.614)">
                      <path id="Trazado_127176" data-name="Trazado 127176" d="M1650.71,870.788c.439,1.68,1.25,8.72,4.775,6.752a10.738,10.738,0,0,0,2.11-2.344l3.279-3.724,6.559-7.447c.56-.636-1.914-2.232-2.617-1.433l-5.83,6.62-2.915,3.31c-.675.766-2.234,3.235-3.234,3.454l1.632.527c.385.315-.33-1.921-.346-1.982l-.813-3.115c-.224-.858-2.931-1.889-2.6-.618Z" transform="translate(-1650.682 -862.373)" fill="#ee6f57"/>
                    </g>
                  </g>
                </g>
                <g id="Grupo_92830" data-name="Grupo 92830" transform="translate(1.013 52.285)">
                  <g id="Grupo_92827" data-name="Grupo 92827" transform="translate(33.131 4.596)">
                    <rect id="Rectángulo_35938" data-name="Rectángulo 35938" width="60.078" height="4.644" transform="translate(0.348 0) rotate(1.348)" fill="#708cd5"/>
                    <rect id="Rectángulo_35939" data-name="Rectángulo 35939" width="26.868" height="4.644" transform="translate(0.109 10.122) rotate(1.348)" fill="#d3dfff"/>
                  </g>
                  <g id="Grupo_92829" data-name="Grupo 92829" transform="translate(0)">
                    <rect id="Rectángulo_35940" data-name="Rectángulo 35940" width="14.223" height="14.223" transform="matrix(1, 0.024, -0.024, 1, 0.335, 4.089)" fill="#fff" stroke="#708cd5" stroke-miterlimit="10" stroke-width="3"/>
                    <g id="Grupo_92828" data-name="Grupo 92828" transform="translate(2.807)">
                      <path id="Trazado_127177" data-name="Trazado 127177" d="M1647.927,1045.209c.439,1.681,1.25,8.72,4.775,6.752a10.741,10.741,0,0,0,2.109-2.344l3.28-3.724,6.559-7.447c.56-.636-1.914-2.232-2.617-1.433l-5.83,6.62-2.915,3.31c-.674.766-2.234,3.235-3.234,3.454l1.632.527c.385.315-.33-1.921-.346-1.982l-.813-3.115c-.224-.858-2.931-1.889-2.6-.618Z" transform="translate(-1647.899 -1036.794)" fill="#ee6f57"/>
                    </g>
                  </g>
                </g>
                <g id="Grupo_92834" data-name="Grupo 92834" transform="translate(0.405 77.965)">
                  <g id="Grupo_92831" data-name="Grupo 92831" transform="translate(33.131 4.766)">
                    <rect id="Rectángulo_35941" data-name="Rectángulo 35941" width="60.078" height="4.644" transform="translate(0.348 0) rotate(1.348)" fill="#708cd5"/>
                    <rect id="Rectángulo_35942" data-name="Rectángulo 35942" width="47.459" height="4.644" transform="matrix(1, 0.024, -0.024, 1, 0.109, 10.122)" fill="#d3dfff"/>
                  </g>
                  <g id="Grupo_92833" data-name="Grupo 92833" transform="translate(0)">
                    <rect id="Rectángulo_35943" data-name="Rectángulo 35943" width="14.223" height="14.223" transform="matrix(1, 0.024, -0.024, 1, 0.335, 4.259)" fill="#fff" stroke="#708cd5" stroke-miterlimit="10" stroke-width="3"/>
                    <g id="Grupo_92832" data-name="Grupo 92832" transform="translate(2.811)">
                      <path id="Trazado_127178" data-name="Trazado 127178" d="M1643.878,1217.264c.439,1.681,1.25,8.72,4.775,6.752a10.744,10.744,0,0,0,2.109-2.344l3.28-3.724,6.559-7.447c.56-.636-1.914-2.232-2.617-1.433l-5.83,6.62-2.915,3.31c-.674.766-2.234,3.235-3.234,3.454l1.632.527c.385.316-.33-1.921-.346-1.982l-.814-3.115c-.224-.858-2.931-1.889-2.6-.618Z" transform="translate(-1643.85 -1208.849)" fill="#ee6f57"/>
                    </g>
                  </g>
                </g>
                <g id="Grupo_92838" data-name="Grupo 92838" transform="translate(0 103.421)">
                  <g id="Grupo_92835" data-name="Grupo 92835" transform="translate(32.932 4.964)">
                    <rect id="Rectángulo_35944" data-name="Rectángulo 35944" width="23.815" height="4.644" transform="matrix(1, 0.024, -0.024, 1, 0.347, 0)" fill="#708cd5"/>
                    <path id="Trazado_127179" data-name="Trazado 127179" d="M1903.112,1481.889l-60.061-1.414-.109,4.643c23.237.545,52.824,1.634,58.861.707A5.211,5.211,0,0,0,1903.112,1481.889Z" transform="translate(-1842.942 -1470.353)" fill="#d3dfff"/>
                  </g>
                  <g id="Grupo_92837" data-name="Grupo 92837">
                    <rect id="Rectángulo_35945" data-name="Rectángulo 35945" width="14.223" height="14.223" transform="translate(0.335 4.462) rotate(1.348)" fill="#fff" stroke="#708cd5" stroke-miterlimit="10" stroke-width="3"/>
                    <g id="Grupo_92836" data-name="Grupo 92836" transform="translate(2.617)">
                      <path id="Trazado_127180" data-name="Trazado 127180" d="M1639.865,1387.812c.439,1.681,1.25,8.72,4.775,6.752a10.732,10.732,0,0,0,2.11-2.344l3.28-3.723,6.559-7.447c.561-.636-1.914-2.232-2.617-1.433l-5.83,6.62-2.915,3.31c-.674.766-2.234,3.235-3.234,3.454l1.632.527c.385.315-.33-1.921-.346-1.982l-.813-3.115c-.224-.858-2.931-1.889-2.6-.618Z" transform="translate(-1639.836 -1379.397)" fill="#ee6f57"/>
                    </g>
                  </g>
                </g>
              </g>
            </g>
          </g>
          <g id="Grupo_92842" data-name="Grupo 92842" transform="translate(43.756)">
            <path id="Trazado_127181" data-name="Trazado 127181" d="M1825.017,266.889V281.08H1768V266.889a8.191,8.191,0,0,1,2.4-5.8,6.768,6.768,0,0,1,.579-.519,8.137,8.137,0,0,1,5.218-1.881,9.654,9.654,0,0,0,4.191-.955,10.044,10.044,0,0,0,1.576-.949,9.648,9.648,0,0,0,3.5-4.961,9.689,9.689,0,0,1,9.266-6.866h3.558a9.689,9.689,0,0,1,9.266,6.866,9.648,9.648,0,0,0,3.5,4.961,10.033,10.033,0,0,0,1.576.949,9.654,9.654,0,0,0,4.191.955,8.207,8.207,0,0,1,8.2,8.2Z" transform="translate(-1763.373 -244.96)" fill="#ee6f57"/>
            <path id="Trazado_127182" data-name="Trazado 127182" d="M1803.271,440.28v10.55H1737V440.28h4.627v6.967h57.017V440.28Z" transform="translate(-1737 -411.127)" fill="#e4e4e4"/>
            <ellipse id="Elipse_5130" data-name="Elipse 5130" cx="5.057" cy="4.807" rx="5.057" ry="4.807" transform="translate(28.079 3.7)" fill="#fff"/>
          </g>
        </g>
        <g id="Grupo_92847" data-name="Grupo 92847" transform="translate(15.818 -74.587)">
          <g id="Grupo_92844" data-name="Grupo 92844" transform="translate(153.892 23.24)">
            <path id="Trazado_127183" data-name="Trazado 127183" d="M1439.744,653.781c-2.966-.561-5.738-5.517-6.7-7.417a2.356,2.356,0,0,1-.213-1.508l1.18-6.256s2.724.463,2.513,4.09a2.669,2.669,0,0,0,.19,1.1l1.042,2.728,3.083-2.386-1.69-4.773a8.208,8.208,0,0,1-3.431.249c-2.4-.766.746-2.635,1.74-2.834s3.182-.995,4.176.7,1.591,2.685,1.591,2.685,1.094-3.779.348-12.231c-.033-.38.92-.372,1.187-.1.8.815,2.076,3.3,2.144,10.839,0,0,.133-8.791,1.641-9.7,1.243-.746,1.871,3.557,1,10.854,0,0,1.623-6.318,2.783-6.329,1.959-.019.026,16.873-4.9,21.908Z" transform="translate(-1432.788 -627.631)" fill="#f9b384"/>
            <path id="Trazado_127184" data-name="Trazado 127184" d="M1456.245,735.28q-.131,1.261-.289,2.443v.009a70.834,70.834,0,0,1-1.3,7.451c-.026.105-.043.2-.07.3-1.5,6.138-1.769,9.141-6.883,8.336l-5.262-5.989-.053-.061-.385-.438,1.068-3.152.14-.411.788-2.294.1-.3,1.349-3.949.543-1.6Z" transform="translate(-1439.989 -711.715)" fill="#f9b384"/>
          </g>
          <g id="Grupo_92845" data-name="Grupo 92845" transform="translate(56.157 253.828)">
            <path id="Trazado_127185" data-name="Trazado 127185" d="M1002.538,1731.542l-1.34,4.186c-9.185,3.018-14.542,6.475-14.886,10.508h26.561l2.129-14.017A20.6,20.6,0,0,1,1002.538,1731.542Z" transform="translate(-986.313 -1720.478)" fill="#1f3c88"/>
            <path id="Trazado_127186" data-name="Trazado 127186" d="M1063.764,1684l-3.331,10.407a20.6,20.6,0,0,0,12.465.676l1.373-9.041Z" transform="translate(-1044.208 -1683.343)" fill="#f9b384"/>
            <path id="Trazado_127187" data-name="Trazado 127187" d="M1238.912,1691.6l.779-10.6-12.478.657-.682,9.772A20.416,20.416,0,0,0,1238.912,1691.6Z" transform="translate(-1173.947 -1681)" fill="#f9b384"/>
            <path id="Trazado_127188" data-name="Trazado 127188" d="M1250.1,1743.969c-.344-4.033-5.035-9.559-15.323-10.872l.315-4.285a20.417,20.417,0,0,1-12.38-.172l-1.069,15.329Z" transform="translate(-1170.131 -1718.211)" fill="#1f3c88"/>
          </g>
          <path id="Trazado_127189" data-name="Trazado 127189" d="M1183.179,678.661l-15.052.105V656h14.6l.009,1.392.07,7.215.1,11.585Z" transform="translate(-1072.17 -626.55)" fill="#f9b384"/>
          <path id="Trazado_127190" data-name="Trazado 127190" d="M1189.707,674.575c-2.706,2.846-9.763-.368-12.74-3.5l12.67-3.713Z" transform="translate(-1079.075 -635.423)" fill="#e28b6d"/>
          <path id="Trazado_127191" data-name="Trazado 127191" d="M1166.136,577.886a32.555,32.555,0,0,1-.394,5.122c-.735,4.588-2.679,8.555-7.162,8.677-10.595.306-13.616-5.753-15.613-10.709s1.244-16.9,1.244-16.9l13.712-1.357,7.53,6.173A56.214,56.214,0,0,1,1166.136,577.886Z" transform="translate(-1052.011 -553.69)" fill="#f9b384"/>
          <path id="Trazado_127192" data-name="Trazado 127192" d="M1119.629,545.916s3.023-.139,3.539-7.941c5.405,1.809,9.355.16,12.484-3.44,2.671,3.526,10.145,4.631,12.67-2.59,1.824-5.217-3.21-12.988-10.544-8.282-7.187-3.631-18.088-3.382-21.224,5.525,0,0-10.905,5.028.642,16.1A13.358,13.358,0,0,0,1119.629,545.916Z" transform="translate(-1028.245 -521.467)" fill="#102048"/>
          <path id="Trazado_127193" data-name="Trazado 127193" d="M1238.188,1133.3l-8.32,125.8h-19.556l4.889-122.076,2.992-1.386Z" transform="translate(-1105.122 -999.367)" fill="#102048"/>
          <path id="Trazado_127194" data-name="Trazado 127194" d="M1056.031,1021.34l-13.718,143.018h21.307l20.285-118.792,23.058-7.005,1.021-25.393-51.37-1.167Z" transform="translate(-973.898 -904.62)" fill="#1f3c88"/>
          <path id="Trazado_127195" data-name="Trazado 127195" d="M1103.513,1004.452c11.638,4.178,38.943-.6,44.612-6.416l-4.029-8.057-44.911,5.968Z" transform="translate(-1018.321 -887.419)" fill="#102048" opacity="0.6"/>
          <path id="Trazado_127196" data-name="Trazado 127196" d="M1172.09,787.56c-.376.158-.762.324-1.156.473a79.053,79.053,0,0,1-14.588,4.343,66.932,66.932,0,0,1-9.781,1.2,56.517,56.517,0,0,1-15.358-1.243l6.524-60.821.8-7.417s8.537,10.507,17.95-1.094Z" transform="translate(-1043.332 -678.884)" fill="#fff"/>
          <path id="Trazado_127197" data-name="Trazado 127197" d="M1146.565,811.931a56.516,56.516,0,0,1-15.358-1.243l6.524-60.821,2.329-3.367C1145.813,760.492,1151.705,791.476,1146.565,811.931Z" transform="translate(-1043.332 -697.239)" fill="#1f3c88" opacity="0.3"/>
          <path id="Trazado_127198" data-name="Trazado 127198" d="M909.734,717c6.486,27.539,9.155,55.876-.4,87.343-7.086,2.7-14.8,2.665-23.058.292l2.043-57.207-48.086,33.055-2.919-18.023C855.8,744.785,887.758,718.083,909.734,717Z" transform="translate(-813.773 -674.197)" fill="#708cd5"/>
          <path id="Trazado_127199" data-name="Trazado 127199" d="M1251.286,834.9a79.052,79.052,0,0,1-14.588,4.343c-2.9-16.619-3.537-43.921-1.182-56.241Z" transform="translate(-1123.685 -725.749)" fill="#1f3c88" opacity="0.3"/>
          <path id="Trazado_127200" data-name="Trazado 127200" d="M1456.034,766.21c-.026.105-.043.2-.07.3-1.5,6.138-1.769,9.141-6.883,8.336l-5.262-5.989-.052-.061.683-3.59.14-.411.788-2.294.1-.3Z" transform="translate(-1287.471 -709.502)" fill="#e28b6d" opacity="0.6"/>
          <path id="Trazado_127201" data-name="Trazado 127201" d="M1291.977,735.311s-12.915,27.363-20.577,28.02c-7.427.637-10.945-6.567-10.945-6.567l5.254,39.99a33.528,33.528,0,0,1-20.726,2.916c-6.944-22.547-9.568-51.7-10.085-84.169,5.621.35,16.755.831,20.742,3.393,7.151,4.6,15.98,21.015,15.98,21.015l10.289-14.01Z" transform="translate(-1124.324 -673.025)" fill="#708cd5"/>
          <g id="Grupo_92846" data-name="Grupo 92846" transform="translate(2.114 11.237)">
            <path id="Trazado_127202" data-name="Trazado 127202" d="M776.388,585.295s.782-13.09,2.114-12.472,4,12,4,12l-2.857,4.61Z" transform="translate(-768.299 -572.801)" fill="#6f3428"/>
            <path id="Trazado_127203" data-name="Trazado 127203" d="M853.72,1709.667l.387,4.308a13.827,13.827,0,0,1-12.533,15.008l-1.107.1a13.827,13.827,0,0,1-15.008-12.533l-.387-4.308Z" transform="translate(-806.325 -1460.801)" fill="#ee6f57"/>
            <rect id="Rectángulo_35946" data-name="Rectángulo 35946" width="28.764" height="209.448" transform="translate(0.004 42.832) rotate(-5.134)" fill="#fbc343"/>
            <rect id="Rectángulo_35947" data-name="Rectángulo 35947" width="10.216" height="183.588" transform="translate(8.862 37.819) rotate(-5.134)" fill="none" stroke="#6f3428" stroke-miterlimit="10" stroke-width="8" opacity="0.3"/>
            <path id="Trazado_127204" data-name="Trazado 127204" d="M843.387,1594.8l-28.642,2.574-.753-8.406-.525-5.84-1.62-17.95,28.65-2.574,1.611,17.95.526,5.841Z" transform="translate(-795.996 -1345.928)" fill="#102048"/>
            <rect id="Rectángulo_35948" data-name="Rectángulo 35948" width="28.757" height="5.864" transform="translate(17.471 237.197) rotate(-5.136)" fill="#fbc343"/>
            <path id="Trazado_127205" data-name="Trazado 127205" d="M739.437,651.673l7.958-31.893a6.841,6.841,0,0,0,6.079-.839L768.088,649.1Z" transform="translate(-739.437 -608.841)" fill="#ee6f57"/>
          </g>
          <path id="Trazado_127206" data-name="Trazado 127206" d="M1129.859,622.008c-.128-.47-2.266-1.117-2.737-1.247a3.281,3.281,0,0,0-2.233.021c-2.586,1.168-2.24,4.871-.9,6.816a5.83,5.83,0,0,0,3.162,2.321c.469.134,4.917.188,4.722-.527Z" transform="translate(-1036.89 -598.879)" fill="#f9b384"/>
          <path id="Trazado_127207" data-name="Trazado 127207" d="M741.352,957.07a3.894,3.894,0,0,0-4.975-2.57c-3.259,1.125-6.1,3.035-6.537,6.282-.4,2.958,1.079,12.4,7.686,13.618l-.539-4.854s4.045-.944,4.854-2.7C742.406,965.622,742.444,960.5,741.352,957.07Z" transform="translate(-729.779 -859.541)" fill="#f9b384"/>
          <path id="Trazado_127208" data-name="Trazado 127208" d="M1341.21,818.576c.347,2.067.643,4.141.927,6.216s.527,4.154.793,6.231l.679,6.245c.2,2.085.391,4.17.52,6.263l-.34.04c-.358-2.066-.651-4.14-.94-6.214l-.781-6.233c-.22-2.082-.473-4.161-.666-6.246s-.394-4.17-.533-6.262Z" transform="translate(-1207.099 -753.537)" fill="#1f3c88"/>
          <path id="Trazado_127209" data-name="Trazado 127209" d="M1067.519,816.979c0,2.322-.061,4.641-.13,6.96s-.178,4.635-.264,6.953l-.38,6.948c-.155,2.315-.314,4.629-.54,6.94l-.342-.016c-.006-2.322.053-4.641.117-6.96l.277-6.952c.133-2.316.232-4.633.392-6.948s.312-4.629.527-6.941Z" transform="translate(-992.293 -752.278)" fill="#1f3c88"/>
          <path id="Trazado_127210" data-name="Trazado 127210" d="M1195.03,621.6a1.376,1.376,0,0,1-.76,1.741c-.6.135-1.245-.424-1.43-1.25a1.376,1.376,0,0,1,.76-1.741C1194.205,620.212,1194.845,620.771,1195.03,621.6Z" transform="translate(-1091.435 -598.686)" fill="#102048"/>
          <path id="Trazado_127211" data-name="Trazado 127211" d="M1234.886,615.832c-.036.845-.567,1.51-1.186,1.484s-1.092-.733-1.056-1.578.567-1.51,1.186-1.484S1234.922,614.986,1234.886,615.832Z" transform="translate(-1122.563 -593.941)" fill="#102048"/>
          <path id="Trazado_127212" data-name="Trazado 127212" d="M1219.468,624.635a19.885,19.885,0,0,1,.446,2.1,1.642,1.642,0,0,0,.424.728,2.767,2.767,0,0,0,.822.4,2.287,2.287,0,0,1,1.037.782,1.358,1.358,0,0,1,.106,1.433,2.7,2.7,0,0,1-.856.865c-.3.2-.589.418-.9.607l-.225-.258c.23-.284.483-.541.724-.811a2.559,2.559,0,0,0,.565-.737c.185-.4-.211-.848-.786-1.077a3.052,3.052,0,0,1-1.067-.606,2.134,2.134,0,0,1-.562-1.158c-.145-.811.021-1.505-.058-2.18Z" transform="translate(-1112.011 -602.051)" fill="#e28b6d"/>
          <path id="Trazado_127213" data-name="Trazado 127213" d="M1183.938,608.994a2.549,2.549,0,0,1,.894-1.365,2.721,2.721,0,0,1,1.587-.594,2.937,2.937,0,0,1,2.761,1.551l-.268.213a3.76,3.76,0,0,0-2.451-.893,2.862,2.862,0,0,0-2.213,1.234Z" transform="translate(-1084.52 -588.3)" fill="#102048"/>
          <path id="Trazado_127214" data-name="Trazado 127214" d="M1225.223,604.857a2.636,2.636,0,0,1,.687-1.106,2.291,2.291,0,0,1,1.243-.615,2.181,2.181,0,0,1,2.322,1.158l-.274.205a2.777,2.777,0,0,0-1.92-.5,2.465,2.465,0,0,0-.915.334,6.046,6.046,0,0,0-.849.7Z" transform="translate(-1116.768 -585.235)" fill="#102048"/>
          <path id="Trazado_127215" data-name="Trazado 127215" d="M1203.1,663.373c1.529,2.393,3.566,2.653,5.139.134Z" transform="translate(-1099.484 -632.309)" fill="#fff"/>
          <path id="Trazado_127216" data-name="Trazado 127216" d="M1243.232,629.333a40.345,40.345,0,0,1-.435,5.706,2.637,2.637,0,0,1-1.83-2.513C1240.967,631.2,1241.98,629.534,1243.232,629.333Z" transform="translate(-1129.065 -605.721)" fill="#fc8879" opacity="0.4"/>
          <circle id="Elipse_5131" data-name="Elipse 5131" cx="2.824" cy="2.824" r="2.824" transform="translate(97.056 25.546)" fill="#fc8879" opacity="0.4"/>
          <path id="Trazado_127217" data-name="Trazado 127217" d="M1134.281,632.7a14.11,14.11,0,0,0-1.579-1.039,1.38,1.38,0,0,0-.7-.181,1.561,1.561,0,0,0-.728.334l-.287-.186a1.363,1.363,0,0,1,.832-.895,1.626,1.626,0,0,1,1.267.146,3.278,3.278,0,0,1,1.465,1.613Z" transform="translate(-1043.163 -606.756)" fill="#e28b6d"/>
          <path id="Trazado_127218" data-name="Trazado 127218" d="M767.38,1011.674l-4.064,12.348-.839-9.65A8.424,8.424,0,0,0,767.38,1011.674Z" transform="translate(-755.319 -904.365)" fill="#6f3428" opacity="0.6"/>
        </g>
      </g>
    </g>
  </g>
</svg>
