<svg xmlns="http://www.w3.org/2000/svg" xmlns:xlink="http://www.w3.org/1999/xlink" width="610" height="285" viewBox="0 0 610 285">
  <defs>
    <clipPath id="clip-path">
      <rect id="Rectángulo_36079" data-name="Rectángulo 36079" width="387" height="285" transform="translate(9647 -10608)" fill="#fff" stroke="#707070" stroke-width="1"/>
    </clipPath>
    <clipPath id="clip-path-2">
      <path id="Trazado_127629" data-name="Trazado 127629" d="M95.021,264.61c-1.295-9.352,6-17.424,11.3-25.1,8.3-12,14.166-28.4,7.13-41.245-6.844-12.492-23.525-16.97-29.073-30.137-3.762-8.929-.626-20.408,7.092-25.957,8.959-6.441,21.563-4.721,30.767-10.779,7.391-4.866,11.22-13.857,13.521-22.624S139.3,90.8,143.379,82.763s11.993-14.9,20.709-14.076c9.119.858,15.667,9.414,24.113,13.084,10.874,4.726,23.189.86,34.729-1.638s25.425-2.76,33,6.614c5.285,6.538,5.781,15.964,4.352,24.369s-4.5,16.471-5.474,24.947.629,17.979,6.9,23.5c6.5,5.717,15.849,5.584,24.23,7.161s17.811,7.287,17.45,16.12c-.182,4.444-2.9,8.317-5.8,11.592-5.792,6.545,14.414,58.279,11.641,70.375-1.383,6.034-34.433,18.124-39.918,20.582s-11.54,3.091-17.485,3.7l-65.757,6.688c-16.219,1.649-32.614,3.289-48.9,1.591-5.937-.619-12.306-1.285-17.457-4.679-4.212-2.775-8.878-5.421-12.045-9.382C103.866,278.536,95.741,269.814,95.021,264.61Z" transform="translate(-82.787 -68.621)" fill="none"/>
    </clipPath>
    <clipPath id="clip-path-3">
      <path id="Trazado_127635" data-name="Trazado 127635" d="M202.986,433.074s-12.532,19.03-5.769,21.241,30.388-11.773,30.958-14.747-.226-13.674-.226-13.674l-23.709-.435Z" transform="translate(-195.214 -425.458)" fill="#3714a5"/>
    </clipPath>
    <clipPath id="clip-path-4">
      <path id="Trazado_127640" data-name="Trazado 127640" d="M305.316,432.284s13.594,18.285,6.967,20.878-31.008-10.025-31.746-12.962-.553-13.666-.553-13.666l23.647-1.782Z" transform="translate(-279.964 -424.752)" fill="#3714a5"/>
    </clipPath>
    <clipPath id="clip-path-5">
      <path id="Trazado_127644" data-name="Trazado 127644" d="M302.177,309.817c10.986,64.981,18.486,129.849,19.036,161.629-7.3,2.591-24.494,2.629-28.918.208-.4-20.616-20.581-94.074-24.562-117.195s-11.507-79.071-15.416-78.81-7.447,36.645-8.344,72.516c-.486,19.358-13.436,110.554-12.785,122.91-5.763-.263-20.515,2.144-30.159-2.181-3.856-93.815,3.869-135.583,5.165-183.4.519-19.221,1.138-36.4,2.577-49.7a118.088,118.088,0,0,1,2.493-15.274,398.944,398.944,0,0,1,78.763-8.5c-.02.26,1.592,14.892,2.477,29.5C293.359,255.587,298.5,288.07,302.177,309.817Z" transform="translate(-199.96 -212.016)" fill="#210b69"/>
    </clipPath>
    <clipPath id="clip-path-6">
      <path id="Trazado_127647" data-name="Trazado 127647" d="M197.051,235.967a21.287,21.287,0,0,0-7.116,2.344c-1.1.672-2.187,1.775-2,3.052.176,1.2,1.388,1.947,2.517,2.4,7.524,3.038,16.255.75,24.034,3.061a6.241,6.241,0,0,0,2.874.447,5.123,5.123,0,0,0,2.074-1.1,29.149,29.149,0,0,0,7.356-7.861,18.493,18.493,0,0,0,2.68-7.848c.043-.469.277-1.552.009-1.97-.373-.589-.864-.132-1.406.109-1.327.587-2.681,1.113-4.051,1.591a107.56,107.56,0,0,1-17.1,4.03C203.628,234.793,200.33,235.329,197.051,235.967Z" transform="translate(-187.913 -228.206)" fill="#fff"/>
    </clipPath>
    <clipPath id="clip-path-7">
      <path id="Trazado_127651" data-name="Trazado 127651" d="M300.794,230.254a16.38,16.38,0,0,1,5.855,1.413c.837.455,1.561,1.24,1.1,2.224a4.918,4.918,0,0,1-2.8,1.967c-7.441,2.717-14.758,1.432-22.262,3.608-.906.262-3.585,1.073-4.71.49s-3.42-4.084-4.4-6.341c-.756-1.739-1.937-6.183-1.289-7.146s1.906-.353,2.339-.2c1.056.378,2.153.709,3.274,1a91.511,91.511,0,0,0,14.433,2.171C295.158,229.7,298,229.94,300.794,230.254Z" transform="translate(-272.101 -225.94)" fill="#fff"/>
    </clipPath>
    <clipPath id="clip-path-8">
      <path id="Trazado_127658" data-name="Trazado 127658" d="M318.212,225.106a9.03,9.03,0,0,1,.418,5.041,11.411,11.411,0,0,1-2.545,4.479,14.038,14.038,0,0,1-3.6,3.282c-3.056,1.787-6.84,1.546-10.366,1.251a.845.845,0,0,1-.637-.245.57.57,0,0,1,.175-.746,1.649,1.649,0,0,1,.8-.26,3.932,3.932,0,0,1-1.745.553,1.349,1.349,0,0,1-1.366-1.007c-.124-.847.8-1.418,1.529-1.862a9.2,9.2,0,0,0,4.312-6.944c.051-.583-.08-1.338-.652-1.459-.6-.129-1.023.573-1.237,1.152l-2.2,5.966a3.166,3.166,0,0,1-.609,1.137,1.081,1.081,0,0,1-1.177.312c-.557-.256-.624-1.008-.6-1.62a49.69,49.69,0,0,1,3.816-17.068,3.123,3.123,0,0,1,1.056-1.522,2.889,2.889,0,0,1,1.552-.326,14.143,14.143,0,0,1,8.586,2.986A14.483,14.483,0,0,1,318.212,225.106Z" transform="translate(-298.707 -215.22)" fill="#ff9681"/>
    </clipPath>
    <clipPath id="clip-path-9">
      <path id="Trazado_127662" data-name="Trazado 127662" d="M313.571,188.966c-.818-1.116-31.759-21.131-44.616-33.944-9.147-9.117-7.24-23.865,2.652-26.7,16.5-4.729,66.292,51.667,67.72,55.764,4.338,12.453-9.608,50.107-9.727,52.869s-17.906-.651-20.593-4.046C311.063,229.762,314.389,190.081,313.571,188.966Z" transform="translate(-263.04 -128.04)" fill="#fff"/>
    </clipPath>
    <clipPath id="clip-path-10">
      <path id="Trazado_127669" data-name="Trazado 127669" d="M211.2,211.047c.1,10.068-10.769,22.329.2,27.329s34.452,4.561,46.457,4.893c11.3.313,29.036-.8,34.934-5.945s-4.061-9.484-3.637-34.511c.45-26.556,8.353-68.286.031-74.051-4.284-2.968-37-2.687-41.592-2.965s-46.29,3.371-51.7,9.777C185.7,147.663,210.985,188.086,211.2,211.047Z" transform="translate(-193.478 -125.782)" fill="#fff"/>
    </clipPath>
    <clipPath id="clip-path-11">
      <path id="Trazado_127688" data-name="Trazado 127688" d="M244.022,141.123c-2.114.06-3.8,1.456-3.286,7.895.17,2.138-2.434,55.449-3.136,63.182s8.9,22.669,12.028,22.438,12.185-18.343,11.84-20.761-9.959-54.975-12.447-64.385C246.957,141.679,245.762,141.075,244.022,141.123Z" transform="translate(-237.563 -141.121)" fill="#e80252"/>
    </clipPath>
    <clipPath id="clip-path-12">
      <path id="Trazado_127695" data-name="Trazado 127695" d="M173.413,231.461a9.036,9.036,0,0,0-.548,5.028,11.419,11.419,0,0,0,2.43,4.544,14.108,14.108,0,0,0,3.512,3.374c3.009,1.863,6.8,1.721,10.33,1.516a.841.841,0,0,0,.643-.228.572.572,0,0,0-.155-.75,1.662,1.662,0,0,0-.791-.28,3.928,3.928,0,0,0,1.731.6,1.35,1.35,0,0,0,1.392-.971c.145-.844-.762-1.438-1.482-1.9a9.2,9.2,0,0,1-4.131-7.051c-.037-.585.115-1.336.689-1.443.607-.113,1.009.6,1.208,1.184q1.023,3.01,2.048,6.021a3.17,3.17,0,0,0,.578,1.152,1.081,1.081,0,0,0,1.169.341c.564-.241.65-.991.639-1.6a49.646,49.646,0,0,0-3.376-17.162,3.118,3.118,0,0,0-1.016-1.548,2.879,2.879,0,0,0-1.543-.365,14.132,14.132,0,0,0-8.659,2.764A14.475,14.475,0,0,0,173.413,231.461Z" transform="translate(-172.712 -221.911)" fill="#ff9681"/>
    </clipPath>
    <clipPath id="clip-path-13">
      <path id="Trazado_127698" data-name="Trazado 127698" d="M221.471,159.018c7.63-9.6,3.8-24.459-6.232-26.233-4.071-.72-7.055-1.793-12.819,3.016-4.091,4.954-49.706,44.762-50.53,48.905-2.505,12.59,19.848,56.9,20.34,59.624s18.767-3.2,20.91-6.727c-2.425-2.979-13.112-45.591-12.47-46.745S210.745,172.507,221.471,159.018Z" transform="translate(-151.694 -132.15)" fill="#fff"/>
    </clipPath>
    <clipPath id="clip-path-14">
      <path id="Trazado_127710" data-name="Trazado 127710" d="M227.771,111.709a47.9,47.9,0,0,0,.782,6.021c1.144,5.89,4.6,9.959,9.217,13.048a49.382,49.382,0,0,0,9.178,4.631,29.509,29.509,0,0,0,11.295,2.266c6.437-.235,11.716-3.876,16.937-12.291.156-.255.316-.519.47-.792l0-.008c5.542-9.3,12.854-25.359,8.368-36.851-5.745-17.393-28.071-24.579-42.8-13.494C231.262,82.056,226.821,97.85,227.771,111.709Z" transform="translate(-227.646 -68.945)" fill="#ff9681"/>
    </clipPath>
    <clipPath id="clip-path-15">
      <path id="Trazado_127720" data-name="Trazado 127720" d="M288.871,84.039a2.667,2.667,0,0,0,2.457-2.847A4.756,4.756,0,0,0,289.1,78a14.025,14.025,0,0,0-7.493-2.561c-.431-.087-.872-.174-1.331-.256,2.737-4.1-8.23-4.536-14.425-8.018s-14.148-5.326-16.724-4.407-2.018,1.361-2.266,1.715c-.149-.051-2.309-3.485-9.046.5-6.222,3.68-9.876,17.392-11.273,27.519,0,0,6.837,1.76,8.137,2.529s-2.666,8.662.69,10.22,3.952-12.073,9.864-15.349c8.04,1.591,6.362-6.48,12.379-8.345a9.769,9.769,0,0,1,2.694-.171,17.309,17.309,0,0,1,2.48.181,16.219,16.219,0,0,1,4.194,1.227,49.441,49.441,0,0,1,6.925,4.256c.552.363,1.145.772,1.764,1.158a7.839,7.839,0,0,0,.367.863,8.33,8.33,0,0,0,4.345,3.9,3,3,0,0,0,2.187.177l.006,0a6.009,6.009,0,0,0,.456.863c1.338,2.03,7.084,5.348,10.126,1.315S292.112,86.033,288.871,84.039Z" transform="translate(-226.543 -62.528)" fill="#210b69"/>
    </clipPath>
    <clipPath id="clip-path-16">
      <path id="Trazado_127728" data-name="Trazado 127728" d="M109.843,107.963a13.349,13.349,0,0,0-6.651-1.058,12.878,12.878,0,0,0-8.227,5.072,28.156,28.156,0,0,0-4.31,8.869,4.782,4.782,0,0,0-.321,1.741,1.7,1.7,0,0,0,.871,1.456,2.4,2.4,0,0,0,2.242-.526,17.772,17.772,0,0,0,4.923-5,18.094,18.094,0,0,0-.881,6.909,2.277,2.277,0,0,0,1.171,1.968c.956.352,1.906-.5,2.535-1.3a29.842,29.842,0,0,0,4.385-7.738,8.836,8.836,0,0,0-.173,2.972,2.992,2.992,0,0,0,1.665,2.329c1.378.555,2.892-.376,3.974-1.393a17.918,17.918,0,0,0,4.586-7.012c.493-1.382.756-3.366-.5-4.416A20.613,20.613,0,0,0,109.843,107.963Z" transform="translate(-90.328 -106.822)" fill="#ffe8cc"/>
    </clipPath>
    <clipPath id="clip-path-17">
      <path id="Trazado_127731" data-name="Trazado 127731" d="M154.671,93.148a13.349,13.349,0,0,1,3.7-5.629,12.876,12.876,0,0,1,9.289-2.664,28.142,28.142,0,0,1,9.459,2.788,4.771,4.771,0,0,1,1.5.935,1.7,1.7,0,0,1,.49,1.624c-.24.768-1.118,1.114-1.9,1.3a17.767,17.767,0,0,1-7.013.269,18.1,18.1,0,0,1,5.7,4,2.278,2.278,0,0,1,.666,2.191c-.384.944-1.653,1.072-2.669,1a29.854,29.854,0,0,1-8.673-1.971,8.824,8.824,0,0,1,2.313,1.874,2.992,2.992,0,0,1,.6,2.8c-.518,1.392-2.225,1.885-3.707,2a17.913,17.913,0,0,1-8.271-1.333c-1.353-.567-3-1.709-2.93-3.342A20.61,20.61,0,0,1,154.671,93.148Z" transform="translate(-153.225 -84.811)" fill="#ffe8cc"/>
    </clipPath>
    <clipPath id="clip-path-18">
      <path id="Trazado_127741" data-name="Trazado 127741" d="M364.759,157.559a12.233,12.233,0,0,0,.378-6.16,11.8,11.8,0,0,0-5.353-7.055,25.8,25.8,0,0,0-8.471-3.148,4.391,4.391,0,0,0-1.616-.14,1.558,1.558,0,0,0-1.251.923,2.2,2.2,0,0,0,.678,2,16.28,16.28,0,0,0,5,4.048,16.581,16.581,0,0,0-6.38-.193c-.717.167-1.506.529-1.692,1.242-.237.9.624,1.695,1.411,2.2a27.353,27.353,0,0,0,7.446,3.316,8.1,8.1,0,0,0-2.726.1,2.746,2.746,0,0,0-1.978,1.725c-.384,1.306.6,2.6,1.622,3.5a16.429,16.429,0,0,0,6.8,3.563c1.3.327,3.137.392,3.985-.843A18.868,18.868,0,0,0,364.759,157.559Z" transform="translate(-346.011 -141.024)" fill="#ffe8cc"/>
    </clipPath>
    <clipPath id="clip-path-19">
      <path id="Trazado_127744" data-name="Trazado 127744" d="M387.054,175.043a12.227,12.227,0,0,1,4.639-4.07,11.8,11.8,0,0,1,8.855-.088,25.809,25.809,0,0,1,7.676,4.77,4.376,4.376,0,0,1,1.1,1.192,1.555,1.555,0,0,1,.036,1.554,2.2,2.2,0,0,1-2,.688,16.283,16.283,0,0,1-6.261-1.474,16.582,16.582,0,0,1,4.059,4.926,2.089,2.089,0,0,1,.054,2.1c-.569.741-1.722.544-2.6.23a27.368,27.368,0,0,1-7.181-3.857,8.1,8.1,0,0,1,1.587,2.219,2.745,2.745,0,0,1-.153,2.62c-.8,1.1-2.426,1.122-3.762.862a16.415,16.415,0,0,1-6.981-3.2c-1.057-.831-2.23-2.241-1.774-3.667A18.9,18.9,0,0,1,387.054,175.043Z" transform="translate(-384.251 -170.067)" fill="#ffe8cc"/>
    </clipPath>
    <clipPath id="clip-path-20">
      <path id="Trazado_127754" data-name="Trazado 127754" d="M163.918,317.287a17.626,17.626,0,0,1,7.541-4.718c4.2-1.182,8.8-.189,12.617,1.922a37.184,37.184,0,0,1,9.816,8.559A6.319,6.319,0,0,1,195.18,325a2.243,2.243,0,0,1-.308,2.219c-.711.79-1.954.721-3,.517a23.445,23.445,0,0,1-8.566-3.543c1.887,2.443,3.816,4.969,4.635,7.945a3.008,3.008,0,0,1-.407,3c-.981.922-2.576.376-3.754-.275a39.421,39.421,0,0,1-9.323-7.145,11.673,11.673,0,0,1,1.744,3.524,3.956,3.956,0,0,1-.823,3.692c-1.389,1.386-3.71,1.035-5.551.356a23.657,23.657,0,0,1-9.193-6.159c-1.311-1.426-2.655-3.7-1.675-5.625A27.178,27.178,0,0,1,163.918,317.287Z" transform="translate(-158.627 -312.063)" fill="#ffe8cc"/>
    </clipPath>
    <clipPath id="clip-path-21">
      <path id="Trazado_127757" data-name="Trazado 127757" d="M106.98,348.427A17.632,17.632,0,0,0,100.046,354c-2.5,3.579-3.07,8.247-2.331,12.548a37.188,37.188,0,0,0,4.858,12.084,6.314,6.314,0,0,0,1.418,1.858,2.242,2.242,0,0,0,2.2.438c.979-.412,1.322-1.609,1.473-2.66a23.469,23.469,0,0,0-.531-9.255c1.687,2.585,3.438,5.238,5.981,6.989a3.008,3.008,0,0,0,2.964.6c1.193-.624,1.2-2.309.975-3.636a39.437,39.437,0,0,0-3.685-11.154,11.656,11.656,0,0,0,2.755,2.806,3.954,3.954,0,0,0,3.756.436c1.765-.856,2.2-3.163,2.161-5.125a23.665,23.665,0,0,0-2.8-10.706c-.916-1.708-2.625-3.724-4.762-3.431A27.218,27.218,0,0,0,106.98,348.427Z" transform="translate(-97.415 -345.763)" fill="#ffe8cc"/>
    </clipPath>
  </defs>
  <g id="Grupo_93987" data-name="Grupo 93987" transform="translate(-9545 10608)">
    <rect id="Imagen_20" data-name="Imagen 20" width="610" height="285" rx="19" transform="translate(9545 -10608)" fill="#85d161"/>
    <g id="Enmascarar_grupo_122" data-name="Enmascarar grupo 122" clip-path="url(#clip-path)">
      <g id="Grupo_93407" data-name="Grupo 93407" transform="translate(9667.587 -10643.988)">
        <g id="Grupo_93336" data-name="Grupo 93336" transform="translate(56.413 52.988)">
          <path id="Trazado_127590" data-name="Trazado 127590" d="M262.6,222.077c-1.512,4.149-1.079,8.409.414,12.584,1.874,5.268,5.436,10.406,8.874,15.014a88.672,88.672,0,0,1,5.08,7.446v.006c3.9,6.5,6.405,13.56,3.749,20.191a13.221,13.221,0,0,1-.692,1.467,14.761,14.761,0,0,1-1.118,1.764c-4.55,6.166-13.786,8.919-22.072,7.963a47.733,47.733,0,0,1-15.557-4.86c-.536-.259-1.06-.53-1.583-.808-4.44-2.366-6.437-5.662-10.1-8.674-11.382-9.346-29.066-8.189-43.227-5.029h-.006c-2.243.5-4.4,1.054-6.425,1.622-11.886,3.335-22.512,8.428-34.747,10.335-11.369,1.777-24.115,2.883-35.128-1.183a22.729,22.729,0,0,1-8.086-4.977,17.054,17.054,0,0,1-4.02-5.985c-2.217-5.617-1.881-11.686-.763-17.587.543-2.844,1.26-5.649,1.971-8.344,2.973-11.3,5.339-23.727-.834-34.424-5.662-9.818-16.85-13.14-25.627-19.364-9.411-6.67-15.887-17.212-16.275-28.167a29.527,29.527,0,0,1,15.952-27.114c13.676-6.851,33.318-3.548,42.929-14.937a22.421,22.421,0,0,0,4.77-11.2c.847-5.145.608-10.69.633-15.932,0-.355.006-.717.013-1.073.136-8.822,1.493-17.832,6.282-25.31,4.99-7.775,14.413-13.528,24.134-12.364,14.885,1.777,23.733,17.722,38.063,22.072,12.81,3.884,26.041-2.372,38.353-7.032s28.348-7.1,37.649,2.094c7.4,7.329,6.9,19,3.193,28.284-2.676,6.7-6.709,12.836-9.934,19.293a59.129,59.129,0,0,0-3.251,7.7c-3.051,9.223-2.139,20.786,5.817,26.991.226.181.452.349.692.517,8.066,5.688,19.455,4.117,28.678,7.9a24.085,24.085,0,0,1,14.3,16.359,21.685,21.685,0,0,1-5.882,20.069c-6.328,6.276-16.4,9.016-24.49,13.192q-.863.446-1.687.911C268.085,214.075,264.35,217.268,262.6,222.077Z" transform="translate(-56.413 -52.988)" fill="#e1f3d7" opacity="0.28"/>
          <path id="Trazado_127591" data-name="Trazado 127591" d="M285.943,166.722c-8.38-1.577-17.733-1.443-24.23-7.161-6.271-5.519-7.87-15.023-6.9-23.5s4.045-16.542,5.474-24.947.933-17.832-4.352-24.369c-7.578-9.374-21.463-9.111-33-6.614S199.075,86.5,188.2,81.771c-8.446-3.671-14.994-12.227-24.113-13.085-8.716-.82-16.632,6.036-20.709,14.076s-5.321,17.243-7.622,26.009-6.129,17.758-13.521,22.624c-9.2,6.058-21.808,4.338-30.767,10.779-7.718,5.549-10.855,17.028-7.092,25.957,4.858,11.533,18.258,16.4,26.109,25.824.721.657,1.4,1.322,2.03,1.987,8.482,9,11.2,20.467,10.3,32.564-.974,13.046-6.428,29.545,1.216,41.562,7.927,12.461,27.821,9.363,39.967,7.445,6.886-1.087,13.736-2.394,20.639-3.368,4-.565,8.3-1.019,11.818.9,17.549,1.446,38.71,15.736,55.379,14.04,5.945-.6,12-1.238,17.485-3.7s10.405-7.081,11.788-13.114c2.773-12.1-8.974-22.629-10.567-34.953-1.138-8.81,3.134-17.5,8.725-24.229s12.537-12.115,18.329-18.66c2.9-3.275,5.616-7.148,5.8-11.592C303.754,174.009,294.323,168.3,285.943,166.722Z" transform="translate(-65.741 -58.517)" fill="#c2e8b0"/>
          <path id="Trazado_127592" data-name="Trazado 127592" d="M179.981,330.9a3.263,3.263,0,0,1-3.393,1.771,9.516,9.516,0,0,1-3.788-1.532c-.026,1.771.982,3.367,1.454,5.074s.116,3.975-1.564,4.537a4.03,4.03,0,0,1-2.611-.259,25.537,25.537,0,0,1-7.232-3.936c.763,1.958-1.1,4.137-3.161,4.524s-4.143-.446-6.082-1.267a17.2,17.2,0,0,1-19.7,13.844,16.681,16.681,0,0,1-2.747-.666,4.676,4.676,0,0,1-6.2,5.352,8.341,8.341,0,0,1-1.144,11.485,17.054,17.054,0,0,1-4.02-5.985c-2.217-5.617-1.881-11.686-.763-17.587a118.682,118.682,0,0,1,14.226-12.61q4.392-3.316,9.075-6.2c4.369-2.7,9.036-5.158,14.122-5.907,6.864-1.008,13.825,1.209,20.023,4.324a8.606,8.606,0,0,1,2.766,1.907A3.2,3.2,0,0,1,179.981,330.9Z" transform="translate(-160.25 -114.849)" fill="#fdcfaf" opacity="0.3" style="mix-blend-mode: multiply;isolation: isolate"/>
          <path id="Trazado_127594" data-name="Trazado 127594" d="M307.367,344.819l32.224-11.226-27.961-6.128,36.771-.66,15.047-36.2-3.109,34.269,17.915-7.549-12.977,14.392,15.168,12.421-18.067-3.653,7.768,27.131-18.921-22.994-13.392,14.318,5.263-18.672Z" transform="translate(-145.167 -137.024)" fill="#fff"/>
          <g id="Grupo_93335" data-name="Grupo 93335" transform="translate(59.046 -11.896)">
            <g id="Grupo_93334" data-name="Grupo 93334" clip-path="url(#clip-path-2)">
              <g id="Grupo_93324" data-name="Grupo 93324" transform="translate(-2.009 -4.079)" opacity="0.3">
                <g id="Grupo_93300" data-name="Grupo 93300" transform="translate(134.73 129.505)">
                  <path id="Trazado_127595" data-name="Trazado 127595" d="M307.475,283.6l-19.344-20.926L306.7,284.5Z" transform="translate(-288.131 -262.678)" fill="#fff"/>
                </g>
                <g id="Grupo_93301" data-name="Grupo 93301" transform="translate(143.176 23.637)">
                  <path id="Trazado_127596" data-name="Trazado 127596" d="M318.4,119.807,301.2,98.882l16.432,21.824Z" transform="translate(-301.199 -98.882)" fill="#fff"/>
                </g>
                <g id="Grupo_93302" data-name="Grupo 93302" transform="translate(182.875 111.125)">
                  <path id="Trazado_127597" data-name="Trazado 127597" d="M379.823,255.167l-17.2-20.925,16.432,21.824Z" transform="translate(-362.62 -234.242)" fill="#fff"/>
                </g>
                <g id="Grupo_93303" data-name="Grupo 93303" transform="translate(51.658 118.194)">
                  <path id="Trazado_127598" data-name="Trazado 127598" d="M176.805,266.1l-17.2-20.926L176.035,267Z" transform="translate(-159.603 -245.179)" fill="#fff"/>
                </g>
                <g id="Grupo_93304" data-name="Grupo 93304" transform="translate(164.074 205.451)">
                  <path id="Trazado_127599" data-name="Trazado 127599" d="M350.734,401.107l-17.2-20.925,16.432,21.824Z" transform="translate(-333.532 -380.181)" fill="#fff"/>
                </g>
                <g id="Grupo_93305" data-name="Grupo 93305" transform="translate(106.26 179.755)">
                  <path id="Trazado_127600" data-name="Trazado 127600" d="M261.285,361.351l-17.2-20.926,16.432,21.824Z" transform="translate(-244.082 -340.426)" fill="#fff"/>
                </g>
                <g id="Grupo_93306" data-name="Grupo 93306" transform="translate(31.851 135.592)">
                  <path id="Trazado_127601" data-name="Trazado 127601" d="M146.16,293.022l-17.2-20.926,16.432,21.824Z" transform="translate(-128.958 -272.096)" fill="#fff"/>
                </g>
                <g id="Grupo_93307" data-name="Grupo 93307" transform="translate(0 86.343)">
                  <path id="Trazado_127602" data-name="Trazado 127602" d="M96.881,216.825,79.678,195.9,96.11,217.723Z" transform="translate(-79.678 -195.899)" fill="#fff"/>
                </g>
                <g id="Grupo_93308" data-name="Grupo 93308" transform="translate(164.902 106.503)">
                  <path id="Trazado_127603" data-name="Trazado 127603" d="M343.8,236.463l-8.986-9.372,8.216,10.27Z" transform="translate(-334.813 -227.091)" fill="#fff"/>
                </g>
                <g id="Grupo_93309" data-name="Grupo 93309" transform="translate(196.74 99.058)">
                  <path id="Trazado_127604" data-name="Trazado 127604" d="M393.058,224.943l-8.986-9.372,8.216,10.27Z" transform="translate(-384.072 -215.571)" fill="#fff"/>
                </g>
                <g id="Grupo_93310" data-name="Grupo 93310" transform="translate(160.363 13.44)">
                  <path id="Trazado_127605" data-name="Trazado 127605" d="M336.776,92.475,327.79,83.1l8.216,10.27Z" transform="translate(-327.79 -83.104)" fill="#fff"/>
                </g>
                <g id="Grupo_93311" data-name="Grupo 93311" transform="translate(155.205 55.267)">
                  <path id="Trazado_127606" data-name="Trazado 127606" d="M333.674,162.838l-13.865-15.02,13.116,15.919Z" transform="translate(-319.81 -147.818)" fill="#fff"/>
                </g>
                <g id="Grupo_93312" data-name="Grupo 93312" transform="translate(140.833 155.1)">
                  <path id="Trazado_127607" data-name="Trazado 127607" d="M306.559,311.651l-8.986-9.372,8.216,10.27Z" transform="translate(-297.573 -302.28)" fill="#fff"/>
                </g>
                <g id="Grupo_93313" data-name="Grupo 93313" transform="translate(154.097 217.711)">
                  <path id="Trazado_127608" data-name="Trazado 127608" d="M327.081,408.521,318.1,399.15l8.216,10.27Z" transform="translate(-318.095 -399.15)" fill="#fff"/>
                </g>
                <g id="Grupo_93314" data-name="Grupo 93314" transform="translate(62.059 142.094)">
                  <path id="Trazado_127609" data-name="Trazado 127609" d="M184.681,291.528l-8.986-9.371,8.216,10.27Z" transform="translate(-175.695 -282.157)" fill="#fff"/>
                </g>
                <g id="Grupo_93315" data-name="Grupo 93315" transform="translate(99.531 158.689)">
                  <path id="Trazado_127610" data-name="Trazado 127610" d="M242.658,317.2l-8.986-9.372,8.216,10.27Z" transform="translate(-233.671 -307.832)" fill="#fff"/>
                </g>
                <g id="Grupo_93316" data-name="Grupo 93316" transform="translate(5.583 77.321)">
                  <path id="Trazado_127611" data-name="Trazado 127611" d="M97.3,191.312l-8.986-9.372,8.216,10.27Z" transform="translate(-88.316 -181.94)" fill="#fff"/>
                </g>
                <g id="Grupo_93317" data-name="Grupo 93317" transform="translate(53.619 35.803)">
                  <path id="Trazado_127612" data-name="Trazado 127612" d="M171.623,127.075l-8.986-9.372,8.216,10.27Z" transform="translate(-162.636 -117.704)" fill="#fff"/>
                </g>
                <g id="Grupo_93318" data-name="Grupo 93318" transform="translate(78.873)">
                  <path id="Trazado_127613" data-name="Trazado 127613" d="M210.7,71.682l-8.986-9.372,8.216,10.27Z" transform="translate(-201.709 -62.31)" fill="#fff"/>
                </g>
                <g id="Grupo_93319" data-name="Grupo 93319" transform="translate(71.444 20.747)">
                  <path id="Trazado_127614" data-name="Trazado 127614" d="M205.62,110.971,190.215,94.41,204.85,111.87Z" transform="translate(-190.215 -94.41)" fill="#fff"/>
                </g>
                <g id="Grupo_93320" data-name="Grupo 93320" transform="translate(74.782 123.449)">
                  <path id="Trazado_127615" data-name="Trazado 127615" d="M204.366,262.681l-8.986-9.372,8.216,10.27Z" transform="translate(-195.379 -253.31)" fill="#fff"/>
                </g>
                <g id="Grupo_93321" data-name="Grupo 93321" transform="translate(67.013 81.059)">
                  <path id="Trazado_127616" data-name="Trazado 127616" d="M196.635,201.478,183.36,187.723l12.505,14.654Z" transform="translate(-183.36 -187.723)" fill="#fff"/>
                </g>
                <g id="Grupo_93322" data-name="Grupo 93322" transform="translate(46.945 191.97)">
                  <path id="Trazado_127617" data-name="Trazado 127617" d="M161.3,368.695l-8.986-9.372,8.216,10.27Z" transform="translate(-152.311 -359.323)" fill="#fff"/>
                </g>
                <g id="Grupo_93323" data-name="Grupo 93323" transform="translate(66.565 186.611)">
                  <path id="Trazado_127618" data-name="Trazado 127618" d="M199.87,371.958l-17.2-20.925L199.1,372.856Z" transform="translate(-182.667 -351.032)" fill="#fff"/>
                </g>
              </g>
              <g id="Grupo_93333" data-name="Grupo 93333" transform="translate(-10.607 -8.63)" style="isolation: isolate">
                <g id="Grupo_93325" data-name="Grupo 93325" transform="translate(195.567 131.401)">
                  <path id="Trazado_127619" data-name="Trazado 127619" d="M373.194,288.132l-4.239,2.354,13.685-29.562,4.239-2.354Z" transform="translate(-368.955 -258.571)" fill="#80013d"/>
                </g>
                <g id="Grupo_93326" data-name="Grupo 93326" transform="translate(117.96 89.439)">
                  <path id="Trazado_127620" data-name="Trazado 127620" d="M322.165,271.689l-4.239,2.354L248.882,196l4.239-2.354Z" transform="translate(-248.882 -193.647)" fill="#80013d"/>
                </g>
                <g id="Grupo_93327" data-name="Grupo 93327" transform="translate(157.78 175.333)">
                  <path id="Trazado_127621" data-name="Trazado 127621" d="M381.717,354.572l-4.239,2.354L310.491,328.9l4.239-2.354Z" transform="translate(-310.491 -326.542)" fill="#80013d"/>
                </g>
                <g id="Grupo_93328" data-name="Grupo 93328" transform="translate(60.513 64.33)">
                  <path id="Trazado_127622" data-name="Trazado 127622" d="M164.24,212.794,160,215.148l60.173-58,4.239-2.354Z" transform="translate(-160.001 -154.799)" fill="#80013d"/>
                </g>
                <g id="Grupo_93329" data-name="Grupo 93329">
                  <path id="Trazado_127623" data-name="Trazado 127623" d="M70.615,85.617l-4.239,2.354L83.941,57.622l4.239-2.354Z" transform="translate(-66.376 -55.268)" fill="#80013d"/>
                </g>
                <g id="Grupo_93330" data-name="Grupo 93330" transform="translate(0 30.349)">
                  <path id="Trazado_127624" data-name="Trazado 127624" d="M126.654,209.894l-4.239,2.354L66.376,104.578l4.239-2.354Z" transform="translate(-66.376 -102.224)" fill="#80013d"/>
                </g>
                <g id="Grupo_93331" data-name="Grupo 93331" transform="translate(4.239)">
                  <path id="Trazado_127625" data-name="Trazado 127625" d="M90.5,55.268l42.948,122.325,60.173-58L268.5,216.231l13.685-29.562L297.7,258.632,230.715,230.6l29.224-7.853-69.044-78.042-61.921,48.58L72.935,85.617Z" transform="translate(-72.935 -55.268)" fill="#e80252"/>
                </g>
                <g id="Grupo_93332" data-name="Grupo 93332" transform="translate(42.948 68.185)" opacity="0.25" style="mix-blend-mode: screen;isolation: isolate">
                  <path id="Trazado_127626" data-name="Trazado 127626" d="M363.272,294.539c7.44,9.537,16.82,17.06,27.87,20.141l-12.1-56.109-13.685,29.561-18.554-23.944A104,104,0,0,0,363.272,294.539Z" transform="translate(-208.503 -195.355)" fill="#ffde4b"/>
                  <path id="Trazado_127627" data-name="Trazado 127627" d="M293.4,204.244a122.672,122.672,0,0,0,3.5,22.741l24.084,27.223c-3.443-6.9-5.309-14.613-6.766-22.2-.559-2.915-1.076-5.818-1.5-8.731l-19.5-25.167Q293.236,201.18,293.4,204.244Z" transform="translate(-189.55 -173.971)" fill="#ffde4b"/>
                  <path id="Trazado_127628" data-name="Trazado 127628" d="M147.322,200.219c-.3-2.659-.52-5.308-.642-7.956l-11.059-31.5a98.4,98.4,0,0,0-2.163,12.658,175.27,175.27,0,0,0-.409,24.309L150.154,230.6l2.921-2.291C149.688,219.379,148.378,209.627,147.322,200.219Z" transform="translate(-132.825 -160.764)" fill="#ffde4b"/>
                </g>
              </g>
            </g>
          </g>
        </g>
        <g id="Grupo_93384" data-name="Grupo 93384" transform="translate(67.363 59.154)">
          <ellipse id="Elipse_5143" data-name="Elipse 5143" cx="110.751" cy="15.944" rx="110.751" ry="15.944" transform="translate(5.415 434.689)" fill="#fdcfaf" opacity="0.28"/>
          <g id="Grupo_93351" data-name="Grupo 93351" transform="translate(42.799 176.647)">
            <g id="Grupo_93338" data-name="Grupo 93338" transform="translate(8.627 252.221)">
              <path id="Trazado_127631" data-name="Trazado 127631" d="M202.986,433.074s-12.532,19.03-5.769,21.241,30.388-11.773,30.958-14.747-.226-13.674-.226-13.674l-23.709-.435Z" transform="translate(-195.214 -425.458)" fill="#3714a5"/>
              <g id="Grupo_93337" data-name="Grupo 93337" clip-path="url(#clip-path-3)">
                <path id="Trazado_127632" data-name="Trazado 127632" d="M207.312,452.471c-1.765.271-3.877.2-4.926-1.441a6.277,6.277,0,0,1-.412-4.538c1.734-8.489,8.221-11.96,13.354-13.06,4.428-.949,11.186-.97,14.318-.852,0,0-.015-1.832-.007-2.786a1.785,1.785,0,0,0-.886-1.544,17.572,17.572,0,0,0-6.79-2.135,48.5,48.5,0,0,0-11.835-.245c-3.978.406-8.108,1.411-11.116,4.363-2.519,2.472-3.965,6.018-5.537,9.348-1.268,2.684-2.681,5.346-3.226,8.33s-.04,6.438,2.014,8.432a7.933,7.933,0,0,0,5.523,1.947,21.565,21.565,0,0,0,10.118-2.672c1-.51,8.2-4.306,7.806-5.469-.2-.58-3.266,1.008-3.848,1.205A26.83,26.83,0,0,1,207.312,452.471Z" transform="translate(-196.153 -425.429)" fill="#cfdaff" opacity="0.5" style="mix-blend-mode: multiply;isolation: isolate"/>
                <path id="Trazado_127633" data-name="Trazado 127633" d="M203.528,450.383a12.3,12.3,0,0,1-5.042,1.054,4.468,4.468,0,0,1-4.027-2.809,4.123,4.123,0,0,0,1.871,3.856,7.664,7.664,0,0,0,4.26,1.141,23.205,23.205,0,0,0,7.865-1.546,58,58,0,0,0,15.071-7.863,17.6,17.6,0,0,0,4.085-3.811A8.52,8.52,0,0,0,229,437.451c.074-.308.38-1.3.142-1.566-.351-.4-.874.4-1.153.658a49.929,49.929,0,0,1-5.294,4.279,70.5,70.5,0,0,1-11.988,6.664C208.349,448.536,205.949,449.491,203.528,450.383Z" transform="translate(-195.358 -423.584)" fill="#210b69"/>
                <path id="Trazado_127634" data-name="Trazado 127634" d="M214.195,435.239c1.144-1.832,2.1-4.476.568-6.4s-4.884-1.631-6.959-1.089a14.038,14.038,0,0,0-6.643,4.155,23.631,23.631,0,0,0-4.665,7.9c-.03.079.095.122.132.052,2.523-4.605,5.453-9.451,10.71-11.1a10.057,10.057,0,0,1,3.739-.464c1.3.093,2.817.419,3.318,1.8.892,2.46-1.221,4.678-2.381,6.593-.974,1.607-2.14,5.2.2,6.271.317.145-1.676-.852-.031-4.051C212.822,437.652,213.465,436.409,214.195,435.239Z" transform="translate(-194.982 -425.115)" fill="#210b69"/>
              </g>
            </g>
            <g id="Grupo_93340" data-name="Grupo 93340" transform="translate(108.775 251.387)">
              <path id="Trazado_127636" data-name="Trazado 127636" d="M305.316,432.284s13.594,18.285,6.967,20.878-31.008-10.025-31.746-12.962-.553-13.666-.553-13.666l23.647-1.782Z" transform="translate(-279.964 -424.752)" fill="#3714a5"/>
              <g id="Grupo_93339" data-name="Grupo 93339" clip-path="url(#clip-path-4)">
                <path id="Trazado_127637" data-name="Trazado 127637" d="M310.711,450.681c-4.821-.05-15.93-5.316-14.965-12.171,1.116-4.7,10.675-5.025,16.16-5.177-5.656-6.214-16.982-6.818-25.254-6.589-10.008.568-10.591,7.423-7.044,13.97,3.233,5.968,6.793,9.894,18.888,14.107,6.876,2.394,15.111,1.913,17.784-.667,1.361-1.314,2.006-4.533-.145-5.112C315.081,448.758,315.711,450.732,310.711,450.681Z" transform="translate(-280.388 -424.397)" fill="#cfdaff" opacity="0.5" style="mix-blend-mode: multiply;isolation: isolate"/>
                <path id="Trazado_127638" data-name="Trazado 127638" d="M306.075,449.372a12.257,12.257,0,0,0,5.094.766,4.467,4.467,0,0,0,3.861-3.033,4.125,4.125,0,0,1-1.647,3.956,7.677,7.677,0,0,1-4.189,1.383,23.2,23.2,0,0,1-7.941-1.1,57.99,57.99,0,0,1-15.494-6.993,17.576,17.576,0,0,1-4.3-3.571,8.545,8.545,0,0,1-1.556-2.872c-.092-.3-.453-1.274-.23-1.556.328-.416.9.349,1.189.592a49.934,49.934,0,0,0,5.529,3.972,70.613,70.613,0,0,0,12.347,5.971C301.157,447.8,303.606,448.619,306.075,449.372Z" transform="translate(-280.029 -422.666)" fill="#210b69"/>
                <path id="Trazado_127639" data-name="Trazado 127639" d="M289.389,434.429c-1.247-1.763-2.347-4.35-.932-6.36,1.4-1.995,4.783-1.906,6.886-1.483a14.036,14.036,0,0,1,6.869,3.77,23.651,23.651,0,0,1,5.107,7.618c.033.077-.088.128-.13.06-2.781-4.455-5.983-9.126-11.324-10.476a10.05,10.05,0,0,0-3.759-.252c-1.293.168-2.789.579-3.211,1.989-.75,2.506,1.485,4.6,2.752,6.446,1.065,1.549,2.433,5.068.161,6.271-.308.164,1.624-.945-.2-4.045C290.9,436.76,290.185,435.555,289.389,434.429Z" transform="translate(-278.541 -424.464)" fill="#210b69"/>
              </g>
            </g>
            <g id="Grupo_93350" data-name="Grupo 93350">
              <g id="Grupo_93342" data-name="Grupo 93342" transform="translate(14.236)">
                <path id="Trazado_127641" data-name="Trazado 127641" d="M302.177,309.817c10.986,64.981,18.486,129.849,19.036,161.629-7.3,2.591-24.494,2.629-28.918.208-.4-20.616-20.581-94.074-24.562-117.195s-11.507-79.071-15.416-78.81-7.447,36.645-8.344,72.516c-.486,19.358-13.436,110.554-12.785,122.91-5.763-.263-20.515,2.144-30.159-2.181-3.856-93.815,3.869-135.583,5.165-183.4.519-19.221,1.138-36.4,2.577-49.7a118.088,118.088,0,0,1,2.493-15.274,398.944,398.944,0,0,1,78.763-8.5c-.02.26,1.592,14.892,2.477,29.5C293.359,255.587,298.5,288.07,302.177,309.817Z" transform="translate(-199.96 -212.016)" fill="#210b69"/>
                <g id="Grupo_93341" data-name="Grupo 93341" clip-path="url(#clip-path-5)">
                  <path id="Trazado_127642" data-name="Trazado 127642" d="M221.9,240.837c1.783-7.517,6.651-14.467,9.705-21.522a18.485,18.485,0,0,0-6.435-6.7,16.377,16.377,0,0,0-19.5,2.168c-5.332,5.156-6.866,13.364-7.929,21-9.149,65.683-5.234,132.617-1.3,198.954.774,13.047,1.2,13.872,1.975,26.919.294,4.955.2,11.9,2.487,15.183s6.372.812,7.031-4.42c1.621-12.877,8.238-67.671,8.518-90.016l.467-37.24C217.14,327.247,218.156,256.61,221.9,240.837Z" transform="translate(-201.382 -212.317)" fill="#210b69" opacity="0.5" style="mix-blend-mode: multiply;isolation: isolate"/>
                  <path id="Trazado_127643" data-name="Trazado 127643" d="M252.62,274.214c5.086,27.621,36.223,132.024,37.3,180.714.418,18.9-11.187,18.678-15.136,14.688s-5.352-9.9-6.337-15.552c-2.947-16.9-28.364-23.685-28.72-40.93q-.7-33.992.269-68.047c.637-22.412,3.248-44.97,3.5-67.342.025-2.135-1.457-8.136.435-9.809C247.462,264.818,250.79,264.273,252.62,274.214Z" transform="translate(-192.788 -202.22)" fill="#210b69" opacity="0.5" style="mix-blend-mode: multiply;isolation: isolate"/>
                </g>
              </g>
              <g id="Grupo_93345" data-name="Grupo 93345" transform="translate(0 15.147)">
                <g id="Grupo_93344" data-name="Grupo 93344" transform="translate(0 3.985)">
                  <path id="Trazado_127645" data-name="Trazado 127645" d="M197.051,235.967a21.287,21.287,0,0,0-7.116,2.344c-1.1.672-2.187,1.775-2,3.052.176,1.2,1.388,1.947,2.517,2.4,7.524,3.038,16.255.75,24.034,3.061a6.241,6.241,0,0,0,2.874.447,5.123,5.123,0,0,0,2.074-1.1,29.149,29.149,0,0,0,7.356-7.861,18.493,18.493,0,0,0,2.68-7.848c.043-.469.277-1.552.009-1.97-.373-.589-.864-.132-1.406.109-1.327.587-2.681,1.113-4.051,1.591a107.56,107.56,0,0,1-17.1,4.03C203.628,234.793,200.33,235.329,197.051,235.967Z" transform="translate(-187.913 -228.206)" fill="#fff"/>
                  <g id="Grupo_93343" data-name="Grupo 93343" clip-path="url(#clip-path-6)">
                    <path id="Trazado_127646" data-name="Trazado 127646" d="M229.991,233.514a6.508,6.508,0,0,1-.681,4.086,36.862,36.862,0,0,1-4.44,8.707,12.426,12.426,0,0,1-8.052,5.125c-2.539.313-5.071-.437-7.588-.9-3.737-.682-7.562-.724-11.323-1.256s-7.578-1.619-10.485-4.064a6.066,6.066,0,0,1-2.368-3.77,5.036,5.036,0,0,1,1.517-3.915,11.482,11.482,0,0,1,3.615-2.346,33.373,33.373,0,0,1,16.833-2.847c-2.723,1.134-11.27,3.416-11.128,5.133s12.291.853,16.551,1.435c.422.058.943.207,1.006.627.092.612-.811.786-1.423.7-5.809-.789-16.325-.066-17.223,1.455s5.456,1.619,8.734,1.836a42.3,42.3,0,0,0,13.664-.971,21.892,21.892,0,0,0,11.531-7.081A11.45,11.45,0,0,0,229.991,233.514Z" transform="translate(-188.436 -227.481)" fill="#e6e9ff" opacity="0.4" style="mix-blend-mode: multiply;isolation: isolate"/>
                  </g>
                </g>
                <path id="Trazado_127648" data-name="Trazado 127648" d="M210.649,247.986a80.417,80.417,0,0,0,9.193-9.8c3.563-4.773,6.368-13.352,6.368-13.352l3.331.813s-1.8,9.654-8.041,16.06-9.553,8.577-9.553,8.577Z" transform="translate(-183.782 -224.834)" fill="#3714a5"/>
              </g>
              <g id="Grupo_93348" data-name="Grupo 93348" transform="translate(97.138 14.609)">
                <g id="Grupo_93347" data-name="Grupo 93347" transform="translate(2.345 1.845)">
                  <path id="Trazado_127649" data-name="Trazado 127649" d="M300.794,230.254a16.38,16.38,0,0,1,5.855,1.413c.837.455,1.561,1.24,1.1,2.224a4.918,4.918,0,0,1-2.8,1.967c-7.441,2.717-14.758,1.432-22.262,3.608-.906.262-3.585,1.073-4.71.49s-3.42-4.084-4.4-6.341c-.756-1.739-1.937-6.183-1.289-7.146s1.906-.353,2.339-.2c1.056.378,2.153.709,3.274,1a91.511,91.511,0,0,0,14.433,2.171C295.158,229.7,298,229.94,300.794,230.254Z" transform="translate(-272.101 -225.94)" fill="#fff"/>
                  <g id="Grupo_93346" data-name="Grupo 93346" clip-path="url(#clip-path-7)">
                    <path id="Trazado_127650" data-name="Trazado 127650" d="M272.185,229.874a5.4,5.4,0,0,0-.327,3.449,22.531,22.531,0,0,0,1.823,7.147,6.68,6.68,0,0,0,5.65,3.838c2.069.095,4.365-.719,6.584-1.282,3.3-.837,6.525-1.133,9.808-1.843a24.093,24.093,0,0,0,9.72-4.188,8.2,8.2,0,0,0,2.823-3.386,3.425,3.425,0,0,0-.415-3.247,6.017,6.017,0,0,0-2.528-1.761,24.014,24.014,0,0,0-13.543-1.292c2.041.786,8.735,2.158,8.237,3.636s-10.535,1.563-14.249,2.35c-.368.078-.839.241-.984.605-.212.529.509.617,1.043.5,5.063-1.071,13.757-1.166,14.179.074s-4.949,1.755-7.757,2.164a33.566,33.566,0,0,1-11.289.1c-3.473-.707-6.515-2.412-8.149-5.274A6.444,6.444,0,0,1,272.185,229.874Z" transform="translate(-272.168 -225.766)" fill="#e6e9ff" opacity="0.4" style="mix-blend-mode: multiply;isolation: isolate"/>
                  </g>
                </g>
                <path id="Trazado_127652" data-name="Trazado 127652" d="M277.53,234.582a69.438,69.438,0,0,1-4.061-10.2l-3.352.728s1.553,9.7,7.627,16.261C278.571,242.273,279.08,238.756,277.53,234.582Z" transform="translate(-270.116 -224.378)" fill="#3714a5"/>
              </g>
              <g id="Grupo_93349" data-name="Grupo 93349" transform="translate(60.356 15.699)">
                <path id="Trazado_127653" data-name="Trazado 127653" d="M256.41,262.3a21.137,21.137,0,0,0-4.372.5,39.863,39.863,0,0,0-4.581,1.17,38.216,38.216,0,0,0-8.36,3.7c-.232.141-.05.411.195.29a54.831,54.831,0,0,1,8.444-3.45c1.393-.425,2.8-.77,4.223-1.071,1.489-.315,3-.492,4.484-.829C256.67,262.553,256.6,262.3,256.41,262.3Z" transform="translate(-238.99 -218.58)"/>
                <path id="Trazado_127654" data-name="Trazado 127654" d="M243.957,247.754q-.1-3.343-.266-6.685c-.225-4.513-.566-9.02-.984-13.517a.135.135,0,1,0-.271.008c.357,4.5.62,9.009.819,13.522q.147,3.341.228,6.686c.056,2.276-.033,4.591.173,6.858a.182.182,0,1,0,.363-.011A65.843,65.843,0,0,0,243.957,247.754Z" transform="translate(-238.364 -224.917)"/>
                <path id="Trazado_127655" data-name="Trazado 127655" d="M247.448,240.064c-.129-2.453-.331-4.905-.644-7.341a49.534,49.534,0,0,0-1.255-7.312.151.151,0,0,0-.3.052c.23,2.432.74,4.846,1.019,7.276s.506,4.886.643,7.339c.275,4.912.134,9.814-.043,14.724-.006.144.22.174.238.027A85.692,85.692,0,0,0,247.448,240.064Z" transform="translate(-237.852 -225.301)"/>
              </g>
            </g>
          </g>
          <g id="Grupo_93371" data-name="Grupo 93371" transform="translate(0 73.422)">
            <g id="Grupo_93356" data-name="Grupo 93356" transform="translate(131.575 3.992)">
              <g id="Grupo_93353" data-name="Grupo 93353" transform="translate(42.147 103.019)">
                <path id="Trazado_127656" data-name="Trazado 127656" d="M318.212,225.106a9.03,9.03,0,0,1,.418,5.041,11.411,11.411,0,0,1-2.545,4.479,14.038,14.038,0,0,1-3.6,3.282c-3.056,1.787-6.84,1.546-10.366,1.251a.845.845,0,0,1-.637-.245.57.57,0,0,1,.175-.746,1.649,1.649,0,0,1,.8-.26,3.932,3.932,0,0,1-1.745.553,1.349,1.349,0,0,1-1.366-1.007c-.124-.847.8-1.418,1.529-1.862a9.2,9.2,0,0,0,4.312-6.944c.051-.583-.08-1.338-.652-1.459-.6-.129-1.023.573-1.237,1.152l-2.2,5.966a3.166,3.166,0,0,1-.609,1.137,1.081,1.081,0,0,1-1.177.312c-.557-.256-.624-1.008-.6-1.62a49.69,49.69,0,0,1,3.816-17.068,3.123,3.123,0,0,1,1.056-1.522,2.889,2.889,0,0,1,1.552-.326,14.143,14.143,0,0,1,8.586,2.986A14.483,14.483,0,0,1,318.212,225.106Z" transform="translate(-298.707 -215.22)" fill="#ff9681"/>
                <g id="Grupo_93352" data-name="Grupo 93352" clip-path="url(#clip-path-8)">
                  <path id="Trazado_127657" data-name="Trazado 127657" d="M309.636,232.375q-2,2.871-4,5.743a6.517,6.517,0,0,0,4.292-1.352,19.383,19.383,0,0,0,3.261-3.222l-1.772,3.338c2.788-1.37,4.341-4.366,5.536-7.232.363-.871.683-1.956.083-2.685a4.7,4.7,0,0,0-1.458-.878,6.269,6.269,0,0,1-1.82-1.828l-5.91-7.866c-.52-.691-1.055-1.627-.592-2.356a2.045,2.045,0,0,1,1.995-.6,14.041,14.041,0,0,1,10.834,20.872c-2.115,3.745-5.853,6.334-9.806,8.028a13.647,13.647,0,0,1-4.614,1.245,6.294,6.294,0,0,1-4.479-1.379,5.566,5.566,0,0,1-1.207-1.542c-.356-.657-.644-1.028-.1-1.462.949-.75,2.6-1.084,3.686-1.712A19.258,19.258,0,0,0,309.636,232.375Z" transform="translate(-298.55 -215.548)" fill="#ff9681" opacity="0.3" style="mix-blend-mode: multiply;isolation: isolate"/>
                </g>
              </g>
              <g id="Grupo_93355" data-name="Grupo 93355">
                <path id="Trazado_127659" data-name="Trazado 127659" d="M313.571,188.966c-.818-1.116-31.759-21.131-44.616-33.944-9.147-9.117-7.24-23.865,2.652-26.7,16.5-4.729,66.292,51.667,67.72,55.764,4.338,12.453-9.608,50.107-9.727,52.869s-17.906-.651-20.593-4.046C311.063,229.762,314.389,190.081,313.571,188.966Z" transform="translate(-263.04 -128.04)" fill="#fff"/>
                <g id="Grupo_93354" data-name="Grupo 93354" clip-path="url(#clip-path-9)">
                  <path id="Trazado_127660" data-name="Trazado 127660" d="M314.79,187.318c.047-2.6.018-5.379-1.41-7.556a13.363,13.363,0,0,0-4.083-3.555l-35.97-23.558c-.962,5.621,2.009,11.239,5.885,15.423s8.683,7.409,12.649,11.507a40.832,40.832,0,0,1,10.977,33.144c-.509,3.914-1.585,7.955-.409,11.722.794,2.542,4.539,6.474,7.61,5.137,3.037-1.324,2.457-8.448,2.784-11.442Q314.5,202.784,314.79,187.318Z" transform="translate(-261.204 -123.569)" fill="#e6e9ff" opacity="0.6" style="mix-blend-mode: multiply;isolation: isolate"/>
                  <path id="Trazado_127661" data-name="Trazado 127661" d="M283.158,151.681c.145-.076.035-.306-.117-.259a8.582,8.582,0,0,0-4.322,3.146A9.855,9.855,0,0,0,277.4,156.9a9.579,9.579,0,0,0-.4,1.286,2.673,2.673,0,0,0-.086,1.243l-.014.019a.186.186,0,0,0,.3.216,30.683,30.683,0,0,1,2.411-2.594c.854-.807,1.791-1.528,2.612-2.369.095-.1-.011-.293-.145-.235a9.63,9.63,0,0,0-2.9,2.133,16.067,16.067,0,0,0-1.741,2.1,10.868,10.868,0,0,1,1.851-3.832A12.168,12.168,0,0,1,283.158,151.681Z" transform="translate(-260.527 -123.793)" fill="#c8d3ff"/>
                </g>
              </g>
              <path id="Trazado_127663" data-name="Trazado 127663" d="M300.982,212.755a28.585,28.585,0,0,0-1.95,7.677,57.351,57.351,0,0,0,18.848,6.028,7.355,7.355,0,0,0,4.2-.3,5.783,5.783,0,0,0,2.726-3.761c.167-.542.718-1.923.493-2.469-.328-.792-1.687-.853-2.458-1.068l-13.975-3.9Z" transform="translate(-256.501 -112.649)" fill="#e6e9ff"/>
            </g>
            <g id="Grupo_93365" data-name="Grupo 93365" transform="translate(49.375)">
              <g id="Grupo_93359" data-name="Grupo 93359" transform="translate(0 1.325)">
                <path id="Trazado_127664" data-name="Trazado 127664" d="M211.2,211.047c.1,10.068-10.769,22.329.2,27.329s34.452,4.561,46.457,4.893c11.3.313,29.036-.8,34.934-5.945s-4.061-9.484-3.637-34.511c.45-26.556,8.353-68.286.031-74.051-4.284-2.968-37-2.687-41.592-2.965s-46.29,3.371-51.7,9.777C185.7,147.663,210.985,188.086,211.2,211.047Z" transform="translate(-193.478 -125.782)" fill="#fff"/>
                <g id="Grupo_93358" data-name="Grupo 93358" clip-path="url(#clip-path-10)">
                  <path id="Trazado_127665" data-name="Trazado 127665" d="M206.293,169.323a36.776,36.776,0,0,1,0-4.895c.248-3.7-.509-5.749-3.7-2.686-2.223,2.135-4.436,5.42-4.345,8.635.308,6.226,2.366,12.214,3.7,18.3a79.41,79.41,0,0,1,.389,31.89c-1.165,6.041-2.235,15.4,6.172,16.626,8.944,1.3,2.916-10.952,3.23-15.385.392-5.563,2.456-10.909,2.825-16.474.4-6-1.182-11.9-2.736-17.746-.956-3.6-3.108-6.79-4.148-10.4A37.466,37.466,0,0,1,206.293,169.323Z" transform="translate(-192.612 -119.519)" fill="#e6e9ff" opacity="0.6" style="mix-blend-mode: multiply;isolation: isolate"/>
                  <g id="Grupo_93357" data-name="Grupo 93357" transform="translate(50.302 11.758)" opacity="0.5" style="mix-blend-mode: multiply;isolation: isolate">
                    <path id="Trazado_127666" data-name="Trazado 127666" d="M243.553,141.619c-2.115.06-3.819,1.483-3.4,8.048.139,2.179-3.241,56.534-4.057,64.418s8.566,23.118,11.7,22.883,12.448-18.7,12.137-21.16-9.153-56.059-11.5-65.654C246.479,142.187,245.292,141.571,243.553,141.619Z" transform="translate(-236.046 -134.664)" fill="#e6e9ff" opacity="0.6"/>
                    <path id="Trazado_127667" data-name="Trazado 127667" d="M240.728,145.268a3.65,3.65,0,0,0,2.18,1.038c1.38.032,2.551-1.195,3.519-2.321.871-1.014,1.8-2.194,1.747-3.508-.058-1.339-1.12-2.275-2.1-3.055-1.247-.993-2.734-2.035-4.321-1.579a6.226,6.226,0,0,0-2.793,2.336C236.26,141.535,238.117,143.063,240.728,145.268Z" transform="translate(-235.757 -135.733)" fill="#e6e9ff" opacity="0.6"/>
                  </g>
                  <path id="Trazado_127668" data-name="Trazado 127668" d="M226.405,130.949c-5.08,11.029,10.092,19.218,11.878,18.841s2.148-9.41,6.4-10.073,7.629,7.394,9.13,7.191,5.149-10.37-1.986-17C249.222,127.483,229.942,123.269,226.405,130.949Z" transform="translate(-187.684 -125.643)" fill="#e6e9ff" opacity="0.6" style="mix-blend-mode: multiply;isolation: isolate"/>
                </g>
              </g>
              <path id="Trazado_127670" data-name="Trazado 127670" d="M226.943,129.059c-5.08,11.029,10.092,19.218,11.878,18.841s2.15-9.41,6.4-10.074,7.629,7.395,9.13,7.192,5.15-10.372-1.986-17C249.76,125.593,230.481,121.379,226.943,129.059Z" transform="translate(-187.586 -124.661)" fill="#e6e9ff" stroke="#c8d3ff" stroke-miterlimit="10" stroke-width="0.5"/>
              <g id="Grupo_93363" data-name="Grupo 93363" transform="translate(52.095 12.631)">
                <g id="Grupo_93362" data-name="Grupo 93362" transform="translate(0 6.819)">
                  <path id="Trazado_127671" data-name="Trazado 127671" d="M244.022,141.123c-2.114.06-3.8,1.456-3.286,7.895.17,2.138-2.434,55.449-3.136,63.182s8.9,22.669,12.028,22.438,12.185-18.343,11.84-20.761-9.959-54.975-12.447-64.385C246.957,141.679,245.762,141.075,244.022,141.123Z" transform="translate(-237.563 -141.121)" fill="#e80252"/>
                  <g id="Grupo_93361" data-name="Grupo 93361" clip-path="url(#clip-path-11)">
                    <g id="Grupo_93360" data-name="Grupo 93360" transform="translate(-15.517 -11.903)" opacity="0.53">
                      <path id="Trazado_127672" data-name="Trazado 127672" d="M263.845,233.913a36.161,36.161,0,0,0-4.274-1.281c-1.391-.392-2.785-.841-4.189-1.387A50.911,50.911,0,0,1,247,227.023a64.529,64.529,0,0,1-15.02-13.2,90.979,90.979,0,0,1-6.858-9.393c-.333-.519-.895-.327-.618.217,6.433,12.658,18.484,23.28,30,28.064a41.348,41.348,0,0,0,5.03,1.742,11.665,11.665,0,0,0,4.682.557C264.716,234.933,264.284,234.1,263.845,233.913Z" transform="translate(-224.432 -117.771)" fill="#fdcfaf"/>
                      <path id="Trazado_127673" data-name="Trazado 127673" d="M264.741,228.494a36.342,36.342,0,0,0-4.275-1.281c-1.39-.392-2.784-.841-4.188-1.387A50.9,50.9,0,0,1,247.9,221.6a64.523,64.523,0,0,1-15.02-13.2,91.119,91.119,0,0,1-6.858-9.394c-.334-.519-.895-.327-.618.217.715,1.407,1.51,2.784,2.355,4.136-.749-1.077-1.485-2.162-2.193-3.263-.333-.519-.895-.326-.618.217,6.433,12.659,18.485,23.28,30,28.065a41.608,41.608,0,0,0,5.03,1.742,11.668,11.668,0,0,0,4.682.557c.462-.073.121-.8-.281-1.045a6.049,6.049,0,0,0,.737-.047C265.612,229.515,265.179,228.676,264.741,228.494Z" transform="translate(-224.352 -118.755)" fill="#fdcfaf" opacity="0.5"/>
                      <path id="Trazado_127674" data-name="Trazado 127674" d="M265.172,224.159a36.39,36.39,0,0,0-4.274-1.28c-1.391-.393-2.785-.842-4.189-1.388a50.9,50.9,0,0,1-8.378-4.222,64.5,64.5,0,0,1-15.02-13.2,91.113,91.113,0,0,1-6.858-9.394c-.333-.519-.895-.326-.618.217,6.433,12.658,18.484,23.28,30,28.064a41.549,41.549,0,0,0,5.03,1.743,11.661,11.661,0,0,0,4.682.555C266.043,225.18,265.61,224.343,265.172,224.159Z" transform="translate(-224.191 -119.543)" fill="#fdcfaf"/>
                      <path id="Trazado_127675" data-name="Trazado 127675" d="M266.068,218.74a36.334,36.334,0,0,0-4.275-1.28c-1.39-.394-2.784-.843-4.188-1.387a51.093,51.093,0,0,1-8.378-4.222,64.527,64.527,0,0,1-15.02-13.2,90.982,90.982,0,0,1-6.858-9.394c-.334-.519-.895-.326-.618.217.715,1.407,1.51,2.784,2.355,4.136-.749-1.077-1.485-2.161-2.193-3.261-.333-.519-.895-.327-.618.217,6.433,12.658,18.485,23.28,30,28.064a41.419,41.419,0,0,0,5.03,1.742,11.666,11.666,0,0,0,4.682.557c.462-.073.121-.794-.281-1.043a6.309,6.309,0,0,0,.737-.047C266.939,219.761,266.506,218.924,266.068,218.74Z" transform="translate(-224.111 -120.528)" fill="#fdcfaf" opacity="0.5"/>
                      <path id="Trazado_127676" data-name="Trazado 127676" d="M266.836,214.482a36.043,36.043,0,0,0-4.274-1.281c-1.391-.392-2.784-.843-4.188-1.387A50.907,50.907,0,0,1,250,207.591a64.546,64.546,0,0,1-15.019-13.2,90.872,90.872,0,0,1-6.86-9.394c-.333-.519-.893-.326-.617.219,6.432,12.658,18.484,23.28,30,28.064a41.48,41.48,0,0,0,5.03,1.742,11.66,11.66,0,0,0,4.681.557C267.709,215.5,267.276,214.664,266.836,214.482Z" transform="translate(-223.888 -121.301)" fill="#fdcfaf"/>
                      <path id="Trazado_127677" data-name="Trazado 127677" d="M267.733,209.062a36.111,36.111,0,0,0-4.274-1.281c-1.391-.392-2.784-.841-4.188-1.387a50.917,50.917,0,0,1-8.379-4.222,64.523,64.523,0,0,1-15.019-13.2,91,91,0,0,1-6.86-9.393c-.333-.519-.893-.327-.617.217.715,1.407,1.509,2.784,2.355,4.136-.75-1.078-1.487-2.162-2.193-3.263-.333-.519-.895-.326-.618.217,6.433,12.658,18.484,23.28,30,28.065a41.541,41.541,0,0,0,5.03,1.742,11.685,11.685,0,0,0,4.682.557c.461-.073.12-.8-.282-1.045a6.056,6.056,0,0,0,.737-.047C268.6,210.082,268.172,209.244,267.733,209.062Z" transform="translate(-223.809 -122.286)" fill="#fdcfaf" opacity="0.5"/>
                      <path id="Trazado_127678" data-name="Trazado 127678" d="M268.163,204.727a36.333,36.333,0,0,0-4.274-1.281c-1.391-.392-2.784-.841-4.188-1.387a50.916,50.916,0,0,1-8.379-4.222,64.516,64.516,0,0,1-15.019-13.2,91.132,91.132,0,0,1-6.86-9.394c-.333-.519-.893-.327-.617.217,6.432,12.658,18.484,23.28,30,28.064a41.333,41.333,0,0,0,5.029,1.742,11.669,11.669,0,0,0,4.682.557C269.036,205.748,268.6,204.909,268.163,204.727Z" transform="translate(-223.647 -123.073)" fill="#fdcfaf"/>
                      <path id="Trazado_127679" data-name="Trazado 127679" d="M269.06,199.308a36.318,36.318,0,0,0-4.274-1.28c-1.391-.393-2.784-.843-4.188-1.388a51,51,0,0,1-8.379-4.221,64.522,64.522,0,0,1-15.019-13.2,91.146,91.146,0,0,1-6.86-9.394c-.333-.519-.893-.326-.617.217.715,1.407,1.509,2.784,2.355,4.136-.75-1.077-1.487-2.163-2.193-3.263-.333-.519-.895-.326-.618.219,6.433,12.658,18.484,23.28,30,28.064a41.553,41.553,0,0,0,5.03,1.742,11.664,11.664,0,0,0,4.682.557c.461-.073.12-.794-.282-1.045a6.06,6.06,0,0,0,.737-.047C269.932,200.329,269.5,199.492,269.06,199.308Z" transform="translate(-223.567 -124.058)" fill="#fdcfaf" opacity="0.5"/>
                      <path id="Trazado_127680" data-name="Trazado 127680" d="M270.036,195.437a36.331,36.331,0,0,0-4.275-1.28c-1.39-.394-2.784-.843-4.188-1.388a50.992,50.992,0,0,1-8.378-4.221,64.529,64.529,0,0,1-15.02-13.2,90.988,90.988,0,0,1-6.858-9.394c-.334-.519-.895-.326-.618.217,6.433,12.658,18.484,23.28,30,28.065a41.549,41.549,0,0,0,5.03,1.742,11.684,11.684,0,0,0,4.682.557C270.907,196.458,270.474,195.621,270.036,195.437Z" transform="translate(-223.307 -124.761)" fill="#fdcfaf"/>
                      <path id="Trazado_127681" data-name="Trazado 127681" d="M270.931,190.02a36.043,36.043,0,0,0-4.274-1.281c-1.39-.392-2.784-.841-4.188-1.387a50.9,50.9,0,0,1-8.378-4.222,64.526,64.526,0,0,1-15.02-13.2,90.986,90.986,0,0,1-6.858-9.394c-.334-.519-.895-.326-.618.219.715,1.406,1.509,2.784,2.355,4.136-.75-1.078-1.485-2.162-2.193-3.263-.333-.519-.895-.326-.618.217,6.433,12.658,18.484,23.28,30,28.064a41.636,41.636,0,0,0,5.03,1.743,11.684,11.684,0,0,0,4.682.555c.462-.073.121-.794-.281-1.043a6.026,6.026,0,0,0,.736-.047C271.8,191.039,271.37,190.2,270.931,190.02Z" transform="translate(-223.227 -125.746)" fill="#fdcfaf" opacity="0.5"/>
                      <path id="Trazado_127682" data-name="Trazado 127682" d="M271.363,185.685a36.111,36.111,0,0,0-4.275-1.281c-1.39-.392-2.784-.841-4.188-1.387a50.9,50.9,0,0,1-8.378-4.222,64.528,64.528,0,0,1-15.02-13.2,90.965,90.965,0,0,1-6.858-9.393c-.334-.52-.895-.327-.618.217,6.433,12.658,18.484,23.28,30,28.064a41.552,41.552,0,0,0,5.03,1.742,11.663,11.663,0,0,0,4.682.557C272.234,186.7,271.8,185.867,271.363,185.685Z" transform="translate(-223.066 -126.533)" fill="#fdcfaf"/>
                      <path id="Trazado_127683" data-name="Trazado 127683" d="M272.258,180.265a36.257,36.257,0,0,0-4.274-1.281c-1.391-.392-2.784-.841-4.188-1.387a50.955,50.955,0,0,1-8.379-4.222,64.54,64.54,0,0,1-15.019-13.2,91.117,91.117,0,0,1-6.858-9.394c-.334-.519-.895-.327-.618.217.715,1.407,1.509,2.784,2.355,4.136-.75-1.076-1.485-2.162-2.193-3.263-.333-.519-.895-.326-.618.219,6.433,12.657,18.484,23.279,30,28.064a41.621,41.621,0,0,0,5.03,1.742,11.687,11.687,0,0,0,4.682.557c.462-.073.121-.794-.282-1.045a6.029,6.029,0,0,0,.737-.047C273.13,181.286,272.7,180.449,272.258,180.265Z" transform="translate(-222.986 -127.518)" fill="#fdcfaf" opacity="0.5"/>
                      <path id="Trazado_127684" data-name="Trazado 127684" d="M273.027,176.005a36.323,36.323,0,0,0-4.274-1.28c-1.391-.394-2.784-.843-4.188-1.388a51,51,0,0,1-8.379-4.221,64.521,64.521,0,0,1-15.019-13.2,91.119,91.119,0,0,1-6.86-9.394c-.333-.519-.893-.326-.617.217,6.432,12.658,18.484,23.28,30,28.065a41.74,41.74,0,0,0,5.029,1.742,11.667,11.667,0,0,0,4.682.555C273.9,177.026,273.467,176.189,273.027,176.005Z" transform="translate(-222.764 -128.292)" fill="#fdcfaf"/>
                      <path id="Trazado_127685" data-name="Trazado 127685" d="M273.924,170.586a36.322,36.322,0,0,0-4.274-1.28c-1.391-.393-2.784-.843-4.188-1.388a50.813,50.813,0,0,1-8.379-4.221,64.549,64.549,0,0,1-15.02-13.2,91.163,91.163,0,0,1-6.859-9.394c-.333-.519-.895-.326-.617.217.715,1.407,1.509,2.785,2.355,4.136-.75-1.077-1.487-2.161-2.193-3.261-.334-.519-.895-.327-.618.217,6.433,12.658,18.484,23.28,30,28.064a41.334,41.334,0,0,0,5.03,1.742,11.662,11.662,0,0,0,4.682.557c.461-.073.121-.794-.282-1.045a6.049,6.049,0,0,0,.737-.046C274.8,171.607,274.363,170.77,273.924,170.586Z" transform="translate(-222.684 -129.276)" fill="#fdcfaf" opacity="0.5"/>
                      <path id="Trazado_127686" data-name="Trazado 127686" d="M274.354,166.253a36.093,36.093,0,0,0-4.274-1.281c-1.391-.392-2.784-.841-4.188-1.387a50.911,50.911,0,0,1-8.379-4.222,64.523,64.523,0,0,1-15.019-13.2,90.884,90.884,0,0,1-6.86-9.394c-.333-.519-.893-.326-.617.219,6.432,12.658,18.484,23.28,30,28.064a41.619,41.619,0,0,0,5.03,1.742,11.667,11.667,0,0,0,4.682.557C275.227,167.272,274.794,166.435,274.354,166.253Z" transform="translate(-222.523 -130.064)" fill="#fdcfaf"/>
                      <path id="Trazado_127687" data-name="Trazado 127687" d="M275.251,160.833a36.321,36.321,0,0,0-4.274-1.281c-1.391-.392-2.784-.841-4.188-1.387a50.915,50.915,0,0,1-8.379-4.222,64.546,64.546,0,0,1-15.02-13.2,91.293,91.293,0,0,1-6.858-9.394c-.333-.519-.895-.327-.617.217.715,1.407,1.509,2.784,2.355,4.136-.75-1.078-1.487-2.162-2.193-3.263-.334-.519-.895-.326-.618.217,6.433,12.658,18.484,23.28,30,28.065a41.741,41.741,0,0,0,5.03,1.742,11.684,11.684,0,0,0,4.682.557c.461-.073.121-.8-.282-1.045a6.061,6.061,0,0,0,.737-.047C276.123,161.853,275.69,161.015,275.251,160.833Z" transform="translate(-222.443 -131.048)" fill="#fdcfaf" opacity="0.5"/>
                    </g>
                  </g>
                </g>
                <path id="Trazado_127689" data-name="Trazado 127689" d="M241.4,144.7a3.74,3.74,0,0,0,2.2,1.016c1.381.031,2.535-1.173,3.487-2.278.857-.995,1.773-2.152,1.7-3.441-.077-1.313-1.152-2.231-2.145-3-1.262-.973-2.765-1.993-4.346-1.544a6.062,6.062,0,0,0-2.76,2.291C236.875,141.044,238.754,142.543,241.4,144.7Z" transform="translate(-237.439 -135.351)" fill="#e80252"/>
              </g>
              <g id="Grupo_93364" data-name="Grupo 93364" transform="translate(28.592 44.244)">
                <path id="Trazado_127690" data-name="Trazado 127690" d="M232.078,184.233l-7.31.671a5.045,5.045,0,0,1-5.637-4.872l-.388-13.618a1.333,1.333,0,0,1,1.209-1.333l15.791-1.449a1.142,1.142,0,0,1,1.277,1.1l.388,13.618A5.875,5.875,0,0,1,232.078,184.233Z" transform="translate(-217.48 -161.826)" fill="#fff"/>
                <path id="Trazado_127691" data-name="Trazado 127691" d="M229.122,180.67c-5.552-1.872-8.357-9.581-8.406-15.871l-.762.07a1.333,1.333,0,0,0-1.209,1.333l.388,13.618a5.045,5.045,0,0,0,5.637,4.872l7.31-.671a5.875,5.875,0,0,0,5.331-5.879l-.121-4.228C236.115,179.284,233.248,182.062,229.122,180.67Z" transform="translate(-217.48 -161.613)" fill="#e6e9ff" opacity="0.6" style="mix-blend-mode: multiply;isolation: isolate"/>
                <path id="Trazado_127692" data-name="Trazado 127692" d="M217.891,167.737s16.232-.892,20.509-1.875l-.321-3.759a57.622,57.622,0,0,1-10.19,1.366c-6.555.4-10.216.4-10.216.4Z" transform="translate(-217.674 -162.103)" fill="#c8d3ff"/>
              </g>
            </g>
            <g id="Grupo_93370" data-name="Grupo 93370" transform="translate(0 8.85)">
              <g id="Grupo_93367" data-name="Grupo 93367" transform="translate(24.836 106.069)">
                <path id="Trazado_127693" data-name="Trazado 127693" d="M173.413,231.461a9.036,9.036,0,0,0-.548,5.028,11.419,11.419,0,0,0,2.43,4.544,14.108,14.108,0,0,0,3.512,3.374c3.009,1.863,6.8,1.721,10.33,1.516a.841.841,0,0,0,.643-.228.572.572,0,0,0-.155-.75,1.662,1.662,0,0,0-.791-.28,3.928,3.928,0,0,0,1.731.6,1.35,1.35,0,0,0,1.392-.971c.145-.844-.762-1.438-1.482-1.9a9.2,9.2,0,0,1-4.131-7.051c-.037-.585.115-1.336.689-1.443.607-.113,1.009.6,1.208,1.184q1.023,3.01,2.048,6.021a3.17,3.17,0,0,0,.578,1.152,1.081,1.081,0,0,0,1.169.341c.564-.241.65-.991.639-1.6a49.646,49.646,0,0,0-3.376-17.162,3.118,3.118,0,0,0-1.016-1.548,2.879,2.879,0,0,0-1.543-.365,14.132,14.132,0,0,0-8.659,2.764A14.475,14.475,0,0,0,173.413,231.461Z" transform="translate(-172.712 -221.911)" fill="#ff9681"/>
                <g id="Grupo_93366" data-name="Grupo 93366" clip-path="url(#clip-path-12)">
                  <path id="Trazado_127694" data-name="Trazado 127694" d="M182.136,238.959l3.853,5.845a6.529,6.529,0,0,1-4.255-1.462,19.489,19.489,0,0,1-3.178-3.305l1.686,3.382c-2.751-1.44-4.228-4.475-5.348-7.371-.34-.88-.632-1.973-.014-2.686a4.7,4.7,0,0,1,1.482-.84,6.269,6.269,0,0,0,1.866-1.781l6.109-7.713c.538-.677,1.1-1.6.652-2.34a2.047,2.047,0,0,0-1.979-.649,14.039,14.039,0,0,0-11.365,20.586c2.017,3.8,5.687,6.483,9.6,8.279a13.665,13.665,0,0,0,4.58,1.364A6.3,6.3,0,0,0,190.334,249a5.58,5.58,0,0,0,1.245-1.511c.372-.648.67-1.011.134-1.458-.93-.775-2.571-1.151-3.641-1.807A19.26,19.26,0,0,1,182.136,238.959Z" transform="translate(-173.197 -222.254)" fill="#ff9681" opacity="0.3" style="mix-blend-mode: multiply;isolation: isolate"/>
                </g>
              </g>
              <g id="Grupo_93369" data-name="Grupo 93369">
                <path id="Trazado_127696" data-name="Trazado 127696" d="M221.471,159.018c7.63-9.6,3.8-24.459-6.232-26.233-4.071-.72-7.055-1.793-12.819,3.016-4.091,4.954-49.706,44.762-50.53,48.905-2.505,12.59,19.848,56.9,20.34,59.624s18.767-3.2,20.91-6.727c-2.425-2.979-13.112-45.591-12.47-46.745S210.745,172.507,221.471,159.018Z" transform="translate(-151.694 -132.15)" fill="#fff"/>
                <g id="Grupo_93368" data-name="Grupo 93368" clip-path="url(#clip-path-13)">
                  <path id="Trazado_127697" data-name="Trazado 127697" d="M167.412,214.834c-3.9-9.553-6.352-20.379-2.979-30.133,2.155-6.235,6.482-11.439,10.72-16.492l30.62-36.5c-13.758,3.655-24.834,13.585-35.339,23.192-9.366,8.567-19.13,17.75-22.769,29.91-2.817,9.413-1.572,19.679,1.735,28.931s8.568,17.665,13.92,25.9c2,3.085,4.26,6.35,7.722,7.592,2.29.821,5.656.238,7.194-1.795,2.064-2.725-.143-6.333-1.231-9.139C174.169,228.992,170.379,222.094,167.412,214.834Z" transform="translate(-152.71 -132.23)" fill="#e6e9ff" opacity="0.6" style="mix-blend-mode: multiply;isolation: isolate"/>
                </g>
              </g>
              <path id="Trazado_127699" data-name="Trazado 127699" d="M190.673,217.446A28.6,28.6,0,0,1,193.056,225a57.319,57.319,0,0,1-18.474,7.09,7.358,7.358,0,0,1-4.213-.063,5.789,5.789,0,0,1-2.936-3.6c-.2-.533-.826-1.88-.631-2.438.282-.808,1.635-.948,2.392-1.206l13.73-4.69Z" transform="translate(-148.956 -116.654)" fill="#e6e9ff"/>
              <path id="Trazado_127700" data-name="Trazado 127700" d="M213.961,156.882a.158.158,0,0,0-.167-.267,67.206,67.206,0,0,0-7.185,4.737q-1.749,1.255-3.462,2.561a27.664,27.664,0,0,0-3.181,2.571.171.171,0,0,0,.214.262,16.477,16.477,0,0,0,1.638-1.13c.739-.325,1.456-.707,2.184-1.049q1.4-.659,2.846-1.218c1.9-.735,3.865-1.276,5.8-1.925.155-.052.129-.325-.048-.3a27.111,27.111,0,0,0-5.9,1.726q-1.4.553-2.766,1.2l-.2.1q1.638-1.211,3.295-2.4C209.318,160.113,211.722,158.6,213.961,156.882Z" transform="translate(-142.933 -127.71)" fill="#c8d3ff"/>
            </g>
          </g>
          <g id="Grupo_93383" data-name="Grupo 93383" transform="translate(84.237)">
            <g id="Grupo_93372" data-name="Grupo 93372" transform="translate(8.356 64.326)">
              <path id="Trazado_127701" data-name="Trazado 127701" d="M250.53,135c.007-.021.018-.04.024-.06l1.417-4.743.013,0,.559-1.907,2.14-7.129-21.071-4.2-.51,1.713-.656,2.194-1.856,6.183-.536,1.786C229.859,138.5,247.467,140.853,250.53,135Z" transform="translate(-230.051 -116.964)" fill="#ff9681"/>
              <path id="Trazado_127702" data-name="Trazado 127702" d="M250.935,132.108l3.278-10.939-21.071-4.206-.513,1.709C233.837,123.926,244.065,131.389,250.935,132.108Z" transform="translate(-229.582 -116.964)" fill="#b82513" opacity="0.5"/>
            </g>
            <g id="Grupo_93382" data-name="Grupo 93382">
              <path id="Trazado_127703" data-name="Trazado 127703" d="M279.057,89.865c-.233-.949-.778-2.054-1.754-2.073-.811-.017-1.4.746-1.793,1.453-2.258,4.06-2.746,8.835-3.189,13.461a5.3,5.3,0,0,0,.044,1.879c.925,3.454,4.242-1.687,4.939-2.91a16.657,16.657,0,0,0,2.165-7.416A15.312,15.312,0,0,0,279.057,89.865Z" transform="translate(-214.026 -57.938)" fill="#210b69"/>
              <g id="Grupo_93374" data-name="Grupo 93374" transform="translate(5.514 7.582)">
                <path id="Trazado_127704" data-name="Trazado 127704" d="M227.771,111.709a47.9,47.9,0,0,0,.782,6.021c1.144,5.89,4.6,9.959,9.217,13.048a49.382,49.382,0,0,0,9.178,4.631,29.509,29.509,0,0,0,11.295,2.266c6.437-.235,11.716-3.876,16.937-12.291.156-.255.316-.519.47-.792l0-.008c5.542-9.3,12.854-25.359,8.368-36.851-5.745-17.393-28.071-24.579-42.8-13.494C231.262,82.056,226.821,97.85,227.771,111.709Z" transform="translate(-227.646 -68.945)" fill="#ff9681"/>
                <g id="Grupo_93373" data-name="Grupo 93373" clip-path="url(#clip-path-14)">
                  <path id="Trazado_127705" data-name="Trazado 127705" d="M237.784,126.967c-2.736-3.858-4.557-8.254-4.393-12.583,0-.08.019-.158.024-.239a33.46,33.46,0,0,1,1.5-10.867c2.867-8.8,9.533-17.144,18.028-21.277,10.667-5.19,21.716-.885,32.416,3.037a49.927,49.927,0,0,1,7.381,3.29,9.528,9.528,0,0,0,3.276-6.239c.31-4.116-2.565-8.278-6.46-11.049s-8.7-4.356-13.465-5.593a77.195,77.195,0,0,0-22.926-2.806c-7.627.37-15.1,2.412-20.743,6.471-6.531,4.7-10.19,11.77-11.988,19.056-2.187,8.863-1.8,18.534,2.569,27.258,3.068,6.123,7.969,11.572,13.413,16.463a48.235,48.235,0,0,0,11.194,7.9,28.143,28.143,0,0,0,6.681,2.263c1.71.34,5.249,1.038,6.642.16-4.65-1.645-8.976-3.045-13.1-5.735A37.3,37.3,0,0,1,237.784,126.967Z" transform="translate(-229.194 -70.102)" fill="#ff9681" opacity="0.3" style="mix-blend-mode: multiply;isolation: isolate"/>
                  <path id="Trazado_127706" data-name="Trazado 127706" d="M263.55,108.281a3.412,3.412,0,0,0,3.464,4.941.378.378,0,0,0,.236-.091.276.276,0,0,0-.025-.357.921.921,0,0,0-.331-.206,4.526,4.526,0,0,1-2.508-3.078c-.047-.21-.106-.458-.306-.536a.421.421,0,0,0-.448.141,1.212,1.212,0,0,0-.219.444" transform="translate(-221.189 -61.798)" fill="#ff9681" opacity="0.3" style="mix-blend-mode: multiply;isolation: isolate"/>
                  <path id="Trazado_127707" data-name="Trazado 127707" d="M244.934,103.439c-.915-.3-2.112-1.438-1.865-1.81s1.481.2,2.2.377a7.047,7.047,0,0,0,2.642,0c.525-.061,1.167-.147,1.172.471C249.094,103.723,245.8,103.723,244.934,103.439Z" transform="translate(-224.85 -63.029)" fill="#ff9681" opacity="0.3" style="mix-blend-mode: multiply;isolation: isolate"/>
                  <path id="Trazado_127708" data-name="Trazado 127708" d="M232.483,104.483c-1.621,5.5.447,12.063,4.831,15.328,1.68,1.251,3.915,2.031,5.724,1.039,5.1-2.8,3.708-12.824.754-17.5C240.285,97.805,234.22,98.59,232.483,104.483Z" transform="translate(-226.867 -63.375)" fill="#ff025a" opacity="0.07" style="mix-blend-mode: multiply;isolation: isolate"/>
                  <path id="Trazado_127709" data-name="Trazado 127709" d="M275.633,120.656c-1.742,5.463-7.134,9.736-12.594,9.982-2.094.095-4.38-.513-5.322-2.35-2.653-5.178,4.122-12.7,9.188-14.909C272.918,110.751,277.5,114.8,275.633,120.656Z" transform="translate(-222.291 -61.02)" fill="#ff025a" opacity="0.07" style="mix-blend-mode: multiply;isolation: isolate"/>
                </g>
              </g>
              <path id="Trazado_127711" data-name="Trazado 127711" d="M249.051,96.282a10.052,10.052,0,0,0,3.668.535,9.105,9.105,0,0,0,3.531-.835,5.651,5.651,0,0,0,3.029-2.753,1.423,1.423,0,0,0-.331-1.537,1.507,1.507,0,0,0-1.457-.369,4.741,4.741,0,0,0-1.2.548c-.095.056-.189.111-.285.163a8.115,8.115,0,0,1-1.081.477,6.975,6.975,0,0,1-4.716.032,6.843,6.843,0,0,1-.681-.287,4.247,4.247,0,0,0-2.639-.551,1.571,1.571,0,0,0-.234.07,1.485,1.485,0,0,0-.683.535,1.565,1.565,0,0,0-.222,1.27C246.193,95.288,248.344,96.036,249.051,96.282Z" transform="translate(-218.851 -57.307)" fill="#210b69"/>
              <path id="Trazado_127712" data-name="Trazado 127712" d="M265.663,100.407a9.573,9.573,0,0,0,3.446,5.15h0c.493.365,1.992,1.476,3.173.911a1.147,1.147,0,0,0,.6-.8,1.468,1.468,0,0,0-.044-.748,1.729,1.729,0,0,0-.077-.2,3.822,3.822,0,0,0-1.634-1.552c-.18-.109-.355-.213-.5-.325a6.551,6.551,0,0,1-1.411-1.444,7.2,7.2,0,0,1-.938-1.846,8.26,8.26,0,0,1-.275-.993c-.019-.092-.035-.186-.051-.279a4.985,4.985,0,0,0-.3-1.114,1.323,1.323,0,0,0-.937-.824.93.93,0,0,0-1.029.554A5.485,5.485,0,0,0,265.663,100.407Z" transform="translate(-215.277 -56.387)" fill="#210b69"/>
              <g id="Grupo_93377" data-name="Grupo 93377" transform="translate(27.061 42.087)">
                <g id="Grupo_93375" data-name="Grupo 93375" transform="translate(20.664 9.519)">
                  <path id="Trazado_127713" data-name="Trazado 127713" d="M266.3,109.139c-.571,1.262-1.609,2.024-2.318,1.7s-.823-1.6-.251-2.866,1.608-2.024,2.318-1.7S266.872,107.877,266.3,109.139Z" transform="translate(-263.367 -106.2)"/>
                </g>
                <g id="Grupo_93376" data-name="Grupo 93376">
                  <path id="Trazado_127714" data-name="Trazado 127714" d="M249.424,101.493c-.564,1.463-1.749,2.368-2.646,2.023s-1.168-1.813-.6-3.276,1.749-2.368,2.646-2.022S249.989,100.03,249.424,101.493Z" transform="translate(-245.88 -98.145)"/>
                </g>
              </g>
              <path id="Trazado_127715" data-name="Trazado 127715" d="M257.86,108.61a3.833,3.833,0,0,1,.266-1.216q.14-.516.292-1.026c.226-.756.471-1.508.723-2.256a7.161,7.161,0,0,0,.559-2.218.211.211,0,0,0-.359-.137,8.892,8.892,0,0,0-1.642,3.582q-.321,1.016-.591,2.049a2.775,2.775,0,0,0-.105,1.8,2.7,2.7,0,0,0,.861.971,1.376,1.376,0,0,1,.559,1.639,3.981,3.981,0,0,1-2.453,2.512.239.239,0,0,0,.139.456,4.107,4.107,0,0,0,2.678-1.771,2.608,2.608,0,0,0,.142-3.175C258.608,109.455,257.908,109.139,257.86,108.61Z" transform="translate(-217.016 -55.412)" fill="#b82513"/>
              <path id="Trazado_127716" data-name="Trazado 127716" d="M257.761,117.289a8.868,8.868,0,0,0-4.468-3.861,15.99,15.99,0,0,0-6.89-1.336.16.16,0,0,0-.033.314c2.089.746,4.337.96,6.4,1.8a11.394,11.394,0,0,1,4.623,3.311A.216.216,0,0,0,257.761,117.289Z" transform="translate(-218.751 -53.526)" fill="#b82513"/>
              <g id="Grupo_93379" data-name="Grupo 93379" transform="translate(4.211)">
                <path id="Trazado_127717" data-name="Trazado 127717" d="M288.871,84.039a2.667,2.667,0,0,0,2.457-2.847A4.756,4.756,0,0,0,289.1,78a14.025,14.025,0,0,0-7.493-2.561c-.431-.087-.872-.174-1.331-.256,2.737-4.1-8.23-4.536-14.425-8.018s-14.148-5.326-16.724-4.407-2.018,1.361-2.266,1.715c-.149-.051-2.309-3.485-9.046.5-6.222,3.68-9.876,17.392-11.273,27.519,0,0,6.837,1.76,8.137,2.529s-2.666,8.662.69,10.22,3.952-12.073,9.864-15.349c8.04,1.591,6.362-6.48,12.379-8.345a9.769,9.769,0,0,1,2.694-.171,17.309,17.309,0,0,1,2.48.181,16.219,16.219,0,0,1,4.194,1.227,49.441,49.441,0,0,1,6.925,4.256c.552.363,1.145.772,1.764,1.158a7.839,7.839,0,0,0,.367.863,8.33,8.33,0,0,0,4.345,3.9,3,3,0,0,0,2.187.177l.006,0a6.009,6.009,0,0,0,.456.863c1.338,2.03,7.084,5.348,10.126,1.315S292.112,86.033,288.871,84.039Z" transform="translate(-226.543 -62.528)" fill="#210b69"/>
                <g id="Grupo_93378" data-name="Grupo 93378" clip-path="url(#clip-path-15)">
                  <path id="Trazado_127718" data-name="Trazado 127718" d="M228.444,77.41a1.946,1.946,0,0,0,1.054,1.52c1.468.655,3-1.123,4.6-.961a2.969,2.969,0,0,1,2.279,2.691c.188,1.253-.064,2.532.032,3.8A3.323,3.323,0,0,0,238.3,87.5a3.735,3.735,0,0,0,2.079-.073,15.331,15.331,0,0,0,9.374-7.069c.671-1.156,1.138-2.757.213-3.722-1.1-1.146-3.3-.449-4.375-1.613-1.223-1.321.131-3.671-.825-5.2-.684-1.091-2.2-1.23-3.487-1.149s-2.725.22-3.715-.605c-.793-.661-1.091-1.8-1.933-2.4a2.781,2.781,0,0,0-2.732-.092,7.483,7.483,0,0,0-2.209,1.795,11.6,11.6,0,0,0-2.629,3.793,4.976,4.976,0,0,0-.125,3.215c.143.43.59.864.668,1.283C228.706,76.221,228.361,76.819,228.444,77.41Z" transform="translate(-226.328 -62.03)" fill="#210b69" style="mix-blend-mode: screen;isolation: isolate"/>
                  <path id="Trazado_127719" data-name="Trazado 127719" d="M259.823,76a3.613,3.613,0,0,0-2.283-.82c-.818-.129-1.755-.493-1.936-1.3-.144-.638.261-1.306.115-1.943a1.842,1.842,0,0,0-1.464-1.192,15.288,15.288,0,0,1-1.95-.385,1.5,1.5,0,0,1-1.082-1.484c.191-1.182,2.271-1.516,2.112-2.7-.083-.616-.759-.941-1.347-1.14a36.565,36.565,0,0,0-4.285-1.171,2.419,2.419,0,0,0-2.024.2c-.789.639-.512,1.892-.113,2.825a29,29,0,0,0,5.638,8.571c1.624,1.709,4.1,5.054,6.8,4.072C259.269,79.065,261.064,77.416,259.823,76Z" transform="translate(-223.158 -62.309)" fill="#210b69" style="mix-blend-mode: screen;isolation: isolate"/>
                </g>
              </g>
              <g id="Grupo_93380" data-name="Grupo 93380" transform="translate(23.033 19.844)">
                <path id="Trazado_127721" data-name="Trazado 127721" d="M247.748,79.321s-2.935,5.852.226,5.762S247.748,79.321,247.748,79.321Z" transform="translate(-241.738 -79.321)" fill="#fff"/>
                <path id="Trazado_127722" data-name="Trazado 127722" d="M243.711,83.957s-2.934,5.852.227,5.762S243.711,83.957,243.711,83.957Z" transform="translate(-242.471 -78.479)" fill="#fff"/>
              </g>
              <g id="Grupo_93381" data-name="Grupo 93381" transform="translate(0 27.575)">
                <path id="Trazado_127723" data-name="Trazado 127723" d="M232.025,102.454c-1.64,2.292-5.561,1.942-7.688-1.392s-1.867-11.049,1.592-14.076,8.032.477,8.45,5.68A16.6,16.6,0,0,1,232.025,102.454Z" transform="translate(-222.98 -85.864)" fill="#ff9681"/>
                <path id="Trazado_127724" data-name="Trazado 127724" d="M232.025,102.454c-1.64,2.292-5.561,1.942-7.688-1.392s-1.867-11.049,1.592-14.076,8.032.477,8.45,5.68A16.6,16.6,0,0,1,232.025,102.454Z" transform="translate(-222.98 -85.864)" fill="#ff9681" opacity="0.3" style="mix-blend-mode: multiply;isolation: isolate"/>
                <path id="Trazado_127725" data-name="Trazado 127725" d="M226.629,89.624a.285.285,0,0,1,.24-.388c.757.045,1.354.82,1.791,1.424a7.931,7.931,0,0,1,1.138,2.249,8.5,8.5,0,0,1-.045,5.358c-.117.325-.59.265-.535-.1a10.391,10.391,0,0,0-.245-4.845c-.069-.207-.161-.4-.245-.593-.082.06-.17.11-.251.164-.144.1-.292.191-.435.292a7.443,7.443,0,0,0-.828.687c-.536.5-.974,1.132-1.54,1.592-.106.085-.3.034-.269-.143a4.031,4.031,0,0,1,1.342-2.076,7.2,7.2,0,0,1,.96-.747,3.685,3.685,0,0,1,.5-.287c.078-.037.157-.073.235-.1a6.947,6.947,0,0,0-.469-.778A9.289,9.289,0,0,1,226.629,89.624Z" transform="translate(-222.54 -85.251)" fill="#b82513"/>
              </g>
            </g>
          </g>
        </g>
        <g id="Grupo_93406" data-name="Grupo 93406" transform="translate(78.334 73.556)">
          <g id="Grupo_93391" data-name="Grupo 93391" transform="translate(-31 -5)">
            <g id="Grupo_93386" data-name="Grupo 93386" transform="translate(0 14.227)">
              <path id="Trazado_127726" data-name="Trazado 127726" d="M109.843,107.963a13.349,13.349,0,0,0-6.651-1.058,12.878,12.878,0,0,0-8.227,5.072,28.156,28.156,0,0,0-4.31,8.869,4.782,4.782,0,0,0-.321,1.741,1.7,1.7,0,0,0,.871,1.456,2.4,2.4,0,0,0,2.242-.526,17.772,17.772,0,0,0,4.923-5,18.094,18.094,0,0,0-.881,6.909,2.277,2.277,0,0,0,1.171,1.968c.956.352,1.906-.5,2.535-1.3a29.842,29.842,0,0,0,4.385-7.738,8.836,8.836,0,0,0-.173,2.972,2.992,2.992,0,0,0,1.665,2.329c1.378.555,2.892-.376,3.974-1.393a17.918,17.918,0,0,0,4.586-7.012c.493-1.382.756-3.366-.5-4.416A20.613,20.613,0,0,0,109.843,107.963Z" transform="translate(-90.328 -106.822)" fill="#ffe8cc"/>
              <g id="Grupo_93385" data-name="Grupo 93385" clip-path="url(#clip-path-16)">
                <path id="Trazado_127727" data-name="Trazado 127727" d="M110.555,125.761a5.362,5.362,0,0,1-4.708-4.433,34.5,34.5,0,0,1-5.758,5.952c-.7.567-1.669,1.127-2.437.658-.731-.446-.725-1.506-.522-2.338a3.531,3.531,0,0,0,.1-2.5,3.769,3.769,0,1,1-6.531-3.244c-2.651,4.4-2.321,10.6,1.3,14.253a12.722,12.722,0,0,0,11,3.168,21.676,21.676,0,0,0,10.464-5.329,11.981,11.981,0,0,0,3.5-4.424c.418-1.052.975-5.681-1.221-4.615-.755.366-1.3,1.62-2.119,2.11A5.188,5.188,0,0,1,110.555,125.761Z" transform="translate(-89.843 -111.432)" fill="#ffe8cc" opacity="0.86" style="mix-blend-mode: multiply;isolation: isolate"/>
              </g>
            </g>
            <g id="Grupo_93388" data-name="Grupo 93388" transform="translate(40.652)">
              <path id="Trazado_127729" data-name="Trazado 127729" d="M154.671,93.148a13.349,13.349,0,0,1,3.7-5.629,12.876,12.876,0,0,1,9.289-2.664,28.142,28.142,0,0,1,9.459,2.788,4.771,4.771,0,0,1,1.5.935,1.7,1.7,0,0,1,.49,1.624c-.24.768-1.118,1.114-1.9,1.3a17.767,17.767,0,0,1-7.013.269,18.1,18.1,0,0,1,5.7,4,2.278,2.278,0,0,1,.666,2.191c-.384.944-1.653,1.072-2.669,1a29.854,29.854,0,0,1-8.673-1.971,8.824,8.824,0,0,1,2.313,1.874,2.992,2.992,0,0,1,.6,2.8c-.518,1.392-2.225,1.885-3.707,2a17.913,17.913,0,0,1-8.271-1.333c-1.353-.567-3-1.709-2.93-3.342A20.61,20.61,0,0,1,154.671,93.148Z" transform="translate(-153.225 -84.811)" fill="#ffe8cc"/>
              <g id="Grupo_93387" data-name="Grupo 93387" clip-path="url(#clip-path-17)">
                <path id="Trazado_127730" data-name="Trazado 127730" d="M165.843,102.616a5.361,5.361,0,0,0-.105-6.465,34.486,34.486,0,0,0,8.278-.246c.89-.135,1.956-.474,2.128-1.358.162-.841-.624-1.551-1.377-1.96s-1.636-.8-1.915-1.613a3.769,3.769,0,1,0,2-7.012c5.038,1.005,9.4,5.427,9.662,10.559a12.725,12.725,0,0,1-5.07,10.266,21.681,21.681,0,0,1-10.987,4.144,11.978,11.978,0,0,1-5.629-.391c-1.059-.4-4.856-3.106-2.589-4.011.779-.312,2.071.131,2.987-.145A5.182,5.182,0,0,0,165.843,102.616Z" transform="translate(-155.455 -84.51)" fill="#ffe8cc" opacity="0.86" style="mix-blend-mode: multiply;isolation: isolate"/>
              </g>
            </g>
            <g id="Grupo_93390" data-name="Grupo 93390" transform="translate(17.335 2.704)">
              <circle id="Elipse_5144" data-name="Elipse 5144" cx="13.425" cy="13.425" r="13.425" transform="translate(0 24.192) rotate(-64.285)" fill="#ffde4b"/>
              <path id="Trazado_127732" data-name="Trazado 127732" d="M150.67,116.817a13.425,13.425,0,1,1-25.652-7.618,13.427,13.427,0,0,0,25.652,7.618Z" transform="translate(-119.607 -96.14)" fill="#fda928" opacity="0.12" style="mix-blend-mode: multiply;isolation: isolate"/>
              <path id="Trazado_127733" data-name="Trazado 127733" d="M149.033,107.336a10.578,10.578,0,1,1-13.544-6.352A10.578,10.578,0,0,1,149.033,107.336Z" transform="translate(-121.165 -93.011)" fill="#fda928"/>
              <g id="Grupo_93389" data-name="Grupo 93389" transform="translate(9.253 7.383)" opacity="0.4" style="mix-blend-mode: overlay;isolation: isolate">
                <path id="Trazado_127734" data-name="Trazado 127734" d="M139.824,107.12c1.219-2.045,2.41-4.135,3.653-6.191a10.593,10.593,0,0,0-2.439-.512c-3.07,5.59-6,11.348-9.575,16.6a10.534,10.534,0,0,0,1.7,1.892C135.57,115.1,137.518,110.989,139.824,107.12Z" transform="translate(-131.464 -100.417)" fill="#ffde4b"/>
                <path id="Trazado_127735" data-name="Trazado 127735" d="M145.847,107.378q1.079-2.035,2.183-4.057a10.642,10.642,0,0,0-2.437-1.52c-1.467,2.374-2.993,4.718-4.416,7.1-2.151,3.594-4.032,7.417-6.514,10.8a10.658,10.658,0,0,0,4.351,2.073A118.567,118.567,0,0,1,145.847,107.378Z" transform="translate(-132.595 -100.906)" fill="#ffde4b"/>
                <path id="Trazado_127736" data-name="Trazado 127736" d="M146.981,121.346c1.525-3.244,3.459-6.377,5.087-9.509.594-1.143,1.176-2.319,1.783-3.487-.167-.305-.345-.6-.539-.885q-1.186,2.159-2.357,4.325c-1.419,2.625-2.817,5.269-4.3,7.86a34.12,34.12,0,0,1-2.6,4.361,10.453,10.453,0,0,0,1.673-.056A21.323,21.323,0,0,1,146.981,121.346Z" transform="translate(-135.92 -102.91)" fill="#ffde4b"/>
              </g>
              <path id="Trazado_127737" data-name="Trazado 127737" d="M145.646,120.1a1.5,1.5,0,0,1-1.9-.844l-.024-.058a4.445,4.445,0,0,1-4.221-1.879,1.507,1.507,0,0,1,.425-2.085,1.533,1.533,0,0,1,.319-.16,1.5,1.5,0,0,1,1.766.584,1.109,1.109,0,0,0,.413.372l-1.136-2.77a7.109,7.109,0,0,1-1.574-.218c-2.2-.559-2.8-2.925-2.656-4.286a4.275,4.275,0,0,1,1.339-2.547l-.054-.131a1.5,1.5,0,0,1,.822-1.962c.016-.007.043-.017.069-.027a1.5,1.5,0,0,1,1.893.849l.034.082a4.9,4.9,0,0,1,2.882.693A1.5,1.5,0,0,1,142.5,108.3l.795,1.938a6.066,6.066,0,0,1,1.32.233,4.231,4.231,0,0,1,3.194,3.6,4.581,4.581,0,0,1-1.342,3.9l.058.142a1.5,1.5,0,0,1-.821,1.963Z" transform="translate(-124.182 -94.301)" fill="#fda928" opacity="0.5" style="mix-blend-mode: multiply;isolation: isolate"/>
              <path id="Trazado_127738" data-name="Trazado 127738" d="M144.818,111.6a5.54,5.54,0,0,0-1.62-.218l-1.518-3.7a2.684,2.684,0,0,1,1.609.375.752.752,0,1,0,.776-1.289,4.165,4.165,0,0,0-2.97-.514l-.254-.62a.752.752,0,1,0-1.392.571l.263.642a3.6,3.6,0,0,0-1.5,2.4c-.115,1.11.352,3.036,2.093,3.479a6.706,6.706,0,0,0,1.893.195l1.816,4.428a2.242,2.242,0,0,1-2.225-.863.752.752,0,0,0-1.255.83,3.8,3.8,0,0,0,4.063,1.457l.25.61a.752.752,0,0,0,.951.422l.03-.012a.752.752,0,0,0,.41-.981l-.265-.646a3.8,3.8,0,0,0,1.5-3.568A3.482,3.482,0,0,0,144.818,111.6Zm-4.14-.338c-.845-.215-1.018-1.372-.967-1.867a1.982,1.982,0,0,1,.6-1.1l1.274,3.106A4.737,4.737,0,0,1,140.678,111.263Zm5.314,3.561a2.282,2.282,0,0,1-.617,1.87l-1.545-3.768a3.809,3.809,0,0,1,.565.119A2.009,2.009,0,0,1,145.992,114.824Z" transform="translate(-124.593 -94.713)" fill="#ffde4b"/>
            </g>
          </g>
          <g id="Grupo_93398" data-name="Grupo 93398" transform="translate(203.257 19.274)">
            <g id="Grupo_93393" data-name="Grupo 93393">
              <path id="Trazado_127739" data-name="Trazado 127739" d="M364.759,157.559a12.233,12.233,0,0,0,.378-6.16,11.8,11.8,0,0,0-5.353-7.055,25.8,25.8,0,0,0-8.471-3.148,4.391,4.391,0,0,0-1.616-.14,1.558,1.558,0,0,0-1.251.923,2.2,2.2,0,0,0,.678,2,16.28,16.28,0,0,0,5,4.048,16.581,16.581,0,0,0-6.38-.193c-.717.167-1.506.529-1.692,1.242-.237.9.624,1.695,1.411,2.2a27.353,27.353,0,0,0,7.446,3.316,8.1,8.1,0,0,0-2.726.1,2.746,2.746,0,0,0-1.978,1.725c-.384,1.306.6,2.6,1.622,3.5a16.429,16.429,0,0,0,6.8,3.563c1.3.327,3.137.392,3.985-.843A18.868,18.868,0,0,0,364.759,157.559Z" transform="translate(-346.011 -141.024)" fill="#ffe8cc"/>
              <g id="Grupo_93392" data-name="Grupo 93392" clip-path="url(#clip-path-18)">
                <path id="Trazado_127740" data-name="Trazado 127740" d="M350.22,159.314a4.914,4.914,0,0,1,3.627-4.687,31.57,31.57,0,0,1-5.939-4.726c-.578-.588-1.175-1.423-.815-2.165.343-.706,1.309-.795,2.086-.682a3.239,3.239,0,0,0,2.291-.133,3.454,3.454,0,1,1,2.382-6.244c-4.248-2.029-9.878-1.18-12.886,2.442a11.66,11.66,0,0,0-1.918,10.316,19.873,19.873,0,0,0,5.785,9.073,10.983,10.983,0,0,0,4.345,2.8c1,.289,5.268.387,4.1-1.521-.4-.656-1.592-1.041-2.112-1.746A4.753,4.753,0,0,1,350.22,159.314Z" transform="translate(-343.396 -140.521)" fill="#ffe8cc" opacity="0.86" style="mix-blend-mode: multiply;isolation: isolate"/>
              </g>
            </g>
            <g id="Grupo_93395" data-name="Grupo 93395" transform="translate(24.716 18.771)">
              <path id="Trazado_127742" data-name="Trazado 127742" d="M387.054,175.043a12.227,12.227,0,0,1,4.639-4.07,11.8,11.8,0,0,1,8.855-.088,25.809,25.809,0,0,1,7.676,4.77,4.376,4.376,0,0,1,1.1,1.192,1.555,1.555,0,0,1,.036,1.554,2.2,2.2,0,0,1-2,.688,16.283,16.283,0,0,1-6.261-1.474,16.582,16.582,0,0,1,4.059,4.926,2.089,2.089,0,0,1,.054,2.1c-.569.741-1.722.544-2.6.23a27.368,27.368,0,0,1-7.181-3.857,8.1,8.1,0,0,1,1.587,2.219,2.745,2.745,0,0,1-.153,2.62c-.8,1.1-2.426,1.122-3.762.862a16.415,16.415,0,0,1-6.981-3.2c-1.057-.831-2.23-2.241-1.774-3.667A18.9,18.9,0,0,1,387.054,175.043Z" transform="translate(-384.251 -170.067)" fill="#ffe8cc"/>
              <g id="Grupo_93394" data-name="Grupo 93394" clip-path="url(#clip-path-19)">
                <path id="Trazado_127743" data-name="Trazado 127743" d="M393.687,186.677a4.914,4.914,0,0,0,1.484-5.738,31.619,31.619,0,0,0,7.373,1.8c.819.1,1.844.058,2.21-.681.349-.7-.173-1.522-.737-2.068s-1.249-1.108-1.3-1.892A3.454,3.454,0,1,0,406.2,172.4c4.206,2.117,6.982,7.088,5.96,11.684a11.662,11.662,0,0,1-6.983,7.832,19.865,19.865,0,0,1-10.716.981,10.983,10.983,0,0,1-4.877-1.719c-.838-.611-3.532-3.928-1.309-4.175.764-.085,1.8.622,2.673.6A4.752,4.752,0,0,0,393.687,186.677Z" transform="translate(-385.369 -170.89)" fill="#ffe8cc" opacity="0.86" style="mix-blend-mode: multiply;isolation: isolate"/>
              </g>
            </g>
            <g id="Grupo_93397" data-name="Grupo 93397" transform="translate(3.844 13.982)">
              <circle id="Elipse_5145" data-name="Elipse 5145" cx="12.303" cy="12.303" r="12.303" transform="translate(0 6.736) rotate(-15.888)" fill="#ffde4b"/>
              <path id="Trazado_127745" data-name="Trazado 127745" d="M374.7,190.6a12.3,12.3,0,1,1-10.074-22.357A12.3,12.3,0,0,0,374.7,190.6Z" transform="translate(-353.544 -164.633)" fill="#fda928" opacity="0.12" style="mix-blend-mode: multiply;isolation: isolate"/>
              <path id="Trazado_127746" data-name="Trazado 127746" d="M378.624,185.619a9.693,9.693,0,1,1-3.7-13.2A9.694,9.694,0,0,1,378.624,185.619Z" transform="translate(-354.972 -165.67)" fill="#fda928"/>
              <g id="Grupo_93396" data-name="Grupo 93396" transform="translate(5.509 9.52)" opacity="0.4" style="mix-blend-mode: overlay;isolation: isolate">
                <path id="Trazado_127747" data-name="Trazado 127747" d="M372.651,180.558c2.149-.378,4.312-.8,6.483-1.172a9.726,9.726,0,0,0-1.1-2c-5.716,1.217-11.464,2.633-17.251,3.3a9.66,9.66,0,0,0-.3,2.312C364.567,182.384,368.586,181.275,372.651,180.558Z" transform="translate(-360.483 -177.387)" fill="#ffde4b"/>
                <path id="Trazado_127748" data-name="Trazado 127748" d="M375.747,185.4q2.058-.469,4.122-.915a9.754,9.754,0,0,0-.4-2.6c-2.525.4-5.065.748-7.567,1.185-3.781.66-7.56,1.644-11.394,1.949a9.756,9.756,0,0,0,1.167,4.26A108.624,108.624,0,0,1,375.747,185.4Z" transform="translate(-360.49 -178.979)" fill="#ffde4b"/>
                <path id="Trazado_127749" data-name="Trazado 127749" d="M367.25,193.916c3.164-.884,6.5-1.418,9.643-2.164,1.149-.272,2.313-.573,3.487-.851.111-.3.211-.6.291-.9q-2.208.47-4.412.955c-2.671.587-5.342,1.2-8.025,1.726a31.374,31.374,0,0,1-4.579.811,9.549,9.549,0,0,0,1.04,1.127A19.587,19.587,0,0,1,367.25,193.916Z" transform="translate(-361.605 -181.847)" fill="#ffde4b"/>
              </g>
              <path id="Trazado_127750" data-name="Trazado 127750" d="M369.273,189.495a1.375,1.375,0,0,1-.553-1.825l.026-.052a4.072,4.072,0,0,1-1.224-4.053,1.38,1.38,0,0,1,1.7-.954,1.41,1.41,0,0,1,.3.125,1.374,1.374,0,0,1,.652,1.574,1.03,1.03,0,0,0-.011.51l1.242-2.447a6.46,6.46,0,0,1-.791-1.222c-.929-1.86.355-3.691,1.382-4.408a3.919,3.919,0,0,1,2.569-.6l.059-.116a1.378,1.378,0,0,1,1.853-.6c.014.007.038.019.06.032a1.37,1.37,0,0,1,.545,1.821l-.037.073a4.489,4.489,0,0,1,1.245,2.414,1.379,1.379,0,0,1-2.715.482l-.869,1.712a5.581,5.581,0,0,1,.629,1.055,3.879,3.879,0,0,1-.585,4.37,4.2,4.2,0,0,1-3.511,1.405l-.064.125a1.378,1.378,0,0,1-1.853.6Z" transform="translate(-357.413 -167.12)" fill="#fda928" opacity="0.5" style="mix-blend-mode: multiply;isolation: isolate"/>
              <path id="Trazado_127751" data-name="Trazado 127751" d="M375.086,183.679a5.09,5.09,0,0,0-.818-1.255l1.66-3.27a2.456,2.456,0,0,1,.7,1.34.689.689,0,1,0,1.359-.234,3.818,3.818,0,0,0-1.421-2.368l.278-.547a.689.689,0,1,0-1.229-.624l-.288.567a3.293,3.293,0,0,0-2.559.4,2.926,2.926,0,0,0-1.161,3.535,6.146,6.146,0,0,0,1,1.43l-1.985,3.911a2.054,2.054,0,0,1-.734-2.06.689.689,0,1,0-1.327-.373,3.479,3.479,0,0,0,1.422,3.691l-.273.538a.689.689,0,0,0,.277.913l.026.014a.69.69,0,0,0,.927-.3l.29-.571a3.484,3.484,0,0,0,3.374-1.094A3.19,3.19,0,0,0,375.086,183.679Zm-2.244-3.074c-.357-.715.343-1.528.716-1.788a1.814,1.814,0,0,1,1.119-.246l-1.392,2.744A4.377,4.377,0,0,1,372.842,180.605Zm.712,5.818a2.088,2.088,0,0,1-1.667.692l1.689-3.328a3.4,3.4,0,0,1,.256.463A1.84,1.84,0,0,1,373.554,186.424Z" transform="translate(-357.79 -167.498)" fill="#ffde4b"/>
            </g>
          </g>
          <g id="Grupo_93405" data-name="Grupo 93405" transform="translate(-80.419 169.27)">
            <g id="Grupo_93400" data-name="Grupo 93400" transform="translate(39.563 6.61)">
              <path id="Trazado_127752" data-name="Trazado 127752" d="M163.918,317.287a17.626,17.626,0,0,1,7.541-4.718c4.2-1.182,8.8-.189,12.617,1.922a37.184,37.184,0,0,1,9.816,8.559A6.319,6.319,0,0,1,195.18,325a2.243,2.243,0,0,1-.308,2.219c-.711.79-1.954.721-3,.517a23.445,23.445,0,0,1-8.566-3.543c1.887,2.443,3.816,4.969,4.635,7.945a3.008,3.008,0,0,1-.407,3c-.981.922-2.576.376-3.754-.275a39.421,39.421,0,0,1-9.323-7.145,11.673,11.673,0,0,1,1.744,3.524,3.956,3.956,0,0,1-.823,3.692c-1.389,1.386-3.71,1.035-5.551.356a23.657,23.657,0,0,1-9.193-6.159c-1.311-1.426-2.655-3.7-1.675-5.625A27.178,27.178,0,0,1,163.918,317.287Z" transform="translate(-158.627 -312.063)" fill="#ffe8cc"/>
              <g id="Grupo_93399" data-name="Grupo 93399" clip-path="url(#clip-path-20)">
                <path id="Trazado_127753" data-name="Trazado 127753" d="M170.046,336.374a7.08,7.08,0,0,0,3.437-7.817,45.512,45.512,0,0,0,10.071,4.266c1.142.329,2.61.509,3.3-.457.658-.92.1-2.205-.572-3.111s-1.521-1.866-1.41-2.991a4.978,4.978,0,1,0,6.266-7.313c5.493,3.983,8.293,11.7,5.777,18-1.941,4.863-6.656,8.284-11.743,9.527s-10.487.529-15.47-1.081a15.814,15.814,0,0,1-6.54-3.572c-1.052-1.063-4.116-6.4-.9-6.241,1.107.056,2.413,1.3,3.664,1.472A6.845,6.845,0,0,0,170.046,336.374Z" transform="translate(-159.408 -314.499)" fill="#ffe8cc" opacity="0.86" style="mix-blend-mode: multiply;isolation: isolate"/>
              </g>
            </g>
            <g id="Grupo_93402" data-name="Grupo 93402" transform="translate(0 28.392)">
              <path id="Trazado_127755" data-name="Trazado 127755" d="M106.98,348.427A17.632,17.632,0,0,0,100.046,354c-2.5,3.579-3.07,8.247-2.331,12.548a37.188,37.188,0,0,0,4.858,12.084,6.314,6.314,0,0,0,1.418,1.858,2.242,2.242,0,0,0,2.2.438c.979-.412,1.322-1.609,1.473-2.66a23.469,23.469,0,0,0-.531-9.255c1.687,2.585,3.438,5.238,5.981,6.989a3.008,3.008,0,0,0,2.964.6c1.193-.624,1.2-2.309.975-3.636a39.437,39.437,0,0,0-3.685-11.154,11.656,11.656,0,0,0,2.755,2.806,3.954,3.954,0,0,0,3.756.436c1.765-.856,2.2-3.163,2.161-5.125a23.665,23.665,0,0,0-2.8-10.706c-.916-1.708-2.625-3.724-4.762-3.431A27.218,27.218,0,0,0,106.98,348.427Z" transform="translate(-97.415 -345.763)" fill="#ffe8cc"/>
              <g id="Grupo_93401" data-name="Grupo 93401" clip-path="url(#clip-path-21)">
                <path id="Trazado_127756" data-name="Trazado 127756" d="M121.03,361.433a7.081,7.081,0,0,1-8.514.677,45.526,45.526,0,0,1,.72,10.913c-.065,1.187-.377,2.633-1.517,2.969-1.085.319-2.117-.626-2.75-1.563s-1.263-2.049-2.362-2.314a4.978,4.978,0,1,1-8.967,3.514c1.957,6.5,8.32,11.676,15.1,11.371,5.231-.235,10.011-3.564,12.857-7.959s3.947-9.732,4.063-14.966a15.816,15.816,0,0,0-1.224-7.351c-.658-1.342-4.7-5.992-5.6-2.9-.311,1.064.434,2.707.187,3.945A6.848,6.848,0,0,1,121.03,361.433Z" transform="translate(-97.495 -348.246)" fill="#ffe8cc" opacity="0.86" style="mix-blend-mode: multiply;isolation: isolate"/>
              </g>
            </g>
            <g id="Grupo_93404" data-name="Grupo 93404" transform="translate(7.125)">
              <circle id="Elipse_5146" data-name="Elipse 5146" cx="17.731" cy="17.731" r="17.731" transform="matrix(0.51, -0.86, 0.86, 0.51, 0, 30.506)" fill="#ffde4b"/>
              <path id="Trazado_127758" data-name="Trazado 127758" d="M153.884,338.986A17.73,17.73,0,1,1,119.4,331.23a17.733,17.733,0,0,0,34.479,7.756Z" transform="translate(-112.028 -312.231)" fill="#fda928" opacity="0.12" style="mix-blend-mode: multiply;isolation: isolate"/>
              <circle id="Elipse_5147" data-name="Elipse 5147" cx="13.969" cy="13.969" r="13.969" transform="translate(4.537 24.293) rotate(-45)" fill="#fda928"/>
              <g id="Grupo_93403" data-name="Grupo 93403" transform="translate(13.41 10.326)" opacity="0.4" style="mix-blend-mode: overlay;isolation: isolate">
                <path id="Trazado_127759" data-name="Trazado 127759" d="M139.323,326.753c1.425-2.8,2.806-5.664,4.263-8.483a13.958,13.958,0,0,0-3.259-.458c-3.548,7.638-6.894,15.486-11.14,22.726a13.871,13.871,0,0,0,2.408,2.343C134.427,337.646,136.628,332.056,139.323,326.753Z" transform="translate(-129.187 -317.812)" fill="#ffde4b"/>
                <path id="Trazado_127760" data-name="Trazado 127760" d="M147.345,326.491q1.242-2.778,2.515-5.54a14.064,14.064,0,0,0-3.345-1.786c-1.721,3.259-3.524,6.482-5.187,9.742-2.514,4.927-4.654,10.133-7.622,14.814a14.058,14.058,0,0,0,5.918,2.344A156.574,156.574,0,0,1,147.345,326.491Z" transform="translate(-130.785 -318.29)" fill="#ffde4b"/>
                <path id="Trazado_127761" data-name="Trazado 127761" d="M150.016,344.877c1.722-4.41,3.992-8.711,5.858-12.982.682-1.56,1.344-3.161,2.039-4.754-.248-.387-.508-.763-.789-1.119q-1.371,2.95-2.722,5.909c-1.637,3.585-3.242,7.194-4.961,10.74a45.109,45.109,0,0,1-3.031,5.977,13.807,13.807,0,0,0,2.2-.222A28.155,28.155,0,0,1,150.016,344.877Z" transform="translate(-135.279 -320.716)" fill="#ffde4b"/>
              </g>
              <path id="Trazado_127762" data-name="Trazado 127762" d="M147.585,343.665a1.981,1.981,0,0,1-2.582-.943l-.037-.074a5.868,5.868,0,0,1-5.728-2.1,1.989,1.989,0,0,1,.373-2.785,2.015,2.015,0,0,1,.406-.239,1.982,1.982,0,0,1,2.379.613,1.478,1.478,0,0,0,.577.454l-1.743-3.549a9.358,9.358,0,0,1-2.093-.147c-2.948-.541-3.945-3.606-3.881-5.411a5.646,5.646,0,0,1,1.538-3.475l-.082-.167a1.986,1.986,0,0,1,.907-2.658c.021-.01.054-.027.089-.042a1.975,1.975,0,0,1,2.57.949l.052.105a6.471,6.471,0,0,1,3.859.657,1.987,1.987,0,0,1-1.8,3.545l1.22,2.483a7.987,7.987,0,0,1,1.76.19,5.587,5.587,0,0,1,4.528,4.458,6.049,6.049,0,0,1-1.421,5.261l.089.182a1.987,1.987,0,0,1-.907,2.659Z" transform="translate(-117.922 -309.311)" fill="#fda928" opacity="0.5" style="mix-blend-mode: multiply;isolation: isolate"/>
              <path id="Trazado_127763" data-name="Trazado 127763" d="M145.7,332.583a7.318,7.318,0,0,0-2.154-.144l-2.33-4.744a3.546,3.546,0,0,1,2.153.352.994.994,0,0,0,.907-1.768,5.5,5.5,0,0,0-3.959-.414l-.39-.794a.993.993,0,1,0-1.783.876l.4.823a4.746,4.746,0,0,0-1.758,3.292c-.052,1.473.734,3.97,3.067,4.4a8.862,8.862,0,0,0,2.512.088l2.786,5.673a2.959,2.959,0,0,1-3.008-.938.993.993,0,1,0-1.579,1.205,5.015,5.015,0,0,0,5.483,1.559l.384.781a.994.994,0,0,0,1.291.472l.039-.018a.993.993,0,0,0,.454-1.329l-.407-.829a5.02,5.02,0,0,0,1.662-4.835A4.6,4.6,0,0,0,145.7,332.583Zm-5.485-.077c-1.133-.208-1.463-1.717-1.44-2.374a2.61,2.61,0,0,1,.686-1.5l1.955,3.979A6.323,6.323,0,0,1,140.218,332.506Zm7.319,4.219a3.011,3.011,0,0,1-.646,2.519l-2.371-4.827a5.014,5.014,0,0,1,.755.107A2.654,2.654,0,0,1,147.537,336.725Z" transform="translate(-118.466 -309.855)" fill="#ffde4b"/>
            </g>
          </g>
        </g>
      </g>
    </g>
  </g>
</svg>
