<svg xmlns="http://www.w3.org/2000/svg" xmlns:xlink="http://www.w3.org/1999/xlink" width="85" height="85" viewBox="0 0 85 85">
  <defs>
    <clipPath id="clip-path">
      <rect id="Rectángulo_34407" data-name="Rectángulo 34407" width="85" height="85" transform="translate(285 2044)" fill="#fff" stroke="#707070" stroke-width="1"/>
    </clipPath>
  </defs>
  <g id="Enmascarar_grupo_97" data-name="Enmascarar grupo 97" transform="translate(-285 -2044)" clip-path="url(#clip-path)">
    <g id="la-satisfaccion-del-cliente" transform="translate(283.629 2042.629)">
      <g id="Grupo_81342" data-name="Grupo 81342">
        <g id="Grupo_81331" data-name="Grupo 81331">
          <g id="Grupo_81329" data-name="Grupo 81329">
            <path id="Trazado_117052" data-name="Trazado 117052" d="M81.86,63.777A41.218,41.218,0,0,0,60.487,41.883l-5.333,5.045-1.3,1.22a32.927,32.927,0,0,1,11.763,6.677,7.56,7.56,0,0,1,4.3-1.357A6.36,6.36,0,0,1,68.4,57.594a32.93,32.93,0,0,1,8.377,21.922H85a40.712,40.712,0,0,0-3.14-15.739Z" fill="#fcd770"/>
          </g>
          <g id="Grupo_81330" data-name="Grupo 81330">
            <path id="Trazado_117053" data-name="Trazado 117053" d="M27.255,41.883A41.218,41.218,0,0,0,5.881,63.777a40.712,40.712,0,0,0-3.14,15.739h8.226a32.867,32.867,0,0,1,2.5-12.585h.014a32.441,32.441,0,0,1,7.129-10.68,32.809,32.809,0,0,1,13.285-8.1l-1.3-1.22Z" fill="#fcd770"/>
          </g>
        </g>
        <g id="Grupo_81332" data-name="Grupo 81332">
          <path id="Trazado_117054" data-name="Trazado 117054" d="M76.774,79.516H51.631a8.3,8.3,0,0,0-.151-5.881L67.931,58.088a5.24,5.24,0,0,0,.466-.494,32.93,32.93,0,0,1,8.377,21.922Z" fill="#ffeaa7"/>
        </g>
        <g id="Grupo_81333" data-name="Grupo 81333">
          <path id="Trazado_117055" data-name="Trazado 117055" d="M65.615,54.825q-.267.185-.535.411L47.97,69.645a8.143,8.143,0,0,0-4.1-1.1,8.236,8.236,0,0,0-7.76,10.968H10.968a32.867,32.867,0,0,1,2.5-12.585h.014a32.441,32.441,0,0,1,7.129-10.68,32.809,32.809,0,0,1,13.285-8.1l9.981,9.432,9.981-9.432A32.927,32.927,0,0,1,65.615,54.825Z" fill="#ffeaa7"/>
        </g>
        <g id="Grupo_81334" data-name="Grupo 81334">
          <path id="Trazado_117056" data-name="Trazado 117056" d="M51.48,73.635a8.229,8.229,0,1,1-7.609-5.086,8.143,8.143,0,0,1,4.1,1.1,8.3,8.3,0,0,1,3.51,3.99Zm-4.867,3.14a2.742,2.742,0,1,0-2.742,2.742A2.75,2.75,0,0,0,46.613,76.774Z" fill="#ff826e"/>
        </g>
        <g id="Grupo_81335" data-name="Grupo 81335">
          <path id="Trazado_117057" data-name="Trazado 117057" d="M69.919,53.468A6.36,6.36,0,0,1,68.4,57.594a5.24,5.24,0,0,1-.466.494L51.48,73.635a8.3,8.3,0,0,0-3.51-3.99L65.08,55.236q.267-.226.535-.411a7.56,7.56,0,0,1,4.3-1.357Z" fill="#e6e9ed"/>
        </g>
        <g id="Grupo_81336" data-name="Grupo 81336">
          <path id="Trazado_117058" data-name="Trazado 117058" d="M68.548,28.023A14.53,14.53,0,0,1,64.01,38.565l-3.523,3.318-5.333,5.045-.041-.041a8.429,8.429,0,0,0-3.907-2.207l-3.222-.809-.781-3.1v-.014A5.478,5.478,0,0,0,50.548,37l.041.014.973-.932a10.471,10.471,0,0,0,3.277-7.636V27.419a8.215,8.215,0,0,0-1.645-4.935,8,8,0,0,0-2.906-2.427,8.229,8.229,0,0,0-3.674-.864H43.967v-.137a13.463,13.463,0,0,1,4.73-3.935A13.332,13.332,0,0,1,62.434,16.2l.041.027a14.441,14.441,0,0,1,6.073,11.79Z" fill="#ff826e"/>
        </g>
        <g id="Grupo_81337" data-name="Grupo 81337">
          <path id="Trazado_117059" data-name="Trazado 117059" d="M55.154,46.928l-1.3,1.22-9.981,9.432L33.89,48.148l-1.3-1.22.041-.041a8.429,8.429,0,0,1,3.907-2.207l3.222-.809,4.113,4.113,4.113-4.113,3.222.809a8.429,8.429,0,0,1,3.907,2.207Z" fill="#b4dd7f"/>
        </g>
        <g id="Grupo_81338" data-name="Grupo 81338">
          <path id="Trazado_117060" data-name="Trazado 117060" d="M54.839,27.419v1.028a10.471,10.471,0,0,1-3.277,7.636l-.973.932L50.548,37a4.985,4.985,0,0,0,.178-1.357v-4.5a1.389,1.389,0,0,0-.932-1.3l-.274-.082a42.274,42.274,0,0,1-5.648-2.344,42.274,42.274,0,0,1-5.648,2.344l-.274.082a1.389,1.389,0,0,0-.932,1.3v4.5A4.985,4.985,0,0,0,37.194,37l-.041.014-.973-.932A10.471,10.471,0,0,1,32.9,28.448V27.419a8.226,8.226,0,0,1,8.226-8.226h5.484a8.229,8.229,0,0,1,3.674.864,8,8,0,0,1,2.906,2.427,8.215,8.215,0,0,1,1.645,4.935Z" fill="#656d78"/>
        </g>
        <g id="Grupo_81339" data-name="Grupo 81339">
          <path id="Trazado_117061" data-name="Trazado 117061" d="M50.726,31.148v4.5A4.985,4.985,0,0,1,50.548,37,5.478,5.478,0,0,1,47.2,40.759a5.2,5.2,0,0,1-1.96.37H42.5a5.2,5.2,0,0,1-1.96-.37A5.478,5.478,0,0,1,37.194,37a4.984,4.984,0,0,1-.178-1.357v-4.5a1.389,1.389,0,0,1,.932-1.3l.274-.082a42.274,42.274,0,0,0,5.648-2.344,42.274,42.274,0,0,0,5.648,2.344l.274.082A1.389,1.389,0,0,1,50.726,31.148Z" fill="#f0d0b4"/>
        </g>
        <g id="Grupo_81340" data-name="Grupo 81340">
          <path id="Trazado_117062" data-name="Trazado 117062" d="M47.2,40.773l.781,3.1-4.113,4.113-4.113-4.113.781-3.1v-.014a5.2,5.2,0,0,0,1.96.37h2.742a5.2,5.2,0,0,0,1.96-.37Z" fill="#f0d0b4"/>
        </g>
        <g id="Grupo_81341" data-name="Grupo 81341">
          <path id="Trazado_117063" data-name="Trazado 117063" d="M43.775,19.056v.137H41.129A8.226,8.226,0,0,0,32.9,27.419v1.028a10.471,10.471,0,0,0,3.277,7.636l.973.932L37.194,37a5.478,5.478,0,0,0,3.345,3.756v.014l-.781,3.1-3.222.809a8.429,8.429,0,0,0-3.907,2.207l-.041.041-5.333-5.045-3.523-3.318a14.755,14.755,0,0,1-3.359-4.8,14.51,14.51,0,0,1,4.894-17.535l.041-.027a13.252,13.252,0,0,1,7.76-2.5,13.389,13.389,0,0,1,10.707,5.347Z" fill="#ff826e"/>
        </g>
      </g>
      <g id="Grupo_81343" data-name="Grupo 81343">
        <path id="Trazado_117064" data-name="Trazado 117064" d="M43.871,72.661a4.113,4.113,0,1,0,4.113,4.113A4.118,4.118,0,0,0,43.871,72.661Zm0,5.484a1.371,1.371,0,1,1,1.371-1.371A1.371,1.371,0,0,1,43.871,78.145Z"/>
        <path id="Trazado_117065" data-name="Trazado 117065" d="M86.371,79.516a42.529,42.529,0,0,0-23.5-37.995l2.074-1.959a15.868,15.868,0,0,0-1.712-24.477,14.649,14.649,0,0,0-8.567-2.746,14.818,14.818,0,0,0-10.8,4.709,14.733,14.733,0,0,0-19.4-1.936A15.867,15.867,0,0,0,22.8,39.561l2.074,1.959a42.533,42.533,0,0,0-23.5,38v1.371H35.213a9.576,9.576,0,0,0,17.315,0H86.371ZM70.122,57.53a7.771,7.771,0,0,0,1.137-3.463L72.923,52.4a39.855,39.855,0,0,1,7.108,10.652l-5.067,2.1a34.12,34.12,0,0,0-4.842-7.624ZM50.187,69.567,65.963,56.282a6.146,6.146,0,0,1,2.324-1.222,5.015,5.015,0,0,1-1.3,2.035L51.827,71.412a9.73,9.73,0,0,0-1.64-1.845Zm20.8-19.106-1.69,1.69a8.858,8.858,0,0,0-3.537,1,33.967,33.967,0,0,0-9.346-5.536l4.331-4.09A39.685,39.685,0,0,1,70.987,50.461Zm-33.2-22-.265.088a2.739,2.739,0,0,0-1.877,2.6v2.11a9.05,9.05,0,0,1-1.371-4.809V27.419a6.855,6.855,0,0,1,6.855-6.855h5.484a6.857,6.857,0,0,1,6.855,6.855V28.45A9.05,9.05,0,0,1,52.1,33.26V31.15a2.736,2.736,0,0,0-1.873-2.6l-.269-.089a42.123,42.123,0,0,1-5.47-2.266l-.614-.308-.613.307a42.061,42.061,0,0,1-5.472,2.266Zm.6,2.69.266-.089a44.7,44.7,0,0,0,5.217-2.114,44.679,44.679,0,0,0,5.215,2.114l.269.089v4.5a4.118,4.118,0,0,1-4.113,4.113H42.5a4.118,4.118,0,0,1-4.113-4.113ZM42.5,42.5h2.742a6.772,6.772,0,0,0,.962-.1l.262,1.047-2.6,2.6-2.6-2.6.262-1.047A6.772,6.772,0,0,0,42.5,42.5Zm-3.163,2.889,4.534,4.534L48.4,45.389l2.469.618a7.032,7.032,0,0,1,2.2.994L43.871,55.7,34.665,47a6.987,6.987,0,0,1,2.2-.994ZM61.68,17.343a13.128,13.128,0,0,1,1.385,20.226l-7.948,7.506a9.779,9.779,0,0,0-3.578-1.727l-2.425-.606L48.8,41.477a6.846,6.846,0,0,0,2.9-3.625l.812-.775a11.926,11.926,0,0,0,3.7-8.627V27.419a9.573,9.573,0,0,0-9.2-9.572,11.983,11.983,0,0,1,14.665-.5ZM20.565,28.024A13.179,13.179,0,0,1,26.1,17.314a11.934,11.934,0,0,1,6.974-2.233,12.059,12.059,0,0,1,7.654,2.765,9.574,9.574,0,0,0-9.2,9.573V28.45a11.915,11.915,0,0,0,3.7,8.626l.813.775a6.841,6.841,0,0,0,2.9,3.625l-.317,1.264-2.425.606a9.78,9.78,0,0,0-3.578,1.727l-7.946-7.5a13.186,13.186,0,0,1-4.113-9.545Zm10.768,19.6a34.189,34.189,0,0,0-10.713,6.7L16.755,50.46A39.685,39.685,0,0,1,27,43.528ZM12.754,65.143,7.709,63.054A39.855,39.855,0,0,1,14.817,52.4l3.861,3.861a34.112,34.112,0,0,0-5.924,8.881Zm-6.1.444,5.049,2.091A34.345,34.345,0,0,0,9.652,78.145H4.138A39.643,39.643,0,0,1,6.659,65.587Zm5.735,12.558A31.376,31.376,0,0,1,33.563,49.73l10.308,9.735,10.3-9.728a31.215,31.215,0,0,1,9.255,5.1L47.773,68.016a9.5,9.5,0,0,0-3.9-.839,9.525,9.525,0,0,0-9.487,10.968Zm31.477,5.484a6.855,6.855,0,1,1,6.855-6.855A6.863,6.863,0,0,1,43.871,83.629Zm9.188-9.612L68.3,59.627A31.423,31.423,0,0,1,75.34,78.147H53.358a9.2,9.2,0,0,0-.3-4.129Zm25.023,4.128a34.258,34.258,0,0,0-2.058-10.463l5.059-2.095a39.644,39.644,0,0,1,2.523,12.558Z"/>
        <path id="Trazado_117066" data-name="Trazado 117066" d="M42.5,1.371h2.742V6.855H42.5Z"/>
        <path id="Trazado_117067" data-name="Trazado 117067" d="M8.222,21.184h2.741V29.52H8.222Z" transform="translate(-16.999 30.659) rotate(-80.557)"/>
        <path id="Trazado_117068" data-name="Trazado 117068" d="M15.078,8.46H17.82v7.754H15.078Z" transform="translate(-3.906 15.247) rotate(-45)"/>
        <path id="Trazado_117069" data-name="Trazado 117069" d="M27.406,2.417h2.741V8.545H27.406Z" transform="translate(0.587 13.455) rotate(-26.565)"/>
        <path id="Trazado_117070" data-name="Trazado 117070" d="M73.942,23.981h8.336v2.741H73.942Z" transform="translate(-3.107 13.193) rotate(-9.443)"/>
        <path id="Trazado_117071" data-name="Trazado 117071" d="M67.4,10.966h7.754v2.742H67.4Z" transform="translate(12.156 54.024) rotate(-45)"/>
        <path id="Trazado_117072" data-name="Trazado 117072" d="M55.859,4.111h6.128V6.852H55.859Z" transform="translate(27.683 55.76) rotate(-63.435)"/>
      </g>
    </g>
  </g>
</svg>
