<svg xmlns="http://www.w3.org/2000/svg" width="820" height="474.904" viewBox="0 0 820 474.904">
  <g id="Grupo_93985" data-name="Grupo 93985" transform="translate(-390 -5163.843)">
    <g id="Grupo_80720" data-name="Grupo 80720">
      <text id="Pirámide_de_Kelsen_Colombia" data-name="Pirámide de Kelsen Colombia" transform="translate(810 5186)" fill="#12263f" font-size="18" font-family="Roboto-Black, Roboto" font-weight="800"><tspan x="0" y="19">Pirámide de Kelsen Colombia</tspan></text>
      <path id="Trazado_114741" data-name="Trazado 114741" d="M-38.018,0H516.667V85.6H13Z" transform="translate(693.333 5257.4)" fill="#fec08a"/>
      <text id="Nivel_fundamental" data-name="Nivel fundamental" transform="translate(809.333 5264)" fill="#12263f" font-size="16" font-family="Roboto-Black, Roboto" font-weight="800"><tspan x="0" y="17">Nivel fundamental</tspan></text>
      <path id="Trazado_114739" data-name="Trazado 114739" d="M0,0H461.667V85.6H49Z" transform="translate(748.333 5495)" fill="#fcd03e"/>
      <path id="Trazado_114740" data-name="Trazado 114740" d="M5,0H516.667V85.6H56.018Z" transform="translate(693.333 5365.9)" fill="#85d161"/>
      <text id="Nivel_legal" data-name="Nivel legal" transform="translate(809.333 5385)" fill="#12263f" font-size="16" font-family="Roboto-Black, Roboto" font-weight="800"><tspan x="0" y="17">Nivel legal</tspan></text>
      <text id="Nivel_base" data-name="Nivel base" transform="translate(809.333 5502)" fill="#12263f" font-size="16" font-family="Roboto-Black, Roboto" font-weight="800"><tspan x="0" y="17">Nivel base</tspan></text>
      <text id="Contiene_la_Constitución_Nacional_y_el_Tratado_de_DD._HH." data-name="Contiene la Constitución Nacional y el Tratado de DD. HH." transform="translate(809.333 5293)" fill="#12263f" font-size="16" font-family="Roboto-Regular, Roboto"><tspan x="0" y="17">Contiene la Constitución Nacional y el Tratado de </tspan><tspan x="0" y="41">DD. HH.</tspan></text>
      <text id="Presenta_las_Leyes_nacionales_y_los_tratados." data-name="Presenta las Leyes nacionales y los tratados." transform="translate(809.333 5414)" fill="#12263f" font-size="16" font-family="Roboto-Regular, Roboto"><tspan x="0" y="17">Presenta las Leyes nacionales y los tratados.</tspan></text>
      <text id="Contiene_normas_sentencias_contratos_testamentos." data-name="Contiene normas, sentencias, contratos, testamentos." transform="translate(809.333 5531)" fill="#12263f" font-size="16" font-family="Roboto-Regular, Roboto"><tspan x="0" y="17">Contiene normas, sentencias, contratos, </tspan><tspan x="0" y="41">testamentos.</tspan></text>
      <g id="Grupo_80719" data-name="Grupo 80719" transform="translate(270.082 5133.151)">
        <path id="Trazado_114724" data-name="Trazado 114724" d="M460.437,319.308,309.3,273.667,159.134,319.5,309.3,355.454Z" transform="translate(9.834 43.462)" fill="#fcd03e"/>
        <path id="Trazado_114725" data-name="Trazado 114725" d="M168.968,310.31l150.163,35.955V452.944L119.918,395.156Z" transform="translate(0 52.651)" fill="#fcde7b"/>
        <path id="Trazado_114726" data-name="Trazado 114726" d="M430.331,310.157,279.191,346.3V452.982l200.12-58Z" transform="translate(39.941 52.613)" fill="#fcd03e"/>
        <path id="Trazado_114727" data-name="Trazado 114727" d="M199.554,312.885l99.587,23.751.019-53.05Z" transform="translate(19.97 45.95)" fill="#e1b830"/>
        <path id="Trazado_114728" data-name="Trazado 114728" d="M279.191,283.586h0l.019,53.05,101.542-22.661Z" transform="translate(39.941 45.95)" fill="#f5d56d"/>
        <g id="Grupo_80715" data-name="Grupo 80715" transform="translate(168.968 215.103)">
          <path id="Trazado_114729" data-name="Trazado 114729" d="M205.462,245.118l-46.328,80.138,150.283,35.955V262.161Z" transform="translate(-159.134 -220.252)" fill="#85d161"/>
          <path id="Trazado_114730" data-name="Trazado 114730" d="M384.179,245.164l46.128,79.889L279.286,361.2V262.15Z" transform="translate(-129.004 -220.24)" fill="#529d2e"/>
          <path id="Trazado_114731" data-name="Trazado 114731" d="M300.128,225.237,196.174,250.1l103.955,17.043,104.893-16.985Z" transform="translate(-149.846 -225.237)" fill="#529d2e"/>
          <path id="Trazado_114732" data-name="Trazado 114732" d="M234.381,246.543l56.167,9.279V232.78Z" transform="translate(-140.265 -223.346)" fill="#448f20"/>
          <path id="Trazado_114733" data-name="Trazado 114733" d="M279.286,232.78v23.042l56.672-9.317Z" transform="translate(-129.004 -223.346)" fill="#67c53a"/>
        </g>
        <g id="Grupo_80716" data-name="Grupo 80716" transform="translate(215.296 30.691)">
          <path id="Trazado_114734" data-name="Trazado 114734" d="M300.093,248.891l.037-148.541L196.174,280.171,300.13,297.214Z" transform="translate(-196.174 -100.349)" fill="#fdab64"/>
          <path id="Trazado_114735" data-name="Trazado 114735" d="M279.324,248.891l-.036-148.541L384.179,280.229,279.287,297.214Z" transform="translate(-175.332 -100.349)" fill="#fc8116"/>
        </g>
      </g>
    </g>
  </g>
</svg>
