<svg xmlns="http://www.w3.org/2000/svg" xmlns:xlink="http://www.w3.org/1999/xlink" width="372.84" height="254" viewBox="0 0 372.84 254">
  <defs>
    <clipPath id="clip-path">
      <rect y="-22" width="372.84" height="254" fill="none"/>
    </clipPath>
  </defs>
  <g id="Grupo_93984" data-name="Grupo 93984" transform="translate(-1031.581 -3694)">
    <g id="Grupo_de_desplazamiento_1" data-name="Grupo de desplazamiento 1" transform="translate(1031.581 3716)" clip-path="url(#clip-path)" style="isolation: isolate">
      <g id="Grupo_80661" data-name="Grupo 80661" transform="translate(-215.391 -114.738)">
        <path id="Trazado_114449" data-name="Trazado 114449" d="M570.082,345.163l-320.892-.111s-54.228-74.735-25.307-124.732,71.164-14.7,74.686-50.825c.12-1.223.024-2.432.024-3.614,0-.281,0-.559.018-.836,1.082-20.744,14.618-34.15,32.48-41.863q.866-.375,1.742-.729c28.485-11.544,67-9.169,84.05.757,29.01,16.887,28.829,37.213,88.734,30.508s71.33,49.362,55.736,77.926C539.228,272.176,622.711,265.519,570.082,345.163Z" transform="translate(0 0)" fill="#e1f3d7"/>
        <g id="Grupo_80627" data-name="Grupo 80627" transform="translate(298.593 123.182)">
          <path id="Trazado_114450" data-name="Trazado 114450" d="M1827.988,766.543l-7.8-7.677-7.653-7.533a1.386,1.386,0,0,1-.323-1.337c.394-1.4,2.775-2.8,4.165-3.971l.14-.119a4.368,4.368,0,0,1,6.138.521l9.355,11.091h0l2.774,3.289a4.368,4.368,0,0,1-.521,6.138l-.14.119A4.369,4.369,0,0,1,1827.988,766.543Z" transform="translate(-1681.234 -668.826)" fill="#ffb27d"/>
          <path id="Trazado_114451" data-name="Trazado 114451" d="M1276.311,390.636a3.564,3.564,0,0,1-3.179,2.788,33.133,33.133,0,0,1-16.564-1.966c-7.624.036-13.022-2.741-14.656-1.3-.06.052-.043.166.042.328,1.5,2.9,24.63,22.188,24.966,24.329.355,2.26-43.033,12.892-43.033,12.892s-6.411-4-13.589-9.241c-3.641-2.657-7.476-5.634-10.774-8.575a39.673,39.673,0,0,1-7.593-8.412l-.008-.017a10.194,10.194,0,0,1-.576-1.107c-.027-.057-.05-.108-.069-.156a21.214,21.214,0,0,0-5.389-7.171,48.462,48.462,0,0,0-13.468-8.205l31.86-17s29.254,3.437,33.934,6.277c6.821,4.142,21.1,7.179,23.852,8.783,2.041,1.189,12.79,5.05,13.575,5.395A2.7,2.7,0,0,1,1276.311,390.636Z" transform="translate(-1127.286 -342.324)" fill="#ffb27d"/>
          <path id="Trazado_114452" data-name="Trazado 114452" d="M902.754,198.324s-.007.065-.026.187v0A79.632,79.632,0,0,1,900.46,209.1v0c-.055.189-.111.381-.168.572v0c-.026.085-.052.172-.078.257v0c-1.841,6.089-4.833,12.837-9.452,15.557h0q-.4.233-.81.427a8.548,8.548,0,0,1-2.009.653,8.221,8.221,0,0,1-1.6.154s-4.051-.487-10.112-1.224l-1.014-.126c-10.957-1.337-27.7-3.409-39.383-4.97,0-.281,0-.559.018-.836,1.082-20.744,14.618-34.15,32.48-41.863,9.487,5.673,18.375,11,24.743,14.816a.007.007,0,0,1,.005,0,.1.1,0,0,1,.015.009c.407.244.8.483,1.189.712l.024.015Z" transform="translate(-835.836 -177.706)" fill="#f99746"/>
          <path id="Trazado_114453" data-name="Trazado 114453" d="M1283.654,495.727a.381.381,0,0,1,.037.083c2.994,18.929,13.985,15.806,13.985,15.806l-.413,15.559c-3.641-2.657-7.476-5.634-10.774-8.575a39.679,39.679,0,0,1-7.592-8.412l-.008-.017c-.259-.469-.454-.844-.577-1.107-.026-.057-.05-.108-.069-.156a21.215,21.215,0,0,0-5.389-7.171c1.17-2,2.537-4.27,3.887-6.494A3.9,3.9,0,0,1,1283.654,495.727Z" transform="translate(-1214.251 -451.038)" fill="#efa26f"/>
          <path id="Trazado_114454" data-name="Trazado 114454" d="M1144.631,288.057s-10.279,8.891-14.513,15.139l3.068,5.321-5.219-.491s-2.658,9.646-1.215,12.9l14.232,1.34,16.406-26.251Z" transform="translate(-1087.369 -273.259)" fill="#ed7d2b"/>
          <path id="Trazado_114455" data-name="Trazado 114455" d="M1136.3,301.251c-.421-3.869,3.33-11.768,3.33-11.768L1152.247,292l-9.716-10.24c2.193-4.539,7.454-11.466,10.708-15.57,1.621-2.043,2.744-3.387,2.744-3.387,9.345,7.1,18.045,14.182,18.045,14.182-3.814,1.478-7.384,5.491-10.354,9.926a92.244,92.244,0,0,0-8.219,15.9C1147.881,302.1,1136.3,301.251,1136.3,301.251Z" transform="translate(-1095.977 -251.393)" fill="#dceaff"/>
          <path id="Trazado_114456" data-name="Trazado 114456" d="M1136.3,323.118c-.421-3.869,3.33-11.768,3.33-11.768l12.619,2.519-9.716-10.24c2.193-4.539,7.454-11.466,10.708-15.57.167,11.317,10.434,20.721,10.434,20.721a92.246,92.246,0,0,0-8.219,15.9C1147.881,323.967,1136.3,323.118,1136.3,323.118Z" transform="translate(-1095.977 -273.261)" fill="#cbe1fd"/>
          <path id="Trazado_114457" data-name="Trazado 114457" d="M1230.1,363.352a1.545,1.545,0,1,1-1.7,1.378A1.546,1.546,0,0,1,1230.1,363.352Z" transform="translate(-1175.757 -338.45)" fill="#f99746"/>
          <rect id="Rectángulo_33943" data-name="Rectángulo 33943" width="94.418" height="43.373" transform="matrix(0.962, -0.274, 0.274, 0.962, 72.623, 60.778)" fill="#82b378"/>
          <g id="Grupo_80621" data-name="Grupo 80621" transform="translate(77.555 41.059)">
            <rect id="Rectángulo_33944" data-name="Rectángulo 33944" width="94.418" height="43.373" transform="translate(0 17.124) rotate(-10.449)" fill="#a8d29f"/>
            <g id="Grupo_80619" data-name="Grupo 80619" transform="translate(4.248 4.033)">
              <path id="Trazado_114458" data-name="Trazado 114458" d="M1537.366,546.038l-3.962-21.482,0-.007-1.949-10.578-1.014.187-17.389,3.207h0l-.2.037-13.025,2.4-1.667.307h0l-13.965,2.577-36.714,6.77-.007,0-.024.006-.624.115-.018,0-.015,0-.934.172,1.411,7.652,1.65,8.947,3.564,19.327,20.063-3.7.893-.165,3.328-.614.74-.137.976-.179.892-.165,1.7-.314,4.151-.766,1.178-.216,1.633-.3,1.426-.263,8.333-1.537h0l1.692-.312,1.334-.246,11.536-2.127,10.365-1.911,3.788-.7,11.564-2.133Zm-5.158,3.363-18.756,3.459h0l-2.24.412h0l-11.733,2.164-1.089.2-8.277,1.526-2.619.483-1.681.311-1.2.222-3.916.721-1.62.3-.984.183-.934.172-.749.137-3.315.612-.94.174-14.359,2.647a4.13,4.13,0,0,1-4.811-3.313l-2.244-12.171-2.319-12.576a4.132,4.132,0,0,1,3.313-4.813L1485.615,524l15.866-2.926,4.517-.834h0l5.682-1.047.185-.035h0l14.276-2.632a4.13,4.13,0,0,1,4.811,3.313l4.563,24.747a4.128,4.128,0,0,1-3.313,4.813Z" transform="translate(-1445.856 -513.97)" fill="#82b378"/>
            </g>
            <path id="Trazado_114459" data-name="Trazado 114459" d="M1721.053,646.109a10.873,10.873,0,1,1,8.951-12.5A10.873,10.873,0,0,1,1721.053,646.109Z" transform="translate(-1668.947 -605.651)" fill="#82b378"/>
            <g id="Grupo_80620" data-name="Grupo 80620" transform="translate(24.779 22.011)">
              <path id="Trazado_114460" data-name="Trazado 114460" d="M1603.632,715.381a4.014,4.014,0,1,1,3.3-4.615A4.014,4.014,0,0,1,1603.632,715.381Z" transform="translate(-1598.961 -699.444)" fill="#82b378"/>
              <path id="Trazado_114461" data-name="Trazado 114461" d="M1925.583,656.007a4.014,4.014,0,1,1,3.3-4.616A4.014,4.014,0,0,1,1925.583,656.007Z" transform="translate(-1877.74 -648.032)" fill="#82b378"/>
            </g>
          </g>
          <g id="Grupo_80625" data-name="Grupo 80625" transform="translate(107.897 85.585)">
            <g id="Grupo_80622" data-name="Grupo 80622" transform="translate(7.117 0.374)">
              <path id="Trazado_114462" data-name="Trazado 114462" d="M1696.425,831.6l-.342-.922-2.3-6.2a3.967,3.967,0,0,1-.135-.439,4.223,4.223,0,0,1,2.619-4.974l.238-.089a4.224,4.224,0,0,1,5.414,2.483l2.146,5.782.156.42.342.922a4.223,4.223,0,0,1-2.483,5.413l-.238.089A4.224,4.224,0,0,1,1696.425,831.6Z" transform="translate(-1693.52 -818.714)" fill="#ffb27d"/>
              <path id="Trazado_114463" data-name="Trazado 114463" d="M1706.647,837.434a24.691,24.691,0,0,1-1.2-3.909,1.648,1.648,0,0,1,.656-1.285,3.814,3.814,0,0,1,1.409-.767,4.46,4.46,0,0,1,.9-.2,3.785,3.785,0,0,1,1.065.042,1.063,1.063,0,0,1,.755.6s0,0,0,0a24.394,24.394,0,0,1,1.441,3.762,1.629,1.629,0,0,1-.919,2.014l-.356.127-1.823.649A1.557,1.557,0,0,1,1706.647,837.434Z" transform="translate(-1703.844 -829.569)" fill="#ffd3b6"/>
              <path id="Trazado_114464" data-name="Trazado 114464" d="M1706.647,841.47a24.691,24.691,0,0,1-1.2-3.909,1.648,1.648,0,0,1,.656-1.285c.121-.051.249-.1.387-.142a4.468,4.468,0,0,1,.9-.2,3.771,3.771,0,0,1,1.064.042,1.062,1.062,0,0,1,.755.6s0,0,0,0a24.371,24.371,0,0,1,1.441,3.762,1.778,1.778,0,0,1-.253,1.516l-1.823.649A1.557,1.557,0,0,1,1706.647,841.47Z" transform="translate(-1703.844 -833.605)" fill="#ffc197"/>
            </g>
            <g id="Grupo_80623" data-name="Grupo 80623" transform="translate(0 2.04)">
              <path id="Trazado_114465" data-name="Trazado 114465" d="M1641.795,839.486l-1.261-4.779a2.738,2.738,0,0,1,1.943-3.337l.541-.143a2.739,2.739,0,0,1,3.337,1.943l1.261,4.779a2.738,2.738,0,0,1-1.943,3.337l-.541.143A2.738,2.738,0,0,1,1641.795,839.486Z" transform="translate(-1640.444 -831.138)" fill="#ffb27d"/>
              <path id="Trazado_114466" data-name="Trazado 114466" d="M1648.109,842.361a21.547,21.547,0,0,1-.666-3.295,1.607,1.607,0,0,1,1.042-1.293,3.613,3.613,0,0,1,1.376-.34,2.73,2.73,0,0,1,.815.113.846.846,0,0,1,.541.544s0,0,0,0a21.322,21.322,0,0,1,.864,3.192,1.35,1.35,0,0,1-.836,1.585l-.431.12-1.293.357A1.209,1.209,0,0,1,1648.109,842.361Z" transform="translate(-1646.504 -836.589)" fill="#ffd3b6"/>
              <path id="Trazado_114467" data-name="Trazado 114467" d="M1648.109,843.968a21.54,21.54,0,0,1-.666-3.294,1.608,1.608,0,0,1,1.042-1.293,3.024,3.024,0,0,1,.659-.091,2.737,2.737,0,0,1,.815.112.848.848,0,0,1,.541.544s0,0,0,0a21.177,21.177,0,0,1,.862,3.192,1.441,1.441,0,0,1-.548,1.456l-1.293.357A1.21,1.21,0,0,1,1648.109,843.968Z" transform="translate(-1646.504 -838.196)" fill="#ffc197"/>
            </g>
            <g id="Grupo_80624" data-name="Grupo 80624" transform="translate(17.407)">
              <path id="Trazado_114468" data-name="Trazado 114468" d="M1772.008,829.11c-.012-.034-.023-.068-.034-.1l-1.556-6.264a5.168,5.168,0,0,1,3.354-6.291l1.3-.362a4.793,4.793,0,0,1,5.753,3.4l.514,2.068,1.042,4.2a5.168,5.168,0,0,1-3.354,6.291l-1.3.362A4.784,4.784,0,0,1,1772.008,829.11Z" transform="translate(-1770.253 -815.928)" fill="#ffb27d"/>
              <path id="Trazado_114469" data-name="Trazado 114469" d="M1787.215,855.345l-1.345-3.048s0-.01,0-.019a3.415,3.415,0,0,1-.073-.368c-.007-.051-.013-.1-.018-.154a.393.393,0,0,1,0-.065.483.483,0,0,1,.686-.414,3.02,3.02,0,0,0,2.058.188l.265-.07.008,0,.864-.228a3.234,3.234,0,0,0,1.687-1.088c.051-.062.1-.126.145-.191a.873.873,0,0,1,1.551.268c0,.007,0,.013.006.019l.478,3.337a1.587,1.587,0,0,1-1.249,1.833l-.984.26-2.1.553C1788.363,856.374,1787.433,856.171,1787.215,855.345Z" transform="translate(-1783.692 -845.014)" fill="#ffd3b6"/>
              <path id="Trazado_114470" data-name="Trazado 114470" d="M1787.221,858.951l-1.345-3.048,0-.019c-.013-.071-.049-.294-.092-.586a.483.483,0,0,1,.686-.414,3.02,3.02,0,0,0,2.058.188l.265-.07.008,0,.864-.228a3.235,3.235,0,0,0,1.687-1.088.849.849,0,0,1,.337.481c0,.006,0,.012.005.019l.478,3.337a1.516,1.516,0,0,1-.873,1.689l-2.1.553C1788.37,859.98,1787.438,859.777,1787.221,858.951Z" transform="translate(-1783.698 -848.62)" fill="#ffc197"/>
            </g>
          </g>
          <g id="Grupo_80626" data-name="Grupo 80626" transform="translate(107.544 31.337)">
            <path id="Trazado_114471" data-name="Trazado 114471" d="M1638.051,420.965s-1.535-11.984,3.146-9.142c6.82,4.142,21.1,7.177,23.852,8.781,2.039,1.19,12.79,5.05,13.574,5.4a2.4,2.4,0,0,1,.36,2.759,6.635,6.635,0,0,1-3.366,3.234c-6.68,2.6-15.779-2.812-16.07-2.81-7.625.037-15.034-.815-17.187-.507C1641.61,428.785,1638.051,420.965,1638.051,420.965Z" transform="translate(-1637.81 -411.388)" fill="#ffb27d"/>
            <path id="Trazado_114472" data-name="Trazado 114472" d="M1896.315,504.115l-7.547-2.744a3.893,3.893,0,0,0-.375,2.443C1888.755,504.758,1895.746,506.42,1896.315,504.115Z" transform="translate(-1854.704 -489.304)" fill="#ffc197"/>
          </g>
        </g>
        <g id="Grupo_80632" data-name="Grupo 80632" transform="translate(257.107 206.264)">
          <g id="Grupo_80628" data-name="Grupo 80628" transform="translate(8.74 27.523)">
            <path id="Trazado_114473" data-name="Trazado 114473" d="M914.635,1217.315l1.5,1.22s4.109-1.473,5.036,3.409c0,0,.247,2.081-1.071,2.085a26.357,26.357,0,0,0-2.641-.173c-1.867.055-3.414-.929-3.687-2.444l-.893-1.283Z" transform="translate(-869.804 -1188.509)" fill="#ea8e50"/>
            <path id="Trazado_114474" data-name="Trazado 114474" d="M636.308,1033.927a3.071,3.071,0,0,0,1.1-2.176s-13.876-11.36-15.284-12.286a171.218,171.218,0,0,1-15.955-15.213c-2.37-2.74-5.3-1.677-8.662-.713l-2.766.793c-3.339.958-4.207,5.628-1.468,7.9,7.716,6.391,20.552,13.58,22.954,15.091,5.962,3.75,17.633,8.207,17.633,8.207A7.391,7.391,0,0,0,636.308,1033.927Z" transform="translate(-591.647 -1002.503)" fill="#1e3d70"/>
          </g>
          <path id="Trazado_114475" data-name="Trazado 114475" d="M1014.159,1757.333a10.461,10.461,0,0,0,8.528,1.19s4.16-.948,5.073,1.127c0,0-6.381,3.242-7.995,4.128a19.346,19.346,0,0,0-3.385,2.538,1.673,1.673,0,0,1-2.423-.187c-.281-.345-.6-.756-.954-1.233-.984-1.333-3.276-5.64-3.276-5.64Z" transform="translate(-944.922 -1628.588)" fill="#204272"/>
          <g id="Grupo_80631" data-name="Grupo 80631" transform="translate(19.01 3.272)">
            <circle id="Elipse_4749" data-name="Elipse 4749" cx="23.545" cy="23.545" r="23.545" transform="translate(2.054 33.297) rotate(-45)" fill="#e2810e"/>
            <circle id="Elipse_4750" data-name="Elipse 4750" cx="23.545" cy="23.545" r="23.545" transform="translate(0 33.297) rotate(-45)" fill="#ffc76c"/>
            <g id="Grupo_80629" data-name="Grupo 80629" transform="translate(11.845 12.124)">
              <path id="Trazado_114476" data-name="Trazado 114476" d="M778.017,954.972a21.452,21.452,0,1,1,15.169-6.283A21.312,21.312,0,0,1,778.017,954.972Zm0-41.624a20.172,20.172,0,1,0,20.172,20.172A20.195,20.195,0,0,0,778.017,913.348Z" transform="translate(-756.565 -912.068)" fill="#ffa412"/>
            </g>
            <g id="Grupo_80630" data-name="Grupo 80630" transform="translate(23.902 17.733)">
              <path id="Trazado_114477" data-name="Trazado 114477" d="M858.822,975.966a3.54,3.54,0,0,0-.051-1.246,2.586,2.586,0,0,0-.527-1.034,4.877,4.877,0,0,0-1.053-.929,12.875,12.875,0,0,0-1.632-.914,33.87,33.87,0,0,1-3.014-1.656,10.678,10.678,0,0,1-2.253-1.834,6.281,6.281,0,0,1-1.331-2.235,7.09,7.09,0,0,1,.573-5.361,5.962,5.962,0,0,1,1.662-1.847,7.449,7.449,0,0,1,2.38-1.133,9.935,9.935,0,0,1,2.972-.342l.419-3.536,2.846.338-.425,3.585a8.9,8.9,0,0,1,2.678,1.139,6.726,6.726,0,0,1,3,4.3,8.959,8.959,0,0,1,.118,3.038l-5.14-.61a4.362,4.362,0,0,0-.528-3.07,3.031,3.031,0,0,0-2.24-1.263,3.847,3.847,0,0,0-1.4.06,2.609,2.609,0,0,0-1.024.5,2.439,2.439,0,0,0-.66.852,3.58,3.58,0,0,0-.313,1.119,3.278,3.278,0,0,0,.046,1.128,2.425,2.425,0,0,0,.505.99,4.888,4.888,0,0,0,1.062.93,16.516,16.516,0,0,0,1.7.98q1.648.849,2.983,1.694a10.8,10.8,0,0,1,2.243,1.849,6.065,6.065,0,0,1,1.561,5.086,6.484,6.484,0,0,1-.817,2.55,5.892,5.892,0,0,1-1.669,1.83,7.191,7.191,0,0,1-2.393,1.09,10.721,10.721,0,0,1-2.986.316l-.39,3.288-2.828-.336.388-3.271a12.028,12.028,0,0,1-2.778-.983,7.615,7.615,0,0,1-2.276-1.719,6.816,6.816,0,0,1-1.428-2.557,8.3,8.3,0,0,1-.236-3.479l5.14.61a5.114,5.114,0,0,0,.1,2,3.307,3.307,0,0,0,.731,1.36,3.209,3.209,0,0,0,1.175.81,5.485,5.485,0,0,0,1.41.36,4.589,4.589,0,0,0,1.493-.04,3.058,3.058,0,0,0,1.129-.47,2.439,2.439,0,0,0,.747-.824A2.968,2.968,0,0,0,858.822,975.966Z" transform="translate(-846.474 -953.898)" fill="#ffa412"/>
            </g>
          </g>
          <path id="Trazado_114478" data-name="Trazado 114478" d="M722.272,1359.262s-2.051,4.728-6.784,3.859a132.1,132.1,0,0,1-16.284-16.263,36.8,36.8,0,0,1-5.06-7.908c-4.393-10.172-16.251-25.343-23.791-33.032l18.863-6.824s6.042,12.154,14.081,27.083C709.09,1336.934,715.919,1349.132,722.272,1359.262Z" transform="translate(-651.058 -1231.799)" fill="#2b478b"/>
          <path id="Trazado_114479" data-name="Trazado 114479" d="M703.3,1326.178l-4.092,20.681a36.8,36.8,0,0,1-5.06-7.908c-4.393-10.172-16.251-25.343-23.791-33.032l18.863-6.824S695.258,1311.249,703.3,1326.178Z" transform="translate(-651.058 -1231.799)" fill="#233862"/>
          <path id="Trazado_114480" data-name="Trazado 114480" d="M757.224,1764.441s-.206,3.773,4.368,4.276c0,0,2.831.073,2.838,2.474l-13.774-.005s-.122-.981-.216-3.055c-.072-1.593,1.544-5.758,1.544-5.758Z" transform="translate(-720.404 -1632.952)" fill="#204272"/>
          <path id="Trazado_114481" data-name="Trazado 114481" d="M646.558,1293.69s8.4,9.234,13.738,25.869c2.9,9.051-5.32,31.807-6.922,39.713,0,0-5.515.468-9.286-.99,0,0-.287-16.33,1.919-28.917,1.234-7.044-11.064-15.065-16.438-27.793-3.656-8.659.792-8.512,6.257-8.72Z" transform="translate(-614.587 -1226.394)" fill="#2b478b"/>
          <path id="Trazado_114482" data-name="Trazado 114482" d="M600.549,918.315c-4.675,2.64-14.247.205-14.247.205a13.333,13.333,0,0,0,2.121-11.6l3.671,1.864,3.943,2a32.7,32.7,0,0,1,.432,3.534c.045.584.085,1.237.113,1.951A12.264,12.264,0,0,1,600.549,918.315Z" transform="translate(-578.278 -892.214)" fill="#ffb07b"/>
          <path id="Trazado_114483" data-name="Trazado 114483" d="M594.947,1018.146c0,.822-.947,1.215-1.148,1.255-1.886.345-7.151,2.393-11.894,2.862a38.034,38.034,0,0,1-11.776-.8c-.54-.109-1.806-.45-1.9-.967-.113-.564-15.713-31.8-3.586-45.222.285-.315,2.679.252,4.868.772a8.987,8.987,0,0,0,5.532-.452l2.053,1.08c2.521,1.4,7.292,6.4,7.85,10.313.284,1.992,1.423,3.467,1.752,5.219q.184.972.375,1.9.373,1.815.768,3.457c.713,2.962,1.466,5.513,2.205,7.716.787,2.339,1.559,4.285,2.248,5.912.894,2.111,1.65,3.688,2.122,4.9A6.032,6.032,0,0,1,594.947,1018.146Z" transform="translate(-555.533 -951.327)" fill="#aec3ff"/>
          <path id="Trazado_114484" data-name="Trazado 114484" d="M625.024,1084.547a61.3,61.3,0,0,1-29.649-30.3s17.892,6.6,22.306,8.319q.373,1.815.768,3.457c.713,2.962,1.466,5.513,2.205,7.716.787,2.339,1.559,4.285,2.248,5.912C623.8,1081.762,624.552,1083.339,625.024,1084.547Z" transform="translate(-586.135 -1019.786)" fill="#91b0f2"/>
          <path id="Trazado_114485" data-name="Trazado 114485" d="M906.145,1234.566l1.9.7a4.07,4.07,0,0,1,6.183,1.688s.858,1.914-.5,2.33-.864.024-2.774.66-3.79.178-4.512-1.186l-1.293-.949Z" transform="translate(-854.371 -1175.818)" fill="#ffb07b"/>
          <path id="Trazado_114486" data-name="Trazado 114486" d="M620.4,1042.778c.7-1.836,1.025-2.667,1.025-2.667s-14.38-11.721-15.845-12.726c-1-.685-10.938-8.115-15.784-13.905a10.142,10.142,0,0,0-9.86-3.416l-3.019.633a4.489,4.489,0,0,0-2,7.8c7.963,6.827,21.394,14.744,23.9,16.392,6.217,4.089,19.967,9.817,19.967,9.817A3.539,3.539,0,0,0,620.4,1042.778Z" transform="translate(-567.056 -981.339)" fill="#aec3ff"/>
          <path id="Trazado_114487" data-name="Trazado 114487" d="M613.124,926.359c-4.6.258-7.587-3.538-7.587-3.538a36.5,36.5,0,0,0,3.212-2l3.943,2A32.655,32.655,0,0,1,613.124,926.359Z" transform="translate(-594.934 -904.252)" fill="#ea8e50"/>
          <path id="Trazado_114488" data-name="Trazado 114488" d="M587.205,851.177s-6.966,5-10.012.613-6-6.694-1.678-10.072,6.355-2.31,7.728-1.094S588.939,849.764,587.205,851.177Z" transform="translate(-567.056 -833.791)" fill="#ffb07b"/>
          <path id="Trazado_114489" data-name="Trazado 114489" d="M543.39,800.13a11.218,11.218,0,0,0-.812-2.873s-.437,1.811-3.747,1.561-8.555.326-10.3,4.1q-.167.36-.3.74a8.729,8.729,0,0,1-.393-2.089,6.438,6.438,0,0,0,0,3.654h0c-.01.059-.017.119-.026.178a7.371,7.371,0,0,0-1.344,2.537,2.3,2.3,0,0,1,1.237-1.1c-.015,2.935,1.175,5.8,3.264,6.657,3.054,1.249,3.03.3,6.1,2.334,0,0,.824-1.022.262-1.709s-2.685-1.686-1.5-2.685,1.623.125,2.061-.562-1.748-2.685,1.062-4.558S543.64,801.816,543.39,800.13Z" transform="translate(-526.468 -797.258)" fill="#233862"/>
        </g>
        <g id="Grupo_80634" data-name="Grupo 80634" transform="translate(457.159 192.379)">
          <path id="Trazado_114490" data-name="Trazado 114490" d="M2577.189,1180.247a1.89,1.89,0,0,1,.664,1.055,8.139,8.139,0,0,1-.048,2.089c-.093,1.448,1.911,3.576,3.206,4.316s0-3.083,0-4.008a5.516,5.516,0,0,0-.678-3.7C2579.286,1177.9,2577.189,1180.247,2577.189,1180.247Z" transform="translate(-2502.241 -1114.035)" fill="#ffb27d"/>
          <path id="Trazado_114491" data-name="Trazado 114491" d="M2359.2,881.292a6.024,6.024,0,0,1,9.076-5.671c.086.052.17.1.254.159,6.247,4.021,18.246,20.374,20.022,23.629,1.851,3.391,4.3,17.869,4.3,17.869s-3.385,1.238-4.966-.046c0,0-5.294-12.556-7.239-14.71-2.05-2.269-21.012-12.751-21.191-17.2C2359.407,884.149,2359.313,882.736,2359.2,881.292Z" transform="translate(-2313.466 -850.476)" fill="#ed7d2b"/>
          <g id="Grupo_80633" data-name="Grupo 80633" transform="translate(37.747 67.79)">
            <path id="Trazado_114492" data-name="Trazado 114492" d="M2581.7,1735.486s2.519,2.3,2.027,3.932-2.765,2.723-3.072,4.718-1.535,3.085-2.641,3.085h-5.272s-.814-1.4,1.152-1.828,2.708-2.77,2.584-4.947a38.425,38.425,0,0,1,.185-5.082l4.178-.968Z" transform="translate(-2535.995 -1662.632)" fill="#224275"/>
            <path id="Trazado_114493" data-name="Trazado 114493" d="M2314.577,1773.78s.452,5.232-.654,5.776l-14.153-.029s0-1.634,2.273-2,6.266-1.694,6.942-4.658S2314.577,1773.78,2314.577,1773.78Z" transform="translate(-2299.771 -1694.98)" fill="#224275"/>
            <path id="Trazado_114494" data-name="Trazado 114494" d="M2321.08,1227.569s.747,9.17,1.624,20.194c1.193,14.974,2.626,33.367,2.768,36.851.245,6.051,1.229,15.729,1.229,15.729s2.333,2.3,7,1.33a156.153,156.153,0,0,0,5.351-28.434c.019-.24.037-.481.056-.722,1.106-14.882,2.825-46.218,2.825-46.218Z" transform="translate(-2318.222 -1222.669)" fill="#aec3ff"/>
            <path id="Trazado_114495" data-name="Trazado 114495" d="M2321.08,1227.569s.747,9.17,1.624,20.194l16.352,25.476c.019-.24.037-.481.056-.722,1.106-14.882,2.825-46.218,2.825-46.218Z" transform="translate(-2318.222 -1222.669)" fill="#91b0f2"/>
            <path id="Trazado_114496" data-name="Trazado 114496" d="M2346.5,1205.222s13.455,33.211,22.3,48.818S2380.414,1274,2380.414,1274s5.068-2,5.529-3.357c0,0-3.383-30.131-9.307-37.476-3.348-4.15-7.28-16.605-7.465-20.961s-1.2-12.976-1.2-12.976Z" transform="translate(-2340.235 -1199.233)" fill="#aec3ff"/>
          </g>
          <path id="Trazado_114497" data-name="Trazado 114497" d="M2340.713,801.76s-9.014,4.572-14.294,3.047a11.639,11.639,0,0,1,2.048-1.959,2.9,2.9,0,0,0,1.123-2.759c-.052-.329-.1-.638-.134-.928a19.606,19.606,0,0,1-.219-3.064l3.4-2.565,3.278-2.709A13.422,13.422,0,0,0,2340.713,801.76Z" transform="translate(-2285.099 -777.8)" fill="#ffb27d"/>
          <path id="Trazado_114498" data-name="Trazado 114498" d="M2320.311,900.619a37.143,37.143,0,0,1-11.118,4.789c-4.756,1.128-10.6.8-12.559,1.093a.811.811,0,0,1-.57-.144c-.154-.079-1.016-5.881-1.881-13.2-.039-.294-.079-.592-.1-.89l-.012-.1c-.337-2.863-.631-5.87-.887-8.884-.208-2.345-.38-4.665-.5-6.844-.15-2.726-.212-5.23-.15-7.29.028-.941.083-1.788.167-2.523a17.856,17.856,0,0,1,4.226-9.624l2.22-1.782a7.73,7.73,0,0,0,5.139-1.425c1.947-1.281,4.048-2.66,4.444-2.429,2.983,1.632,5.412,5.862,7.147,11.449a63.737,63.737,0,0,1,2.247,10.728c.156,1.2.29,2.429.393,3.654.02.227.037.453.055.676.234,3.349.616,6.488,1.04,9.29.57,3.78,1.219,6.946,1.678,9.176.231,1.135.406,2.013.51,2.642C2321.9,899.528,2320.8,900.314,2320.311,900.619Z" transform="translate(-2255.742 -830.201)" fill="#f99746"/>
          <path id="Trazado_114499" data-name="Trazado 114499" d="M2353.75,810.165s-2.217,4.239-6.573,5.5a35.888,35.888,0,0,1-.278-5.783l3.457.153Z" transform="translate(-2302.819 -794.302)" fill="#ed985f"/>
          <path id="Trazado_114500" data-name="Trazado 114500" d="M2322.732,732.268s8.145,3.331,10.136-1.689,4.384-7.971-.732-10.311-6.893-.821-7.972.692S2320.665,731.272,2322.732,732.268Z" transform="translate(-2281.206 -715.661)" fill="#ffb27d"/>
          <path id="Trazado_114501" data-name="Trazado 114501" d="M2333.8,699.084c.1-.07.291-.1.69-.032a1.642,1.642,0,0,0-.689-.377,2.035,2.035,0,0,0-.914-2.058,1.214,1.214,0,0,1,.377.985c-.835-1.374-2.989-2.73-9.593-3.71-8.7-1.292-7.146,4.83-6.189,5.737s4.154-.241,6.178.4,1.731,3.708,2.337,4.277.5-.216,1.542-.427.774,1.379.266,2.336.483,2.6.483,2.6l1.639-1.113c1.64-1.113,4.257-6.822,3.954-8.238Q2333.838,699.275,2333.8,699.084Z" transform="translate(-2276.7 -693.714)" fill="#2c3a64"/>
          <path id="Trazado_114502" data-name="Trazado 114502" d="M2307.821,984.613s-7.345,5.588-15.131,6.813c-.15-2.726-.212-5.23-.15-7.29Z" transform="translate(-2255.742 -945.191)" fill="#ed7d2b"/>
          <path id="Trazado_114503" data-name="Trazado 114503" d="M2026.9,802.967c-.074-.153-.022-5.379-2.6-5.8-1.685-.273-6.049-1.438-6.008.906.016.922,5.479,6.607,5.479,6.607Z" transform="translate(-2018.288 -782.837)" fill="#ffb27d"/>
          <path id="Trazado_114504" data-name="Trazado 114504" d="M2104.413,848.012a6.024,6.024,0,0,1-3.765,10.018c-.1.011-.2.02-.3.028-7.405.6-28.475-5.433-31.39-7.045-4.84-2.678-13.138-11.145-13.138-11.145s1.936-3.039,3.973-2.98c0,0,11.108,7.075,15.085,7.922,2.683.571,24.037-3.269,26.881.154C2102.513,845.868,2103.446,846.934,2104.413,848.012Z" transform="translate(-2050.788 -817.687)" fill="#f99746"/>
          <path id="Trazado_114505" data-name="Trazado 114505" d="M2602.653,1197.414s.4.871.676,1.549.435,1.942.219,1.819a6.457,6.457,0,0,1-1.233-1.483C2602.068,1198.839,2602.653,1197.414,2602.653,1197.414Z" transform="translate(-2523.945 -1129.868)" fill="#ffb27d"/>
        </g>
        <g id="Grupo_80635" data-name="Grupo 80635" transform="translate(339.944 244.191)" opacity="0.5">
          <path id="Trazado_114506" data-name="Trazado 114506" d="M1270.139,1115.178s-2.561-21.454-13.555-34.256a2.4,2.4,0,0,0-4.21,1.624q0,.056,0,.113C1252.52,1086.485,1264.828,1102.629,1270.139,1115.178Z" transform="translate(-1237.868 -1080.088)" fill="#afcdfb" opacity="0.5"/>
          <path id="Trazado_114507" data-name="Trazado 114507" d="M1177.807,1135.22s-10.955-26.815-29.666-38.675a2.545,2.545,0,0,0-3.451.653c-.5.725-.722,1.858-.163,3.626C1146.018,1105.541,1166.885,1121.417,1177.807,1135.22Z" transform="translate(-1144.199 -1093.988)" fill="#afcdfb" opacity="0.5"/>
        </g>
        <path id="Trazado_114508" data-name="Trazado 114508" d="M960.682,1374.285c1.077-11.177,19.676-10.9,19.676-10.9s15.423,16.617,19.06,16.457-10.412-16.782-10.412-16.782c6.787-1.841,25.811,3.627,25.811,3.627s2.6,22,6.083,20.954-3.293-19.367-3.293-19.367c7.019.868,14.577,7.6,14.577,7.6,9.949,11.364-5.156,23.552-5.156,23.552a36.022,36.022,0,0,0,7.215,15.493h0a26.1,26.1,0,0,1,2.863,3.965l-1.821.31q-.347-.694-.734-1.329a.011.011,0,0,0-.005-.008l-.011-.018c-.173-.26-.42-.63-.726-1.08h0l0,0c-.741-.994-1.254-1.735-1.59-2.275l0-.005c-2.248-3.135-5.406-7.18-7.166-7.842a3.582,3.582,0,0,0,.247-.9l-.247.9c-1.981,7.208-17.374,10.971-26.359,10.666s-5.616-3.4-1.618-8.165,13.971-5.387,16.6-7.438-1.866-2.889-7.578-1.46-7.622,7.709-16.819,10.19-19.312-13.894-19.312-13.894c6.8.906,17.766-4.624,17.833-6.926s-17.036.836-19.821.622S959.606,1385.462,960.682,1374.285Z" transform="translate(-645.23 -1080.59)" fill="#afcdfb" opacity="0.5"/>
        <path id="Trazado_114509" data-name="Trazado 114509" d="M1918.413,1358.529c.179-8.26-13.435-9.668-13.435-9.668s-12.706,10.809-15.35,10.377,9.059-11.363,9.059-11.363c-4.8-1.932-19.174.42-19.174.42s-3.8,15.854-6.256,14.785,4.08-13.867,4.08-13.867c-5.2.028-11.308,4.293-11.308,4.293-8.252,7.444,1.733,17.656,1.733,17.656a26.506,26.506,0,0,1-6.611,10.7h0a19.222,19.222,0,0,0-2.435,2.65l1.3.384q.314-.478.652-.908a.01.01,0,0,1,0-.005l.01-.012c.149-.175.361-.424.624-.726h0c.628-.663,1.067-1.159,1.359-1.525l0,0c1.913-2.1,4.571-4.779,5.914-5.111a2.627,2.627,0,0,1-.1-.68c.033.217.067.443.1.68.825,5.438,11.747,9.518,18.339,10.072s4.4-2,1.888-5.827-9.744-5.144-11.487-6.869,1.613-1.95,5.663-.412,4.9,6.292,11.41,8.9,15.312-8.484,15.312-8.484c-5.045.075-12.582-4.915-12.432-6.6s12.376,2.083,14.43,2.168S1918.234,1366.79,1918.413,1358.529Z" transform="translate(-1422.955 -1067.115)" fill="#afcdfb" opacity="0.5"/>
        <g id="Grupo_80637" data-name="Grupo 80637" transform="translate(345.876 241.11)">
          <g id="Grupo_80636" data-name="Grupo 80636" transform="translate(0 0)">
            <path id="Trazado_114510" data-name="Trazado 114510" d="M1203.877,1399.071v10.453a3.736,3.736,0,0,1-3.8,3.639h-7.831a3.736,3.736,0,0,1-3.8-3.639v-10.453a3.736,3.736,0,0,1,3.8-3.639h7.831A3.736,3.736,0,0,1,1203.877,1399.071Z" transform="translate(-1188.438 -1350.064)" fill="#ed7d2b"/>
            <path id="Trazado_114511" data-name="Trazado 114511" d="M1203.877,1399.071v5.823a3.736,3.736,0,0,1-3.8,3.639h-7.831a3.736,3.736,0,0,1-3.8-3.639v-5.823a3.736,3.736,0,0,1,3.8-3.639h7.831A3.736,3.736,0,0,1,1203.877,1399.071Z" transform="translate(-1188.438 -1350.064)" fill="#f99746"/>
            <path id="Trazado_114512" data-name="Trazado 114512" d="M1350.324,1210.35a37.084,37.084,0,0,1-3.209,15.1c-6.2,13.95-20.685,23.8-37.461,23.8h-11.627c-.7,0-1.389-.017-2.079-.05a41.557,41.557,0,0,1-22.732-8.083,39.948,39.948,0,0,1-10.186-11.014,37.2,37.2,0,0,1-2.462-34.859c6.195-13.948,20.683-23.8,37.459-23.8h11.627a41.089,41.089,0,0,1,35.576,20.11A37.271,37.271,0,0,1,1350.324,1210.35Z" transform="translate(-1248.116 -1156.118)" fill="#ed7d2b"/>
            <path id="Trazado_114513" data-name="Trazado 114513" d="M1673.508,1593.942l-3.794,23.561a2.908,2.908,0,0,0,2.909,3.612h9.969a5.744,5.744,0,0,0,5.074-2.959l15.495-29.562Z" transform="translate(-1605.088 -1517.323)" fill="#ed7d2b"/>
            <path id="Trazado_114514" data-name="Trazado 114514" d="M1330.59,1638.651h-9.969a5.742,5.742,0,0,1-5.074-2.959l-9.583-16.183-6.315-10.663,30.808,3.037,1.114,8.469,1,7.591.932,7.1A2.909,2.909,0,0,1,1330.59,1638.651Z" transform="translate(-1284.736 -1534.859)" fill="#ed7d2b"/>
            <path id="Trazado_114515" data-name="Trazado 114515" d="M1344.2,1205.854c-8.209,22.581-15.977,34.653-47.442,35.7q-.916.03-1.809.053a209.286,209.286,0,0,1-21.735-.492c-1.415-.111-2.706-.231-3.871-.351l-6.315-10.663a37.2,37.2,0,0,1-2.462-34.859c6.195-13.948,20.683-23.8,37.459-23.8h11.627a41.089,41.089,0,0,1,35.576,20.11A30.514,30.514,0,0,1,1344.2,1205.854Z" transform="translate(-1248.116 -1156.118)" fill="#f99746"/>
            <path id="Trazado_114516" data-name="Trazado 114516" d="M1402.729,1082.193h-16c-1.613,0-2.921-.937-2.921-2.093V1059.21a1.633,1.633,0,0,1,.319-.962,3.611,3.611,0,0,1,4.368-.7c6.073,3.293,16.023,10.449,17.143,22.416C1405.756,1081.167,1404.419,1082.193,1402.729,1082.193Z" transform="translate(-1357.613 -1057.114)" fill="#f99746"/>
            <path id="Trazado_114517" data-name="Trazado 114517" d="M1387.383,1089.51h-.65c-1.613,0-2.921-.937-2.921-2.092v-20.891a1.633,1.633,0,0,1,.319-.962,2.033,2.033,0,0,1,.2.184,25.5,25.5,0,0,1,7.072,21.151C1391.2,1088.381,1389.459,1089.51,1387.383,1089.51Z" transform="translate(-1357.613 -1064.432)" fill="#ed7d2b"/>
            <path id="Trazado_114518" data-name="Trazado 114518" d="M1347.571,1333.551a2.386,2.386,0,1,1,2.384,2.28A2.333,2.333,0,0,1,1347.571,1333.551Z" transform="translate(-1326.231 -1294.507)" fill="#2b478b"/>
          </g>
        </g>
        <path id="Trazado_114519" data-name="Trazado 114519" d="M1705.736,1797.234v2.436a.829.829,0,0,0,.192.524,1.11,1.11,0,0,0,.525.351,1.219,1.219,0,0,0,.2.048,1.291,1.291,0,0,0,.2.015h46.212a1.055,1.055,0,0,0,1.117-.891c0-.016,0-.032,0-.048v-2.436c0-.016,0-.032,0-.049a1.056,1.056,0,0,0-1.117-.891h-46.212a1.291,1.291,0,0,0-.2.015,1.173,1.173,0,0,0-.2.048,1.11,1.11,0,0,0-.525.351A.829.829,0,0,0,1705.736,1797.234Z" transform="translate(-1290.49 -1456.061)" fill="#ffc76c"/>
        <path id="Trazado_114520" data-name="Trazado 114520" d="M1874.957,1800.609h24.758a.977.977,0,0,0,1-.891c0-.016,0-.032,0-.048v-2.436c0-.016,0-.032,0-.049a.977.977,0,0,0-1-.891H1878A7.563,7.563,0,0,1,1874.957,1800.609Z" transform="translate(-1437.019 -1456.061)" fill="#ffae39"/>
        <g id="Grupo_80638" data-name="Grupo 80638" transform="translate(415.437 340.234)">
          <rect id="Rectángulo_33945" data-name="Rectángulo 33945" width="0.525" height="4.314" transform="translate(5.957 4.314) rotate(180)" fill="#ffa412"/>
          <rect id="Rectángulo_33946" data-name="Rectángulo 33946" width="0.525" height="4.314" transform="translate(7.735 4.314) rotate(180)" fill="#ffa412"/>
          <rect id="Rectángulo_33947" data-name="Rectángulo 33947" width="0.525" height="4.314" transform="translate(9.867 4.314) rotate(180)" fill="#ffa412"/>
          <rect id="Rectángulo_33948" data-name="Rectángulo 33948" width="0.525" height="4.314" transform="translate(13.135 4.314) rotate(180)" fill="#ffa412"/>
          <rect id="Rectángulo_33949" data-name="Rectángulo 33949" width="0.525" height="4.314" transform="translate(16.59 4.314) rotate(180)" fill="#ffa412"/>
          <rect id="Rectángulo_33950" data-name="Rectángulo 33950" width="0.525" height="4.314" transform="translate(21.888 4.314) rotate(180)" fill="#ffa412"/>
          <rect id="Rectángulo_33951" data-name="Rectángulo 33951" width="0.525" height="4.314" transform="translate(26.848 4.314) rotate(180)" fill="#ffa412"/>
          <rect id="Rectángulo_33952" data-name="Rectángulo 33952" width="0.525" height="4.314" transform="translate(31.277 4.314) rotate(180)" fill="#ffa412"/>
          <rect id="Rectángulo_33953" data-name="Rectángulo 33953" width="0.525" height="4.314" transform="translate(4.264 4.314) rotate(180)" fill="#ffa412"/>
          <rect id="Rectángulo_33954" data-name="Rectángulo 33954" width="0.525" height="4.314" transform="translate(3.146 4.314) rotate(180)" fill="#ffa412"/>
          <rect id="Rectángulo_33955" data-name="Rectángulo 33955" width="0.525" height="4.314" transform="translate(2.067 4.314) rotate(180)" fill="#ffa412"/>
          <path id="Trazado_114521" data-name="Trazado 114521" d="M1712.6,1796.31v4.284a1.289,1.289,0,0,0,.2.015h.328v-4.314h-.328A1.289,1.289,0,0,0,1712.6,1796.31Z" transform="translate(-1711.875 -1796.295)" fill="#ffa412"/>
          <path id="Trazado_114522" data-name="Trazado 114522" d="M1707.165,1797.119v3.485a1.115,1.115,0,0,0,.525.351v-4.187A1.114,1.114,0,0,0,1707.165,1797.119Z" transform="translate(-1707.165 -1796.704)" fill="#ffa412"/>
        </g>
        <path id="Trazado_114523" data-name="Trazado 114523" d="M1742.581,1765.062v2.436a.829.829,0,0,0,.192.524,1.109,1.109,0,0,0,.525.351,1.178,1.178,0,0,0,.2.048,1.333,1.333,0,0,0,.2.015h46.212a1.056,1.056,0,0,0,1.117-.891c0-.016,0-.032,0-.048v-2.436c0-.016,0-.032,0-.048a1.056,1.056,0,0,0-1.117-.891H1743.7c-.03,0-.059,0-.088,0l-.037,0-.042,0-.03,0a1.237,1.237,0,0,0-.2.049l-.029.01-.028.01-.056.023-.032.015-.029.014-.053.028-.057.036-.043.03,0,0-.028.021a.84.84,0,0,0-.081.07l-.022.022-.022.022c-.014.016-.029.032-.041.048A.828.828,0,0,0,1742.581,1765.062Z" transform="translate(-1322.395 -1428.203)" fill="#ffc76c"/>
        <path id="Trazado_114524" data-name="Trazado 114524" d="M1911.8,1768.437h24.757a.977.977,0,0,0,1-.891c0-.016,0-.032,0-.048v-2.436c0-.016,0-.032,0-.048a.977.977,0,0,0-1-.891h-21.717c-.01.036-.02.071-.03.107A7.547,7.547,0,0,1,1911.8,1768.437Z" transform="translate(-1468.924 -1428.203)" fill="#ffae39"/>
        <g id="Grupo_80639" data-name="Grupo 80639" transform="translate(420.378 335.92)">
          <rect id="Rectángulo_33956" data-name="Rectángulo 33956" width="0.525" height="4.314" transform="translate(5.957 4.314) rotate(180)" fill="#ffa412"/>
          <rect id="Rectángulo_33957" data-name="Rectángulo 33957" width="0.525" height="4.314" transform="translate(7.735 4.314) rotate(180)" fill="#ffa412"/>
          <rect id="Rectángulo_33958" data-name="Rectángulo 33958" width="0.525" height="4.314" transform="translate(9.867 4.314) rotate(180)" fill="#ffa412"/>
          <rect id="Rectángulo_33959" data-name="Rectángulo 33959" width="0.525" height="4.314" transform="translate(13.135 4.314) rotate(180)" fill="#ffa412"/>
          <rect id="Rectángulo_33960" data-name="Rectángulo 33960" width="0.525" height="4.314" transform="translate(16.59 4.314) rotate(180)" fill="#ffa412"/>
          <rect id="Rectángulo_33961" data-name="Rectángulo 33961" width="0.525" height="4.314" transform="translate(21.888 4.314) rotate(180)" fill="#ffa412"/>
          <rect id="Rectángulo_33962" data-name="Rectángulo 33962" width="0.525" height="4.314" transform="translate(26.848 4.314) rotate(180)" fill="#ffa412"/>
          <rect id="Rectángulo_33963" data-name="Rectángulo 33963" width="0.525" height="4.314" transform="translate(31.278 4.314) rotate(180)" fill="#ffa412"/>
          <rect id="Rectángulo_33964" data-name="Rectángulo 33964" width="0.525" height="4.314" transform="translate(4.264 4.314) rotate(180)" fill="#ffa412"/>
          <rect id="Rectángulo_33965" data-name="Rectángulo 33965" width="0.525" height="4.314" transform="translate(3.146 4.314) rotate(180)" fill="#ffa412"/>
          <rect id="Rectángulo_33966" data-name="Rectángulo 33966" width="0.525" height="4.314" transform="translate(2.067 4.314) rotate(180)" fill="#ffa412"/>
          <path id="Trazado_114525" data-name="Trazado 114525" d="M1749.449,1764.138v4.284a1.293,1.293,0,0,0,.2.015h.328v-4.314h-.328A1.309,1.309,0,0,0,1749.449,1764.138Z" transform="translate(-1748.719 -1764.123)" fill="#ffa412"/>
          <path id="Trazado_114526" data-name="Trazado 114526" d="M1744.01,1764.946v3.485a1.116,1.116,0,0,0,.525.352V1764.6A1.117,1.117,0,0,0,1744.01,1764.946Z" transform="translate(-1744.01 -1764.532)" fill="#ffa412"/>
        </g>
        <path id="Trazado_114527" data-name="Trazado 114527" d="M1724.776,1733.684v2.436a.829.829,0,0,0,.192.524,1.107,1.107,0,0,0,.525.351,1.172,1.172,0,0,0,.2.049,1.325,1.325,0,0,0,.2.015h46.212a1.274,1.274,0,0,0,.515-.107.958.958,0,0,0,.6-.742c0-.014,0-.028,0-.042s0-.032,0-.048v-2.436c0-.016,0-.032,0-.048a1.056,1.056,0,0,0-1.117-.891h-46.212a1.293,1.293,0,0,0-.2.015,1.217,1.217,0,0,0-.2.048,1.113,1.113,0,0,0-.525.351A.83.83,0,0,0,1724.776,1733.684Z" transform="translate(-1306.977 -1401.033)" fill="#ffc76c"/>
        <path id="Trazado_114528" data-name="Trazado 114528" d="M1894,1737.059h24.757a1.031,1.031,0,0,0,.46-.107.941.941,0,0,0,.533-.742.378.378,0,0,0,0-.042c0-.016,0-.032,0-.048v-2.436c0-.016,0-.032,0-.048a.977.977,0,0,0-1-.891h-21.717a7.572,7.572,0,0,1-2.888,4.208Z" transform="translate(-1453.506 -1401.033)" fill="#ffae39"/>
        <g id="Grupo_80640" data-name="Grupo 80640" transform="translate(417.991 331.712)">
          <rect id="Rectángulo_33967" data-name="Rectángulo 33967" width="0.525" height="4.314" transform="translate(5.957 4.314) rotate(180)" fill="#ffa412"/>
          <rect id="Rectángulo_33968" data-name="Rectángulo 33968" width="0.525" height="4.314" transform="translate(7.735 4.314) rotate(180)" fill="#ffa412"/>
          <rect id="Rectángulo_33969" data-name="Rectángulo 33969" width="0.525" height="4.314" transform="translate(9.867 4.314) rotate(180)" fill="#ffa412"/>
          <rect id="Rectángulo_33970" data-name="Rectángulo 33970" width="0.525" height="4.314" transform="translate(13.135 4.314) rotate(180)" fill="#ffa412"/>
          <rect id="Rectángulo_33971" data-name="Rectángulo 33971" width="0.525" height="4.314" transform="translate(16.59 4.314) rotate(180)" fill="#ffa412"/>
          <rect id="Rectángulo_33972" data-name="Rectángulo 33972" width="0.525" height="4.314" transform="translate(21.888 4.314) rotate(180)" fill="#ffa412"/>
          <rect id="Rectángulo_33973" data-name="Rectángulo 33973" width="0.525" height="4.314" transform="translate(26.848 4.314) rotate(180)" fill="#ffa412"/>
          <rect id="Rectángulo_33974" data-name="Rectángulo 33974" width="0.525" height="4.314" transform="translate(31.278 4.314) rotate(180)" fill="#ffa412"/>
          <rect id="Rectángulo_33975" data-name="Rectángulo 33975" width="0.525" height="4.314" transform="translate(4.264 4.314) rotate(180)" fill="#ffa412"/>
          <rect id="Rectángulo_33976" data-name="Rectángulo 33976" width="0.525" height="4.314" transform="translate(3.146 4.314) rotate(180)" fill="#ffa412"/>
          <rect id="Rectángulo_33977" data-name="Rectángulo 33977" width="0.525" height="4.314" transform="translate(2.067 4.314) rotate(180)" fill="#ffa412"/>
          <path id="Trazado_114529" data-name="Trazado 114529" d="M1731.644,1732.76v4.284a1.321,1.321,0,0,0,.2.015h.328v-4.314h-.328A1.289,1.289,0,0,0,1731.644,1732.76Z" transform="translate(-1730.914 -1732.745)" fill="#ffa412"/>
          <path id="Trazado_114530" data-name="Trazado 114530" d="M1726.2,1733.568v3.485a1.116,1.116,0,0,0,.525.351v-4.187A1.111,1.111,0,0,0,1726.2,1733.568Z" transform="translate(-1726.205 -1733.154)" fill="#ffa412"/>
        </g>
        <path id="Trazado_114531" data-name="Trazado 114531" d="M1716.522,1701.513v2.436a.83.83,0,0,0,.192.524,1.11,1.11,0,0,0,.525.351,1.2,1.2,0,0,0,.2.048,1.262,1.262,0,0,0,.2.015h46.212a1.056,1.056,0,0,0,1.117-.891c0-.016,0-.032,0-.048v-2.436c0-.016,0-.032,0-.048a1.031,1.031,0,0,0-.985-.884,1.268,1.268,0,0,0-.132-.006H1717.64a1.292,1.292,0,0,0-.2.015,1.2,1.2,0,0,0-.2.048,1.112,1.112,0,0,0-.525.351A.829.829,0,0,0,1716.522,1701.513Z" transform="translate(-1299.83 -1373.176)" fill="#ffc76c"/>
        <path id="Trazado_114532" data-name="Trazado 114532" d="M1885.743,1704.888H1910.5a.977.977,0,0,0,1-.891c0-.016,0-.032,0-.048v-2.436c0-.016,0-.032,0-.048a.97.97,0,0,0-.879-.884,1.008,1.008,0,0,0-.118-.006h-21.717l0,.006A7.564,7.564,0,0,1,1885.743,1704.888Z" transform="translate(-1446.358 -1373.176)" fill="#ffae39"/>
        <g id="Grupo_80641" data-name="Grupo 80641" transform="translate(416.884 327.398)">
          <rect id="Rectángulo_33978" data-name="Rectángulo 33978" width="0.525" height="4.314" transform="translate(5.957 4.314) rotate(180)" fill="#ffa412"/>
          <rect id="Rectángulo_33979" data-name="Rectángulo 33979" width="0.525" height="4.314" transform="translate(7.735 4.314) rotate(180)" fill="#ffa412"/>
          <rect id="Rectángulo_33980" data-name="Rectángulo 33980" width="0.525" height="4.314" transform="translate(9.867 4.314) rotate(180)" fill="#ffa412"/>
          <rect id="Rectángulo_33981" data-name="Rectángulo 33981" width="0.525" height="4.314" transform="translate(13.135 4.314) rotate(180)" fill="#ffa412"/>
          <rect id="Rectángulo_33982" data-name="Rectángulo 33982" width="0.525" height="4.314" transform="translate(16.59 4.314) rotate(180)" fill="#ffa412"/>
          <rect id="Rectángulo_33983" data-name="Rectángulo 33983" width="0.525" height="4.314" transform="translate(21.888 4.314) rotate(180)" fill="#ffa412"/>
          <rect id="Rectángulo_33984" data-name="Rectángulo 33984" width="0.525" height="4.314" transform="translate(26.848 4.314) rotate(180)" fill="#ffa412"/>
          <rect id="Rectángulo_33985" data-name="Rectángulo 33985" width="0.525" height="4.314" transform="translate(31.278 4.314) rotate(180)" fill="#ffa412"/>
          <rect id="Rectángulo_33986" data-name="Rectángulo 33986" width="0.525" height="4.314" transform="translate(4.264 4.314) rotate(180)" fill="#ffa412"/>
          <rect id="Rectángulo_33987" data-name="Rectángulo 33987" width="0.525" height="4.314" transform="translate(3.147 4.314) rotate(180)" fill="#ffa412"/>
          <rect id="Rectángulo_33988" data-name="Rectángulo 33988" width="0.525" height="4.314" transform="translate(2.067 4.314) rotate(180)" fill="#ffa412"/>
          <path id="Trazado_114533" data-name="Trazado 114533" d="M1723.389,1700.587v4.284a1.31,1.31,0,0,0,.2.015h.328v-4.314h-.328A1.279,1.279,0,0,0,1723.389,1700.587Z" transform="translate(-1722.659 -1700.572)" fill="#ffa412"/>
          <path id="Trazado_114534" data-name="Trazado 114534" d="M1717.95,1701.4v3.485a1.116,1.116,0,0,0,.525.351v-4.187A1.113,1.113,0,0,0,1717.95,1701.4Z" transform="translate(-1717.95 -1700.982)" fill="#ffa412"/>
        </g>
        <path id="Trazado_114535" data-name="Trazado 114535" d="M1741.857,1669.392v2.436a.831.831,0,0,0,.192.524,1.114,1.114,0,0,0,.525.351,1.205,1.205,0,0,0,.2.048l.065.008.036,0,.036,0h46.271a1.056,1.056,0,0,0,1.117-.891c0-.016,0-.032,0-.048v-2.436c0-.016,0-.032,0-.049s0-.026,0-.039a1.012,1.012,0,0,0-.838-.822l-.034-.007a1.343,1.343,0,0,0-.242-.022h-46.212c-.034,0-.067,0-.1,0l-.045,0h0l-.052.007a1.229,1.229,0,0,0-.2.048,1.114,1.114,0,0,0-.525.351A.831.831,0,0,0,1741.857,1669.392Z" transform="translate(-1321.768 -1345.363)" fill="#ffc76c"/>
        <path id="Trazado_114536" data-name="Trazado 114536" d="M1911.079,1672.767h24.757a.978.978,0,0,0,1-.891c0-.016,0-.032,0-.048v-2.436c0-.016,0-.032,0-.049s0-.026,0-.039a.964.964,0,0,0-.774-.828l-.042-.008a1.057,1.057,0,0,0-.177-.015h-21.717l-.009.031a7.557,7.557,0,0,1-3.022,4.277Z" transform="translate(-1468.297 -1345.363)" fill="#ffae39"/>
        <g id="Grupo_80642" data-name="Grupo 80642" transform="translate(420.281 323.09)">
          <rect id="Rectángulo_33989" data-name="Rectángulo 33989" width="0.525" height="4.314" transform="translate(5.957 4.314) rotate(180)" fill="#ffa412"/>
          <rect id="Rectángulo_33990" data-name="Rectángulo 33990" width="0.525" height="4.314" transform="translate(7.735 4.314) rotate(180)" fill="#ffa412"/>
          <rect id="Rectángulo_33991" data-name="Rectángulo 33991" width="0.525" height="4.314" transform="translate(9.867 4.314) rotate(180)" fill="#ffa412"/>
          <rect id="Rectángulo_33992" data-name="Rectángulo 33992" width="0.525" height="4.314" transform="translate(13.135 4.314) rotate(180)" fill="#ffa412"/>
          <rect id="Rectángulo_33993" data-name="Rectángulo 33993" width="0.525" height="4.314" transform="translate(16.59 4.314) rotate(180)" fill="#ffa412"/>
          <rect id="Rectángulo_33994" data-name="Rectángulo 33994" width="0.525" height="4.314" transform="translate(21.888 4.314) rotate(180)" fill="#ffa412"/>
          <rect id="Rectángulo_33995" data-name="Rectángulo 33995" width="0.525" height="4.314" transform="translate(26.848 4.314) rotate(180)" fill="#ffa412"/>
          <rect id="Rectángulo_33996" data-name="Rectángulo 33996" width="0.525" height="4.314" transform="translate(31.278 4.314) rotate(180)" fill="#ffa412"/>
          <rect id="Rectángulo_33997" data-name="Rectángulo 33997" width="0.525" height="4.314" transform="translate(4.264 4.314) rotate(180)" fill="#ffa412"/>
          <rect id="Rectángulo_33998" data-name="Rectángulo 33998" width="0.525" height="4.314" transform="translate(3.147 4.314) rotate(180)" fill="#ffa412"/>
          <rect id="Rectángulo_33999" data-name="Rectángulo 33999" width="0.525" height="4.314" transform="translate(2.067 4.314) rotate(180)" fill="#ffa412"/>
          <path id="Trazado_114537" data-name="Trazado 114537" d="M1748.725,1668.466v4.284a1.274,1.274,0,0,0,.2.015h.328v-4.314h-.328A1.274,1.274,0,0,0,1748.725,1668.466Z" transform="translate(-1747.995 -1668.451)" fill="#ffa412"/>
          <path id="Trazado_114538" data-name="Trazado 114538" d="M1743.286,1669.276v3.485a1.113,1.113,0,0,0,.525.351v-4.187A1.109,1.109,0,0,0,1743.286,1669.276Z" transform="translate(-1743.286 -1668.861)" fill="#ffa412"/>
        </g>
        <path id="Trazado_114539" data-name="Trazado 114539" d="M1742.581,1637.449v2.436a.829.829,0,0,0,.192.524,1.178,1.178,0,0,0,.684.392h0l.044.008a1.3,1.3,0,0,0,.2.015h46.212a1.222,1.222,0,0,0,.145-.009l.055-.007a1.016,1.016,0,0,0,.917-.875c0-.016,0-.032,0-.048v-2.436c0-.016,0-.032,0-.048a1.056,1.056,0,0,0-1.117-.891H1743.7c-.03,0-.059,0-.088,0l-.037,0-.042,0-.03,0a1.2,1.2,0,0,0-.2.048l-.029.01-.028.01-.056.023-.061.029-.053.028-.057.036-.043.03,0,0-.028.021a.937.937,0,0,0-.081.07l-.022.022-.022.023c-.014.016-.029.032-.041.048A.829.829,0,0,0,1742.581,1637.449Z" transform="translate(-1322.395 -1317.703)" fill="#ffc76c"/>
        <path id="Trazado_114540" data-name="Trazado 114540" d="M1911.8,1640.825h24.757l.059,0,.064-.006a.968.968,0,0,0,.875-.884c0-.016,0-.032,0-.048v-2.436c0-.016,0-.032,0-.048a.977.977,0,0,0-1-.891h-21.717c-.01.035-.02.071-.03.107a7.552,7.552,0,0,1-2.966,4.177Z" transform="translate(-1468.924 -1317.703)" fill="#ffae39"/>
        <g id="Grupo_80643" data-name="Grupo 80643" transform="translate(420.378 318.807)">
          <rect id="Rectángulo_34000" data-name="Rectángulo 34000" width="0.525" height="4.314" transform="translate(5.957 4.314) rotate(180)" fill="#ffa412"/>
          <rect id="Rectángulo_34001" data-name="Rectángulo 34001" width="0.525" height="4.314" transform="translate(7.735 4.314) rotate(180)" fill="#ffa412"/>
          <rect id="Rectángulo_34002" data-name="Rectángulo 34002" width="0.525" height="4.314" transform="translate(9.867 4.314) rotate(180)" fill="#ffa412"/>
          <rect id="Rectángulo_34003" data-name="Rectángulo 34003" width="0.525" height="4.314" transform="translate(13.135 4.314) rotate(180)" fill="#ffa412"/>
          <rect id="Rectángulo_34004" data-name="Rectángulo 34004" width="0.525" height="4.314" transform="translate(16.59 4.314) rotate(180)" fill="#ffa412"/>
          <rect id="Rectángulo_34005" data-name="Rectángulo 34005" width="0.525" height="4.314" transform="translate(21.888 4.314) rotate(180)" fill="#ffa412"/>
          <rect id="Rectángulo_34006" data-name="Rectángulo 34006" width="0.525" height="4.314" transform="translate(26.848 4.314) rotate(180)" fill="#ffa412"/>
          <rect id="Rectángulo_34007" data-name="Rectángulo 34007" width="0.525" height="4.314" transform="translate(31.278 4.314) rotate(180)" fill="#ffa412"/>
          <rect id="Rectángulo_34008" data-name="Rectángulo 34008" width="0.525" height="4.314" transform="translate(4.264 4.314) rotate(180)" fill="#ffa412"/>
          <rect id="Rectángulo_34009" data-name="Rectángulo 34009" width="0.525" height="4.314" transform="translate(3.146 4.314) rotate(180)" fill="#ffa412"/>
          <rect id="Rectángulo_34010" data-name="Rectángulo 34010" width="0.525" height="4.314" transform="translate(2.067 4.314) rotate(180)" fill="#ffa412"/>
          <path id="Trazado_114541" data-name="Trazado 114541" d="M1749.449,1636.525v4.284a1.293,1.293,0,0,0,.2.015h.328v-4.314h-.328A1.278,1.278,0,0,0,1749.449,1636.525Z" transform="translate(-1748.719 -1636.51)" fill="#ffa412"/>
          <path id="Trazado_114542" data-name="Trazado 114542" d="M1744.01,1637.334v3.485a1.114,1.114,0,0,0,.525.352v-4.187A1.119,1.119,0,0,0,1744.01,1637.334Z" transform="translate(-1744.01 -1636.919)" fill="#ffa412"/>
        </g>
        <path id="Trazado_114543" data-name="Trazado 114543" d="M1724.776,1606.071v2.437a.829.829,0,0,0,.192.524,1.112,1.112,0,0,0,.525.351,1.206,1.206,0,0,0,.2.048,1.277,1.277,0,0,0,.2.015h46.212a1.282,1.282,0,0,0,.515-.106.96.96,0,0,0,.6-.742c0-.014,0-.028,0-.042s0-.032,0-.048v-2.437c0-.016,0-.032,0-.048a1.056,1.056,0,0,0-1.117-.89h-46.212a1.309,1.309,0,0,0-.2.015,1.171,1.171,0,0,0-.2.048,1.115,1.115,0,0,0-.525.351A.829.829,0,0,0,1724.776,1606.071Z" transform="translate(-1306.977 -1290.533)" fill="#ffc76c"/>
        <path id="Trazado_114544" data-name="Trazado 114544" d="M1894,1609.446h24.757a1.038,1.038,0,0,0,.46-.106.943.943,0,0,0,.533-.742.378.378,0,0,0,0-.042c0-.016,0-.032,0-.048v-2.437c0-.016,0-.032,0-.048a.977.977,0,0,0-1-.89h-21.717a7.573,7.573,0,0,1-2.888,4.208Z" transform="translate(-1453.506 -1290.533)" fill="#ffae39"/>
        <g id="Grupo_80644" data-name="Grupo 80644" transform="translate(417.991 314.599)">
          <rect id="Rectángulo_34011" data-name="Rectángulo 34011" width="0.525" height="4.314" transform="translate(5.957 4.314) rotate(180)" fill="#ffa412"/>
          <rect id="Rectángulo_34012" data-name="Rectángulo 34012" width="0.525" height="4.314" transform="translate(7.735 4.314) rotate(180)" fill="#ffa412"/>
          <rect id="Rectángulo_34013" data-name="Rectángulo 34013" width="0.525" height="4.314" transform="translate(9.867 4.314) rotate(180)" fill="#ffa412"/>
          <rect id="Rectángulo_34014" data-name="Rectángulo 34014" width="0.525" height="4.314" transform="translate(13.135 4.314) rotate(180)" fill="#ffa412"/>
          <rect id="Rectángulo_34015" data-name="Rectángulo 34015" width="0.525" height="4.314" transform="translate(16.59 4.314) rotate(180)" fill="#ffa412"/>
          <rect id="Rectángulo_34016" data-name="Rectángulo 34016" width="0.525" height="4.314" transform="translate(21.888 4.314) rotate(180)" fill="#ffa412"/>
          <rect id="Rectángulo_34017" data-name="Rectángulo 34017" width="0.525" height="4.314" transform="translate(26.848 4.314) rotate(180)" fill="#ffa412"/>
          <rect id="Rectángulo_34018" data-name="Rectángulo 34018" width="0.525" height="4.314" transform="translate(31.278 4.314) rotate(180)" fill="#ffa412"/>
          <rect id="Rectángulo_34019" data-name="Rectángulo 34019" width="0.525" height="4.314" transform="translate(4.264 4.314) rotate(180)" fill="#ffa412"/>
          <rect id="Rectángulo_34020" data-name="Rectángulo 34020" width="0.525" height="4.314" transform="translate(3.146 4.314) rotate(180)" fill="#ffa412"/>
          <rect id="Rectángulo_34021" data-name="Rectángulo 34021" width="0.525" height="4.314" transform="translate(2.067 4.314) rotate(180)" fill="#ffa412"/>
          <path id="Trazado_114545" data-name="Trazado 114545" d="M1731.644,1605.148v4.284a1.273,1.273,0,0,0,.2.015h.328v-4.314h-.328A1.273,1.273,0,0,0,1731.644,1605.148Z" transform="translate(-1730.914 -1605.133)" fill="#ffa412"/>
          <path id="Trazado_114546" data-name="Trazado 114546" d="M1726.2,1605.956v3.484a1.112,1.112,0,0,0,.525.352V1605.6A1.111,1.111,0,0,0,1726.2,1605.956Z" transform="translate(-1726.205 -1605.541)" fill="#ffa412"/>
        </g>
        <path id="Trazado_114547" data-name="Trazado 114547" d="M1696.615,1573.9v2.436a.829.829,0,0,0,.192.524,1.114,1.114,0,0,0,.525.352,1.224,1.224,0,0,0,.2.048,1.31,1.31,0,0,0,.2.015h46.212a1.055,1.055,0,0,0,1.117-.891c0-.016,0-.032,0-.048V1573.9c0-.016,0-.032,0-.048a1.03,1.03,0,0,0-.984-.884,1.28,1.28,0,0,0-.132-.007h-46.212a1.3,1.3,0,0,0-.2.015,1.212,1.212,0,0,0-.2.048,1.111,1.111,0,0,0-.525.351A.83.83,0,0,0,1696.615,1573.9Z" transform="translate(-1282.592 -1262.676)" fill="#ffc76c"/>
        <path id="Trazado_114548" data-name="Trazado 114548" d="M1865.836,1577.275h24.758a.977.977,0,0,0,1-.891c0-.016,0-.032,0-.048V1573.9c0-.016,0-.032,0-.048a.969.969,0,0,0-.879-.884,1.01,1.01,0,0,0-.118-.007h-21.717l0,.007A7.564,7.564,0,0,1,1865.836,1577.275Z" transform="translate(-1429.121 -1262.676)" fill="#ffae39"/>
        <g id="Grupo_80645" data-name="Grupo 80645" transform="translate(414.214 310.285)">
          <rect id="Rectángulo_34022" data-name="Rectángulo 34022" width="0.525" height="4.314" transform="translate(5.957 4.314) rotate(180)" fill="#ffa412"/>
          <rect id="Rectángulo_34023" data-name="Rectángulo 34023" width="0.525" height="4.314" transform="translate(7.735 4.314) rotate(180)" fill="#ffa412"/>
          <rect id="Rectángulo_34024" data-name="Rectángulo 34024" width="0.525" height="4.314" transform="translate(9.867 4.314) rotate(180)" fill="#ffa412"/>
          <rect id="Rectángulo_34025" data-name="Rectángulo 34025" width="0.525" height="4.314" transform="translate(13.135 4.314) rotate(180)" fill="#ffa412"/>
          <rect id="Rectángulo_34026" data-name="Rectángulo 34026" width="0.525" height="4.314" transform="translate(16.59 4.314) rotate(180)" fill="#ffa412"/>
          <rect id="Rectángulo_34027" data-name="Rectángulo 34027" width="0.525" height="4.314" transform="translate(21.888 4.314) rotate(180)" fill="#ffa412"/>
          <rect id="Rectángulo_34028" data-name="Rectángulo 34028" width="0.525" height="4.314" transform="translate(26.848 4.314) rotate(180)" fill="#ffa412"/>
          <rect id="Rectángulo_34029" data-name="Rectángulo 34029" width="0.525" height="4.314" transform="translate(31.277 4.314) rotate(180)" fill="#ffa412"/>
          <rect id="Rectángulo_34030" data-name="Rectángulo 34030" width="0.525" height="4.314" transform="translate(4.264 4.314) rotate(180)" fill="#ffa412"/>
          <rect id="Rectángulo_34031" data-name="Rectángulo 34031" width="0.525" height="4.314" transform="translate(3.147 4.314) rotate(180)" fill="#ffa412"/>
          <rect id="Rectángulo_34032" data-name="Rectángulo 34032" width="0.525" height="4.314" transform="translate(2.067 4.314) rotate(180)" fill="#ffa412"/>
          <path id="Trazado_114549" data-name="Trazado 114549" d="M1703.48,1572.975v4.284a1.31,1.31,0,0,0,.2.015h.328v-4.314h-.328A1.31,1.31,0,0,0,1703.48,1572.975Z" transform="translate(-1702.751 -1572.96)" fill="#ffa412"/>
          <path id="Trazado_114550" data-name="Trazado 114550" d="M1698.042,1573.784v3.485a1.112,1.112,0,0,0,.525.352v-4.187A1.113,1.113,0,0,0,1698.042,1573.784Z" transform="translate(-1698.042 -1573.37)" fill="#ffa412"/>
        </g>
        <path id="Trazado_114551" data-name="Trazado 114551" d="M1741.857,1541.779v2.436a.83.83,0,0,0,.192.524,1.112,1.112,0,0,0,.525.351,1.217,1.217,0,0,0,.2.048l.065.008.052,0,.026,0h46.266a1.056,1.056,0,0,0,1.117-.891c0-.016,0-.032,0-.048v-2.436c0-.016,0-.032,0-.048a1.056,1.056,0,0,0-1.117-.891h-46.212l-.059,0a1.177,1.177,0,0,0-.138.013,1.241,1.241,0,0,0-.2.048c-.033.011-.066.023-.1.036l-.058.026-.006,0-.056.03-.009,0c-.017.01-.034.02-.05.031a.867.867,0,0,0-.111.082.332.332,0,0,0-.032.028l-.006,0a.186.186,0,0,0-.019.018l0,0c-.011.011-.022.022-.033.034s-.03.033-.044.051A.831.831,0,0,0,1741.857,1541.779Z" transform="translate(-1321.768 -1234.863)" fill="#ffc76c"/>
        <path id="Trazado_114552" data-name="Trazado 114552" d="M1911.079,1545.154h24.757a.977.977,0,0,0,1-.891c0-.016,0-.032,0-.048v-2.436c0-.016,0-.032,0-.048a.977.977,0,0,0-1-.891h-21.717c-.009.032-.018.066-.028.1a7.548,7.548,0,0,1-3,4.208Z" transform="translate(-1468.297 -1234.863)" fill="#ffae39"/>
        <g id="Grupo_80646" data-name="Grupo 80646" transform="translate(420.281 305.978)">
          <rect id="Rectángulo_34033" data-name="Rectángulo 34033" width="0.525" height="4.314" transform="translate(5.957 4.314) rotate(180)" fill="#ffa412"/>
          <rect id="Rectángulo_34034" data-name="Rectángulo 34034" width="0.525" height="4.314" transform="translate(7.735 4.314) rotate(180)" fill="#ffa412"/>
          <rect id="Rectángulo_34035" data-name="Rectángulo 34035" width="0.525" height="4.314" transform="translate(9.867 4.314) rotate(180)" fill="#ffa412"/>
          <rect id="Rectángulo_34036" data-name="Rectángulo 34036" width="0.525" height="4.314" transform="translate(13.135 4.314) rotate(180)" fill="#ffa412"/>
          <rect id="Rectángulo_34037" data-name="Rectángulo 34037" width="0.525" height="4.314" transform="translate(16.59 4.314) rotate(180)" fill="#ffa412"/>
          <rect id="Rectángulo_34038" data-name="Rectángulo 34038" width="0.525" height="4.314" transform="translate(21.888 4.314) rotate(180)" fill="#ffa412"/>
          <rect id="Rectángulo_34039" data-name="Rectángulo 34039" width="0.525" height="4.314" transform="translate(26.848 4.314) rotate(180)" fill="#ffa412"/>
          <rect id="Rectángulo_34040" data-name="Rectángulo 34040" width="0.525" height="4.314" transform="translate(31.278 4.314) rotate(180)" fill="#ffa412"/>
          <rect id="Rectángulo_34041" data-name="Rectángulo 34041" width="0.525" height="4.314" transform="translate(4.264 4.314) rotate(180)" fill="#ffa412"/>
          <rect id="Rectángulo_34042" data-name="Rectángulo 34042" width="0.525" height="4.314" transform="translate(3.147 4.314) rotate(180)" fill="#ffa412"/>
          <rect id="Rectángulo_34043" data-name="Rectángulo 34043" width="0.525" height="4.314" transform="translate(2.067 4.314) rotate(180)" fill="#ffa412"/>
          <path id="Trazado_114553" data-name="Trazado 114553" d="M1748.725,1540.855v4.284a1.289,1.289,0,0,0,.2.015h.328v-4.314h-.328A1.321,1.321,0,0,0,1748.725,1540.855Z" transform="translate(-1747.995 -1540.84)" fill="#ffa412"/>
          <path id="Trazado_114554" data-name="Trazado 114554" d="M1743.286,1541.662v3.485a1.115,1.115,0,0,0,.525.351v-4.188A1.113,1.113,0,0,0,1743.286,1541.662Z" transform="translate(-1743.286 -1541.248)" fill="#ffa412"/>
        </g>
        <path id="Trazado_114555" data-name="Trazado 114555" d="M1716.522,1510.35v2.436a.829.829,0,0,0,.192.524,1.11,1.11,0,0,0,.525.351,1.2,1.2,0,0,0,.2.048,1.308,1.308,0,0,0,.2.015h46.212a1.277,1.277,0,0,0,.5-.1.959.959,0,0,0,.614-.753c0-.012,0-.025,0-.039s0-.032,0-.048v-2.436c0-.016,0-.032,0-.048a1.031,1.031,0,0,0-.985-.884,1.268,1.268,0,0,0-.132-.007H1717.64a1.292,1.292,0,0,0-.2.015,1.221,1.221,0,0,0-.2.048,1.113,1.113,0,0,0-.525.352A.828.828,0,0,0,1716.522,1510.35Z" transform="translate(-1299.83 -1207.648)" fill="#ffc76c"/>
        <path id="Trazado_114556" data-name="Trazado 114556" d="M1885.743,1513.725H1910.5a1.034,1.034,0,0,0,.446-.1.944.944,0,0,0,.548-.753c0-.012,0-.025,0-.039s0-.032,0-.048v-2.436c0-.016,0-.032,0-.048a.969.969,0,0,0-.879-.884,1.007,1.007,0,0,0-.118-.007h-21.717l0,.007a7.568,7.568,0,0,1-2.9,4.208Q1885.816,1513.676,1885.743,1513.725Z" transform="translate(-1446.358 -1207.648)" fill="#ffae39"/>
        <g id="Grupo_80647" data-name="Grupo 80647" transform="translate(416.884 301.763)">
          <rect id="Rectángulo_34044" data-name="Rectángulo 34044" width="0.525" height="4.314" transform="translate(5.957 4.314) rotate(180)" fill="#ffa412"/>
          <rect id="Rectángulo_34045" data-name="Rectángulo 34045" width="0.525" height="4.314" transform="translate(7.735 4.314) rotate(180)" fill="#ffa412"/>
          <rect id="Rectángulo_34046" data-name="Rectángulo 34046" width="0.525" height="4.314" transform="translate(9.867 4.314) rotate(180)" fill="#ffa412"/>
          <rect id="Rectángulo_34047" data-name="Rectángulo 34047" width="0.525" height="4.314" transform="translate(13.135 4.314) rotate(180)" fill="#ffa412"/>
          <rect id="Rectángulo_34048" data-name="Rectángulo 34048" width="0.525" height="4.314" transform="translate(16.59 4.314) rotate(180)" fill="#ffa412"/>
          <rect id="Rectángulo_34049" data-name="Rectángulo 34049" width="0.525" height="4.314" transform="translate(21.888 4.314) rotate(180)" fill="#ffa412"/>
          <rect id="Rectángulo_34050" data-name="Rectángulo 34050" width="0.525" height="4.314" transform="translate(26.848 4.314) rotate(180)" fill="#ffa412"/>
          <rect id="Rectángulo_34051" data-name="Rectángulo 34051" width="0.525" height="4.314" transform="translate(31.278 4.314) rotate(180)" fill="#ffa412"/>
          <rect id="Rectángulo_34052" data-name="Rectángulo 34052" width="0.525" height="4.314" transform="translate(4.264 4.314) rotate(180)" fill="#ffa412"/>
          <rect id="Rectángulo_34053" data-name="Rectángulo 34053" width="0.525" height="4.314" transform="translate(3.147 4.314) rotate(180)" fill="#ffa412"/>
          <rect id="Rectángulo_34054" data-name="Rectángulo 34054" width="0.525" height="4.314" transform="translate(2.067 4.314) rotate(180)" fill="#ffa412"/>
          <path id="Trazado_114557" data-name="Trazado 114557" d="M1723.389,1509.425v4.284a1.294,1.294,0,0,0,.2.015h.328v-4.314h-.328A1.294,1.294,0,0,0,1723.389,1509.425Z" transform="translate(-1722.659 -1509.41)" fill="#ffa412"/>
          <path id="Trazado_114558" data-name="Trazado 114558" d="M1717.95,1510.234v3.485a1.116,1.116,0,0,0,.525.351v-4.187A1.114,1.114,0,0,0,1717.95,1510.234Z" transform="translate(-1717.95 -1509.82)" fill="#ffa412"/>
        </g>
        <path id="Trazado_114559" data-name="Trazado 114559" d="M1705.736,1478.229v2.436a.83.83,0,0,0,.192.524,1.111,1.111,0,0,0,.525.351,1.173,1.173,0,0,0,.2.049l.065.008.036,0,.037,0h46.271a1.056,1.056,0,0,0,1.117-.891c0-.016,0-.032,0-.048v-2.436c0-.016,0-.032,0-.048a1.055,1.055,0,0,0-1.117-.891h-46.212a1.291,1.291,0,0,0-.2.015,1.218,1.218,0,0,0-.2.048,1.114,1.114,0,0,0-.525.352A.827.827,0,0,0,1705.736,1478.229Z" transform="translate(-1290.49 -1179.835)" fill="#ffc76c"/>
        <path id="Trazado_114560" data-name="Trazado 114560" d="M1874.957,1481.6h24.758a.977.977,0,0,0,1-.891c0-.016,0-.032,0-.048v-2.436c0-.016,0-.032,0-.048a.977.977,0,0,0-1-.891H1878a7.562,7.562,0,0,1-3.03,4.307Z" transform="translate(-1437.019 -1179.835)" fill="#ffae39"/>
        <g id="Grupo_80648" data-name="Grupo 80648" transform="translate(415.437 297.455)">
          <rect id="Rectángulo_34055" data-name="Rectángulo 34055" width="0.525" height="4.314" transform="translate(5.957 4.314) rotate(180)" fill="#ffa412"/>
          <rect id="Rectángulo_34056" data-name="Rectángulo 34056" width="0.525" height="4.314" transform="translate(7.735 4.314) rotate(180)" fill="#ffa412"/>
          <rect id="Rectángulo_34057" data-name="Rectángulo 34057" width="0.525" height="4.314" transform="translate(9.867 4.314) rotate(180)" fill="#ffa412"/>
          <rect id="Rectángulo_34058" data-name="Rectángulo 34058" width="0.525" height="4.314" transform="translate(13.135 4.314) rotate(180)" fill="#ffa412"/>
          <rect id="Rectángulo_34059" data-name="Rectángulo 34059" width="0.525" height="4.314" transform="translate(16.59 4.314) rotate(180)" fill="#ffa412"/>
          <rect id="Rectángulo_34060" data-name="Rectángulo 34060" width="0.525" height="4.314" transform="translate(21.888 4.314) rotate(180)" fill="#ffa412"/>
          <rect id="Rectángulo_34061" data-name="Rectángulo 34061" width="0.525" height="4.314" transform="translate(26.848 4.314) rotate(180)" fill="#ffa412"/>
          <rect id="Rectángulo_34062" data-name="Rectángulo 34062" width="0.525" height="4.314" transform="translate(30.752 0)" fill="#ffa412"/>
          <rect id="Rectángulo_34063" data-name="Rectángulo 34063" width="0.525" height="4.314" transform="translate(4.264 4.314) rotate(180)" fill="#ffa412"/>
          <rect id="Rectángulo_34064" data-name="Rectángulo 34064" width="0.525" height="4.314" transform="translate(3.146 4.314) rotate(180)" fill="#ffa412"/>
          <rect id="Rectángulo_34065" data-name="Rectángulo 34065" width="0.525" height="4.314" transform="translate(2.067 4.314) rotate(180)" fill="#ffa412"/>
          <path id="Trazado_114561" data-name="Trazado 114561" d="M1712.6,1477.3v4.284a1.3,1.3,0,0,0,.2.015h.328v-4.314h-.328A1.3,1.3,0,0,0,1712.6,1477.3Z" transform="translate(-1711.875 -1477.289)" fill="#ffa412"/>
          <path id="Trazado_114562" data-name="Trazado 114562" d="M1707.165,1478.114v3.484a1.108,1.108,0,0,0,.525.351v-4.187A1.111,1.111,0,0,0,1707.165,1478.114Z" transform="translate(-1707.165 -1477.699)" fill="#ffa412"/>
        </g>
        <g id="Grupo_80651" data-name="Grupo 80651" transform="translate(448.911 300.448)">
          <circle id="Elipse_4751" data-name="Elipse 4751" cx="21.963" cy="21.963" r="21.963" transform="translate(0 43.926) rotate(-90)" fill="#e2810e"/>
          <circle id="Elipse_4752" data-name="Elipse 4752" cx="21.963" cy="21.963" r="21.963" transform="translate(1.916 43.926) rotate(-90)" fill="#ffc76c"/>
          <g id="Grupo_80649" data-name="Grupo 80649" transform="translate(3.868 2.212)">
            <path id="Trazado_114563" data-name="Trazado 114563" d="M1991.489,1550.263a20.01,20.01,0,1,1,14.149,5.861A19.879,19.879,0,0,1,1991.489,1550.263Zm-4.667-14.15a18.817,18.817,0,1,0,18.817-18.817A18.838,18.838,0,0,0,1986.822,1536.113Z" transform="translate(-1985.628 -1516.103)" fill="#ffa412"/>
          </g>
          <g id="Grupo_80650" data-name="Grupo 80650" transform="translate(15.121 7.444)">
            <path id="Trazado_114564" data-name="Trazado 114564" d="M2081.062,1575.707a3.307,3.307,0,0,0-.047-1.162,2.41,2.41,0,0,0-.491-.965,4.566,4.566,0,0,0-.982-.867,12.03,12.03,0,0,0-1.523-.853,31.6,31.6,0,0,1-2.811-1.545,9.944,9.944,0,0,1-2.1-1.711,5.868,5.868,0,0,1-1.242-2.085,6.612,6.612,0,0,1,.534-5,5.569,5.569,0,0,1,1.551-1.723,6.952,6.952,0,0,1,2.22-1.057,9.275,9.275,0,0,1,2.772-.32l.391-3.3,2.655.315-.4,3.344a8.31,8.31,0,0,1,2.5,1.063,6.277,6.277,0,0,1,2.8,4.012,8.348,8.348,0,0,1,.109,2.834l-4.795-.569a4.071,4.071,0,0,0-.493-2.864,2.825,2.825,0,0,0-2.09-1.178,3.587,3.587,0,0,0-1.31.056,2.434,2.434,0,0,0-.956.465,2.27,2.27,0,0,0-.616.795,3.345,3.345,0,0,0-.292,1.044,3.056,3.056,0,0,0,.043,1.052,2.256,2.256,0,0,0,.471.923,4.558,4.558,0,0,0,.99.868,15.441,15.441,0,0,0,1.582.915q1.538.792,2.782,1.58a10.072,10.072,0,0,1,2.092,1.725,5.947,5.947,0,0,1,1.24,2.093,6.636,6.636,0,0,1-.546,5.03,5.5,5.5,0,0,1-1.557,1.706,6.708,6.708,0,0,1-2.232,1.017,10,10,0,0,1-2.786.295l-.364,3.067-2.638-.313.363-3.052a11.2,11.2,0,0,1-2.592-.917,7.1,7.1,0,0,1-2.123-1.6,6.358,6.358,0,0,1-1.333-2.385,7.748,7.748,0,0,1-.221-3.246l4.8.569a4.763,4.763,0,0,0,.09,1.863,3.079,3.079,0,0,0,.683,1.269,2.987,2.987,0,0,0,1.1.755,5.129,5.129,0,0,0,1.315.336,4.287,4.287,0,0,0,1.392-.038,2.857,2.857,0,0,0,1.053-.438,2.28,2.28,0,0,0,.7-.769A2.773,2.773,0,0,0,2081.062,1575.707Z" transform="translate(-2069.543 -1555.121)" fill="#ffa412"/>
          </g>
        </g>
        <g id="Grupo_80652" data-name="Grupo 80652" transform="translate(341.026 311.06)">
          <path id="Trazado_114565" data-name="Trazado 114565" d="M1337.655,1584.023s-2.772,3.9-5.313,3.956-6.407-1.809-6.407-1.809-2.333-5.2-.751-7.234a3.4,3.4,0,0,1,3.247.533,5.01,5.01,0,0,1,.859.823,2.725,2.725,0,0,0,1.334.9c1.813.552,3.965-.746,4.77.506a8.524,8.524,0,0,0,1.4,1.659A6.391,6.391,0,0,0,1337.655,1584.023Z" transform="translate(-1301.52 -1578.74)" fill="#ffeddc"/>
          <path id="Trazado_114566" data-name="Trazado 114566" d="M1152.271,1671.83s9.8-23.738,27.431-24.191c0,0,16.278,1.809,17.182,24.191Z" transform="translate(-1152.271 -1638.4)" fill="#ffeddc"/>
          <path id="Trazado_114567" data-name="Trazado 114567" d="M1320.578,1633.208s7.068,1.572,9.249.648c0,0,.329-2.956-2.647-2.541a6.246,6.246,0,0,1-4.145-1.093C1321.931,1629.66,1320.285,1631.971,1320.578,1633.208Z" transform="translate(-1297.979 -1623.243)" fill="#2b478b"/>
          <path id="Trazado_114568" data-name="Trazado 114568" d="M1354.788,1588.962c-.452.339-1.84-4.779-1.84-4.779a4.981,4.981,0,0,1,.859.823,2.728,2.728,0,0,0,1.334.9C1355.145,1586.059,1355.227,1588.632,1354.788,1588.962Z" transform="translate(-1326.037 -1583.453)" fill="#e5c1a1"/>
          <path id="Trazado_114569" data-name="Trazado 114569" d="M1390.4,1602.5a29.124,29.124,0,0,1-3.811,2.016c-.452,0,2.41-3.676,2.41-3.676A8.509,8.509,0,0,0,1390.4,1602.5Z" transform="translate(-1355.125 -1597.876)" fill="#e5c1a1"/>
          <path id="Trazado_114570" data-name="Trazado 114570" d="M1223.619,1710.441c-.181-.155,6.933-10.475,8.892-10.55s6.362,2.261,9.549,2.562,6.277-.6,6.88,1.281,2.261,8.563,1.243,9.632S1227.531,1713.783,1223.619,1710.441Z" transform="translate(-1214.048 -1683.643)" fill="#f9ddbf"/>
        </g>
        <g id="Grupo_80653" data-name="Grupo 80653" transform="translate(417.617 189.555)">
          <path id="Trazado_114571" data-name="Trazado 114571" d="M1724.085,690.413l-.669-3.766,1.45-.257.662,3.728c.191,1.073.826,1.533,1.711,1.376a1.384,1.384,0,0,0,1.141-1.834l-.671-3.776,1.45-.258.66,3.719a2.7,2.7,0,0,1-2.362,3.489A2.657,2.657,0,0,1,1724.085,690.413Z" transform="translate(-1723.416 -683.888)" fill="#a8d29f"/>
          <path id="Trazado_114572" data-name="Trazado 114572" d="M1777.269,679.789l3.06-.544a2.416,2.416,0,0,1,1.827.278,1.65,1.65,0,0,1,.04,2.634,1.643,1.643,0,0,1,1.524,1.419c.214,1.205-.658,1.982-2.146,2.246l-3.135.557Zm3.222,2.176c.64-.114,1.008-.393.918-.9-.077-.433-.46-.618-1.071-.509l-1.431.254.248,1.393Zm.858,2.587c.64-.114.986-.408.9-.917-.078-.443-.457-.657-1.2-.525l-1.676.3.258,1.45Z" transform="translate(-1770.047 -678.312)" fill="#a8d29f"/>
          <path id="Trazado_114573" data-name="Trazado 114573" d="M1828.452,672.917l1.45-.258,1.171,6.591-1.45.258Z" transform="translate(-1814.367 -672.659)" fill="#a8d29f"/>
        </g>
        <g id="Grupo_80659" data-name="Grupo 80659" transform="translate(387.933 230.136)">
          <g id="Grupo_80658" data-name="Grupo 80658">
            <g id="Grupo_80657" data-name="Grupo 80657">
              <path id="Trazado_114574" data-name="Trazado 114574" d="M1792.293,1612.754a1.2,1.2,0,0,1,.215,1.289.01.01,0,0,1,0,.007,8.017,8.017,0,0,1-2.531,2.777c-.152.123-.288.235-.406.339-.031.027-.062.054-.091.082l-.07.063c-1.113,1.026-.694,1.261-2.693,3.342-2.279,2.372-3.849,2.414-4.3,2.2-.378-.184.39-1.442,1.24-2.856.042-.068.082-.137.124-.206.113-.188.226-.379.338-.568,1-1.7.741-2.5.5-5.032-.192-2.058-3.2-11.5-3.2-11.5l4.368-.752s1.316,7.516,2.765,8.673c.775.617,1.643.625,2.387,1.082.052.032.1.064.155.1A5.733,5.733,0,0,1,1792.293,1612.754Z" transform="translate(-1743.961 -1517.906)" fill="#ffb27d"/>
              <path id="Trazado_114575" data-name="Trazado 114575" d="M1798.079,1675.743a1.2,1.2,0,0,1,.215,1.289.011.011,0,0,1,0,.006,9.273,9.273,0,0,1-2.536,2.768c-.151.125-.283.24-.4.348-.031.027-.062.054-.091.082l-.07.063c-1.113,1.026-.694,1.26-2.693,3.342-2.28,2.371-3.849,2.414-4.3,2.2-.378-.184.39-1.442,1.24-2.856a9.715,9.715,0,0,0,4.063-2.994c1.372-1.751,2.287-4,3.223-5.306.052.032.1.065.155.1A5.734,5.734,0,0,1,1798.079,1675.743Z" transform="translate(-1749.747 -1580.895)" fill="#233862"/>
              <path id="Trazado_114576" data-name="Trazado 114576" d="M1515.173,1601.442c-.27,1.348-2.192,1.123-4.339.6s-1.637.1-4.693-.239-3.982-1.478-4.075-1.932c-.083-.4,1.426-.545,3.046-.732.2-.023.408-.048.613-.073,1.829-.229,3.168-1.41,4.829-2.379,1.573-.918,3.921-4.658,3.921-4.658l4.191.332s-2.2,3.34-3.05,4.793a5.063,5.063,0,0,0-.411,2.856A5.39,5.39,0,0,1,1515.173,1601.442Z" transform="translate(-1502.063 -1509.322)" fill="#ffb27d"/>
              <path id="Trazado_114577" data-name="Trazado 114577" d="M1510.834,1647.95c-2.147-.525-1.637.1-4.693-.239s-3.982-1.478-4.075-1.932c-.083-.4,1.426-.546,3.046-.732l.015.031a8.615,8.615,0,0,0,4.377,1.361c2.073.05,4.269-.544,5.7-.521a5.388,5.388,0,0,1-.032,1.434C1514.9,1648.7,1512.981,1648.475,1510.834,1647.95Z" transform="translate(-1502.063 -1555.232)" fill="#233862"/>
              <path id="Trazado_114578" data-name="Trazado 114578" d="M1719.6,1419.007l3.918,10.543,5.115,13.766a8.286,8.286,0,0,0,2.717-.248,11.786,11.786,0,0,0,2.628-1.279s-1.42-14.781-4.07-23.265a15.112,15.112,0,0,0-2.28-4.931C1723.523,1408.738,1719.6,1419.007,1719.6,1419.007Z" transform="translate(-1690.43 -1353.686)" fill="#233862"/>
              <path id="Trazado_114579" data-name="Trazado 114579" d="M1599.705,1323.937c2.566-.828,9.887.235,17.242,1.675l1.539-2.54,15.885-1.241s5.242,11.624,2.372,19.03a2.685,2.685,0,0,1-2.688,1.81h-.232s-9.454-.006-12.524-.006c-7.9,0-16.718-5.43-17.859-5.658-1.868-.373-2.614,3.361-4.482,7.282s-17.552,17.365-17.552,17.365a13.8,13.8,0,0,1-3.407-.35,3.354,3.354,0,0,1-1.463-.923S1593.917,1325.8,1599.705,1323.937Z" transform="translate(-1566.55 -1275.359)" fill="#2b478b"/>
              <path id="Trazado_114580" data-name="Trazado 114580" d="M1835.8,1000.909c5.01,4.074,17.079,11.134,17.146,11.1,0,0,3.867,2.316,6.5,1.18,4.4-1.894,7.773-8.526,1.692-15.863-3.033-3.659-5.548-4.865-4.958-9.73.64-5.271-1.74-11.9-7.807-12.177a16.751,16.751,0,0,0-5.772.255C1837.016,977.432,1827.671,998.21,1835.8,1000.909Z" transform="translate(-1788.288 -975.281)" fill="#233862"/>
              <path id="Trazado_114581" data-name="Trazado 114581" d="M1894.738,1149.1c-.327.9-8.915,1.708-13.8,1.383a6.7,6.7,0,0,1-3.153-.681c-1.743-1.514-1.569,1.815-1.808-14.116-.116-7.771,6.594-14.692,6.594-14.692s.536,3.32,7.19-.631c.236-.139,2.857,3.742,5.379,8.52C1897.916,1134.165,1895.072,1148.175,1894.738,1149.1Z" transform="translate(-1825.832 -1100.907)" fill="#aec3ff"/>
              <path id="Trazado_114582" data-name="Trazado 114582" d="M1748.818,1469.8l5.115,13.766a8.293,8.293,0,0,0,2.717-.248,11.785,11.785,0,0,0,2.628-1.279s-1.42-14.78-4.07-23.265Z" transform="translate(-1715.728 -1393.942)" fill="#2b478b"/>
              <path id="Trazado_114583" data-name="Trazado 114583" d="M1801.572,1125.086s-6.075,1.491-7.651,4.109c-1.919,3.189-11.488,17.566-11.488,17.566s9.434,3.337,11.041,1.729,5.6-14.918,5.6-14.918Z" transform="translate(-1744.835 -1104.997)" fill="#aec3ff"/>
              <path id="Trazado_114584" data-name="Trazado 114584" d="M1927.579,1085.019a16.509,16.509,0,0,1-4.266,2.944c-.711.26-1.891.543-1.891.543s-.947-.959-.961-.972c-.842-.786,0-1.014-.123-2.5-.007-.07-.012-.142-.021-.214a26.826,26.826,0,0,0-.682-3.6.014.014,0,0,1,0-.005l5.879-1.681-.19.324C1925.684,1082.906,1926.78,1084.929,1927.579,1085.019Z" transform="translate(-1863.637 -1065.55)" fill="#ffb27d"/>
              <path id="Trazado_114585" data-name="Trazado 114585" d="M1925.512,1079.53a6.569,6.569,0,0,1-5.3,4.5,28.062,28.062,0,0,0-.581-2.81.014.014,0,0,1,0-.005Z" transform="translate(-1863.637 -1065.55)" fill="#ed975d"/>
              <path id="Trazado_114586" data-name="Trazado 114586" d="M1890.331,1017.129s7.924-.527,7.52-5.457.346-8.318-4.73-8.19-5.9,2.089-6.169,3.768S1888.26,1017.139,1890.331,1017.129Z" transform="translate(-1835.313 -999.698)" fill="#ffb27d"/>
              <path id="Trazado_114587" data-name="Trazado 114587" d="M1901.718,995.977s1.969,5.777,6.643,6.449c3.41.49,4.764-.432,4.764-.432a13.384,13.384,0,0,1-2.935-4.591,2.41,2.41,0,0,0-1.887-1.55C1905.876,995.478,1902.743,993.871,1901.718,995.977Z" transform="translate(-1848.124 -992.281)" fill="#233862"/>
              <path id="Trazado_114588" data-name="Trazado 114588" d="M1886.953,1003.592a5.228,5.228,0,0,0-2.4,2.684,10.088,10.088,0,0,0-.6,5.036s-2.278-5.271-.629-7.647C1885.076,1001.145,1886.953,1003.592,1886.953,1003.592Z" transform="translate(-1831.68 -998.872)" fill="#233862"/>
              <path id="Trazado_114589" data-name="Trazado 114589" d="M1917.416,1120.577s.484,2.926,1.084,3.472a4.253,4.253,0,0,1-2.241-2.526S1916.791,1120.644,1917.416,1120.577Z" transform="translate(-1860.716 -1101.093)" fill="#91b0f2"/>
              <path id="Trazado_114590" data-name="Trazado 114590" d="M1857.373,1194.7s-4.425,5.308-3.88,7.231,3.609,1.923,3.609,1.923-.572-4.1,0-6.227S1858.033,1194.574,1857.373,1194.7Z" transform="translate(-1806.326 -1165.266)" fill="#91b0f2"/>
              <path id="Trazado_114591" data-name="Trazado 114591" d="M1948.379,1231.248s6.374-3.885,6.291-6.142,0-6.4.6-5.818,2.488,5.232,2.306,6.549-6.618,10.515-7.415,10.493C1944.479,1236.172,1948.379,1231.248,1948.379,1231.248Z" transform="translate(-1887.398 -1186.519)" fill="#91b0f2"/>
              <path id="Trazado_114592" data-name="Trazado 114592" d="M1937.89,1110.352s-3.481,4.378-4.921,4.843a9.9,9.9,0,0,0,6.978-3.414S1938.982,1110.366,1937.89,1110.352Z" transform="translate(-1875.185 -1092.239)" fill="#91b0f2"/>
              <g id="Grupo_80656" data-name="Grupo 80656" transform="translate(26.015 20.811)">
                <circle id="Elipse_4753" data-name="Elipse 4753" cx="16.154" cy="16.154" r="16.154" transform="translate(1.521 31.76) rotate(-78.401)" fill="#e2810e"/>
                <circle id="Elipse_4754" data-name="Elipse 4754" cx="16.154" cy="16.154" r="16.154" transform="matrix(0.21, -0.978, 0.978, 0.21, 0, 31.589)" fill="#ffc76c"/>
                <g id="Grupo_80654" data-name="Grupo 80654" transform="translate(4.466 4.657)">
                  <path id="Trazado_114593" data-name="Trazado 114593" d="M1744.086,1194.64a14.719,14.719,0,1,1,10.407-4.311A14.621,14.621,0,0,1,1744.086,1194.64Zm0-28.558a13.84,13.84,0,1,0,13.84,13.84A13.856,13.856,0,0,0,1744.086,1166.082Z" transform="translate(-1729.368 -1165.204)" fill="#ffa412"/>
                </g>
                <g id="Grupo_80655" data-name="Grupo 80655" transform="translate(12.738 8.506)">
                  <path id="Trazado_114594" data-name="Trazado 114594" d="M1799.526,1209.044a2.417,2.417,0,0,0-.035-.855,1.777,1.777,0,0,0-.361-.71,3.352,3.352,0,0,0-.723-.637,8.8,8.8,0,0,0-1.12-.627,23.1,23.1,0,0,1-2.068-1.137,7.315,7.315,0,0,1-1.546-1.258,4.315,4.315,0,0,1-.913-1.534,4.865,4.865,0,0,1,.393-3.678,4.092,4.092,0,0,1,1.141-1.267,5.112,5.112,0,0,1,1.633-.778,6.807,6.807,0,0,1,2.039-.235l.288-2.426,1.953.232-.292,2.46a6.109,6.109,0,0,1,1.838.781,4.616,4.616,0,0,1,2.057,2.951,6.151,6.151,0,0,1,.081,2.085l-3.527-.418a2.994,2.994,0,0,0-.363-2.107,2.078,2.078,0,0,0-1.537-.866,2.645,2.645,0,0,0-.964.041,1.794,1.794,0,0,0-.7.342,1.673,1.673,0,0,0-.453.585,2.459,2.459,0,0,0-.215.768,2.248,2.248,0,0,0,.032.774,1.662,1.662,0,0,0,.346.679,3.366,3.366,0,0,0,.729.638,11.437,11.437,0,0,0,1.164.673q1.131.582,2.046,1.162a7.393,7.393,0,0,1,1.539,1.269,4.163,4.163,0,0,1,1.071,3.49,4.45,4.45,0,0,1-.56,1.749,4.046,4.046,0,0,1-1.145,1.255,4.948,4.948,0,0,1-1.642.748,7.361,7.361,0,0,1-2.049.217l-.267,2.256-1.94-.23.266-2.245a8.248,8.248,0,0,1-1.906-.674,5.231,5.231,0,0,1-1.562-1.18,4.671,4.671,0,0,1-.98-1.754,5.693,5.693,0,0,1-.162-2.387l3.527.419a3.511,3.511,0,0,0,.066,1.37,2.272,2.272,0,0,0,.5.933,2.2,2.2,0,0,0,.807.555,3.766,3.766,0,0,0,.967.247,3.147,3.147,0,0,0,1.024-.028,2.1,2.1,0,0,0,.775-.322,1.668,1.668,0,0,0,.512-.566A2.042,2.042,0,0,0,1799.526,1209.044Z" transform="translate(-1791.054 -1193.903)" fill="#ffa412"/>
                </g>
              </g>
              <path id="Trazado_114595" data-name="Trazado 114595" d="M1710.2,1277.6s-.181-2.654.822-2.549c1.23.128,2.538,3.047,1.938,3.612S1710.214,1278.252,1710.2,1277.6Z" transform="translate(-1682.28 -1234.848)" fill="#ffb27d"/>
              <path id="Trazado_114596" data-name="Trazado 114596" d="M1918.4,1331.994l-1.5-.9a3.874,3.874,0,0,0-1.474-.292c-.547.078-1.845-.151-1.886.061s1.248,1.16,1.248,1.16c-.775,1.189-3.583,1.408-3.8,1.855-.259.543,1.009,1.053,1.7,1.348a4.01,4.01,0,0,0,3.464-.207c.742-.564,1.964-1.308,1.964-1.308Z" transform="translate(-1856.13 -1283.102)" fill="#ffb27d"/>
              <path id="Trazado_114597" data-name="Trazado 114597" d="M1960.9,1120.4s6.287.411,7.858,2.863,6.62,16.419,5.8,20.694-15.768,9.406-15.768,9.406a2.806,2.806,0,0,1-.661-2.106,4.381,4.381,0,0,1,.478-1.807s9.173-7.666,8.542-9.192C1964.819,1134.617,1960.9,1120.4,1960.9,1120.4Z" transform="translate(-1896.972 -1100.937)" fill="#aec3ff"/>
            </g>
          </g>
        </g>
        <path id="Trazado_114598" data-name="Trazado 114598" d="M649.219,1828.66l-368.164-.127a.468.468,0,0,1-.466-.467v-.285a.467.467,0,0,1,.466-.466l368.164.127a.468.468,0,0,1,.466.466v.285A.468.468,0,0,1,649.219,1828.66Z" transform="translate(-56.455 -1482.922)" fill="#2e3552"/>
      </g>
    </g>
  </g>
</svg>
