<svg xmlns="http://www.w3.org/2000/svg" xmlns:xlink="http://www.w3.org/1999/xlink" width="37" height="37" viewBox="0 0 37 37">
  <defs>
    <clipPath id="clip-path">
      <rect id="Rectángulo_35226" data-name="Rectángulo 35226" width="37" height="37" transform="translate(858 4499)" fill="#fc8116" stroke="#707070" stroke-width="1"/>
    </clipPath>
  </defs>
  <g id="Enmascarar_grupo_109" data-name="Enmascarar grupo 109" transform="translate(-858 -4499)" clip-path="url(#clip-path)">
    <g id="_x37_39_x2C__Document_x2C__Insurance_x2C__Policy" transform="translate(855.908 4496.908)">
      <g id="Grupo_81875" data-name="Grupo 81875">
        <path id="Trazado_120641" data-name="Trazado 120641" d="M31.547,20.486h0l-1.991,1.991-.284-.284a2.011,2.011,0,0,0-2.844,2.844l2.559,2.559a.8.8,0,0,0,1.138,0l4.266-4.266a2.011,2.011,0,1,0-2.844-2.843Zm1.706,1.706-3.7,3.7L27.566,23.9a.4.4,0,0,1,.568-.569l.853.853a.8.8,0,0,0,1.138,0l2.559-2.559a.4.4,0,0,1,.569.569Z" fill="#fc8116"/>
        <path id="Trazado_120642" data-name="Trazado 120642" d="M37.438,26.242c.555-1.767.439-4.248.439-9.345a.8.8,0,0,0-.925-.8,9.869,9.869,0,0,1-4.895-.285.808.808,0,0,0-.282-.051H29.841V5.309a.8.8,0,0,0-.8-.8h-5.63V2.9a.8.8,0,0,0-.8-.8H9.733a.8.8,0,0,0-.8.8V4.5H3.3a.8.8,0,0,0-.8.8V38.287a.8.8,0,0,0,.8.8H29.037a.8.8,0,0,0,.8-.8v-5.63h1.934a.805.805,0,0,0,.58-.247c3.029-3.152,4.453-4.164,5.082-6.168ZM10.537,3.7H21.8V6.917H10.537ZM4.1,37.483V6.113H8.929V7.722a.8.8,0,0,0,.8.8H22.6a.8.8,0,0,0,.8-.8V6.113h4.826v9.8a10.249,10.249,0,0,1-4.621.19.8.8,0,0,0-.925.8c0,5.278-.1,7.614.439,9.345.63,2.007,2.059,3.021,5.082,6.168l.024.023v5.05Zm27.332-6.435h-2.3c-2.833-2.927-3.994-3.772-4.469-5.288-.436-1.388-.375-3.554-.366-7.954a10.813,10.813,0,0,0,4.635-.433h2.7a10.812,10.812,0,0,0,4.635.433c.008,4.329.071,6.56-.367,7.954-.476,1.517-1.641,2.366-4.469,5.288Z" fill="#fc8116"/>
        <path id="Trazado_120643" data-name="Trazado 120643" d="M10.859,11.1,8.413,12.935l-.373-.747a.8.8,0,1,0-1.439.719l.8,1.608a.8.8,0,0,0,1.2.284l3.218-2.413a.8.8,0,0,0-.965-1.287Z" fill="#fc8116"/>
        <path id="Trazado_120644" data-name="Trazado 120644" d="M13.755,12.548h4.022a.8.8,0,1,0,0-1.609H13.755a.8.8,0,1,0,0,1.609Z" fill="#fc8116"/>
        <path id="Trazado_120645" data-name="Trazado 120645" d="M21.8,13.353H13.755a.8.8,0,1,0,0,1.608H21.8a.8.8,0,1,0,0-1.608Z" fill="#fc8116"/>
        <path id="Trazado_120646" data-name="Trazado 120646" d="M10.859,17.535,8.413,19.37l-.373-.747a.8.8,0,0,0-1.439.719l.8,1.609a.8.8,0,0,0,1.2.284l3.218-2.413a.8.8,0,0,0-.965-1.287Z" fill="#fc8116"/>
        <path id="Trazado_120647" data-name="Trazado 120647" d="M13.755,18.983h4.022a.8.8,0,1,0,0-1.609H13.755a.8.8,0,1,0,0,1.609Z" fill="#fc8116"/>
        <path id="Trazado_120648" data-name="Trazado 120648" d="M13.755,21.4h7.239a.8.8,0,1,0,0-1.609H13.755a.8.8,0,1,0,0,1.609Z" fill="#fc8116"/>
        <path id="Trazado_120649" data-name="Trazado 120649" d="M10.859,23.97,8.413,25.8l-.373-.747a.8.8,0,1,0-1.439.719l.8,1.609a.8.8,0,0,0,1.2.284l3.218-2.413a.8.8,0,0,0-.965-1.287Z" fill="#fc8116"/>
        <path id="Trazado_120650" data-name="Trazado 120650" d="M13.755,25.418h4.022a.8.8,0,1,0,0-1.609H13.755a.8.8,0,0,0,0,1.609Z" fill="#fc8116"/>
        <path id="Trazado_120651" data-name="Trazado 120651" d="M21.8,26.222H13.755a.8.8,0,1,0,0,1.609H21.8a.8.8,0,1,0,0-1.609Z" fill="#fc8116"/>
        <path id="Trazado_120652" data-name="Trazado 120652" d="M10.859,30.4,8.413,32.24l-.373-.747a.8.8,0,1,0-1.439.719l.8,1.608a.8.8,0,0,0,1.2.284l3.218-2.413a.8.8,0,0,0-.965-1.287Z" fill="#fc8116"/>
        <path id="Trazado_120653" data-name="Trazado 120653" d="M13.755,31.853h4.022a.8.8,0,1,0,0-1.609H13.755a.8.8,0,0,0,0,1.609Z" fill="#fc8116"/>
        <path id="Trazado_120654" data-name="Trazado 120654" d="M21.8,32.657H13.755a.8.8,0,1,0,0,1.608H21.8a.8.8,0,1,0,0-1.608Z" fill="#fc8116"/>
        <path id="Trazado_120655" data-name="Trazado 120655" d="M33.863,9.331A2.413,2.413,0,1,0,31.45,6.917,2.416,2.416,0,0,0,33.863,9.331Zm0-3.217a.8.8,0,1,1-.8.8A.805.805,0,0,1,33.863,6.113Z" fill="#fc8116"/>
        <path id="Trazado_120656" data-name="Trazado 120656" d="M35.874,32.657a2.815,2.815,0,1,0,2.815,2.815A2.818,2.818,0,0,0,35.874,32.657Zm0,4.022a1.207,1.207,0,1,1,1.207-1.207A1.208,1.208,0,0,1,35.874,36.679Z" fill="#fc8116"/>
      </g>
    </g>
  </g>
</svg>
