<svg xmlns="http://www.w3.org/2000/svg" width="462.695" height="337.017" viewBox="0 0 462.695 337.017">
  <g id="Grupo_88074" data-name="Grupo 88074" transform="translate(-197.462 -126.161)">
    <path id="Trazado_125787" data-name="Trazado 125787" d="M227.924,463.178S193.463,419.776,215.636,358c18.675-52.032,72-18.586,57.4-84.365-13.246-59.668.232-111.382,123.379-138.3C475.9,117.951,599.923,111.971,572.092,243.49c-9.909,46.823,149.079,7.9,82.422,219.688Z" transform="translate(-10.735)" fill="#fed5b1"/>
    <path id="Trazado_125788" data-name="Trazado 125788" d="M1072.9,714.1V927.96a3.756,3.756,0,0,1-3.756,3.756H904.34a3.758,3.758,0,0,1-3.758-3.756V714.1a3.756,3.756,0,0,1,3.758-3.756h164.808A3.754,3.754,0,0,1,1072.9,714.1Z" transform="translate(-566.696 -469.08)" fill="#f78248"/>
    <path id="Trazado_125789" data-name="Trazado 125789" d="M918.355,710.346v221.37H904.34a3.758,3.758,0,0,1-3.758-3.756V714.1a3.756,3.756,0,0,1,3.758-3.756Z" transform="translate(-566.696 -469.08)" fill="#ea642f"/>
    <g id="Grupo_88049" data-name="Grupo 88049" transform="translate(385.49 342.746)">
      <g id="Grupo_88046" data-name="Grupo 88046" transform="translate(0 9.774)" opacity="0.7">
        <path id="Trazado_125790" data-name="Trazado 125790" d="M1167.719,1304.415l3.013-1.662a.762.762,0,0,1,.795.043q.45.313.933.592a12.809,12.809,0,0,0,1.829.88.753.753,0,0,1,.488.694l.067,3.6a.739.739,0,0,0,.694.727l3.28.223a.731.731,0,0,0,.767-.6l.58-3.26a.733.733,0,0,1,.638-.607,13.3,13.3,0,0,0,4.013-1.209.757.757,0,0,1,.9.2l1.292,1.546a.765.765,0,0,0,1,.145l2.71-1.82a.674.674,0,0,0,.147-.127.734.734,0,0,0,.092-.849l-1.239-2.252-.3-.548a13.162,13.162,0,0,0,1.043-1.54,13.348,13.348,0,0,0,1.039-2.253.733.733,0,0,1,.681-.5l2.9-.051a.76.76,0,0,0,.745-.71l.171-2.508.047-.719a.77.77,0,0,0-.632-.812l-2.724-.488a.733.733,0,0,1-.609-.612,13.2,13.2,0,0,0-.741-2.724,2.3,2.3,0,0,0-.084-.222.4.4,0,0,1-.026-.075.751.751,0,0,1,.244-.8l2.505-2.1a.542.542,0,0,0,.079-.076.763.763,0,0,0,.064-.921l-1.81-2.7a.759.759,0,0,0-1-.243l-3.142,1.735a.735.735,0,0,1-.828-.076,13.394,13.394,0,0,0-1.684-1.153q-.478-.276-.968-.508a.774.774,0,0,1-.441-.685l-.065-3.456a.738.738,0,0,0-.688-.723l-3.245-.216a.771.771,0,0,0-.814.635l-.46,2.579a.757.757,0,0,1-.7.625,13.256,13.256,0,0,0-3.995.869.752.752,0,0,1-.858-.219l-1.895-2.259a.78.78,0,0,0-1.026-.146l-2.7,1.8a.745.745,0,0,0-.238.981l.071.132,1.44,2.616a.762.762,0,0,1-.088.865l0,0a13.177,13.177,0,0,0-1.345,1.912c-.213.367-.4.739-.578,1.119a.747.747,0,0,1-.668.442l-2.941.051a.773.773,0,0,0-.759.719l-.217,3.232a.831.831,0,0,0,.029.264.77.77,0,0,0,.593.534l2.177.383a.768.768,0,0,1,.578.486.819.819,0,0,1,.044.208,13.214,13.214,0,0,0,1.358,5.045.745.745,0,0,1-.1.812.79.79,0,0,1-.091.09l-2.03,1.7a.756.756,0,0,0-.143,1l.041.063,1.762,2.637A.77.77,0,0,0,1167.719,1304.415Zm16.511-17.329a8.829,8.829,0,0,1,1.032,1.283,6.945,6.945,0,0,1,.977,3.658c-.007.117-.018.233-.028.348a7.179,7.179,0,0,1-14.322.177,4.735,4.735,0,0,1,0-.7,8.178,8.178,0,0,1,.651-2.7A7.128,7.128,0,0,1,1184.23,1287.085Z" transform="translate(-1162.485 -1274.989)" fill="#ea642f"/>
      </g>
      <g id="Grupo_88047" data-name="Grupo 88047" transform="translate(33.704)">
        <path id="Trazado_125791" data-name="Trazado 125791" d="M1335.167,1240.89l1.886-.641a.442.442,0,0,1,.448.105q.225.224.471.432a7.418,7.418,0,0,0,.953.687.436.436,0,0,1,.207.445l-.327,2.056a.428.428,0,0,0,.322.485l1.846.46a.422.422,0,0,0,.5-.263l.661-1.8a.425.425,0,0,1,.425-.281,7.7,7.7,0,0,0,2.41-.282.439.439,0,0,1,.494.2l.579,1.012a.442.442,0,0,0,.555.184l1.729-.762a.385.385,0,0,0,.1-.058.424.424,0,0,0,.138-.474l-.477-1.409-.117-.343a7.582,7.582,0,0,0,.75-.772,7.726,7.726,0,0,0,.821-1.178.424.424,0,0,1,.438-.213l1.656.265a.44.44,0,0,0,.5-.329l.352-1.412.1-.405a.445.445,0,0,0-.277-.527l-1.5-.554a.424.424,0,0,1-.285-.411,7.646,7.646,0,0,0-.146-1.627,1.356,1.356,0,0,0-.025-.135.254.254,0,0,1-.007-.046.435.435,0,0,1,.22-.429l1.641-.944a.328.328,0,0,0,.052-.035.442.442,0,0,0,.13-.518l-.757-1.724a.439.439,0,0,0-.543-.239l-1.967.67a.425.425,0,0,1-.464-.127,7.725,7.725,0,0,0-.843-.828q-.244-.206-.5-.388a.448.448,0,0,1-.182-.435l.313-1.976a.427.427,0,0,0-.318-.482l-1.827-.452a.447.447,0,0,0-.529.279l-.524,1.423a.439.439,0,0,1-.46.286,7.674,7.674,0,0,0-2.364.089.435.435,0,0,1-.467-.212l-.85-1.479a.451.451,0,0,0-.57-.187l-1.719.753a.431.431,0,0,0-.235.535l.027.083.555,1.637a.441.441,0,0,1-.138.484h0a7.656,7.656,0,0,0-.96.953c-.158.188-.3.381-.443.579a.432.432,0,0,1-.425.184l-1.68-.269a.448.448,0,0,0-.505.333l-.452,1.819a.478.478,0,0,0-.01.153.445.445,0,0,0,.284.365l1.2.439a.446.446,0,0,1,.28.336.484.484,0,0,1,0,.123,7.655,7.655,0,0,0,.262,3.013.43.43,0,0,1-.137.452.4.4,0,0,1-.061.042l-1.329.764a.438.438,0,0,0-.183.554l.017.04.736,1.682A.446.446,0,0,0,1335.167,1240.89Zm11.166-8.2a5.12,5.12,0,0,1,.458.836,4.02,4.02,0,0,1,.185,2.183c-.016.066-.033.131-.051.2a4.155,4.155,0,0,1-8.179-1.352,2.7,2.7,0,0,1,.068-.4,4.717,4.717,0,0,1,.644-1.472A4.125,4.125,0,0,1,1346.333,1232.691Z" transform="translate(-1333.54 -1225.382)" fill="#ffeddc"/>
      </g>
      <g id="Grupo_88048" data-name="Grupo 88048" transform="translate(33.702 20.397)">
        <path id="Trazado_125792" data-name="Trazado 125792" d="M1340.689,1374.288l4.888-2.375a1.2,1.2,0,0,1,1.25.133q.684.529,1.423,1.009a20.228,20.228,0,0,0,2.812,1.537,1.188,1.188,0,0,1,.712,1.135l-.188,5.676a1.167,1.167,0,0,0,1.035,1.2l5.155.62a1.153,1.153,0,0,0,1.257-.88l1.182-5.094a1.158,1.158,0,0,1,1.055-.906,20.994,20.994,0,0,0,6.428-1.579,1.2,1.2,0,0,1,1.406.383l1.911,2.543a1.208,1.208,0,0,0,1.566.31l4.423-2.649a1.054,1.054,0,0,0,.243-.188,1.16,1.16,0,0,0,.214-1.332l-1.77-3.653-.433-.89a20.759,20.759,0,0,0,1.77-2.343,21.087,21.087,0,0,0,1.822-3.469,1.158,1.158,0,0,1,1.115-.725l4.572.156a1.2,1.2,0,0,0,1.233-1.058l.475-3.941.133-1.13a1.216,1.216,0,0,0-.93-1.333l-4.256-.991a1.156,1.156,0,0,1-.91-1.015,20.863,20.863,0,0,0-.946-4.355,3.613,3.613,0,0,0-.114-.357.636.636,0,0,1-.034-.121,1.185,1.185,0,0,1,.449-1.235l4.122-3.113a.868.868,0,0,0,.13-.113,1.205,1.205,0,0,0,.177-1.448l-2.634-4.413a1.2,1.2,0,0,0-1.551-.464l-5.1,2.479a1.159,1.159,0,0,1-1.3-.187,21.187,21.187,0,0,0-2.562-1.955q-.731-.475-1.485-.88a1.222,1.222,0,0,1-.64-1.116l.179-5.456a1.166,1.166,0,0,0-1.026-1.2l-5.1-.606a1.218,1.218,0,0,0-1.336.935l-.936,4.03a1.2,1.2,0,0,1-1.149.93,20.953,20.953,0,0,0-6.37,1.044,1.189,1.189,0,0,1-1.335-.415l-2.8-3.717a1.231,1.231,0,0,0-1.606-.315l-4.4,2.622a1.176,1.176,0,0,0-.455,1.528l.1.214,2.058,4.243a1.2,1.2,0,0,1-.209,1.356l0,0a20.832,20.832,0,0,0-2.277,2.905c-.365.562-.694,1.133-1,1.717a1.179,1.179,0,0,1-1.089.643l-4.641-.159a1.22,1.22,0,0,0-1.255,1.073l-.606,5.079a1.306,1.306,0,0,0,.025.419,1.215,1.215,0,0,0,.892.891l3.4.782a1.214,1.214,0,0,1,.872.814,1.292,1.292,0,0,1,.053.332,20.864,20.864,0,0,0,1.73,8.068,1.175,1.175,0,0,1-.219,1.272,1.233,1.233,0,0,1-.151.135l-3.34,2.518a1.194,1.194,0,0,0-.307,1.561l.061.1,2.563,4.3A1.216,1.216,0,0,0,1340.689,1374.288Zm27.453-25.981a13.965,13.965,0,0,1,1.523,2.107,10.97,10.97,0,0,1,1.241,5.848c-.021.184-.047.365-.073.547-1.709,11.009-15.417,13.791-21.259,4.119a11.382,11.382,0,0,1-1.342-5.009,7.437,7.437,0,0,1,.049-1.1,12.905,12.905,0,0,1,1.246-4.2A11.256,11.256,0,0,1,1368.142,1348.307Z" transform="translate(-1333.529 -1328.9)" fill="#ea642f"/>
      </g>
    </g>
    <path id="Trazado_125793" data-name="Trazado 125793" d="M1005.216,688.95s-4.412-.094-4.562,4.216h9.273s.972-3.216,3.814-2.108V688.95Z" transform="translate(-647.05 -451.9)" fill="#7999e2"/>
    <path id="Trazado_125794" data-name="Trazado 125794" d="M1023.806,688.951s7.852.748,8.152,7.478,0,20.192,0,20.192l5.983-2.243,4.786,2.243V696.13a8.088,8.088,0,0,0-6.88-7.179Z" transform="translate(-665.64 -451.901)" fill="#aec3ff"/>
    <g id="Grupo_88053" data-name="Grupo 88053" transform="translate(402.677 153.693)">
      <path id="Trazado_125795" data-name="Trazado 125795" d="M1528.946,676.394h-16.519a21.963,21.963,0,0,1-5.349-5.553q-.592-.862-1.16-1.862C1503.8,665.228,1523.4,673.89,1528.946,676.394Z" transform="translate(-1455.308 -588.812)" fill="#233862"/>
      <g id="Grupo_88050" data-name="Grupo 88050" transform="translate(0 0)">
        <path id="Trazado_125796" data-name="Trazado 125796" d="M1513.934,838.789a1.583,1.583,0,0,1,.27,1.7.015.015,0,0,1,0,.008c-.416,1.126-1.775,2.377-3.351,3.625-.2.16-.381.306-.537.441-.041.036-.082.071-.121.107s-.062.056-.093.083c-1.472,1.337-.923,1.65-3.569,4.365-3.016,3.094-5.079,3.136-5.663,2.848-.495-.245.525-1.891,1.655-3.74.055-.089.108-.18.165-.27.151-.246.3-.5.449-.743,1.325-2.226,1-3.277.709-6.606-.233-2.7-4.1-15.132-4.1-15.132l5.745-.948s1.658,9.885,3.552,11.419c1.012.817,2.152.836,3.126,1.443q.1.063.2.13A7.538,7.538,0,0,1,1513.934,838.789Z" transform="translate(-1450.481 -714.453)" fill="#ffb27d"/>
        <path id="Trazado_125797" data-name="Trazado 125797" d="M1517.977,891.207a1.583,1.583,0,0,1,.27,1.7.014.014,0,0,1,0,.008,12.186,12.186,0,0,1-3.357,3.613c-.2.163-.375.313-.532.453-.041.035-.082.071-.12.107l-.093.083c-1.472,1.337-.923,1.65-3.569,4.365-3.016,3.094-5.079,3.136-5.663,2.848-.495-.245.525-1.891,1.655-3.74a12.762,12.762,0,0,0,5.365-3.9c1.819-2.288,3.043-5.236,4.282-6.94q.1.063.2.13A7.536,7.536,0,0,1,1517.977,891.207Z" transform="translate(-1454.524 -766.872)" fill="#233862"/>
        <path id="Trazado_125798" data-name="Trazado 125798" d="M1266.917,826.65c-.367,1.769-2.89,1.455-5.706.746s-2.151.115-6.163-.358-5.217-1.978-5.335-2.576c-.106-.53,1.879-.7,4.009-.933.268-.028.537-.06.806-.091,2.4-.285,4.175-1.822,6.366-3.08,2.075-1.191,5.194-6.083,5.194-6.083l5.5.475s-2.92,4.368-4.051,6.268a6.652,6.652,0,0,0-.567,3.748A7.062,7.062,0,0,1,1266.917,826.65Z" transform="translate(-1249.709 -706.226)" fill="#ffb27d"/>
        <path id="Trazado_125799" data-name="Trazado 125799" d="M1261.212,865.105c-2.816-.709-2.151.115-6.163-.358s-5.217-1.978-5.335-2.576c-.106-.53,1.879-.7,4.009-.933l.02.041a11.318,11.318,0,0,0,5.737,1.828c2.723.085,5.614-.674,7.494-.631a7.062,7.062,0,0,1-.056,1.883C1266.55,866.128,1264.028,865.814,1261.212,865.105Z" transform="translate(-1249.709 -743.934)" fill="#233862"/>
        <path id="Trazado_125800" data-name="Trazado 125800" d="M1464.068,693.464s-.384.249-.956.565a12.815,12.815,0,0,1-2.508,1.09,10.2,10.2,0,0,1-2.582.336c-.6,0-.989-.036-.989-.036l-6.594-18.132-1.191-3.278-1.268-3.489-.442-1.214-2.147-5.9s5.247-13.455,10.6-7.04a13,13,0,0,1,1.833,3.314c.391.951.761,2.024,1.115,3.186.265.873.52,1.795.767,2.755.667,2.611,1.256,5.5,1.772,8.393C1463.2,683.682,1464.068,693.464,1464.068,693.464Z" transform="translate(-1406.835 -578.035)" fill="#233862"/>
        <path id="Trazado_125801" data-name="Trazado 125801" d="M1395.825,600.328a2.866,2.866,0,0,1-1.526,1.6h-24.336a63.792,63.792,0,0,1-14.812-5.553c-.278-.139-.538-.269-.783-.388a16,16,0,0,0-2.259-1.025c-2.035-.424-3.08,2.89-4.8,6.966-.352.83-.729,1.689-1.151,2.557a13.106,13.106,0,0,1-1.629,2.347c-.141.17-.287.346-.442.525-5.916,6.91-21.147,19.779-21.147,19.779s-.179,0-.469-.007a15.4,15.4,0,0,1-4-.485,6.1,6.1,0,0,1-1.3-.673,2.931,2.931,0,0,1-.617-.554s18.226-35.636,27.663-45.344v0c.137-.141.272-.276.406-.4a7.675,7.675,0,0,1,2.706-1.911c3.215-1.012,24.015.117,24.015.117l.664-1.079,1.111-.079.191-.013.927-.067h0l1.279-.09,1.9-.135,5.14-.366.826-.058,9.5-.675s.433.978,1.018,2.6c.229.633.48,1.362.738,2.169C1396.337,585.38,1398.315,594.035,1395.825,600.328Z" transform="translate(-1303.382 -514.341)" fill="#2b478b"/>
        <path id="Trazado_125802" data-name="Trazado 125802" d="M1607.618,291.433c-4.749-4.054-8.137-5.057-8.608-11.476-.256-3.484-4.934-15.009-12.847-14a11.86,11.86,0,0,1-1.994.117,7.393,7.393,0,0,0-4.021,1.01c-3.81,2.23-10.825,22.853-6.1,30.1a5.25,5.25,0,0,0,3.771,2.425l.61.343h0c.85.478,1.786,1,2.775,1.564,5.591,3.152,12.911,7.321,16.661,9.428h0l.639.361,1.091.606c.44.24.7.375.716.375a16.3,16.3,0,0,0,2.32.653c1.885.392,4.525.613,6.365-.59a10.113,10.113,0,0,0,2.015-1.745C1614.824,306.344,1615.827,298.438,1607.618,291.433Z" transform="translate(-1508.875 -265.894)" fill="#233862"/>
        <path id="Trazado_125803" data-name="Trazado 125803" d="M1627.774,372.127c-.033.021,3.647,1.306,6.121.231,2.328-1.009,4.112-4.814,4.078-4.817-1.055-.056-2.208-.987-3.057-7.049l-.451.158-7.576,2.666s.53,2.429.868,4.74C1628.042,370,1628.189,371.856,1627.774,372.127Z" transform="translate(-1552.571 -341.854)" fill="#ffb27d"/>
        <path id="Trazado_125804" data-name="Trazado 125804" d="M1626.889,363.961s.323,1.7.771,4.135c4.346-.751,6.177-4.458,6.805-6.8Z" transform="translate(-1552.571 -342.498)" fill="#ed975d"/>
        <path id="Trazado_125805" data-name="Trazado 125805" d="M1599.812,312.983s10.349-1.315,9.431-7.747-.2-10.935-6.847-10.367-7.578,3.2-7.794,5.427S1597.1,313.159,1599.812,312.983Z" transform="translate(-1526.637 -289.121)" fill="#ffb27d"/>
        <path id="Trazado_125806" data-name="Trazado 125806" d="M1596.691,294.428s6.579,5.751,11.078,6.242,6.214-.942,6.214-.942a17.579,17.579,0,0,1-4.21-5.789,3.165,3.165,0,0,0-2.6-1.885C1603.963,291.755,1597.869,291.586,1596.691,294.428Z" transform="translate(-1528.323 -286.774)" fill="#233862"/>
        <path id="Trazado_125807" data-name="Trazado 125807" d="M1595.836,297.189a16.3,16.3,0,0,0-2.938,3.708,12.516,12.516,0,0,0-.386,6.651s-3.4-6.733-1.426-9.978C1593.181,294.129,1595.836,297.189,1595.836,297.189Z" transform="translate(-1523.327 -290.016)" fill="#233862"/>
        <path id="Trazado_125808" data-name="Trazado 125808" d="M1586.645,415.007c.165,20.933-.031,16.557,2.244,18.56.548.482,2.1.778,4.138.927,6.415.471,17.7-.507,18.142-1.69,1.51-4.093.474-5.376,1.753-11.65.134-.667.3-1.389.49-2.176,1.06-4.308,2.073-5.769-1.532-12.728-3.269-6.3-6.675-11.425-6.986-11.243-8.778,5.127-9.452.761-9.452.761S1586.563,404.8,1586.645,415.007Z" transform="translate(-1520.256 -369.564)" fill="#aec3ff"/>
        <path id="Trazado_125809" data-name="Trazado 125809" d="M1484.64,727.015s-.384.249-.956.565a12.815,12.815,0,0,1-2.508,1.09,10.2,10.2,0,0,1-2.582.337c-.6,0-.989-.036-.989-.036l-6.594-18.132,1.932-3.278,4.945-8.393,1.622-2.755c.265.873.52,1.795.767,2.755.666,2.611,1.256,5.5,1.772,8.393C1483.769,717.233,1484.64,727.015,1484.64,727.015Z" transform="translate(-1427.406 -611.586)" fill="#2b478b"/>
        <path id="Trazado_125810" data-name="Trazado 125810" d="M1559.782,398.883s-9.005,1.461-10.089,5.327-7.459,26.587-7.459,26.587,4.567.854,6.694-1.244,7.488-19.546,7.488-19.546Z" transform="translate(-1484.596 -372.679)" fill="#aec3ff"/>
        <path id="Trazado_125811" data-name="Trazado 125811" d="M1619.037,505.455c6.415.471,17.7-.507,18.142-1.69,1.509-4.093.474-5.376,1.753-11.65l-3.034-8.739s.443,9.71-2.437,12.243-11.755,4.846-13.161,6.969A7.807,7.807,0,0,0,1619.037,505.455Z" transform="translate(-1546.266 -440.525)" fill="#95b3ef"/>
        <path id="Trazado_125812" data-name="Trazado 125812" d="M1610.743,570.793s-6.322-1.455-7.348-.9a14.882,14.882,0,0,0-3.854,3.293c-.318.71,2.278-.524,3.121-.744a7.493,7.493,0,0,1,2.685.608,8.941,8.941,0,0,0,4.816.518Z" transform="translate(-1530.59 -509.893)" fill="#ffb27d"/>
        <path id="Trazado_125813" data-name="Trazado 125813" d="M1656.777,395s8.5.584,11.412,4.709c4.1,5.808,12.147,30.492,7.414,33.743-5.331,3.661-24.149.8-24.149.8s-.606-2.935.276-4.346,15.072-3.6,15.73-4.25-8.087-12.814-8.073-14.776S1656.777,395,1656.777,395Z" transform="translate(-1572.134 -369.565)" fill="#aec3ff"/>
        <path id="Trazado_125814" data-name="Trazado 125814" d="M1607.439,579.34a12.244,12.244,0,0,1-1.775,1.9,1.3,1.3,0,0,1-.717.148l.905-1.6Z" transform="translate(-1534.953 -517.58)" fill="#ffb27d"/>
        <path id="Trazado_125815" data-name="Trazado 125815" d="M1603.44,570.407l-3.87,1.846a.688.688,0,0,0,.637.251,9.2,9.2,0,0,0,1.676-.448Z" transform="translate(-1530.635 -510.407)" fill="#ffb27d"/>
      </g>
      <g id="Grupo_88052" data-name="Grupo 88052" transform="translate(32.008 42.366)">
        <g id="Grupo_88051" data-name="Grupo 88051">
          <path id="Trazado_125816" data-name="Trazado 125816" d="M1451.684,504.016l-30.511-.215-9.017-22.889,30.464.215Z" transform="translate(-1412.155 -480.912)" fill="#f99746"/>
          <path id="Trazado_125817" data-name="Trazado 125817" d="M1456.138,592.553l40.291.284-.006.889-39.933-.282Z" transform="translate(-1447.472 -570.556)" fill="#ed7d2b"/>
        </g>
        <path id="Trazado_125818" data-name="Trazado 125818" d="M1497.191,533.545a1.057,1.057,0,0,1,1.046-1.445,2.082,2.082,0,0,1,1.859,1.466,1.057,1.057,0,0,1-1.046,1.445A2.082,2.082,0,0,1,1497.191,533.545Z" transform="translate(-1480.391 -522.014)" fill="#fff"/>
      </g>
    </g>
    <g id="Grupo_88059" data-name="Grupo 88059" transform="translate(295.972 430.915)">
      <g id="Grupo_88058" data-name="Grupo 88058" transform="translate(0)">
        <rect id="Rectángulo_35891" data-name="Rectángulo 35891" width="154.321" height="31.698" rx="15.849" transform="translate(154.321 31.719) rotate(180)" fill="#2b478b"/>
        <path id="Trazado_125819" data-name="Trazado 125819" d="M1141.065,1687.5l-.111,6.927a11.1,11.1,0,0,0,10.919,11.274l81.929,1.309.022-1.38a14.121,14.121,0,0,1-7.611-12.763l.039-2.436a14.122,14.122,0,0,1,8.015-12.513v-.028l-81.929-1.309A11.1,11.1,0,0,0,1141.065,1687.5Z" transform="translate(-1055.677 -1675.85)" fill="#ffeddc"/>
        <g id="Grupo_88054" data-name="Grupo 88054" transform="translate(84.029)">
          <path id="Trazado_125820" data-name="Trazado 125820" d="M1230.866,1704.584h-86.313c-5.567,0-9.928-6.967-9.928-15.86s4.361-15.859,9.928-15.859h86.313a1.3,1.3,0,1,1,0,2.6h-86.313c-3.975,0-7.332,6.074-7.332,13.264s3.358,13.264,7.332,13.264h86.313a1.3,1.3,0,1,1,0,2.6Z" transform="translate(-1134.625 -1672.865)" fill="#1b3770"/>
        </g>
        <g id="Grupo_88055" data-name="Grupo 88055" transform="translate(109.713 8.453)">
          <rect id="Rectángulo_35892" data-name="Rectángulo 35892" width="62.323" height="0.187" fill="#e8c2a3"/>
        </g>
        <g id="Grupo_88056" data-name="Grupo 88056" transform="translate(142.803 11.339)">
          <rect id="Rectángulo_35893" data-name="Rectángulo 35893" width="28.178" height="0.187" fill="#e8c2a3"/>
        </g>
        <g id="Grupo_88057" data-name="Grupo 88057" transform="translate(121.825 21.183)">
          <rect id="Rectángulo_35894" data-name="Rectángulo 35894" width="49.156" height="0.187" fill="#e8c2a3"/>
        </g>
      </g>
      <path id="Trazado_125821" data-name="Trazado 125821" d="M1314.672,1716.242a5.533,5.533,0,0,1,2.926,4.789,26.261,26.261,0,0,1,0,5.662l-3.157-1.5-3.187,1.5v-5.775s-.117-4.676-4.467-4.676Z" transform="translate(-1188.835 -1707.695)" fill="#f78248"/>
    </g>
    <g id="girl_2" data-name="girl 2" transform="translate(282.043 314.798)">
      <path id="Trazado_125822" data-name="Trazado 125822" d="M857.6,1083.908a10.85,10.85,0,0,1,11.358,3.821c4.936,5.939,12.168,13.962,10.291,16.232s-2.252,4.142.441,5.6,4.113,3.39.15,9.452c-2.587,3.957-3.138-1.309-10.993-1.049s-13.864-3.7-16.49-1.525C842.444,1124.657,843.886,1083.684,857.6,1083.908Z" transform="translate(-804.863 -1083.541)" fill="#233862"/>
      <path id="Trazado_125823" data-name="Trazado 125823" d="M699.479,1239.266s-18.051,8.537-21.524,8.385-25.879-7.456-25.879-7.456l.545,3.682s16.516,9.5,22.291,10.038c5.685.531,25.124-5.1,27-6.291S704.933,1240.469,699.479,1239.266Z" transform="translate(-649.197 -1208.583)" fill="#ed985f"/>
      <path id="Trazado_125824" data-name="Trazado 125824" d="M881.258,1199.944a18.4,18.4,0,0,0,6.433,2.738c9.916,2.291,13.715-6.089,15.142-11.842a8.522,8.522,0,0,0-3.359-1.032c-.716-.084-1.47-.141-2.094-.172-1.113-.853-2.772-4.343-3.139-9.762l-.467.125-7.814,2.139s.358,2.484.533,4.832c.136,1.837.157,3.593-.191,4.023-.61.132-.976.219-.976.219a.027.027,0,0,1,0,.007A50.29,50.29,0,0,0,881.258,1199.944Z" transform="translate(-833.222 -1160.893)" fill="#ffb27d"/>
      <path id="Trazado_125825" data-name="Trazado 125825" d="M905.114,1182.656s.359,2.482.533,4.832c4.427-.443,6.482-4.658,7.282-6.97Z" transform="translate(-852.378 -1161.41)" fill="#ed985f"/>
      <path id="Trazado_125826" data-name="Trazado 125826" d="M880.569,1129.676s10.508-.58,10.047-7.119.583-11.017-6.146-10.923-7.855,2.681-8.232,4.9S877.824,1129.658,880.569,1129.676Z" transform="translate(-829.155 -1106.098)" fill="#ffb27d"/>
      <path id="Trazado_125827" data-name="Trazado 125827" d="M870.289,1107.386c1.481-2.083,2.738-1.739,3.468-1.2a7.355,7.355,0,0,1,9.542.833,12.522,12.522,0,0,0,4.614,7.085s-1.828,1.319-6.32.5a7.515,7.515,0,0,1-3.749-2.209,24.552,24.552,0,0,0,4.583,4.845c-5.443-2.057-8.084-9.232-8.35-9.992a8.243,8.243,0,0,0-2.07,3.215c-.4,1.7-2.146,4.364-3.153,4.319C868.854,1114.785,868.068,1110.51,870.289,1107.386Z" transform="translate(-823.154 -1100.607)" fill="#233862"/>
      <path id="Trazado_125828" data-name="Trazado 125828" d="M854.3,1234.733c-.567,5.063.276,7.3,5.528,18.994,4.438,9.885-.6,18.785-.6,18.785s10.8,8.68,18.547,12.039c4.308,1.869,7.677,2.093,7.729-1.727.059-4.323-1.972-9.775-3.675-14.857-1.469-4.381-2.7-8.49-2.136-11.361.949-4.85,4.043-24.232.949-30.469-1.111-2.241-5.472-2.443-10.255-2.246-1.49.96-7.161,4.593-9.492,4.139-.025,0-.07-.016-.13-.029-1.1-.276-1.1-.931-.6-1.712a22.043,22.043,0,0,0-5.044.807,21.361,21.361,0,0,0-6.412,3.339A15.814,15.814,0,0,0,854.3,1234.733Z" transform="translate(-807.087 -1196.189)" fill="#ffeddc"/>
      <path id="Trazado_125829" data-name="Trazado 125829" d="M795.886,1352.616a4.859,4.859,0,0,1-3.495-2.127q-.189-.283-.4-.608c-2.974-4.5-4.132-18.292-10.822-32.982-1.63-3.576-7.479-4.219-9.074-8.262,0,0-3.926-13.1,7.514-13.49s30.637,36.46,30.94,40.325C810.84,1339.214,818.109,1355.123,795.886,1352.616Z" transform="translate(-745.043 -1253.449)" fill="#1b3770"/>
      <path id="Trazado_125830" data-name="Trazado 125830" d="M664.743,1550.879h16.282a6.768,6.768,0,0,0-.46-4.364c-.946-1.563-.584-2.454.117-3.748a6.326,6.326,0,0,1-2.742.516,5.734,5.734,0,0,1-2.421-.852,58.621,58.621,0,0,1-4.639,4.873C669.815,1548.07,665.071,1547.8,664.743,1550.879Z" transform="translate(-659.368 -1452.014)" fill="#233862"/>
      <path id="Trazado_125831" data-name="Trazado 125831" d="M724.144,1296.825c-.98,7.35-4.809,30.55-11.563,41.868-2.177,3.649,5.486,5.695,5.527,5.684,1.028-.269,2.74-1.908,3.529-2.619,5.483-4.942,16.614-18.934,16.614-30.153,0-5.47.1-15.917-3.882-18.572C731.921,1291.4,724.534,1293.905,724.144,1296.825Z" transform="translate(-697.468 -1251.341)" fill="#1b3770"/>
      <path id="Trazado_125832" data-name="Trazado 125832" d="M822.482,1305.309c1.6,4.043,6.078,3.549,7.709,7.125.07.15.137.3.2.453.837,1.855,1.627,3.711,2.374,5.546,1.559,3.83,3.879,11.844,5.622,18.337,1.185,4.406,2.1,8.113,2.334,9.331a18.124,18.124,0,0,0,.974,3.321c24.941,3.848,21.8-13.338,20.427-17.354-1.248-3.668-22.985-41.548-34.425-41.16S822.482,1305.309,822.482,1305.309Z" transform="translate(-784.671 -1250.047)" fill="#2b478b"/>
      <path id="Trazado_125833" data-name="Trazado 125833" d="M725.4,1550.879h16.282a6.768,6.768,0,0,0-.46-4.364c-.946-1.563-.584-2.454.117-3.748a6.327,6.327,0,0,1-2.742.516,5.738,5.738,0,0,1-2.422-.852,58.548,58.548,0,0,1-4.639,4.873C730.476,1548.07,725.732,1547.8,725.4,1550.879Z" transform="translate(-708.077 -1452.014)" fill="#1e3d7c"/>
      <path id="Trazado_125834" data-name="Trazado 125834" d="M869.524,1380.86c.837,1.855,1.627,3.711,2.374,5.546,1.559,3.83,3.879,11.844,5.622,18.337.014.027.029.054.043.081,6.484-10.112-2.858-29.267-2.858-29.267A11.354,11.354,0,0,0,869.524,1380.86Z" transform="translate(-823.8 -1318.019)" fill="#1e3d7c"/>
      <path id="Trazado_125835" data-name="Trazado 125835" d="M782.358,1297.491c-.98,7.35-2.361,31.071-9.115,42.39-2.177,3.649,5.486,5.695,5.527,5.684,1.028-.269,2.74-1.907,3.529-2.619,5.483-4.942,16.614-18.935,16.614-30.153,0-5.47-6.419-15.478-10.4-18.133A4,4,0,0,0,782.358,1297.491Z" transform="translate(-746.177 -1252.528)" fill="#2b478b"/>
      <g id="Grupo_88061" data-name="Grupo 88061" transform="translate(0 16.853)">
        <g id="Grupo_88060" data-name="Grupo 88060">
          <path id="Trazado_125836" data-name="Trazado 125836" d="M637.464,1175.165l3.376-6.091,2.649,7.393,15.854,14.448-15.509,3.161Z" transform="translate(-637.464 -1169.074)" fill="#ea642f"/>
          <path id="Trazado_125837" data-name="Trazado 125837" d="M656.252,1204.047l6.189,18.894-18.607-4.044-6.37-18.912Z" transform="translate(-637.464 -1193.895)" fill="#f78248"/>
          <path id="Trazado_125838" data-name="Trazado 125838" d="M655.538,1202.5l-17.31-3.886-.764.27,17.947,3.88Z" transform="translate(-637.464 -1192.796)" fill="#fcecdb"/>
          <path id="Trazado_125839" data-name="Trazado 125839" d="M728.677,1218.342l.207.335-.333-.072Z" transform="translate(-710.604 -1208.634)" fill="#eac5a4"/>
        </g>
        <path id="Trazado_125840" data-name="Trazado 125840" d="M637.464,1176.371l3.65-5.794,2.387,6.709-5.273-1.184Z" transform="translate(-637.464 -1170.281)" fill="#efdece"/>
      </g>
      <path id="Trazado_125841" data-name="Trazado 125841" d="M692.057,1225.941c.587-.113,1.846-.587,3.12-.938a2.613,2.613,0,0,1-.922-1.031c-.228-.719-.379-.949.379-.722s3.41,1.444,3.41,1.444l-.007,0c1.507.44,2.9,2.57,2.9,2.57s18.655,6.558,20.9,6.67c3.472.174,26.582-8.336,26.582-8.336,5.454,1.2,4.231,7.9,2.354,9.094s-18.506,7.238-28.361,7.352c-4.992.058-23.149-11.613-23.149-11.613a7.728,7.728,0,0,0-3.79-.667c-1.667.3-5.533,0-6.367-1.365S691.071,1226.131,692.057,1225.941Z" transform="translate(-678.804 -1195.655)" fill="#ffb27d"/>
      <path id="Trazado_125842" data-name="Trazado 125842" d="M930.328,1237.538a12.7,12.7,0,0,0,9.165,8.032s11.722-3.612,5.886-11.6C945.379,1233.973,939.608,1229.685,930.328,1237.538Z" transform="translate(-872.624 -1203.394)" fill="#ffeddc"/>
      <path id="Trazado_125843" data-name="Trazado 125843" d="M643.246,1226.234v0a1.786,1.786,0,0,1,.062-.532s1.672-2.645,2.22-2.753c1.668-.33,1.668,1.867,1.314,3.283a7.935,7.935,0,0,1-1.114,2.926l.709,2.1A5.3,5.3,0,0,1,643.246,1226.234Z" transform="translate(-642.105 -1195.455)" fill="#ffb27d"/>
      <path id="Trazado_125844" data-name="Trazado 125844" d="M976.544,1454.406c4.308,1.869,7.677,2.093,7.729-1.728.059-4.323-1.972-9.775-3.675-14.857,0,0-2.345,1.618-7.393-2.084C969.223,1432.819,974.244,1447.9,976.544,1454.406Z" transform="translate(-905.858 -1366.045)" fill="#2b478b"/>
    </g>
    <g id="Grupo_88063" data-name="Grupo 88063" transform="translate(257.712 442.135)">
      <path id="Trazado_125845" data-name="Trazado 125845" d="M513.979,1758.6a7.876,7.876,0,0,0,.063,1.01,8.278,8.278,0,0,0,8.22,7.274h116.5a8.284,8.284,0,0,0,0-16.569h-116.5A8.284,8.284,0,0,0,513.979,1758.6Z" transform="translate(-513.979 -1746.276)" fill="#f78248"/>
      <path id="Trazado_125846" data-name="Trazado 125846" d="M553.9,1732.35h39.943a1.275,1.275,0,0,0,1.271-1.271h0a1.275,1.275,0,0,0-1.271-1.271H553.9a1.275,1.275,0,0,0-1.272,1.271h0A1.275,1.275,0,0,0,553.9,1732.35Z" transform="translate(-545.01 -1729.807)" fill="#f78248"/>
      <rect id="Rectángulo_35895" data-name="Rectángulo 35895" width="4.33" height="1.5" transform="translate(15.422 4.042) rotate(180)" fill="#ea642f"/>
      <path id="Trazado_125847" data-name="Trazado 125847" d="M519.08,1812.477a8.3,8.3,0,0,0,7.278,4.321h24.676v-4.321Z" transform="translate(-518.075 -1796.188)" fill="#ea642f"/>
      <path id="Trazado_125848" data-name="Trazado 125848" d="M725.315,1756.176v4.853a5.854,5.854,0,0,1-5.856,5.858H598.107a5.853,5.853,0,0,1-5.856-5.858v-4.853a5.856,5.856,0,0,1,5.856-5.858H719.459A5.856,5.856,0,0,1,725.315,1756.176Z" transform="translate(-576.829 -1746.277)" fill="#f99746"/>
      <path id="Trazado_125849" data-name="Trazado 125849" d="M725.942,1812.477a5.854,5.854,0,0,1-5.651,4.321H598.939a5.855,5.855,0,0,1-5.652-4.321Z" transform="translate(-577.66 -1796.188)" fill="#ef873a"/>
      <g id="Grupo_88062" data-name="Grupo 88062" transform="translate(136.434 4.041)">
        <path id="Trazado_125850" data-name="Trazado 125850" d="M1206.413,1758.631a9.208,9.208,0,0,0,2.409,6.4l.1.1a5.879,5.879,0,0,0,4.157,1.815c2.457,0,8.546-3.706,12.319-6.167,1.88-1.227,3.186-2.145,3.186-2.145s-1.306-.918-3.186-2.145c-3.774-2.463-9.863-6.17-12.319-6.17a5.5,5.5,0,0,0-2.039.4,6.674,6.674,0,0,0-2.809,2.217,9.145,9.145,0,0,0-1.687,4.054.432.432,0,0,0-.007.054A10.288,10.288,0,0,0,1206.413,1758.631Z" transform="translate(-1206.413 -1750.317)" fill="#cde0fb"/>
        <path id="Trazado_125851" data-name="Trazado 125851" d="M1206.413,1786.015a9.208,9.208,0,0,0,2.409,6.4l18.677-6.426-20.964-1.566A10.292,10.292,0,0,0,1206.413,1786.015Z" transform="translate(-1206.413 -1777.7)" fill="#a6c7ed"/>
        <path id="Trazado_125852" data-name="Trazado 125852" d="M1215.636,1754.539l18.633,5.088-15.824-7.305A6.674,6.674,0,0,0,1215.636,1754.539Z" transform="translate(-1213.819 -1751.927)" fill="#e3f0ff"/>
        <path id="Trazado_125853" data-name="Trazado 125853" d="M1296.594,1783.775a2.3,2.3,0,0,0,1.216,2.145c1.88-1.227,3.186-2.145,3.186-2.145s-1.306-.917-3.186-2.145A2.294,2.294,0,0,0,1296.594,1783.775Z" transform="translate(-1278.825 -1775.461)" fill="#2e3552"/>
      </g>
    </g>
    <g id="Grupo_88067" data-name="Grupo 88067" transform="translate(475.427 298.595)">
      <path id="Trazado_125854" data-name="Trazado 125854" d="M1940.166,1180.686s-.565-1.272-.932-1.874-1.931-2.366-2.2-1.967-1.332,3.088-.766,3.841-.037,2.063,2.778,2.856Z" transform="translate(-1873.614 -1142.211)" fill="#ffb27d"/>
      <path id="Trazado_125855" data-name="Trazado 125855" d="M1982.964,1155.82s-14.408,12.027-20.026,10.914a110.843,110.843,0,0,1-11.135-3.183l-1.348,3.449s6.047,8.2,12.351,8.256a35.91,35.91,0,0,0,17.134-4.266Z" transform="translate(-1885.133 -1125.375)" fill="#95b3ef"/>
      <path id="Trazado_125856" data-name="Trazado 125856" d="M2176.15,1790.82s-.418,6.747-1.724,6.844c-.174.013-6.621.013-6.621.013l-8.23-.048a2.671,2.671,0,0,1,2.46-2.4c2.406-.419,6.432-2.11,7.89-5.29C2171.458,1786.592,2176.15,1790.82,2176.15,1790.82Z" transform="translate(-2053.05 -1633.515)" fill="#1c3d72"/>
      <path id="Trazado_125857" data-name="Trazado 125857" d="M2132.318,1462.579a17.154,17.154,0,0,1-4.455.837,16.358,16.358,0,0,1-4.159-.594,113.907,113.907,0,0,0-3.063-14.592c-1.359-5.261-3.3-12.025-6.061-20.429-7.634-23.229-9.956-36.817-10.167-38.1-.011-.067-.016-.1-.016-.1l.024-.011,23.47-10.3s-2.9,32.014.8,44.3a51.8,51.8,0,0,1,1.344,5.887C2132.372,1442.817,2132.318,1462.579,2132.318,1462.579Z" transform="translate(-2008.744 -1304.806)" fill="#2b478b"/>
      <path id="Trazado_125858" data-name="Trazado 125858" d="M2120.7,1448.231c-1.359-5.261-3.3-12.025-6.061-20.429-7.634-23.229-9.955-36.817-10.167-38.1,0-.038,0-.074.009-.113l23.47-10.3s-2.9,32.014.8,44.3C2129.274,1425.3,2120.7,1448.231,2120.7,1448.231Z" transform="translate(-2008.808 -1304.806)" fill="#233862"/>
      <path id="Trazado_125859" data-name="Trazado 125859" d="M2083.116,1790.82s-.418,6.747-1.723,6.844c-.174.013-6.621.013-6.621.013l-8.23-.048a2.67,2.67,0,0,1,2.459-2.4c2.406-.419,6.432-2.11,7.89-5.29C2078.424,1786.592,2083.116,1790.82,2083.116,1790.82Z" transform="translate(-1978.348 -1633.515)" fill="#1c3d72"/>
      <path id="Trazado_125860" data-name="Trazado 125860" d="M2083.1,1383.108a334.164,334.164,0,0,0,3.284,46.217c3.59,25.472,2.373,36.284,2.373,36.284a24.42,24.42,0,0,0,3.461.88,15.705,15.705,0,0,0,5.135-.594s5.137-25.481,3.665-38.231,7.035-43.748,7.035-43.748Z" transform="translate(-1991.639 -1307.88)" fill="#2b478b"/>
      <path id="Trazado_125861" data-name="Trazado 125861" d="M2127.934,1094.927l-4.582,3-4.173-1.18c-.762-1.088-.964-3.186-.976-5a31.132,31.132,0,0,1,.164-3.331l6.181-2.728,2.306-1.016c-.007.036-.18,1.893-.2,2.165A15.78,15.78,0,0,0,2127.934,1094.927Z" transform="translate(-2019.83 -1068.246)" fill="#ffb27d"/>
      <path id="Trazado_125862" data-name="Trazado 125862" d="M2082.208,1183.941c5.7,5.505,27.283,4.579,28.613-1.487s-1.451-51.638-11.191-54.5c-2.021-.594-12.828,2.9-12.828,2.9a68.536,68.536,0,0,0-2.808,10.083c-.216,1.1-.846,12.745-1.317,23.641-.22,5.1-.406,10.028-.5,13.639A39.393,39.393,0,0,0,2082.208,1183.941Z" transform="translate(-1990.851 -1102.945)" fill="#afcdfb"/>
      <path id="Trazado_125863" data-name="Trazado 125863" d="M2126.188,1091.061c-1.254,2.12-5.653,3.976-7.984,4.826a31.132,31.132,0,0,1,.164-3.331l6.181-2.728C2125.915,1089.809,2126.747,1090.114,2126.188,1091.061Z" transform="translate(-2019.83 -1072.385)" fill="#fca56b"/>
      <path id="Trazado_125864" data-name="Trazado 125864" d="M2102.131,1034.966s9.959,3.107,11.8-3.125,4.363-10.028-1.918-12.275-8.224-.235-9.343,1.7S2099.588,1034,2102.131,1034.966Z" transform="translate(-2005.925 -1015.172)" fill="#ffb27d"/>
      <path id="Trazado_125865" data-name="Trazado 125865" d="M2108.1,1006.8s.635,7.252,2.135,6.937,3.151-.988,2.931,1.2,1.458,5.933,3.621,5.924c4.638-.019,9.677-11.92,8.408-14.177C2121.531,1000.166,2102.805,998.852,2108.1,1006.8Z" transform="translate(-2010.966 -1001.306)" fill="#163560"/>
      <path id="Trazado_125866" data-name="Trazado 125866" d="M2108.558,1116.568c.128-.054,7.414-3.322,8.266-3.041s1.914,2.883,1.914,2.883l-12.829,2.9A6.369,6.369,0,0,1,2108.558,1116.568Z" transform="translate(-2009.958 -1091.402)" fill="#95b3ef"/>
      <g id="Grupo_88065" data-name="Grupo 88065" transform="translate(0 4.592)">
        <path id="Trazado_125867" data-name="Trazado 125867" d="M1885.628,1292.238l40.839,38.45c.8.754,1.81.994,2.243.534l1.379-1.464c.433-.46.133-1.453-.668-2.207l-40.839-38.451c-.8-.754-1.81-.994-2.243-.533l-1.378,1.464C1884.527,1290.491,1884.827,1291.484,1885.628,1292.238Z" transform="translate(-1832.384 -1236.371)" fill="#1f4d84"/>
        <path id="Trazado_125868" data-name="Trazado 125868" d="M2005.472,1404.877l17.921,16.873c.8.754,1.81.994,2.243.534l1.378-1.464c.433-.46.133-1.453-.667-2.207l-17.921-16.873Z" transform="translate(-1929.311 -1327.433)" fill="#f78248"/>
        <path id="Trazado_125869" data-name="Trazado 125869" d="M1674.255,1034.689a32,32,0,0,0-45.243-1.377c-.17.159-.339.321-.5.485a32.011,32.011,0,1,0,45.745.893Zm-3.109,43.408a29.485,29.485,0,1,1,1.27-41.676A29.449,29.449,0,0,1,1671.146,1078.1Z" transform="translate(-1618.935 -1024.614)" fill="#1f4d84"/>
        <g id="Grupo_88064" data-name="Grupo 88064" transform="translate(2.527 2.528)" opacity="0.5">
          <path id="Trazado_125870" data-name="Trazado 125870" d="M1639.771,1087.125a29.484,29.484,0,1,0,1.271-41.674A29.36,29.36,0,0,0,1639.771,1087.125Z" transform="translate(-1631.761 -1037.442)" fill="#b3cff9"/>
        </g>
      </g>
      <path id="Trazado_125871" data-name="Trazado 125871" d="M2082.434,1230.777c22.5-16.035,20.631-37.432,20.631-37.432-8.225,4.639-16.386,14.9-20.13,23.792C2082.715,1222.233,2082.529,1227.166,2082.434,1230.777Z" transform="translate(-1991.109 -1155.507)" fill="#95b3ef"/>
      <g id="Grupo_88066" data-name="Grupo 88066" transform="translate(62.652 27.909)">
        <path id="Trazado_125872" data-name="Trazado 125872" d="M1943.371,1339.025a6.138,6.138,0,0,1-2.874-1.775s-.677.046.111,1.49c.066.121.212.431.323.65a.14.14,0,0,1-.118.2,14.971,14.971,0,0,0-3.6.075c-.243.051-.314.633-.3.882a2.253,2.253,0,0,0,.474,1.537c.284.375,1.077.778,2.844,1.489a8.6,8.6,0,0,0,4.4-.553l1.441-.667-.447-2.677-.362.076C1944.682,1339.874,1943.97,1339.172,1943.371,1339.025Z" transform="translate(-1936.907 -1298.966)" fill="#ffb27d"/>
        <path id="Trazado_125873" data-name="Trazado 125873" d="M2012.295,1142.95s20.219,3.85-5.948,33.13c-4.185,4.683-26.8,10.78-26.8,10.78s-2.293-1.951-1.137-3.531c0,0,15.568-11.305,18.994-13.1,1.541-.809,5.981-18.044,8.493-22.2A11.326,11.326,0,0,1,2012.295,1142.95Z" transform="translate(-1969.973 -1142.95)" fill="#afcdfb"/>
      </g>
      <path id="Trazado_125874" data-name="Trazado 125874" d="M1942.748,1178.3a10.3,10.3,0,0,1-.791-1.931,10.661,10.661,0,0,0-1.305-2.953c-.137-.137-.59.04-.643.629a3.42,3.42,0,0,0,.325,1.279,14.376,14.376,0,0,1,.428,2.541C1941.075,1178.881,1942.748,1178.3,1942.748,1178.3Z" transform="translate(-1876.744 -1139.467)" fill="#ffb27d"/>
    </g>
    <g id="Grupo_88073" data-name="Grupo 88073" transform="translate(279.429 413.61)">
      <g id="Grupo_88072" data-name="Grupo 88072" transform="translate(0)">
        <path id="Trazado_125875" data-name="Trazado 125875" d="M632.856,1602.409h97.855a8.658,8.658,0,0,0,8.658-8.657h0a8.657,8.657,0,0,0-8.658-8.657H632.856a8.657,8.657,0,0,0-8.658,8.657h0A8.658,8.658,0,0,0,632.856,1602.409Z" transform="translate(-624.198 -1585.082)" fill="#699dee"/>
        <path id="Trazado_125876" data-name="Trazado 125876" d="M947.278,1593.02l-.083,3.779c-.073,3.343,3.576,6.1,8.149,6.149l61.144.714.016-.753c-3.43-1.3-5.746-3.944-5.68-6.961l.029-1.329c.066-3.018,2.5-5.6,5.982-6.825v-.015l-61.144-.714C951.119,1587.01,947.351,1589.677,947.278,1593.02Z" transform="translate(-883.553 -1586.663)" fill="#ffeddc"/>
        <g id="Grupo_88068" data-name="Grupo 88068" transform="translate(62.711)">
          <path id="Trazado_125877" data-name="Trazado 125877" d="M1014.3,1602.337H949.881c-4.155,0-7.409-3.8-7.409-8.651s3.255-8.651,7.409-8.651H1014.3c.535,0,.969.317.969.708s-.434.708-.969.708H949.881c-2.966,0-5.472,3.313-5.472,7.235s2.506,7.235,5.472,7.235H1014.3c.535,0,.969.317.969.708S1014.832,1602.337,1014.3,1602.337Z" transform="translate(-942.472 -1585.035)" fill="#4b87dd"/>
        </g>
        <g id="Grupo_88069" data-name="Grupo 88069" transform="translate(81.879 4.602)">
          <rect id="Rectángulo_35896" data-name="Rectángulo 35896" width="46.512" height="0.12" fill="#e8c2a3"/>
        </g>
        <g id="Grupo_88070" data-name="Grupo 88070" transform="translate(106.574 6.177)">
          <rect id="Rectángulo_35897" data-name="Rectángulo 35897" width="21.03" height="0.12" fill="#e8c2a3"/>
        </g>
        <g id="Grupo_88071" data-name="Grupo 88071" transform="translate(90.918 11.546)">
          <rect id="Rectángulo_35898" data-name="Rectángulo 35898" width="36.685" height="0.12" fill="#e8c2a3"/>
        </g>
      </g>
    </g>
  </g>
</svg>
