<svg xmlns="http://www.w3.org/2000/svg" width="400" height="570.001" viewBox="0 0 400 570.001">
  <g id="Grupo_81299" data-name="Grupo 81299" transform="translate(-1020 -8545.999)">
    <g id="Grupo_81298" data-name="Grupo 81298" transform="translate(938.458 8641.094)">
      <g id="Grupo_81297" data-name="Grupo 81297" transform="translate(81.543 277.222)">
        <rect id="Rectángulo_34322" data-name="Rectángulo 34322" width="43.06" height="160.684" transform="translate(356.94)" fill="#e6e6e6"/>
        <path id="Trazado_116833" data-name="Trazado 116833" d="M336.9,390.062h22.115V367.88h-45.3Z" transform="translate(40.986 -229.377)" fill="#fafafa"/>
        <rect id="Rectángulo_34323" data-name="Rectángulo 34323" width="43.06" height="160.684" fill="#e6e6e6"/>
        <rect id="Rectángulo_34324" data-name="Rectángulo 34324" width="376.241" height="153.049" transform="translate(23.759)" fill="#fafafa"/>
        <path id="Trazado_116834" data-name="Trazado 116834" d="M119.209,390.062H97.094V367.88h45.3Z" transform="translate(-73.335 -229.377)" fill="#fafafa"/>
        <rect id="Rectángulo_34325" data-name="Rectángulo 34325" width="341.929" height="38.301" transform="translate(40.915 57.031)" fill="#f0f0f0"/>
        <rect id="Rectángulo_34326" data-name="Rectángulo 34326" width="341.929" height="38.301" transform="translate(40.915 103.519)" fill="#f0f0f0"/>
        <rect id="Rectángulo_34327" data-name="Rectángulo 34327" width="341.929" height="38.301" transform="translate(40.915 10.543)" fill="#f0f0f0"/>
        <rect id="Rectángulo_34328" data-name="Rectángulo 34328" width="1.45" height="38.301" transform="translate(381.394 57.031)" fill="#e0e0e0"/>
        <rect id="Rectángulo_34329" data-name="Rectángulo 34329" width="1.45" height="38.301" transform="translate(381.394 103.519)" fill="#e0e0e0"/>
        <rect id="Rectángulo_34330" data-name="Rectángulo 34330" width="1.45" height="38.301" transform="translate(381.394 10.543)" fill="#e0e0e0"/>
      </g>
    </g>
    <g id="Grupo_81296" data-name="Grupo 81296" transform="translate(1040.455 8434.023)">
      <g id="Grupo_81294" data-name="Grupo 81294" transform="translate(99.64 111.976)">
        <g id="Grupo_81292" data-name="Grupo 81292" transform="translate(40.475)">
          <path id="Trazado_116788" data-name="Trazado 116788" d="M153.518,419.5l-14.4-3.669,4.664-34.33,14.4,3.669Z" transform="translate(-105.637 123.421)" fill="#ff8b7b"/>
          <path id="Trazado_116789" data-name="Trazado 116789" d="M210.64,424.184H195.777l-2.19-34.419H208.45Z" transform="translate(-58.062 130.641)" fill="#ff8b7b"/>
          <path id="Trazado_116790" data-name="Trazado 116790" d="M206.636,407.219h18.121a1.046,1.046,0,0,1,1.088,1.015l.635,13.211a2.675,2.675,0,0,1-2.636,2.641c-5.813-.1-10.008-.442-17.351-.442-4.517,0-16.139.47-22.378.47-6.1,0-5.978-6.169-3.327-6.727,11.889-2.5,19.036-5.959,23.275-9.256A4.246,4.246,0,0,1,206.636,407.219Z" transform="translate(-70.752 145.885)" fill="#263238"/>
          <path id="Trazado_116791" data-name="Trazado 116791" d="M155.249,399.023l15.729,4.007a1.3,1.3,0,0,1,.976,1.3l-.416,13.526a2.163,2.163,0,0,1-2.726,2.034c-5.648-1.542-13.762-3.962-20.894-5.779-8.338-2.124-11.847-2.754-21.626-5.244-5.912-1.506-6.03-7.9-3.419-7.814,11.9.406,17.355,1.735,28.62-1.789A6.89,6.89,0,0,1,155.249,399.023Z" transform="translate(-121.245 138.583)" fill="#263238"/>
          <path id="Trazado_116792" data-name="Trazado 116792" d="M191.286,163.076c-5.807,8.56-11.313,17.205-16.636,26.034-2.679,4.4-5.283,8.846-7.855,13.322-1.291,2.233-2.578,4.472-3.824,6.739l-1.877,3.4c-.551,1.019-1.487,2.67-1.4,2.593-.081.251.077-.17,1.407-.7a5.053,5.053,0,0,1,2.36-.348,3.644,3.644,0,0,1,1.508.393c.481.3.086.212-.356-.133a12.76,12.76,0,0,1-1.714-1.619,68.369,68.369,0,0,1-7.6-11.053c-4.805-8.363-9.316-17.522-13.573-26.531l-10.631,3.4a178.01,178.01,0,0,0,9.043,30.506c1.008,2.527,2.156,5.03,3.426,7.572a55.463,55.463,0,0,0,4.6,7.733,32.779,32.779,0,0,0,3.438,4.06,19.659,19.659,0,0,0,5.954,4.163,15.325,15.325,0,0,0,5.23,1.251,14.589,14.589,0,0,0,6.1-1.047,17.55,17.55,0,0,0,7.132-5.676c1.564-2.166,1.871-2.756,2.666-3.912l2.111-3.159,4.223-6.332,8.458-12.688c5.637-8.456,11.212-17.018,16.63-25.574Z" transform="translate(-112.648 -67.346)" fill="#ff8b7b"/>
          <path id="Trazado_116793" data-name="Trazado 116793" d="M202.012,169.74c3.649,13.734-25.525,50.151-25.525,50.151L148.531,200.85s8.854-18.74,20.579-32.9C181.149,153.413,198.007,154.669,202.012,169.74Z" transform="translate(-97.413 -72.03)" fill="#263238"/>
          <path id="Trazado_116794" data-name="Trazado 116794" d="M173.212,176.7c-6.95-2.048-11.551,10.9-15.283,21.591l10.358,7.053s11.208-13.987,18.858-27.893C183.16,169.733,181.976,179.281,173.212,176.7Z" transform="translate(-89.205 -57.479)" opacity="0.2"/>
          <g id="Grupo_81289" data-name="Grupo 81289" transform="translate(35.737 504.928)">
            <path id="Trazado_116795" data-name="Trazado 116795" d="M142.727,381.5,140.321,399.2l14.409,3.67,2.406-17.695Z" transform="translate(-140.321 -381.503)" opacity="0.2"/>
            <path id="Trazado_116796" data-name="Trazado 116796" d="M208.455,389.77H193.586l1.136,17.741h14.869Z" transform="translate(-93.799 -374.283)" opacity="0.2"/>
          </g>
          <path id="Trazado_116797" data-name="Trazado 116797" d="M258.442,166.23A334.158,334.158,0,0,0,247.5,214.8c-1.759,11.469-2.941,22.428-3.771,32.376-1.952,23.314-1.988,41.134-2.866,47.144-11.593-1.163-55.276-5.555-79.094-7.96-8.194-84.836,13.756-127.743,13.756-127.743a155.2,155.2,0,0,1,19.045-1.761c1.345-.045,2.713-.051,4.1-.036,8.985.086,23.577,1.883,33.627,3.381,2.113.318,4.249.7,6.325,1.094C249.182,163.356,258.442,166.23,258.442,166.23Z" transform="translate(-87.452 -72.812)" fill="#263238"/>
          <path id="Trazado_116798" data-name="Trazado 116798" d="M203.387,179.248l13.277-9.8c-2.99,11.608-5.21,23.209-6.913,34.335-1.012,6.6-1.843,13.026-2.5,19.2C201.776,204.12,203.387,179.248,203.387,179.248Z" transform="translate(-49.696 -61.783)" opacity="0.2"/>
          <path id="Trazado_116799" data-name="Trazado 116799" d="M215.382,138.239c-3.211,10.605-7.325,30.214-.483,38.195-6.126,5.156-14.835,9.191-26.962,7.7-9.286-1.141-9.1-7.694-6.662-11.089,12.355-1.665,12.945-10.648,11.69-19.266Z" transform="translate(-70.058 -89.038)" fill="#ff8b7b"/>
          <path id="Trazado_116800" data-name="Trazado 116800" d="M209.027,156.814l5.223,3.027a1.314,1.314,0,0,1,.616,1.474c-1.062,4.032-6.145,19.288-23.065,23.477a21.748,21.748,0,0,0-5.29-16.418c5.832-.922,17.426-6.169,20.757-11.135A1.316,1.316,0,0,1,209.027,156.814Z" transform="translate(-64.242 -72.969)" fill="#529d2e"/>
          <path id="Trazado_116801" data-name="Trazado 116801" d="M186.557,156.266l-5.23.328a1.31,1.31,0,0,0-.922.461c-2.439,2.864-15.467,19.367,2.357,25.489-1.051-9.9,7.928-14.725,7.928-14.725-3.8-2.735-3.6-6.907-2.78-9.888A1.315,1.315,0,0,0,186.557,156.266Z" transform="translate(-75.583 -73.296)" fill="#529d2e"/>
          <path id="Trazado_116802" data-name="Trazado 116802" d="M200.125,141.625l-13.267,9.193a34.757,34.757,0,0,1,.435,6.072c4.676-.2,11.518-4.624,12.494-9.4A16.32,16.32,0,0,0,200.125,141.625Z" transform="translate(-63.939 -86.081)" opacity="0.2"/>
          <path id="Trazado_116803" data-name="Trazado 116803" d="M185.079,119.377c-9.983,4.674-11.589,20.111-1.354,26.4S198.524,113.084,185.079,119.377Z" transform="translate(-72.741 -106.115)" fill="#263238"/>
          <path id="Trazado_116804" data-name="Trazado 116804" d="M220.557,140.628c-2.375,14.558-3.027,23.2-11.182,29.972-12.269,10.189-29.674,1.658-31.7-13.316-1.819-13.479,2.372-35.021,17.3-39.407A20.119,20.119,0,0,1,220.557,140.628Z" transform="translate(-72.305 -107.578)" fill="#ff8b7b"/>
          <path id="Trazado_116805" data-name="Trazado 116805" d="M216.873,157.316c-4.7-3.188-7.735-10.948-4.14-22.458-5.579,1.718-33.622,5.423-33.85-9.247-.219-14.058,20.45-7.156,30.313-13.635,2.166,2.462-.654,5.247-.654,5.247s14.112,6.349,22.479,3.513c-.069,3.037-3.027,5.332-3.027,5.332s8.707,1.062,8.067,14.153C235.452,152.67,219.578,159.15,216.873,157.316Z" transform="translate(-70.906 -111.976)" fill="#263238"/>
          <path id="Trazado_116806" data-name="Trazado 116806" d="M209.9,143.451a14.025,14.025,0,0,1-9.314,5.285c-4.884.568-6.562-3.985-4.565-8.194,1.8-3.788,6.5-8.649,11.1-7.271C211.641,134.627,212.662,139.839,209.9,143.451Z" transform="translate(-56.657 -93.587)" fill="#ff8b7b"/>
          <g id="Grupo_81290" data-name="Grupo 81290" transform="translate(31.187 213.555)">
            <path id="Trazado_116807" data-name="Trazado 116807" d="M137.892,530.337l24.392,6.2s19.449-89,25.216-134.949c1.754-13.979,6.062-33.391,11.368-54.145,6.694-26.145,14.952-54.384,21.679-76.49,7.1-23.282,12.464-39.749,12.464-39.749l-52-5.234s-31.7,118.437-34.633,163.7C143.325,436.743,137.892,530.337,137.892,530.337Z" transform="translate(-137.892 -225.97)" fill="#407bff"/>
            <path id="Trazado_116808" data-name="Trazado 116808" d="M137.892,530.337l24.392,6.2s19.449-89,25.216-134.949c1.754-13.979,6.062-33.391,11.368-54.145,6.694-26.145,14.952-54.384,21.679-76.49,7.1-23.282,12.464-39.749,12.464-39.749l-52-5.234s-31.7,118.437-34.633,163.7C143.325,436.743,137.892,530.337,137.892,530.337Z" transform="translate(-137.892 -225.97)" fill="#fff" opacity="0.6"/>
          </g>
          <path id="Trazado_116809" data-name="Trazado 116809" d="M170.592,331.979c6.694-26.145,14.952-54.384,21.679-76.49l-5.049-11.812C173.823,258.638,168.885,306.076,170.592,331.979Z" transform="translate(-78.43 3.05)" opacity="0.2"/>
          <g id="Grupo_81291" data-name="Grupo 81291" transform="translate(102.362 216.378)">
            <path id="Trazado_116810" data-name="Trazado 116810" d="M175.885,227.477s1.71,127.36,6.658,170.626c5.418,47.38,21.3,147.717,21.3,147.717h27.222s-.888-93.458-8.005-139.408c-8.106-52.341,3.863-173.79,3.863-173.79Z" transform="translate(-175.885 -227.477)" fill="#407bff"/>
            <path id="Trazado_116811" data-name="Trazado 116811" d="M175.885,227.477s1.71,127.36,6.658,170.626c5.418,47.38,21.3,147.717,21.3,147.717h27.222s-.888-93.458-8.005-139.408c-8.106-52.341,3.863-173.79,3.863-173.79Z" transform="translate(-175.885 -227.477)" fill="#fff" opacity="0.6"/>
          </g>
          <path id="Trazado_116812" data-name="Trazado 116812" d="M189.947,402.475H222l1.668-9.576-35.724-.623Z" transform="translate(-62.989 132.834)" fill="#263238"/>
          <path id="Trazado_116813" data-name="Trazado 116813" d="M136.6,393.34l29.063,7.4,2.392-9.39L135.7,382.584Z" transform="translate(-108.624 124.369)" fill="#263238"/>
          <path id="Trazado_116814" data-name="Trazado 116814" d="M189.624,131.683c-.12,1.193-.849,2.1-1.63,2.018s-1.313-1.109-1.193-2.3.849-2.1,1.63-2.018S189.744,130.491,189.624,131.683Z" transform="translate(-64.004 -96.778)" fill="#263238"/>
          <path id="Trazado_116815" data-name="Trazado 116815" d="M182.427,130.958c-.12,1.193-.849,2.1-1.628,2.018s-1.315-1.109-1.2-2.3.851-2.094,1.63-2.016S182.549,129.766,182.427,130.958Z" transform="translate(-70.29 -97.411)" fill="#263238"/>
          <path id="Trazado_116816" data-name="Trazado 116816" d="M186.494,130.431s-3.4,6.607-6.725,9.625c1.913,2.182,5.59,1.645,5.59,1.645Z" transform="translate(-70.131 -95.858)" fill="#ff5652"/>
          <path id="Trazado_116817" data-name="Trazado 116817" d="M186.143,140.193a11.756,11.756,0,0,1-1.564-.052.352.352,0,1,1,.071-.7,9.494,9.494,0,0,0,8.076-2.919.352.352,0,0,1,.547.442A9.869,9.869,0,0,1,186.143,140.193Z" transform="translate(-66.206 -90.653)" fill="#263238"/>
          <path id="Trazado_116818" data-name="Trazado 116818" d="M193.345,130.623a.708.708,0,0,1-.626-.337,5.606,5.606,0,0,0-4.251-2.791.7.7,0,1,1,.043-1.407,6.979,6.979,0,0,1,5.41,3.466.7.7,0,0,1-.234.967A.7.7,0,0,1,193.345,130.623Z" transform="translate(-63.129 -99.652)" fill="#263238"/>
          <path id="Trazado_116819" data-name="Trazado 116819" d="M178.591,129.2a.7.7,0,0,1-.622-1.073,7.022,7.022,0,0,1,5.431-3.436.7.7,0,0,1,.039,1.409,5.471,5.471,0,0,0-4.271,2.767A.707.707,0,0,1,178.591,129.2Z" transform="translate(-71.794 -100.874)" fill="#263238"/>
          <path id="Trazado_116820" data-name="Trazado 116820" d="M196.4,409.827a.453.453,0,0,0,.315-.285.305.305,0,0,0-.1-.356c-.483-.339-4.768-3.288-6.555-2.439a1.4,1.4,0,0,0-.777.995,1.848,1.848,0,0,0,.4,1.86,3.952,3.952,0,0,0,2.731.759A18.773,18.773,0,0,0,196.4,409.827Zm-.935-.495c-2.612.506-4.537.412-5.23-.268a1.261,1.261,0,0,1-.257-1.279.534.534,0,0,1,.294-.412,1.094,1.094,0,0,1,.472-.09C191.881,407.283,193.951,408.362,195.461,409.332Z" transform="translate(-61.896 145.34)" fill="#67c53a"/>
          <path id="Trazado_116821" data-name="Trazado 116821" d="M194.8,411.405a.428.428,0,0,0,.215-.322c.017-.182.41-4.472-1.072-5.882a1.692,1.692,0,0,0-1.42-.453,1.434,1.434,0,0,0-1.281.924c-.6,1.656,1.8,4.914,3.2,5.749a.313.313,0,0,0,.161.041A.4.4,0,0,0,194.8,411.405Zm-1.4-5.66c.95.9.989,3.4.944,4.655-1.326-1.16-2.791-3.621-2.435-4.6.032-.09.109-.3.575-.356.056-.006.111-.009.161-.009A1.049,1.049,0,0,1,193.407,405.746Z" transform="translate(-60.189 143.715)" fill="#67c53a"/>
          <path id="Trazado_116822" data-name="Trazado 116822" d="M142.547,401.951a.355.355,0,0,0-.092-.4c-.569-.5-5.6-4.929-7.608-4.386a1.115,1.115,0,0,0-.794.764,1.971,1.971,0,0,0,.215,1.823c1.223,1.8,5.5,2.285,7.934,2.413a.388.388,0,0,0,.047,0A.348.348,0,0,0,142.547,401.951Zm-1.36-.558c-3.314-.281-5.648-1.023-6.336-2.033a1.283,1.283,0,0,1-.131-1.2.416.416,0,0,1,.307-.309.764.764,0,0,1,.139-.023C136.346,397.727,139.18,399.722,141.186,401.393Z" transform="translate(-110.17 137.067)" fill="#67c53a"/>
          <path id="Trazado_116823" data-name="Trazado 116823" d="M140.271,403.3a.353.353,0,0,0,.219-.273c.026-.17.628-4.148-.822-6.118a2.575,2.575,0,0,0-1.742-1.068c-.961-.141-1.353.262-1.514.631-.678,1.561,1.973,5.553,3.513,6.774a.342.342,0,0,0,.247.075A.357.357,0,0,0,140.271,403.3Zm-2.45-6.763a1.863,1.863,0,0,1,1.28.787c.952,1.294.875,3.745.77,4.925-1.5-1.517-3.218-4.562-2.812-5.5.024-.058.09-.206.4-.232A1.622,1.622,0,0,1,137.821,396.532Z" transform="translate(-108.093 135.918)" fill="#67c53a"/>
        </g>
        <g id="Grupo_81293" data-name="Grupo 81293" transform="translate(0 92.438)">
          <path id="Trazado_116824" data-name="Trazado 116824" d="M220.89,174.706c1.263,4.74,2.677,9.841,3.863,14.809,1.246,5,2.4,10.009,3.516,15.01q1.619,7.509,2.906,14.981c.39,2.482.774,4.972,1.085,7.43.176,1.236.339,2.469.442,3.685l.184,1.83.092.918.041.393a1.229,1.229,0,0,1,.017-.262c.1-.723.35-1.032.343-.884a4.07,4.07,0,0,1-.768,1.165,23.176,23.176,0,0,1-4.372,3.691,92.39,92.39,0,0,1-12.6,6.986c-9.1,4.264-18.936,8.138-28.623,11.688l2.447,10.888a180.6,180.6,0,0,0,32.3-6.813,94.43,94.43,0,0,0,16.173-6.613,42.826,42.826,0,0,0,8.385-5.793,23.862,23.862,0,0,0,4.239-5,18.049,18.049,0,0,0,2.748-8.393l.036-1.257-.007-.6-.019-1.072-.041-2.145c-.009-1.439-.079-2.851-.161-4.256-.109-2.838-.4-5.616-.656-8.4-.581-5.543-1.338-11.032-2.306-16.447-.942-5.42-2.076-10.781-3.34-16.1-1.338-5.347-2.621-10.521-4.367-15.969Z" transform="translate(-23.328 -155.335)" fill="#ff8b7b"/>
          <path id="Trazado_116825" data-name="Trazado 116825" d="M227.14,164.075c12.69,6.394,20.791,47.509,20.791,47.509l-35.3,9.618s-6.947-17.93-9.875-36.061C199.564,165.392,211.767,156.331,227.14,164.075Z" transform="translate(-10.025 -161.319)" fill="#263238"/>
          <path id="Trazado_116826" data-name="Trazado 116826" d="M282.883,260.874l-182.528-74L99.64,188.6l181.534,76.408Z" transform="translate(-99.64 -139.001)" fill="#67c53a"/>
          <path id="Trazado_116827" data-name="Trazado 116827" d="M195.836,215.031l-15.088.2,8.147,17.147s12.806-3.022,11.963-9.985Z" transform="translate(-28.801 -114.407)" fill="#ff8b7b"/>
          <path id="Trazado_116828" data-name="Trazado 116828" d="M175.557,222.857l7.4,13.858,10.474-4.429-8.147-17.148Z" transform="translate(-33.334 -114.314)" fill="#ff8b7b"/>
          <path id="Trazado_116829" data-name="Trazado 116829" d="M140.674,181.6l-14.893-2.42,8.106-14.4s15.092,3.554,13.031,11.864Z" transform="translate(-76.808 -158.297)" fill="#ff8b7b"/>
          <path id="Trazado_116830" data-name="Trazado 116830" d="M121.254,171.742l3.683-8.837,12.906,3.508-8.107,14.4Z" transform="translate(-80.762 -159.933)" fill="#ff8b7b"/>
        </g>
      </g>
      <g id="Grupo_81295" data-name="Grupo 81295" transform="translate(135.42 131.122)">
        <path id="Trazado_116831" data-name="Trazado 116831" d="M132.586,136.106a6.955,6.955,0,1,1,6.956-6.954A6.955,6.955,0,0,1,132.586,136.106Z" transform="translate(-112.72 -122.196)" fill="#fc8116"/>
        <path id="Trazado_116832" data-name="Trazado 116832" d="M120.549,139.411l14.264-8.082a7.728,7.728,0,0,1,7.589.006l14.245,8.076a3.605,3.605,0,0,1-3.584,6.257l-6.658-3.816v37.61a3.578,3.578,0,1,1-7.156,0V159.027c-.214.019-.427.034-.644.034s-.431-.015-.644-.034v20.435a3.579,3.579,0,1,1-7.158,0V141.846l-6.667,3.822a3.606,3.606,0,0,1-3.586-6.257Z" transform="translate(-118.739 -115.087)" fill="#fc8116"/>
      </g>
    </g>
  </g>
</svg>
