<svg xmlns="http://www.w3.org/2000/svg" width="100.645" height="95.851" viewBox="0 0 100.645 95.851">
  <g id="ley" transform="translate(0.001 -12.193)">
    <g id="Grupo_80729" data-name="Grupo 80729" transform="translate(21.864 73.352)">
      <g id="Grupo_80724" data-name="Grupo 80724" transform="translate(0 5.36)">
        <path id="Trazado_114743" data-name="Trazado 114743" d="M173.421,361.823a17.064,17.064,0,0,0,4.1,11.238H115.769a1.954,1.954,0,0,1-1.594-.816,19.892,19.892,0,0,1,0-20.844,1.954,1.954,0,0,1,1.594-.816h61.748A17.065,17.065,0,0,0,173.421,361.823Z" transform="translate(-111.226 -350.585)" fill="#fb3a82"/>
        <path id="Trazado_114744" data-name="Trazado 114744" d="M130.068,350.587l-17.413,18.861a19.732,19.732,0,0,1-1.425-7.623,17.834,17.834,0,0,1,2.949-10.422,1.951,1.951,0,0,1,1.594-.816Z" transform="translate(-111.229 -350.587)" fill="#fb1466"/>
        <path id="Trazado_114745" data-name="Trazado 114745" d="M207.986,361.823a17.064,17.064,0,0,0,4.1,11.238H149.394s-3.6-3.649-3.6-11.238,3.6-11.238,3.6-11.238h62.688A17.065,17.065,0,0,0,207.986,361.823Z" transform="translate(-138.996 -350.585)" fill="#e0d3ce"/>
        <g id="Grupo_80723" data-name="Grupo 80723" transform="translate(6.794 0)">
          <path id="Trazado_114746" data-name="Trazado 114746" d="M157.834,350.587l-11.979,12.976c-.041-.554-.065-1.134-.065-1.738,0-7.59,3.6-11.238,3.6-11.238Z" transform="translate(-145.79 -350.587)" fill="#cdbfbb"/>
          <path id="Trazado_114747" data-name="Trazado 114747" d="M431.827,361.829a17.062,17.062,0,0,0,4.1,11.237H428.5a17.46,17.46,0,0,1,0-22.474h7.428A17.057,17.057,0,0,0,431.827,361.829Z" transform="translate(-369.632 -350.591)" fill="#cdbfbb"/>
        </g>
      </g>
      <g id="Grupo_80728" data-name="Grupo 80728" transform="translate(8.459)">
        <g id="Grupo_80726" data-name="Grupo 80726" transform="translate(0.001)">
          <path id="Trazado_114748" data-name="Trazado 114748" d="M223.106,326.58a3.262,3.262,0,0,1-3.261,3.261H157.521a3.262,3.262,0,0,1,0-6.524h62.324A3.262,3.262,0,0,1,223.106,326.58Z" transform="translate(-154.26 -323.317)" fill="#fb3a82"/>
          <g id="Grupo_80725" data-name="Grupo 80725">
            <path id="Trazado_114749" data-name="Trazado 114749" d="M169.587,323.317l-6.021,6.524h-6.045a3.262,3.262,0,0,1,0-6.524Z" transform="translate(-154.26 -323.317)" fill="#fb1466"/>
            <path id="Trazado_114750" data-name="Trazado 114750" d="M465.3,326.582a3.265,3.265,0,0,1-3.264,3.264h-6.327a3.262,3.262,0,0,0,0-6.525h6.327A3.263,3.263,0,0,1,465.3,326.582Z" transform="translate(-396.455 -323.32)" fill="#fb1466"/>
          </g>
        </g>
        <g id="Grupo_80727" data-name="Grupo 80727" transform="translate(0 26.671)">
          <path id="Trazado_114751" data-name="Trazado 114751" d="M219.843,465.52H157.519a3.262,3.262,0,0,1,0-6.524h62.324a3.262,3.262,0,0,1,0,6.524Z" transform="translate(-154.257 -458.996)" fill="#fb3a82"/>
          <path id="Trazado_114752" data-name="Trazado 114752" d="M465.3,462.261a3.26,3.26,0,0,1-3.264,3.261h-6.327a3.261,3.261,0,1,0,0-6.522h6.327A3.263,3.263,0,0,1,465.3,462.261Z" transform="translate(-396.454 -458.999)" fill="#fb1466"/>
        </g>
      </g>
    </g>
    <g id="Grupo_80737" data-name="Grupo 80737" transform="translate(-0.001 12.193)">
      <g id="Grupo_80732" data-name="Grupo 80732" transform="translate(1.474 38.959)">
        <g id="Grupo_80730" data-name="Grupo 80730" transform="translate(0 12.478)">
          <path id="Trazado_114753" data-name="Trazado 114753" d="M50.44,279.123l-5.266-5.266L9.326,306.95a5.677,5.677,0,1,0,8.021,8.021Z" transform="translate(-7.5 -273.857)" fill="#873f30"/>
          <path id="Trazado_114754" data-name="Trazado 114754" d="M18.328,321.756a5.679,5.679,0,0,1-8.026,0,5.621,5.621,0,0,1-1.384-2.262,5.668,5.668,0,0,0,5.76-1.379c.054-.054.109-.112.162-.168L47.933,282.1l3.646,3.646L18.487,321.591C18.434,321.647,18.381,321.7,18.328,321.756Z" transform="translate(-8.639 -280.476)" fill="#6c3328"/>
        </g>
        <path id="Trazado_114755" data-name="Trazado 114755" d="M202.762,210.382l-12.126,14.465,4.954,4.953,14.465-12.126Z" transform="translate(-154.636 -210.382)" fill="#873f30"/>
        <path id="Trazado_114756" data-name="Trazado 114756" d="M210.737,210.382l-3.918,4.674,1.176,1.176a2.216,2.216,0,0,1,0,3.134l-7.432,7.432,3,3,14.465-12.126Z" transform="translate(-162.611 -210.382)" fill="#6c3328"/>
        <g id="Grupo_80731" data-name="Grupo 80731" transform="translate(31.987 11.503)">
          <path id="Trazado_114757" data-name="Trazado 114757" d="M176.073,279.784l-4.809-4.809a3.56,3.56,0,0,1,5.034-5.034l4.809,4.809a3.56,3.56,0,0,1-5.034,5.034Z" transform="translate(-170.222 -268.899)" fill="#ba5d4f"/>
          <path id="Trazado_114758" data-name="Trazado 114758" d="M190.12,288.8a3.56,3.56,0,0,1-5.034,0l-3.645-3.645a3.56,3.56,0,0,0,5.034-5.034l3.645,3.645A3.558,3.558,0,0,1,190.12,288.8Z" transform="translate(-179.236 -277.917)" fill="#a34f41"/>
        </g>
      </g>
      <g id="Grupo_80733" data-name="Grupo 80733" transform="translate(39.121 5.899)">
        <path id="Trazado_114759" data-name="Trazado 114759" d="M0,0H15.1V23.709H0Z" transform="translate(16.762 0) rotate(45)" fill="#ba5d4f"/>
        <path id="Trazado_114760" data-name="Trazado 114760" d="M0,0H15.1V23.709H0Z" transform="translate(34.065 50.841) rotate(-135)" fill="#a34f41"/>
      </g>
      <g id="Grupo_80736" data-name="Grupo 80736">
        <path id="Trazado_114761" data-name="Trazado 114761" d="M177.906,44.56l-.371-.371a3.6,3.6,0,0,1,0-5.093l18.347-18.347a3.6,3.6,0,0,1,5.093,0l.371.371a3.6,3.6,0,0,1,0,5.093L183,44.56a3.6,3.6,0,0,1-5.093,0Z" transform="translate(-141.788 -18.219)" fill="#873f30"/>
        <path id="Trazado_114762" data-name="Trazado 114762" d="M349.3,215.952l.371.371a3.6,3.6,0,0,0,5.093,0l18.347-18.347a3.6,3.6,0,0,0,0-5.093l-.371-.371a3.6,3.6,0,0,0-5.093,0L349.3,210.859A3.6,3.6,0,0,0,349.3,215.952Z" transform="translate(-279.788 -156.218)" fill="#6c3328"/>
        <g id="Grupo_80735" data-name="Grupo 80735">
          <path id="Trazado_114763" data-name="Trazado 114763" d="M0,0H16.959V35.808H0Z" transform="translate(71.194 12.654) rotate(45)" fill="#fcc16d"/>
          <path id="Trazado_114764" data-name="Trazado 114764" d="M0,0H35.808V8.584H0Z" transform="translate(51.792 43.905) rotate(-45)" fill="#fca62f"/>
          <path id="Trazado_114765" data-name="Trazado 114765" d="M250.94,68.268,248,67.067a2.7,2.7,0,0,0-2.932.59L224.443,88.284a2.7,2.7,0,0,0-.59,2.932l1.2,2.938a1.8,1.8,0,0,0,2.94.592l23.538-23.538A1.8,1.8,0,0,0,250.94,68.268Z" transform="translate(-179.688 -56.119)" fill="#873f30"/>
          <path id="Trazado_114766" data-name="Trazado 114766" d="M315.426,132.755l1.2,2.938a2.7,2.7,0,0,1-.59,2.932L295.41,159.252a2.7,2.7,0,0,1-2.932.59l-2.938-1.2a1.8,1.8,0,0,1-.592-2.94l23.538-23.538A1.8,1.8,0,0,1,315.426,132.755Z" transform="translate(-231.724 -108.156)" fill="#6c3328"/>
          <g id="Grupo_80734" data-name="Grupo 80734">
            <path id="Trazado_114767" data-name="Trazado 114767" d="M95.908,98.548h-1.1a15.246,15.246,0,0,1-1.27-2.421,1.474,1.474,0,1,0-2.725,1.128c.182.44.386.87.6,1.293H33.584a4.717,4.717,0,0,0-1.285.179,17.138,17.138,0,0,1-2.167-8.777c0-.643.029-1.277.084-1.9H58.463a1.474,1.474,0,0,0,0-2.949h-27l3.464-3.753H91.41A18.4,18.4,0,0,0,89.991,85.1H70.612a1.474,1.474,0,1,0,0,2.949H89.475c-.058.6-.091,1.2-.094,1.814a1.474,1.474,0,0,0,1.468,1.481h.006a1.474,1.474,0,0,0,1.474-1.468,15.775,15.775,0,0,1,2.479-8.528h1.1a4.736,4.736,0,1,0,0-9.473H77.479L94.364,54.993a5.075,5.075,0,0,0,0-7.178l-.371-.371a5.073,5.073,0,0,0-6.917-.242l-2.61-2.61.889-.889a4.166,4.166,0,0,0,.913-4.533l-1.2-2.938a3.268,3.268,0,0,0-2.372-1.968l-2.05-2.05A1.474,1.474,0,0,0,78.559,34.3l1.009,1.009L56.333,58.544,49.5,51.711,72.735,28.476l.9.9A1.474,1.474,0,1,0,75.724,27.3l-1.946-1.946a3.268,3.268,0,0,0-1.968-2.372h0l-2.937-1.2a4.167,4.167,0,0,0-4.533.912l-.889.889-2.61-2.61a5.073,5.073,0,0,0-.242-6.917l-.371-.371a5.076,5.076,0,0,0-7.178,0L34.7,32.027a5.075,5.075,0,0,0,0,7.178l.371.371a5.073,5.073,0,0,0,6.917.242l2.61,2.61-.889.889a4.166,4.166,0,0,0-.912,4.532L44,50.786a3.266,3.266,0,0,0,2.338,1.96l-7.392,8.818a5.037,5.037,0,0,0-6.653,6.386l-3.353,3.095a1.474,1.474,0,0,0,2,2.167l3.1-2.86L37.691,74,10.238,103.743A4.2,4.2,0,1,1,4.3,97.805L25.834,77.926a1.474,1.474,0,0,0-2-2.166L2.3,95.639a7.151,7.151,0,0,0,4.845,12.405h.148a7.09,7.09,0,0,0,5.111-2.3l8.836-9.572a16.992,16.992,0,0,0,2.37,5.054,3.433,3.433,0,0,0,2.8,1.436H28.89a4.729,4.729,0,0,0,4.694,5.359H95.908a4.736,4.736,0,0,0,0-9.473ZM97.7,76.615A1.79,1.79,0,0,1,95.908,78.4H37.644L40.1,75.748a5.039,5.039,0,0,0,5.029-.921H95.908A1.79,1.79,0,0,1,97.7,76.615ZM53.218,59.6l-8.537,7.157-3.394-3.394,7.157-8.537ZM46.787,71.878a5.063,5.063,0,0,0-.307-2.782L55.3,61.7a3.268,3.268,0,0,0,1.96,2.338l2.938,1.2a4.167,4.167,0,0,0,4.532-.912l.889-.889,2.61,2.61a5.085,5.085,0,0,0-.587,5.826H46.787ZM90.4,48.906a2.113,2.113,0,0,1,1.5.623l.371.371a2.127,2.127,0,0,1,0,3.008L73.931,71.255a2.127,2.127,0,0,1-3.008,0l-.371-.371a2.129,2.129,0,0,1,0-3.008L88.9,49.529a2.112,2.112,0,0,1,1.5-.623Zm-5.423.372L70.3,63.958l-2.6-2.6,14.68-14.68Zm-26.715,11.5L81.8,37.243a.31.31,0,0,1,.225-.1.36.36,0,0,1,.07.007.314.314,0,0,1,.238.2l1.2,2.938a1.223,1.223,0,0,1-.268,1.331L62.642,62.247a1.224,1.224,0,0,1-1.331.268l-2.937-1.2a.326.326,0,0,1-.108-.533Zm-19.6-22.666a2.112,2.112,0,0,1-1.5-.623l-.371-.371a2.127,2.127,0,0,1,0-3.008L55.136,15.765a2.127,2.127,0,0,1,3.008,0l.371.371a2.127,2.127,0,0,1,0,3.008L40.167,37.492a2.115,2.115,0,0,1-1.5.623Zm5.423-.372,14.68-14.68,2.6,2.6-14.68,14.68ZM45.8,45.4,66.425,24.774a1.224,1.224,0,0,1,1.332-.268l2.937,1.2a.326.326,0,0,1,.107.533L47.263,49.777a.326.326,0,0,1-.533-.107l-1.2-2.938A1.224,1.224,0,0,1,45.8,45.4ZM34.935,66.215A2.085,2.085,0,0,1,38.5,64.74L43.3,69.548A2.085,2.085,0,0,1,40.354,72.5l-4.808-4.808a2.072,2.072,0,0,1-.611-1.475Zm-8.921,33.3a14.874,14.874,0,0,1-2.361-5.958l3.534-3.828c0,.073,0,.146,0,.219a20.456,20.456,0,0,0,2.287,9.763H26.407A.48.48,0,0,1,26.014,99.517Zm69.894,5.555H33.584a1.788,1.788,0,0,1,0-3.575H95.908a1.788,1.788,0,1,1,0,3.575Z" transform="translate(0.001 -12.193)"/>
            <path id="Trazado_114768" data-name="Trazado 114768" d="M203.8,417.166a1.474,1.474,0,0,0,0,2.949h34.347a1.474,1.474,0,1,0,0-2.949Z" transform="translate(-162.555 -337.559)"/>
          </g>
        </g>
      </g>
    </g>
  </g>
</svg>
