<svg xmlns="http://www.w3.org/2000/svg" xmlns:xlink="http://www.w3.org/1999/xlink" width="54" height="54" viewBox="0 0 54 54">
  <defs>
    <clipPath id="clip-path">
      <rect id="Rectángulo_34357" data-name="Rectángulo 34357" width="54" height="54" transform="translate(-2713 -895)" fill="#fff" stroke="#707070" stroke-width="1"/>
    </clipPath>
  </defs>
  <g id="Enmascarar_grupo_80" data-name="Enmascarar grupo 80" transform="translate(2713 895)" clip-path="url(#clip-path)">
    <g id="segment" transform="translate(-2714.8 -896.8)">
      <path id="Trazado_116952" data-name="Trazado 116952" d="M51.408,41.85a26.108,26.108,0,0,1-45.216,0H6.2L28.8,28.8,51.4,41.85Z" fill="#57a4ff"/>
      <path id="Trazado_116953" data-name="Trazado 116953" d="M28.8,2.7V28.8L6.2,41.85H6.192A26.106,26.106,0,0,1,28.8,2.7Z" fill="#ffeb99"/>
      <path id="Trazado_116954" data-name="Trazado 116954" d="M54.9,28.8a25.949,25.949,0,0,1-3.492,13.05H51.4L28.8,28.8V2.7A26.1,26.1,0,0,1,54.9,28.8Z" fill="#ff7956"/>
      <path id="Trazado_116955" data-name="Trazado 116955" d="M30.6,36v7.2l-1.8-1.8L27,43.2V36Z" fill="#ffeb99"/>
      <path id="Trazado_116956" data-name="Trazado 116956" d="M41.445,14.4H41.4a7.2,7.2,0,0,0-.045,14.4H41.4a7.2,7.2,0,0,0,.045-14.4Z" fill="#ffeb99"/>
      <path id="Trazado_116957" data-name="Trazado 116957" d="M36,37.8V48.6a1.805,1.805,0,0,1-1.8,1.8H23.4a1.805,1.805,0,0,1-1.8-1.8V37.8A1.805,1.805,0,0,1,23.4,36H27v7.2l1.8-1.8,1.8,1.8V36h3.6A1.805,1.805,0,0,1,36,37.8Z" fill="#ff7956"/>
      <path id="Trazado_116958" data-name="Trazado 116958" d="M25.2,23.4v1.8A1.805,1.805,0,0,1,23.4,27H21.6V21.6h1.8a1.805,1.805,0,0,1,1.8,1.8Z" fill="#ffc477"/>
      <path id="Trazado_116959" data-name="Trazado 116959" d="M23.4,17.1v4.5H21.6v-.9l-2.7-.9-2.7,1.8V18.9l-2.7,2.7V19.8l-2.7.9v.9H9V17.1a4.5,4.5,0,0,1,4.5-4.5h5.4a4.5,4.5,0,0,1,4.5,4.5Z" fill="#c0ab91"/>
      <path id="Trazado_116960" data-name="Trazado 116960" d="M21.6,25.2v.9a5.346,5.346,0,0,1-.306,1.791,5.4,5.4,0,0,1-10.188,0A5.346,5.346,0,0,1,10.8,26.1V20.7l2.7-.9v1.8l2.7-2.7v2.7l2.7-1.8,2.7.9Z" fill="#ffdaaa"/>
      <path id="Trazado_116961" data-name="Trazado 116961" d="M10.8,26.1V27H9a1.805,1.805,0,0,1-1.8-1.8V23.4A1.805,1.805,0,0,1,9,21.6h1.8Z" fill="#ffc477"/>
      <path id="Trazado_116962" data-name="Trazado 116962" d="M28.8,1.8a27,27,0,1,0,27,27,27,27,0,0,0-27-27ZM54,28.8a25.05,25.05,0,0,1-2.947,11.809L29.7,28.28V3.622A25.227,25.227,0,0,1,54,28.8ZM27.9,3.622v24.66L6.547,40.609A25.182,25.182,0,0,1,27.9,3.622ZM28.8,54A25.2,25.2,0,0,1,7.451,42.165L28.8,29.839l21.349,12.33A25.2,25.2,0,0,1,28.8,54Z"/>
      <path id="Trazado_116963" data-name="Trazado 116963" d="M40.5,27h1.8v-.9a1.8,1.8,0,0,0,1.8-1.8V22.5a1.8,1.8,0,0,0-1.8-1.8H40.5V18.9h3.6V17.1H42.3v-.9H40.5v.9a1.8,1.8,0,0,0-1.8,1.8v1.8a1.8,1.8,0,0,0,1.8,1.8h1.8v1.8H38.7v1.8h1.8Z"/>
      <path id="Trazado_116964" data-name="Trazado 116964" d="M41.4,29.7a8.1,8.1,0,1,0-8.1-8.1,8.1,8.1,0,0,0,8.1,8.1Zm0-14.4a6.3,6.3,0,1,1-6.3,6.3,6.3,6.3,0,0,1,6.3-6.3Z"/>
      <path id="Trazado_116965" data-name="Trazado 116965" d="M34.2,35.1H23.4a2.7,2.7,0,0,0-2.7,2.7V48.6a2.7,2.7,0,0,0,2.7,2.7H34.2a2.7,2.7,0,0,0,2.7-2.7V37.8A2.7,2.7,0,0,0,34.2,35.1Zm-6.3,1.8h1.8v4.127l-.264-.264a.9.9,0,0,0-1.273,0l-.264.264Zm7.2,11.7a.9.9,0,0,1-.9.9H23.4a.9.9,0,0,1-.9-.9V37.8a.9.9,0,0,1,.9-.9h2.7v6.3a.9.9,0,0,0,1.536.636L28.8,42.673l1.164,1.164A.9.9,0,0,0,31.5,43.2V36.9h2.7a.9.9,0,0,1,.9.9Z"/>
      <path id="Trazado_116966" data-name="Trazado 116966" d="M9,27.9h1.182c.029.1.041.2.075.29a6.3,6.3,0,0,0,11.887,0c.033-.095.046-.194.075-.29H23.4a2.7,2.7,0,0,0,2.7-2.7V23.4a2.7,2.7,0,0,0-1.8-2.534V17.1a5.405,5.405,0,0,0-5.4-5.4H13.5a5.405,5.405,0,0,0-5.4,5.4v3.766A2.7,2.7,0,0,0,6.3,23.4v1.8A2.7,2.7,0,0,0,9,27.9Zm11.446-.31h0A4.5,4.5,0,0,1,11.7,26.1V21.349l.9-.3V21.6a.9.9,0,0,0,1.536.636L15.3,21.073V21.6a.9.9,0,0,0,1.4.749l2.333-1.559,1.668.559V26.1a4.459,4.459,0,0,1-.254,1.49ZM24.3,25.2a.9.9,0,0,1-.9.9h-.9V22.5h.9a.9.9,0,0,1,.9.9ZM9.9,17.1a3.6,3.6,0,0,1,3.6-3.6h5.4a3.6,3.6,0,0,1,3.6,3.6v3.6a.9.9,0,0,0-.616-.854l-2.7-.9a.912.912,0,0,0-.784.105l-1.3.867V18.9a.9.9,0,0,0-1.536-.636l-1.22,1.22a.9.9,0,0,0-1.128-.54l-2.7.9A.9.9,0,0,0,9.9,20.7ZM8.1,23.4a.9.9,0,0,1,.9-.9h.9v3.6H9a.9.9,0,0,1-.9-.9Z"/>
      <path id="Trazado_116967" data-name="Trazado 116967" d="M16.2,27a.9.9,0,0,1-.9-.9H13.5a2.7,2.7,0,1,0,5.4,0H17.1A.9.9,0,0,1,16.2,27Z"/>
    </g>
  </g>
</svg>
