<svg xmlns="http://www.w3.org/2000/svg" xmlns:xlink="http://www.w3.org/1999/xlink" width="54" height="54" viewBox="0 0 54 54">
  <defs>
    <clipPath id="clip-path">
      <rect id="Rectángulo_34370" data-name="Rectángulo 34370" width="54" height="54" transform="translate(-2465 -396.5)" fill="#fff" stroke="#707070" stroke-width="1"/>
    </clipPath>
  </defs>
  <g id="Enmascarar_grupo_87" data-name="Enmascarar grupo 87" transform="translate(2465 396.5)" clip-path="url(#clip-path)">
    <g id="mezcla" transform="translate(-2465.871 -397.371)">
      <g id="Grupo_81323" data-name="Grupo 81323">
        <g id="Grupo_81310" data-name="Grupo 81310">
          <path id="Trazado_117000" data-name="Trazado 117000" d="M41.806,50.516a1.747,1.747,0,0,1,1.742,1.742A1.755,1.755,0,0,1,41.806,54H13.935a1.747,1.747,0,0,1-1.742-1.742,1.755,1.755,0,0,1,1.742-1.742H41.806Z" fill="#b27946"/>
        </g>
        <g id="Grupo_81311" data-name="Grupo 81311">
          <path id="Trazado_117001" data-name="Trazado 117001" d="M48.774,29.613V33.1H6.968V29.613H48.774Z" fill="#d3a06c"/>
        </g>
        <g id="Grupo_81312" data-name="Grupo 81312">
          <path id="Trazado_117002" data-name="Trazado 117002" d="M6.968,33.1l7.839,17.419H40.935L48.774,33.1Z" fill="#fcd770"/>
        </g>
        <g id="Grupo_81313" data-name="Grupo 81313">
          <path id="Trazado_117003" data-name="Trazado 117003" d="M40.378,20.015a9.6,9.6,0,0,1-5.034-5.635h-.009a9.565,9.565,0,1,1,5.043,5.635Z" fill="#e6e9ed"/>
        </g>
        <g id="Grupo_81314" data-name="Grupo 81314">
          <path id="Trazado_117004" data-name="Trazado 117004" d="M7.281,20.015A9.6,9.6,0,0,1,2.247,14.38H2.238a9.565,9.565,0,1,1,5.043,5.635Z" fill="#e6e9ed"/>
        </g>
        <g id="Grupo_81315" data-name="Grupo 81315">
          <path id="Trazado_117005" data-name="Trazado 117005" d="M40.378,20.015a9.6,9.6,0,0,1-5.034-5.635h-.009a13.836,13.836,0,0,0-14.928,0H20.4a9.329,9.329,0,0,1-.88,1.916,9.705,9.705,0,0,1-4.155,3.719,13.738,13.738,0,0,0-.975,9.6H41.354a13.738,13.738,0,0,0-.975-9.6Z" fill="#ccd1d9"/>
        </g>
        <g id="Grupo_81316" data-name="Grupo 81316">
          <path id="Trazado_117006" data-name="Trazado 117006" d="M50.516,7.839v6.968l-5.226-.749-5.226-.74-1.742-.253V9.581Z" fill="#ff826e"/>
        </g>
        <g id="Grupo_81317" data-name="Grupo 81317">
          <path id="Trazado_117007" data-name="Trazado 117007" d="M33.1,20.9h3.484v8.71H33.1Z" fill="#5cd6b3"/>
        </g>
        <g id="Grupo_81318" data-name="Grupo 81318">
          <path id="Trazado_117008" data-name="Trazado 117008" d="M26.129,15.677h3.484V29.613H26.129Z" fill="#5cd6b3"/>
        </g>
        <g id="Grupo_81319" data-name="Grupo 81319">
          <path id="Trazado_117009" data-name="Trazado 117009" d="M19.161,22.645h3.484v6.968H19.161Z" fill="#5cd6b3"/>
        </g>
        <g id="Grupo_81320" data-name="Grupo 81320">
          <path id="Trazado_117010" data-name="Trazado 117010" d="M17.419,14.806a1.75,1.75,0,0,1-1.742,1.742,1.742,1.742,0,1,1,1.742-1.742Z" fill="#969faa"/>
        </g>
        <g id="Grupo_81321" data-name="Grupo 81321">
          <path id="Trazado_117011" data-name="Trazado 117011" d="M16.548,9.581l-.871,3.484H8.71L7.551,9.581Z" fill="#ff826e"/>
        </g>
        <g id="Grupo_81322" data-name="Grupo 81322">
          <circle id="Elipse_4823" data-name="Elipse 4823" cx="1.742" cy="1.742" r="1.742" transform="translate(6.968 13.065)" fill="#969faa"/>
        </g>
      </g>
      <g id="Grupo_81324" data-name="Grupo 81324">
        <path id="Trazado_117012" data-name="Trazado 117012" d="M26.776,46.161H27V47.9h1.742V46.161h.224a2.39,2.39,0,0,0,.755-4.657l-3.149-1.05a.647.647,0,0,1,.2-1.261h2.19a.648.648,0,0,1,.647.648v.223h1.742v-.223a2.392,2.392,0,0,0-2.389-2.39h-.224V35.71H27v1.742h-.224a2.39,2.39,0,0,0-.755,4.657l3.149,1.05a.647.647,0,0,1-.2,1.261h-2.19a.648.648,0,0,1-.647-.648V42.677H24.387v1.094A2.392,2.392,0,0,0,26.776,46.161Z"/>
        <path id="Trazado_117013" data-name="Trazado 117013" d="M39.194,15.677a2.616,2.616,0,0,0,2.613,2.613h1.742a2.616,2.616,0,0,0,2.613-2.613v-.613l5.226.746V6.834L37.452,8.826V13.82l1.742.249Zm5.226,0a.872.872,0,0,1-.871.871H41.806a.872.872,0,0,1-.871-.871v-1.36l3.484.5Zm-5.226-5.342L49.645,8.843V13.8L39.194,12.309Z"/>
        <path id="Trazado_117014" data-name="Trazado 117014" d="M54.871,11.323a10.452,10.452,0,1,0-20.9,0,10.324,10.324,0,0,0,.1,1.372,14.687,14.687,0,0,0-12.4,0,10.324,10.324,0,0,0,.1-1.372,10.506,10.506,0,1,0-7.93,10.131,14.217,14.217,0,0,0-.531,7.288H6.1v4.542L13.48,49.691a2.61,2.61,0,0,0,.456,5.18H41.806a2.61,2.61,0,0,0,.456-5.18l7.383-16.407V28.742H42.429a14.217,14.217,0,0,0-.531-7.288A10.41,10.41,0,0,0,54.871,11.323ZM44.419,2.613a8.71,8.71,0,1,1-8.71,8.71A8.72,8.72,0,0,1,44.419,2.613ZM2.613,11.323a8.71,8.71,0,1,1,8.71,8.71A8.72,8.72,0,0,1,2.613,11.323Zm5.7,22.645H47.428L40.373,49.645h-25ZM41.806,51.387a.871.871,0,1,1,0,1.742H13.935a.871.871,0,0,1,0-1.742H41.806Zm6.1-19.161H7.839V30.484H47.9ZM21.774,28.742H20.032V23.516h1.742Zm6.968,0H27V16.548h1.742Zm6.968,0H33.968V21.774H35.71Zm5.226-2.613a12.866,12.866,0,0,1-.281,2.613h-3.2v-8.71H32.226v8.71H30.484V14.806H25.258V28.742H23.516V21.774H18.29v6.968h-3.2a12.628,12.628,0,0,1,.959-8.109A10.5,10.5,0,0,0,21.1,14.975a12.942,12.942,0,0,1,13.537,0A10.5,10.5,0,0,0,39.7,20.633,12.893,12.893,0,0,1,40.935,26.129Z"/>
        <path id="Trazado_117015" data-name="Trazado 117015" d="M18.29,14.806a2.613,2.613,0,0,0-1.554-2.384l.928-3.713H8.177L7.6,6.968H4.355V8.71H6.34l1.249,3.746a2.609,2.609,0,1,0,3.734,2.351,2.583,2.583,0,0,0-.16-.871h2.063a2.563,2.563,0,0,0-.161.871,2.613,2.613,0,1,0,5.226,0Zm-2.858-4.355L15,12.194H9.338l-.581-1.742ZM9.581,14.806a.871.871,0,1,1-.871-.871A.872.872,0,0,1,9.581,14.806Zm6.1.871a.871.871,0,1,1,.871-.871A.872.872,0,0,1,15.677,15.677Z"/>
      </g>
    </g>
  </g>
</svg>
